G04 DipTrace 2.4.0.2*
%INcross.gbl*%
%MOMM*%
%ADD14C,0.508*%
%ADD15C,0.254*%
%ADD16C,0.305*%
%ADD18C,0.152*%
%ADD25C,0.711*%
%ADD37R,5.08X2.6*%
%ADD38R,5.08X8.0*%
%ADD43R,1.25X2.0*%
%ADD44C,2.0*%
%ADD46C,0.711*%
%FSLAX53Y53*%
G04*
G71*
G90*
G75*
G01*
%LNBottom*%
%LPD*%
X35146Y56709D2*
D14*
Y56592D1*
X29877D1*
X28795Y55510D1*
Y55191D1*
X30896Y53089D1*
Y50482D1*
X29975Y49561D1*
X29736D1*
X29048Y48872D1*
Y40233D1*
X31018Y38263D1*
X31961D1*
X27819Y56532D2*
Y56486D1*
X28795Y55510D1*
X31857Y13744D2*
D16*
Y13549D1*
X31474Y13166D1*
X31204D1*
X30733Y12695D1*
Y11600D1*
X30560Y11426D1*
X38366Y58014D2*
D14*
Y58379D1*
X39359Y59372D1*
Y62891D1*
X39694Y63226D1*
X39844D1*
X32402Y25433D2*
X32349D1*
Y21006D1*
X29863Y18520D1*
Y15857D1*
X31857Y13864D1*
Y13744D1*
X32488Y21006D2*
X32349D1*
X32402Y25433D2*
Y25827D1*
X34720Y28146D1*
X35345D2*
X34720D1*
X33925Y14580D2*
D16*
Y14417D1*
X33798Y14291D1*
Y11188D1*
X33497Y10888D1*
X33925Y14580D2*
D14*
X33520D1*
X32000Y16100D1*
X32900D1*
Y17000D2*
Y16100D1*
Y17000D2*
X32000D1*
X31100D1*
Y16100D1*
Y17000D2*
Y17900D1*
X32000D1*
X32900D1*
Y19632D1*
X33298Y20031D1*
Y21769D1*
X33204Y21863D1*
X32611Y44163D2*
X34811D1*
X32611Y36863D2*
X34811D1*
Y44163D2*
Y44824D1*
X34864Y44877D1*
X34811Y36863D2*
Y36139D1*
X34863Y36086D1*
X36060Y56869D2*
Y56940D1*
X32000Y61000D1*
X33863Y65005D2*
Y62863D1*
X32000Y61000D1*
X33925Y14580D2*
Y14747D1*
X34720Y15542D1*
X35345D2*
X34720D1*
Y25034D2*
X33237D1*
X33160Y24957D1*
X31102Y24993D2*
D15*
Y20561D1*
X28440Y17900D1*
Y15515D1*
X29738Y14218D1*
X35345Y25034D2*
D14*
X34720D1*
X29082Y16844D2*
D16*
Y15826D1*
X30686Y14222D1*
Y13839D1*
X35345Y18600D2*
D14*
Y17492D1*
X35096Y17243D1*
X35345Y18600D2*
X34720D1*
Y21817D2*
Y22171D1*
X33266Y23625D1*
X35345Y21817D2*
X34720D1*
X31961Y39763D2*
X30894D1*
X30175Y40482D1*
Y45535D1*
X32000Y47360D1*
X31570D1*
Y55331D1*
X32159Y55920D1*
X36459D1*
X36950Y56411D1*
Y61759D1*
X37359Y62167D1*
Y64943D1*
X32017Y70284D1*
Y74623D1*
X32000Y74640D1*
X24261Y60518D2*
Y58102D1*
X29025Y53338D1*
Y52923D1*
X29659Y52290D1*
X28291Y65957D2*
Y65709D1*
X23663Y61080D1*
X12719D1*
X12655Y61017D1*
X12284Y59184D2*
Y59714D1*
X11431Y60567D1*
Y61465D1*
X12029Y62064D1*
X23235D1*
X27897Y66726D1*
X29137D1*
X32925Y55152D2*
D15*
Y53589D1*
X35512Y51001D1*
Y31055D1*
X30401Y25945D1*
Y20771D1*
X29088Y19458D1*
X28288Y57727D2*
X27623D1*
X27088Y57192D1*
Y56082D1*
X30323Y52847D1*
Y51636D1*
X28480Y49793D1*
Y21268D1*
X29214Y20534D1*
X38127Y63529D2*
D14*
Y65229D1*
X35272Y68084D1*
Y77063D1*
X33591Y78744D1*
X32080Y80255D1*
X30739D1*
X29822Y79339D1*
X33580Y79292D2*
Y78744D1*
X33591D1*
X31348Y79230D2*
X31275D1*
X28987Y76942D1*
Y69411D1*
X30806Y67593D1*
X33759D1*
X36591Y64761D1*
Y62530D1*
X36527D1*
D46*
X34863Y36086D3*
X34864Y44877D3*
X29137Y66726D3*
X28291Y65957D3*
X29082Y16844D3*
X30686Y13839D3*
X33925Y14580D3*
X31857Y13744D3*
X30560Y11426D3*
X33497Y10888D3*
X12284Y59184D3*
X12655Y61017D3*
X31348Y79230D3*
X29822Y79339D3*
X36527Y62530D3*
X38127Y63529D3*
X38366Y58014D3*
X39844Y63226D3*
X35146Y56709D3*
X24261Y60518D3*
X33204Y21863D3*
X32402Y25433D3*
X29659Y52290D3*
X27819Y56532D3*
X36060Y56869D3*
X33863Y65005D3*
X32488Y21006D3*
X28288Y57727D3*
X32925Y55152D3*
X29214Y20534D3*
X29088Y19458D3*
X35096Y17243D3*
X33266Y23625D3*
X33160Y24957D3*
X31102Y24993D3*
X29738Y14218D3*
X28750Y68885D2*
D18*
X28842D1*
X28750Y68736D2*
X28993D1*
X28750Y68587D2*
X29141D1*
X28750Y68438D2*
X29291D1*
X28750Y68289D2*
X29439D1*
X28750Y68140D2*
X29589D1*
X28750Y67991D2*
X29739D1*
X28750Y67842D2*
X29886D1*
X28750Y67693D2*
X30036D1*
X28633Y67544D2*
X30184D1*
X28433Y67394D2*
X30334D1*
X28236Y67245D2*
X28901D1*
X29374D2*
X30484D1*
X29579Y67096D2*
X33585D1*
X29672Y66947D2*
X33735D1*
X29712Y66798D2*
X33885D1*
X29712Y66649D2*
X34032D1*
X29669Y66500D2*
X34182D1*
X29574Y66351D2*
X34330D1*
X28814Y66202D2*
X28912D1*
X29362D2*
X34480D1*
X28862Y66053D2*
X34630D1*
X28869Y65904D2*
X34778D1*
X28833Y65755D2*
X34928D1*
X28757Y65606D2*
X35075D1*
X28695Y65457D2*
X35225D1*
X28560Y65308D2*
X35375D1*
X28412Y65158D2*
X29236D1*
X34765D2*
X35523D1*
X28262Y65009D2*
X29236D1*
X34765D2*
X35673D1*
X28112Y64860D2*
X29236D1*
X34765D2*
X35821D1*
X27964Y64711D2*
X29236D1*
X34765D2*
X35971D1*
X27814Y64562D2*
X29236D1*
X34765D2*
X36113D1*
X27667Y64413D2*
X29236D1*
X34765D2*
X36113D1*
X27517Y64264D2*
X29236D1*
X34765D2*
X36113D1*
X27367Y64115D2*
X29236D1*
X34765D2*
X36113D1*
X27219Y63966D2*
X29236D1*
X34765D2*
X36113D1*
X27069Y63817D2*
X29236D1*
X34765D2*
X36113D1*
X26921Y63668D2*
X29236D1*
X34765D2*
X36113D1*
X26771Y63519D2*
X29236D1*
X34765D2*
X36113D1*
X26621Y63370D2*
X29236D1*
X34765D2*
X36113D1*
X26474Y63221D2*
X29236D1*
X34765D2*
X36113D1*
X26324Y63072D2*
X29236D1*
X34765D2*
X36113D1*
X26176Y62922D2*
X29236D1*
X34765D2*
X36106D1*
X26026Y62773D2*
X29236D1*
X34765D2*
X36002D1*
X25876Y62624D2*
X29236D1*
X34765D2*
X35954D1*
X25728Y62475D2*
X29236D1*
X34765D2*
X35949D1*
X25578Y62326D2*
X29236D1*
X34765D2*
X35985D1*
X25431Y62177D2*
X29236D1*
X34765D2*
X36071D1*
X25281Y62028D2*
X29236D1*
X34765D2*
X36254D1*
X25131Y61879D2*
X29236D1*
X34765D2*
X36487D1*
X24983Y61730D2*
X29236D1*
X34765D2*
X36473D1*
X24833Y61581D2*
X29236D1*
X34765D2*
X36473D1*
X24685Y61432D2*
X29236D1*
X34765D2*
X36473D1*
X24535Y61283D2*
X29236D1*
X34765D2*
X36473D1*
X24385Y61134D2*
X29236D1*
X34765D2*
X36473D1*
X24595Y60985D2*
X29236D1*
X34765D2*
X36473D1*
X24742Y60836D2*
X29236D1*
X34765D2*
X36473D1*
X24816Y60686D2*
X29236D1*
X34765D2*
X36473D1*
X24840Y60537D2*
X29236D1*
X34765D2*
X36473D1*
X24826Y60388D2*
X29236D1*
X34765D2*
X36473D1*
X24769Y60239D2*
X29236D1*
X34765D2*
X36473D1*
X24740Y60090D2*
X29236D1*
X34765D2*
X36473D1*
X24740Y59941D2*
X29236D1*
X34765D2*
X36473D1*
X24740Y59792D2*
X29236D1*
X34765D2*
X36473D1*
X24740Y59643D2*
X29236D1*
X34765D2*
X36473D1*
X24740Y59494D2*
X29236D1*
X34765D2*
X36473D1*
X24740Y59345D2*
X29236D1*
X34765D2*
X36473D1*
X24740Y59196D2*
X29236D1*
X34765D2*
X36473D1*
X24740Y59047D2*
X29236D1*
X34765D2*
X36473D1*
X24740Y58898D2*
X29236D1*
X34765D2*
X36473D1*
X24740Y58749D2*
X29236D1*
X34765D2*
X36473D1*
X24740Y58600D2*
X29236D1*
X34765D2*
X36473D1*
X24740Y58450D2*
X29236D1*
X34765D2*
X36473D1*
X24740Y58301D2*
X29236D1*
X34765D2*
X36473D1*
X24881Y58152D2*
X27900D1*
X28674D2*
X29236D1*
X34765D2*
X36473D1*
X25031Y58003D2*
X27417D1*
X28795D2*
X29236D1*
X34765D2*
X36473D1*
X25181Y57854D2*
X27260D1*
X28853D2*
X29236D1*
X34765D2*
X36473D1*
X25328Y57705D2*
X27110D1*
X28867D2*
X29236D1*
X34765D2*
X36473D1*
X25478Y57556D2*
X26962D1*
X28841D2*
X29236D1*
X34765D2*
X36473D1*
X25626Y57407D2*
X26815D1*
X28769D2*
X29236D1*
X34765D2*
X36473D1*
X25776Y57258D2*
X26743D1*
X27643D2*
X27958D1*
X28617D2*
X29236D1*
X34765D2*
X34997D1*
X35294D2*
X36473D1*
X25926Y57109D2*
X26736D1*
X27495D2*
X29236D1*
X35561D2*
X36473D1*
X26074Y56960D2*
X26736D1*
X28202D2*
X29236D1*
X35668D2*
X36473D1*
X26224Y56811D2*
X26736D1*
X28324D2*
X29236D1*
X35718D2*
X36473D1*
X26371Y56662D2*
X26736D1*
X28383D2*
X29277D1*
X35725D2*
X36473D1*
X26521Y56513D2*
X26736D1*
X28462D2*
X29127D1*
X35691D2*
X36383D1*
X28612Y56364D2*
X28979D1*
X32229Y55320D2*
X32370D1*
X32079Y55171D2*
X32346D1*
X32048Y55022D2*
X32361D1*
X32048Y54873D2*
X32418D1*
X32048Y54724D2*
X32542D1*
X32048Y54575D2*
X32573D1*
X32048Y54426D2*
X32573D1*
X32048Y54277D2*
X32573D1*
X32048Y54128D2*
X32573D1*
X32048Y53978D2*
X32573D1*
X32048Y53829D2*
X32573D1*
X32048Y53680D2*
X32573D1*
X32048Y53531D2*
X32577D1*
X32048Y53382D2*
X32644D1*
X32048Y53233D2*
X32789D1*
X32048Y53084D2*
X32939D1*
X32048Y52935D2*
X33087D1*
X32048Y52786D2*
X33237D1*
X32048Y52637D2*
X33387D1*
X32048Y52488D2*
X33535D1*
X32048Y52339D2*
X33685D1*
X32048Y52190D2*
X33832D1*
X32048Y52041D2*
X33982D1*
X32048Y51892D2*
X34132D1*
X32048Y51742D2*
X34280D1*
X32048Y51593D2*
X34430D1*
X32048Y51444D2*
X34578D1*
X32048Y51295D2*
X34728D1*
X32048Y51146D2*
X34878D1*
X32048Y50997D2*
X35025D1*
X32048Y50848D2*
X35161D1*
X32048Y50699D2*
X35161D1*
X32048Y50550D2*
X35161D1*
X32048Y50401D2*
X35161D1*
X32048Y50252D2*
X35161D1*
X32048Y50103D2*
X35161D1*
X32048Y49954D2*
X35161D1*
X32048Y49805D2*
X35161D1*
X32048Y49656D2*
X35161D1*
X32048Y49506D2*
X35161D1*
X32048Y49357D2*
X35161D1*
X32048Y49208D2*
X35161D1*
X32048Y49059D2*
X35161D1*
X32048Y48910D2*
X35161D1*
X34765Y48761D2*
X35161D1*
X34765Y48612D2*
X35161D1*
X34765Y48463D2*
X35161D1*
X34765Y48314D2*
X35161D1*
X34765Y48165D2*
X35161D1*
X34765Y48016D2*
X35161D1*
X34765Y47867D2*
X35161D1*
X34765Y47718D2*
X35161D1*
X34765Y47569D2*
X35161D1*
X34765Y47420D2*
X35161D1*
X34765Y47270D2*
X35161D1*
X34765Y47121D2*
X35161D1*
X34765Y46972D2*
X35161D1*
X34765Y46823D2*
X35161D1*
X34765Y46674D2*
X35161D1*
X34765Y46525D2*
X35161D1*
X34765Y46376D2*
X35161D1*
X34765Y46227D2*
X35161D1*
X34765Y46078D2*
X35161D1*
X34765Y45929D2*
X35161D1*
X29526Y45780D2*
X29767D1*
X31091D2*
X35161D1*
X29526Y45631D2*
X29708D1*
X30941D2*
X35161D1*
X29526Y45482D2*
X29696D1*
X30791D2*
X35161D1*
X29526Y45333D2*
X29696D1*
X30653D2*
X35161D1*
X29526Y45184D2*
X29696D1*
X30653D2*
X35161D1*
X29526Y45034D2*
X29696D1*
X30653D2*
X35161D1*
X29526Y44885D2*
X29696D1*
X30653D2*
X35161D1*
X29526Y44736D2*
X29696D1*
X30653D2*
X31999D1*
X33222D2*
X34199D1*
X29526Y44587D2*
X29696D1*
X30653D2*
X31987D1*
X33234D2*
X34187D1*
X29526Y44438D2*
X29696D1*
X30653D2*
X31987D1*
X33234D2*
X34187D1*
X29526Y44289D2*
X29696D1*
X30653D2*
X31987D1*
X33234D2*
X34187D1*
X29526Y44140D2*
X29696D1*
X30653D2*
X31987D1*
X33234D2*
X34187D1*
X29526Y43991D2*
X29696D1*
X30653D2*
X31987D1*
X33234D2*
X34187D1*
X29526Y43842D2*
X29696D1*
X30653D2*
X31987D1*
X33234D2*
X34187D1*
X29526Y43693D2*
X29696D1*
X30653D2*
X31987D1*
X33234D2*
X34187D1*
X29526Y43544D2*
X29696D1*
X30653D2*
X32022D1*
X33198D2*
X34223D1*
X29526Y43395D2*
X29696D1*
X30653D2*
X35161D1*
X29526Y43246D2*
X29696D1*
X30653D2*
X31003D1*
X32920D2*
X35161D1*
X29526Y43097D2*
X29696D1*
X30653D2*
X30960D1*
X32960D2*
X35161D1*
X29526Y42948D2*
X29696D1*
X30653D2*
X30960D1*
X32960D2*
X35161D1*
X29526Y42798D2*
X29696D1*
X30653D2*
X30960D1*
X32960D2*
X35161D1*
X29526Y42649D2*
X29696D1*
X30653D2*
X30960D1*
X32960D2*
X33444D1*
X33977D2*
X35161D1*
X29526Y42500D2*
X29696D1*
X30653D2*
X30960D1*
X32960D2*
X33215D1*
X34206D2*
X35161D1*
X29526Y42351D2*
X29696D1*
X30653D2*
X30970D1*
X32953D2*
X33101D1*
X34320D2*
X35161D1*
X29526Y42202D2*
X29696D1*
X30653D2*
X31094D1*
X32829D2*
X33037D1*
X34384D2*
X35161D1*
X29526Y42053D2*
X29696D1*
X30653D2*
X33013D1*
X34408D2*
X35161D1*
X29526Y41904D2*
X29696D1*
X30653D2*
X33020D1*
X34401D2*
X35161D1*
X29526Y41755D2*
X29696D1*
X30653D2*
X33061D1*
X34360D2*
X35161D1*
X29526Y41606D2*
X29696D1*
X30653D2*
X33144D1*
X34277D2*
X35161D1*
X29526Y41457D2*
X29696D1*
X30653D2*
X33296D1*
X34125D2*
X35161D1*
X29526Y41308D2*
X29696D1*
X30653D2*
X35161D1*
X29526Y41159D2*
X29696D1*
X30653D2*
X35161D1*
X29526Y41010D2*
X29696D1*
X30653D2*
X35161D1*
X29526Y40861D2*
X29696D1*
X30653D2*
X35161D1*
X29526Y40712D2*
X29696D1*
X30653D2*
X35161D1*
X29526Y40562D2*
X29696D1*
X30765D2*
X35161D1*
X29538Y40413D2*
X29703D1*
X30915D2*
X35161D1*
X32870Y40264D2*
X35161D1*
X32934Y40115D2*
X35161D1*
X32934Y39966D2*
X35161D1*
X32934Y39817D2*
X35161D1*
X28831Y39668D2*
X28943D1*
X32934D2*
X33496D1*
X33925D2*
X35161D1*
X28831Y39519D2*
X29091D1*
X32934D2*
X33234D1*
X34187D2*
X35161D1*
X28831Y39370D2*
X29241D1*
X32929D2*
X33111D1*
X34310D2*
X35161D1*
X28831Y39221D2*
X29391D1*
X30729D2*
X31113D1*
X32808D2*
X33044D1*
X34377D2*
X35161D1*
X28831Y39072D2*
X29539D1*
X30879D2*
X33013D1*
X34408D2*
X35161D1*
X28831Y38923D2*
X29689D1*
X31029D2*
X33018D1*
X34403D2*
X35161D1*
X28831Y38774D2*
X29836D1*
X32860D2*
X33054D1*
X34367D2*
X35161D1*
X28831Y38625D2*
X29986D1*
X32934D2*
X33132D1*
X34289D2*
X35161D1*
X28831Y38476D2*
X30136D1*
X32934D2*
X33273D1*
X34148D2*
X35161D1*
X28831Y38326D2*
X30284D1*
X32934D2*
X35161D1*
X28831Y38177D2*
X30434D1*
X32934D2*
X35161D1*
X28831Y38028D2*
X30582D1*
X32934D2*
X35161D1*
X28831Y37879D2*
X30744D1*
X32932D2*
X35161D1*
X28831Y37730D2*
X31094D1*
X32827D2*
X35161D1*
X28831Y37581D2*
X35161D1*
X28831Y37432D2*
X31999D1*
X33222D2*
X34199D1*
X28831Y37283D2*
X31987D1*
X33234D2*
X34187D1*
X28831Y37134D2*
X31987D1*
X33234D2*
X34187D1*
X28831Y36985D2*
X31987D1*
X33234D2*
X34187D1*
X28831Y36836D2*
X31987D1*
X33234D2*
X34187D1*
X28831Y36687D2*
X31987D1*
X33234D2*
X34187D1*
X28831Y36538D2*
X31987D1*
X33234D2*
X34187D1*
X28831Y36389D2*
X31987D1*
X33234D2*
X34187D1*
X28831Y36240D2*
X32027D1*
X33194D2*
X34227D1*
X28831Y36090D2*
X35161D1*
X28831Y35941D2*
X35161D1*
X28831Y35792D2*
X35161D1*
X28831Y35643D2*
X35161D1*
X28831Y35494D2*
X35161D1*
X28831Y35345D2*
X35161D1*
X28831Y35196D2*
X35161D1*
X28831Y35047D2*
X35161D1*
X28831Y34898D2*
X35161D1*
X28831Y34749D2*
X35161D1*
X28831Y34600D2*
X35161D1*
X28831Y34451D2*
X35161D1*
X28831Y34302D2*
X35161D1*
X28831Y34153D2*
X35161D1*
X28831Y34004D2*
X35161D1*
X28831Y33854D2*
X35161D1*
X28831Y33705D2*
X35161D1*
X28831Y33556D2*
X35161D1*
X28831Y33407D2*
X35161D1*
X28831Y33258D2*
X35161D1*
X28831Y33109D2*
X35161D1*
X28831Y32960D2*
X35161D1*
X28831Y32811D2*
X35161D1*
X28831Y32662D2*
X35161D1*
X28831Y32513D2*
X35161D1*
X28831Y32364D2*
X35161D1*
X28831Y32215D2*
X35161D1*
X28831Y32066D2*
X35161D1*
X28831Y31917D2*
X35161D1*
X28831Y31768D2*
X35161D1*
X28831Y31618D2*
X35161D1*
X28831Y31469D2*
X35161D1*
X28831Y31320D2*
X35161D1*
X28831Y31171D2*
X35137D1*
X28831Y31022D2*
X34989D1*
X28831Y30873D2*
X34839D1*
X28831Y30724D2*
X34689D1*
X28831Y30575D2*
X34542D1*
X28831Y30426D2*
X34392D1*
X28831Y30277D2*
X34244D1*
X28831Y30128D2*
X34094D1*
X28831Y29979D2*
X33944D1*
X28831Y29830D2*
X33796D1*
X28831Y29681D2*
X33646D1*
X28831Y29532D2*
X33499D1*
X28831Y29382D2*
X33349D1*
X28831Y29233D2*
X33199D1*
X28831Y29084D2*
X33051D1*
X28831Y28935D2*
X32901D1*
X28831Y28786D2*
X32753D1*
X28831Y28637D2*
X32603D1*
X28831Y28488D2*
X32453D1*
X28831Y28339D2*
X32306D1*
X28831Y28190D2*
X32156D1*
X28831Y28041D2*
X32008D1*
X28831Y27892D2*
X31858D1*
X28831Y27743D2*
X31708D1*
X28831Y27594D2*
X31560D1*
X28831Y27445D2*
X31410D1*
X28831Y27296D2*
X31263D1*
X28831Y27146D2*
X31113D1*
X28831Y26997D2*
X30963D1*
X28831Y26848D2*
X30815D1*
X28831Y26699D2*
X30665D1*
X28831Y26550D2*
X30517D1*
X28831Y26401D2*
X30367D1*
X28831Y26252D2*
X30217D1*
X28831Y26103D2*
X30089D1*
X28831Y25954D2*
X30051D1*
X28831Y25805D2*
X30051D1*
X28831Y25656D2*
X30051D1*
X28831Y25507D2*
X30051D1*
X28831Y25358D2*
X30051D1*
X28831Y25209D2*
X30051D1*
X28831Y25060D2*
X30051D1*
X28831Y24910D2*
X30051D1*
X28831Y24761D2*
X30051D1*
X28831Y24612D2*
X30051D1*
X28831Y24463D2*
X30051D1*
X28831Y24314D2*
X30051D1*
X28831Y24165D2*
X30051D1*
X28831Y24016D2*
X30051D1*
X28831Y23867D2*
X30051D1*
X28831Y23718D2*
X30051D1*
X28831Y23569D2*
X30051D1*
X28831Y23420D2*
X30051D1*
X28831Y23271D2*
X30051D1*
X28831Y23122D2*
X30051D1*
X32827D2*
X32994D1*
X28831Y22973D2*
X30051D1*
X32827D2*
X33249D1*
X28831Y22824D2*
X30051D1*
X32827D2*
X33396D1*
X28831Y22674D2*
X30051D1*
X32827D2*
X33546D1*
X28831Y22525D2*
X30051D1*
X32827D2*
X33696D1*
X28831Y22376D2*
X30051D1*
X32827D2*
X33632D1*
X28831Y22227D2*
X30051D1*
X32827D2*
X33568D1*
X28831Y22078D2*
X30051D1*
X32827D2*
X33525D1*
X28831Y21929D2*
X30051D1*
X32827D2*
X33501D1*
X28831Y21780D2*
X30051D1*
X32827D2*
X33496D1*
X28831Y21631D2*
X30051D1*
X32827D2*
X33511D1*
X28831Y21482D2*
X30051D1*
X32827D2*
X33544D1*
X28905Y21333D2*
X30051D1*
X32965D2*
X33596D1*
X29055Y21184D2*
X30051D1*
X33039D2*
X33675D1*
X29491Y21035D2*
X30051D1*
X33067D2*
X33782D1*
X29672Y20886D2*
X30025D1*
X33055D2*
X33935D1*
X29757Y20737D2*
X29877D1*
X33001D2*
X34161D1*
X32882Y20588D2*
X35249D1*
X32451Y20438D2*
X35249D1*
X32303Y20289D2*
X35249D1*
X32153Y20140D2*
X35249D1*
X32005Y19991D2*
X35249D1*
X31855Y19842D2*
X35249D1*
X31705Y19693D2*
X34189D1*
X31558Y19544D2*
X33949D1*
X31408Y19395D2*
X33794D1*
X31260Y19246D2*
X33682D1*
X31110Y19097D2*
X33604D1*
X30960Y18948D2*
X33546D1*
X30812Y18799D2*
X33513D1*
X30662Y18650D2*
X33496D1*
X30515Y18501D2*
X33499D1*
X30365Y18352D2*
X30746D1*
X31455D2*
X31646D1*
X32353D2*
X32546D1*
X33253D2*
X33520D1*
X30341Y18202D2*
X30608D1*
X33391D2*
X33563D1*
X30341Y18053D2*
X30541D1*
X33458D2*
X33625D1*
X30341Y17904D2*
X30520D1*
X33479D2*
X33716D1*
X30341Y17755D2*
X30539D1*
X33460D2*
X33839D1*
X30341Y17606D2*
X30603D1*
X33398D2*
X34016D1*
X30341Y17457D2*
X30734D1*
X33265D2*
X34308D1*
X30341Y17308D2*
X30613D1*
X33389D2*
X34520D1*
X30341Y17159D2*
X30544D1*
X33458D2*
X34523D1*
X30341Y17010D2*
X30520D1*
X33479D2*
X34566D1*
X30341Y16861D2*
X30537D1*
X33463D2*
X34666D1*
X30341Y16712D2*
X30598D1*
X33401D2*
X34399D1*
X30341Y16563D2*
X30727D1*
X33272D2*
X34056D1*
X30341Y16414D2*
X30615D1*
X33384D2*
X33868D1*
X30341Y16265D2*
X30544D1*
X33455D2*
X33735D1*
X30341Y16116D2*
X30520D1*
X33479D2*
X33639D1*
X30424Y15966D2*
X30537D1*
X33463D2*
X33574D1*
X33403Y15817D2*
X33527D1*
X31479Y15668D2*
X31620D1*
X32379D2*
X32520D1*
X33279D2*
X33501D1*
X30872Y15519D2*
X33496D1*
X31019Y15370D2*
X33508D1*
X31169Y15221D2*
X33539D1*
X31319Y15072D2*
X33592D1*
X31467Y14923D2*
X33666D1*
X31617Y14774D2*
X33770D1*
X28750Y14625D2*
X28842D1*
X31765D2*
X33918D1*
X28750Y14476D2*
X28989D1*
X31915D2*
X34135D1*
X28750Y14327D2*
X29139D1*
X32065D2*
X35249D1*
X28750Y14178D2*
X29160D1*
X32234D2*
X35249D1*
X28750Y14029D2*
X29191D1*
X32360D2*
X35249D1*
X28750Y13880D2*
X29270D1*
X32420D2*
X34406D1*
X34753D2*
X35249D1*
X28750Y13730D2*
X29436D1*
X30038D2*
X30118D1*
X32436D2*
X34108D1*
X35053D2*
X35249D1*
X28750Y13581D2*
X30167D1*
X32412D2*
X33975D1*
X28750Y13432D2*
X30279D1*
X32343D2*
X33899D1*
X28750Y13283D2*
X30572D1*
X32198D2*
X33861D1*
X28750Y13134D2*
X30646D1*
X31967D2*
X33858D1*
X28750Y12985D2*
X30496D1*
X31820D2*
X33885D1*
X28750Y12836D2*
X29236D1*
X29765D2*
X30384D1*
X31636D2*
X33949D1*
X28750Y12687D2*
X28996D1*
X30003D2*
X30356D1*
X31250D2*
X34063D1*
X35099D2*
X35249D1*
X28750Y12538D2*
X28877D1*
X30124D2*
X30356D1*
X31110D2*
X34280D1*
X34879D2*
X35249D1*
X30191Y12389D2*
X30356D1*
X31110D2*
X35249D1*
X30222Y12240D2*
X30356D1*
X31110D2*
X35249D1*
X30219Y12091D2*
X30356D1*
X31110D2*
X35249D1*
X30186Y11942D2*
X30315D1*
X31110D2*
X35249D1*
X28750Y11793D2*
X28886D1*
X31110D2*
X34251D1*
X34908D2*
X35249D1*
X28750Y11644D2*
X29013D1*
X31110D2*
X34049D1*
X35110D2*
X35249D1*
X28750Y11494D2*
X29274D1*
X29726D2*
X29984D1*
X31136D2*
X33942D1*
X28750Y11345D2*
X29986D1*
X31134D2*
X33882D1*
X28750Y11196D2*
X30029D1*
X31091D2*
X33856D1*
X28750Y11047D2*
X30127D1*
X30993D2*
X33863D1*
X28750Y10898D2*
X30346D1*
X30774D2*
X33904D1*
X28750Y10749D2*
X33985D1*
X31550Y15759D2*
X31490Y15691D1*
X31419Y15634D1*
X31339Y15588D1*
X31254Y15556D1*
X31164Y15539D1*
X31073Y15536D1*
X30982Y15548D1*
X30895Y15574D1*
X30813Y15614D1*
X30738Y15666D1*
X30673Y15730D1*
X30619Y15804D1*
X30577Y15885D1*
X30550Y15972D1*
X30536Y16063D1*
X30538Y16154D1*
X30554Y16244D1*
X30584Y16330D1*
X30628Y16410D1*
X30684Y16482D1*
X30751Y16544D1*
X30759Y16550D1*
X30704Y16597D1*
X30644Y16666D1*
X30597Y16744D1*
X30562Y16828D1*
X30541Y16917D1*
X30535Y17008D1*
X30544Y17099D1*
X30567Y17188D1*
X30604Y17271D1*
X30655Y17347D1*
X30716Y17415D1*
X30759Y17450D1*
X30704Y17497D1*
X30644Y17566D1*
X30597Y17644D1*
X30562Y17728D1*
X30541Y17817D1*
X30535Y17908D1*
X30544Y17999D1*
X30567Y18088D1*
X30604Y18171D1*
X30655Y18247D1*
X30716Y18315D1*
X30788Y18371D1*
X30868Y18415D1*
X30954Y18446D1*
X31044Y18462D1*
X31135Y18464D1*
X31226Y18451D1*
X31313Y18423D1*
X31395Y18382D1*
X31468Y18328D1*
X31533Y18263D1*
X31550Y18241D1*
X31605Y18304D1*
X31676Y18362D1*
X31754Y18409D1*
X31840Y18442D1*
X31929Y18460D1*
X32020Y18465D1*
X32111Y18454D1*
X32199Y18429D1*
X32281Y18390D1*
X32357Y18338D1*
X32423Y18275D1*
X32450Y18241D1*
X32505Y18304D1*
X32576Y18362D1*
X32654Y18409D1*
X32740Y18442D1*
X32829Y18460D1*
X32920Y18465D1*
X33011Y18454D1*
X33099Y18429D1*
X33181Y18390D1*
X33257Y18338D1*
X33323Y18275D1*
X33377Y18202D1*
X33420Y18121D1*
X33449Y18034D1*
X33463Y17944D1*
Y17854D1*
X33448Y17764D1*
X33419Y17678D1*
X33377Y17597D1*
X33322Y17524D1*
X33255Y17461D1*
X33242Y17450D1*
X33312Y17386D1*
X33369Y17315D1*
X33414Y17235D1*
X33445Y17149D1*
X33462Y17059D1*
X33464Y16970D1*
X33452Y16879D1*
X33425Y16792D1*
X33385Y16710D1*
X33332Y16635D1*
X33267Y16571D1*
X33242Y16550D1*
X33312Y16486D1*
X33369Y16415D1*
X33414Y16335D1*
X33445Y16249D1*
X33462Y16159D1*
X33464Y16070D1*
X33452Y15979D1*
X33425Y15892D1*
X33385Y15810D1*
X33332Y15735D1*
X33267Y15671D1*
X33193Y15617D1*
X33112Y15576D1*
X33024Y15549D1*
X32934Y15536D1*
X32843Y15538D1*
X32753Y15555D1*
X32667Y15586D1*
X32587Y15630D1*
X32515Y15686D1*
X32450Y15759D1*
X32390Y15691D1*
X32319Y15634D1*
X32239Y15588D1*
X32154Y15556D1*
X32064Y15539D1*
X31973Y15536D1*
X31882Y15548D1*
X31795Y15574D1*
X31713Y15614D1*
X31638Y15666D1*
X31573Y15730D1*
X31550Y15759D1*
X30206Y12096D2*
X30193Y12021D1*
X30173Y11947D1*
X30145Y11877D1*
X30110Y11809D1*
X30067Y11746D1*
X30019Y11687D1*
X29964Y11635D1*
X29903Y11588D1*
X29838Y11548D1*
X29770Y11516D1*
X29698Y11490D1*
X29624Y11473D1*
X29548Y11464D1*
X29472Y11463D1*
X29396Y11470D1*
X29321Y11485D1*
X29249Y11508D1*
X29179Y11539D1*
X29113Y11577D1*
X29052Y11622D1*
X28995Y11673D1*
X28945Y11730D1*
X28900Y11792D1*
X28863Y11859D1*
X28833Y11929D1*
X28811Y12002D1*
X28797Y12076D1*
X28791Y12152D1*
X28793Y12228D1*
X28803Y12304D1*
X28821Y12378D1*
X28847Y12449D1*
X28880Y12518D1*
X28921Y12582D1*
X28968Y12642D1*
X29022Y12696D1*
X29081Y12745D1*
X29144Y12786D1*
X29212Y12821D1*
X29283Y12848D1*
X29357Y12867D1*
X29432Y12878D1*
X29509Y12882D1*
X29585Y12877D1*
X29660Y12864D1*
X29733Y12842D1*
X29803Y12814D1*
X29870Y12777D1*
X29933Y12734D1*
X29991Y12685D1*
X30043Y12629D1*
X30089Y12568D1*
X30128Y12503D1*
X30160Y12434D1*
X30184Y12362D1*
X30200Y12287D1*
X30210Y12172D1*
X30206Y12096D1*
X35264Y13002D2*
X35225Y12893D1*
X35190Y12825D1*
X35147Y12762D1*
X35099Y12703D1*
X35044Y12651D1*
X34983Y12604D1*
X34918Y12564D1*
X34850Y12532D1*
X34778Y12506D1*
X34704Y12489D1*
X34628Y12480D1*
X34552Y12479D1*
X34476Y12486D1*
X34401Y12501D1*
X34329Y12524D1*
X34259Y12555D1*
X34193Y12593D1*
X34132Y12638D1*
X34075Y12689D1*
X34025Y12746D1*
X33980Y12808D1*
X33943Y12875D1*
X33913Y12945D1*
X33891Y13018D1*
X33877Y13092D1*
X33871Y13168D1*
X33873Y13244D1*
X33883Y13320D1*
X33901Y13394D1*
X33927Y13465D1*
X33960Y13534D1*
X34001Y13598D1*
X34048Y13658D1*
X34102Y13712D1*
X34161Y13761D1*
X34224Y13802D1*
X34292Y13837D1*
X34363Y13864D1*
X34437Y13883D1*
X34512Y13894D1*
X34589Y13898D1*
X34665Y13893D1*
X34740Y13880D1*
X34813Y13858D1*
X34883Y13830D1*
X34950Y13793D1*
X35013Y13750D1*
X35071Y13701D1*
X35123Y13645D1*
X35169Y13584D1*
X35208Y13519D1*
X35240Y13450D1*
X35264Y13375D1*
Y14334D1*
X34511Y14333D1*
Y14349D1*
X34369Y14385D1*
X34240Y14432D1*
X34118Y14493D1*
X34003Y14568D1*
X33897Y14655D1*
X33802Y14754D1*
X33719Y14863D1*
X33649Y14981D1*
X33592Y15106D1*
X33550Y15236D1*
X33523Y15371D1*
X33511Y15507D1*
X33515Y15644D1*
X33534Y15780D1*
X33569Y15913D1*
X33618Y16040D1*
X33682Y16162D1*
X33758Y16275D1*
X33848Y16380D1*
X33948Y16473D1*
X34058Y16554D1*
X34177Y16623D1*
X34303Y16677D1*
X34434Y16717D1*
X34511Y16733D1*
Y16751D1*
X34818D1*
X34722Y16819D1*
X34669Y16873D1*
X34623Y16934D1*
X34586Y17001D1*
X34558Y17071D1*
X34539Y17145D1*
X34531Y17221D1*
X34533Y17297D1*
X34552Y17393D1*
X34511Y17390D1*
Y17407D1*
X34340Y17451D1*
X34199Y17508D1*
X34066Y17582D1*
X33943Y17673D1*
X33833Y17778D1*
X33736Y17896D1*
X33656Y18025D1*
X33592Y18163D1*
X33546Y18309D1*
X33519Y18458D1*
X33511Y18610D1*
X33522Y18762D1*
X33551Y18912D1*
X33600Y19056D1*
X33666Y19193D1*
X33749Y19321D1*
X33848Y19437D1*
X33960Y19540D1*
X34084Y19628D1*
X34218Y19700D1*
X34361Y19754D1*
X34511Y19791D1*
Y19809D1*
X35265D1*
X35264Y20606D1*
X34511Y20608D1*
Y20624D1*
X34340Y20669D1*
X34199Y20726D1*
X34066Y20800D1*
X33943Y20890D1*
X33833Y20995D1*
X33736Y21113D1*
X33656Y21242D1*
X33592Y21381D1*
X33546Y21526D1*
X33519Y21676D1*
X33511Y21828D1*
X33522Y21980D1*
X33551Y22129D1*
X33600Y22273D1*
X33666Y22411D1*
X33729Y22509D1*
X33168Y23068D1*
X33090Y23088D1*
X33019Y23117D1*
X32953Y23154D1*
X32893Y23201D1*
X32839Y23255D1*
X32812Y23291D1*
Y21468D1*
X32901Y21392D1*
X32949Y21333D1*
X32989Y21268D1*
X33019Y21199D1*
X33041Y21126D1*
X33053Y21006D1*
X33048Y20930D1*
X33033Y20856D1*
X33008Y20784D1*
X32973Y20716D1*
X32930Y20653D1*
X32878Y20597D1*
X32820Y20548D1*
X32755Y20508D1*
X32686Y20477D1*
X32613Y20455D1*
X32537Y20443D1*
X32440Y20444D1*
X31976Y19978D1*
X30328Y18329D1*
X30326Y17072D1*
Y16051D1*
X32149Y14227D1*
X32213Y14182D1*
X32269Y14131D1*
X32317Y14072D1*
X32357Y14007D1*
X32388Y13937D1*
X32409Y13864D1*
X32421Y13744D1*
X32416Y13668D1*
X32401Y13594D1*
X32376Y13522D1*
X32341Y13454D1*
X32298Y13392D1*
X32246Y13335D1*
X32188Y13287D1*
X32123Y13246D1*
X32024Y13206D1*
X31730Y12911D1*
X31670Y12863D1*
X31603Y12828D1*
X31543Y12811D1*
X31398Y12805D1*
X31352Y12803D1*
X31095Y12543D1*
Y11611D1*
X31112Y11546D1*
X31125Y11426D1*
X31120Y11350D1*
X31104Y11276D1*
X31079Y11204D1*
X31045Y11136D1*
X31001Y11074D1*
X30950Y11017D1*
X30891Y10969D1*
X30827Y10928D1*
X30757Y10897D1*
X30684Y10875D1*
X30609Y10864D1*
X30533Y10862D1*
X30457Y10871D1*
X30383Y10890D1*
X30313Y10918D1*
X30247Y10956D1*
X30186Y11003D1*
X30133Y11057D1*
X30087Y11117D1*
X30050Y11184D1*
X30022Y11255D1*
X30004Y11329D1*
X29995Y11404D1*
X29998Y11480D1*
X30010Y11556D1*
X30032Y11628D1*
X30064Y11697D1*
X30105Y11762D1*
X30154Y11820D1*
X30211Y11871D1*
X30274Y11914D1*
X30371Y11958D1*
X30372Y12695D1*
X30380Y12771D1*
X30403Y12843D1*
X30433Y12897D1*
X30531Y13005D1*
X30810Y13288D1*
X30735Y13276D1*
X30659Y13275D1*
X30583Y13284D1*
X30509Y13302D1*
X30439Y13331D1*
X30373Y13369D1*
X30312Y13415D1*
X30259Y13469D1*
X30213Y13530D1*
X30176Y13597D1*
X30148Y13667D1*
X30129Y13741D1*
X30123Y13805D1*
X30069Y13760D1*
X30004Y13720D1*
X29935Y13689D1*
X29862Y13667D1*
X29787Y13655D1*
X29711Y13654D1*
X29635Y13662D1*
X29561Y13681D1*
X29491Y13710D1*
X29425Y13748D1*
X29364Y13794D1*
X29311Y13848D1*
X29265Y13909D1*
X29227Y13975D1*
X29199Y14046D1*
X29181Y14120D1*
X29173Y14196D1*
X29180Y14302D1*
X29015Y14465D1*
X28737Y14743D1*
X28736Y10736D1*
X34006D1*
X33943Y10843D1*
X33913Y10913D1*
X33891Y10986D1*
X33877Y11060D1*
X33871Y11136D1*
X33873Y11212D1*
X33883Y11288D1*
X33901Y11362D1*
X33927Y11433D1*
X33960Y11502D1*
X34001Y11566D1*
X34048Y11626D1*
X34102Y11680D1*
X34161Y11729D1*
X34224Y11770D1*
X34292Y11805D1*
X34363Y11832D1*
X34437Y11851D1*
X34512Y11862D1*
X34589Y11866D1*
X34665Y11861D1*
X34740Y11848D1*
X34813Y11826D1*
X34883Y11798D1*
X34950Y11761D1*
X35013Y11718D1*
X35071Y11669D1*
X35123Y11613D1*
X35169Y11552D1*
X35208Y11487D1*
X35240Y11418D1*
X35264Y11346D1*
Y13001D1*
X32034Y48869D2*
X34749D1*
Y45851D1*
X31142Y45847D1*
X30639Y45344D1*
Y40675D1*
X31057Y40255D1*
X31094Y40287D1*
X31163Y40317D1*
X31287Y40322D1*
X32711D1*
X32785Y40309D1*
X32850Y40269D1*
X32896Y40209D1*
X32918Y40134D1*
X32920Y39413D1*
X32906Y39338D1*
X32867Y39274D1*
X32807Y39227D1*
X32732Y39205D1*
X32025Y39204D1*
X31211D1*
X31136Y39217D1*
X31070Y39259D1*
X31090Y39242D1*
X31036Y39298D1*
X30894Y39300D1*
X30818Y39306D1*
X30744Y39324D1*
X30675Y39355D1*
X30611Y39396D1*
X30567Y39435D1*
X29848Y40154D1*
X29799Y40212D1*
X29759Y40278D1*
X29732Y40348D1*
X29716Y40423D1*
X29712Y40482D1*
Y45535D1*
X29718Y45611D1*
X29737Y45685D1*
X29767Y45755D1*
X29796Y45800D1*
Y45851D1*
X29513D1*
X29511Y45367D1*
Y40426D1*
X31132Y38804D1*
X31163Y38817D1*
X31287Y38822D1*
X32711D1*
X32785Y38809D1*
X32850Y38769D1*
X32896Y38709D1*
X32918Y38634D1*
X32920Y37913D1*
X32906Y37838D1*
X32867Y37774D1*
X32807Y37727D1*
X32732Y37705D1*
X32025Y37704D1*
X31211D1*
X31136Y37717D1*
X31070Y37759D1*
X31090Y37742D1*
X31036Y37798D1*
X30942Y37806D1*
X30868Y37824D1*
X30798Y37855D1*
X30735Y37896D1*
X30690Y37935D1*
X28816Y39809D1*
X28817Y21406D1*
X29131Y21093D1*
X29219Y21099D1*
X29295Y21093D1*
X29370Y21077D1*
X29441Y21051D1*
X29509Y21016D1*
X29571Y20972D1*
X29627Y20920D1*
X29675Y20861D1*
X29715Y20796D1*
X29745Y20726D1*
X29772Y20618D1*
X30064Y20910D1*
X30065Y25945D1*
X30074Y26020D1*
X30099Y26092D1*
X30141Y26158D1*
X30163Y26182D1*
X35176Y31195D1*
Y36154D1*
X34380Y36156D1*
X34322Y36173D1*
X34271Y36207D1*
X34232Y36253D1*
X34208Y36309D1*
X34201Y36369D1*
X34203Y37393D1*
X34221Y37452D1*
X34254Y37502D1*
X34301Y37541D1*
X34357Y37565D1*
X34417Y37572D1*
X35176D1*
Y43455D1*
X34411Y43454D1*
X34350Y43462D1*
X34295Y43488D1*
X34250Y43529D1*
X34218Y43580D1*
X34203Y43639D1*
X34201Y43983D1*
X34203Y44693D1*
X34221Y44752D1*
X34254Y44802D1*
X34301Y44841D1*
X34357Y44865D1*
X34417Y44872D1*
X35176D1*
Y50860D1*
X33927Y52110D1*
X32687Y53351D1*
X32640Y53410D1*
X32607Y53479D1*
X32590Y53555D1*
X32588Y53589D1*
Y54696D1*
X32498Y54782D1*
X32452Y54843D1*
X32415Y54909D1*
X32387Y54980D1*
X32368Y55054D1*
X32360Y55130D1*
X32362Y55206D1*
X32375Y55281D1*
X32397Y55354D1*
X32451Y55457D1*
X32352D1*
X32033Y55140D1*
Y48871D1*
X29266Y65209D2*
X34749D1*
Y57111D1*
X34797Y57154D1*
X34860Y57197D1*
X34928Y57231D1*
X35000Y57255D1*
X35075Y57270D1*
X35151Y57274D1*
X35227Y57268D1*
X35301Y57253D1*
X35373Y57227D1*
X35441Y57191D1*
X35503Y57147D1*
X35558Y57096D1*
X35607Y57037D1*
X35646Y56972D1*
X35677Y56902D1*
X35698Y56829D1*
X35711Y56709D1*
X35706Y56633D1*
X35691Y56559D1*
X35665Y56487D1*
X35631Y56419D1*
X35605Y56382D1*
X36266Y56384D1*
X36487Y56603D1*
Y61759D1*
X36493Y61835D1*
X36505Y61885D1*
X36532Y61958D1*
X36424Y61975D1*
X36350Y61993D1*
X36280Y62022D1*
X36214Y62060D1*
X36153Y62106D1*
X36100Y62160D1*
X36054Y62221D1*
X36017Y62288D1*
X35989Y62358D1*
X35971Y62432D1*
X35962Y62508D1*
X35965Y62584D1*
X35977Y62659D1*
X35999Y62732D1*
X36031Y62801D1*
X36072Y62865D1*
X36127Y62928D1*
X36128Y64571D1*
X35186Y65511D1*
X33568Y67129D1*
X30806Y67130D1*
X30730Y67136D1*
X30656Y67154D1*
X30586Y67185D1*
X30522Y67226D1*
X30478Y67265D1*
X28735Y69008D1*
X28736Y67670D1*
X28699Y67606D1*
X28340Y67335D1*
X28148Y67190D1*
X28814Y67189D1*
X28920Y67247D1*
X28992Y67272D1*
X29066Y67286D1*
X29142Y67291D1*
X29218Y67285D1*
X29293Y67269D1*
X29364Y67243D1*
X29432Y67208D1*
X29494Y67164D1*
X29550Y67112D1*
X29598Y67053D1*
X29638Y66988D1*
X29668Y66919D1*
X29689Y66846D1*
X29702Y66726D1*
X29697Y66650D1*
X29682Y66576D1*
X29657Y66504D1*
X29622Y66436D1*
X29579Y66373D1*
X29527Y66317D1*
X29469Y66268D1*
X29404Y66228D1*
X29335Y66197D1*
X29262Y66175D1*
X29186Y66163D1*
X29110Y66162D1*
X29035Y66171D1*
X28961Y66189D1*
X28890Y66218D1*
X28815Y66263D1*
X28791Y66219D1*
X28822Y66150D1*
X28843Y66077D1*
X28856Y65957D1*
X28851Y65881D1*
X28836Y65807D1*
X28810Y65735D1*
X28776Y65667D1*
X28747Y65626D1*
X28710Y65511D1*
X28672Y65445D1*
X28619Y65381D1*
X24317Y61079D1*
X24417Y61061D1*
X24488Y61035D1*
X24556Y61000D1*
X24618Y60956D1*
X24674Y60904D1*
X24722Y60845D1*
X24762Y60780D1*
X24792Y60711D1*
X24814Y60637D1*
X24826Y60518D1*
X24821Y60442D1*
X24806Y60367D1*
X24781Y60296D1*
X24726Y60198D1*
X24725Y58291D1*
X25020Y57999D1*
X26753Y56266D1*
X26751Y57192D1*
X26760Y57268D1*
X26785Y57339D1*
X26828Y57405D1*
X26850Y57430D1*
X27385Y57965D1*
X27444Y58012D1*
X27513Y58045D1*
X27589Y58061D1*
X27623Y58063D1*
X27835D1*
X27883Y58120D1*
X27939Y58171D1*
X28002Y58214D1*
X28070Y58248D1*
X28142Y58273D1*
X28217Y58287D1*
X28293Y58292D1*
X28369Y58286D1*
X28443Y58270D1*
X28515Y58244D1*
X28583Y58209D1*
X28645Y58165D1*
X28700Y58113D1*
X28749Y58054D1*
X28788Y57989D1*
X28819Y57920D1*
X28840Y57847D1*
X28853Y57727D1*
X28848Y57651D1*
X28833Y57577D1*
X28807Y57505D1*
X28773Y57437D1*
X28729Y57374D1*
X28678Y57318D1*
X28619Y57269D1*
X28555Y57229D1*
X28485Y57198D1*
X28412Y57176D1*
X28337Y57164D1*
X28261Y57163D1*
X28185Y57172D1*
X28112Y57190D1*
X28041Y57219D1*
X27975Y57257D1*
X27915Y57303D1*
X27837Y57390D1*
X27762Y57391D1*
X27424Y57053D1*
Y56937D1*
X27533Y57019D1*
X27601Y57053D1*
X27673Y57078D1*
X27747Y57093D1*
X27824Y57097D1*
X27899Y57091D1*
X27974Y57075D1*
X28046Y57049D1*
X28113Y57014D1*
X28175Y56970D1*
X28231Y56918D1*
X28279Y56859D1*
X28319Y56794D1*
X28350Y56725D1*
X28371Y56652D1*
X28381Y56579D1*
X28794Y56165D1*
X29422Y56792D1*
X29251Y56791D1*
Y65209D1*
X29266D1*
X32995Y43454D2*
X32180Y43456D1*
X32122Y43473D1*
X32071Y43507D1*
X32032Y43553D1*
X32008Y43609D1*
X32001Y43669D1*
X32003Y44693D1*
X32021Y44752D1*
X32054Y44802D1*
X32101Y44841D1*
X32157Y44865D1*
X32217Y44872D1*
X33041Y44870D1*
X33099Y44853D1*
X33150Y44819D1*
X33189Y44773D1*
X33213Y44717D1*
X33220Y44656D1*
X33218Y43633D1*
X33200Y43574D1*
X33167Y43524D1*
X33120Y43485D1*
X33064Y43461D1*
X33004Y43454D1*
X32995D1*
Y36154D2*
X32180Y36156D1*
X32122Y36173D1*
X32071Y36207D1*
X32032Y36253D1*
X32008Y36309D1*
X32001Y36369D1*
X32003Y37393D1*
X32021Y37452D1*
X32054Y37502D1*
X32101Y37541D1*
X32157Y37565D1*
X32217Y37572D1*
X33041Y37570D1*
X33099Y37553D1*
X33150Y37519D1*
X33189Y37473D1*
X33213Y37417D1*
X33220Y37356D1*
X33218Y36333D1*
X33200Y36274D1*
X33167Y36224D1*
X33120Y36185D1*
X33064Y36161D1*
X33004Y36154D1*
X32995D1*
X32634Y42178D2*
X31211D1*
X31136Y42191D1*
X31069Y42226D1*
X31016Y42281D1*
X30984Y42350D1*
X30976Y42413D1*
Y43113D1*
X30988Y43188D1*
X31024Y43255D1*
X31079Y43307D1*
X31147Y43339D1*
X31211Y43348D1*
X32711D1*
X32785Y43335D1*
X32852Y43300D1*
X32905Y43245D1*
X32937Y43176D1*
X32945Y43113D1*
Y42413D1*
X32933Y42338D1*
X32897Y42271D1*
X32842Y42219D1*
X32774Y42187D1*
X32711Y42178D1*
X32634D1*
X34391Y38937D2*
X34378Y38862D1*
X34357Y38789D1*
X34328Y38718D1*
X34292Y38651D1*
X34248Y38589D1*
X34198Y38532D1*
X34141Y38481D1*
X34080Y38436D1*
X34013Y38399D1*
X33943Y38369D1*
X33870Y38347D1*
X33795Y38334D1*
X33719Y38328D1*
X33643Y38332D1*
X33568Y38343D1*
X33494Y38363D1*
X33424Y38391D1*
X33356Y38427D1*
X33293Y38470D1*
X33236Y38520D1*
X33184Y38575D1*
X33139Y38637D1*
X33100Y38702D1*
X33070Y38772D1*
X33047Y38845D1*
X33032Y38920D1*
X33026Y38996D1*
X33028Y39072D1*
X33039Y39147D1*
X33058Y39221D1*
X33085Y39292D1*
X33120Y39360D1*
X33162Y39423D1*
X33211Y39481D1*
X33266Y39534D1*
X33327Y39580D1*
X33392Y39619D1*
X33462Y39651D1*
X33534Y39674D1*
X33609Y39690D1*
X33684Y39697D1*
X33761Y39696D1*
X33836Y39686D1*
X33910Y39668D1*
X33982Y39642D1*
X34050Y39608D1*
X34114Y39566D1*
X34173Y39518D1*
X34226Y39464D1*
X34273Y39404D1*
X34313Y39339D1*
X34345Y39270D1*
X34370Y39198D1*
X34386Y39124D1*
X34395Y39013D1*
X34391Y38937D1*
Y41937D2*
X34378Y41862D1*
X34357Y41789D1*
X34328Y41718D1*
X34292Y41651D1*
X34248Y41589D1*
X34198Y41532D1*
X34141Y41481D1*
X34080Y41436D1*
X34013Y41399D1*
X33943Y41369D1*
X33870Y41347D1*
X33795Y41334D1*
X33719Y41328D1*
X33643Y41332D1*
X33568Y41343D1*
X33494Y41363D1*
X33424Y41391D1*
X33356Y41427D1*
X33293Y41470D1*
X33236Y41520D1*
X33184Y41575D1*
X33139Y41637D1*
X33100Y41702D1*
X33070Y41772D1*
X33047Y41845D1*
X33032Y41920D1*
X33026Y41996D1*
X33028Y42072D1*
X33039Y42147D1*
X33058Y42221D1*
X33085Y42292D1*
X33120Y42360D1*
X33162Y42423D1*
X33211Y42481D1*
X33266Y42534D1*
X33327Y42580D1*
X33392Y42619D1*
X33462Y42651D1*
X33534Y42674D1*
X33609Y42690D1*
X33684Y42697D1*
X33761Y42696D1*
X33836Y42686D1*
X33910Y42668D1*
X33982Y42642D1*
X34050Y42608D1*
X34114Y42566D1*
X34173Y42518D1*
X34226Y42464D1*
X34273Y42404D1*
X34313Y42339D1*
X34345Y42270D1*
X34370Y42198D1*
X34386Y42124D1*
X34395Y42013D1*
X34391Y41937D1*
X30701Y16499D2*
X31499Y15701D1*
X31100Y16100D2*
X30701Y15701D1*
Y17399D2*
X31100Y17000D1*
X30701Y16601D1*
Y18299D2*
X31100Y17900D1*
X31499Y18299D2*
X30701Y17501D1*
X32000Y16100D2*
X32399Y15701D1*
X32000Y16100D2*
X31601Y15701D1*
Y18299D2*
X32000Y17900D1*
X32399Y18299D2*
X32000Y17900D1*
X32900Y16100D2*
X33299Y15701D1*
Y16499D2*
X32501Y15701D1*
X32900Y17000D2*
X33299Y16601D1*
Y17399D2*
X32900Y17000D1*
X32501Y18299D2*
X33299Y17501D1*
Y18299D2*
X32900Y17900D1*
X29251Y65209D2*
X32000Y61000D1*
X34749Y65209D2*
X29251Y56791D1*
X32048Y44794D2*
X33173Y43532D1*
Y44794D2*
X32048Y43532D1*
X34248Y44794D2*
X34811Y44163D1*
X34248Y43532D1*
Y37494D2*
X34811Y36863D1*
X34248Y36232D1*
X32048Y37494D2*
X33173Y36232D1*
Y37494D2*
X32048Y36232D1*
X34511Y16751D2*
X35345Y15542D1*
X34511Y14333D1*
X33865Y16397D2*
X34720Y15542D1*
X33865Y14687D1*
D25*
X31100Y16100D3*
Y17000D3*
Y17900D3*
X32000Y16100D3*
Y17000D3*
Y17900D3*
X32900Y16100D3*
Y17000D3*
Y17900D3*
D37*
X32000Y47360D3*
Y74640D3*
D38*
Y61000D3*
G36*
X33011Y43663D2*
X32211D1*
Y44663D1*
X33011D1*
Y43663D1*
G37*
G36*
X35211D2*
X34411D1*
Y44663D1*
X35211D1*
Y43663D1*
G37*
G36*
Y36363D2*
X34411D1*
Y37363D1*
X35211D1*
Y36363D1*
G37*
G36*
X33011D2*
X32211D1*
Y37363D1*
X33011D1*
Y36363D1*
G37*
G36*
X32711Y37913D2*
X31211D1*
Y38613D1*
X32711D1*
Y37913D1*
G37*
G36*
Y39413D2*
X31211D1*
Y40113D1*
X32711D1*
Y39413D1*
G37*
G36*
Y42413D2*
X31211D1*
Y43113D1*
X32711D1*
Y42413D1*
G37*
D43*
X35345Y28146D3*
D44*
X34720D3*
D43*
X35345Y25034D3*
D44*
X34720D3*
D43*
X35345Y21817D3*
D44*
X34720D3*
D43*
X35345Y18600D3*
D44*
X34720D3*
D43*
X35345Y15542D3*
D44*
X34720D3*
G36*
X32000Y76532D2*
X32950Y76677D1*
X33690Y76977D1*
X34160Y77357D1*
X34540Y77742D1*
X34855Y78302D1*
X34985Y78627D1*
X35085Y79107D1*
X35135Y79357D1*
X35160Y79772D1*
X35045Y80097D1*
X34855Y80287D1*
X34730Y80412D1*
X34665Y80732D1*
X34690Y80862D1*
X34765Y81112D1*
X34920Y81252D1*
X34510Y81747D1*
X34130Y81497D1*
X34040D1*
X33860Y81937D1*
X33585Y81912D1*
X33080Y82052D1*
X33610Y80787D1*
Y80627D1*
X33575Y80412D1*
X33460Y80362D1*
X33205Y80462D1*
X32890Y81042D1*
X32535Y81897D1*
X32280Y81772D1*
X32010Y81452D1*
X32380Y80502D1*
X32190Y80532D1*
X32000D1*
Y76532D1*
G37*
M02*
