G04 DipTrace 2.4.0.2*
%INcross.gbs*%
%MOMM*%
%ADD48C,0.95*%
%ADD49C,0.9*%
%ADD50C,2.54*%
%ADD53C,2.05*%
%ADD54R,1.3X2.05*%
%ADD59R,5.13X8.05*%
%ADD60R,5.13X2.65*%
%FSLAX53Y53*%
G04*
G71*
G90*
G75*
G01*
%LNBotMask*%
%LPD*%
D48*
X29500Y12172D3*
X34580Y13188D3*
Y11156D3*
D60*
X32000Y47360D3*
Y74640D3*
D59*
Y61000D3*
G36*
X33035Y43638D2*
X32186D1*
Y44688D1*
X33035D1*
Y43638D1*
G37*
G36*
X35235D2*
X34386D1*
Y44688D1*
X35235D1*
Y43638D1*
G37*
G36*
Y36338D2*
X34386D1*
Y37388D1*
X35235D1*
Y36338D1*
G37*
G36*
X33035D2*
X32186D1*
Y37388D1*
X33035D1*
Y36338D1*
G37*
G36*
X32735Y37888D2*
X31186D1*
Y38638D1*
X32735D1*
Y37888D1*
G37*
G36*
Y39388D2*
X31186D1*
Y40138D1*
X32735D1*
Y39388D1*
G37*
G36*
Y42388D2*
X31186D1*
Y43138D1*
X32735D1*
Y42388D1*
G37*
D49*
X33711Y39013D3*
Y42013D3*
D54*
X35345Y28146D3*
D53*
X34720D3*
D54*
X35345Y25034D3*
D53*
X34720D3*
D54*
X35345Y21817D3*
D53*
X34720D3*
D54*
X35345Y18600D3*
D53*
X34720D3*
D54*
X35345Y15542D3*
D53*
X34720D3*
G36*
X32000Y76532D2*
X32950Y76677D1*
X33690Y76977D1*
X34160Y77357D1*
X34540Y77742D1*
X34855Y78302D1*
X34985Y78627D1*
X35085Y79107D1*
X35135Y79357D1*
X35160Y79772D1*
X35045Y80097D1*
X34855Y80287D1*
X34730Y80412D1*
X34665Y80732D1*
X34690Y80862D1*
X34765Y81112D1*
X34920Y81252D1*
X34510Y81747D1*
X34130Y81497D1*
X34040D1*
X33860Y81937D1*
X33585Y81912D1*
X33080Y82052D1*
X33610Y80787D1*
Y80627D1*
X33575Y80412D1*
X33460Y80362D1*
X33205Y80462D1*
X32890Y81042D1*
X32535Y81897D1*
X32280Y81772D1*
X32010Y81452D1*
X32380Y80502D1*
X32190Y80532D1*
X32000D1*
Y76532D1*
G37*
D50*
Y86000D3*
M02*
