M48
METRIC,0000.00
T01C0.33
T02C0.9
T03C0.95
T04C2.54
%
T01
X+003110Y+001610
X+003110Y+001700
X+003110Y+001790
X+003200Y+001790
X+003200Y+001700
X+003200Y+001610
X+003290Y+001610
X+003290Y+001700
X+003290Y+001790
X+003510Y+001724
X+003392Y+001458
X+003186Y+001374
X+003069Y+001384
X+002974Y+001422
X+002908Y+001684
X+002909Y+001946
X+002921Y+002053
X+003249Y+002101
X+003320Y+002186
X+003327Y+002362
X+003316Y+002496
X+003240Y+002543
X+003110Y+002499
X+003486Y+003609
X+003486Y+004488
X+002966Y+005229
X+003292Y+005515
X+003515Y+005671
X+003606Y+005687
X+003837Y+005801
X+003653Y+006253
X+003813Y+006353
X+003984Y+006323
X+003386Y+006501
X+002914Y+006673
X+002829Y+006596
X+002426Y+006052
X+002829Y+005773
X+002782Y+005653
X+001228Y+005918
X+001265Y+006102
X+002982Y+007934
X+003135Y+007923
X+003056Y+001143
X+003350Y+001089
T02
X+003371Y+003901
X+003371Y+004201
T03
X+002950Y+001217
X+003458Y+001319
X+003458Y+001116
T04
X+003200Y+008600
T00
M30
