G04 DipTrace 2.4.0.2*
%INmale.gto*%
%MOMM*%
%ADD10C,0.25*%
%ADD14C,0.4*%
%ADD18C,0.152*%
%ADD22O,0.4X0.437*%
%ADD27O,0.5X0.5*%
%ADD30O,0.925X0.975*%
%ADD35O,0.975X0.925*%
%ADD69C,0.118*%
%FSLAX53Y53*%
G04*
G71*
G90*
G75*
G01*
%LNTopSilk*%
%LPD*%
D22*
X29580Y27720D3*
X30496Y27865D2*
D10*
X30996Y28366D1*
X33996D2*
X34496D1*
Y27865D1*
Y24865D2*
Y24365D1*
X33996D1*
X30496Y24865D2*
Y24365D1*
X30996D1*
X18677Y25765D2*
Y23765D1*
X22077Y25765D2*
Y23765D1*
D27*
X18502Y23515D3*
X40580Y23885D2*
D10*
Y25885D1*
X35580Y23885D2*
Y25885D1*
Y27085D2*
Y29085D1*
X40580Y27085D2*
Y29085D1*
D30*
X40942Y28948D3*
X19022Y29073D2*
D10*
X20722D1*
X19022Y26773D2*
X20722D1*
X34712Y14593D2*
X36126Y16007D1*
X31176Y18128D2*
X32590Y19543D1*
X33439Y20391D2*
X34853Y21805D1*
X36975Y16855D2*
X38389Y18269D1*
D35*
X38548Y17916D3*
X24021Y12526D2*
D10*
X26021D1*
X24021Y17526D2*
X26021D1*
X27221D2*
X29221D1*
X27221Y12526D2*
X29221D1*
D35*
X29083Y12164D3*
X14145Y18270D2*
D10*
X15559Y16856D1*
X17681Y21805D2*
X19095Y20391D1*
X19943Y19542D2*
X21358Y18128D1*
X16408Y16006D2*
X17822Y14592D1*
D30*
X17469Y14433D3*
X12661Y29085D2*
D10*
Y27085D1*
X17661Y29085D2*
Y27085D1*
Y25885D2*
Y23885D1*
X12661Y25885D2*
Y23885D1*
D30*
X12299Y24022D3*
X17822Y38011D2*
D10*
X16408Y36597D1*
X21358Y34475D2*
X19944Y33061D1*
X19094Y32213D2*
X17680Y30799D1*
X15559Y35749D2*
X14145Y34334D1*
D35*
X13986Y34688D3*
X29221Y40444D2*
D10*
X27221D1*
X29221Y35444D2*
X27221D1*
X26021D2*
X24021D1*
X26021Y40444D2*
X24021D1*
D35*
X24158Y40807D3*
X38389Y34334D2*
D10*
X36974Y35748D1*
X34853Y30799D2*
X33438Y32213D1*
X32590Y33062D2*
X31176Y34476D1*
X36126Y36597D2*
X34712Y38011D1*
D30*
X35065Y38171D3*
X23089Y19459D2*
D10*
Y22459D1*
X30089D1*
Y19459D1*
X23089D1*
X41217Y44375D2*
X39803Y42961D1*
X44753Y40840D2*
X43339Y39425D1*
X42489Y38577D2*
X41075Y37163D1*
X38954Y42113D2*
X37540Y40699D1*
D35*
X37381Y41052D3*
X47581Y50739D2*
D10*
X46167Y49325D1*
X51117Y47204D2*
X49703Y45789D1*
X48853Y44941D2*
X47439Y43527D1*
X45318Y48477D2*
X43904Y47063D1*
D35*
X43745Y47416D3*
X35910Y46385D2*
D10*
X37910D1*
X35910Y51385D2*
X37910D1*
X39110D2*
X41110D1*
X39110Y46385D2*
X41110D1*
D35*
X40973Y46023D3*
X46520Y40733D2*
D10*
Y38733D1*
X51520Y40733D2*
Y38733D1*
Y37533D2*
Y35533D1*
X46520Y37533D2*
Y35533D1*
D30*
X46158Y35670D3*
D14*
X23642Y32925D3*
X23766Y32700D2*
D18*
X21567D1*
Y30500D1*
X23766D1*
Y32700D1*
X31934Y30031D2*
D69*
Y29485D1*
X31956Y29375D1*
X32000Y29303D1*
X32066Y29266D1*
X32109D1*
X32175Y29303D1*
X32219Y29375D1*
X32241Y29485D1*
Y30031D1*
X32382Y29885D2*
X32426Y29922D1*
X32491Y30030D1*
Y29266D1*
X22013Y24947D2*
Y24400D1*
X22035Y24291D1*
X22079Y24218D1*
X22144Y24181D1*
X22188D1*
X22254Y24218D1*
X22298Y24291D1*
X22319Y24400D1*
Y24947D1*
X22483Y24764D2*
Y24800D1*
X22504Y24874D1*
X22526Y24910D1*
X22570Y24946D1*
X22658D1*
X22701Y24910D1*
X22723Y24874D1*
X22745Y24800D1*
Y24728D1*
X22723Y24655D1*
X22679Y24546D1*
X22461Y24181D1*
X22767D1*
X30565Y33567D2*
Y32984D1*
X30543Y32874D1*
X30521Y32838D1*
X30478Y32801D1*
X30434D1*
X30390Y32838D1*
X30369Y32874D1*
X30346Y32984D1*
Y33056D1*
X30706Y33420D2*
X30750Y33457D1*
X30816Y33566D1*
Y32801D1*
X38115Y30851D2*
Y30304D1*
X38137Y30195D1*
X38181Y30122D1*
X38247Y30085D1*
X38290D1*
X38356Y30122D1*
X38400Y30195D1*
X38421Y30304D1*
Y30851D1*
X38607Y30850D2*
X38847D1*
X38716Y30559D1*
X38781D1*
X38825Y30523D1*
X38847Y30486D1*
X38869Y30377D1*
Y30304D1*
X38847Y30195D1*
X38803Y30122D1*
X38738Y30085D1*
X38672D1*
X38607Y30122D1*
X38585Y30159D1*
X38563Y30231D1*
X20436Y23664D2*
X20414Y23736D1*
X20370Y23810D1*
X20327Y23846D1*
X20239D1*
X20195Y23810D1*
X20152Y23736D1*
X20129Y23664D1*
X20108Y23554D1*
Y23372D1*
X20129Y23263D1*
X20152Y23190D1*
X20195Y23117D1*
X20239Y23080D1*
X20327D1*
X20370Y23117D1*
X20414Y23190D1*
X20436Y23263D1*
X20577Y23699D2*
X20621Y23736D1*
X20687Y23845D1*
Y23080D1*
X22799Y27087D2*
X22778Y27159D1*
X22734Y27233D1*
X22690Y27269D1*
X22603D1*
X22559Y27233D1*
X22515Y27159D1*
X22493Y27087D1*
X22471Y26977D1*
Y26795D1*
X22493Y26686D1*
X22515Y26613D1*
X22559Y26540D1*
X22603Y26503D1*
X22690D1*
X22734Y26540D1*
X22778Y26613D1*
X22799Y26686D1*
X22963Y27086D2*
Y27122D1*
X22985Y27196D1*
X23006Y27232D1*
X23050Y27268D1*
X23138D1*
X23181Y27232D1*
X23203Y27196D1*
X23225Y27122D1*
Y27050D1*
X23203Y26977D1*
X23159Y26868D1*
X22941Y26503D1*
X23247D1*
X21531Y28482D2*
Y27716D1*
X21793D1*
X21934Y28335D2*
X21978Y28372D1*
X22044Y28481D1*
Y27716D1*
X34646Y23064D2*
Y22518D1*
X34668Y22408D1*
X34712Y22336D1*
X34778Y22299D1*
X34821D1*
X34887Y22336D1*
X34931Y22408D1*
X34953Y22518D1*
Y23064D1*
X35313Y22299D2*
Y23063D1*
X35094Y22554D1*
X35422D1*
X26244Y18642D2*
Y18095D1*
X26265Y17986D1*
X26309Y17913D1*
X26375Y17876D1*
X26419D1*
X26484Y17913D1*
X26528Y17986D1*
X26550Y18095D1*
Y18642D1*
X26953Y18641D2*
X26735D1*
X26713Y18314D1*
X26735Y18350D1*
X26801Y18387D1*
X26866D1*
X26932Y18350D1*
X26976Y18277D1*
X26997Y18168D1*
Y18095D1*
X26976Y17986D1*
X26932Y17913D1*
X26866Y17876D1*
X26801D1*
X26735Y17913D1*
X26713Y17950D1*
X26691Y18022D1*
X17386Y23064D2*
Y22518D1*
X17407Y22408D1*
X17451Y22336D1*
X17517Y22299D1*
X17560D1*
X17626Y22336D1*
X17670Y22408D1*
X17692Y22518D1*
Y23064D1*
X18095Y22955D2*
X18074Y23027D1*
X18008Y23064D1*
X17964D1*
X17899Y23027D1*
X17855Y22918D1*
X17833Y22736D1*
Y22554D1*
X17855Y22408D1*
X17899Y22335D1*
X17964Y22299D1*
X17986D1*
X18051Y22335D1*
X18095Y22408D1*
X18117Y22518D1*
Y22554D1*
X18095Y22663D1*
X18051Y22736D1*
X17986Y22772D1*
X17964D1*
X17899Y22736D1*
X17855Y22663D1*
X17833Y22554D1*
X14372Y30851D2*
Y30304D1*
X14394Y30195D1*
X14438Y30122D1*
X14503Y30085D1*
X14547D1*
X14612Y30122D1*
X14656Y30195D1*
X14678Y30304D1*
Y30851D1*
X14907Y30085D2*
X15126Y30850D1*
X14819D1*
X17123Y39270D2*
Y38724D1*
X17145Y38614D1*
X17189Y38542D1*
X17254Y38505D1*
X17298D1*
X17364Y38542D1*
X17408Y38614D1*
X17429Y38724D1*
Y39270D1*
X17680Y39269D2*
X17614Y39233D1*
X17592Y39161D1*
Y39088D1*
X17614Y39015D1*
X17658Y38978D1*
X17745Y38942D1*
X17811Y38906D1*
X17854Y38832D1*
X17876Y38760D1*
Y38650D1*
X17854Y38578D1*
X17833Y38541D1*
X17767Y38505D1*
X17680D1*
X17614Y38541D1*
X17592Y38578D1*
X17570Y38650D1*
Y38760D1*
X17592Y38832D1*
X17636Y38906D1*
X17701Y38942D1*
X17789Y38978D1*
X17833Y39015D1*
X17854Y39088D1*
Y39161D1*
X17833Y39233D1*
X17767Y39269D1*
X17680D1*
X26255Y42385D2*
Y41838D1*
X26276Y41729D1*
X26320Y41656D1*
X26386Y41619D1*
X26429D1*
X26495Y41656D1*
X26539Y41729D1*
X26561Y41838D1*
Y42385D1*
X26987Y42130D2*
X26964Y42020D1*
X26921Y41947D1*
X26855Y41911D1*
X26833D1*
X26768Y41947D1*
X26724Y42020D1*
X26702Y42130D1*
Y42166D1*
X26724Y42276D1*
X26768Y42348D1*
X26833Y42384D1*
X26855D1*
X26921Y42348D1*
X26964Y42276D1*
X26987Y42130D1*
Y41947D1*
X26964Y41765D1*
X26921Y41656D1*
X26855Y41619D1*
X26812D1*
X26746Y41656D1*
X26724Y41729D1*
X34280Y39774D2*
Y39227D1*
X34302Y39118D1*
X34346Y39045D1*
X34411Y39008D1*
X34455D1*
X34521Y39045D1*
X34565Y39118D1*
X34586Y39227D1*
Y39774D1*
X34727Y39627D2*
X34771Y39664D1*
X34837Y39773D1*
Y39008D1*
X35110Y39773D2*
X35044Y39737D1*
X35000Y39627D1*
X34978Y39445D1*
Y39336D1*
X35000Y39154D1*
X35044Y39044D1*
X35110Y39008D1*
X35153D1*
X35219Y39044D1*
X35262Y39154D1*
X35285Y39336D1*
Y39445D1*
X35262Y39627D1*
X35219Y39737D1*
X35153Y39773D1*
X35110D1*
X35262Y39627D2*
X35000Y39154D1*
X26087Y23575D2*
Y23028D1*
X26109Y22919D1*
X26153Y22846D1*
X26218Y22809D1*
X26262D1*
X26327Y22846D1*
X26371Y22919D1*
X26393Y23028D1*
Y23575D1*
X26534Y23428D2*
X26578Y23466D1*
X26644Y23574D1*
Y22809D1*
X27047Y23574D2*
X26829D1*
X26807Y23247D1*
X26829Y23283D1*
X26895Y23320D1*
X26960D1*
X27026Y23283D1*
X27070Y23210D1*
X27091Y23101D1*
Y23028D1*
X27070Y22919D1*
X27026Y22846D1*
X26960Y22809D1*
X26895D1*
X26829Y22846D1*
X26807Y22883D1*
X26785Y22955D1*
X42820Y44918D2*
Y44371D1*
X42841Y44262D1*
X42885Y44189D1*
X42951Y44152D1*
X42994D1*
X43060Y44189D1*
X43104Y44262D1*
X43126Y44371D1*
Y44918D1*
X43267Y44771D2*
X43311Y44808D1*
X43377Y44917D1*
Y44152D1*
X43518Y44771D2*
X43562Y44808D1*
X43628Y44917D1*
Y44152D1*
X46756Y51999D2*
Y51452D1*
X46778Y51342D1*
X46822Y51270D1*
X46888Y51233D1*
X46931D1*
X46997Y51270D1*
X47041Y51342D1*
X47062Y51452D1*
Y51999D1*
X47204Y51852D2*
X47248Y51889D1*
X47313Y51998D1*
Y51233D1*
X47477Y51816D2*
Y51852D1*
X47498Y51925D1*
X47520Y51962D1*
X47564Y51998D1*
X47652D1*
X47695Y51962D1*
X47717Y51925D1*
X47739Y51852D1*
Y51780D1*
X47717Y51706D1*
X47673Y51598D1*
X47455Y51233D1*
X47761D1*
X42188Y51128D2*
Y50581D1*
X42210Y50471D1*
X42254Y50399D1*
X42320Y50362D1*
X42363D1*
X42429Y50399D1*
X42473Y50471D1*
X42495Y50581D1*
Y51128D1*
X42636Y50981D2*
X42680Y51018D1*
X42745Y51127D1*
Y50362D1*
X42931Y51127D2*
X43171D1*
X43040Y50835D1*
X43105D1*
X43149Y50799D1*
X43171Y50763D1*
X43193Y50653D1*
Y50581D1*
X43171Y50471D1*
X43127Y50398D1*
X43061Y50362D1*
X42996D1*
X42931Y50398D1*
X42909Y50435D1*
X42887Y50508D1*
X48095Y42499D2*
Y41952D1*
X48116Y41843D1*
X48160Y41770D1*
X48226Y41733D1*
X48269D1*
X48335Y41770D1*
X48379Y41843D1*
X48401Y41952D1*
Y42499D1*
X48542Y42352D2*
X48586Y42390D1*
X48652Y42498D1*
Y41733D1*
X49012D2*
Y42498D1*
X48793Y41989D1*
X49121D1*
X23563Y34111D2*
X23760D1*
X23825Y34148D1*
X23848Y34185D1*
X23869Y34257D1*
Y34330D1*
X23848Y34403D1*
X23825Y34440D1*
X23760Y34476D1*
X23563D1*
Y33710D1*
X23716Y34111D2*
X23869Y33710D1*
X24011Y34329D2*
X24054Y34366D1*
X24120Y34475D1*
Y33710D1*
X23107Y33405D2*
X23303D1*
X23369Y33442D1*
X23391Y33478D1*
X23413Y33551D1*
Y33624D1*
X23391Y33696D1*
X23369Y33733D1*
X23303Y33770D1*
X23107D1*
Y33004D1*
X23260Y33405D2*
X23413Y33004D1*
X23576Y33587D2*
Y33623D1*
X23598Y33696D1*
X23620Y33733D1*
X23664Y33769D1*
X23751D1*
X23795Y33733D1*
X23817Y33696D1*
X23839Y33623D1*
Y33551D1*
X23817Y33477D1*
X23773Y33369D1*
X23554Y33004D1*
X23860D1*
X21142Y31298D2*
X21120Y31371D1*
X21076Y31444D1*
X21032Y31480D1*
X20945D1*
X20901Y31444D1*
X20858Y31371D1*
X20835Y31298D1*
X20814Y31189D1*
Y31006D1*
X20835Y30897D1*
X20858Y30824D1*
X20901Y30752D1*
X20945Y30715D1*
X21032D1*
X21076Y30752D1*
X21120Y30824D1*
X21142Y30897D1*
X21502Y30715D2*
Y31480D1*
X21283Y30970D1*
X21611D1*
X25177Y31026D2*
X25156Y31098D1*
X25112Y31172D1*
X25068Y31208D1*
X24981D1*
X24937Y31172D1*
X24893Y31098D1*
X24871Y31026D1*
X24849Y30916D1*
Y30734D1*
X24871Y30625D1*
X24893Y30552D1*
X24937Y30479D1*
X24981Y30442D1*
X25068D1*
X25112Y30479D1*
X25156Y30552D1*
X25177Y30625D1*
X25581Y31207D2*
X25363D1*
X25341Y30879D1*
X25363Y30915D1*
X25428Y30953D1*
X25493D1*
X25559Y30915D1*
X25603Y30843D1*
X25625Y30734D1*
Y30661D1*
X25603Y30552D1*
X25559Y30478D1*
X25493Y30442D1*
X25428D1*
X25363Y30478D1*
X25341Y30515D1*
X25319Y30588D1*
X24777Y28808D2*
X24705Y28786D1*
X24631Y28742D1*
X24595Y28699D1*
Y28611D1*
X24631Y28567D1*
X24705Y28524D1*
X24777Y28502D1*
X24887Y28480D1*
X25069D1*
X25178Y28502D1*
X25251Y28524D1*
X25324Y28567D1*
X25361Y28611D1*
Y28699D1*
X25324Y28742D1*
X25251Y28786D1*
X25178Y28808D1*
X24705Y29211D2*
X24632Y29190D1*
X24596Y29124D1*
Y29081D1*
X24632Y29015D1*
X24742Y28971D1*
X24924Y28949D1*
X25106D1*
X25251Y28971D1*
X25325Y29015D1*
X25361Y29081D1*
Y29102D1*
X25325Y29167D1*
X25251Y29211D1*
X25142Y29233D1*
X25106D1*
X24996Y29211D1*
X24924Y29167D1*
X24888Y29102D1*
Y29081D1*
X24924Y29015D1*
X24996Y28971D1*
X25106Y28949D1*
X25982Y29842D2*
X25961Y29915D1*
X25917Y29988D1*
X25873Y30024D1*
X25786D1*
X25742Y29988D1*
X25698Y29915D1*
X25676Y29842D1*
X25654Y29733D1*
Y29550D1*
X25676Y29441D1*
X25698Y29368D1*
X25742Y29296D1*
X25786Y29259D1*
X25873D1*
X25917Y29296D1*
X25961Y29368D1*
X25982Y29441D1*
X26211Y29259D2*
X26430Y30023D1*
X26124D1*
X20415Y32530D2*
Y31983D1*
X20436Y31874D1*
X20480Y31801D1*
X20546Y31764D1*
X20589D1*
X20655Y31801D1*
X20699Y31874D1*
X20721Y31983D1*
Y32530D1*
X20862Y32383D2*
X20906Y32420D1*
X20972Y32529D1*
Y31764D1*
X21375Y32420D2*
X21353Y32493D1*
X21288Y32529D1*
X21244D1*
X21179Y32493D1*
X21135Y32383D1*
X21113Y32201D1*
Y32020D1*
X21135Y31874D1*
X21179Y31801D1*
X21244Y31764D1*
X21266D1*
X21331Y31801D1*
X21375Y31874D1*
X21397Y31983D1*
Y32020D1*
X21375Y32129D1*
X21331Y32201D1*
X21266Y32238D1*
X21244D1*
X21179Y32201D1*
X21135Y32129D1*
X21113Y32020D1*
X26070Y28169D2*
X26048Y28241D1*
X26004Y28314D1*
X25961Y28351D1*
X25874D1*
X25830Y28314D1*
X25786Y28241D1*
X25764Y28169D1*
X25742Y28059D1*
Y27876D1*
X25764Y27768D1*
X25786Y27694D1*
X25830Y27622D1*
X25874Y27585D1*
X25961D1*
X26004Y27622D1*
X26048Y27694D1*
X26070Y27768D1*
X26255Y28350D2*
X26495D1*
X26364Y28058D1*
X26430D1*
X26474Y28022D1*
X26495Y27986D1*
X26518Y27876D1*
Y27804D1*
X26495Y27694D1*
X26452Y27621D1*
X26386Y27585D1*
X26320D1*
X26255Y27621D1*
X26234Y27658D1*
X26211Y27731D1*
M02*
