G04 DipTrace 2.4.0.2*
%INmale.gts*%
%MOMM*%
%ADD10C,0.25*%
%ADD20C,0.165*%
%ADD29R,0.5X1.0*%
%ADD47C,0.95*%
%ADD48C,0.9*%
%ADD49C,2.54*%
%ADD53R,0.325X0.3*%
%ADD54R,0.3X0.325*%
%ADD55R,0.75X0.95*%
%ADD56R,0.95X0.75*%
%ADD59O,1.55X1.05*%
%ADD60R,0.9X2.05*%
%ADD61R,1.05X1.15*%
%ADD62R,1.15X1.05*%
%ADD63O,1.05X1.55*%
%ADD67O,0.33X1.05*%
%ADD68O,1.05X0.33*%
%FSLAX53Y53*%
G04*
G71*
G90*
G75*
G01*
%LNTopMask*%
%LPD*%
X32226Y27262D2*
D20*
X32227Y27281D1*
X32228Y27301D1*
X32232Y27320D1*
X32236Y27339D1*
X32242Y27358D1*
X32249Y27376D1*
X32257Y27393D1*
X32266Y27410D1*
X32277Y27426D1*
X32288Y27442D1*
X32301Y27456D1*
X32314Y27470D1*
X32328Y27482D1*
X32343Y27494D1*
X32359Y27504D1*
X32376Y27513D1*
X32393Y27521D1*
X32410Y27528D1*
X32428Y27533D1*
X32446Y27537D1*
X32465Y27540D1*
X32483Y27541D1*
X32502D1*
X32520Y27540D1*
X32539Y27537D1*
X32557Y27533D1*
X32575Y27528D1*
X32592Y27521D1*
X32609Y27513D1*
X32626Y27504D1*
X32642Y27494D1*
X32657Y27482D1*
X32671Y27470D1*
X32684Y27456D1*
X32697Y27442D1*
X32708Y27426D1*
X32719Y27410D1*
X32728Y27393D1*
X32736Y27376D1*
X32743Y27358D1*
X32749Y27339D1*
X32753Y27320D1*
X32757Y27301D1*
X32758Y27281D1*
X32759Y27262D1*
X32758Y27242D1*
X32757Y27223D1*
X32753Y27204D1*
X32749Y27185D1*
X32743Y27166D1*
X32736Y27148D1*
X32728Y27131D1*
X32719Y27114D1*
X32708Y27098D1*
X32697Y27082D1*
X32684Y27068D1*
X32671Y27054D1*
X32657Y27042D1*
X32642Y27030D1*
X32626Y27020D1*
X32609Y27011D1*
X32592Y27003D1*
X32575Y26996D1*
X32557Y26991D1*
X32539Y26987D1*
X32520Y26984D1*
X32502Y26983D1*
X32483D1*
X32465Y26984D1*
X32446Y26987D1*
X32428Y26991D1*
X32410Y26996D1*
X32393Y27003D1*
X32376Y27011D1*
X32359Y27020D1*
X32343Y27030D1*
X32328Y27042D1*
X32314Y27054D1*
X32301Y27068D1*
X32288Y27082D1*
X32277Y27098D1*
X32266Y27114D1*
X32257Y27131D1*
X32249Y27148D1*
X32242Y27166D1*
X32236Y27185D1*
X32232Y27204D1*
X32228Y27223D1*
X32227Y27242D1*
X32226Y27262D1*
X33129D2*
X33130Y27281D1*
X33132Y27301D1*
X33135Y27320D1*
X33139Y27339D1*
X33145Y27358D1*
X33152Y27376D1*
X33160Y27393D1*
X33170Y27410D1*
X33180Y27426D1*
X33192Y27442D1*
X33204Y27456D1*
X33217Y27470D1*
X33232Y27482D1*
X33247Y27494D1*
X33262Y27504D1*
X33279Y27513D1*
X33296Y27521D1*
X33313Y27528D1*
X33331Y27533D1*
X33349Y27537D1*
X33368Y27540D1*
X33386Y27541D1*
X33405D1*
X33424Y27540D1*
X33442Y27537D1*
X33460Y27533D1*
X33478Y27528D1*
X33496Y27521D1*
X33513Y27513D1*
X33529Y27504D1*
X33545Y27494D1*
X33560Y27482D1*
X33574Y27470D1*
X33588Y27456D1*
X33600Y27442D1*
X33611Y27426D1*
X33622Y27410D1*
X33631Y27393D1*
X33639Y27376D1*
X33646Y27358D1*
X33652Y27339D1*
X33657Y27320D1*
X33660Y27301D1*
X33662Y27281D1*
Y27262D1*
Y27242D1*
X33660Y27223D1*
X33657Y27204D1*
X33652Y27185D1*
X33646Y27166D1*
X33639Y27148D1*
X33631Y27131D1*
X33622Y27114D1*
X33611Y27098D1*
X33600Y27082D1*
X33588Y27068D1*
X33574Y27054D1*
X33560Y27042D1*
X33545Y27030D1*
X33529Y27020D1*
X33513Y27011D1*
X33496Y27003D1*
X33478Y26996D1*
X33460Y26991D1*
X33442Y26987D1*
X33424Y26984D1*
X33405Y26983D1*
X33386D1*
X33368Y26984D1*
X33349Y26987D1*
X33331Y26991D1*
X33313Y26996D1*
X33296Y27003D1*
X33279Y27011D1*
X33262Y27020D1*
X33247Y27030D1*
X33232Y27042D1*
X33217Y27054D1*
X33204Y27068D1*
X33192Y27082D1*
X33180Y27098D1*
X33170Y27114D1*
X33160Y27131D1*
X33152Y27148D1*
X33145Y27166D1*
X33139Y27185D1*
X33135Y27204D1*
X33132Y27223D1*
X33130Y27242D1*
X33129Y27262D1*
X31319Y26365D2*
X31320Y26385D1*
X31322Y26404D1*
X31325Y26423D1*
X31330Y26442D1*
X31335Y26461D1*
X31342Y26479D1*
X31350Y26497D1*
X31360Y26513D1*
X31370Y26530D1*
X31382Y26545D1*
X31394Y26559D1*
X31407Y26573D1*
X31422Y26586D1*
X31437Y26597D1*
X31453Y26607D1*
X31469Y26617D1*
X31486Y26624D1*
X31503Y26631D1*
X31521Y26637D1*
X31540Y26641D1*
X31558Y26643D1*
X31577Y26645D1*
X31595D1*
X31614Y26643D1*
X31632Y26641D1*
X31650Y26637D1*
X31668Y26631D1*
X31686Y26624D1*
X31703Y26617D1*
X31719Y26607D1*
X31735Y26597D1*
X31750Y26586D1*
X31764Y26573D1*
X31778Y26559D1*
X31790Y26545D1*
X31802Y26530D1*
X31812Y26513D1*
X31821Y26497D1*
X31829Y26479D1*
X31836Y26461D1*
X31842Y26442D1*
X31847Y26423D1*
X31850Y26404D1*
X31852Y26385D1*
Y26365D1*
Y26346D1*
X31850Y26326D1*
X31847Y26307D1*
X31842Y26288D1*
X31836Y26270D1*
X31829Y26252D1*
X31821Y26234D1*
X31812Y26217D1*
X31802Y26201D1*
X31790Y26186D1*
X31778Y26171D1*
X31764Y26158D1*
X31750Y26145D1*
X31735Y26134D1*
X31719Y26123D1*
X31703Y26114D1*
X31686Y26106D1*
X31668Y26100D1*
X31650Y26094D1*
X31632Y26090D1*
X31614Y26087D1*
X31595Y26086D1*
X31577D1*
X31558Y26087D1*
X31540Y26090D1*
X31521Y26094D1*
X31503Y26100D1*
X31486Y26106D1*
X31469Y26114D1*
X31453Y26123D1*
X31437Y26134D1*
X31422Y26145D1*
X31407Y26158D1*
X31394Y26171D1*
X31382Y26186D1*
X31370Y26201D1*
X31360Y26217D1*
X31350Y26234D1*
X31342Y26252D1*
X31335Y26270D1*
X31330Y26288D1*
X31325Y26307D1*
X31322Y26326D1*
X31320Y26346D1*
X31319Y26365D1*
X32219Y26362D2*
X32220Y26382D1*
X32222Y26401D1*
X32225Y26420D1*
X32229Y26439D1*
X32235Y26458D1*
X32242Y26476D1*
X32250Y26493D1*
X32260Y26510D1*
X32270Y26526D1*
X32281Y26542D1*
X32294Y26556D1*
X32307Y26570D1*
X32322Y26582D1*
X32337Y26594D1*
X32352Y26604D1*
X32369Y26613D1*
X32386Y26621D1*
X32403Y26628D1*
X32421Y26633D1*
X32439Y26637D1*
X32458Y26640D1*
X32476Y26641D1*
X32495D1*
X32514Y26640D1*
X32532Y26637D1*
X32550Y26633D1*
X32568Y26628D1*
X32586Y26621D1*
X32603Y26613D1*
X32619Y26604D1*
X32635Y26594D1*
X32650Y26582D1*
X32664Y26570D1*
X32677Y26556D1*
X32690Y26542D1*
X32701Y26526D1*
X32712Y26510D1*
X32721Y26493D1*
X32729Y26476D1*
X32736Y26458D1*
X32742Y26439D1*
X32746Y26420D1*
X32750Y26401D1*
X32752Y26382D1*
Y26362D1*
Y26343D1*
X32750Y26323D1*
X32746Y26304D1*
X32742Y26285D1*
X32736Y26267D1*
X32729Y26248D1*
X32721Y26231D1*
X32712Y26214D1*
X32701Y26198D1*
X32690Y26183D1*
X32677Y26168D1*
X32664Y26155D1*
X32650Y26142D1*
X32635Y26131D1*
X32619Y26120D1*
X32603Y26111D1*
X32586Y26103D1*
X32568Y26096D1*
X32550Y26091D1*
X32532Y26087D1*
X32514Y26084D1*
X32495Y26083D1*
X32476D1*
X32458Y26084D1*
X32439Y26087D1*
X32421Y26091D1*
X32403Y26096D1*
X32386Y26103D1*
X32369Y26111D1*
X32352Y26120D1*
X32337Y26131D1*
X32322Y26142D1*
X32307Y26155D1*
X32294Y26168D1*
X32281Y26183D1*
X32270Y26198D1*
X32260Y26214D1*
X32250Y26231D1*
X32242Y26248D1*
X32235Y26267D1*
X32229Y26285D1*
X32225Y26304D1*
X32222Y26323D1*
X32220Y26343D1*
X32219Y26362D1*
X32229D2*
X32230Y26382D1*
X32232Y26401D1*
X32235Y26420D1*
X32240Y26439D1*
X32245Y26458D1*
X32252Y26476D1*
X32260Y26493D1*
X32270Y26510D1*
X32280Y26526D1*
X32292Y26542D1*
X32304Y26556D1*
X32317Y26570D1*
X32332Y26582D1*
X32347Y26594D1*
X32363Y26604D1*
X32379Y26613D1*
X32396Y26621D1*
X32413Y26628D1*
X32431Y26633D1*
X32450Y26637D1*
X32468Y26640D1*
X32487Y26641D1*
X32505D1*
X32524Y26640D1*
X32542Y26637D1*
X32560Y26633D1*
X32578Y26628D1*
X32596Y26621D1*
X32613Y26613D1*
X32629Y26604D1*
X32645Y26594D1*
X32660Y26582D1*
X32674Y26570D1*
X32688Y26556D1*
X32700Y26542D1*
X32712Y26526D1*
X32722Y26510D1*
X32731Y26493D1*
X32739Y26476D1*
X32746Y26458D1*
X32752Y26439D1*
X32757Y26420D1*
X32760Y26401D1*
X32762Y26382D1*
X32763Y26362D1*
X32762Y26343D1*
X32760Y26323D1*
X32757Y26304D1*
X32752Y26285D1*
X32746Y26267D1*
X32739Y26248D1*
X32731Y26231D1*
X32722Y26214D1*
X32712Y26198D1*
X32700Y26183D1*
X32688Y26168D1*
X32674Y26155D1*
X32660Y26142D1*
X32645Y26131D1*
X32629Y26120D1*
X32613Y26111D1*
X32596Y26103D1*
X32578Y26096D1*
X32560Y26091D1*
X32542Y26087D1*
X32524Y26084D1*
X32505Y26083D1*
X32487D1*
X32468Y26084D1*
X32450Y26087D1*
X32431Y26091D1*
X32413Y26096D1*
X32396Y26103D1*
X32379Y26111D1*
X32363Y26120D1*
X32347Y26131D1*
X32332Y26142D1*
X32317Y26155D1*
X32304Y26168D1*
X32292Y26183D1*
X32280Y26198D1*
X32270Y26214D1*
X32260Y26231D1*
X32252Y26248D1*
X32245Y26267D1*
X32240Y26285D1*
X32235Y26304D1*
X32232Y26323D1*
X32230Y26343D1*
X32229Y26362D1*
X33126Y26369D2*
Y26388D1*
X33128Y26408D1*
X33132Y26427D1*
X33136Y26446D1*
X33142Y26464D1*
X33149Y26482D1*
X33157Y26500D1*
X33166Y26517D1*
X33177Y26533D1*
X33188Y26548D1*
X33201Y26563D1*
X33214Y26576D1*
X33228Y26589D1*
X33243Y26600D1*
X33259Y26610D1*
X33275Y26620D1*
X33292Y26628D1*
X33310Y26634D1*
X33328Y26640D1*
X33346Y26644D1*
X33364Y26646D1*
X33383Y26648D1*
X33402D1*
X33420Y26646D1*
X33439Y26644D1*
X33457Y26640D1*
X33475Y26634D1*
X33492Y26628D1*
X33509Y26620D1*
X33526Y26610D1*
X33541Y26600D1*
X33556Y26589D1*
X33571Y26576D1*
X33584Y26563D1*
X33597Y26548D1*
X33608Y26533D1*
X33618Y26517D1*
X33628Y26500D1*
X33636Y26482D1*
X33643Y26464D1*
X33649Y26446D1*
X33653Y26427D1*
X33656Y26408D1*
X33658Y26388D1*
X33659Y26369D1*
X33658Y26349D1*
X33656Y26330D1*
X33653Y26311D1*
X33649Y26292D1*
X33643Y26273D1*
X33636Y26255D1*
X33628Y26238D1*
X33618Y26221D1*
X33608Y26205D1*
X33597Y26189D1*
X33584Y26175D1*
X33571Y26161D1*
X33556Y26149D1*
X33541Y26137D1*
X33526Y26127D1*
X33509Y26118D1*
X33492Y26110D1*
X33475Y26103D1*
X33457Y26098D1*
X33439Y26094D1*
X33420Y26091D1*
X33402Y26090D1*
X33383D1*
X33364Y26091D1*
X33346Y26094D1*
X33328Y26098D1*
X33310Y26103D1*
X33292Y26110D1*
X33275Y26118D1*
X33259Y26127D1*
X33243Y26137D1*
X33228Y26149D1*
X33214Y26161D1*
X33201Y26175D1*
X33188Y26189D1*
X33177Y26205D1*
X33166Y26221D1*
X33157Y26238D1*
X33149Y26255D1*
X33142Y26273D1*
X33136Y26292D1*
X33132Y26311D1*
X33128Y26330D1*
X33126Y26349D1*
Y26369D1*
X32222Y25462D2*
X32223Y25481D1*
X32225Y25501D1*
X32228Y25520D1*
X32233Y25539D1*
X32239Y25557D1*
X32246Y25575D1*
X32254Y25593D1*
X32263Y25610D1*
X32273Y25626D1*
X32285Y25641D1*
X32297Y25656D1*
X32311Y25669D1*
X32325Y25682D1*
X32340Y25693D1*
X32356Y25704D1*
X32372Y25713D1*
X32389Y25721D1*
X32407Y25727D1*
X32425Y25733D1*
X32443Y25737D1*
X32461Y25740D1*
X32480Y25741D1*
X32498D1*
X32517Y25740D1*
X32535Y25737D1*
X32554Y25733D1*
X32571Y25727D1*
X32589Y25721D1*
X32606Y25713D1*
X32622Y25704D1*
X32638Y25693D1*
X32653Y25682D1*
X32667Y25669D1*
X32681Y25656D1*
X32693Y25641D1*
X32705Y25626D1*
X32715Y25610D1*
X32724Y25593D1*
X32733Y25575D1*
X32740Y25557D1*
X32745Y25539D1*
X32750Y25520D1*
X32753Y25501D1*
X32755Y25481D1*
X32756Y25462D1*
X32755Y25442D1*
X32753Y25423D1*
X32750Y25404D1*
X32745Y25385D1*
X32740Y25366D1*
X32733Y25348D1*
X32724Y25331D1*
X32715Y25314D1*
X32705Y25298D1*
X32693Y25282D1*
X32681Y25268D1*
X32667Y25254D1*
X32653Y25242D1*
X32638Y25230D1*
X32622Y25220D1*
X32606Y25211D1*
X32589Y25203D1*
X32571Y25196D1*
X32554Y25191D1*
X32535Y25187D1*
X32517Y25184D1*
X32498Y25183D1*
X32480D1*
X32461Y25184D1*
X32443Y25187D1*
X32425Y25191D1*
X32407Y25196D1*
X32389Y25203D1*
X32372Y25211D1*
X32356Y25220D1*
X32340Y25230D1*
X32325Y25242D1*
X32311Y25254D1*
X32297Y25268D1*
X32285Y25282D1*
X32273Y25298D1*
X32263Y25314D1*
X32254Y25331D1*
X32246Y25348D1*
X32239Y25366D1*
X32233Y25385D1*
X32228Y25404D1*
X32225Y25423D1*
X32223Y25442D1*
X32222Y25462D1*
X31326D2*
X31327Y25481D1*
X31329Y25501D1*
X31332Y25520D1*
X31336Y25539D1*
X31342Y25557D1*
X31349Y25575D1*
X31357Y25593D1*
X31367Y25610D1*
X31377Y25626D1*
X31388Y25641D1*
X31401Y25656D1*
X31414Y25669D1*
X31428Y25682D1*
X31444Y25693D1*
X31459Y25704D1*
X31476Y25713D1*
X31493Y25721D1*
X31510Y25727D1*
X31528Y25733D1*
X31546Y25737D1*
X31565Y25740D1*
X31583Y25741D1*
X31602D1*
X31620Y25740D1*
X31639Y25737D1*
X31657Y25733D1*
X31675Y25727D1*
X31692Y25721D1*
X31709Y25713D1*
X31726Y25704D1*
X31742Y25693D1*
X31757Y25682D1*
X31771Y25669D1*
X31784Y25656D1*
X31797Y25641D1*
X31808Y25626D1*
X31819Y25610D1*
X31828Y25593D1*
X31836Y25575D1*
X31843Y25557D1*
X31849Y25539D1*
X31853Y25520D1*
X31857Y25501D1*
X31859Y25481D1*
Y25462D1*
Y25442D1*
X31857Y25423D1*
X31853Y25404D1*
X31849Y25385D1*
X31843Y25366D1*
X31836Y25348D1*
X31828Y25331D1*
X31819Y25314D1*
X31808Y25298D1*
X31797Y25282D1*
X31784Y25268D1*
X31771Y25254D1*
X31757Y25242D1*
X31742Y25230D1*
X31726Y25220D1*
X31709Y25211D1*
X31692Y25203D1*
X31675Y25196D1*
X31657Y25191D1*
X31639Y25187D1*
X31620Y25184D1*
X31602Y25183D1*
X31583D1*
X31565Y25184D1*
X31546Y25187D1*
X31528Y25191D1*
X31510Y25196D1*
X31493Y25203D1*
X31476Y25211D1*
X31459Y25220D1*
X31444Y25230D1*
X31428Y25242D1*
X31414Y25254D1*
X31401Y25268D1*
X31388Y25282D1*
X31377Y25298D1*
X31367Y25314D1*
X31357Y25331D1*
X31349Y25348D1*
X31342Y25366D1*
X31336Y25385D1*
X31332Y25404D1*
X31329Y25423D1*
X31327Y25442D1*
X31326Y25462D1*
X33129D2*
X33130Y25481D1*
X33132Y25501D1*
X33135Y25520D1*
X33139Y25539D1*
X33145Y25557D1*
X33152Y25575D1*
X33160Y25593D1*
X33170Y25610D1*
X33180Y25626D1*
X33192Y25641D1*
X33204Y25656D1*
X33217Y25669D1*
X33232Y25682D1*
X33247Y25693D1*
X33262Y25704D1*
X33279Y25713D1*
X33296Y25721D1*
X33313Y25727D1*
X33331Y25733D1*
X33349Y25737D1*
X33368Y25740D1*
X33386Y25741D1*
X33405D1*
X33424Y25740D1*
X33442Y25737D1*
X33460Y25733D1*
X33478Y25727D1*
X33496Y25721D1*
X33513Y25713D1*
X33529Y25704D1*
X33545Y25693D1*
X33560Y25682D1*
X33574Y25669D1*
X33588Y25656D1*
X33600Y25641D1*
X33611Y25626D1*
X33622Y25610D1*
X33631Y25593D1*
X33639Y25575D1*
X33646Y25557D1*
X33652Y25539D1*
X33657Y25520D1*
X33660Y25501D1*
X33662Y25481D1*
Y25462D1*
Y25442D1*
X33660Y25423D1*
X33657Y25404D1*
X33652Y25385D1*
X33646Y25366D1*
X33639Y25348D1*
X33631Y25331D1*
X33622Y25314D1*
X33611Y25298D1*
X33600Y25282D1*
X33588Y25268D1*
X33574Y25254D1*
X33560Y25242D1*
X33545Y25230D1*
X33529Y25220D1*
X33513Y25211D1*
X33496Y25203D1*
X33478Y25196D1*
X33460Y25191D1*
X33442Y25187D1*
X33424Y25184D1*
X33405Y25183D1*
X33386D1*
X33368Y25184D1*
X33349Y25187D1*
X33331Y25191D1*
X33313Y25196D1*
X33296Y25203D1*
X33279Y25211D1*
X33262Y25220D1*
X33247Y25230D1*
X33232Y25242D1*
X33217Y25254D1*
X33204Y25268D1*
X33192Y25282D1*
X33180Y25298D1*
X33170Y25314D1*
X33160Y25331D1*
X33152Y25348D1*
X33145Y25366D1*
X33139Y25385D1*
X33135Y25404D1*
X33132Y25423D1*
X33130Y25442D1*
X33129Y25462D1*
X31236Y27632D2*
D10*
X33726D1*
Y25105D1*
X31236D1*
Y27632D1*
G36*
X31830Y27572D2*
X32310D1*
Y25189D1*
X31830D1*
Y27572D1*
G37*
G36*
X31273Y26165D2*
X33750D1*
Y25699D1*
X31273D1*
Y26165D1*
G37*
G36*
X31290Y27025D2*
X33649D1*
Y26559D1*
X31290D1*
Y27025D1*
G37*
G36*
X32719Y27665D2*
X33193D1*
Y25195D1*
X32719D1*
Y27665D1*
G37*
X31353Y27249D2*
D20*
Y27268D1*
X31355Y27288D1*
X31358Y27307D1*
X31363Y27326D1*
X31369Y27344D1*
X31376Y27362D1*
X31384Y27380D1*
X31393Y27397D1*
X31404Y27413D1*
X31415Y27428D1*
X31427Y27443D1*
X31441Y27456D1*
X31455Y27469D1*
X31470Y27480D1*
X31486Y27491D1*
X31502Y27500D1*
X31519Y27508D1*
X31537Y27514D1*
X31555Y27520D1*
X31573Y27524D1*
X31591Y27527D1*
X31610Y27528D1*
X31629D1*
X31647Y27527D1*
X31666Y27524D1*
X31684Y27520D1*
X31702Y27514D1*
X31719Y27508D1*
X31736Y27500D1*
X31753Y27491D1*
X31768Y27480D1*
X31783Y27469D1*
X31798Y27456D1*
X31811Y27443D1*
X31823Y27428D1*
X31835Y27413D1*
X31845Y27397D1*
X31855Y27380D1*
X31863Y27362D1*
X31870Y27344D1*
X31876Y27326D1*
X31880Y27307D1*
X31883Y27288D1*
X31885Y27268D1*
X31886Y27249D1*
X31885Y27229D1*
X31883Y27210D1*
X31880Y27191D1*
X31876Y27172D1*
X31870Y27153D1*
X31863Y27135D1*
X31855Y27117D1*
X31845Y27101D1*
X31835Y27084D1*
X31823Y27069D1*
X31811Y27055D1*
X31798Y27041D1*
X31783Y27028D1*
X31768Y27017D1*
X31753Y27007D1*
X31736Y26997D1*
X31719Y26990D1*
X31702Y26983D1*
X31684Y26977D1*
X31666Y26973D1*
X31647Y26971D1*
X31629Y26969D1*
X31610D1*
X31591Y26971D1*
X31573Y26973D1*
X31555Y26977D1*
X31537Y26983D1*
X31519Y26990D1*
X31502Y26997D1*
X31486Y27007D1*
X31470Y27017D1*
X31455Y27028D1*
X31441Y27041D1*
X31427Y27055D1*
X31415Y27069D1*
X31404Y27084D1*
X31393Y27101D1*
X31384Y27117D1*
X31376Y27135D1*
X31369Y27153D1*
X31363Y27172D1*
X31358Y27191D1*
X31355Y27210D1*
X31353Y27229D1*
Y27249D1*
D68*
X30446Y27615D3*
Y27115D3*
Y26615D3*
Y26115D3*
Y25615D3*
Y25115D3*
D67*
X31246Y24315D3*
X31746D3*
X32246D3*
X32746D3*
X33246D3*
X33746D3*
D68*
X34546Y25115D3*
Y25615D3*
Y26115D3*
Y26615D3*
Y27115D3*
Y27615D3*
D67*
X33746Y28415D3*
X33246D3*
X32746D3*
X32246D3*
X31746D3*
X31246D3*
D29*
X19077Y23665D3*
X20377D3*
X21677D3*
Y25865D3*
X20377D3*
X19077D3*
G36*
X27894Y31754D2*
X27888Y31827D1*
X27869Y31898D1*
X27838Y31964D1*
X27796Y32023D1*
X27745Y32075D1*
X27685Y32117D1*
X27619Y32148D1*
X27548Y32167D1*
X27476Y32173D1*
D1*
X27403Y32167D1*
X27332Y32148D1*
X27266Y32117D1*
X27206Y32075D1*
X27155Y32023D1*
X27113Y31964D1*
X27082Y31898D1*
X27063Y31827D1*
X27057Y31754D1*
D1*
X27063Y31682D1*
X27082Y31611D1*
X27113Y31545D1*
X27155Y31485D1*
X27206Y31433D1*
X27266Y31392D1*
X27332Y31361D1*
X27403Y31342D1*
X27476Y31335D1*
D1*
X27548Y31342D1*
X27619Y31361D1*
X27685Y31392D1*
X27745Y31433D1*
X27796Y31485D1*
X27838Y31545D1*
X27869Y31611D1*
X27888Y31682D1*
X27894Y31754D1*
G37*
G36*
X29164D2*
X29158Y31827D1*
X29139Y31898D1*
X29108Y31964D1*
X29066Y32023D1*
X29015Y32075D1*
X28955Y32117D1*
X28889Y32148D1*
X28818Y32167D1*
X28746Y32173D1*
D1*
X28673Y32167D1*
X28602Y32148D1*
X28536Y32117D1*
X28476Y32075D1*
X28425Y32023D1*
X28383Y31964D1*
X28352Y31898D1*
X28333Y31827D1*
X28327Y31754D1*
D1*
X28333Y31682D1*
X28352Y31611D1*
X28383Y31545D1*
X28425Y31485D1*
X28476Y31433D1*
X28536Y31392D1*
X28602Y31361D1*
X28673Y31342D1*
X28746Y31335D1*
D1*
X28818Y31342D1*
X28889Y31361D1*
X28955Y31392D1*
X29015Y31433D1*
X29066Y31485D1*
X29108Y31545D1*
X29139Y31611D1*
X29158Y31682D1*
X29164Y31754D1*
G37*
G36*
X30434D2*
X30428Y31827D1*
X30409Y31898D1*
X30378Y31964D1*
X30336Y32023D1*
X30285Y32075D1*
X30225Y32117D1*
X30159Y32148D1*
X30088Y32167D1*
X30016Y32173D1*
D1*
X29943Y32167D1*
X29872Y32148D1*
X29806Y32117D1*
X29746Y32075D1*
X29695Y32023D1*
X29653Y31964D1*
X29622Y31898D1*
X29603Y31827D1*
X29597Y31754D1*
D1*
X29603Y31682D1*
X29622Y31611D1*
X29653Y31545D1*
X29695Y31485D1*
X29746Y31433D1*
X29806Y31392D1*
X29872Y31361D1*
X29943Y31342D1*
X30016Y31335D1*
D1*
X30088Y31342D1*
X30159Y31361D1*
X30225Y31392D1*
X30285Y31433D1*
X30336Y31485D1*
X30378Y31545D1*
X30409Y31611D1*
X30428Y31682D1*
X30434Y31754D1*
G37*
G36*
Y30484D2*
X30428Y30557D1*
X30409Y30628D1*
X30378Y30694D1*
X30336Y30753D1*
X30285Y30805D1*
X30225Y30847D1*
X30159Y30878D1*
X30088Y30897D1*
X30016Y30903D1*
D1*
X29943Y30897D1*
X29872Y30878D1*
X29806Y30847D1*
X29746Y30805D1*
X29695Y30753D1*
X29653Y30694D1*
X29622Y30628D1*
X29603Y30557D1*
X29597Y30484D1*
D1*
X29603Y30412D1*
X29622Y30341D1*
X29653Y30275D1*
X29695Y30215D1*
X29746Y30163D1*
X29806Y30122D1*
X29872Y30091D1*
X29943Y30072D1*
X30016Y30065D1*
D1*
X30088Y30072D1*
X30159Y30091D1*
X30225Y30122D1*
X30285Y30163D1*
X30336Y30215D1*
X30378Y30275D1*
X30409Y30341D1*
X30428Y30412D1*
X30434Y30484D1*
G37*
G36*
X29164D2*
X29158Y30557D1*
X29139Y30628D1*
X29108Y30694D1*
X29066Y30753D1*
X29015Y30805D1*
X28955Y30847D1*
X28889Y30878D1*
X28818Y30897D1*
X28746Y30903D1*
D1*
X28673Y30897D1*
X28602Y30878D1*
X28536Y30847D1*
X28476Y30805D1*
X28425Y30753D1*
X28383Y30694D1*
X28352Y30628D1*
X28333Y30557D1*
X28327Y30484D1*
D1*
X28333Y30412D1*
X28352Y30341D1*
X28383Y30275D1*
X28425Y30215D1*
X28476Y30163D1*
X28536Y30122D1*
X28602Y30091D1*
X28673Y30072D1*
X28746Y30065D1*
D1*
X28818Y30072D1*
X28889Y30091D1*
X28955Y30122D1*
X29015Y30163D1*
X29066Y30215D1*
X29108Y30275D1*
X29139Y30341D1*
X29158Y30412D1*
X29164Y30484D1*
G37*
G36*
X27894D2*
X27888Y30557D1*
X27869Y30628D1*
X27838Y30694D1*
X27796Y30753D1*
X27745Y30805D1*
X27685Y30847D1*
X27619Y30878D1*
X27548Y30897D1*
X27476Y30903D1*
D1*
X27403Y30897D1*
X27332Y30878D1*
X27266Y30847D1*
X27206Y30805D1*
X27155Y30753D1*
X27113Y30694D1*
X27082Y30628D1*
X27063Y30557D1*
X27057Y30484D1*
D1*
X27063Y30412D1*
X27082Y30341D1*
X27113Y30275D1*
X27155Y30215D1*
X27206Y30163D1*
X27266Y30122D1*
X27332Y30091D1*
X27403Y30072D1*
X27476Y30065D1*
D1*
X27548Y30072D1*
X27619Y30091D1*
X27685Y30122D1*
X27745Y30163D1*
X27796Y30215D1*
X27838Y30275D1*
X27869Y30341D1*
X27888Y30412D1*
X27894Y30484D1*
G37*
D47*
X26206Y31119D3*
X31286Y32135D3*
Y30103D3*
D63*
X39930Y28985D3*
X38080D3*
X36230D3*
Y23985D3*
X38080D3*
X39930D3*
D62*
X19547Y22230D3*
X21247D3*
D61*
X22859Y25603D3*
Y23903D3*
D60*
X19022Y27923D3*
X20722D3*
G36*
X38408Y18466D2*
X38531Y18662D1*
X38557Y18894D1*
X38480Y19115D1*
X38315Y19280D1*
X38094Y19358D1*
X37861Y19331D1*
X37666Y19209D1*
X37308Y18851D1*
X37185Y18655D1*
X37159Y18423D1*
X37236Y18202D1*
X37402Y18037D1*
X37623Y17959D1*
X37855Y17986D1*
X38051Y18109D1*
X38408Y18466D1*
G37*
G36*
X37100Y19774D2*
X37223Y19970D1*
X37249Y20202D1*
X37172Y20423D1*
X37007Y20588D1*
X36786Y20666D1*
X36553Y20640D1*
X36358Y20517D1*
X36000Y20159D1*
X35877Y19963D1*
X35851Y19731D1*
X35928Y19510D1*
X36094Y19345D1*
X36314Y19268D1*
X36547Y19294D1*
X36743Y19417D1*
X37100Y19774D1*
G37*
G36*
X35792Y21082D2*
X35915Y21278D1*
X35941Y21510D1*
X35864Y21731D1*
X35698Y21897D1*
X35478Y21974D1*
X35245Y21948D1*
X35049Y21825D1*
X34692Y21467D1*
X34569Y21272D1*
X34543Y21039D1*
X34620Y20818D1*
X34785Y20653D1*
X35006Y20576D1*
X35239Y20602D1*
X35434Y20725D1*
X35792Y21082D1*
G37*
G36*
X32256Y17547D2*
X32379Y17742D1*
X32406Y17975D1*
X32328Y18196D1*
X32163Y18361D1*
X31942Y18438D1*
X31710Y18412D1*
X31514Y18289D1*
X31156Y17932D1*
X31033Y17736D1*
X31007Y17504D1*
X31085Y17283D1*
X31250Y17117D1*
X31471Y17040D1*
X31703Y17066D1*
X31899Y17189D1*
X32256Y17547D1*
G37*
G36*
X33565Y16239D2*
X33687Y16434D1*
X33714Y16667D1*
X33636Y16888D1*
X33471Y17053D1*
X33250Y17130D1*
X33018Y17104D1*
X32822Y16981D1*
X32465Y16624D1*
X32342Y16428D1*
X32315Y16195D1*
X32393Y15975D1*
X32558Y15809D1*
X32779Y15732D1*
X33011Y15758D1*
X33207Y15881D1*
X33565Y16239D1*
G37*
G36*
X34873Y14931D2*
X34996Y15126D1*
X35022Y15359D1*
X34945Y15579D1*
X34779Y15745D1*
X34558Y15822D1*
X34326Y15796D1*
X34130Y15673D1*
X33773Y15315D1*
X33650Y15120D1*
X33624Y14887D1*
X33701Y14667D1*
X33866Y14501D1*
X34087Y14424D1*
X34320Y14450D1*
X34515Y14573D1*
X34873Y14931D1*
G37*
D59*
X29121Y13176D3*
Y15026D3*
Y16876D3*
X24121D3*
Y15026D3*
Y13176D3*
G36*
X18403Y15673D2*
X18208Y15796D1*
X17975Y15822D1*
X17755Y15745D1*
X17589Y15579D1*
X17512Y15359D1*
X17538Y15126D1*
X17661Y14931D1*
X18019Y14573D1*
X18214Y14450D1*
X18447Y14424D1*
X18667Y14501D1*
X18833Y14667D1*
X18910Y14887D1*
X18884Y15120D1*
X18761Y15315D1*
X18403Y15673D1*
G37*
G36*
X19712Y16981D2*
X19516Y17104D1*
X19283Y17130D1*
X19063Y17053D1*
X18897Y16888D1*
X18820Y16667D1*
X18846Y16434D1*
X18969Y16239D1*
X19327Y15881D1*
X19522Y15758D1*
X19755Y15732D1*
X19976Y15809D1*
X20141Y15975D1*
X20218Y16195D1*
X20192Y16428D1*
X20069Y16624D1*
X19712Y16981D1*
G37*
G36*
X21020Y18289D2*
X20824Y18412D1*
X20592Y18438D1*
X20371Y18361D1*
X20205Y18196D1*
X20128Y17975D1*
X20154Y17742D1*
X20277Y17547D1*
X20635Y17189D1*
X20830Y17066D1*
X21063Y17040D1*
X21284Y17117D1*
X21449Y17283D1*
X21526Y17504D1*
X21500Y17736D1*
X21377Y17932D1*
X21020Y18289D1*
G37*
G36*
X17484Y21825D2*
X17289Y21948D1*
X17056Y21974D1*
X16835Y21897D1*
X16670Y21731D1*
X16593Y21510D1*
X16619Y21278D1*
X16742Y21082D1*
X17099Y20725D1*
X17295Y20602D1*
X17527Y20576D1*
X17748Y20653D1*
X17914Y20818D1*
X17991Y21039D1*
X17965Y21272D1*
X17842Y21467D1*
X17484Y21825D1*
G37*
G36*
X16176Y20517D2*
X15980Y20640D1*
X15748Y20666D1*
X15527Y20588D1*
X15362Y20423D1*
X15284Y20202D1*
X15311Y19970D1*
X15434Y19774D1*
X15791Y19417D1*
X15987Y19294D1*
X16219Y19268D1*
X16440Y19345D1*
X16605Y19510D1*
X16683Y19731D1*
X16656Y19963D1*
X16534Y20159D1*
X16176Y20517D1*
G37*
G36*
X14868Y19209D2*
X14672Y19331D1*
X14440Y19358D1*
X14219Y19280D1*
X14054Y19115D1*
X13976Y18894D1*
X14003Y18662D1*
X14125Y18466D1*
X14483Y18109D1*
X14679Y17986D1*
X14911Y17959D1*
X15132Y18037D1*
X15297Y18202D1*
X15375Y18423D1*
X15348Y18655D1*
X15225Y18851D1*
X14868Y19209D1*
G37*
D63*
X13311Y23985D3*
X15161D3*
X17011D3*
Y28985D3*
X15161D3*
X13311D3*
G36*
X14125Y34138D2*
X14003Y33942D1*
X13976Y33710D1*
X14054Y33489D1*
X14219Y33323D1*
X14440Y33246D1*
X14672Y33272D1*
X14868Y33395D1*
X15225Y33753D1*
X15348Y33948D1*
X15375Y34181D1*
X15297Y34402D1*
X15132Y34567D1*
X14911Y34644D1*
X14679Y34618D1*
X14483Y34495D1*
X14125Y34138D1*
G37*
G36*
X15434Y32830D2*
X15311Y32634D1*
X15284Y32401D1*
X15362Y32181D1*
X15527Y32015D1*
X15748Y31938D1*
X15980Y31964D1*
X16176Y32087D1*
X16534Y32445D1*
X16656Y32640D1*
X16683Y32873D1*
X16605Y33094D1*
X16440Y33259D1*
X16219Y33336D1*
X15987Y33310D1*
X15791Y33187D1*
X15434Y32830D1*
G37*
G36*
X16742Y31521D2*
X16619Y31326D1*
X16593Y31093D1*
X16670Y30873D1*
X16835Y30707D1*
X17056Y30630D1*
X17289Y30656D1*
X17484Y30779D1*
X17842Y31137D1*
X17965Y31332D1*
X17991Y31565D1*
X17914Y31785D1*
X17748Y31951D1*
X17527Y32028D1*
X17295Y32002D1*
X17099Y31879D1*
X16742Y31521D1*
G37*
G36*
X20277Y35057D2*
X20154Y34861D1*
X20128Y34629D1*
X20205Y34408D1*
X20371Y34243D1*
X20592Y34165D1*
X20824Y34192D1*
X21020Y34315D1*
X21377Y34672D1*
X21500Y34868D1*
X21526Y35100D1*
X21449Y35321D1*
X21284Y35486D1*
X21063Y35564D1*
X20830Y35537D1*
X20635Y35415D1*
X20277Y35057D1*
G37*
G36*
X18969Y36365D2*
X18846Y36169D1*
X18820Y35937D1*
X18897Y35716D1*
X19063Y35551D1*
X19283Y35474D1*
X19516Y35500D1*
X19712Y35623D1*
X20069Y35980D1*
X20192Y36176D1*
X20218Y36408D1*
X20141Y36629D1*
X19976Y36794D1*
X19755Y36872D1*
X19522Y36846D1*
X19327Y36723D1*
X18969Y36365D1*
G37*
G36*
X17661Y37673D2*
X17538Y37478D1*
X17512Y37245D1*
X17589Y37024D1*
X17755Y36859D1*
X17975Y36782D1*
X18208Y36808D1*
X18403Y36931D1*
X18761Y37288D1*
X18884Y37484D1*
X18910Y37716D1*
X18833Y37937D1*
X18667Y38103D1*
X18447Y38180D1*
X18214Y38154D1*
X18019Y38031D1*
X17661Y37673D1*
G37*
D59*
X24121Y39794D3*
Y37944D3*
Y36094D3*
X29121D3*
Y37944D3*
Y39794D3*
G36*
X34130Y36931D2*
X34326Y36808D1*
X34558Y36782D1*
X34779Y36859D1*
X34944Y37024D1*
X35022Y37245D1*
X34996Y37478D1*
X34873Y37673D1*
X34515Y38031D1*
X34319Y38154D1*
X34087Y38180D1*
X33866Y38103D1*
X33701Y37937D1*
X33624Y37716D1*
X33650Y37484D1*
X33773Y37288D1*
X34130Y36931D1*
G37*
G36*
X32822Y35623D2*
X33018Y35500D1*
X33250Y35474D1*
X33471Y35551D1*
X33636Y35716D1*
X33714Y35937D1*
X33687Y36169D1*
X33564Y36365D1*
X33207Y36723D1*
X33011Y36846D1*
X32779Y36872D1*
X32558Y36794D1*
X32393Y36629D1*
X32315Y36408D1*
X32342Y36176D1*
X32465Y35980D1*
X32822Y35623D1*
G37*
G36*
X31514Y34314D2*
X31710Y34192D1*
X31942Y34165D1*
X32163Y34243D1*
X32328Y34408D1*
X32405Y34629D1*
X32379Y34861D1*
X32256Y35057D1*
X31899Y35414D1*
X31703Y35537D1*
X31471Y35564D1*
X31250Y35486D1*
X31085Y35321D1*
X31007Y35100D1*
X31033Y34868D1*
X31156Y34672D1*
X31514Y34314D1*
G37*
G36*
X35049Y30779D2*
X35245Y30656D1*
X35478Y30630D1*
X35698Y30707D1*
X35864Y30872D1*
X35941Y31093D1*
X35915Y31326D1*
X35792Y31521D1*
X35434Y31879D1*
X35239Y32002D1*
X35006Y32028D1*
X34785Y31951D1*
X34620Y31785D1*
X34543Y31565D1*
X34569Y31332D1*
X34692Y31136D1*
X35049Y30779D1*
G37*
G36*
X36358Y32087D2*
X36553Y31964D1*
X36786Y31938D1*
X37006Y32015D1*
X37172Y32181D1*
X37249Y32401D1*
X37223Y32634D1*
X37100Y32830D1*
X36742Y33187D1*
X36547Y33310D1*
X36314Y33336D1*
X36094Y33259D1*
X35928Y33094D1*
X35851Y32873D1*
X35877Y32640D1*
X36000Y32445D1*
X36358Y32087D1*
G37*
G36*
X37666Y33395D2*
X37861Y33272D1*
X38094Y33246D1*
X38315Y33323D1*
X38480Y33489D1*
X38557Y33710D1*
X38531Y33942D1*
X38408Y34138D1*
X38051Y34495D1*
X37855Y34618D1*
X37623Y34644D1*
X37402Y34567D1*
X37236Y34402D1*
X37159Y34181D1*
X37185Y33948D1*
X37308Y33753D1*
X37666Y33395D1*
G37*
G36*
X30764Y20284D2*
Y19434D1*
X29714D1*
Y20284D1*
X30764D1*
G37*
G36*
Y22484D2*
Y21634D1*
X29714D1*
Y22484D1*
X30764D1*
G37*
G36*
X23464D2*
Y21634D1*
X22414D1*
Y22484D1*
X23464D1*
G37*
G36*
Y20284D2*
Y19434D1*
X22414D1*
Y20284D1*
X23464D1*
G37*
G36*
X24714Y19984D2*
Y18434D1*
X23964D1*
Y19984D1*
X24714D1*
G37*
G36*
X26214D2*
Y18434D1*
X25464D1*
Y19984D1*
X26214D1*
G37*
G36*
X29214D2*
Y18434D1*
X28464D1*
Y19984D1*
X29214D1*
G37*
D48*
X25089Y20959D3*
X28089D3*
G36*
X37520Y40502D2*
X37397Y40306D1*
X37371Y40074D1*
X37449Y39853D1*
X37614Y39688D1*
X37835Y39610D1*
X38067Y39637D1*
X38263Y39760D1*
X38620Y40117D1*
X38743Y40313D1*
X38769Y40545D1*
X38692Y40766D1*
X38527Y40931D1*
X38306Y41009D1*
X38074Y40982D1*
X37878Y40860D1*
X37520Y40502D1*
G37*
G36*
X38829Y39194D2*
X38706Y38998D1*
X38679Y38766D1*
X38757Y38545D1*
X38922Y38380D1*
X39143Y38302D1*
X39375Y38328D1*
X39571Y38451D1*
X39928Y38809D1*
X40051Y39005D1*
X40078Y39237D1*
X40000Y39458D1*
X39835Y39623D1*
X39614Y39700D1*
X39382Y39674D1*
X39186Y39551D1*
X38829Y39194D1*
G37*
G36*
X40137Y37886D2*
X40014Y37690D1*
X39988Y37458D1*
X40065Y37237D1*
X40230Y37071D1*
X40451Y36994D1*
X40684Y37020D1*
X40879Y37143D1*
X41237Y37501D1*
X41360Y37696D1*
X41386Y37929D1*
X41309Y38150D1*
X41143Y38315D1*
X40922Y38392D1*
X40690Y38366D1*
X40494Y38243D1*
X40137Y37886D1*
G37*
G36*
X43672Y41421D2*
X43549Y41226D1*
X43523Y40993D1*
X43600Y40772D1*
X43766Y40607D1*
X43987Y40530D1*
X44219Y40556D1*
X44415Y40679D1*
X44772Y41036D1*
X44895Y41232D1*
X44921Y41464D1*
X44844Y41685D1*
X44679Y41851D1*
X44458Y41928D1*
X44225Y41902D1*
X44030Y41779D1*
X43672Y41421D1*
G37*
G36*
X42364Y42729D2*
X42241Y42534D1*
X42215Y42301D1*
X42292Y42080D1*
X42458Y41915D1*
X42678Y41838D1*
X42911Y41864D1*
X43106Y41987D1*
X43464Y42344D1*
X43587Y42540D1*
X43613Y42773D1*
X43536Y42993D1*
X43370Y43159D1*
X43150Y43236D1*
X42917Y43210D1*
X42722Y43087D1*
X42364Y42729D1*
G37*
G36*
X41056Y44037D2*
X40933Y43842D1*
X40907Y43609D1*
X40984Y43389D1*
X41149Y43223D1*
X41370Y43146D1*
X41603Y43172D1*
X41798Y43295D1*
X42156Y43653D1*
X42279Y43848D1*
X42305Y44081D1*
X42228Y44301D1*
X42062Y44467D1*
X41842Y44544D1*
X41609Y44518D1*
X41413Y44395D1*
X41056Y44037D1*
G37*
G36*
X44984Y46481D2*
X45107Y46677D1*
X45133Y46909D1*
X45056Y47130D1*
X44891Y47295D1*
X44670Y47373D1*
X44438Y47346D1*
X44242Y47224D1*
X43884Y46866D1*
X43761Y46670D1*
X43735Y46438D1*
X43813Y46217D1*
X43978Y46052D1*
X44199Y45974D1*
X44431Y46001D1*
X44627Y46124D1*
X44984Y46481D1*
G37*
G36*
X46292Y45173D2*
X46415Y45369D1*
X46442Y45601D1*
X46364Y45822D1*
X46199Y45987D1*
X45978Y46064D1*
X45746Y46038D1*
X45550Y45915D1*
X45193Y45558D1*
X45070Y45362D1*
X45043Y45130D1*
X45121Y44909D1*
X45286Y44744D1*
X45507Y44666D1*
X45739Y44692D1*
X45935Y44815D1*
X46292Y45173D1*
G37*
G36*
X47601Y43865D2*
X47724Y44060D1*
X47750Y44293D1*
X47673Y44514D1*
X47507Y44679D1*
X47286Y44756D1*
X47054Y44730D1*
X46858Y44607D1*
X46501Y44250D1*
X46378Y44054D1*
X46352Y43822D1*
X46429Y43601D1*
X46594Y43435D1*
X46815Y43358D1*
X47048Y43384D1*
X47243Y43507D1*
X47601Y43865D1*
G37*
G36*
X51136Y47400D2*
X51259Y47596D1*
X51285Y47828D1*
X51208Y48049D1*
X51043Y48215D1*
X50822Y48292D1*
X50589Y48266D1*
X50394Y48143D1*
X50036Y47785D1*
X49913Y47590D1*
X49887Y47357D1*
X49964Y47136D1*
X50130Y46971D1*
X50351Y46894D1*
X50583Y46920D1*
X50779Y47043D1*
X51136Y47400D1*
G37*
G36*
X49828Y48708D2*
X49951Y48904D1*
X49977Y49137D1*
X49900Y49357D1*
X49734Y49523D1*
X49514Y49600D1*
X49281Y49574D1*
X49086Y49451D1*
X48728Y49093D1*
X48605Y48898D1*
X48579Y48665D1*
X48656Y48444D1*
X48822Y48279D1*
X49042Y48202D1*
X49275Y48228D1*
X49470Y48351D1*
X49828Y48708D1*
G37*
G36*
X48520Y50017D2*
X48643Y50212D1*
X48669Y50445D1*
X48592Y50665D1*
X48426Y50831D1*
X48206Y50908D1*
X47973Y50882D1*
X47777Y50759D1*
X47420Y50401D1*
X47297Y50206D1*
X47271Y49973D1*
X47348Y49753D1*
X47513Y49587D1*
X47734Y49510D1*
X47967Y49536D1*
X48162Y49659D1*
X48520Y50017D1*
G37*
D59*
X41010Y47035D3*
Y48885D3*
Y50735D3*
X36010D3*
Y48885D3*
Y47035D3*
D63*
X47170Y35633D3*
X49020D3*
X50870D3*
Y40633D3*
X49020D3*
X47170D3*
D56*
X24118Y34220D3*
X25418D3*
D55*
X24435Y32308D3*
Y31008D3*
X20945Y31991D3*
Y30691D3*
X25271Y29769D3*
Y28469D3*
X22744Y29606D3*
Y28306D3*
D61*
X24001Y29614D3*
Y27914D3*
D54*
X23417Y32350D3*
X22917D3*
X22417D3*
X21917D3*
D53*
Y31850D3*
Y31350D3*
D54*
Y30850D3*
X22417D3*
X22917D3*
X23417D3*
D53*
Y31350D3*
Y31850D3*
D55*
X26130Y26785D3*
Y25485D3*
D49*
X28779Y44265D3*
M02*
