G04 DipTrace 2.4.0.2*
%INmale.gtp*%
%MOMM*%
%ADD19O,0.85X0.86*%
%ADD21O,0.96X0.973*%
%ADD23O,1.0X0.28*%
%ADD24O,0.28X1.0*%
%ADD28R,0.4X0.9*%
%ADD31O,1.0X1.5*%
%ADD32R,1.1X1.0*%
%ADD33R,1.0X1.1*%
%ADD34R,0.85X2.0*%
%ADD36O,1.5X1.0*%
%ADD39R,0.9X0.7*%
%ADD40R,0.7X0.9*%
%ADD41R,0.25X0.275*%
%ADD42R,0.275X0.25*%
%FSLAX53Y53*%
G04*
G71*
G90*
G75*
G01*
%LNTopPaste*%
%LPD*%
D19*
X32475Y26369D3*
D21*
X31736Y27142D3*
X31726Y25579D3*
X33270Y27132D3*
X33279Y25575D3*
D23*
X30446Y27615D3*
Y27115D3*
Y26615D3*
Y26115D3*
Y25615D3*
Y25115D3*
D24*
X31246Y24315D3*
X31746D3*
X32246D3*
X32746D3*
X33246D3*
X33746D3*
D23*
X34546Y25115D3*
Y25615D3*
Y26115D3*
Y26615D3*
Y27115D3*
Y27615D3*
D24*
X33746Y28415D3*
X33246D3*
X32746D3*
X32246D3*
X31746D3*
X31246D3*
D28*
X19077Y23665D3*
X20377D3*
X21677D3*
Y25865D3*
X20377D3*
X19077D3*
D31*
X39930Y28985D3*
X38080D3*
X36230D3*
Y23985D3*
X38080D3*
X39930D3*
D32*
X19547Y22230D3*
X21247D3*
D33*
X22859Y25603D3*
Y23903D3*
D34*
X19022Y27923D3*
X20722D3*
G36*
X38389Y18482D2*
X38507Y18670D1*
X38532Y18891D1*
X38458Y19101D1*
X38301Y19259D1*
X38091Y19332D1*
X37870Y19307D1*
X37681Y19189D1*
X37328Y18835D1*
X37210Y18647D1*
X37185Y18426D1*
X37258Y18216D1*
X37415Y18058D1*
X37625Y17985D1*
X37847Y18010D1*
X38035Y18128D1*
X38389Y18482D1*
G37*
G36*
X37080Y19790D2*
X37199Y19978D1*
X37224Y20199D1*
X37150Y20409D1*
X36993Y20567D1*
X36783Y20640D1*
X36562Y20615D1*
X36373Y20497D1*
X36020Y20143D1*
X35901Y19955D1*
X35876Y19734D1*
X35950Y19524D1*
X36107Y19367D1*
X36317Y19293D1*
X36538Y19318D1*
X36727Y19436D1*
X37080Y19790D1*
G37*
G36*
X35772Y21098D2*
X35891Y21286D1*
X35916Y21508D1*
X35842Y21718D1*
X35685Y21875D1*
X35475Y21948D1*
X35254Y21924D1*
X35065Y21805D1*
X34712Y21452D1*
X34593Y21263D1*
X34568Y21042D1*
X34642Y20832D1*
X34799Y20675D1*
X35009Y20601D1*
X35230Y20626D1*
X35419Y20744D1*
X35772Y21098D1*
G37*
G36*
X32237Y17562D2*
X32355Y17751D1*
X32380Y17972D1*
X32307Y18182D1*
X32149Y18339D1*
X31939Y18413D1*
X31718Y18388D1*
X31530Y18270D1*
X31176Y17916D1*
X31058Y17728D1*
X31033Y17506D1*
X31106Y17296D1*
X31264Y17139D1*
X31474Y17066D1*
X31695Y17091D1*
X31883Y17209D1*
X32237Y17562D1*
G37*
G36*
X33545Y16254D2*
X33663Y16443D1*
X33688Y16664D1*
X33615Y16874D1*
X33457Y17031D1*
X33247Y17105D1*
X33026Y17080D1*
X32838Y16961D1*
X32484Y16608D1*
X32366Y16419D1*
X32341Y16198D1*
X32414Y15988D1*
X32572Y15831D1*
X32782Y15757D1*
X33003Y15782D1*
X33191Y15901D1*
X33545Y16254D1*
G37*
G36*
X34853Y14946D2*
X34971Y15135D1*
X34996Y15356D1*
X34923Y15566D1*
X34766Y15723D1*
X34555Y15797D1*
X34334Y15772D1*
X34146Y15653D1*
X33792Y15300D1*
X33674Y15111D1*
X33649Y14890D1*
X33723Y14680D1*
X33880Y14523D1*
X34090Y14449D1*
X34311Y14474D1*
X34499Y14593D1*
X34853Y14946D1*
G37*
D36*
X29121Y13176D3*
Y15026D3*
Y16876D3*
X24121D3*
Y15026D3*
Y13176D3*
G36*
X18388Y15653D2*
X18199Y15772D1*
X17978Y15797D1*
X17768Y15723D1*
X17611Y15566D1*
X17537Y15356D1*
X17562Y15135D1*
X17681Y14946D1*
X18034Y14593D1*
X18223Y14474D1*
X18444Y14449D1*
X18654Y14523D1*
X18811Y14680D1*
X18885Y14890D1*
X18860Y15111D1*
X18741Y15300D1*
X18388Y15653D1*
G37*
G36*
X19696Y16961D2*
X19507Y17080D1*
X19286Y17105D1*
X19076Y17031D1*
X18919Y16874D1*
X18845Y16664D1*
X18870Y16443D1*
X18989Y16254D1*
X19342Y15901D1*
X19531Y15782D1*
X19752Y15757D1*
X19962Y15831D1*
X20119Y15988D1*
X20193Y16198D1*
X20168Y16419D1*
X20049Y16608D1*
X19696Y16961D1*
G37*
G36*
X21004Y18270D2*
X20816Y18388D1*
X20594Y18413D1*
X20384Y18339D1*
X20227Y18182D1*
X20154Y17972D1*
X20179Y17751D1*
X20297Y17563D1*
X20650Y17209D1*
X20839Y17091D1*
X21060Y17066D1*
X21270Y17139D1*
X21427Y17296D1*
X21501Y17507D1*
X21476Y17728D1*
X21358Y17916D1*
X21004Y18270D1*
G37*
G36*
X17468Y21805D2*
X17280Y21924D1*
X17059Y21948D1*
X16849Y21875D1*
X16692Y21718D1*
X16618Y21508D1*
X16643Y21286D1*
X16761Y21098D1*
X17115Y20744D1*
X17303Y20626D1*
X17524Y20601D1*
X17735Y20675D1*
X17892Y20832D1*
X17965Y21042D1*
X17940Y21263D1*
X17822Y21452D1*
X17468Y21805D1*
G37*
G36*
X16160Y20497D2*
X15972Y20615D1*
X15751Y20640D1*
X15541Y20567D1*
X15383Y20409D1*
X15310Y20199D1*
X15335Y19978D1*
X15453Y19790D1*
X15807Y19436D1*
X15995Y19318D1*
X16216Y19293D1*
X16426Y19367D1*
X16584Y19524D1*
X16657Y19734D1*
X16632Y19955D1*
X16514Y20143D1*
X16160Y20497D1*
G37*
G36*
X14852Y19189D2*
X14664Y19307D1*
X14443Y19332D1*
X14233Y19259D1*
X14075Y19101D1*
X14002Y18891D1*
X14027Y18670D1*
X14145Y18482D1*
X14499Y18128D1*
X14687Y18010D1*
X14908Y17985D1*
X15118Y18058D1*
X15276Y18216D1*
X15349Y18426D1*
X15324Y18647D1*
X15206Y18835D1*
X14852Y19189D1*
G37*
D31*
X13311Y23985D3*
X15161D3*
X17011D3*
Y28985D3*
X15161D3*
X13311D3*
G36*
X14145Y34122D2*
X14027Y33934D1*
X14002Y33712D1*
X14075Y33502D1*
X14233Y33345D1*
X14443Y33272D1*
X14664Y33297D1*
X14852Y33415D1*
X15206Y33768D1*
X15324Y33957D1*
X15349Y34178D1*
X15276Y34388D1*
X15118Y34545D1*
X14908Y34619D1*
X14687Y34594D1*
X14499Y34476D1*
X14145Y34122D1*
G37*
G36*
X15453Y32814D2*
X15335Y32625D1*
X15310Y32404D1*
X15383Y32194D1*
X15541Y32037D1*
X15751Y31963D1*
X15972Y31988D1*
X16160Y32107D1*
X16514Y32460D1*
X16632Y32649D1*
X16657Y32870D1*
X16584Y33080D1*
X16426Y33237D1*
X16216Y33311D1*
X15995Y33286D1*
X15807Y33167D1*
X15453Y32814D1*
G37*
G36*
X16761Y31506D2*
X16643Y31317D1*
X16618Y31096D1*
X16692Y30886D1*
X16849Y30729D1*
X17059Y30655D1*
X17280Y30680D1*
X17469Y30799D1*
X17822Y31152D1*
X17940Y31341D1*
X17965Y31562D1*
X17892Y31772D1*
X17735Y31929D1*
X17525Y32003D1*
X17303Y31978D1*
X17115Y31859D1*
X16761Y31506D1*
G37*
G36*
X20297Y35041D2*
X20179Y34853D1*
X20154Y34632D1*
X20227Y34422D1*
X20384Y34264D1*
X20595Y34191D1*
X20816Y34216D1*
X21004Y34334D1*
X21358Y34688D1*
X21476Y34876D1*
X21501Y35097D1*
X21427Y35307D1*
X21270Y35465D1*
X21060Y35538D1*
X20839Y35513D1*
X20651Y35395D1*
X20297Y35041D1*
G37*
G36*
X18989Y36349D2*
X18870Y36161D1*
X18845Y35940D1*
X18919Y35730D1*
X19076Y35573D1*
X19286Y35499D1*
X19507Y35524D1*
X19696Y35642D1*
X20049Y35996D1*
X20168Y36184D1*
X20193Y36405D1*
X20119Y36615D1*
X19962Y36773D1*
X19752Y36846D1*
X19531Y36821D1*
X19342Y36703D1*
X18989Y36349D1*
G37*
G36*
X17681Y37658D2*
X17562Y37469D1*
X17537Y37248D1*
X17611Y37038D1*
X17768Y36881D1*
X17978Y36807D1*
X18199Y36832D1*
X18388Y36950D1*
X18741Y37304D1*
X18860Y37492D1*
X18885Y37714D1*
X18811Y37924D1*
X18654Y38081D1*
X18444Y38154D1*
X18223Y38130D1*
X18034Y38011D1*
X17681Y37658D1*
G37*
D36*
X24121Y39794D3*
Y37944D3*
Y36094D3*
X29121D3*
Y37944D3*
Y39794D3*
G36*
X34146Y36950D2*
X34334Y36832D1*
X34555Y36807D1*
X34765Y36881D1*
X34923Y37038D1*
X34996Y37248D1*
X34971Y37469D1*
X34853Y37658D1*
X34499Y38011D1*
X34311Y38130D1*
X34090Y38154D1*
X33880Y38081D1*
X33723Y37924D1*
X33649Y37714D1*
X33674Y37492D1*
X33792Y37304D1*
X34146Y36950D1*
G37*
G36*
X32838Y35642D2*
X33026Y35524D1*
X33247Y35499D1*
X33457Y35573D1*
X33615Y35730D1*
X33688Y35940D1*
X33663Y36161D1*
X33545Y36349D1*
X33191Y36703D1*
X33003Y36821D1*
X32782Y36846D1*
X32572Y36773D1*
X32414Y36615D1*
X32341Y36405D1*
X32366Y36184D1*
X32484Y35996D1*
X32838Y35642D1*
G37*
G36*
X31530Y34334D2*
X31718Y34216D1*
X31939Y34191D1*
X32149Y34264D1*
X32307Y34422D1*
X32380Y34632D1*
X32355Y34853D1*
X32237Y35041D1*
X31883Y35395D1*
X31695Y35513D1*
X31474Y35538D1*
X31264Y35465D1*
X31106Y35307D1*
X31033Y35097D1*
X31058Y34876D1*
X31176Y34688D1*
X31530Y34334D1*
G37*
G36*
X35065Y30799D2*
X35254Y30680D1*
X35475Y30655D1*
X35685Y30729D1*
X35842Y30886D1*
X35916Y31096D1*
X35891Y31317D1*
X35772Y31506D1*
X35419Y31859D1*
X35230Y31978D1*
X35009Y32003D1*
X34799Y31929D1*
X34642Y31772D1*
X34568Y31562D1*
X34593Y31341D1*
X34712Y31152D1*
X35065Y30799D1*
G37*
G36*
X36373Y32107D2*
X36562Y31988D1*
X36783Y31963D1*
X36993Y32037D1*
X37150Y32194D1*
X37224Y32404D1*
X37199Y32625D1*
X37080Y32814D1*
X36727Y33167D1*
X36538Y33286D1*
X36317Y33311D1*
X36107Y33237D1*
X35950Y33080D1*
X35876Y32870D1*
X35901Y32649D1*
X36020Y32460D1*
X36373Y32107D1*
G37*
G36*
X37681Y33415D2*
X37870Y33297D1*
X38091Y33272D1*
X38301Y33345D1*
X38458Y33502D1*
X38532Y33712D1*
X38507Y33934D1*
X38389Y34122D1*
X38035Y34476D1*
X37847Y34594D1*
X37625Y34619D1*
X37415Y34545D1*
X37258Y34388D1*
X37185Y34178D1*
X37209Y33957D1*
X37328Y33768D1*
X37681Y33415D1*
G37*
G36*
X30739Y20259D2*
Y19459D1*
X29739D1*
Y20259D1*
X30739D1*
G37*
G36*
Y22459D2*
Y21659D1*
X29739D1*
Y22459D1*
X30739D1*
G37*
G36*
X23439D2*
Y21659D1*
X22439D1*
Y22459D1*
X23439D1*
G37*
G36*
Y20259D2*
Y19459D1*
X22439D1*
Y20259D1*
X23439D1*
G37*
G36*
X24689Y19959D2*
Y18459D1*
X23989D1*
Y19959D1*
X24689D1*
G37*
G36*
X26189D2*
Y18459D1*
X25489D1*
Y19959D1*
X26189D1*
G37*
G36*
X29189D2*
Y18459D1*
X28489D1*
Y19959D1*
X29189D1*
G37*
G36*
X37540Y40486D2*
X37422Y40298D1*
X37397Y40077D1*
X37470Y39867D1*
X37628Y39709D1*
X37838Y39636D1*
X38059Y39661D1*
X38247Y39779D1*
X38601Y40133D1*
X38719Y40321D1*
X38744Y40542D1*
X38671Y40752D1*
X38513Y40910D1*
X38303Y40983D1*
X38082Y40958D1*
X37894Y40840D1*
X37540Y40486D1*
G37*
G36*
X38848Y39178D2*
X38730Y38990D1*
X38705Y38769D1*
X38778Y38559D1*
X38936Y38401D1*
X39146Y38328D1*
X39367Y38353D1*
X39555Y38471D1*
X39909Y38825D1*
X40027Y39013D1*
X40052Y39234D1*
X39979Y39444D1*
X39821Y39602D1*
X39611Y39675D1*
X39390Y39650D1*
X39202Y39532D1*
X38848Y39178D1*
G37*
G36*
X40156Y37870D2*
X40038Y37682D1*
X40013Y37460D1*
X40087Y37250D1*
X40244Y37093D1*
X40454Y37020D1*
X40675Y37045D1*
X40863Y37163D1*
X41217Y37516D1*
X41335Y37705D1*
X41360Y37926D1*
X41287Y38136D1*
X41129Y38293D1*
X40919Y38367D1*
X40698Y38342D1*
X40510Y38224D1*
X40156Y37870D1*
G37*
G36*
X43692Y41406D2*
X43573Y41217D1*
X43549Y40996D1*
X43622Y40786D1*
X43779Y40629D1*
X43989Y40555D1*
X44211Y40580D1*
X44399Y40698D1*
X44753Y41052D1*
X44871Y41240D1*
X44896Y41462D1*
X44822Y41672D1*
X44665Y41829D1*
X44455Y41902D1*
X44234Y41878D1*
X44045Y41759D1*
X43692Y41406D1*
G37*
G36*
X42384Y42714D2*
X42265Y42525D1*
X42240Y42304D1*
X42314Y42094D1*
X42471Y41937D1*
X42681Y41863D1*
X42902Y41888D1*
X43091Y42007D1*
X43444Y42360D1*
X43563Y42549D1*
X43588Y42770D1*
X43514Y42980D1*
X43357Y43137D1*
X43147Y43211D1*
X42926Y43186D1*
X42737Y43067D1*
X42384Y42714D1*
G37*
G36*
X41076Y44022D2*
X40957Y43833D1*
X40932Y43612D1*
X41006Y43402D1*
X41163Y43245D1*
X41373Y43171D1*
X41594Y43196D1*
X41783Y43315D1*
X42136Y43668D1*
X42255Y43857D1*
X42280Y44078D1*
X42206Y44288D1*
X42049Y44445D1*
X41839Y44519D1*
X41618Y44494D1*
X41429Y44375D1*
X41076Y44022D1*
G37*
G36*
X44965Y46497D2*
X45083Y46685D1*
X45108Y46906D1*
X45035Y47116D1*
X44877Y47274D1*
X44667Y47347D1*
X44446Y47322D1*
X44258Y47204D1*
X43904Y46850D1*
X43786Y46662D1*
X43761Y46441D1*
X43834Y46231D1*
X43992Y46073D1*
X44202Y46000D1*
X44423Y46025D1*
X44611Y46143D1*
X44965Y46497D1*
G37*
G36*
X46273Y45189D2*
X46391Y45377D1*
X46416Y45598D1*
X46343Y45808D1*
X46185Y45966D1*
X45975Y46039D1*
X45754Y46014D1*
X45566Y45896D1*
X45212Y45542D1*
X45094Y45354D1*
X45069Y45133D1*
X45142Y44923D1*
X45300Y44765D1*
X45510Y44692D1*
X45731Y44717D1*
X45919Y44835D1*
X46273Y45189D1*
G37*
G36*
X47581Y43880D2*
X47699Y44069D1*
X47724Y44290D1*
X47651Y44500D1*
X47493Y44657D1*
X47283Y44731D1*
X47062Y44706D1*
X46874Y44588D1*
X46520Y44234D1*
X46402Y44046D1*
X46377Y43824D1*
X46451Y43614D1*
X46608Y43457D1*
X46818Y43384D1*
X47039Y43409D1*
X47227Y43527D1*
X47581Y43880D1*
G37*
G36*
X51117Y47416D2*
X51235Y47604D1*
X51260Y47826D1*
X51186Y48036D1*
X51029Y48193D1*
X50819Y48266D1*
X50598Y48242D1*
X50409Y48123D1*
X50056Y47770D1*
X49937Y47581D1*
X49913Y47360D1*
X49986Y47150D1*
X50143Y46993D1*
X50353Y46919D1*
X50575Y46944D1*
X50763Y47062D1*
X51117Y47416D1*
G37*
G36*
X49808Y48724D2*
X49927Y48913D1*
X49952Y49134D1*
X49878Y49344D1*
X49721Y49501D1*
X49511Y49575D1*
X49290Y49550D1*
X49101Y49431D1*
X48748Y49078D1*
X48629Y48889D1*
X48604Y48668D1*
X48678Y48458D1*
X48835Y48301D1*
X49045Y48227D1*
X49266Y48252D1*
X49455Y48371D1*
X49808Y48724D1*
G37*
G36*
X48500Y50032D2*
X48619Y50221D1*
X48644Y50442D1*
X48570Y50652D1*
X48413Y50809D1*
X48203Y50883D1*
X47982Y50858D1*
X47793Y50739D1*
X47440Y50386D1*
X47321Y50197D1*
X47296Y49976D1*
X47370Y49766D1*
X47527Y49609D1*
X47737Y49535D1*
X47958Y49560D1*
X48147Y49679D1*
X48500Y50032D1*
G37*
D36*
X41010Y47035D3*
Y48885D3*
Y50735D3*
X36010D3*
Y48885D3*
Y47035D3*
D31*
X47170Y35633D3*
X49020D3*
X50870D3*
Y40633D3*
X49020D3*
X47170D3*
D39*
X24118Y34220D3*
X25418D3*
D40*
X24435Y32308D3*
Y31008D3*
X20945Y31991D3*
Y30691D3*
X25271Y29769D3*
Y28469D3*
X22744Y29606D3*
Y28306D3*
D33*
X24001Y29614D3*
Y27914D3*
D41*
X23417Y32350D3*
X22917D3*
X22417D3*
X21917D3*
D42*
Y31850D3*
Y31350D3*
D41*
Y30850D3*
X22417D3*
X22917D3*
X23417D3*
D42*
Y31350D3*
Y31850D3*
D40*
X26130Y26785D3*
Y25485D3*
M02*
