G04 DipTrace 2.4.0.2*
%INmale.gbl*%
%MOMM*%
%ADD13C,0.508*%
%ADD15C,0.254*%
%ADD16C,0.305*%
%ADD18C,0.152*%
%ADD25C,0.711*%
%ADD37R,2.6X5.08*%
%ADD38R,8.0X5.08*%
%ADD43C,2.0*%
%ADD45C,0.711*%
%FSLAX53Y53*%
G04*
G71*
G90*
G75*
G01*
%LNBottom*%
%LPD*%
X23621Y18798D2*
D13*
X23429D1*
X20129Y22097D1*
X23341Y29645D2*
X19268D1*
X19196Y29573D1*
X15780Y27784D2*
Y28979D1*
X12907Y31852D1*
X12465Y32294D1*
X26024Y24464D2*
X26620Y25060D1*
Y26485D1*
X32496Y26365D2*
X26740D1*
X26620Y26485D1*
X32496Y26365D2*
X31596D1*
Y27265D1*
X32496D1*
X33396D1*
Y26365D1*
Y25465D1*
X32496D1*
X31596D1*
X22166Y23698D2*
X23834D1*
X26620Y26485D1*
X29486Y25920D2*
X27186D1*
X26620Y26485D1*
X31596Y26365D2*
X29932D1*
X29486Y25920D1*
X32496Y26365D2*
Y27265D1*
X27400D1*
X26620Y26485D1*
X32496Y25465D2*
X27640D1*
X26620Y26485D1*
X32496Y25465D2*
Y26365D1*
X23235Y27836D2*
X25270D1*
X26620Y26485D1*
X21888Y39711D2*
X21446Y40153D1*
X21888Y39711D2*
Y36135D1*
X22725Y35299D1*
X26365Y32098D2*
D15*
X25926D1*
X25219Y31391D1*
Y30919D1*
Y30590D1*
X25815Y29994D1*
X27983D1*
X28260Y29717D1*
X14536Y34317D2*
X17500D1*
X20518Y31299D1*
X20563D1*
X20993Y30869D1*
Y30740D1*
X25398D1*
X25219Y30919D1*
X14536Y34317D2*
D13*
X14094Y34759D1*
X32403Y29978D2*
D16*
Y32451D1*
X31709Y33145D1*
X29386D1*
X28637Y32396D1*
X19021Y38487D2*
D15*
Y34515D1*
X21870Y31666D1*
X24204D1*
X25730Y33191D1*
X27841D1*
X28637Y32396D1*
X19021Y38487D2*
D13*
X18579Y38929D1*
X16422Y36725D2*
X15980Y37167D1*
X29959Y29562D2*
D15*
X29712D1*
X28842Y30433D1*
X27516D1*
X27143Y30806D1*
Y32339D1*
X26708Y32774D1*
X25983D1*
X25237Y32028D1*
Y31987D1*
X24470Y31220D1*
X23112D1*
X23091Y31241D1*
X21513D1*
X16029Y36725D1*
X16422D1*
X40260Y26485D2*
D13*
X38541D1*
X30476Y18421D1*
X28240D1*
X26445Y20215D1*
X26663D1*
X26596D1*
X26056Y19676D1*
X24203D1*
X19817Y24062D1*
X15404D1*
X12980Y26485D1*
X37407Y46948D2*
X42139D1*
X42322Y46764D1*
X43747D1*
X47100Y43411D1*
Y36979D1*
X47284Y36795D1*
X48662Y36703D2*
Y43870D1*
X43747Y48786D1*
X37636D1*
X37453Y48602D1*
X23868Y32435D2*
D15*
Y32347D1*
X24241D1*
X25507Y33613D1*
X31861D1*
X34310Y31164D1*
Y30100D1*
X34171Y29961D1*
X33090Y29407D2*
X33256D1*
X33755Y28907D1*
X34865D1*
X35558Y29601D1*
Y31292D1*
X35392Y31459D1*
X35308D1*
X30289Y36478D1*
X27803D1*
X24939D1*
X21992Y33531D1*
X27803Y36478D2*
D13*
Y38624D1*
X28198Y38229D1*
D45*
X26024Y24464D3*
X29959Y29562D3*
X15780Y27784D3*
X22725Y35299D3*
X26365Y32098D3*
X28637Y32396D3*
X32403Y29978D3*
X28260Y29717D3*
X29486Y25920D3*
X20129Y22097D3*
X19985Y19733D3*
X22166Y23698D3*
X23621Y18798D3*
X26663Y20215D3*
X37453Y48602D3*
X37407Y46948D3*
X47284Y36795D3*
X48662Y36703D3*
X23868Y32435D3*
X21992Y33531D3*
X23341Y29645D3*
X23235Y27836D3*
X34171Y29961D3*
X33090Y29407D3*
X19196Y29573D3*
X35373Y51635D2*
D18*
X51904D1*
X35373Y51486D2*
X51904D1*
X35373Y51337D2*
X51904D1*
X35373Y51188D2*
X51904D1*
X35373Y51039D2*
X51904D1*
X35373Y50890D2*
X51904D1*
X35373Y50740D2*
X51904D1*
X35373Y50591D2*
X51904D1*
X35373Y50442D2*
X51904D1*
X35373Y50293D2*
X51904D1*
X35373Y50144D2*
X51904D1*
X35373Y49995D2*
X51904D1*
X35373Y49846D2*
X51904D1*
X35373Y49697D2*
X51904D1*
X35373Y49548D2*
X51904D1*
X35373Y49399D2*
X51904D1*
X35373Y49250D2*
X51904D1*
X35373Y49101D2*
X37174D1*
X44100D2*
X51904D1*
X35373Y48952D2*
X36995D1*
X44250D2*
X51904D1*
X35373Y48803D2*
X36909D1*
X44400D2*
X51904D1*
X35373Y48654D2*
X36876D1*
X44548D2*
X51904D1*
X35373Y48504D2*
X36881D1*
X44698D2*
X51904D1*
X35373Y48355D2*
X36928D1*
X44846D2*
X51904D1*
X35373Y48206D2*
X37036D1*
X37871D2*
X43655D1*
X44996D2*
X51904D1*
X35373Y48057D2*
X37288D1*
X37616D2*
X43805D1*
X45146D2*
X51904D1*
X35373Y47908D2*
X43953D1*
X45293D2*
X51904D1*
X35373Y47759D2*
X44103D1*
X45443D2*
X51904D1*
X35373Y47610D2*
X44253D1*
X45591D2*
X51904D1*
X35373Y47461D2*
X37157D1*
X37657D2*
X44401D1*
X45741D2*
X51904D1*
X35373Y47312D2*
X36959D1*
X42440D2*
X44551D1*
X45891D2*
X51904D1*
X35373Y47163D2*
X36869D1*
X43998D2*
X44698D1*
X46039D2*
X51904D1*
X35373Y47014D2*
X36831D1*
X44167D2*
X44848D1*
X46189D2*
X51904D1*
X35373Y46865D2*
X36833D1*
X44317D2*
X44998D1*
X46336D2*
X51904D1*
X35373Y46716D2*
X36876D1*
X44465D2*
X45146D1*
X46486D2*
X51904D1*
X35373Y46567D2*
X36976D1*
X44615D2*
X45296D1*
X46636D2*
X51904D1*
X35373Y46418D2*
X37197D1*
X44762D2*
X45444D1*
X46784D2*
X51904D1*
X42693Y46268D2*
X43572D1*
X44912D2*
X45594D1*
X46934D2*
X51904D1*
X42538Y46119D2*
X43722D1*
X45062D2*
X45744D1*
X47082D2*
X51904D1*
X42386Y45970D2*
X43870D1*
X45210D2*
X45891D1*
X47232D2*
X51904D1*
X42231Y45821D2*
X44020D1*
X45360D2*
X46041D1*
X47382D2*
X51904D1*
X42079Y45672D2*
X44167D1*
X45508D2*
X46189D1*
X47529D2*
X51904D1*
X41924Y45523D2*
X44317D1*
X45658D2*
X46339D1*
X47679D2*
X51904D1*
X41771Y45374D2*
X44467D1*
X45808D2*
X46489D1*
X47827D2*
X51904D1*
X41619Y45225D2*
X44615D1*
X45955D2*
X46637D1*
X47977D2*
X51904D1*
X41464Y45076D2*
X44765D1*
X46105D2*
X46787D1*
X48127D2*
X51904D1*
X41312Y44927D2*
X44913D1*
X46253D2*
X46934D1*
X48275D2*
X51904D1*
X41157Y44778D2*
X45063D1*
X46403D2*
X47084D1*
X48425D2*
X51904D1*
X41005Y44629D2*
X45213D1*
X46553D2*
X47234D1*
X48572D2*
X51904D1*
X40850Y44480D2*
X45360D1*
X46701D2*
X47382D1*
X48722D2*
X51904D1*
X40697Y44331D2*
X45510D1*
X46851D2*
X47532D1*
X48872D2*
X51904D1*
X40545Y44182D2*
X45658D1*
X46998D2*
X47680D1*
X49020D2*
X51904D1*
X40390Y44032D2*
X45808D1*
X47148D2*
X47830D1*
X49110D2*
X51904D1*
X40238Y43883D2*
X45958D1*
X47298D2*
X47980D1*
X49139D2*
X51904D1*
X40083Y43734D2*
X46106D1*
X47446D2*
X48127D1*
X49141D2*
X51904D1*
X39931Y43585D2*
X46256D1*
X47544D2*
X48185D1*
X49141D2*
X51904D1*
X39776Y43436D2*
X46403D1*
X47577D2*
X48185D1*
X49141D2*
X51904D1*
X39623Y43287D2*
X46553D1*
X47579D2*
X48185D1*
X49141D2*
X51904D1*
X39471Y43138D2*
X46622D1*
X47579D2*
X48185D1*
X49141D2*
X51904D1*
X39316Y42989D2*
X46622D1*
X47579D2*
X48185D1*
X49141D2*
X51904D1*
X26353Y42840D2*
X26568D1*
X39164D2*
X46622D1*
X47579D2*
X48185D1*
X49141D2*
X51904D1*
X26238Y42691D2*
X26670D1*
X30887D2*
X30994D1*
X39009D2*
X46622D1*
X47579D2*
X48185D1*
X49141D2*
X51904D1*
X26124Y42542D2*
X26791D1*
X30768D2*
X31087D1*
X38857D2*
X46389D1*
X46524D2*
X46622D1*
X47579D2*
X48185D1*
X49141D2*
X51904D1*
X26010Y42393D2*
X26932D1*
X30627D2*
X31178D1*
X38702D2*
X46244D1*
X47579D2*
X48185D1*
X49141D2*
X51904D1*
X25896Y42244D2*
X27099D1*
X30460D2*
X31271D1*
X38550D2*
X46099D1*
X47579D2*
X48185D1*
X49141D2*
X51904D1*
X25726Y42095D2*
X27299D1*
X30260D2*
X31385D1*
X38397D2*
X45953D1*
X47579D2*
X48185D1*
X49141D2*
X51904D1*
X25543Y41946D2*
X27549D1*
X30010D2*
X31523D1*
X38242D2*
X45808D1*
X47579D2*
X48185D1*
X49141D2*
X51904D1*
X25360Y41796D2*
X27889D1*
X29670D2*
X31663D1*
X38090D2*
X45663D1*
X47579D2*
X48185D1*
X49141D2*
X51904D1*
X25176Y41647D2*
X28677D1*
X28882D2*
X31802D1*
X37935D2*
X45520D1*
X47579D2*
X48185D1*
X49141D2*
X51904D1*
X24960Y41498D2*
X32002D1*
X37783D2*
X45375D1*
X47579D2*
X48185D1*
X49141D2*
X51904D1*
X24650Y41349D2*
X32211D1*
X37628D2*
X45229D1*
X47579D2*
X48185D1*
X49141D2*
X51904D1*
X24343Y41200D2*
X32421D1*
X37476D2*
X45084D1*
X47579D2*
X48185D1*
X49141D2*
X51904D1*
X23976Y41051D2*
X27484D1*
X28603D2*
X32754D1*
X37321D2*
X44939D1*
X47579D2*
X48185D1*
X49141D2*
X51904D1*
X23298Y40902D2*
X26801D1*
X27367D2*
X27491D1*
X28708D2*
X33083D1*
X37168D2*
X44796D1*
X47579D2*
X48185D1*
X49141D2*
X51904D1*
X22571Y40753D2*
X26646D1*
X27429D2*
X27556D1*
X29358D2*
X33380D1*
X37016D2*
X44651D1*
X47579D2*
X48185D1*
X49141D2*
X51904D1*
X22719Y40604D2*
X26520D1*
X27491D2*
X27618D1*
X29482D2*
X33678D1*
X36861D2*
X44506D1*
X47579D2*
X48185D1*
X49141D2*
X51904D1*
X19878Y40455D2*
X20260D1*
X22869D2*
X26415D1*
X27553D2*
X27680D1*
X29606D2*
X33976D1*
X36709D2*
X44360D1*
X47579D2*
X48185D1*
X49141D2*
X51904D1*
X19509Y40306D2*
X20231D1*
X23017D2*
X26420D1*
X27615D2*
X27742D1*
X29727D2*
X34276D1*
X36554D2*
X44215D1*
X47579D2*
X48185D1*
X49141D2*
X51904D1*
X19190Y40157D2*
X20222D1*
X23167D2*
X26479D1*
X27677D2*
X27806D1*
X29760D2*
X34573D1*
X36402D2*
X44070D1*
X47579D2*
X48185D1*
X49141D2*
X51904D1*
X19140Y40008D2*
X20231D1*
X23260D2*
X26537D1*
X27746D2*
X27868D1*
X29665D2*
X34871D1*
X36247D2*
X43927D1*
X47579D2*
X48185D1*
X49141D2*
X51904D1*
X19366Y39859D2*
X20257D1*
X23226D2*
X26596D1*
X27827D2*
X27929D1*
X29560D2*
X35169D1*
X36094D2*
X43782D1*
X47579D2*
X48185D1*
X49141D2*
X51904D1*
X19523Y39710D2*
X20305D1*
X23081D2*
X26653D1*
X27908D2*
X27992D1*
X29520D2*
X35466D1*
X35942D2*
X43636D1*
X47579D2*
X48185D1*
X49141D2*
X51904D1*
X19673Y39560D2*
X20376D1*
X22933D2*
X26415D1*
X29534D2*
X43491D1*
X47579D2*
X48185D1*
X49141D2*
X51904D1*
X19821Y39411D2*
X20476D1*
X22783D2*
X26394D1*
X29596D2*
X43346D1*
X47579D2*
X48185D1*
X49141D2*
X51904D1*
X19971Y39262D2*
X20612D1*
X22633D2*
X26394D1*
X29746D2*
X43203D1*
X47579D2*
X48185D1*
X49141D2*
X51904D1*
X20119Y39113D2*
X20760D1*
X22486D2*
X26394D1*
X29872D2*
X43058D1*
X47579D2*
X48185D1*
X49141D2*
X51904D1*
X20269Y38964D2*
X20910D1*
X22336D2*
X26394D1*
X29925D2*
X42912D1*
X47579D2*
X48185D1*
X49141D2*
X51904D1*
X20385Y38815D2*
X21060D1*
X22188D2*
X26394D1*
X29977D2*
X42767D1*
X47579D2*
X48185D1*
X49141D2*
X51904D1*
X20376Y38666D2*
X21207D1*
X22038D2*
X26394D1*
X30001D2*
X42622D1*
X47579D2*
X48185D1*
X49141D2*
X51904D1*
X20245Y38517D2*
X21357D1*
X21888D2*
X26394D1*
X29991D2*
X42477D1*
X47579D2*
X48185D1*
X49141D2*
X51904D1*
X20097Y38368D2*
X21529D1*
X21716D2*
X26394D1*
X29982D2*
X42334D1*
X47579D2*
X48185D1*
X49141D2*
X51904D1*
X19947Y38219D2*
X26394D1*
X29965D2*
X42189D1*
X47579D2*
X48185D1*
X49141D2*
X51904D1*
X19797Y38070D2*
X26394D1*
X29937D2*
X42043D1*
X47579D2*
X48185D1*
X49141D2*
X51904D1*
X19650Y37921D2*
X26394D1*
X29906D2*
X41898D1*
X47579D2*
X48185D1*
X49141D2*
X51904D1*
X19500Y37772D2*
X26394D1*
X29875D2*
X41753D1*
X47579D2*
X48185D1*
X49141D2*
X51904D1*
X19371Y37623D2*
X26394D1*
X29844D2*
X41610D1*
X47579D2*
X48185D1*
X49141D2*
X51904D1*
X19371Y37474D2*
X26394D1*
X29808D2*
X41465D1*
X47579D2*
X48185D1*
X49141D2*
X51904D1*
X19371Y37324D2*
X26394D1*
X29748D2*
X41319D1*
X47579D2*
X48185D1*
X49141D2*
X51904D1*
X19371Y37175D2*
X26394D1*
X29689D2*
X41174D1*
X47717D2*
X48185D1*
X49141D2*
X51904D1*
X19371Y37026D2*
X26394D1*
X29608D2*
X41029D1*
X47815D2*
X48185D1*
X49141D2*
X51904D1*
X19371Y36877D2*
X26394D1*
X29525D2*
X40884D1*
X46548D2*
X46634D1*
X47858D2*
X48111D1*
X49215D2*
X51904D1*
X19371Y36728D2*
X24701D1*
X30529D2*
X40741D1*
X46548D2*
X46696D1*
X47860D2*
X48082D1*
X49241D2*
X51904D1*
X19371Y36579D2*
X24551D1*
X30679D2*
X40596D1*
X46548D2*
X46746D1*
X47820D2*
X48096D1*
X49227D2*
X51904D1*
X19371Y36430D2*
X24401D1*
X30827D2*
X40450D1*
X46548D2*
X46839D1*
X47729D2*
X48154D1*
X49172D2*
X51904D1*
X19371Y36281D2*
X24253D1*
X30977D2*
X40305D1*
X46548D2*
X47034D1*
X47532D2*
X48273D1*
X49053D2*
X51904D1*
X19371Y36132D2*
X24103D1*
X25084D2*
X26394D1*
X28925D2*
X30144D1*
X31125D2*
X40160D1*
X46548D2*
X51904D1*
X19371Y35983D2*
X23953D1*
X24934D2*
X26394D1*
X28741D2*
X30294D1*
X31275D2*
X40017D1*
X46548D2*
X51904D1*
X19371Y35834D2*
X23805D1*
X24786D2*
X26394D1*
X28555D2*
X30444D1*
X31425D2*
X39872D1*
X46548D2*
X51904D1*
X19371Y35685D2*
X23655D1*
X24636D2*
X26394D1*
X28313D2*
X30592D1*
X31572D2*
X39726D1*
X46548D2*
X51904D1*
X19371Y35536D2*
X23508D1*
X24488D2*
X26394D1*
X27946D2*
X30742D1*
X31722D2*
X39710D1*
X46548D2*
X51904D1*
X19371Y35387D2*
X23358D1*
X24338D2*
X26410D1*
X27477D2*
X30890D1*
X31870D2*
X39793D1*
X46548D2*
X51904D1*
X19371Y35238D2*
X23208D1*
X24188D2*
X31040D1*
X32020D2*
X39879D1*
X46548D2*
X51904D1*
X19371Y35088D2*
X23060D1*
X24041D2*
X31190D1*
X32170D2*
X39964D1*
X19371Y34939D2*
X22910D1*
X23891D2*
X31337D1*
X32318D2*
X40048D1*
X19371Y34790D2*
X22762D1*
X23743D2*
X31487D1*
X32468D2*
X40134D1*
X19385Y34641D2*
X22612D1*
X23593D2*
X31635D1*
X32615D2*
X40217D1*
X19533Y34492D2*
X22462D1*
X23443D2*
X31785D1*
X32765D2*
X40303D1*
X12787Y34343D2*
X12944D1*
X19683D2*
X22315D1*
X23295D2*
X31935D1*
X32915D2*
X40386D1*
X12696Y34194D2*
X13009D1*
X19833D2*
X22165D1*
X23145D2*
X32083D1*
X33063D2*
X40465D1*
X12608Y34045D2*
X13104D1*
X19981D2*
X21743D1*
X22998D2*
X32233D1*
X33213D2*
X40538D1*
X12522Y33896D2*
X13233D1*
X15309D2*
X17431D1*
X20131D2*
X21546D1*
X22848D2*
X25310D1*
X32058D2*
X32380D1*
X33361D2*
X40612D1*
X12449Y33747D2*
X13380D1*
X15159D2*
X17581D1*
X20278D2*
X21455D1*
X22698D2*
X25151D1*
X32218D2*
X32530D1*
X33511D2*
X40684D1*
X12372Y33598D2*
X13530D1*
X15011D2*
X17728D1*
X20428D2*
X21417D1*
X22567D2*
X25001D1*
X32368D2*
X32680D1*
X33661D2*
X40757D1*
X12837Y33449D2*
X13680D1*
X14861D2*
X17878D1*
X20578D2*
X21417D1*
X22567D2*
X24851D1*
X32515D2*
X32828D1*
X33808D2*
X40831D1*
X13151Y33300D2*
X13828D1*
X14713D2*
X18028D1*
X20726D2*
X21462D1*
X22521D2*
X24703D1*
X32665D2*
X32978D1*
X33958D2*
X40898D1*
X13332Y33151D2*
X13978D1*
X14563D2*
X18176D1*
X20876D2*
X21560D1*
X22424D2*
X24553D1*
X32813D2*
X33126D1*
X34106D2*
X40960D1*
X13482Y33002D2*
X14130D1*
X14411D2*
X18326D1*
X21024D2*
X21779D1*
X22205D2*
X24405D1*
X32963D2*
X33276D1*
X34256D2*
X41022D1*
X13632Y32852D2*
X18474D1*
X21174D2*
X23474D1*
X27120D2*
X27689D1*
X33113D2*
X33426D1*
X34406D2*
X41084D1*
X13780Y32703D2*
X18624D1*
X21324D2*
X23358D1*
X27270D2*
X27839D1*
X29470D2*
X30847D1*
X33261D2*
X33573D1*
X34554D2*
X41146D1*
X13930Y32554D2*
X18774D1*
X21471D2*
X23300D1*
X27417D2*
X27987D1*
X29322D2*
X30699D1*
X33411D2*
X33723D1*
X34704D2*
X41210D1*
X14077Y32405D2*
X18921D1*
X21621D2*
X23289D1*
X27489D2*
X28056D1*
X29217D2*
X30613D1*
X33558D2*
X33871D1*
X34851D2*
X41265D1*
X14227Y32256D2*
X19071D1*
X21769D2*
X23317D1*
X27493D2*
X28075D1*
X29198D2*
X30570D1*
X33708D2*
X34021D1*
X35001D2*
X41317D1*
X14280Y32107D2*
X19219D1*
X21919D2*
X23393D1*
X27493D2*
X28137D1*
X29136D2*
X30561D1*
X32780D2*
X32877D1*
X33858D2*
X34171D1*
X35151D2*
X41369D1*
X14208Y31958D2*
X19369D1*
X27493D2*
X28265D1*
X29008D2*
X30582D1*
X32780D2*
X33026D1*
X34006D2*
X34319D1*
X35299D2*
X41422D1*
X14058Y31809D2*
X19519D1*
X27493D2*
X30639D1*
X31930D2*
X32025D1*
X32780D2*
X33176D1*
X34156D2*
X34469D1*
X35449D2*
X41474D1*
X13911Y31660D2*
X19667D1*
X27493D2*
X30744D1*
X31827D2*
X32025D1*
X32780D2*
X33323D1*
X34304D2*
X34616D1*
X35680D2*
X41527D1*
X13918Y31511D2*
X19817D1*
X27493D2*
X30935D1*
X31637D2*
X32025D1*
X32780D2*
X33473D1*
X34454D2*
X34766D1*
X35828D2*
X41574D1*
X11437Y31362D2*
X11673D1*
X14068D2*
X19964D1*
X27493D2*
X32025D1*
X32780D2*
X33623D1*
X34597D2*
X34916D1*
X35902D2*
X41617D1*
X11394Y31213D2*
X11820D1*
X14216D2*
X20114D1*
X27493D2*
X32025D1*
X32780D2*
X33771D1*
X34659D2*
X35064D1*
X35909D2*
X41660D1*
X11351Y31064D2*
X11970D1*
X14366D2*
X20264D1*
X27493D2*
X32025D1*
X32780D2*
X33921D1*
X34661D2*
X35207D1*
X35909D2*
X41700D1*
X11310Y30915D2*
X12118D1*
X14513D2*
X20457D1*
X27524D2*
X32025D1*
X32780D2*
X33959D1*
X34661D2*
X35207D1*
X35909D2*
X41743D1*
X11268Y30766D2*
X12268D1*
X13015D2*
X13323D1*
X14663D2*
X20605D1*
X28905D2*
X31016D1*
X31556D2*
X32025D1*
X32780D2*
X33959D1*
X34661D2*
X35207D1*
X35909D2*
X41786D1*
X11225Y30616D2*
X12418D1*
X12865D2*
X13473D1*
X14813D2*
X20664D1*
X29148D2*
X30780D1*
X31792D2*
X32025D1*
X32780D2*
X33959D1*
X34661D2*
X35207D1*
X35909D2*
X41827D1*
X11184Y30467D2*
X13621D1*
X14961D2*
X20781D1*
X29298D2*
X30661D1*
X31911D2*
X32025D1*
X32780D2*
X33907D1*
X34661D2*
X35207D1*
X35909D2*
X41860D1*
X11148Y30318D2*
X13771D1*
X15111D2*
X25001D1*
X29446D2*
X30594D1*
X32868D2*
X33718D1*
X34661D2*
X35207D1*
X35909D2*
X41893D1*
X11118Y30169D2*
X13918D1*
X15259D2*
X23117D1*
X23564D2*
X25148D1*
X29596D2*
X30563D1*
X32949D2*
X33630D1*
X34711D2*
X35207D1*
X35909D2*
X41927D1*
X11087Y30020D2*
X14068D1*
X15409D2*
X18836D1*
X23779D2*
X25298D1*
X30306D2*
X30566D1*
X32982D2*
X33595D1*
X34749D2*
X35207D1*
X35909D2*
X41960D1*
X11053Y29871D2*
X14218D1*
X15559D2*
X18702D1*
X23874D2*
X25448D1*
X30446D2*
X30599D1*
X33425D2*
X33599D1*
X34744D2*
X35207D1*
X35909D2*
X41993D1*
X11022Y29722D2*
X14366D1*
X15706D2*
X18636D1*
X23914D2*
X25603D1*
X30515D2*
X30673D1*
X34699D2*
X35190D1*
X35909D2*
X42024D1*
X10991Y29573D2*
X14516D1*
X15856D2*
X18617D1*
X23917D2*
X27699D1*
X30539D2*
X30799D1*
X31772D2*
X31994D1*
X33644D2*
X33747D1*
X34597D2*
X35040D1*
X35909D2*
X42050D1*
X10965Y29424D2*
X14664D1*
X16004D2*
X18636D1*
X23876D2*
X27763D1*
X30522D2*
X31066D1*
X31506D2*
X32280D1*
X33730D2*
X33983D1*
X34361D2*
X34890D1*
X35859D2*
X42074D1*
X10944Y29275D2*
X14814D1*
X16151D2*
X18702D1*
X23783D2*
X27894D1*
X30460D2*
X32525D1*
X33878D2*
X34742D1*
X35723D2*
X42098D1*
X10922Y29126D2*
X11456D1*
X14504D2*
X14964D1*
X16235D2*
X18836D1*
X19557D2*
X22396D1*
X30844D2*
X32585D1*
X35573D2*
X38736D1*
X41786D2*
X42122D1*
X10898Y28977D2*
X11456D1*
X14504D2*
X15111D1*
X16259D2*
X22396D1*
X30844D2*
X32709D1*
X35425D2*
X38736D1*
X41786D2*
X42146D1*
X10877Y28828D2*
X11456D1*
X14504D2*
X15261D1*
X16259D2*
X22396D1*
X30844D2*
X33345D1*
X35275D2*
X38736D1*
X41786D2*
X42170D1*
X10856Y28679D2*
X11456D1*
X14504D2*
X15302D1*
X16259D2*
X22396D1*
X30844D2*
X33495D1*
X35125D2*
X38736D1*
X41786D2*
X42191D1*
X10837Y28530D2*
X11456D1*
X14504D2*
X15302D1*
X16259D2*
X22396D1*
X30844D2*
X38736D1*
X41786D2*
X42205D1*
X10827Y28380D2*
X11456D1*
X14504D2*
X15302D1*
X16259D2*
X22396D1*
X30844D2*
X38736D1*
X41786D2*
X42220D1*
X10815Y28231D2*
X11456D1*
X14504D2*
X15302D1*
X16259D2*
X22396D1*
X30844D2*
X38736D1*
X41786D2*
X42234D1*
X10803Y28082D2*
X11456D1*
X14504D2*
X15285D1*
X16273D2*
X22396D1*
X30844D2*
X38736D1*
X41786D2*
X42250D1*
X10791Y27933D2*
X11456D1*
X14504D2*
X15221D1*
X16340D2*
X22396D1*
X30844D2*
X38736D1*
X41786D2*
X42265D1*
X10779Y27784D2*
X11456D1*
X14504D2*
X15199D1*
X16359D2*
X22396D1*
X30844D2*
X31359D1*
X31834D2*
X32259D1*
X32735D2*
X33159D1*
X33635D2*
X38736D1*
X41786D2*
X42279D1*
X10767Y27635D2*
X11456D1*
X14504D2*
X15219D1*
X16340D2*
X22396D1*
X30844D2*
X31154D1*
X33837D2*
X38736D1*
X41786D2*
X42286D1*
X10765Y27486D2*
X11456D1*
X14504D2*
X15285D1*
X16275D2*
X22396D1*
X30844D2*
X31061D1*
X33930D2*
X38736D1*
X41786D2*
X42291D1*
X10763Y27337D2*
X11456D1*
X14504D2*
X15419D1*
X16140D2*
X22396D1*
X30844D2*
X31020D1*
X33970D2*
X38736D1*
X41786D2*
X42298D1*
X10760Y27188D2*
X11456D1*
X14504D2*
X22396D1*
X30844D2*
X31023D1*
X33970D2*
X38736D1*
X41786D2*
X42303D1*
X10758Y27039D2*
X11456D1*
X14504D2*
X22396D1*
X30844D2*
X31063D1*
X33928D2*
X38736D1*
X41786D2*
X42310D1*
X10758Y26890D2*
X11456D1*
X14504D2*
X22396D1*
X30844D2*
X31159D1*
X33832D2*
X38300D1*
X41786D2*
X42315D1*
X10756Y26741D2*
X11456D1*
X14504D2*
X22396D1*
X30844D2*
X31159D1*
X33832D2*
X38126D1*
X41786D2*
X42317D1*
X10758Y26592D2*
X11456D1*
X14504D2*
X22396D1*
X30844D2*
X31063D1*
X33928D2*
X37979D1*
X41786D2*
X42315D1*
X10763Y26443D2*
X11456D1*
X14504D2*
X22396D1*
X30844D2*
X31023D1*
X33970D2*
X37828D1*
X41786D2*
X42312D1*
X10767Y26294D2*
X11456D1*
X14504D2*
X22396D1*
X30844D2*
X31020D1*
X33970D2*
X37678D1*
X41786D2*
X42310D1*
X10772Y26144D2*
X11456D1*
X14504D2*
X22396D1*
X30844D2*
X31061D1*
X33930D2*
X37531D1*
X41786D2*
X42305D1*
X10779Y25995D2*
X11456D1*
X14504D2*
X22396D1*
X30844D2*
X31154D1*
X33837D2*
X37381D1*
X41786D2*
X42303D1*
X10784Y25846D2*
X11456D1*
X14504D2*
X22396D1*
X30844D2*
X31163D1*
X33828D2*
X37233D1*
X38571D2*
X38736D1*
X41786D2*
X42300D1*
X10789Y25697D2*
X11456D1*
X14504D2*
X22396D1*
X30844D2*
X31066D1*
X33925D2*
X37083D1*
X38423D2*
X38736D1*
X41786D2*
X42289D1*
X10794Y25548D2*
X11456D1*
X14587D2*
X22396D1*
X30844D2*
X31023D1*
X33970D2*
X36933D1*
X38273D2*
X38736D1*
X41786D2*
X42277D1*
X10803Y25399D2*
X11456D1*
X14737D2*
X22396D1*
X30844D2*
X31020D1*
X33973D2*
X36786D1*
X38126D2*
X38736D1*
X41786D2*
X42265D1*
X10820Y25250D2*
X11456D1*
X14885D2*
X22396D1*
X30844D2*
X31059D1*
X33932D2*
X36635D1*
X37976D2*
X38736D1*
X41786D2*
X42253D1*
X10837Y25101D2*
X11456D1*
X15035D2*
X22396D1*
X30844D2*
X31149D1*
X33842D2*
X36488D1*
X37826D2*
X38736D1*
X41786D2*
X42241D1*
X10853Y24952D2*
X11456D1*
X15185D2*
X22396D1*
X30844D2*
X31347D1*
X31846D2*
X32247D1*
X32746D2*
X33147D1*
X33647D2*
X36338D1*
X37678D2*
X38736D1*
X41786D2*
X42229D1*
X10870Y24803D2*
X11456D1*
X15332D2*
X22396D1*
X30844D2*
X36188D1*
X37528D2*
X38736D1*
X41786D2*
X42215D1*
X10889Y24654D2*
X11456D1*
X15482D2*
X22396D1*
X30844D2*
X36040D1*
X37380D2*
X38736D1*
X41786D2*
X42193D1*
X10906Y24505D2*
X11456D1*
X19969D2*
X22396D1*
X30844D2*
X35890D1*
X37230D2*
X38736D1*
X41786D2*
X42174D1*
X10922Y24356D2*
X11456D1*
X20192D2*
X22396D1*
X30844D2*
X35743D1*
X37080D2*
X38736D1*
X41786D2*
X42153D1*
X10939Y24207D2*
X11456D1*
X14504D2*
X14591D1*
X20342D2*
X22396D1*
X30844D2*
X35592D1*
X36933D2*
X38736D1*
X41786D2*
X42131D1*
X10968Y24058D2*
X11456D1*
X14504D2*
X14738D1*
X20490D2*
X22396D1*
X30844D2*
X35442D1*
X36783D2*
X38736D1*
X41786D2*
X42110D1*
X10996Y23908D2*
X11456D1*
X14504D2*
X14888D1*
X20640D2*
X22396D1*
X30844D2*
X35295D1*
X36635D2*
X38736D1*
X41786D2*
X42089D1*
X11025Y23759D2*
X11456D1*
X14504D2*
X15038D1*
X20790D2*
X22396D1*
X30844D2*
X35145D1*
X36485D2*
X38736D1*
X41786D2*
X42062D1*
X11053Y23610D2*
X15288D1*
X20938D2*
X34997D1*
X36335D2*
X42031D1*
X11084Y23461D2*
X19748D1*
X21088D2*
X34847D1*
X36187D2*
X42000D1*
X11113Y23312D2*
X19898D1*
X21235D2*
X34697D1*
X36037D2*
X41972D1*
X11141Y23163D2*
X20045D1*
X21385D2*
X34550D1*
X35890D2*
X41941D1*
X11170Y23014D2*
X20195D1*
X21535D2*
X34399D1*
X35740D2*
X41910D1*
X11208Y22865D2*
X20343D1*
X21683D2*
X34252D1*
X35590D2*
X41877D1*
X11248Y22716D2*
X20493D1*
X21833D2*
X34102D1*
X35442D2*
X41836D1*
X11291Y22567D2*
X19800D1*
X20459D2*
X20643D1*
X21981D2*
X33952D1*
X35292D2*
X41798D1*
X11332Y22418D2*
X19650D1*
X20609D2*
X20791D1*
X22131D2*
X33804D1*
X35144D2*
X41758D1*
X11375Y22269D2*
X19576D1*
X20683D2*
X20941D1*
X22281D2*
X33654D1*
X34994D2*
X41719D1*
X11415Y22120D2*
X19550D1*
X20778D2*
X21088D1*
X22428D2*
X33507D1*
X34844D2*
X41679D1*
X11456Y21971D2*
X19564D1*
X20926D2*
X21238D1*
X22578D2*
X33357D1*
X34697D2*
X41638D1*
X11499Y21822D2*
X19621D1*
X21076D2*
X21388D1*
X22726D2*
X33206D1*
X34547D2*
X41591D1*
X11549Y21672D2*
X19743D1*
X21224D2*
X21536D1*
X22876D2*
X33059D1*
X34399D2*
X41541D1*
X11603Y21523D2*
X20033D1*
X21374D2*
X21686D1*
X23026D2*
X24686D1*
X25491D2*
X27687D1*
X28491D2*
X32909D1*
X34249D2*
X41491D1*
X11656Y21374D2*
X20183D1*
X21524D2*
X21834D1*
X23174D2*
X24529D1*
X25648D2*
X27530D1*
X28648D2*
X32761D1*
X34099D2*
X41443D1*
X11710Y21225D2*
X20331D1*
X21671D2*
X21984D1*
X23324D2*
X24443D1*
X25736D2*
X27444D1*
X28734D2*
X32611D1*
X33951D2*
X41393D1*
X11765Y21076D2*
X20481D1*
X21821D2*
X22134D1*
X23471D2*
X24401D1*
X25779D2*
X27399D1*
X28779D2*
X32461D1*
X33801D2*
X41343D1*
X11820Y20927D2*
X20629D1*
X21969D2*
X22281D1*
X23621D2*
X24391D1*
X25788D2*
X27389D1*
X28789D2*
X32314D1*
X33654D2*
X41286D1*
X11875Y20778D2*
X20779D1*
X22119D2*
X22431D1*
X23771D2*
X24415D1*
X25765D2*
X26603D1*
X26724D2*
X27413D1*
X28765D2*
X32163D1*
X33504D2*
X41227D1*
X11927Y20629D2*
X20929D1*
X22269D2*
X22579D1*
X23919D2*
X24474D1*
X25703D2*
X26222D1*
X27062D2*
X27475D1*
X28703D2*
X32016D1*
X33354D2*
X41167D1*
X11994Y20480D2*
X21076D1*
X22417D2*
X22729D1*
X24069D2*
X24586D1*
X25593D2*
X26048D1*
X27177D2*
X27584D1*
X28594D2*
X31866D1*
X33206D2*
X41107D1*
X12061Y20331D2*
X21226D1*
X22567D2*
X22879D1*
X24217D2*
X24803D1*
X25376D2*
X25982D1*
X27231D2*
X27803D1*
X28377D2*
X31716D1*
X33056D2*
X41048D1*
X12130Y20182D2*
X21374D1*
X22714D2*
X23027D1*
X24367D2*
X25894D1*
X27241D2*
X31568D1*
X32908D2*
X40991D1*
X12196Y20033D2*
X21524D1*
X22864D2*
X23177D1*
X27298D2*
X31418D1*
X32758D2*
X40922D1*
X12265Y19884D2*
X21674D1*
X23014D2*
X23324D1*
X27446D2*
X31271D1*
X32608D2*
X40853D1*
X12334Y19735D2*
X21822D1*
X23162D2*
X23474D1*
X27596D2*
X31121D1*
X32461D2*
X40781D1*
X12401Y19586D2*
X21972D1*
X23312D2*
X23624D1*
X27743D2*
X30970D1*
X32311D2*
X40712D1*
X12472Y19436D2*
X22119D1*
X23460D2*
X23772D1*
X27893D2*
X30823D1*
X32163D2*
X40643D1*
X12556Y19287D2*
X22269D1*
X26324D2*
X26703D1*
X28043D2*
X30673D1*
X32013D2*
X40574D1*
X12637Y19138D2*
X22419D1*
X24086D2*
X26851D1*
X28191D2*
X30525D1*
X31863D2*
X40493D1*
X12720Y18989D2*
X22567D1*
X24167D2*
X27001D1*
X28341D2*
X30375D1*
X31715D2*
X40412D1*
X12803Y18840D2*
X22717D1*
X24200D2*
X27151D1*
X31565D2*
X40331D1*
X12884Y18691D2*
X22865D1*
X24191D2*
X27299D1*
X31418D2*
X40250D1*
X12968Y18542D2*
X23015D1*
X24141D2*
X27449D1*
X31268D2*
X40169D1*
X13051Y18393D2*
X23189D1*
X24029D2*
X27596D1*
X31118D2*
X40086D1*
X13149Y18244D2*
X23498D1*
X23745D2*
X27746D1*
X30970D2*
X39993D1*
X13246Y18095D2*
X27896D1*
X30820D2*
X39900D1*
X13346Y17946D2*
X39807D1*
X13444Y17797D2*
X39714D1*
X13542Y17648D2*
X39622D1*
X13642Y17499D2*
X39522D1*
X13739Y17350D2*
X39417D1*
X13856Y17200D2*
X39310D1*
X13970Y17051D2*
X39205D1*
X14087Y16902D2*
X39100D1*
X14204Y16753D2*
X38991D1*
X14320Y16604D2*
X38869D1*
X14437Y16455D2*
X38750D1*
X14561Y16306D2*
X38631D1*
X14697Y16157D2*
X38512D1*
X14835Y16008D2*
X38388D1*
X14970Y15859D2*
X38255D1*
X15106Y15710D2*
X38119D1*
X15244Y15561D2*
X37983D1*
X15385Y15412D2*
X37850D1*
X15544Y15263D2*
X37702D1*
X15704Y15114D2*
X37540D1*
X15863Y14964D2*
X37376D1*
X16023Y14815D2*
X37214D1*
X16182Y14666D2*
X37050D1*
X16356Y14517D2*
X36888D1*
X16544Y14368D2*
X36702D1*
X16730Y14219D2*
X36512D1*
X16918Y14070D2*
X36319D1*
X17106Y13921D2*
X36128D1*
X17302Y13772D2*
X35938D1*
X17523Y13623D2*
X35723D1*
X17745Y13474D2*
X35497D1*
X17964Y13325D2*
X35273D1*
X18185Y13176D2*
X35047D1*
X18430Y13027D2*
X34819D1*
X18695Y12878D2*
X34550D1*
X18959Y12728D2*
X34280D1*
X19221Y12579D2*
X34011D1*
X19511Y12430D2*
X33740D1*
X19831Y12281D2*
X33414D1*
X20150Y12132D2*
X33085D1*
X20469Y11983D2*
X32756D1*
X20864Y11834D2*
X32385D1*
X21262Y11685D2*
X31975D1*
X21659Y11536D2*
X31563D1*
X22178Y11387D2*
X31066D1*
X22698Y11238D2*
X30525D1*
X23367Y11089D2*
X29882D1*
X24112Y10940D2*
X29111D1*
X25336Y10791D2*
X27868D1*
X31255Y26815D2*
X31190Y26873D1*
X31132Y26944D1*
X31086Y27023D1*
X31054Y27108D1*
X31035Y27198D1*
X31032Y27289D1*
X31043Y27380D1*
X31069Y27467D1*
X31108Y27550D1*
X31160Y27625D1*
X31224Y27690D1*
X31297Y27745D1*
X31378Y27787D1*
X31465Y27815D1*
X31555Y27829D1*
X31647Y27828D1*
X31737Y27812D1*
X31823Y27783D1*
X31904Y27739D1*
X31976Y27684D1*
X32038Y27617D1*
X32046Y27607D1*
X32102Y27669D1*
X32172Y27728D1*
X32251Y27774D1*
X32336Y27807D1*
X32425Y27826D1*
X32516Y27830D1*
X32607Y27819D1*
X32695Y27794D1*
X32778Y27755D1*
X32853Y27703D1*
X32919Y27640D1*
X32946Y27607D1*
X33002Y27669D1*
X33072Y27728D1*
X33151Y27774D1*
X33236Y27807D1*
X33325Y27826D1*
X33416Y27830D1*
X33507Y27819D1*
X33595Y27794D1*
X33678Y27755D1*
X33753Y27703D1*
X33819Y27640D1*
X33874Y27567D1*
X33916Y27486D1*
X33945Y27400D1*
X33959Y27309D1*
Y27220D1*
X33945Y27130D1*
X33915Y27043D1*
X33873Y26962D1*
X33818Y26889D1*
X33752Y26826D1*
X33738Y26815D1*
X33809Y26751D1*
X33865Y26680D1*
X33910Y26600D1*
X33941Y26514D1*
X33958Y26425D1*
X33960Y26335D1*
X33948Y26244D1*
X33921Y26157D1*
X33881Y26075D1*
X33828Y26001D1*
X33763Y25936D1*
X33738Y25915D1*
X33809Y25851D1*
X33865Y25780D1*
X33910Y25700D1*
X33941Y25614D1*
X33958Y25525D1*
X33960Y25435D1*
X33948Y25344D1*
X33921Y25257D1*
X33881Y25175D1*
X33828Y25101D1*
X33763Y25036D1*
X33689Y24982D1*
X33608Y24942D1*
X33520Y24914D1*
X33430Y24901D1*
X33339Y24903D1*
X33249Y24920D1*
X33163Y24951D1*
X33083Y24995D1*
X33011Y25052D1*
X32946Y25124D1*
X32886Y25056D1*
X32815Y24999D1*
X32736Y24954D1*
X32650Y24922D1*
X32560Y24904D1*
X32469Y24901D1*
X32379Y24913D1*
X32291Y24939D1*
X32209Y24979D1*
X32134Y25032D1*
X32069Y25096D1*
X32046Y25124D1*
X31986Y25056D1*
X31915Y24999D1*
X31836Y24954D1*
X31750Y24922D1*
X31660Y24904D1*
X31569Y24901D1*
X31479Y24913D1*
X31391Y24939D1*
X31309Y24979D1*
X31234Y25032D1*
X31169Y25096D1*
X31115Y25169D1*
X31074Y25251D1*
X31046Y25338D1*
X31033Y25428D1*
X31034Y25519D1*
X31050Y25609D1*
X31080Y25695D1*
X31124Y25776D1*
X31180Y25848D1*
X31247Y25910D1*
X31255Y25916D1*
X31200Y25962D1*
X31141Y26031D1*
X31093Y26109D1*
X31058Y26194D1*
X31037Y26283D1*
X31031Y26374D1*
X31040Y26465D1*
X31063Y26553D1*
X31101Y26636D1*
X31151Y26713D1*
X31213Y26780D1*
X31255Y26816D1*
X31991Y32059D2*
X31979Y31984D1*
X31959Y31911D1*
X31931Y31840D1*
X31895Y31772D1*
X31853Y31709D1*
X31804Y31651D1*
X31749Y31598D1*
X31689Y31551D1*
X31624Y31511D1*
X31555Y31479D1*
X31483Y31454D1*
X31409Y31436D1*
X31334Y31427D1*
X31257Y31426D1*
X31182Y31433D1*
X31107Y31448D1*
X31034Y31472D1*
X30965Y31502D1*
X30899Y31540D1*
X30837Y31585D1*
X30781Y31636D1*
X30730Y31693D1*
X30686Y31756D1*
X30649Y31822D1*
X30619Y31892D1*
X30597Y31965D1*
X30582Y32040D1*
X30576Y32116D1*
X30578Y32192D1*
X30588Y32267D1*
X30606Y32341D1*
X30632Y32413D1*
X30666Y32481D1*
X30707Y32546D1*
X30754Y32605D1*
X30807Y32660D1*
X30866Y32708D1*
X30930Y32749D1*
X31000Y32785D1*
X29535Y32784D1*
X29199Y32447D1*
X29196Y32320D1*
X29181Y32245D1*
X29156Y32173D1*
X29121Y32105D1*
X29078Y32043D1*
X29026Y31987D1*
X28968Y31938D1*
X28903Y31898D1*
X28834Y31866D1*
X28761Y31845D1*
X28686Y31833D1*
X28609Y31831D1*
X28534Y31840D1*
X28460Y31859D1*
X28390Y31888D1*
X28323Y31926D1*
X28263Y31972D1*
X28209Y32026D1*
X28164Y32087D1*
X28126Y32153D1*
X28098Y32224D1*
X28080Y32298D1*
X28072Y32374D1*
X28079Y32480D1*
X27914Y32643D1*
X27700Y32857D1*
X27155Y32855D1*
X27100D1*
X27381Y32577D1*
X27428Y32518D1*
X27461Y32449D1*
X27477Y32372D1*
X27479Y32339D1*
Y30946D1*
X27655Y30769D1*
X28842D1*
X28917Y30761D1*
X28989Y30735D1*
X29055Y30693D1*
X29080Y30671D1*
X29691Y30060D1*
X29814Y30108D1*
X29888Y30123D1*
X29964Y30127D1*
X30040Y30122D1*
X30115Y30106D1*
X30186Y30080D1*
X30254Y30045D1*
X30316Y30001D1*
X30372Y29949D1*
X30420Y29890D1*
X30460Y29825D1*
X30490Y29755D1*
X30511Y29682D1*
X30524Y29562D1*
X30519Y29487D1*
X30504Y29412D1*
X30479Y29340D1*
X30444Y29272D1*
X30418Y29235D1*
X30830D1*
Y23736D1*
X22411D1*
Y29182D1*
X19605Y29181D1*
X19527Y29115D1*
X19463Y29075D1*
X19393Y29044D1*
X19320Y29022D1*
X19245Y29010D1*
X19169Y29009D1*
X19093Y29017D1*
X19020Y29036D1*
X18949Y29065D1*
X18883Y29103D1*
X18823Y29149D1*
X18769Y29203D1*
X18723Y29264D1*
X18686Y29330D1*
X18658Y29401D1*
X18640Y29475D1*
X18632Y29551D1*
X18634Y29627D1*
X18646Y29702D1*
X18669Y29775D1*
X18701Y29844D1*
X18742Y29908D1*
X18791Y29966D1*
X18847Y30017D1*
X18910Y30060D1*
X18978Y30094D1*
X19050Y30119D1*
X19125Y30133D1*
X19201Y30138D1*
X19277Y30132D1*
X19376Y30107D1*
X23018Y30108D1*
X23123Y30166D1*
X23195Y30191D1*
X23270Y30205D1*
X23346Y30210D1*
X23422Y30204D1*
X23496Y30188D1*
X23568Y30162D1*
X23635Y30127D1*
X23697Y30083D1*
X23753Y30031D1*
X23801Y29972D1*
X23841Y29907D1*
X23872Y29837D1*
X23893Y29764D1*
X23906Y29645D1*
X23901Y29569D1*
X23885Y29494D1*
X23860Y29422D1*
X23825Y29355D1*
X23782Y29292D1*
X23729Y29234D1*
X27968Y29235D1*
X27887Y29293D1*
X27833Y29347D1*
X27788Y29408D1*
X27750Y29475D1*
X27722Y29546D1*
X27700Y29660D1*
X26993Y29658D1*
X25815D1*
X25739Y29667D1*
X25667Y29692D1*
X25601Y29735D1*
X25577Y29757D1*
X24949Y30389D1*
X24865Y30403D1*
X20993D1*
X20918Y30412D1*
X20846Y30437D1*
X20782Y30478D1*
X20728Y30532D1*
X20689Y30597D1*
X20648Y30739D1*
X20403Y30983D1*
X20349Y31008D1*
X20301Y31042D1*
X19850Y31492D1*
X17359Y33983D1*
X16662Y33981D1*
X15378D1*
X14418Y33020D1*
X14356Y32977D1*
X14282Y32960D1*
X14207Y32969D1*
X14139Y33006D1*
X13638Y33505D1*
X13207Y33938D1*
X13110Y34056D1*
X13030Y34185D1*
X12966Y34323D1*
X12920Y34468D1*
X12901Y34564D1*
X12528Y33934D1*
X12302Y33490D1*
X12405Y33501D1*
X12557Y33499D1*
X12708Y33478D1*
X12855Y33438D1*
X12996Y33380D1*
X13128Y33305D1*
X13250Y33213D1*
X13374Y33095D1*
X14204Y32265D1*
X14247Y32202D1*
X14265Y32129D1*
X14255Y32054D1*
X14218Y31985D1*
X13825Y31590D1*
X15875Y29539D1*
X16107Y29307D1*
X16156Y29249D1*
X16195Y29183D1*
X16223Y29112D1*
X16239Y29038D1*
X16243Y28979D1*
Y28105D1*
X16280Y28046D1*
X16311Y27976D1*
X16332Y27903D1*
X16344Y27784D1*
X16339Y27708D1*
X16324Y27633D1*
X16299Y27561D1*
X16264Y27493D1*
X16221Y27431D1*
X16169Y27375D1*
X16111Y27326D1*
X16046Y27286D1*
X15977Y27254D1*
X15904Y27233D1*
X15829Y27221D1*
X15752Y27219D1*
X15677Y27228D1*
X15603Y27247D1*
X15532Y27276D1*
X15466Y27313D1*
X15406Y27360D1*
X15352Y27414D1*
X15307Y27475D1*
X15269Y27541D1*
X15241Y27612D1*
X15223Y27686D1*
X15215Y27762D1*
X15217Y27838D1*
X15230Y27913D1*
X15252Y27986D1*
X15284Y28055D1*
X15316Y28105D1*
Y28786D1*
X13170Y30933D1*
X12790Y30555D1*
X12727Y30512D1*
X12654Y30494D1*
X12578Y30503D1*
X12510Y30541D1*
X12009Y31040D1*
X11578Y31472D1*
X11494Y31573D1*
X11412Y31336D1*
X11270Y30829D1*
X11159Y30434D1*
X10962Y29512D1*
X10827Y28578D1*
X10752Y27638D1*
X10739Y26688D1*
X10784Y25434D1*
X10925Y24196D1*
X11163Y22973D1*
X11497Y21772D1*
X11923Y20602D1*
X12440Y19468D1*
X13044Y18378D1*
X13732Y17339D1*
X14499Y16358D1*
X15340Y15439D1*
X16251Y14589D1*
X17226Y13813D1*
X18259Y13116D1*
X19343Y12502D1*
X20472Y11975D1*
X21639Y11538D1*
X22836Y11194D1*
X24057Y10945D1*
X25294Y10792D1*
X26538Y10737D1*
X27783Y10779D1*
X29021Y10919D1*
X30245Y11156D1*
X31446Y11487D1*
X32617Y11912D1*
X33751Y12428D1*
X34842Y13030D1*
X35882Y13717D1*
X36864Y14482D1*
X37784Y15323D1*
X38426Y16032D1*
X39036Y16791D1*
X39599Y17586D1*
X40114Y18413D1*
X40579Y19268D1*
X40992Y20150D1*
X41352Y21056D1*
X41658Y21981D1*
X41907Y22922D1*
X42100Y23877D1*
X42236Y24841D1*
X42314Y25812D1*
X42334Y26786D1*
X42297Y27759D1*
X42201Y28729D1*
X42047Y29691D1*
X41837Y30642D1*
X41570Y31578D1*
X41248Y32498D1*
X40872Y33396D1*
X40443Y34271D1*
X39706Y35569D1*
Y35644D1*
X39717Y35660D1*
X46403Y42541D1*
X46472Y42563D1*
X46528Y42513D1*
X46533Y42488D1*
Y35222D1*
X51919D1*
Y51784D1*
X35357D1*
Y46398D1*
X37279D1*
X37230Y46411D1*
X37160Y46440D1*
X37094Y46478D1*
X37033Y46524D1*
X36980Y46578D1*
X36934Y46639D1*
X36897Y46705D1*
X36869Y46776D1*
X36850Y46850D1*
X36842Y46926D1*
X36844Y47002D1*
X36857Y47077D1*
X36879Y47150D1*
X36911Y47219D1*
X36952Y47283D1*
X37001Y47341D1*
X37058Y47392D1*
X37121Y47435D1*
X37189Y47469D1*
X37261Y47494D1*
X37336Y47508D1*
X37412Y47513D1*
X37488Y47507D1*
X37562Y47491D1*
X37634Y47465D1*
X37726Y47412D1*
X42139Y47411D1*
X42214Y47405D1*
X42288Y47386D1*
X42358Y47356D1*
X42422Y47315D1*
X42466Y47276D1*
X42515Y47227D1*
X43747D1*
X43822Y47221D1*
X43896Y47203D1*
X43966Y47172D1*
X44030Y47131D1*
X44074Y47092D1*
X47428Y43738D1*
X47477Y43680D1*
X47516Y43615D1*
X47544Y43544D1*
X47560Y43469D1*
X47563Y43411D1*
Y37284D1*
X47641Y37233D1*
X47696Y37181D1*
X47744Y37122D1*
X47784Y37057D1*
X47815Y36988D1*
X47836Y36915D1*
X47849Y36795D1*
X47844Y36719D1*
X47828Y36645D1*
X47803Y36573D1*
X47769Y36505D1*
X47725Y36442D1*
X47674Y36386D1*
X47615Y36338D1*
X47551Y36297D1*
X47481Y36266D1*
X47408Y36244D1*
X47333Y36232D1*
X47257Y36231D1*
X47181Y36240D1*
X47107Y36259D1*
X47037Y36287D1*
X46971Y36325D1*
X46910Y36371D1*
X46857Y36425D1*
X46811Y36486D1*
X46774Y36553D1*
X46746Y36623D1*
X46723Y36709D1*
X46684Y36775D1*
X46656Y36846D1*
X46641Y36920D1*
X46637Y36979D1*
Y43220D1*
X44994Y44861D1*
X43555Y46301D1*
X42696D1*
X42676Y46267D1*
X35814Y39601D1*
X35737Y39583D1*
X33036Y40933D1*
X32446Y41194D1*
X31844Y41623D1*
X31781Y41687D1*
X31328Y42174D1*
X30948Y42795D1*
X30834Y42640D1*
X30685Y42468D1*
X30521Y42308D1*
X30344Y42164D1*
X30154Y42036D1*
X29955Y41924D1*
X29746Y41831D1*
X29531Y41756D1*
X29309Y41700D1*
X29083Y41663D1*
X28855Y41647D1*
X28627Y41650D1*
X28400Y41673D1*
X28175Y41716D1*
X27955Y41779D1*
X27742Y41860D1*
X27536Y41959D1*
X27340Y42077D1*
X27155Y42210D1*
X26982Y42360D1*
X26822Y42524D1*
X26678Y42701D1*
X26550Y42890D1*
X26475Y43020D1*
X25861Y42217D1*
X25035Y41544D1*
X24953Y41502D1*
X24057Y41072D1*
X23010Y40844D1*
X22456Y40854D1*
X23195Y40113D1*
X23228Y40062D1*
X23244Y40003D1*
X23243Y39942D1*
X23225Y39884D1*
X23191Y39834D1*
X21748Y38394D1*
X21694Y38365D1*
X21635Y38353D1*
X21574Y38358D1*
X21518Y38381D1*
X21470Y38418D1*
X20548Y39342D1*
X20462Y39449D1*
X20389Y39565D1*
X20329Y39688D1*
X20284Y39818D1*
X20254Y39951D1*
X20238Y40087D1*
X20239Y40225D1*
X20255Y40361D1*
X20286Y40494D1*
X20326Y40610D1*
X20239Y40587D1*
X19661Y40383D1*
X19106Y40125D1*
X18999Y40062D1*
X19110Y40015D1*
X19242Y39940D1*
X19364Y39849D1*
X19488Y39730D1*
X20318Y38900D1*
X20361Y38838D1*
X20379Y38764D1*
X20369Y38689D1*
X20332Y38621D1*
X19833Y38119D1*
X19356Y37643D1*
X19357Y34656D1*
X21791Y32220D1*
X22008Y32003D1*
X23506Y32002D1*
X23441Y32065D1*
X23395Y32126D1*
X23358Y32192D1*
X23330Y32263D1*
X23312Y32337D1*
X23304Y32412D1*
X23306Y32489D1*
X23318Y32564D1*
X23341Y32636D1*
X23373Y32706D1*
X23413Y32770D1*
X23463Y32828D1*
X23519Y32879D1*
X23582Y32922D1*
X23650Y32956D1*
X23722Y32980D1*
X23797Y32995D1*
X23873Y32999D1*
X23949Y32994D1*
X24024Y32978D1*
X24095Y32952D1*
X24163Y32917D1*
X24225Y32873D1*
X24258Y32842D1*
X25269Y33851D1*
X25328Y33899D1*
X25397Y33931D1*
X25474Y33948D1*
X25507Y33950D1*
X31861D1*
X31937Y33941D1*
X32008Y33916D1*
X32074Y33873D1*
X32099Y33851D1*
X34548Y31402D1*
X34595Y31343D1*
X34628Y31274D1*
X34645Y31197D1*
X34646Y31164D1*
Y30267D1*
X34703Y30154D1*
X34724Y30081D1*
X34736Y29961D1*
X34731Y29885D1*
X34716Y29811D1*
X34691Y29739D1*
X34656Y29671D1*
X34613Y29608D1*
X34561Y29552D1*
X34503Y29504D1*
X34438Y29463D1*
X34369Y29432D1*
X34296Y29410D1*
X34221Y29398D1*
X34144Y29397D1*
X34069Y29406D1*
X33995Y29425D1*
X33924Y29453D1*
X33858Y29491D1*
X33798Y29537D1*
X33744Y29591D1*
X33699Y29652D1*
X33661Y29719D1*
X33633Y29790D1*
X33615Y29863D1*
X33607Y29939D1*
X33609Y30015D1*
X33622Y30090D1*
X33644Y30163D1*
X33676Y30232D1*
X33717Y30296D1*
X33766Y30355D1*
X33823Y30406D1*
X33886Y30448D1*
X33974Y30489D1*
Y31026D1*
X32764Y32235D1*
X32765Y30411D1*
X32815Y30364D1*
X32863Y30305D1*
X32903Y30240D1*
X32934Y30171D1*
X32955Y30097D1*
X32968Y29978D1*
X32966Y29957D1*
X33019Y29967D1*
X33095Y29971D1*
X33171Y29966D1*
X33245Y29950D1*
X33317Y29924D1*
X33384Y29889D1*
X33447Y29845D1*
X33502Y29793D1*
X33550Y29734D1*
X33590Y29669D1*
X33621Y29599D1*
X33647Y29491D1*
X33897Y29242D1*
X34289Y29244D1*
X34725D1*
X35221Y29740D1*
X35222Y31132D1*
X35149Y31163D1*
X35102Y31193D1*
X35017Y31275D1*
X30149Y36143D1*
X28920Y36142D1*
X28613Y35892D1*
X28429Y35743D1*
X28316Y35691D1*
X27646Y35420D1*
X27524Y35396D1*
X26650Y35262D1*
X26574Y35265D1*
X26504Y35294D1*
X26449Y35346D1*
X26414Y35422D1*
X26409Y35545D1*
Y36143D1*
X25076Y36142D1*
X24800Y35863D1*
X22549Y33612D1*
X22557Y33531D1*
X22552Y33455D1*
X22536Y33380D1*
X22511Y33308D1*
X22476Y33240D1*
X22433Y33178D1*
X22382Y33122D1*
X22323Y33073D1*
X22258Y33033D1*
X22189Y33001D1*
X22116Y32980D1*
X22041Y32968D1*
X21965Y32966D1*
X21889Y32975D1*
X21815Y32994D1*
X21745Y33023D1*
X21679Y33060D1*
X21618Y33107D1*
X21565Y33161D1*
X21519Y33222D1*
X21482Y33288D1*
X21454Y33359D1*
X21435Y33433D1*
X21427Y33509D1*
X21429Y33585D1*
X21442Y33660D1*
X21464Y33733D1*
X21496Y33802D1*
X21537Y33866D1*
X21586Y33924D1*
X21643Y33975D1*
X21706Y34018D1*
X21774Y34052D1*
X21846Y34076D1*
X21921Y34091D1*
X21997Y34095D1*
X22077Y34092D1*
X24702Y36716D1*
X24761Y36763D1*
X24830Y36796D1*
X24906Y36813D1*
X24939Y36815D1*
X26409D1*
Y39469D1*
X26422Y39544D1*
X26462Y39608D1*
X26522Y39655D1*
X26596Y39677D1*
X26682Y39678D1*
X26499Y40144D1*
X26433Y40313D1*
X26419Y40388D1*
X26432Y40462D1*
X26468Y40524D1*
X26738Y40844D1*
X26806Y40897D1*
X27061Y41022D1*
X27134Y41043D1*
X27209Y41036D1*
X27277Y41002D1*
X27323Y40956D1*
X27375Y40844D1*
X27698Y40066D1*
X27970Y39566D1*
X28012Y39550D1*
X27961Y39583D1*
X28019Y39640D1*
Y39681D1*
X27505Y40908D1*
X27489Y40982D1*
X27500Y41057D1*
X27537Y41123D1*
X27596Y41172D1*
X27667Y41196D1*
X27754Y41191D1*
X28225Y41060D1*
X28459Y41083D1*
X28534Y41076D1*
X28603Y41042D1*
X28649Y40995D1*
X28701Y40883D1*
X28775Y40700D1*
X29013Y40859D1*
X29083Y40888D1*
X29158Y40891D1*
X29230Y40867D1*
X29289Y40818D1*
X29699Y40323D1*
X29736Y40256D1*
X29747Y40181D1*
X29731Y40107D1*
X29678Y40034D1*
X29567Y39933D1*
X29510Y39746D1*
X29496Y39669D1*
X29541Y39452D1*
X29811Y39182D1*
X29860Y39104D1*
X29975Y38779D1*
X29987Y38696D1*
X29958Y38253D1*
X29810Y37532D1*
X29769Y37416D1*
X29655Y37136D1*
X29474Y36815D1*
X30289D1*
X30365Y36806D1*
X30436Y36781D1*
X30502Y36738D1*
X30527Y36716D1*
X35455Y31788D1*
X35501Y31777D1*
X35551Y31755D1*
X35598Y31724D1*
X35683Y31643D1*
X35796Y31530D1*
X35843Y31471D1*
X35876Y31402D1*
X35892Y31325D1*
X35894Y31292D1*
Y29601D1*
X35886Y29525D1*
X35860Y29453D1*
X35818Y29388D1*
X35796Y29363D1*
X35103Y28670D1*
X35043Y28622D1*
X34974Y28590D1*
X34898Y28573D1*
X34865Y28571D1*
X33755D1*
X33680Y28580D1*
X33608Y28605D1*
X33542Y28648D1*
X33518Y28670D1*
X33304Y28883D1*
X33214Y28856D1*
X33139Y28844D1*
X33063Y28842D1*
X32987Y28851D1*
X32913Y28870D1*
X32843Y28899D1*
X32777Y28936D1*
X32716Y28983D1*
X32663Y29037D1*
X32617Y29098D1*
X32580Y29164D1*
X32552Y29235D1*
X32534Y29309D1*
X32527Y29425D1*
X32452Y29415D1*
X32376Y29414D1*
X32300Y29422D1*
X32226Y29441D1*
X32156Y29470D1*
X32090Y29508D1*
X32029Y29554D1*
X31976Y29608D1*
X31930Y29669D1*
X31892Y29738D1*
X31853Y29677D1*
X31804Y29619D1*
X31749Y29566D1*
X31689Y29519D1*
X31624Y29479D1*
X31555Y29447D1*
X31483Y29422D1*
X31409Y29404D1*
X31334Y29395D1*
X31257Y29394D1*
X31182Y29401D1*
X31107Y29416D1*
X31034Y29440D1*
X30965Y29470D1*
X30899Y29508D1*
X30837Y29553D1*
X30781Y29604D1*
X30730Y29661D1*
X30686Y29724D1*
X30649Y29790D1*
X30619Y29860D1*
X30597Y29933D1*
X30582Y30008D1*
X30576Y30084D1*
X30578Y30160D1*
X30588Y30235D1*
X30606Y30309D1*
X30632Y30381D1*
X30666Y30449D1*
X30707Y30514D1*
X30754Y30573D1*
X30807Y30628D1*
X30866Y30676D1*
X30930Y30717D1*
X30998Y30752D1*
X31069Y30779D1*
X31143Y30798D1*
X31218Y30810D1*
X31294Y30813D1*
X31370Y30808D1*
X31445Y30795D1*
X31518Y30774D1*
X31589Y30745D1*
X31656Y30709D1*
X31719Y30666D1*
X31776Y30616D1*
X31828Y30560D1*
X31874Y30500D1*
X31913Y30434D1*
X31958Y30327D1*
X32042Y30411D1*
X32039Y32303D1*
X31945Y32397D1*
X31970Y32325D1*
X31986Y32250D1*
X31995Y32135D1*
X31991Y32059D1*
X11547Y29235D2*
X14490D1*
X14493Y25628D1*
X15596Y24525D1*
X19817D1*
X19893Y24519D1*
X19966Y24501D1*
X20036Y24470D1*
X20100Y24429D1*
X20144Y24390D1*
X24396Y20138D1*
X25863Y20139D1*
X25983Y20257D1*
X25991Y20308D1*
X26012Y20381D1*
X26045Y20450D1*
X26089Y20512D1*
X26142Y20566D1*
X26204Y20611D1*
X26290Y20652D1*
X26314Y20660D1*
X26377Y20703D1*
X26445Y20737D1*
X26517Y20761D1*
X26592Y20776D1*
X26668Y20780D1*
X26744Y20774D1*
X26818Y20758D1*
X26890Y20733D1*
X26957Y20697D1*
X27020Y20653D1*
X27075Y20601D1*
X27123Y20542D1*
X27163Y20478D1*
X27194Y20408D1*
X27215Y20335D1*
X27228Y20215D1*
X27215Y20100D1*
X28431Y18884D1*
X30285D1*
X38214Y26813D1*
X38272Y26862D1*
X38337Y26901D1*
X38408Y26929D1*
X38482Y26945D1*
X38541Y26949D1*
X38753D1*
X38751Y27622D1*
Y29235D1*
X41770D1*
Y23736D1*
X38751D1*
Y26024D1*
X38734Y26022D1*
X30804Y18093D1*
X30746Y18044D1*
X30681Y18005D1*
X30610Y17977D1*
X30535Y17961D1*
X30476Y17957D1*
X28240D1*
X28164Y17963D1*
X28090Y17982D1*
X28020Y18012D1*
X27956Y18054D1*
X27912Y18093D1*
X26519Y19485D1*
X26384Y19348D1*
X26326Y19299D1*
X26260Y19260D1*
X26190Y19232D1*
X26115Y19216D1*
X26056Y19212D1*
X24203D1*
X24127Y19219D1*
X24054Y19237D1*
X23984Y19268D1*
X23920Y19309D1*
X23876Y19348D1*
X19624Y23600D1*
X15404Y23599D1*
X15328Y23605D1*
X15254Y23624D1*
X15184Y23654D1*
X15120Y23696D1*
X15076Y23735D1*
X14488Y24322D1*
X14490Y23736D1*
X11471D1*
Y29235D1*
X11547D1*
X25770Y20883D2*
X25757Y20808D1*
X25736Y20735D1*
X25707Y20664D1*
X25671Y20598D1*
X25627Y20535D1*
X25576Y20478D1*
X25520Y20427D1*
X25458Y20382D1*
X25392Y20345D1*
X25322Y20315D1*
X25249Y20293D1*
X25174Y20280D1*
X25098Y20275D1*
X25022Y20278D1*
X24946Y20289D1*
X24873Y20309D1*
X24802Y20337D1*
X24735Y20373D1*
X24672Y20416D1*
X24614Y20466D1*
X24562Y20522D1*
X24517Y20583D1*
X24479Y20649D1*
X24448Y20718D1*
X24425Y20791D1*
X24411Y20866D1*
X24405Y20942D1*
X24407Y21018D1*
X24418Y21093D1*
X24437Y21167D1*
X24464Y21238D1*
X24499Y21306D1*
X24541Y21369D1*
X24590Y21428D1*
X24645Y21480D1*
X24706Y21526D1*
X24771Y21565D1*
X24840Y21597D1*
X24913Y21621D1*
X24987Y21636D1*
X25063Y21643D1*
X25139Y21642D1*
X25215Y21632D1*
X25289Y21614D1*
X25360Y21588D1*
X25428Y21554D1*
X25492Y21513D1*
X25551Y21464D1*
X25604Y21410D1*
X25651Y21350D1*
X25691Y21285D1*
X25724Y21216D1*
X25748Y21144D1*
X25765Y21070D1*
X25774Y20959D1*
X25770Y20883D1*
X28770D2*
X28757Y20808D1*
X28736Y20735D1*
X28707Y20664D1*
X28671Y20598D1*
X28627Y20535D1*
X28576Y20478D1*
X28520Y20427D1*
X28458Y20382D1*
X28392Y20345D1*
X28322Y20315D1*
X28249Y20293D1*
X28174Y20280D1*
X28098Y20275D1*
X28022Y20278D1*
X27946Y20289D1*
X27873Y20309D1*
X27802Y20337D1*
X27735Y20373D1*
X27672Y20416D1*
X27614Y20466D1*
X27562Y20522D1*
X27517Y20583D1*
X27479Y20649D1*
X27448Y20718D1*
X27425Y20791D1*
X27411Y20866D1*
X27405Y20942D1*
X27407Y21018D1*
X27418Y21093D1*
X27437Y21167D1*
X27464Y21238D1*
X27499Y21306D1*
X27541Y21369D1*
X27590Y21428D1*
X27645Y21480D1*
X27706Y21526D1*
X27771Y21565D1*
X27840Y21597D1*
X27913Y21621D1*
X27987Y21636D1*
X28063Y21643D1*
X28139Y21642D1*
X28215Y21632D1*
X28289Y21614D1*
X28360Y21588D1*
X28428Y21554D1*
X28492Y21513D1*
X28551Y21464D1*
X28604Y21410D1*
X28651Y21350D1*
X28691Y21285D1*
X28724Y21216D1*
X28748Y21144D1*
X28765Y21070D1*
X28774Y20959D1*
X28770Y20883D1*
X20029Y21542D2*
X19953Y21561D1*
X19882Y21589D1*
X19816Y21627D1*
X19756Y21674D1*
X19702Y21728D1*
X19656Y21789D1*
X19619Y21855D1*
X19591Y21926D1*
X19573Y22000D1*
X19565Y22075D1*
X19567Y22151D1*
X19579Y22227D1*
X19602Y22299D1*
X19634Y22369D1*
X19675Y22433D1*
X19724Y22491D1*
X19781Y22542D1*
X19843Y22585D1*
X19912Y22619D1*
X19984Y22643D1*
X20058Y22658D1*
X20134Y22662D1*
X20210Y22657D1*
X20285Y22641D1*
X20356Y22615D1*
X20424Y22580D1*
X20486Y22536D1*
X20542Y22484D1*
X20590Y22425D1*
X20630Y22360D1*
X20660Y22290D1*
X20685Y22196D1*
X22235Y20647D1*
X23527Y19355D1*
X23626Y19363D1*
X23702Y19357D1*
X23777Y19341D1*
X23848Y19315D1*
X23916Y19280D1*
X23978Y19236D1*
X24034Y19184D1*
X24082Y19125D1*
X24122Y19060D1*
X24152Y18991D1*
X24173Y18917D1*
X24186Y18798D1*
X24181Y18722D1*
X24166Y18647D1*
X24140Y18576D1*
X24106Y18508D1*
X24062Y18445D1*
X24011Y18389D1*
X23952Y18340D1*
X23888Y18300D1*
X23819Y18269D1*
X23746Y18247D1*
X23670Y18235D1*
X23594Y18234D1*
X23519Y18242D1*
X23445Y18261D1*
X23374Y18290D1*
X23308Y18328D1*
X23253Y18370D1*
X23166Y18417D1*
X23101Y18470D1*
X20028Y21543D1*
X37943Y48322D2*
X37894Y48249D1*
X37842Y48193D1*
X37784Y48144D1*
X37719Y48104D1*
X37650Y48072D1*
X37577Y48051D1*
X37502Y48039D1*
X37426Y48038D1*
X37350Y48046D1*
X37276Y48065D1*
X37206Y48094D1*
X37140Y48132D1*
X37079Y48178D1*
X37026Y48232D1*
X36980Y48293D1*
X36943Y48359D1*
X36915Y48430D1*
X36896Y48504D1*
X36888Y48580D1*
X36890Y48656D1*
X36903Y48731D1*
X36925Y48804D1*
X36957Y48873D1*
X36998Y48937D1*
X37047Y48995D1*
X37104Y49046D1*
X37167Y49089D1*
X37235Y49123D1*
X37307Y49148D1*
X37367Y49162D1*
X37432Y49201D1*
X37503Y49229D1*
X37578Y49245D1*
X37636Y49249D1*
X43747D1*
X43822Y49243D1*
X43896Y49224D1*
X43966Y49194D1*
X44030Y49152D1*
X44074Y49113D1*
X48990Y44198D1*
X49039Y44139D1*
X49078Y44074D1*
X49106Y44003D1*
X49122Y43929D1*
X49125Y43870D1*
Y37024D1*
X49162Y36966D1*
X49193Y36896D1*
X49214Y36823D1*
X49227Y36703D1*
X49222Y36627D1*
X49207Y36553D1*
X49181Y36481D1*
X49147Y36413D1*
X49103Y36350D1*
X49052Y36294D1*
X48993Y36246D1*
X48929Y36205D1*
X48859Y36174D1*
X48786Y36152D1*
X48711Y36140D1*
X48635Y36139D1*
X48559Y36148D1*
X48486Y36167D1*
X48415Y36195D1*
X48349Y36233D1*
X48289Y36279D1*
X48235Y36334D1*
X48189Y36394D1*
X48152Y36461D1*
X48124Y36532D1*
X48106Y36605D1*
X48098Y36681D1*
X48100Y36757D1*
X48112Y36832D1*
X48135Y36905D1*
X48167Y36974D1*
X48199Y37024D1*
Y43678D1*
X43554Y48323D1*
X37943Y48322D1*
X31197Y27665D2*
X31596Y27265D1*
X31995Y27665D2*
X31197Y26866D1*
X32097Y27665D2*
X32496Y27265D1*
X32895Y27665D2*
X32496Y27265D1*
X32997Y27665D2*
X33795Y26866D1*
Y27665D2*
X33396Y27265D1*
X31197Y26765D2*
X31596Y26365D1*
X31197Y25966D1*
X33396Y26365D2*
X33795Y25966D1*
Y26765D2*
X33396Y26365D1*
X31197Y25865D2*
X31995Y25066D1*
X31596Y25465D2*
X31197Y25066D1*
X32496Y25465D2*
X32895Y25066D1*
X32496Y25465D2*
X32097Y25066D1*
X33396Y25465D2*
X33795Y25066D1*
Y25865D2*
X32997Y25066D1*
X22412Y29234D2*
X30829Y23737D1*
Y29234D2*
X22412Y23737D1*
X21888Y39711D2*
X22477Y39121D1*
X22743Y40566D2*
X21033Y38856D1*
X21446Y40153D2*
X20591Y39298D1*
D25*
X31596Y27265D3*
X32496D3*
X33396D3*
X31596Y26365D3*
X32496D3*
X33396D3*
X31596Y25465D3*
X32496D3*
X33396D3*
D37*
X12980Y26485D3*
X40260D3*
D38*
X26620D3*
G36*
X11758Y31587D2*
X13172Y33001D1*
X14056Y32117D1*
X12642Y30703D1*
X11758Y31587D1*
G37*
D43*
X12465Y32294D3*
G36*
X13387Y34052D2*
X14801Y35467D1*
X15685Y34583D1*
X14270Y33168D1*
X13387Y34052D1*
G37*
D43*
X14094Y34759D3*
G36*
X15273Y36460D2*
X16688Y37874D1*
X17571Y36991D1*
X16157Y35576D1*
X15273Y36460D1*
G37*
D43*
X15980Y37167D3*
G36*
X17872Y38222D2*
X19286Y39636D1*
X20170Y38752D1*
X18756Y37338D1*
X17872Y38222D1*
G37*
D43*
X18579Y38929D3*
G36*
X20739Y39446D2*
X22153Y40860D1*
X23037Y39976D1*
X21623Y38562D1*
X20739Y39446D1*
G37*
D43*
X21446Y40153D3*
G36*
X26618Y35469D2*
X27568Y35614D1*
X28308Y35914D1*
X28778Y36294D1*
X29158Y36679D1*
X29473Y37239D1*
X29603Y37564D1*
X29703Y38044D1*
X29753Y38294D1*
X29778Y38709D1*
X29663Y39034D1*
X29473Y39224D1*
X29348Y39349D1*
X29283Y39669D1*
X29308Y39799D1*
X29383Y40049D1*
X29538Y40189D1*
X29128Y40684D1*
X28748Y40434D1*
X28658D1*
X28478Y40874D1*
X28203Y40849D1*
X27698Y40989D1*
X28228Y39724D1*
Y39564D1*
X28193Y39349D1*
X28078Y39299D1*
X27823Y39399D1*
X27508Y39979D1*
X27153Y40834D1*
X26898Y40709D1*
X26628Y40389D1*
X26998Y39439D1*
X26808Y39469D1*
X26618D1*
Y35469D1*
G37*
M02*
