G04 DipTrace 2.4.0.2*
%INmale.gtl*%
%MOMM*%
%ADD10C,0.25*%
%ADD13C,0.508*%
%ADD14C,0.4*%
%ADD15C,0.254*%
%ADD16C,0.305*%
%ADD17C,0.28*%
%ADD18C,0.152*%
%ADD23O,1.0X0.28*%
%ADD24O,0.28X1.0*%
%ADD25C,0.711*%
%ADD26R,2.7X2.7*%
%ADD28R,0.4X0.9*%
%ADD31O,1.0X1.5*%
%ADD32R,1.1X1.0*%
%ADD33R,1.0X1.1*%
%ADD34R,0.85X2.0*%
%ADD36O,1.5X1.0*%
%ADD39R,0.9X0.7*%
%ADD40R,0.7X0.9*%
%ADD41R,0.25X0.275*%
%ADD42R,0.275X0.25*%
%ADD45C,0.711*%
%FSLAX53Y53*%
G04*
G71*
G90*
G75*
G01*
%LNTop*%
%LPD*%
X19547Y22230D2*
D13*
Y22494D1*
X19068Y22973D1*
Y23656D1*
D14*
X19077Y23665D1*
Y24369D1*
D13*
Y25161D1*
D14*
Y25865D1*
Y26569D1*
D13*
Y27869D1*
X19022Y27923D1*
X20129Y22097D2*
X19680D1*
X19547Y22230D1*
X24339Y19209D2*
X24032D1*
X23621Y18798D1*
X22917Y30850D2*
D15*
Y29779D1*
X22744Y29606D1*
X24001Y29614D2*
X23341D1*
X22752D1*
X22744Y29606D1*
X23417Y30850D2*
Y30199D1*
X24001Y29614D1*
X25271Y29769D2*
X24156D1*
X24001Y29614D1*
X24435Y31008D2*
Y30606D1*
X25271Y29769D1*
X23341Y29645D2*
Y29614D1*
X25418Y34220D2*
Y33498D1*
Y31992D1*
X24435Y31008D1*
X25418Y33498D2*
X23512D1*
X22921Y32907D1*
Y32354D1*
X22917Y32350D1*
X22921Y32907D2*
Y33078D1*
X22446Y32603D1*
D10*
Y32379D1*
X22417Y32350D1*
X19022Y27923D2*
D13*
Y29399D1*
X19196Y29573D1*
X36230Y23985D2*
Y24831D1*
X36930Y25532D1*
X40358D1*
X40837Y25053D1*
Y20017D1*
X37133Y16313D1*
X36134D1*
X34138Y18310D1*
X32277D1*
X31706Y17739D1*
X37133Y16313D2*
X32996Y12176D1*
X27925D1*
X26417Y13684D1*
Y14580D1*
X24121Y16876D1*
X27925Y12176D2*
X19786D1*
X16563Y15399D1*
Y17554D1*
X17942Y18932D1*
Y20625D1*
X17292Y21275D1*
X16563Y15399D2*
X12359Y19603D1*
Y24763D1*
X13696Y26100D1*
X14126D1*
X16115Y28089D1*
X17011Y28985D1*
X12359Y24763D2*
X12276Y24679D1*
Y32984D1*
X14710Y35418D1*
X16563D1*
X18052Y33929D1*
X19892D1*
X20827Y34865D1*
X14710Y35418D2*
X20012Y40720D1*
X25490D1*
X26560Y39650D1*
Y38655D1*
X29121Y36094D1*
X25490Y40720D2*
X32436D1*
X34338Y38817D1*
X35878Y37278D1*
Y35337D1*
X34813Y34272D1*
Y31758D1*
X35242Y31329D1*
X36230Y23985D2*
X35280D1*
X34090Y22794D1*
X31444D1*
X28619Y25619D1*
Y26615D1*
D16*
X30446D1*
X28619D2*
D13*
X26622D1*
X23872D1*
X22859Y25603D1*
X21939D1*
D14*
X21677Y25865D1*
X27476Y30484D2*
D13*
Y28418D1*
X28568Y27326D1*
Y26564D1*
X28619Y26615D1*
X20377Y23665D2*
D14*
Y24141D1*
D13*
X21152Y24916D1*
Y25340D1*
X21356Y25544D1*
D14*
X21677Y25865D1*
X34338Y38817D2*
D13*
X35210D1*
X38822Y42430D1*
X39752D1*
X41758Y40424D1*
X43417D1*
X44222Y41229D1*
X38822Y42430D2*
X42510Y46118D1*
X40279D1*
X39309Y47087D1*
Y48361D1*
X36935Y50735D1*
X36010D1*
X42510Y46118D2*
X44743Y48351D1*
X46309D1*
X47092Y47568D1*
X50561D1*
X50586Y47593D1*
X50870Y40633D2*
Y41783D1*
X48804Y43849D1*
Y45855D1*
X47092Y47568D1*
X26130Y26785D2*
X26453D1*
X26622Y26615D1*
X15780Y27784D2*
X16115Y28089D1*
X35242Y21275D2*
X33519D1*
X29121Y16876D1*
X31706Y34865D2*
Y33508D1*
X33289Y31926D1*
X36230Y28985D1*
X31706Y33508D2*
Y33420D1*
X31406D1*
X29737Y35089D1*
X25126D1*
X25000Y35214D1*
X24121Y36094D1*
X25000Y35214D2*
X22725D1*
X22581D1*
X18072Y30705D1*
X17916D1*
X17292Y31329D1*
X18072Y30705D2*
Y25045D1*
X17011Y23985D1*
X18072Y25045D2*
X17773D1*
Y22085D1*
X19958Y19900D1*
Y19733D1*
Y19280D1*
X21498Y17739D1*
X20827D1*
Y17934D1*
X28063D1*
X29121Y16876D1*
X21677Y23665D2*
D14*
X22131D1*
D13*
X22621D1*
X22859Y23903D1*
X21677Y23665D2*
D14*
Y22961D1*
D13*
Y22660D1*
X21247Y22230D1*
X21102Y22085D1*
Y18014D1*
X20827Y17739D1*
X30016Y30484D2*
X30119D1*
X30818Y31183D1*
X32546D1*
X33289Y31926D1*
X30446Y26115D2*
D16*
X29682D1*
X29486Y25920D1*
X30239Y19859D2*
D13*
Y22059D1*
X22939Y19859D2*
Y22059D1*
X19985Y19733D2*
X19958D1*
X30239Y19859D2*
Y22418D1*
X26024D1*
Y24464D1*
X31596Y25465D2*
X32496Y26365D1*
X30446Y26115D2*
D15*
X32246D1*
X32496Y26365D1*
X22166Y23698D2*
D14*
X22131Y23665D1*
X22859Y23903D2*
D13*
X22370D1*
X22166Y23698D1*
X32496Y26365D2*
Y27265D1*
X30446Y26115D2*
D17*
X31200D1*
D13*
X32246D1*
X32496Y26365D1*
X26024Y22418D2*
X23298D1*
X22939Y22059D1*
X36230Y28985D2*
Y29709D1*
X37061Y30540D1*
X37336D1*
X39941Y33145D1*
Y35597D1*
X40731Y36387D1*
Y37649D1*
X40687Y37693D1*
X40731Y36387D2*
X46236Y41892D1*
X47043Y42699D1*
Y44049D1*
X47051Y44057D1*
X46236Y41892D2*
Y39616D1*
X47826Y38026D1*
X48477D1*
X50870Y35633D1*
X41010Y50735D2*
X42332D1*
X43618Y52021D1*
X48951D1*
X51804Y49167D1*
Y36567D1*
X50870Y35633D1*
X21917Y31350D2*
D15*
X21567D1*
X21105Y30888D1*
Y30851D1*
X20945Y30691D1*
X25271Y28469D2*
Y28253D1*
X24339D1*
X24001Y27914D1*
X22744Y28306D2*
Y28115D1*
X22943Y27916D1*
X23075Y27784D1*
X23870D1*
X24001Y27914D1*
X20945Y30691D2*
Y30305D1*
X21789D1*
X21936Y30158D1*
Y28874D1*
X22533Y28276D1*
X22714D1*
X22744Y28306D1*
X22417Y30850D2*
Y30639D1*
X22082Y30305D1*
X21789D1*
X23235Y27836D2*
X23155Y27916D1*
X22943D1*
X26024Y24464D2*
D13*
Y25379D1*
X26130Y25485D1*
X22725Y35299D2*
Y35214D1*
X20722Y27923D2*
Y26210D1*
D14*
X20377Y25865D1*
X27476Y31754D2*
D15*
X26709D1*
X26365Y32098D1*
X31246Y28415D2*
X29562D1*
X28260Y29717D1*
X32246Y28415D2*
D16*
Y29821D1*
X32403Y29978D1*
X28746Y31754D2*
Y32287D1*
X28637Y32396D1*
X31746Y28415D2*
Y29266D1*
X30995D1*
X30495Y29766D1*
X29959D1*
X29529D1*
X28811Y30484D1*
X28746D1*
X29959Y29562D2*
Y29766D1*
X34546Y27615D2*
X35300D1*
Y27749D1*
X36843D1*
X38080Y28985D1*
X34546Y27115D2*
X35300D1*
Y27004D1*
X37949D1*
X39930Y28985D1*
X25839Y19209D2*
D13*
Y19391D1*
X26663Y20215D1*
X39930Y23985D2*
Y20730D1*
X37858Y18659D1*
X38080Y23985D2*
Y21496D1*
X36550Y19967D1*
X34323Y15123D2*
X34231D1*
X32698Y13590D1*
X29534D1*
X29121Y13176D1*
X33015Y16431D2*
X32634D1*
X31446Y15243D1*
X29338D1*
X29121Y15026D1*
X24121Y13176D2*
X20158D1*
X18211Y15123D1*
X24121Y15026D2*
X20924D1*
X19519Y16431D1*
X15161Y23985D2*
Y20789D1*
X15984Y19967D1*
X13311Y23985D2*
Y20023D1*
X14675Y18659D1*
X13311Y28985D2*
Y32581D1*
X14675Y33945D1*
X15161Y28985D2*
Y31815D1*
X15984Y32637D1*
X24121Y37944D2*
X21291D1*
X19519Y36173D1*
X24121Y39794D2*
X20524D1*
X18211Y37481D1*
X29121Y39794D2*
X32009D1*
X34323Y37481D1*
X29121Y37944D2*
X31243D1*
X33015Y36173D1*
X37858Y33945D2*
Y36886D1*
X37012Y37733D1*
Y39251D1*
X38070Y40310D1*
X36550Y32637D2*
X36774D1*
X37354Y32057D1*
X37736D1*
X39214Y33535D1*
Y37097D1*
X38676Y37635D1*
Y38298D1*
X39379Y39001D1*
X41606Y43845D2*
X44434Y46674D1*
X42914Y42537D2*
X45743Y45365D1*
X49278Y48901D2*
Y50715D1*
X48657Y51336D1*
X44400D1*
X42003Y48938D1*
X41063D1*
X41010Y48885D1*
X47970Y50209D2*
X44889D1*
X42003Y47323D1*
X41298D1*
X41010Y47035D1*
X47284Y36795D2*
Y35747D1*
X47170Y35633D1*
X37407Y46948D2*
X36098D1*
X36010Y47035D1*
X48662Y36703D2*
Y35991D1*
X49020Y35633D1*
X37453Y48602D2*
X36294D1*
X36010Y48885D1*
X23417Y32350D2*
D15*
X23678D1*
X23720Y32308D1*
X24435D1*
X23868Y32435D2*
X23720Y32308D1*
X33746Y28415D2*
Y29536D1*
X34171Y29961D1*
X21992Y33531D2*
X21917D1*
Y32350D1*
X21992Y33531D2*
X22417D1*
X23030Y34144D1*
X24042D1*
X24118Y34220D1*
X33246Y28415D2*
Y29250D1*
X33090Y29407D1*
X21917Y31850D2*
X21086D1*
X20945Y31991D1*
D45*
X26024Y24464D3*
X29959Y29562D3*
X15780Y27784D3*
X22725Y35299D3*
X26365Y32098D3*
X28637Y32396D3*
X32403Y29978D3*
X28260Y29717D3*
X29486Y25920D3*
X20129Y22097D3*
X19985Y19733D3*
X22166Y23698D3*
X23621Y18798D3*
X26663Y20215D3*
X37453Y48602D3*
X37407Y46948D3*
X47284Y36795D3*
X48662Y36703D3*
X23868Y32435D3*
X21992Y33531D3*
X23341Y29645D3*
X23235Y27836D3*
X34171Y29961D3*
X33090Y29407D3*
X19196Y29573D3*
X35373Y51635D2*
D18*
X42562D1*
X35373Y51486D2*
X42412D1*
X43753D2*
X43882D1*
X36652Y51337D2*
X40369D1*
X41650D2*
X42265D1*
X43603D2*
X43732D1*
X36821Y51188D2*
X40200D1*
X43455D2*
X43582D1*
X36916Y51039D2*
X40105D1*
X43305D2*
X43434D1*
X36968Y50890D2*
X40053D1*
X43157D2*
X43284D1*
X36985Y50740D2*
X40036D1*
X43007D2*
X43136D1*
X44476D2*
X47484D1*
X36971Y50591D2*
X40050D1*
X42857D2*
X42986D1*
X44326D2*
X44613D1*
X36921Y50442D2*
X40100D1*
X42710D2*
X42836D1*
X44176D2*
X44453D1*
X49756D2*
X49859D1*
X36830Y50293D2*
X40191D1*
X42486D2*
X42689D1*
X44029D2*
X44303D1*
X49756D2*
X50009D1*
X36668Y50144D2*
X40353D1*
X41667D2*
X42539D1*
X43879D2*
X44153D1*
X49756D2*
X50156D1*
X35373Y49995D2*
X42391D1*
X43731D2*
X44005D1*
X49756D2*
X50306D1*
X35373Y49846D2*
X42241D1*
X43581D2*
X43855D1*
X48625D2*
X48799D1*
X49756D2*
X50456D1*
X35373Y49697D2*
X42091D1*
X43431D2*
X43708D1*
X45046D2*
X47158D1*
X48475D2*
X48799D1*
X49808D2*
X50604D1*
X35373Y49548D2*
X35492D1*
X36528D2*
X40493D1*
X41526D2*
X41943D1*
X43283D2*
X43558D1*
X44898D2*
X47277D1*
X48327D2*
X48799D1*
X49984D2*
X50754D1*
X36764Y49399D2*
X40257D1*
X43133D2*
X43408D1*
X44748D2*
X47480D1*
X48110D2*
X48758D1*
X50096D2*
X50902D1*
X36883Y49250D2*
X40136D1*
X42986D2*
X43260D1*
X44600D2*
X48608D1*
X50149D2*
X51052D1*
X36952Y49101D2*
X37174D1*
X37733D2*
X40069D1*
X42836D2*
X43110D1*
X44450D2*
X48501D1*
X50172D2*
X51202D1*
X37911Y48952D2*
X40038D1*
X42686D2*
X42962D1*
X44300D2*
X48416D1*
X50156D2*
X51325D1*
X37995Y48803D2*
X40041D1*
X42538D2*
X42812D1*
X44153D2*
X48394D1*
X50120D2*
X51325D1*
X38030Y48654D2*
X40074D1*
X42388D2*
X42662D1*
X44003D2*
X48380D1*
X50027D2*
X51325D1*
X38023Y48504D2*
X40148D1*
X42181D2*
X42515D1*
X43855D2*
X48425D1*
X49899D2*
X51325D1*
X37976Y48355D2*
X40274D1*
X41748D2*
X42365D1*
X43705D2*
X48480D1*
X49751D2*
X50371D1*
X51175D2*
X51325D1*
X35373Y48206D2*
X35540D1*
X37871D2*
X40541D1*
X41481D2*
X42217D1*
X43555D2*
X48618D1*
X49599D2*
X50182D1*
X35373Y48057D2*
X37288D1*
X37616D2*
X42067D1*
X43407D2*
X48882D1*
X49358D2*
X50032D1*
X35373Y47908D2*
X41917D1*
X43257D2*
X49885D1*
X35373Y47759D2*
X41127D1*
X43110D2*
X49787D1*
X36690Y47610D2*
X40331D1*
X42960D2*
X49716D1*
X36842Y47461D2*
X37157D1*
X37657D2*
X40179D1*
X42810D2*
X44258D1*
X44986D2*
X49699D1*
X37854Y47312D2*
X40093D1*
X42662D2*
X44055D1*
X45150D2*
X49694D1*
X37945Y47163D2*
X40048D1*
X42512D2*
X43905D1*
X45255D2*
X49744D1*
X51175D2*
X51325D1*
X37983Y47014D2*
X40036D1*
X42364D2*
X43758D1*
X45308D2*
X49813D1*
X51025D2*
X51325D1*
X37980Y46865D2*
X40057D1*
X42083D2*
X43651D1*
X45329D2*
X49961D1*
X50856D2*
X51325D1*
X37938Y46716D2*
X40112D1*
X41909D2*
X43570D1*
X45312D2*
X50290D1*
X50427D2*
X51325D1*
X37838Y46567D2*
X40212D1*
X41807D2*
X43548D1*
X45272D2*
X51325D1*
X37616Y46418D2*
X40398D1*
X41624D2*
X43508D1*
X45177D2*
X51325D1*
X42693Y46268D2*
X43360D1*
X45048D2*
X51325D1*
X42538Y46119D2*
X43210D1*
X44898D2*
X45513D1*
X46341D2*
X51325D1*
X42386Y45970D2*
X43060D1*
X44743D2*
X45329D1*
X46491D2*
X51325D1*
X42231Y45821D2*
X42912D1*
X44486D2*
X45179D1*
X46574D2*
X51325D1*
X42079Y45672D2*
X42762D1*
X44103D2*
X45034D1*
X46627D2*
X51325D1*
X41924Y45523D2*
X42615D1*
X43955D2*
X44939D1*
X46634D2*
X51325D1*
X41771Y45374D2*
X42465D1*
X43805D2*
X44870D1*
X46617D2*
X51325D1*
X41619Y45225D2*
X42315D1*
X43655D2*
X44853D1*
X46558D2*
X51325D1*
X41464Y45076D2*
X42167D1*
X43507D2*
X44784D1*
X46465D2*
X51325D1*
X41312Y44927D2*
X42017D1*
X43357D2*
X44634D1*
X46322D2*
X47142D1*
X47372D2*
X51325D1*
X41157Y44778D2*
X41869D1*
X43210D2*
X44484D1*
X46172D2*
X46768D1*
X47684D2*
X51325D1*
X41005Y44629D2*
X41424D1*
X43060D2*
X44336D1*
X45998D2*
X46603D1*
X47832D2*
X51325D1*
X40850Y44480D2*
X41222D1*
X42910D2*
X44186D1*
X45527D2*
X46456D1*
X47894D2*
X51325D1*
X40697Y44331D2*
X41074D1*
X42762D2*
X44039D1*
X45377D2*
X46320D1*
X47944D2*
X51325D1*
X40545Y44182D2*
X40924D1*
X42612D2*
X43889D1*
X45229D2*
X46225D1*
X47939D2*
X51325D1*
X40390Y44032D2*
X40819D1*
X42500D2*
X43739D1*
X45079D2*
X46175D1*
X47920D2*
X51325D1*
X40238Y43883D2*
X40738D1*
X42483D2*
X43591D1*
X44931D2*
X46158D1*
X47846D2*
X51325D1*
X40083Y43734D2*
X40719D1*
X42440D2*
X43441D1*
X44781D2*
X46172D1*
X47746D2*
X51325D1*
X39931Y43585D2*
X40710D1*
X42345D2*
X43293D1*
X44631D2*
X46225D1*
X47596D2*
X51325D1*
X39776Y43436D2*
X40757D1*
X42214D2*
X43143D1*
X44484D2*
X46318D1*
X47520D2*
X51325D1*
X39623Y43287D2*
X40817D1*
X42067D2*
X42679D1*
X44334D2*
X46470D1*
X47520D2*
X51325D1*
X39471Y43138D2*
X40960D1*
X41909D2*
X42498D1*
X44186D2*
X46565D1*
X47520D2*
X51325D1*
X39316Y42989D2*
X41246D1*
X41636D2*
X42348D1*
X44036D2*
X46565D1*
X47520D2*
X51325D1*
X26353Y42840D2*
X26568D1*
X39164D2*
X42203D1*
X43886D2*
X46513D1*
X47520D2*
X51325D1*
X26238Y42691D2*
X26670D1*
X30887D2*
X30994D1*
X39009D2*
X42108D1*
X43805D2*
X46365D1*
X47520D2*
X51325D1*
X26124Y42542D2*
X26791D1*
X30768D2*
X31087D1*
X38857D2*
X42041D1*
X43788D2*
X46215D1*
X47494D2*
X51325D1*
X26010Y42393D2*
X26932D1*
X30627D2*
X31178D1*
X38702D2*
X42024D1*
X43726D2*
X46068D1*
X47405D2*
X51325D1*
X25896Y42244D2*
X27099D1*
X30460D2*
X31271D1*
X38550D2*
X42024D1*
X43633D2*
X45918D1*
X47258D2*
X51325D1*
X25726Y42095D2*
X27299D1*
X30260D2*
X31385D1*
X38397D2*
X42077D1*
X43491D2*
X44279D1*
X44553D2*
X45768D1*
X47108D2*
X51325D1*
X25543Y41946D2*
X27549D1*
X30010D2*
X31523D1*
X38242D2*
X42153D1*
X43341D2*
X43934D1*
X44860D2*
X45620D1*
X46960D2*
X51325D1*
X25360Y41796D2*
X27889D1*
X29670D2*
X31663D1*
X38090D2*
X42300D1*
X43164D2*
X43772D1*
X45005D2*
X45470D1*
X46810D2*
X51325D1*
X25176Y41647D2*
X28677D1*
X28882D2*
X31802D1*
X37935D2*
X43622D1*
X45067D2*
X45322D1*
X46715D2*
X51325D1*
X24960Y41498D2*
X32002D1*
X37783D2*
X43489D1*
X47586D2*
X48604D1*
X49437D2*
X50502D1*
X51237D2*
X51328D1*
X24650Y41349D2*
X32211D1*
X37628D2*
X43393D1*
X47753D2*
X48437D1*
X49603D2*
X50321D1*
X24343Y41200D2*
X32421D1*
X37476D2*
X43346D1*
X47848D2*
X48342D1*
X49699D2*
X50221D1*
X23976Y41051D2*
X32754D1*
X37321D2*
X37821D1*
X38683D2*
X43329D1*
X47901D2*
X48289D1*
X49751D2*
X50166D1*
X23298Y40902D2*
X33083D1*
X37168D2*
X37645D1*
X38831D2*
X43346D1*
X47920D2*
X48270D1*
X49770D2*
X50147D1*
X20959Y40753D2*
X33380D1*
X37016D2*
X37495D1*
X38907D2*
X43396D1*
X47920D2*
X48270D1*
X49770D2*
X50147D1*
X20319Y40604D2*
X33678D1*
X36861D2*
X37352D1*
X38959D2*
X43493D1*
X47920D2*
X48270D1*
X49770D2*
X50147D1*
X19878Y40455D2*
X23598D1*
X24643D2*
X28599D1*
X29644D2*
X33976D1*
X36709D2*
X37259D1*
X38959D2*
X43648D1*
X47920D2*
X48270D1*
X49770D2*
X50147D1*
X19509Y40306D2*
X23365D1*
X24876D2*
X28365D1*
X29877D2*
X34276D1*
X36554D2*
X37197D1*
X38942D2*
X43979D1*
X47915D2*
X48275D1*
X49765D2*
X50151D1*
X19190Y40157D2*
X20222D1*
X24995D2*
X28246D1*
X32313D2*
X34573D1*
X36402D2*
X37181D1*
X38878D2*
X43832D1*
X47884D2*
X48306D1*
X49734D2*
X50182D1*
X18921Y40008D2*
X20067D1*
X25062D2*
X28180D1*
X32465D2*
X34871D1*
X36247D2*
X37097D1*
X38783D2*
X43682D1*
X47817D2*
X48375D1*
X49668D2*
X50254D1*
X18666Y39859D2*
X19919D1*
X25091D2*
X28149D1*
X32615D2*
X35169D1*
X36094D2*
X36950D1*
X38638D2*
X39360D1*
X39735D2*
X43532D1*
X47698D2*
X48492D1*
X49549D2*
X50378D1*
X18404Y39710D2*
X19769D1*
X25091D2*
X28151D1*
X32763D2*
X35466D1*
X35942D2*
X36800D1*
X38488D2*
X39076D1*
X40024D2*
X43384D1*
X47477D2*
X48713D1*
X49327D2*
X50635D1*
X51106D2*
X51325D1*
X18140Y39560D2*
X19621D1*
X25055D2*
X28187D1*
X32913D2*
X36652D1*
X38307D2*
X38919D1*
X40166D2*
X43234D1*
X46962D2*
X51325D1*
X17876Y39411D2*
X19471D1*
X24984D2*
X28258D1*
X33063D2*
X36562D1*
X37842D2*
X38771D1*
X40226D2*
X43086D1*
X47110D2*
X51325D1*
X17623Y39262D2*
X19321D1*
X20662D2*
X23386D1*
X24855D2*
X28387D1*
X29856D2*
X31871D1*
X33211D2*
X36533D1*
X37692D2*
X38638D1*
X40274D2*
X42936D1*
X47260D2*
X51325D1*
X17395Y39113D2*
X19174D1*
X20514D2*
X23658D1*
X24583D2*
X28658D1*
X29584D2*
X32021D1*
X33361D2*
X36533D1*
X37545D2*
X38545D1*
X40264D2*
X42786D1*
X47408D2*
X51325D1*
X17166Y38964D2*
X19024D1*
X20364D2*
X32168D1*
X33508D2*
X36533D1*
X37490D2*
X38502D1*
X40245D2*
X42639D1*
X47558D2*
X51325D1*
X16937Y38815D2*
X18876D1*
X20216D2*
X32318D1*
X33658D2*
X36533D1*
X37490D2*
X38486D1*
X40164D2*
X42489D1*
X47708D2*
X51325D1*
X16735Y38666D2*
X18726D1*
X20066D2*
X32468D1*
X33808D2*
X36533D1*
X37490D2*
X38374D1*
X40062D2*
X42341D1*
X47855D2*
X51325D1*
X16537Y38517D2*
X18576D1*
X19916D2*
X23439D1*
X24803D2*
X28437D1*
X29803D2*
X32616D1*
X33956D2*
X36533D1*
X37490D2*
X38252D1*
X39912D2*
X40569D1*
X41138D2*
X42191D1*
X48005D2*
X51325D1*
X16337Y38368D2*
X18428D1*
X19769D2*
X21088D1*
X24955D2*
X28287D1*
X31444D2*
X32766D1*
X34106D2*
X36533D1*
X37490D2*
X38202D1*
X39764D2*
X40343D1*
X41367D2*
X42041D1*
X48806D2*
X51325D1*
X16142Y38219D2*
X17957D1*
X19619D2*
X20895D1*
X25038D2*
X28201D1*
X31639D2*
X32914D1*
X34578D2*
X36533D1*
X37490D2*
X38198D1*
X39562D2*
X40195D1*
X41493D2*
X41893D1*
X48956D2*
X51325D1*
X15968Y38070D2*
X17783D1*
X19471D2*
X20745D1*
X25084D2*
X28158D1*
X31787D2*
X33064D1*
X34751D2*
X36533D1*
X37490D2*
X38198D1*
X39154D2*
X40045D1*
X41548D2*
X41743D1*
X49103D2*
X51325D1*
X15792Y37921D2*
X17633D1*
X19321D2*
X20598D1*
X25095D2*
X28146D1*
X31937D2*
X33214D1*
X34901D2*
X36533D1*
X37495D2*
X38198D1*
X39154D2*
X39926D1*
X49253D2*
X51325D1*
X15618Y37772D2*
X17490D1*
X19171D2*
X20448D1*
X25074D2*
X28168D1*
X32084D2*
X33361D1*
X35044D2*
X36533D1*
X37642D2*
X38198D1*
X39209D2*
X39834D1*
X49401D2*
X51325D1*
X15444Y37623D2*
X17397D1*
X19099D2*
X20300D1*
X25017D2*
X28223D1*
X32234D2*
X33433D1*
X35137D2*
X36547D1*
X37792D2*
X38198D1*
X39357D2*
X39805D1*
X49551D2*
X51325D1*
X15292Y37474D2*
X17338D1*
X19083D2*
X20150D1*
X21490D2*
X23324D1*
X24917D2*
X28325D1*
X29915D2*
X31044D1*
X32384D2*
X33449D1*
X35197D2*
X36614D1*
X37940D2*
X38226D1*
X39507D2*
X39788D1*
X49701D2*
X51325D1*
X15139Y37324D2*
X17321D1*
X19016D2*
X20000D1*
X21340D2*
X23510D1*
X24731D2*
X28511D1*
X29729D2*
X31192D1*
X32532D2*
X33518D1*
X35213D2*
X36750D1*
X38090D2*
X38317D1*
X39633D2*
X39824D1*
X49849D2*
X51325D1*
X14987Y37175D2*
X17326D1*
X18921D2*
X19852D1*
X21193D2*
X31342D1*
X32682D2*
X33611D1*
X35209D2*
X36900D1*
X38235D2*
X38464D1*
X39685D2*
X39876D1*
X49999D2*
X51325D1*
X14835Y37026D2*
X17378D1*
X18773D2*
X19474D1*
X21043D2*
X31492D1*
X33058D2*
X33759D1*
X35156D2*
X37047D1*
X38314D2*
X38614D1*
X39693D2*
X40000D1*
X50146D2*
X51325D1*
X14692Y36877D2*
X17462D1*
X18626D2*
X19212D1*
X20893D2*
X31640D1*
X33323D2*
X33909D1*
X35073D2*
X37197D1*
X38335D2*
X38736D1*
X39693D2*
X40212D1*
X50296D2*
X51325D1*
X14558Y36728D2*
X17609D1*
X18442D2*
X19057D1*
X20745D2*
X23539D1*
X24703D2*
X28539D1*
X29703D2*
X31790D1*
X33477D2*
X34092D1*
X34923D2*
X37347D1*
X38335D2*
X38736D1*
X39693D2*
X40253D1*
X50446D2*
X51294D1*
X14425Y36579D2*
X18907D1*
X20595D2*
X23339D1*
X24903D2*
X28339D1*
X29903D2*
X31937D1*
X33625D2*
X37381D1*
X38335D2*
X38736D1*
X39693D2*
X40253D1*
X50594D2*
X50721D1*
X51020D2*
X51147D1*
X14292Y36430D2*
X18778D1*
X20447D2*
X23231D1*
X25010D2*
X28232D1*
X30010D2*
X32087D1*
X33756D2*
X37381D1*
X38335D2*
X38736D1*
X39693D2*
X40105D1*
X14156Y36281D2*
X18683D1*
X20404D2*
X23172D1*
X25069D2*
X28173D1*
X30070D2*
X32130D1*
X33849D2*
X37381D1*
X38335D2*
X38736D1*
X39693D2*
X39955D1*
X14037Y36132D2*
X18643D1*
X20385D2*
X23148D1*
X25093D2*
X28146D1*
X30094D2*
X32149D1*
X33892D2*
X37381D1*
X38335D2*
X38736D1*
X39693D2*
X39805D1*
X13920Y35983D2*
X18624D1*
X20304D2*
X23155D1*
X25086D2*
X28156D1*
X30087D2*
X32230D1*
X33908D2*
X37381D1*
X38335D2*
X38736D1*
X13804Y35834D2*
X18645D1*
X20197D2*
X22529D1*
X22919D2*
X23196D1*
X25050D2*
X28196D1*
X30046D2*
X32335D1*
X33887D2*
X37381D1*
X38335D2*
X38736D1*
X13685Y35685D2*
X18698D1*
X20050D2*
X20705D1*
X21288D2*
X22298D1*
X23152D2*
X23277D1*
X25200D2*
X28277D1*
X29965D2*
X31244D1*
X31830D2*
X32485D1*
X33835D2*
X37381D1*
X38335D2*
X38736D1*
X13568Y35536D2*
X18802D1*
X19900D2*
X20481D1*
X21509D2*
X22198D1*
X29872D2*
X31023D1*
X32053D2*
X32633D1*
X33732D2*
X37381D1*
X38335D2*
X38736D1*
X13465Y35387D2*
X18967D1*
X19697D2*
X20331D1*
X21636D2*
X22084D1*
X30108D2*
X30897D1*
X32201D2*
X32837D1*
X33568D2*
X37381D1*
X38335D2*
X38736D1*
X13363Y35238D2*
X20183D1*
X21688D2*
X21934D1*
X30258D2*
X30844D1*
X32351D2*
X37381D1*
X38335D2*
X38736D1*
X13261Y35088D2*
X20064D1*
X30408D2*
X30809D1*
X32470D2*
X37381D1*
X38335D2*
X38736D1*
X13158Y34939D2*
X19974D1*
X30556D2*
X30825D1*
X32561D2*
X37381D1*
X38335D2*
X38736D1*
X13056Y34790D2*
X14599D1*
X15066D2*
X19945D1*
X30706D2*
X30851D1*
X32587D2*
X37381D1*
X38335D2*
X38736D1*
X12963Y34641D2*
X14357D1*
X15332D2*
X19929D1*
X30853D2*
X30944D1*
X32604D2*
X37200D1*
X38335D2*
X38736D1*
X12875Y34492D2*
X14204D1*
X15473D2*
X19967D1*
X26093D2*
X29663D1*
X32568D2*
X37062D1*
X38335D2*
X38736D1*
X12787Y34343D2*
X14056D1*
X15528D2*
X20019D1*
X26093D2*
X29813D1*
X32515D2*
X37005D1*
X38478D2*
X38736D1*
X12696Y34194D2*
X13928D1*
X15573D2*
X20143D1*
X26093D2*
X29961D1*
X32389D2*
X36962D1*
X38604D2*
X38736D1*
X12608Y34045D2*
X13835D1*
X15559D2*
X20364D1*
X26093D2*
X30111D1*
X32184D2*
X36974D1*
X40419D2*
X40538D1*
X12522Y33896D2*
X13797D1*
X15540D2*
X20593D1*
X26093D2*
X30261D1*
X32184D2*
X36995D1*
X40419D2*
X40612D1*
X12449Y33747D2*
X13780D1*
X15454D2*
X20443D1*
X26093D2*
X30409D1*
X32184D2*
X37078D1*
X40419D2*
X40684D1*
X12372Y33598D2*
X13659D1*
X15347D2*
X20295D1*
X25769D2*
X30559D1*
X32287D2*
X37188D1*
X40419D2*
X40757D1*
X12296Y33449D2*
X13509D1*
X15197D2*
X15847D1*
X16471D2*
X20145D1*
X25769D2*
X30706D1*
X32437D2*
X36064D1*
X36687D2*
X37338D1*
X40419D2*
X40831D1*
X12220Y33300D2*
X13359D1*
X15047D2*
X15628D1*
X16675D2*
X19998D1*
X25769D2*
X30856D1*
X32584D2*
X35859D1*
X36906D2*
X37486D1*
X40419D2*
X40898D1*
X12144Y33151D2*
X13211D1*
X14839D2*
X15478D1*
X16794D2*
X19848D1*
X25769D2*
X31006D1*
X32735D2*
X35738D1*
X37054D2*
X37695D1*
X40419D2*
X40960D1*
X12075Y33002D2*
X13061D1*
X14401D2*
X15330D1*
X16847D2*
X19698D1*
X25769D2*
X31192D1*
X32882D2*
X35685D1*
X37204D2*
X38009D1*
X40397D2*
X41022D1*
X12010Y32852D2*
X12921D1*
X14254D2*
X15216D1*
X16880D2*
X19550D1*
X25769D2*
X28289D1*
X28984D2*
X31692D1*
X33032D2*
X35652D1*
X37318D2*
X37862D1*
X40314D2*
X41084D1*
X11949Y32703D2*
X12849D1*
X14104D2*
X15126D1*
X16863D2*
X19400D1*
X25769D2*
X28149D1*
X29125D2*
X30847D1*
X31725D2*
X31842D1*
X33182D2*
X35669D1*
X37409D2*
X37712D1*
X40169D2*
X41146D1*
X11884Y32554D2*
X12833D1*
X13954D2*
X15102D1*
X16835D2*
X19252D1*
X25769D2*
X26017D1*
X26712D2*
X28080D1*
X29194D2*
X30699D1*
X31873D2*
X31990D1*
X33330D2*
X35700D1*
X40021D2*
X41210D1*
X11820Y32405D2*
X12833D1*
X13806D2*
X15083D1*
X16742D2*
X19102D1*
X25769D2*
X25876D1*
X26853D2*
X28056D1*
X29217D2*
X30613D1*
X31956D2*
X32140D1*
X33480D2*
X35793D1*
X39871D2*
X41265D1*
X11756Y32256D2*
X12833D1*
X13789D2*
X14933D1*
X16621D2*
X18952D1*
X26922D2*
X27130D1*
X27822D2*
X28075D1*
X29198D2*
X29625D1*
X30406D2*
X30570D1*
X31999D2*
X32290D1*
X33663D2*
X35914D1*
X39721D2*
X41317D1*
X11701Y32107D2*
X12833D1*
X13789D2*
X14788D1*
X16471D2*
X17102D1*
X17859D2*
X18805D1*
X20145D2*
X20372D1*
X27977D2*
X28137D1*
X29248D2*
X29482D1*
X32011D2*
X32437D1*
X33778D2*
X34676D1*
X35432D2*
X36062D1*
X39573D2*
X41369D1*
X11649Y31958D2*
X12833D1*
X13789D2*
X14707D1*
X16323D2*
X16902D1*
X18016D2*
X18655D1*
X19995D2*
X20372D1*
X28058D2*
X28162D1*
X29327D2*
X29406D1*
X31987D2*
X32587D1*
X33928D2*
X34516D1*
X35630D2*
X36212D1*
X39423D2*
X41422D1*
X11596Y31809D2*
X12833D1*
X13789D2*
X14683D1*
X16094D2*
X16754D1*
X18116D2*
X18507D1*
X19845D2*
X20372D1*
X25715D2*
X25865D1*
X31930D2*
X32502D1*
X34075D2*
X34419D1*
X35780D2*
X36440D1*
X39276D2*
X41474D1*
X11541Y31660D2*
X12833D1*
X13789D2*
X14683D1*
X15675D2*
X16604D1*
X18168D2*
X18357D1*
X19697D2*
X20372D1*
X25576D2*
X25732D1*
X31827D2*
X32352D1*
X34225D2*
X34366D1*
X35928D2*
X37100D1*
X39126D2*
X41527D1*
X11489Y31511D2*
X12833D1*
X13789D2*
X14683D1*
X15640D2*
X16502D1*
X19547D2*
X20372D1*
X25429D2*
X25598D1*
X28041D2*
X28180D1*
X29310D2*
X29423D1*
X36030D2*
X37636D1*
X38976D2*
X41574D1*
X11437Y31362D2*
X12833D1*
X13789D2*
X14683D1*
X15640D2*
X16423D1*
X19400D2*
X20372D1*
X25279D2*
X25525D1*
X26889D2*
X27003D1*
X27948D2*
X28273D1*
X29217D2*
X29511D1*
X36111D2*
X37488D1*
X38828D2*
X41617D1*
X11394Y31213D2*
X12833D1*
X13789D2*
X14683D1*
X15640D2*
X16407D1*
X19249D2*
X20372D1*
X25129D2*
X25486D1*
X26924D2*
X27199D1*
X27753D2*
X28470D1*
X29022D2*
X29682D1*
X36128D2*
X37338D1*
X38678D2*
X41660D1*
X11351Y31064D2*
X12833D1*
X13789D2*
X14683D1*
X15640D2*
X16397D1*
X19099D2*
X20372D1*
X25010D2*
X25484D1*
X26929D2*
X27301D1*
X27651D2*
X28570D1*
X28922D2*
X29839D1*
X36137D2*
X37190D1*
X38530D2*
X41700D1*
X11310Y30915D2*
X12833D1*
X13789D2*
X14683D1*
X15640D2*
X16445D1*
X18952D2*
X20372D1*
X25010D2*
X25510D1*
X26900D2*
X27041D1*
X27910D2*
X28311D1*
X29182D2*
X29580D1*
X36090D2*
X36774D1*
X38380D2*
X41743D1*
X11268Y30766D2*
X12833D1*
X13789D2*
X14683D1*
X15640D2*
X16507D1*
X18802D2*
X20372D1*
X25010D2*
X25575D1*
X26836D2*
X26929D1*
X28022D2*
X28199D1*
X29294D2*
X29468D1*
X36028D2*
X36616D1*
X38230D2*
X41786D1*
X11225Y30616D2*
X12833D1*
X13789D2*
X14683D1*
X15640D2*
X16650D1*
X18654D2*
X20372D1*
X25010D2*
X25689D1*
X26722D2*
X26872D1*
X35883D2*
X36466D1*
X38083D2*
X41827D1*
X11184Y30467D2*
X12833D1*
X13789D2*
X14683D1*
X15640D2*
X16947D1*
X17273D2*
X17483D1*
X18549D2*
X20372D1*
X25062D2*
X25910D1*
X26500D2*
X26858D1*
X35585D2*
X36319D1*
X37933D2*
X41860D1*
X11148Y30318D2*
X12833D1*
X13789D2*
X14683D1*
X15640D2*
X17593D1*
X18549D2*
X20372D1*
X25846D2*
X26882D1*
X28070D2*
X28151D1*
X35566D2*
X36169D1*
X37785D2*
X41893D1*
X11118Y30169D2*
X12833D1*
X13789D2*
X14683D1*
X15640D2*
X17593D1*
X18549D2*
X20372D1*
X25846D2*
X26946D1*
X35716D2*
X36021D1*
X37628D2*
X41927D1*
X11087Y30020D2*
X12833D1*
X13789D2*
X14683D1*
X15640D2*
X17593D1*
X18549D2*
X18836D1*
X19557D2*
X20750D1*
X25846D2*
X27075D1*
X37211D2*
X41960D1*
X11053Y29871D2*
X12833D1*
X13789D2*
X14683D1*
X15640D2*
X16683D1*
X17340D2*
X17593D1*
X18549D2*
X18702D1*
X19690D2*
X21584D1*
X25846D2*
X27701D1*
X37061D2*
X37750D1*
X38409D2*
X39600D1*
X40259D2*
X41993D1*
X11022Y29722D2*
X12780D1*
X13842D2*
X14630D1*
X15692D2*
X16481D1*
X18549D2*
X18635D1*
X19757D2*
X21584D1*
X25846D2*
X27680D1*
X36914D2*
X37550D1*
X38609D2*
X39400D1*
X40459D2*
X42024D1*
X10991Y29573D2*
X12673D1*
X13949D2*
X14523D1*
X15799D2*
X16373D1*
X19776D2*
X21584D1*
X25846D2*
X27699D1*
X36868D2*
X37440D1*
X38719D2*
X39291D1*
X40569D2*
X42050D1*
X10965Y29424D2*
X12613D1*
X14011D2*
X14464D1*
X15861D2*
X16312D1*
X19757D2*
X21584D1*
X25846D2*
X27763D1*
X36928D2*
X37381D1*
X38778D2*
X39231D1*
X40628D2*
X42074D1*
X10944Y29275D2*
X12587D1*
X14035D2*
X14437D1*
X15885D2*
X16288D1*
X19690D2*
X21584D1*
X25846D2*
X27894D1*
X36952D2*
X37357D1*
X38802D2*
X39207D1*
X40652D2*
X42098D1*
X10922Y29126D2*
X12587D1*
X14035D2*
X14437D1*
X15885D2*
X16288D1*
X19671D2*
X20074D1*
X21371D2*
X21584D1*
X25846D2*
X28361D1*
X36954D2*
X37355D1*
X38804D2*
X39205D1*
X40655D2*
X42122D1*
X10898Y28977D2*
X12587D1*
X14035D2*
X14437D1*
X15885D2*
X16288D1*
X19671D2*
X20074D1*
X21371D2*
X21584D1*
X25846D2*
X28511D1*
X36954D2*
X37355D1*
X38804D2*
X39205D1*
X40655D2*
X42146D1*
X10877Y28828D2*
X12587D1*
X14035D2*
X14437D1*
X15885D2*
X16288D1*
X19671D2*
X20074D1*
X21371D2*
X21588D1*
X25846D2*
X28661D1*
X36954D2*
X37355D1*
X38804D2*
X39205D1*
X40655D2*
X42170D1*
X10856Y28679D2*
X12590D1*
X14032D2*
X14440D1*
X15882D2*
X16290D1*
X19671D2*
X20074D1*
X21371D2*
X21648D1*
X25846D2*
X28808D1*
X36952D2*
X37247D1*
X38802D2*
X39098D1*
X40652D2*
X42191D1*
X10837Y28530D2*
X12618D1*
X14006D2*
X14468D1*
X15854D2*
X16319D1*
X19671D2*
X20074D1*
X21371D2*
X21791D1*
X25846D2*
X28958D1*
X36923D2*
X37097D1*
X38773D2*
X38948D1*
X40624D2*
X42205D1*
X10827Y28380D2*
X12682D1*
X13939D2*
X14533D1*
X15790D2*
X16383D1*
X19671D2*
X20074D1*
X21371D2*
X21938D1*
X25846D2*
X29106D1*
X36859D2*
X36950D1*
X38709D2*
X38798D1*
X40559D2*
X42220D1*
X10815Y28231D2*
X12797D1*
X13825D2*
X14647D1*
X15675D2*
X16497D1*
X19671D2*
X20074D1*
X21371D2*
X22088D1*
X25846D2*
X29256D1*
X40443D2*
X42234D1*
X10803Y28082D2*
X13021D1*
X13604D2*
X14868D1*
X15454D2*
X16719D1*
X17304D2*
X17593D1*
X19671D2*
X20074D1*
X21371D2*
X22169D1*
X25846D2*
X29504D1*
X37704D2*
X37788D1*
X38371D2*
X38500D1*
X39552D2*
X39638D1*
X40221D2*
X42250D1*
X10791Y27933D2*
X17593D1*
X19671D2*
X20074D1*
X21371D2*
X22169D1*
X25846D2*
X29873D1*
X37554D2*
X38352D1*
X39404D2*
X42265D1*
X10779Y27784D2*
X17593D1*
X19671D2*
X20074D1*
X21371D2*
X22169D1*
X24724D2*
X29737D1*
X37404D2*
X38202D1*
X39254D2*
X42279D1*
X10767Y27635D2*
X17593D1*
X19671D2*
X20074D1*
X21371D2*
X22693D1*
X24724D2*
X29697D1*
X37257D2*
X38052D1*
X39107D2*
X42286D1*
X10765Y27486D2*
X17593D1*
X19671D2*
X20074D1*
X21371D2*
X22777D1*
X24724D2*
X29720D1*
X37106D2*
X37905D1*
X38957D2*
X42291D1*
X10763Y27337D2*
X17593D1*
X19671D2*
X20074D1*
X21371D2*
X22955D1*
X24724D2*
X25556D1*
X26705D2*
X29770D1*
X38807D2*
X42298D1*
X10760Y27188D2*
X17593D1*
X19671D2*
X20074D1*
X21371D2*
X23277D1*
X24724D2*
X25556D1*
X26705D2*
X29704D1*
X38659D2*
X42303D1*
X10758Y27039D2*
X17593D1*
X19671D2*
X20074D1*
X21371D2*
X25556D1*
X26705D2*
X29704D1*
X38509D2*
X42310D1*
X10758Y26890D2*
X17593D1*
X19671D2*
X20074D1*
X21371D2*
X25556D1*
X26705D2*
X29773D1*
X38361D2*
X42315D1*
X10756Y26741D2*
X17593D1*
X19671D2*
X20074D1*
X21371D2*
X25556D1*
X26705D2*
X29744D1*
X38211D2*
X42317D1*
X10758Y26592D2*
X17593D1*
X19554D2*
X20245D1*
X21200D2*
X25556D1*
X26705D2*
X29723D1*
X35294D2*
X42315D1*
X10763Y26443D2*
X17593D1*
X19538D2*
X19952D1*
X22102D2*
X25556D1*
X26705D2*
X29258D1*
X35254D2*
X42312D1*
X10767Y26294D2*
X17593D1*
X19502D2*
X19952D1*
X23583D2*
X25556D1*
X26705D2*
X29049D1*
X35251D2*
X42310D1*
X10772Y26144D2*
X17593D1*
X19502D2*
X19952D1*
X23583D2*
X25556D1*
X26705D2*
X28954D1*
X35294D2*
X42305D1*
X10779Y25995D2*
X17593D1*
X19502D2*
X19952D1*
X21147D2*
X21253D1*
X23583D2*
X25556D1*
X26705D2*
X28911D1*
X35275D2*
X42303D1*
X10784Y25846D2*
X17593D1*
X19502D2*
X19952D1*
X21024D2*
X21253D1*
X23583D2*
X25556D1*
X26705D2*
X28911D1*
X35216D2*
X42300D1*
X10789Y25697D2*
X17593D1*
X19502D2*
X19952D1*
X20802D2*
X21253D1*
X23583D2*
X25556D1*
X26705D2*
X28951D1*
X35287D2*
X42289D1*
X10794Y25548D2*
X17593D1*
X19502D2*
X19952D1*
X20802D2*
X21253D1*
X23583D2*
X25556D1*
X26705D2*
X29046D1*
X35290D2*
X42277D1*
X10803Y25399D2*
X17459D1*
X19502D2*
X19952D1*
X20802D2*
X21253D1*
X23583D2*
X25546D1*
X26705D2*
X29254D1*
X35228D2*
X42265D1*
X10820Y25250D2*
X17343D1*
X19547D2*
X19952D1*
X20802D2*
X21253D1*
X23583D2*
X25546D1*
X26705D2*
X29723D1*
X35271D2*
X42253D1*
X10837Y25101D2*
X17297D1*
X19554D2*
X22136D1*
X23583D2*
X25546D1*
X26705D2*
X29697D1*
X35294D2*
X42241D1*
X10853Y24952D2*
X17295D1*
X19554D2*
X22136D1*
X23583D2*
X25546D1*
X26705D2*
X29735D1*
X35259D2*
X42229D1*
X10870Y24803D2*
X12871D1*
X13751D2*
X14721D1*
X15601D2*
X16571D1*
X19554D2*
X25546D1*
X26503D2*
X29866D1*
X35128D2*
X35790D1*
X36668D2*
X37640D1*
X38519D2*
X39491D1*
X40369D2*
X42215D1*
X10889Y24654D2*
X12723D1*
X13899D2*
X14573D1*
X15749D2*
X16423D1*
X19554D2*
X22136D1*
X23583D2*
X25477D1*
X26572D2*
X30856D1*
X34135D2*
X35643D1*
X36816D2*
X37493D1*
X38666D2*
X39343D1*
X40516D2*
X42193D1*
X10906Y24505D2*
X12640D1*
X13982D2*
X14490D1*
X15832D2*
X16340D1*
X19554D2*
X22136D1*
X23583D2*
X25446D1*
X26603D2*
X30856D1*
X34135D2*
X35559D1*
X36902D2*
X37409D1*
X38750D2*
X39260D1*
X40600D2*
X42174D1*
X10922Y24356D2*
X12597D1*
X14025D2*
X14447D1*
X15875D2*
X16297D1*
X19554D2*
X22136D1*
X23583D2*
X25456D1*
X26593D2*
X30856D1*
X34135D2*
X35516D1*
X36945D2*
X37367D1*
X38792D2*
X39217D1*
X40643D2*
X42153D1*
X10939Y24207D2*
X12587D1*
X14035D2*
X14437D1*
X15885D2*
X16288D1*
X19526D2*
X19952D1*
X20802D2*
X21253D1*
X23583D2*
X25506D1*
X26543D2*
X30856D1*
X34135D2*
X35504D1*
X36954D2*
X37355D1*
X38804D2*
X39205D1*
X40655D2*
X42131D1*
X10968Y24058D2*
X12587D1*
X14035D2*
X14437D1*
X15885D2*
X16288D1*
X19502D2*
X19952D1*
X20802D2*
X21253D1*
X23583D2*
X25546D1*
X26503D2*
X30856D1*
X34135D2*
X35504D1*
X36954D2*
X37355D1*
X38804D2*
X39205D1*
X40655D2*
X42110D1*
X10996Y23908D2*
X12587D1*
X14035D2*
X14437D1*
X15885D2*
X16288D1*
X19502D2*
X19952D1*
X20802D2*
X21253D1*
X23583D2*
X25546D1*
X26503D2*
X30859D1*
X34132D2*
X35504D1*
X36954D2*
X37355D1*
X38804D2*
X39205D1*
X40655D2*
X42089D1*
X11025Y23759D2*
X12587D1*
X14035D2*
X14437D1*
X15885D2*
X16288D1*
X19535D2*
X19952D1*
X20802D2*
X21253D1*
X23583D2*
X25546D1*
X26503D2*
X30911D1*
X34080D2*
X35504D1*
X36954D2*
X37355D1*
X38804D2*
X39205D1*
X40655D2*
X42062D1*
X11053Y23610D2*
X12599D1*
X14025D2*
X14447D1*
X15875D2*
X16297D1*
X19547D2*
X19952D1*
X20802D2*
X21253D1*
X23583D2*
X25546D1*
X26503D2*
X31085D1*
X31406D2*
X31585D1*
X31906D2*
X32085D1*
X32406D2*
X32585D1*
X32906D2*
X33085D1*
X33406D2*
X33585D1*
X33906D2*
X35516D1*
X36942D2*
X37367D1*
X38792D2*
X39217D1*
X40643D2*
X42031D1*
X11084Y23461D2*
X12642D1*
X13980D2*
X14492D1*
X15830D2*
X16342D1*
X19547D2*
X19952D1*
X20802D2*
X21253D1*
X23583D2*
X25546D1*
X26503D2*
X35562D1*
X36899D2*
X37409D1*
X38750D2*
X39260D1*
X40600D2*
X42000D1*
X11113Y23312D2*
X12728D1*
X13896D2*
X14578D1*
X15747D2*
X16428D1*
X19547D2*
X19952D1*
X20802D2*
X21253D1*
X23583D2*
X25546D1*
X26503D2*
X35645D1*
X36814D2*
X37495D1*
X38664D2*
X39345D1*
X40514D2*
X41972D1*
X11141Y23163D2*
X12833D1*
X13789D2*
X14683D1*
X15640D2*
X16578D1*
X19547D2*
X19952D1*
X20802D2*
X21245D1*
X23583D2*
X25546D1*
X26503D2*
X35795D1*
X36664D2*
X37602D1*
X38557D2*
X39453D1*
X40407D2*
X41941D1*
X11170Y23014D2*
X12833D1*
X13789D2*
X14683D1*
X15640D2*
X17295D1*
X19697D2*
X19952D1*
X20802D2*
X21203D1*
X22152D2*
X25546D1*
X26503D2*
X37602D1*
X38557D2*
X39453D1*
X40407D2*
X41910D1*
X11208Y22865D2*
X12833D1*
X13789D2*
X14683D1*
X15640D2*
X17295D1*
X20321D2*
X20474D1*
X22155D2*
X23162D1*
X30375D2*
X37602D1*
X38557D2*
X39453D1*
X40407D2*
X41877D1*
X11248Y22716D2*
X12833D1*
X13789D2*
X14683D1*
X15640D2*
X17295D1*
X20321D2*
X20474D1*
X22155D2*
X22927D1*
X30608D2*
X37602D1*
X38557D2*
X39453D1*
X40407D2*
X41836D1*
X11291Y22567D2*
X12833D1*
X13789D2*
X14683D1*
X15640D2*
X17295D1*
X22145D2*
X22246D1*
X30934D2*
X37602D1*
X38557D2*
X39453D1*
X40407D2*
X41798D1*
X11332Y22418D2*
X12833D1*
X13789D2*
X14683D1*
X15640D2*
X17295D1*
X22088D2*
X22215D1*
X30963D2*
X37602D1*
X38557D2*
X39453D1*
X40407D2*
X41758D1*
X11375Y22269D2*
X12833D1*
X13789D2*
X14683D1*
X15640D2*
X17295D1*
X22021D2*
X22215D1*
X30963D2*
X37602D1*
X38557D2*
X39453D1*
X40407D2*
X41719D1*
X11415Y22120D2*
X12833D1*
X13789D2*
X14683D1*
X15640D2*
X16900D1*
X22021D2*
X22215D1*
X30963D2*
X35166D1*
X35632D2*
X37602D1*
X38557D2*
X39453D1*
X40407D2*
X41679D1*
X11456Y21971D2*
X12833D1*
X13789D2*
X14683D1*
X15640D2*
X16633D1*
X22021D2*
X22215D1*
X30963D2*
X34923D1*
X35899D2*
X37602D1*
X38557D2*
X39453D1*
X40407D2*
X41638D1*
X11499Y21822D2*
X12833D1*
X13789D2*
X14683D1*
X15640D2*
X16495D1*
X22021D2*
X22215D1*
X23664D2*
X29516D1*
X30963D2*
X34771D1*
X36040D2*
X37602D1*
X38557D2*
X39453D1*
X40407D2*
X41591D1*
X11549Y21672D2*
X12833D1*
X13789D2*
X14683D1*
X15640D2*
X16440D1*
X22021D2*
X22215D1*
X23664D2*
X29516D1*
X30963D2*
X33266D1*
X36094D2*
X37586D1*
X38557D2*
X39453D1*
X40407D2*
X41541D1*
X11603Y21523D2*
X12833D1*
X13789D2*
X14683D1*
X15640D2*
X16395D1*
X22021D2*
X22265D1*
X23614D2*
X24686D1*
X25491D2*
X27687D1*
X28491D2*
X29566D1*
X30913D2*
X33097D1*
X36140D2*
X37438D1*
X38557D2*
X39453D1*
X40407D2*
X41491D1*
X11656Y21374D2*
X12833D1*
X13789D2*
X14683D1*
X15640D2*
X16407D1*
X21581D2*
X22460D1*
X23417D2*
X24529D1*
X25648D2*
X27530D1*
X28648D2*
X29761D1*
X30718D2*
X32949D1*
X36125D2*
X37288D1*
X38542D2*
X39453D1*
X40407D2*
X41443D1*
X11710Y21225D2*
X12833D1*
X13789D2*
X14683D1*
X15640D2*
X16428D1*
X21581D2*
X22460D1*
X23417D2*
X24443D1*
X25736D2*
X27444D1*
X28734D2*
X29761D1*
X30718D2*
X32799D1*
X36106D2*
X37138D1*
X38471D2*
X39453D1*
X40407D2*
X41393D1*
X11765Y21076D2*
X12833D1*
X13789D2*
X14683D1*
X15640D2*
X16514D1*
X21581D2*
X22460D1*
X23417D2*
X24401D1*
X25779D2*
X27399D1*
X28779D2*
X29761D1*
X30718D2*
X32652D1*
X36021D2*
X36990D1*
X38330D2*
X39453D1*
X40407D2*
X41343D1*
X11820Y20927D2*
X12833D1*
X13789D2*
X14683D1*
X15692D2*
X16621D1*
X18161D2*
X18261D1*
X21581D2*
X22460D1*
X23417D2*
X24391D1*
X25788D2*
X27389D1*
X28789D2*
X29761D1*
X30718D2*
X32502D1*
X35911D2*
X36840D1*
X38180D2*
X39453D1*
X40407D2*
X41286D1*
X11875Y20778D2*
X12833D1*
X13789D2*
X14683D1*
X16121D2*
X16771D1*
X18109D2*
X18409D1*
X21581D2*
X22460D1*
X23417D2*
X24415D1*
X25765D2*
X26603D1*
X26724D2*
X27413D1*
X28765D2*
X29761D1*
X30718D2*
X32352D1*
X33692D2*
X34423D1*
X35763D2*
X36412D1*
X38030D2*
X39307D1*
X40407D2*
X41227D1*
X11927Y20629D2*
X12833D1*
X13789D2*
X14711D1*
X16340D2*
X16919D1*
X17999D2*
X18559D1*
X21581D2*
X22460D1*
X23417D2*
X24474D1*
X25703D2*
X26263D1*
X27062D2*
X27475D1*
X28703D2*
X29761D1*
X30718D2*
X32204D1*
X33544D2*
X34533D1*
X35613D2*
X36195D1*
X37883D2*
X39160D1*
X40397D2*
X41167D1*
X11994Y20480D2*
X12833D1*
X13789D2*
X14802D1*
X16487D2*
X17128D1*
X17826D2*
X18707D1*
X21581D2*
X22460D1*
X23417D2*
X24586D1*
X25593D2*
X26148D1*
X27177D2*
X27584D1*
X28594D2*
X29761D1*
X30718D2*
X32054D1*
X33394D2*
X34709D1*
X35406D2*
X36045D1*
X37733D2*
X39010D1*
X40335D2*
X41107D1*
X12061Y20331D2*
X12833D1*
X13789D2*
X14949D1*
X16637D2*
X18857D1*
X21581D2*
X22227D1*
X23650D2*
X24803D1*
X25376D2*
X26096D1*
X27231D2*
X27803D1*
X28377D2*
X29527D1*
X30951D2*
X31906D1*
X33244D2*
X35897D1*
X37585D2*
X38860D1*
X40200D2*
X41048D1*
X12130Y20182D2*
X12833D1*
X13823D2*
X15088D1*
X16752D2*
X19007D1*
X21581D2*
X22215D1*
X23664D2*
X25960D1*
X27241D2*
X28401D1*
X29277D2*
X29516D1*
X30963D2*
X31756D1*
X33096D2*
X35783D1*
X37447D2*
X38712D1*
X40052D2*
X40991D1*
X12196Y20033D2*
X12833D1*
X13970D2*
X15104D1*
X16842D2*
X19155D1*
X21581D2*
X22215D1*
X23664D2*
X23779D1*
X24900D2*
X25279D1*
X27212D2*
X28251D1*
X29427D2*
X29515D1*
X30963D2*
X31606D1*
X32946D2*
X35693D1*
X37430D2*
X38562D1*
X39902D2*
X40922D1*
X12265Y19884D2*
X12854D1*
X14120D2*
X15133D1*
X16866D2*
X19305D1*
X21581D2*
X22215D1*
X23664D2*
X23765D1*
X24914D2*
X25265D1*
X27136D2*
X28239D1*
X30963D2*
X31459D1*
X32799D2*
X35669D1*
X37399D2*
X38414D1*
X39754D2*
X40853D1*
X12334Y19735D2*
X12933D1*
X14270D2*
X15226D1*
X16883D2*
X19405D1*
X21581D2*
X22215D1*
X23664D2*
X23765D1*
X24914D2*
X25265D1*
X26974D2*
X28239D1*
X30963D2*
X31309D1*
X32649D2*
X35652D1*
X37309D2*
X38264D1*
X39604D2*
X40781D1*
X12401Y19586D2*
X13078D1*
X14418D2*
X15347D1*
X16842D2*
X19424D1*
X21581D2*
X22215D1*
X23664D2*
X23748D1*
X24914D2*
X25265D1*
X26703D2*
X28239D1*
X30963D2*
X31161D1*
X32499D2*
X35693D1*
X37187D2*
X38114D1*
X39454D2*
X40712D1*
X12472Y19436D2*
X13228D1*
X14866D2*
X15495D1*
X16790D2*
X19479D1*
X21581D2*
X22217D1*
X24914D2*
X25265D1*
X26555D2*
X28239D1*
X29439D2*
X29517D1*
X32351D2*
X35745D1*
X37037D2*
X37667D1*
X39307D2*
X40643D1*
X12556Y19287D2*
X13375D1*
X15063D2*
X15645D1*
X16659D2*
X19479D1*
X21581D2*
X22305D1*
X24914D2*
X25265D1*
X26412D2*
X28239D1*
X29439D2*
X29604D1*
X32201D2*
X35876D1*
X36890D2*
X37469D1*
X39157D2*
X40574D1*
X12637Y19138D2*
X13525D1*
X15213D2*
X15873D1*
X16423D2*
X19502D1*
X21581D2*
X23155D1*
X24914D2*
X25265D1*
X26412D2*
X28239D1*
X29439D2*
X30713D1*
X32053D2*
X36112D1*
X36661D2*
X37321D1*
X39009D2*
X40493D1*
X12720Y18989D2*
X13675D1*
X15363D2*
X19581D1*
X21581D2*
X23074D1*
X24914D2*
X25265D1*
X26412D2*
X28239D1*
X29439D2*
X30563D1*
X31903D2*
X37171D1*
X38859D2*
X40412D1*
X12803Y18840D2*
X13783D1*
X15466D2*
X19726D1*
X21581D2*
X23043D1*
X24914D2*
X25265D1*
X26412D2*
X28239D1*
X29439D2*
X30416D1*
X31753D2*
X37069D1*
X38752D2*
X40331D1*
X12884Y18691D2*
X13799D1*
X15544D2*
X19876D1*
X21581D2*
X23050D1*
X24914D2*
X25265D1*
X26412D2*
X28239D1*
X29439D2*
X30266D1*
X31606D2*
X36990D1*
X38735D2*
X40250D1*
X12968Y18542D2*
X13845D1*
X15561D2*
X20026D1*
X21581D2*
X23103D1*
X24914D2*
X25265D1*
X26412D2*
X28239D1*
X29439D2*
X30116D1*
X31456D2*
X31556D1*
X32218D2*
X36971D1*
X38688D2*
X40169D1*
X13051Y18393D2*
X13940D1*
X15570D2*
X20126D1*
X28136D2*
X28248D1*
X29429D2*
X29968D1*
X32406D2*
X36964D1*
X38595D2*
X40086D1*
X13149Y18244D2*
X14073D1*
X15523D2*
X20012D1*
X29296D2*
X29818D1*
X32523D2*
X37012D1*
X38461D2*
X39993D1*
X13246Y18095D2*
X14221D1*
X15461D2*
X19960D1*
X28572D2*
X29670D1*
X32573D2*
X37071D1*
X38311D2*
X39900D1*
X13346Y17946D2*
X14380D1*
X15316D2*
X19931D1*
X28720D2*
X29520D1*
X32604D2*
X37217D1*
X38152D2*
X39807D1*
X13444Y17797D2*
X14697D1*
X15018D2*
X19948D1*
X28870D2*
X29370D1*
X30710D2*
X30844D1*
X32587D2*
X37514D1*
X37838D2*
X39714D1*
X13542Y17648D2*
X19981D1*
X29020D2*
X29223D1*
X30563D2*
X30823D1*
X32551D2*
X39622D1*
X13642Y17499D2*
X20074D1*
X30413D2*
X30809D1*
X32458D2*
X39522D1*
X13739Y17350D2*
X20200D1*
X21764D2*
X23327D1*
X24914D2*
X27977D1*
X30263D2*
X30851D1*
X32334D2*
X39417D1*
X13856Y17200D2*
X18938D1*
X19723D2*
X20348D1*
X21628D2*
X23224D1*
X25017D2*
X28127D1*
X30115D2*
X30906D1*
X32184D2*
X32811D1*
X33594D2*
X39310D1*
X13970Y17051D2*
X18786D1*
X19916D2*
X20498D1*
X21493D2*
X23170D1*
X25072D2*
X28168D1*
X30072D2*
X31040D1*
X32037D2*
X32616D1*
X33749D2*
X39205D1*
X14087Y16902D2*
X18693D1*
X20066D2*
X20733D1*
X21240D2*
X23146D1*
X25095D2*
X28146D1*
X30094D2*
X31292D1*
X31801D2*
X32468D1*
X33842D2*
X39100D1*
X14204Y16753D2*
X18640D1*
X20214D2*
X23158D1*
X25084D2*
X28158D1*
X30084D2*
X32285D1*
X33894D2*
X38991D1*
X14320Y16604D2*
X18626D1*
X20314D2*
X23200D1*
X25041D2*
X28201D1*
X30041D2*
X32137D1*
X33906D2*
X38869D1*
X14437Y16455D2*
X18643D1*
X20390D2*
X23284D1*
X24957D2*
X28284D1*
X29956D2*
X31987D1*
X33889D2*
X38750D1*
X14561Y16306D2*
X18695D1*
X20407D2*
X23434D1*
X24807D2*
X28434D1*
X29808D2*
X31840D1*
X33839D2*
X38631D1*
X14697Y16157D2*
X18788D1*
X20464D2*
X31690D1*
X33747D2*
X38512D1*
X14835Y16008D2*
X18924D1*
X20612D2*
X31540D1*
X33608D2*
X38388D1*
X14970Y15859D2*
X17593D1*
X18468D2*
X19074D1*
X20762D2*
X31392D1*
X33461D2*
X34066D1*
X34940D2*
X38255D1*
X15106Y15710D2*
X17445D1*
X18642D2*
X19238D1*
X20909D2*
X23667D1*
X24574D2*
X28668D1*
X29575D2*
X31242D1*
X33296D2*
X33892D1*
X35090D2*
X38119D1*
X15244Y15561D2*
X17374D1*
X18790D2*
X19617D1*
X21059D2*
X23389D1*
X24853D2*
X28389D1*
X32434D2*
X32697D1*
X32918D2*
X33742D1*
X35161D2*
X37983D1*
X15385Y15412D2*
X17321D1*
X18933D2*
X19869D1*
X24981D2*
X28261D1*
X32284D2*
X33602D1*
X35213D2*
X37850D1*
X15544Y15263D2*
X17321D1*
X19026D2*
X20017D1*
X25055D2*
X28187D1*
X32134D2*
X33507D1*
X35211D2*
X37702D1*
X15704Y15114D2*
X17340D1*
X19085D2*
X20167D1*
X25088D2*
X28151D1*
X31987D2*
X33449D1*
X35194D2*
X37540D1*
X15863Y14964D2*
X17407D1*
X19102D2*
X20317D1*
X25093D2*
X28149D1*
X31837D2*
X33402D1*
X35128D2*
X37376D1*
X16023Y14815D2*
X17502D1*
X19188D2*
X20464D1*
X25062D2*
X28177D1*
X31639D2*
X33254D1*
X35032D2*
X37214D1*
X16182Y14666D2*
X17650D1*
X19338D2*
X20617D1*
X24998D2*
X28244D1*
X29996D2*
X33104D1*
X34885D2*
X37050D1*
X16356Y14517D2*
X17800D1*
X19488D2*
X23362D1*
X24879D2*
X28361D1*
X29879D2*
X32956D1*
X34735D2*
X36888D1*
X16544Y14368D2*
X17983D1*
X19635D2*
X23591D1*
X24650D2*
X28592D1*
X29651D2*
X32806D1*
X34551D2*
X36702D1*
X16730Y14219D2*
X18445D1*
X19785D2*
X32656D1*
X33997D2*
X36512D1*
X16918Y14070D2*
X18593D1*
X19933D2*
X32509D1*
X33849D2*
X36319D1*
X17106Y13921D2*
X18743D1*
X20083D2*
X29196D1*
X33699D2*
X36128D1*
X17302Y13772D2*
X18893D1*
X20233D2*
X23472D1*
X24769D2*
X28470D1*
X33551D2*
X35938D1*
X17523Y13623D2*
X19040D1*
X24936D2*
X28306D1*
X33401D2*
X35723D1*
X17745Y13474D2*
X19190D1*
X25029D2*
X28213D1*
X33251D2*
X35497D1*
X17964Y13325D2*
X19338D1*
X25079D2*
X28163D1*
X33104D2*
X35273D1*
X18185Y13176D2*
X19488D1*
X25095D2*
X28146D1*
X32920D2*
X35047D1*
X18430Y13027D2*
X19638D1*
X25079D2*
X28163D1*
X30079D2*
X34819D1*
X18695Y12878D2*
X19786D1*
X25029D2*
X28213D1*
X30029D2*
X34550D1*
X18959Y12728D2*
X20024D1*
X24936D2*
X28306D1*
X29937D2*
X34280D1*
X19221Y12579D2*
X23472D1*
X24769D2*
X28473D1*
X29767D2*
X34011D1*
X19511Y12430D2*
X33740D1*
X19831Y12281D2*
X33414D1*
X20150Y12132D2*
X33085D1*
X20469Y11983D2*
X32756D1*
X20864Y11834D2*
X32385D1*
X21262Y11685D2*
X31975D1*
X21659Y11536D2*
X31563D1*
X22178Y11387D2*
X31066D1*
X22698Y11238D2*
X30525D1*
X23367Y11089D2*
X29882D1*
X24112Y10940D2*
X29111D1*
X25336Y10791D2*
X27868D1*
X35273Y26540D2*
X35250Y26467D1*
X35213Y26401D1*
X35183Y26366D1*
X35218Y26323D1*
X35253Y26256D1*
X35275Y26183D1*
X35281Y26115D1*
X35273Y26040D1*
X35250Y25967D1*
X35213Y25901D1*
X35183Y25866D1*
X35218Y25823D1*
X35253Y25756D1*
X35275Y25683D1*
X35281Y25615D1*
X35273Y25540D1*
X35250Y25467D1*
X35213Y25401D1*
X35183Y25366D1*
X35218Y25323D1*
X35253Y25256D1*
X35275Y25183D1*
X35281Y25115D1*
X35273Y25040D1*
X35250Y24967D1*
X35213Y24901D1*
X35164Y24843D1*
X35103Y24797D1*
X35035Y24763D1*
X34961Y24745D1*
X34906Y24741D1*
X34165D1*
X34111Y24750D1*
X34186Y24743D1*
X34113Y24750D1*
X34121Y24675D1*
X34118Y23955D1*
X34113Y23880D1*
X34090Y23807D1*
X34053Y23741D1*
X34004Y23683D1*
X33943Y23637D1*
X33875Y23603D1*
X33801Y23585D1*
X33725Y23581D1*
X33650Y23593D1*
X33579Y23620D1*
X33515Y23661D1*
X33494Y23676D1*
X33443Y23637D1*
X33375Y23603D1*
X33301Y23585D1*
X33225Y23581D1*
X33150Y23593D1*
X33079Y23620D1*
X33015Y23661D1*
X32994Y23676D1*
X32943Y23637D1*
X32875Y23603D1*
X32801Y23585D1*
X32725Y23581D1*
X32650Y23593D1*
X32579Y23620D1*
X32515Y23661D1*
X32494Y23676D1*
X32443Y23637D1*
X32375Y23603D1*
X32301Y23585D1*
X32225Y23581D1*
X32150Y23593D1*
X32079Y23620D1*
X32015Y23661D1*
X31994Y23676D1*
X31943Y23637D1*
X31875Y23603D1*
X31801Y23585D1*
X31725Y23581D1*
X31650Y23593D1*
X31579Y23620D1*
X31515Y23661D1*
X31494Y23676D1*
X31443Y23637D1*
X31375Y23603D1*
X31301Y23585D1*
X31225Y23581D1*
X31150Y23593D1*
X31079Y23620D1*
X31015Y23661D1*
X30960Y23714D1*
X30917Y23776D1*
X30888Y23847D1*
X30873Y23921D1*
X30871Y24108D1*
X30874Y24717D1*
X30880Y24748D1*
X30874Y24675D1*
X30877Y24749D1*
X30807Y24742D1*
X30425Y24741D1*
X30087Y24742D1*
X29990Y24753D1*
X29919Y24780D1*
X29855Y24821D1*
X29800Y24874D1*
X29757Y24936D1*
X29728Y25007D1*
X29713Y25081D1*
X29714Y25157D1*
X29730Y25232D1*
X29761Y25301D1*
X29808Y25365D1*
X29764Y25427D1*
X29683Y25391D1*
X29610Y25369D1*
X29535Y25357D1*
X29459Y25356D1*
X29383Y25364D1*
X29310Y25383D1*
X29239Y25412D1*
X29173Y25450D1*
X29113Y25496D1*
X29059Y25550D1*
X29013Y25611D1*
X28976Y25677D1*
X28948Y25748D1*
X28930Y25822D1*
X28922Y25898D1*
X28924Y25974D1*
X28936Y26049D1*
X28958Y26122D1*
X28990Y26191D1*
X29031Y26255D1*
X29081Y26313D1*
X29137Y26364D1*
X29200Y26407D1*
X29268Y26441D1*
X29340Y26466D1*
X29415Y26480D1*
X29491Y26485D1*
X29567Y26479D1*
X29612Y26470D1*
X29765Y26477D1*
X29745Y26540D1*
X29737Y26615D1*
X29745Y26691D1*
X29770Y26763D1*
X29809Y26828D1*
X29826Y26849D1*
X29800Y26874D1*
X29757Y26936D1*
X29728Y27007D1*
X29713Y27081D1*
X29714Y27157D1*
X29730Y27232D1*
X29761Y27301D1*
X29808Y27365D1*
X29757Y27436D1*
X29728Y27507D1*
X29713Y27581D1*
X29714Y27657D1*
X29730Y27732D1*
X29761Y27801D1*
X29805Y27863D1*
X29861Y27915D1*
X29926Y27954D1*
X29998Y27979D1*
X30086Y27990D1*
X30806Y27988D1*
X30869Y27985D1*
X30908Y27974D1*
X30898Y28025D1*
X30897Y28082D1*
X30637Y28079D1*
X29562D1*
X29487Y28088D1*
X29415Y28113D1*
X29349Y28155D1*
X29325Y28178D1*
X28343Y29159D1*
X28233Y29153D1*
X28158Y29162D1*
X28084Y29181D1*
X28013Y29209D1*
X27947Y29247D1*
X27887Y29293D1*
X27833Y29347D1*
X27788Y29408D1*
X27750Y29475D1*
X27722Y29546D1*
X27704Y29619D1*
X27696Y29695D1*
X27698Y29771D1*
X27711Y29846D1*
X27746Y29947D1*
X27670Y29914D1*
X27568Y29889D1*
X27463Y29882D1*
X27359Y29893D1*
X27258Y29922D1*
X27164Y29968D1*
X27079Y30030D1*
X27006Y30106D1*
X26948Y30193D1*
X26905Y30290D1*
X26880Y30392D1*
X26873Y30497D1*
X26884Y30601D1*
X26913Y30702D1*
X26960Y30796D1*
X27022Y30881D1*
X27098Y30954D1*
X27185Y31012D1*
X27281Y31055D1*
X27383Y31080D1*
X27488Y31087D1*
X27592Y31076D1*
X27693Y31046D1*
X27788Y31000D1*
X27872Y30938D1*
X27945Y30862D1*
X28004Y30775D1*
X28046Y30679D1*
X28071Y30577D1*
X28078Y30472D1*
X28067Y30368D1*
X28038Y30267D1*
X28020Y30228D1*
X28115Y30263D1*
X28182Y30276D1*
X28173Y30295D1*
X28149Y30408D1*
X28144Y30512D1*
X28149Y30571D1*
X28168Y30651D1*
X28186Y30707D1*
X28240Y30810D1*
X28303Y30892D1*
X28380Y30962D1*
X28469Y31019D1*
X28566Y31059D1*
X28668Y31081D1*
X28773Y31085D1*
X28877Y31072D1*
X28977Y31040D1*
X29070Y30991D1*
X29153Y30927D1*
X29224Y30850D1*
X29280Y30761D1*
X29320Y30664D1*
X29342Y30562D1*
X29349Y30483D1*
X29347Y30459D1*
X29422Y30385D1*
X29413Y30466D1*
Y30502D1*
X29429Y30617D1*
X29460Y30716D1*
X29509Y30809D1*
X29573Y30892D1*
X29650Y30962D1*
X29739Y31019D1*
X29836Y31059D1*
X29938Y31081D1*
X30043Y31085D1*
X30034Y31086D1*
X30059Y31129D1*
X29995Y31127D1*
X29881Y31142D1*
X29776Y31174D1*
X29679Y31225D1*
X29592Y31291D1*
X29518Y31372D1*
X29460Y31464D1*
X29418Y31565D1*
X29394Y31672D1*
X29389Y31779D1*
X29403Y31889D1*
X29436Y31994D1*
X29486Y32091D1*
X29553Y32178D1*
X29633Y32252D1*
X29725Y32310D1*
X29826Y32352D1*
X29933Y32376D1*
X30042Y32381D1*
X30151Y32367D1*
X30255Y32334D1*
X30352Y32284D1*
X30439Y32217D1*
X30513Y32137D1*
X30572Y32045D1*
X30587Y32013D1*
X30576Y32116D1*
X30578Y32192D1*
X30588Y32267D1*
X30606Y32341D1*
X30632Y32413D1*
X30666Y32481D1*
X30707Y32546D1*
X30754Y32605D1*
X30807Y32660D1*
X30866Y32708D1*
X30930Y32749D1*
X30998Y32784D1*
X31069Y32811D1*
X31143Y32830D1*
X31218Y32842D1*
X31294Y32845D1*
X31370Y32840D1*
X31445Y32827D1*
X31518Y32806D1*
X31589Y32777D1*
X31656Y32741D1*
X31719Y32698D1*
X31776Y32648D1*
X31828Y32592D1*
X31874Y32532D1*
X31913Y32466D1*
X31945Y32397D1*
X31970Y32325D1*
X31986Y32250D1*
X31995Y32135D1*
X31991Y32059D1*
X31979Y31984D1*
X31959Y31911D1*
X31931Y31840D1*
X31895Y31772D1*
X31853Y31709D1*
X31799Y31646D1*
X32354D1*
X32634Y31927D1*
X31602Y32957D1*
X31406D1*
X31330Y32963D1*
X31256Y32982D1*
X31186Y33012D1*
X31122Y33053D1*
X31078Y33092D1*
X29544Y34626D1*
X26077D1*
X26078Y33661D1*
X25756D1*
X25755Y32965D1*
Y31992D1*
X25746Y31916D1*
X25721Y31844D1*
X25678Y31779D1*
X25656Y31754D1*
X24994Y31092D1*
X24996Y30520D1*
X25093Y30429D1*
X25830D1*
X25828Y29110D1*
X25830Y29052D1*
Y27810D1*
X24712D1*
X24710Y27912D1*
Y27155D1*
X23292D1*
Y27272D1*
X23208D1*
X23133Y27280D1*
X23059Y27299D1*
X22988Y27328D1*
X22922Y27366D1*
X22862Y27412D1*
X22808Y27466D1*
X22762Y27527D1*
X22725Y27593D1*
X22703Y27649D1*
X22236Y27647D1*
X22184D1*
Y28149D1*
X21698Y28636D1*
X21650Y28696D1*
X21618Y28764D1*
X21601Y28841D1*
X21599Y28874D1*
Y29967D1*
X20945Y29968D1*
X20869Y29977D1*
X20791Y30006D1*
X20742Y30032D1*
X20386D1*
X20388Y31350D1*
X20386Y31408D1*
Y32363D1*
X18536Y30514D1*
X18535Y29131D1*
X18557Y29133D1*
X18559Y29399D1*
X18565Y29475D1*
X18584Y29549D1*
X18646Y29702D1*
X18669Y29775D1*
X18701Y29844D1*
X18742Y29908D1*
X18791Y29966D1*
X18847Y30017D1*
X18910Y30060D1*
X18978Y30094D1*
X19050Y30119D1*
X19125Y30133D1*
X19201Y30138D1*
X19277Y30132D1*
X19352Y30116D1*
X19423Y30090D1*
X19491Y30055D1*
X19553Y30011D1*
X19609Y29959D1*
X19657Y29900D1*
X19697Y29835D1*
X19727Y29766D1*
X19748Y29692D1*
X19761Y29573D1*
X19756Y29497D1*
X19741Y29422D1*
X19715Y29351D1*
X19681Y29283D1*
X19637Y29220D1*
X19586Y29164D1*
X19548Y29132D1*
X19657Y29133D1*
Y26714D1*
X19540D1*
Y26569D1*
X19534Y26493D1*
X19516Y26419D1*
X19486Y26352D1*
Y25379D1*
X19513Y25318D1*
X19533Y25244D1*
X19540Y25161D1*
Y24369D1*
X19534Y24293D1*
X19516Y24219D1*
X19486Y24152D1*
Y23855D1*
X19504Y23813D1*
X19524Y23740D1*
X19532Y23656D1*
Y23163D1*
X19758Y22938D1*
X20306Y22939D1*
Y22632D1*
X20356Y22615D1*
X20424Y22580D1*
X20488Y22534D1*
Y22939D1*
X21214D1*
X21220Y23037D1*
X21239Y23111D1*
X21268Y23178D1*
Y24324D1*
X22086D1*
Y24270D1*
X22146Y24308D1*
X22150Y24515D1*
Y24662D1*
X23568D1*
Y23144D1*
X22271D1*
X22215Y23136D1*
X22103Y23138D1*
X22133Y23044D1*
X22140Y22961D1*
Y22660D1*
X22134Y22584D1*
X22116Y22510D1*
X22085Y22441D1*
X22058Y22397D1*
X22006Y22330D1*
Y21521D1*
X21566D1*
Y18397D1*
X23225D1*
X23148Y18489D1*
X23111Y18555D1*
X23083Y18626D1*
X23065Y18700D1*
X23057Y18776D1*
X23059Y18852D1*
X23071Y18927D1*
X23094Y19000D1*
X23126Y19069D1*
X23167Y19133D1*
X23216Y19191D1*
X23282Y19249D1*
X22439Y19250D1*
X22365Y19264D1*
X22300Y19303D1*
X22253Y19363D1*
X22231Y19438D1*
X22230Y20145D1*
Y20259D1*
X22244Y20334D1*
X22283Y20398D1*
X22343Y20445D1*
X22418Y20467D1*
X22476Y20469D1*
Y21452D1*
X22439Y21450D1*
X22365Y21464D1*
X22300Y21503D1*
X22253Y21563D1*
X22231Y21638D1*
X22230Y22345D1*
Y22459D1*
X22244Y22534D1*
X22283Y22598D1*
X22343Y22645D1*
X22418Y22667D1*
X22894Y22668D1*
X22971Y22746D1*
X23029Y22795D1*
X23094Y22834D1*
X23165Y22862D1*
X23239Y22878D1*
X23298Y22882D1*
X25563D1*
X25561Y23866D1*
Y24140D1*
X25514Y24221D1*
X25486Y24292D1*
X25468Y24366D1*
X25460Y24442D1*
X25462Y24518D1*
X25475Y24593D1*
X25497Y24666D1*
X25529Y24735D1*
X25561Y24785D1*
Y25379D1*
X25571Y25511D1*
X25573Y26144D1*
X25571Y26156D1*
Y27444D1*
X26689D1*
Y24825D1*
X26487D1*
X26555Y24656D1*
X26577Y24583D1*
X26589Y24464D1*
X26584Y24388D1*
X26569Y24313D1*
X26544Y24241D1*
X26489Y24144D1*
X26488Y22880D1*
X28844Y22882D1*
X30239D1*
X30315Y22875D1*
X30389Y22857D1*
X30459Y22826D1*
X30522Y22785D1*
X30579Y22734D1*
X30627Y22672D1*
X30739Y22668D1*
X30814Y22655D1*
X30878Y22615D1*
X30925Y22556D1*
X30947Y22481D1*
X30948Y21773D1*
Y21659D1*
X30935Y21585D1*
X30895Y21520D1*
X30835Y21473D1*
X30761Y21451D1*
X30702Y21450D1*
Y20466D1*
X30739Y20468D1*
X30814Y20455D1*
X30878Y20415D1*
X30925Y20356D1*
X30947Y20281D1*
X30948Y19573D1*
Y19459D1*
X30935Y19385D1*
X30895Y19320D1*
X30835Y19273D1*
X30761Y19251D1*
X30053Y19250D1*
X29739D1*
X29665Y19264D1*
X29600Y19303D1*
X29553Y19363D1*
X29531Y19438D1*
X29530Y20145D1*
Y20259D1*
X29544Y20334D1*
X29583Y20398D1*
X29643Y20445D1*
X29718Y20467D1*
X29776Y20469D1*
Y21452D1*
X29739Y21450D1*
X29665Y21464D1*
X29600Y21503D1*
X29553Y21563D1*
X29531Y21638D1*
X29530Y21957D1*
X28868Y21955D1*
X23650D1*
X23648Y21659D1*
X23635Y21585D1*
X23595Y21520D1*
X23535Y21473D1*
X23461Y21451D1*
X23402Y21450D1*
Y20466D1*
X23439Y20468D1*
X23514Y20455D1*
X23578Y20415D1*
X23625Y20356D1*
X23647Y20281D1*
X23648Y19573D1*
Y19479D1*
X23705Y19537D1*
X23780Y19602D1*
Y19959D1*
X23794Y20034D1*
X23833Y20098D1*
X23893Y20145D1*
X23968Y20167D1*
X24689Y20168D1*
X24764Y20155D1*
X24828Y20115D1*
X24875Y20056D1*
X24897Y19981D1*
X24898Y19273D1*
Y18457D1*
X24891Y18405D1*
X24942Y18397D1*
X25287D1*
X25280Y18459D1*
Y19959D1*
X25294Y20034D1*
X25333Y20098D1*
X25393Y20145D1*
X25468Y20167D1*
X25963Y20168D1*
X26106Y20313D1*
X26135Y20417D1*
X26167Y20486D1*
X26208Y20551D1*
X26258Y20609D1*
X26314Y20660D1*
X26377Y20703D1*
X26445Y20737D1*
X26517Y20761D1*
X26592Y20776D1*
X26668Y20780D1*
X26744Y20774D1*
X26818Y20758D1*
X26890Y20733D1*
X26957Y20697D1*
X27020Y20653D1*
X27075Y20601D1*
X27123Y20542D1*
X27163Y20478D1*
X27194Y20408D1*
X27215Y20335D1*
X27228Y20215D1*
X27223Y20139D1*
X27207Y20065D1*
X27182Y19993D1*
X27148Y19925D1*
X27104Y19863D1*
X27053Y19806D1*
X26994Y19758D1*
X26930Y19717D1*
X26860Y19686D1*
X26761Y19660D1*
X26400Y19297D1*
X26398Y18457D1*
X26390Y18397D1*
X28063D1*
X28139Y18391D1*
X28213Y18372D1*
X28262Y18352D1*
X28255Y18471D1*
X28254Y19959D1*
X28267Y20034D1*
X28302Y20101D1*
X28357Y20153D1*
X28426Y20185D1*
X28489Y20194D1*
X29189D1*
X29264Y20182D1*
X29331Y20146D1*
X29383Y20091D1*
X29415Y20022D1*
X29424Y19959D1*
Y18459D1*
X29412Y18384D1*
X29376Y18317D1*
X29321Y18265D1*
X29252Y18233D1*
X29189Y18224D1*
X28474Y18225D1*
X28444Y18207D1*
X29066Y17586D1*
X29173Y17585D1*
X31056Y19467D1*
X33192Y21602D1*
X33250Y21652D1*
X33315Y21691D1*
X33386Y21718D1*
X33460Y21734D1*
X33519Y21738D1*
X34703D1*
X34917Y21952D1*
X35018Y22023D1*
X35142Y22101D1*
X35230Y22131D1*
X35451Y22156D1*
X35544Y22146D1*
X35754Y22072D1*
X35833Y22023D1*
X35990Y21866D1*
X36040Y21787D1*
X36113Y21577D1*
X36124Y21484D1*
X36099Y21263D1*
X36068Y21175D1*
X35950Y20987D1*
X35866Y20896D1*
X35567Y20597D1*
X35466Y20527D1*
X35342Y20449D1*
X35254Y20418D1*
X35033Y20393D1*
X34940Y20404D1*
X34730Y20477D1*
X34651Y20527D1*
X34494Y20684D1*
X34444Y20763D1*
X34428Y20810D1*
X33711Y20811D1*
X30033Y17133D1*
X30071Y16989D1*
X30080Y16876D1*
X30076Y16800D1*
X30064Y16725D1*
X30043Y16651D1*
X30015Y16581D1*
X29980Y16513D1*
X29938Y16450D1*
X29889Y16392D1*
X29834Y16339D1*
X29773Y16292D1*
X29708Y16252D1*
X29640Y16220D1*
X29568Y16195D1*
X29494Y16178D1*
X29368Y16168D1*
X28871Y16167D1*
X28842D1*
X28766Y16175D1*
X28691Y16190D1*
X28619Y16213D1*
X28549Y16244D1*
X28483Y16282D1*
X28422Y16327D1*
X28365Y16378D1*
X28315Y16435D1*
X28271Y16497D1*
X28234Y16564D1*
X28204Y16634D1*
X28182Y16707D1*
X28168Y16782D1*
X28162Y16858D1*
X28164Y16934D1*
X28174Y17009D1*
X28209Y17130D1*
X27872Y17470D1*
X24755D1*
X24817Y17427D1*
X24894Y17354D1*
X24960Y17270D1*
X25013Y17178D1*
X25051Y17078D1*
X25073Y16974D1*
X25080Y16876D1*
X25072Y16770D1*
X25048Y16666D1*
X25009Y16567D1*
X24955Y16475D1*
X24889Y16392D1*
X24810Y16319D1*
X24722Y16260D1*
X24625Y16214D1*
X24523Y16184D1*
X24418Y16168D1*
X24188Y16167D1*
X23811Y16169D1*
X23706Y16186D1*
X23605Y16219D1*
X23509Y16266D1*
X23422Y16327D1*
X23344Y16400D1*
X23279Y16485D1*
X23227Y16578D1*
X23190Y16677D1*
X23168Y16782D1*
X23161Y16888D1*
X23171Y16994D1*
X23197Y17098D1*
X23238Y17196D1*
X23293Y17287D1*
X23361Y17369D1*
X23440Y17440D1*
X23484Y17471D1*
X21874Y17470D1*
X21801Y17388D1*
X21739Y17344D1*
X21653Y17303D1*
X21625Y17227D1*
X21575Y17148D1*
X21418Y16991D1*
X21339Y16942D1*
X21129Y16868D1*
X21037Y16858D1*
X20815Y16883D1*
X20728Y16913D1*
X20540Y17031D1*
X20449Y17115D1*
X20150Y17414D1*
X20079Y17516D1*
X20001Y17640D1*
X19971Y17727D1*
X19946Y17949D1*
X19956Y18041D1*
X20030Y18251D1*
X20079Y18330D1*
X20165Y18416D1*
X19630Y18952D1*
X19581Y19010D1*
X19542Y19076D1*
X19514Y19147D1*
X19498Y19221D1*
X19494Y19280D1*
Y19454D1*
X19447Y19561D1*
X19428Y19635D1*
X19420Y19711D1*
X19422Y19780D1*
X18174Y21029D1*
X18164Y20975D1*
X18077Y20735D1*
X18042Y20686D1*
X17859Y20507D1*
X17806Y20478D1*
X17564Y20396D1*
X17504Y20393D1*
X17250Y20424D1*
X17194Y20448D1*
X16979Y20585D1*
X16603Y20961D1*
X16536Y21064D1*
X16451Y21202D1*
X16435Y21261D1*
X16409Y21515D1*
X16420Y21574D1*
X16506Y21815D1*
X16542Y21864D1*
X16724Y22043D1*
X16777Y22072D1*
X17019Y22154D1*
X17080Y22157D1*
X17310Y22131D1*
Y23092D1*
X17208Y23054D1*
X17134Y23037D1*
X17059Y23027D1*
X16982Y23026D1*
X16907Y23034D1*
X16832Y23049D1*
X16759Y23072D1*
X16690Y23103D1*
X16624Y23141D1*
X16562Y23186D1*
X16506Y23237D1*
X16456Y23294D1*
X16412Y23356D1*
X16374Y23423D1*
X16345Y23493D1*
X16322Y23566D1*
X16308Y23641D1*
X16302Y23735D1*
X16304Y24235D1*
Y24293D1*
X16315Y24368D1*
X16333Y24442D1*
X16359Y24514D1*
X16393Y24582D1*
X16433Y24646D1*
X16481Y24706D1*
X16534Y24760D1*
X16593Y24808D1*
X16657Y24850D1*
X16725Y24884D1*
X16796Y24911D1*
X16870Y24930D1*
X16945Y24941D1*
X17022Y24944D1*
X17098Y24939D1*
X17173Y24926D1*
X17266Y24896D1*
X17308Y24937D1*
X17310Y25045D1*
X17316Y25121D1*
X17334Y25195D1*
X17365Y25265D1*
X17406Y25329D1*
X17458Y25385D1*
X17517Y25432D1*
X17586Y25469D1*
X17608Y25503D1*
X17605Y28346D1*
X17540Y28262D1*
X17463Y28188D1*
X17376Y28127D1*
X17280Y28079D1*
X17179Y28046D1*
X17074Y28029D1*
X16967Y28027D1*
X16862Y28042D1*
X16759Y28072D1*
X16663Y28117D1*
X16574Y28176D1*
X16496Y28248D1*
X16428Y28331D1*
X16374Y28423D1*
X16335Y28522D1*
X16310Y28626D1*
X16302Y28732D1*
X16304Y29293D1*
X16321Y29398D1*
X16353Y29500D1*
X16400Y29595D1*
X16461Y29683D1*
X16534Y29760D1*
X16618Y29826D1*
X16711Y29878D1*
X16811Y29916D1*
X16915Y29938D1*
X17022Y29944D1*
X17128Y29935D1*
X17231Y29909D1*
X17330Y29869D1*
X17421Y29814D1*
X17503Y29746D1*
X17574Y29667D1*
X17608Y29617D1*
Y30358D1*
X17435Y30530D1*
X17391Y30503D1*
X17304Y30472D1*
X17082Y30447D1*
X16990Y30458D1*
X16780Y30531D1*
X16701Y30581D1*
X16544Y30738D1*
X16494Y30817D1*
X16421Y31027D1*
X16410Y31120D1*
X16435Y31341D1*
X16466Y31429D1*
X16584Y31616D1*
X16667Y31708D1*
X16966Y32007D1*
X17068Y32077D1*
X17192Y32155D1*
X17280Y32186D1*
X17501Y32211D1*
X17594Y32200D1*
X17804Y32127D1*
X17883Y32077D1*
X18040Y31920D1*
X18089Y31841D1*
X18163Y31631D1*
X18173Y31538D1*
X18164Y31451D1*
X20703Y33992D1*
X20588Y33982D1*
X20528Y33993D1*
X20287Y34079D1*
X20238Y34115D1*
X20059Y34297D1*
X20030Y34350D1*
X19948Y34592D1*
X19945Y34653D1*
X19976Y34906D1*
X20000Y34962D1*
X20138Y35177D1*
X20514Y35553D1*
X20617Y35621D1*
X20754Y35705D1*
X20813Y35721D1*
X21067Y35747D1*
X21127Y35737D1*
X21367Y35650D1*
X21416Y35614D1*
X21595Y35432D1*
X21624Y35379D1*
X21706Y35137D1*
X21709Y35076D1*
X21701Y35005D1*
X21731Y35019D1*
X22188Y35476D1*
X22229Y35570D1*
X22270Y35634D1*
X22319Y35692D1*
X22376Y35743D1*
X22439Y35786D1*
X22507Y35820D1*
X22579Y35844D1*
X22654Y35859D1*
X22730Y35864D1*
X22806Y35858D1*
X22880Y35842D1*
X22952Y35816D1*
X23019Y35781D1*
X23081Y35737D1*
X23144Y35676D1*
X23299Y35678D1*
X23234Y35782D1*
X23204Y35852D1*
X23182Y35925D1*
X23168Y36000D1*
X23162Y36076D1*
X23164Y36152D1*
X23174Y36227D1*
X23192Y36301D1*
X23218Y36373D1*
X23252Y36441D1*
X23293Y36505D1*
X23340Y36565D1*
X23394Y36619D1*
X23453Y36667D1*
X23517Y36709D1*
X23584Y36743D1*
X23656Y36770D1*
X23729Y36789D1*
X23805Y36800D1*
X24023Y36803D1*
X24371Y36801D1*
X24457Y36798D1*
X24532Y36785D1*
X24605Y36764D1*
X24675Y36735D1*
X24742Y36698D1*
X24805Y36655D1*
X24863Y36605D1*
X24915Y36549D1*
X24960Y36488D1*
X24999Y36423D1*
X25031Y36354D1*
X25055Y36281D1*
X25071Y36207D1*
X25080Y36094D1*
X25076Y36018D1*
X25064Y35943D1*
X25030Y35836D1*
X25149Y35721D1*
X25319Y35551D1*
X28414Y35552D1*
X28355Y35607D1*
X28288Y35690D1*
X28234Y35782D1*
X28194Y35881D1*
X28170Y35985D1*
X28161Y36091D1*
X28169Y36197D1*
X28192Y36301D1*
X28231Y36400D1*
X28284Y36493D1*
X28350Y36576D1*
X28428Y36649D1*
X28517Y36709D1*
X28613Y36755D1*
X28715Y36786D1*
X28820Y36802D1*
X29008Y36803D1*
X29427Y36801D1*
X29532Y36785D1*
X29634Y36753D1*
X29729Y36706D1*
X29817Y36645D1*
X29894Y36572D1*
X29960Y36488D1*
X30013Y36396D1*
X30051Y36296D1*
X30073Y36192D1*
X30080Y36094D1*
X30072Y35988D1*
X30048Y35884D1*
X30009Y35785D1*
X29955Y35693D1*
X29889Y35610D1*
X29819Y35544D1*
X29863Y35535D1*
X29934Y35508D1*
X30000Y35470D1*
X30065Y35416D1*
X31245Y34236D1*
X31243Y34325D1*
X31029Y34539D1*
X30958Y34641D1*
X30880Y34765D1*
X30850Y34853D1*
X30825Y35074D1*
X30835Y35166D1*
X30909Y35376D1*
X30958Y35455D1*
X31116Y35613D1*
X31194Y35662D1*
X31404Y35736D1*
X31497Y35746D1*
X31718Y35721D1*
X31806Y35690D1*
X31994Y35573D1*
X32085Y35489D1*
X32384Y35190D1*
X32454Y35088D1*
X32532Y34964D1*
X32563Y34876D1*
X32588Y34655D1*
X32578Y34563D1*
X32504Y34353D1*
X32455Y34274D1*
X32297Y34116D1*
X32218Y34067D1*
X32171Y34050D1*
X32170Y33700D1*
X33507Y32363D1*
X33560Y32332D1*
X33620Y32285D1*
X33672Y32230D1*
X33723Y32147D1*
X34366Y31504D1*
X34359Y31569D1*
X34370Y31628D1*
X34456Y31869D1*
X34492Y31918D1*
X34674Y32097D1*
X34728Y32126D1*
X34969Y32208D1*
X35030Y32211D1*
X35284Y32180D1*
X35340Y32156D1*
X35555Y32018D1*
X35931Y31643D1*
X35966Y31591D1*
X36082Y31402D1*
X36098Y31343D1*
X36125Y31089D1*
X36114Y31029D1*
X36027Y30789D1*
X35992Y30740D1*
X35810Y30561D1*
X35756Y30532D1*
X35514Y30450D1*
X35454Y30447D1*
X35419Y30451D1*
X35871Y29999D1*
X35956Y30090D1*
X36733Y30868D1*
X36791Y30917D1*
X36857Y30956D1*
X36927Y30984D1*
X37002Y31000D1*
X37061Y31003D1*
X37144D1*
X37734Y31593D1*
X37354Y31594D1*
X37279Y31600D1*
X37205Y31618D1*
X37135Y31649D1*
X37071Y31690D1*
X37027Y31729D1*
X36954Y31802D1*
X36852Y31766D1*
X36759Y31756D1*
X36538Y31780D1*
X36450Y31811D1*
X36263Y31929D1*
X36171Y32013D1*
X35872Y32312D1*
X35802Y32414D1*
X35724Y32537D1*
X35693Y32625D1*
X35668Y32846D1*
X35679Y32939D1*
X35752Y33149D1*
X35802Y33228D1*
X35959Y33385D1*
X36038Y33435D1*
X36248Y33508D1*
X36341Y33519D1*
X36562Y33494D1*
X36650Y33463D1*
X36837Y33345D1*
X36929Y33262D1*
X37228Y32963D1*
X37298Y32861D1*
X37376Y32737D1*
X37404Y32664D1*
X37545Y32522D1*
X38085Y33062D1*
X37846Y33089D1*
X37758Y33119D1*
X37571Y33237D1*
X37480Y33321D1*
X37181Y33620D1*
X37110Y33722D1*
X37032Y33846D1*
X37001Y33933D1*
X36977Y34155D1*
X36987Y34247D1*
X37061Y34457D1*
X37110Y34536D1*
X37267Y34693D1*
X37346Y34743D1*
X37393Y34759D1*
X37395Y35622D1*
Y36696D1*
X36684Y37405D1*
X36635Y37463D1*
X36596Y37529D1*
X36568Y37599D1*
X36552Y37674D1*
X36549Y37733D1*
Y39251D1*
X36555Y39327D1*
X36573Y39401D1*
X36604Y39470D1*
X36645Y39534D1*
X36684Y39579D1*
X37188Y40085D1*
X37214Y40321D1*
X37244Y40409D1*
X37362Y40597D1*
X37446Y40688D1*
X37745Y40987D1*
X37847Y41058D1*
X37971Y41135D1*
X38059Y41166D1*
X38280Y41191D1*
X38372Y41181D1*
X38582Y41107D1*
X38661Y41058D1*
X38819Y40900D1*
X38868Y40821D1*
X38942Y40611D1*
X38952Y40519D1*
X38927Y40298D1*
X38896Y40210D1*
X38778Y40022D1*
X38695Y39931D1*
X38396Y39632D1*
X38294Y39561D1*
X38170Y39484D1*
X38082Y39453D1*
X37859Y39428D1*
X37805Y39389D1*
X37474Y39058D1*
X37475Y38260D1*
Y37925D1*
X38186Y37214D1*
X38235Y37156D1*
X38274Y37091D1*
X38302Y37020D1*
X38318Y36945D1*
X38321Y36886D1*
Y34484D1*
X38536Y34271D1*
X38606Y34169D1*
X38684Y34045D1*
X38715Y33957D1*
X38740Y33734D1*
X38750Y33764D1*
Y36905D1*
X38348Y37307D1*
X38299Y37365D1*
X38260Y37431D1*
X38232Y37502D1*
X38216Y37576D1*
X38212Y37635D1*
Y38298D1*
X38218Y38374D1*
X38237Y38448D1*
X38267Y38518D1*
X38309Y38582D1*
X38348Y38626D1*
X38496Y38777D1*
X38522Y39013D1*
X38553Y39101D1*
X38670Y39289D1*
X38754Y39380D1*
X39053Y39679D1*
X39155Y39749D1*
X39279Y39827D1*
X39367Y39858D1*
X39588Y39883D1*
X39680Y39873D1*
X39890Y39799D1*
X39969Y39750D1*
X40127Y39592D1*
X40176Y39513D1*
X40250Y39303D1*
X40260Y39211D1*
X40235Y38990D1*
X40204Y38902D1*
X40087Y38714D1*
X40003Y38623D1*
X39704Y38324D1*
X39602Y38253D1*
X39478Y38175D1*
X39390Y38145D1*
X39167Y38120D1*
X39139Y38070D1*
Y37825D1*
X39541Y37424D1*
X39591Y37366D1*
X39630Y37301D1*
X39657Y37230D1*
X39673Y37156D1*
X39677Y37097D1*
Y35989D1*
X40268Y36580D1*
X40267Y36866D1*
X40175Y36896D1*
X40096Y36945D1*
X39939Y37102D1*
X39889Y37181D1*
X39816Y37391D1*
X39805Y37484D1*
X39830Y37705D1*
X39861Y37793D1*
X39979Y37981D1*
X40062Y38072D1*
X40361Y38371D1*
X40463Y38441D1*
X40587Y38519D1*
X40675Y38550D1*
X40896Y38575D1*
X40989Y38564D1*
X41199Y38491D1*
X41277Y38441D1*
X41435Y38284D1*
X41484Y38205D1*
X41558Y37995D1*
X41568Y37903D1*
X41565Y37877D1*
X44037Y40350D1*
X43967Y40347D1*
X43906Y40363D1*
X43682Y40443D1*
X43633Y40479D1*
X43454Y40661D1*
X43425Y40715D1*
X43343Y40956D1*
X43340Y41017D1*
X43371Y41271D1*
X43395Y41326D1*
X43533Y41541D1*
X43909Y41917D1*
X44012Y41985D1*
X44149Y42069D1*
X44208Y42085D1*
X44462Y42112D1*
X44522Y42101D1*
X44762Y42014D1*
X44811Y41979D1*
X44990Y41797D1*
X45019Y41743D1*
X45101Y41501D1*
X45104Y41441D1*
X45101Y41412D1*
X46580Y42892D1*
X46579Y43244D1*
X46539Y43260D1*
X46460Y43309D1*
X46303Y43466D1*
X46253Y43545D1*
X46180Y43755D1*
X46169Y43848D1*
X46194Y44069D1*
X46225Y44157D1*
X46343Y44345D1*
X46426Y44436D1*
X46725Y44735D1*
X46827Y44805D1*
X46951Y44883D1*
X47039Y44914D1*
X47260Y44939D1*
X47353Y44928D1*
X47563Y44855D1*
X47641Y44805D1*
X47799Y44648D1*
X47848Y44569D1*
X47922Y44359D1*
X47932Y44267D1*
X47907Y44045D1*
X47877Y43958D1*
X47759Y43770D1*
X47675Y43679D1*
X47505Y43509D1*
X47506Y42699D1*
X47500Y42623D1*
X47481Y42549D1*
X47451Y42480D1*
X47409Y42416D1*
X47370Y42371D1*
X46698Y41700D1*
X46699Y41447D1*
X46778Y41504D1*
X46844Y41541D1*
X46914Y41572D1*
X46987Y41595D1*
X47061Y41610D1*
X47137Y41617D1*
X47213D1*
X47289Y41608D1*
X47363Y41592D1*
X47436Y41568D1*
X47505Y41537D1*
X47571Y41499D1*
X47633Y41454D1*
X47689Y41403D1*
X47740Y41347D1*
X47785Y41285D1*
X47824Y41219D1*
X47855Y41150D1*
X47879Y41077D1*
X47895Y41003D1*
X47905Y40876D1*
X47903Y40383D1*
X47901Y40307D1*
X47889Y40232D1*
X47870Y40158D1*
X47843Y40087D1*
X47808Y40019D1*
X47767Y39955D1*
X47720Y39895D1*
X47666Y39841D1*
X47607Y39793D1*
X47544Y39751D1*
X47477Y39715D1*
X47406Y39687D1*
X47332Y39667D1*
X47257Y39654D1*
X47181Y39649D1*
X47105Y39651D1*
X47030Y39662D1*
X46956Y39680D1*
X46884Y39706D1*
X46816Y39740D1*
X46700Y39819D1*
X46725Y39782D1*
X48017Y38491D1*
X48477Y38490D1*
X48553Y38483D1*
X48627Y38465D1*
X48696Y38434D1*
X48760Y38393D1*
X48805Y38354D1*
X50615Y36544D1*
X50729Y36578D1*
X50804Y36589D1*
X50881Y36592D1*
X50957Y36587D1*
X51032Y36574D1*
X51125Y36544D1*
X51342Y36761D1*
X51341Y37786D1*
Y39851D1*
X51248Y39783D1*
X51153Y39733D1*
X51053Y39698D1*
X50948Y39678D1*
X50841Y39674D1*
X50736Y39687D1*
X50633Y39715D1*
X50535Y39758D1*
X50445Y39815D1*
X50365Y39885D1*
X50296Y39967D1*
X50240Y40057D1*
X50199Y40155D1*
X50172Y40259D1*
X50161Y40365D1*
X50162Y40926D1*
X50177Y41031D1*
X50207Y41133D1*
X50252Y41230D1*
X50311Y41319D1*
X50382Y41398D1*
X50465Y41465D1*
X50557Y41519D1*
X50655Y41559D1*
X50759Y41584D1*
X50865Y41592D1*
X50972Y41585D1*
X51076Y41562D1*
X51175Y41524D1*
X51268Y41471D1*
X51342Y41413D1*
X51341Y47380D1*
X51276Y47280D1*
X50900Y46904D1*
X50797Y46837D1*
X50659Y46753D1*
X50601Y46736D1*
X50346Y46710D1*
X50287Y46721D1*
X50046Y46807D1*
X49997Y46843D1*
X49818Y47025D1*
X49789Y47079D1*
X49707Y47320D1*
X49704Y47381D1*
X49735Y47635D1*
X49759Y47690D1*
X49897Y47905D1*
X50273Y48281D1*
X50376Y48349D1*
X50513Y48433D1*
X50572Y48449D1*
X50826Y48476D1*
X50886Y48465D1*
X51126Y48378D1*
X51175Y48343D1*
X51341Y48176D1*
Y48976D1*
X49741Y50576D1*
Y49717D1*
X49790Y49699D1*
X49869Y49649D1*
X50026Y49492D1*
X50076Y49413D1*
X50149Y49203D1*
X50160Y49110D1*
X50135Y48889D1*
X50104Y48801D1*
X49986Y48614D1*
X49902Y48522D1*
X49603Y48223D1*
X49502Y48153D1*
X49378Y48075D1*
X49290Y48044D1*
X49069Y48019D1*
X48976Y48030D1*
X48766Y48103D1*
X48687Y48153D1*
X48530Y48310D1*
X48480Y48389D1*
X48407Y48599D1*
X48396Y48692D1*
X48421Y48913D1*
X48452Y49001D1*
X48570Y49188D1*
X48654Y49280D1*
X48814Y49440D1*
X48815Y50146D1*
X48755Y50045D1*
X48678Y49922D1*
X48594Y49830D1*
X48295Y49531D1*
X48194Y49461D1*
X48070Y49383D1*
X47982Y49352D1*
X47761Y49327D1*
X47668Y49338D1*
X47458Y49411D1*
X47379Y49461D1*
X47222Y49618D1*
X47172Y49697D1*
X47156Y49744D1*
X46294Y49746D1*
X45081D1*
X42330Y46996D1*
X42272Y46946D1*
X42207Y46907D1*
X42136Y46880D1*
X42062Y46864D1*
X42003Y46860D1*
X41948D1*
X41905Y46740D1*
X41870Y46672D1*
X41827Y46609D1*
X41778Y46551D1*
X41723Y46498D1*
X41663Y46451D1*
X41570Y46398D1*
X42623D1*
X42687Y46363D1*
X42691Y46289D1*
X42676Y46267D1*
X35814Y39601D1*
X35737Y39583D1*
X33036Y40933D1*
X32446Y41194D1*
X31844Y41623D1*
X31781Y41687D1*
X31328Y42174D1*
X30948Y42795D1*
X30834Y42640D1*
X30685Y42468D1*
X30521Y42308D1*
X30344Y42164D1*
X30154Y42036D1*
X29955Y41924D1*
X29746Y41831D1*
X29531Y41756D1*
X29309Y41700D1*
X29083Y41663D1*
X28855Y41647D1*
X28627Y41650D1*
X28400Y41673D1*
X28175Y41716D1*
X27955Y41779D1*
X27742Y41860D1*
X27536Y41959D1*
X27340Y42077D1*
X27155Y42210D1*
X26982Y42360D1*
X26822Y42524D1*
X26678Y42701D1*
X26550Y42890D1*
X26475Y43020D1*
X25861Y42217D1*
X25035Y41544D1*
X24953Y41502D1*
X24057Y41072D1*
X23010Y40844D1*
X22064Y40862D1*
X21439Y40828D1*
X20833Y40736D1*
X20239Y40587D1*
X19661Y40383D1*
X19106Y40125D1*
X18544Y39796D1*
X17698Y39320D1*
X16907Y38806D1*
X16152Y38241D1*
X15435Y37627D1*
X14760Y36969D1*
X14130Y36267D1*
X13546Y35526D1*
X13012Y34749D1*
X12530Y33938D1*
X12102Y33098D1*
X11730Y32231D1*
X11415Y31342D1*
X11159Y30434D1*
X10962Y29512D1*
X10827Y28578D1*
X10752Y27638D1*
X10739Y26688D1*
X10784Y25434D1*
X10925Y24196D1*
X11163Y22973D1*
X11497Y21772D1*
X11923Y20602D1*
X12440Y19468D1*
X13044Y18378D1*
X13732Y17339D1*
X14499Y16358D1*
X15340Y15439D1*
X16251Y14589D1*
X17226Y13813D1*
X18259Y13116D1*
X19343Y12502D1*
X20472Y11975D1*
X21639Y11538D1*
X22836Y11194D1*
X24057Y10945D1*
X25294Y10792D1*
X26538Y10737D1*
X27783Y10779D1*
X29021Y10919D1*
X30245Y11156D1*
X31446Y11487D1*
X32617Y11912D1*
X33751Y12428D1*
X34842Y13030D1*
X35882Y13717D1*
X36864Y14482D1*
X37784Y15323D1*
X38426Y16032D1*
X39036Y16791D1*
X39599Y17586D1*
X40114Y18413D1*
X40579Y19268D1*
X40992Y20150D1*
X41352Y21056D1*
X41658Y21981D1*
X41907Y22922D1*
X42100Y23877D1*
X42236Y24841D1*
X42314Y25812D1*
X42334Y26786D1*
X42297Y27759D1*
X42201Y28729D1*
X42047Y29691D1*
X41837Y30642D1*
X41570Y31578D1*
X41248Y32498D1*
X40872Y33396D1*
X40443Y34271D1*
X40404Y34339D1*
Y33145D1*
X40398Y33069D1*
X40380Y32996D1*
X40349Y32926D1*
X40308Y32862D1*
X40269Y32818D1*
X37663Y30212D1*
X37605Y30163D1*
X37540Y30124D1*
X37469Y30096D1*
X37395Y30080D1*
X37336Y30077D1*
X37252D1*
X36814Y29638D1*
X36858Y29564D1*
X36890Y29495D1*
X36914Y29422D1*
X36930Y29348D1*
X36938Y29228D1*
X36936Y28735D1*
X36935Y28659D1*
X36923Y28584D1*
X36902Y28510D1*
X36874Y28440D1*
X36839Y28372D1*
X36797Y28309D1*
X36748Y28251D1*
X36693Y28198D1*
X36632Y28151D1*
X36565Y28110D1*
X36695Y28113D1*
X37371Y28788D1*
X37373Y29235D1*
Y29293D1*
X37383Y29368D1*
X37401Y29442D1*
X37427Y29514D1*
X37461Y29582D1*
X37502Y29646D1*
X37549Y29706D1*
X37603Y29760D1*
X37662Y29808D1*
X37726Y29850D1*
X37793Y29884D1*
X37865Y29911D1*
X37938Y29930D1*
X38014Y29941D1*
X38090Y29944D1*
X38166Y29939D1*
X38241Y29926D1*
X38314Y29905D1*
X38384Y29876D1*
X38451Y29839D1*
X38514Y29796D1*
X38572Y29746D1*
X38624Y29690D1*
X38669Y29629D1*
X38708Y29564D1*
X38740Y29495D1*
X38764Y29422D1*
X38780Y29348D1*
X38788Y29228D1*
X38786Y28735D1*
X38785Y28659D1*
X38773Y28584D1*
X38752Y28510D1*
X38724Y28440D1*
X38689Y28372D1*
X38647Y28309D1*
X38598Y28251D1*
X38543Y28198D1*
X38482Y28151D1*
X38417Y28111D1*
X38349Y28079D1*
X38277Y28054D1*
X38203Y28037D1*
X38127Y28027D1*
X38051Y28026D1*
X37975Y28034D1*
X37900Y28049D1*
X37828Y28072D1*
X37727Y28121D1*
X37099Y27493D1*
X37040Y27445D1*
X36972Y27411D1*
X36913Y27394D1*
X36767Y27387D1*
X35579D1*
X35564Y27368D1*
X35986Y27366D1*
X37801Y27368D1*
X39220Y28787D1*
X39223Y29235D1*
Y29293D1*
X39233Y29368D1*
X39251Y29442D1*
X39277Y29514D1*
X39311Y29582D1*
X39352Y29646D1*
X39399Y29706D1*
X39453Y29760D1*
X39512Y29808D1*
X39576Y29850D1*
X39643Y29884D1*
X39715Y29911D1*
X39788Y29930D1*
X39864Y29941D1*
X39940Y29944D1*
X40016Y29939D1*
X40091Y29926D1*
X40164Y29905D1*
X40234Y29876D1*
X40301Y29839D1*
X40364Y29796D1*
X40422Y29746D1*
X40474Y29690D1*
X40519Y29629D1*
X40558Y29564D1*
X40590Y29495D1*
X40614Y29422D1*
X40630Y29348D1*
X40638Y29228D1*
X40636Y28735D1*
X40635Y28659D1*
X40623Y28584D1*
X40602Y28510D1*
X40574Y28440D1*
X40539Y28372D1*
X40497Y28309D1*
X40448Y28251D1*
X40393Y28198D1*
X40332Y28151D1*
X40267Y28111D1*
X40199Y28079D1*
X40127Y28054D1*
X40053Y28037D1*
X39977Y28027D1*
X39901Y28026D1*
X39825Y28034D1*
X39750Y28049D1*
X39678Y28072D1*
X39577Y28121D1*
X38205Y26749D1*
X38145Y26701D1*
X38078Y26666D1*
X38018Y26649D1*
X37873Y26643D1*
X35278D1*
X35281Y26615D1*
X35273Y26540D1*
X19983Y24324D2*
X20786D1*
Y23006D1*
X19968D1*
Y24324D1*
X19983D1*
X21283Y26524D2*
X22086D1*
Y25206D1*
X21268D1*
Y26524D1*
X21283D1*
X20044D2*
X20261D1*
X20259Y26713D1*
X20088Y26714D1*
Y29133D1*
X21357D1*
Y26714D1*
X21188D1*
X21186Y26399D1*
Y26210D1*
X21179Y26134D1*
X21161Y26061D1*
X21130Y25991D1*
X21089Y25927D1*
X21038Y25871D1*
X20978Y25824D1*
X20911Y25787D1*
X20859Y25769D1*
X20784Y25694D1*
X20786Y25458D1*
Y25206D1*
X19968D1*
Y26524D1*
X20044D1*
X28076Y31795D2*
X28078Y31736D1*
X28062Y31622D1*
X28031Y31523D1*
X27983Y31430D1*
X27919Y31347D1*
X27841Y31276D1*
X27753Y31220D1*
X27655Y31180D1*
X27553Y31157D1*
X27448Y31153D1*
X27344Y31167D1*
X27244Y31199D1*
X27151Y31247D1*
X27068Y31311D1*
X26997Y31389D1*
X26977Y31417D1*
X26849Y31418D1*
X26890Y31309D1*
X26906Y31234D1*
X26915Y31119D1*
X26911Y31043D1*
X26899Y30968D1*
X26879Y30895D1*
X26851Y30824D1*
X26815Y30756D1*
X26773Y30693D1*
X26724Y30635D1*
X26669Y30582D1*
X26609Y30535D1*
X26544Y30495D1*
X26475Y30463D1*
X26403Y30438D1*
X26329Y30420D1*
X26254Y30411D1*
X26177Y30410D1*
X26102Y30417D1*
X26027Y30432D1*
X25954Y30456D1*
X25885Y30486D1*
X25819Y30524D1*
X25757Y30569D1*
X25701Y30620D1*
X25650Y30677D1*
X25606Y30740D1*
X25569Y30806D1*
X25539Y30876D1*
X25517Y30949D1*
X25502Y31024D1*
X25496Y31100D1*
X25498Y31176D1*
X25508Y31251D1*
X25526Y31325D1*
X25552Y31397D1*
X25586Y31465D1*
X25627Y31530D1*
X25674Y31589D1*
X25727Y31644D1*
X25786Y31692D1*
X25850Y31733D1*
X25912Y31765D1*
X25854Y31856D1*
X25826Y31927D1*
X25808Y32001D1*
X25800Y32076D1*
X25802Y32152D1*
X25815Y32228D1*
X25837Y32300D1*
X25869Y32369D1*
X25910Y32434D1*
X25959Y32492D1*
X26016Y32543D1*
X26079Y32586D1*
X26147Y32620D1*
X26219Y32644D1*
X26294Y32659D1*
X26370Y32663D1*
X26445Y32657D1*
X26520Y32641D1*
X26592Y32616D1*
X26659Y32580D1*
X26721Y32536D1*
X26777Y32485D1*
X26825Y32426D1*
X26865Y32361D1*
X26896Y32291D1*
X26917Y32218D1*
X26929Y32098D1*
Y32091D1*
X26978D1*
X27034Y32163D1*
X27110Y32232D1*
X27199Y32289D1*
X27296Y32329D1*
X27398Y32351D1*
X27503Y32355D1*
X27607Y32342D1*
X27707Y32310D1*
X27800Y32261D1*
X27883Y32197D1*
X27954Y32120D1*
X28010Y32031D1*
X28050Y31934D1*
X28072Y31832D1*
X28076Y31795D1*
X29346D2*
X29348Y31736D1*
X29332Y31622D1*
X29301Y31523D1*
X29253Y31430D1*
X29189Y31347D1*
X29111Y31276D1*
X29023Y31220D1*
X28925Y31180D1*
X28823Y31157D1*
X28718Y31153D1*
X28614Y31167D1*
X28514Y31199D1*
X28421Y31247D1*
X28338Y31311D1*
X28267Y31389D1*
X28211Y31477D1*
X28171Y31574D1*
X28149Y31677D1*
X28144Y31782D1*
X28149Y31841D1*
X28168Y31921D1*
X28186Y31977D1*
X28209Y32027D1*
X28164Y32087D1*
X28126Y32153D1*
X28098Y32224D1*
X28080Y32298D1*
X28072Y32374D1*
X28074Y32450D1*
X28087Y32525D1*
X28109Y32598D1*
X28141Y32667D1*
X28182Y32731D1*
X28231Y32789D1*
X28288Y32840D1*
X28351Y32883D1*
X28419Y32917D1*
X28491Y32941D1*
X28566Y32956D1*
X28642Y32961D1*
X28717Y32955D1*
X28792Y32939D1*
X28864Y32913D1*
X28931Y32878D1*
X28993Y32834D1*
X29049Y32782D1*
X29097Y32723D1*
X29137Y32658D1*
X29168Y32588D1*
X29189Y32515D1*
X29201Y32396D1*
X29196Y32320D1*
X29181Y32245D1*
X29161Y32189D1*
X29224Y32118D1*
X29280Y32031D1*
X29320Y31934D1*
X29342Y31832D1*
X29346Y31795D1*
X36939Y24220D2*
Y24215D1*
X36938Y23705D1*
X36926Y23599D1*
X36897Y23496D1*
X36854Y23399D1*
X36797Y23309D1*
X36726Y23229D1*
X36645Y23160D1*
X36554Y23104D1*
X36456Y23063D1*
X36353Y23037D1*
X36246Y23026D1*
X36140Y23032D1*
X36036Y23053D1*
X35936Y23090D1*
X35842Y23141D1*
X35758Y23206D1*
X35684Y23282D1*
X35622Y23369D1*
X35574Y23465D1*
X35541Y23566D1*
X35523Y23671D1*
X35520Y23781D1*
X35523Y24293D1*
X35539Y24398D1*
X35571Y24500D1*
X35619Y24595D1*
X35679Y24683D1*
X35753Y24760D1*
X35837Y24826D1*
X35930Y24878D1*
X36029Y24916D1*
X36134Y24938D1*
X36240Y24944D1*
X36346Y24935D1*
X36450Y24909D1*
X36548Y24869D1*
X36639Y24814D1*
X36722Y24746D1*
X36793Y24667D1*
X36851Y24577D1*
X36895Y24480D1*
X36924Y24378D1*
X36938Y24272D1*
X36939Y24220D1*
X37371Y24214D2*
X37373Y24293D1*
X37383Y24368D1*
X37401Y24442D1*
X37427Y24514D1*
X37461Y24582D1*
X37502Y24646D1*
X37549Y24706D1*
X37603Y24760D1*
X37662Y24808D1*
X37726Y24850D1*
X37793Y24884D1*
X37865Y24911D1*
X37938Y24930D1*
X38014Y24941D1*
X38090Y24944D1*
X38166Y24939D1*
X38241Y24926D1*
X38314Y24905D1*
X38384Y24876D1*
X38451Y24839D1*
X38514Y24796D1*
X38572Y24746D1*
X38624Y24690D1*
X38669Y24629D1*
X38708Y24564D1*
X38740Y24495D1*
X38764Y24422D1*
X38780Y24348D1*
X38788Y24228D1*
X38786Y23735D1*
X38785Y23659D1*
X38773Y23584D1*
X38752Y23510D1*
X38724Y23440D1*
X38689Y23372D1*
X38647Y23309D1*
X38598Y23251D1*
X38541Y23196D1*
X38543Y22690D1*
Y21496D1*
X38537Y21420D1*
X38518Y21346D1*
X38488Y21277D1*
X38446Y21213D1*
X38407Y21169D1*
X37432Y20191D1*
X37407Y19955D1*
X37376Y19867D1*
X37258Y19679D1*
X37175Y19588D1*
X36876Y19289D1*
X36774Y19219D1*
X36650Y19141D1*
X36562Y19110D1*
X36341Y19085D1*
X36248Y19095D1*
X36038Y19169D1*
X35959Y19219D1*
X35802Y19376D1*
X35752Y19455D1*
X35679Y19665D1*
X35669Y19757D1*
X35693Y19978D1*
X35724Y20066D1*
X35842Y20254D1*
X35926Y20345D1*
X36225Y20644D1*
X36327Y20715D1*
X36450Y20793D1*
X36538Y20823D1*
X36762Y20848D1*
X36815Y20887D1*
X37615Y21687D1*
X37616Y23199D1*
X37524Y23294D1*
X37480Y23356D1*
X37443Y23423D1*
X37413Y23493D1*
X37391Y23566D1*
X37377Y23641D1*
X37370Y23735D1*
X37373Y24235D1*
X39221Y24214D2*
X39223Y24293D1*
X39233Y24368D1*
X39251Y24442D1*
X39277Y24514D1*
X39311Y24582D1*
X39352Y24646D1*
X39399Y24706D1*
X39453Y24760D1*
X39512Y24808D1*
X39576Y24850D1*
X39643Y24884D1*
X39715Y24911D1*
X39788Y24930D1*
X39864Y24941D1*
X39940Y24944D1*
X40016Y24939D1*
X40091Y24926D1*
X40164Y24905D1*
X40234Y24876D1*
X40301Y24839D1*
X40364Y24796D1*
X40422Y24746D1*
X40474Y24690D1*
X40519Y24629D1*
X40558Y24564D1*
X40590Y24495D1*
X40614Y24422D1*
X40630Y24348D1*
X40638Y24228D1*
X40636Y23735D1*
X40635Y23659D1*
X40623Y23584D1*
X40602Y23510D1*
X40574Y23440D1*
X40539Y23372D1*
X40497Y23309D1*
X40448Y23251D1*
X40391Y23196D1*
X40393Y22690D1*
Y20730D1*
X40387Y20654D1*
X40368Y20580D1*
X40338Y20510D1*
X40296Y20447D1*
X40257Y20402D1*
X38741Y18883D1*
X38715Y18647D1*
X38684Y18559D1*
X38566Y18371D1*
X38483Y18280D1*
X38184Y17981D1*
X38082Y17910D1*
X37958Y17833D1*
X37870Y17802D1*
X37649Y17777D1*
X37556Y17787D1*
X37346Y17861D1*
X37267Y17910D1*
X37110Y18068D1*
X37061Y18147D1*
X36987Y18357D1*
X36977Y18449D1*
X37002Y18670D1*
X37032Y18758D1*
X37150Y18946D1*
X37234Y19037D1*
X37533Y19336D1*
X37635Y19407D1*
X37759Y19484D1*
X37846Y19515D1*
X38070Y19540D1*
X38123Y19579D1*
X39465Y20921D1*
X39466Y23199D1*
X39374Y23294D1*
X39330Y23356D1*
X39293Y23423D1*
X39263Y23493D1*
X39241Y23566D1*
X39227Y23641D1*
X39220Y23735D1*
X39223Y24235D1*
X22165Y26362D2*
X23568D1*
Y24844D1*
X22150D1*
Y26362D1*
X22165D1*
X32524Y17627D2*
X32396Y17427D1*
X32020Y17051D1*
X31917Y16983D1*
X31779Y16899D1*
X31721Y16883D1*
X31467Y16856D1*
X31407Y16867D1*
X31167Y16954D1*
X31117Y16989D1*
X30938Y17171D1*
X30910Y17225D1*
X30827Y17467D1*
X30825Y17527D1*
X30855Y17781D1*
X30879Y17837D1*
X31017Y18052D1*
X31393Y18428D1*
X31496Y18495D1*
X31634Y18579D1*
X31692Y18596D1*
X31946Y18622D1*
X32006Y18611D1*
X32246Y18525D1*
X32295Y18489D1*
X32474Y18307D1*
X32503Y18254D1*
X32586Y18012D1*
X32588Y17951D1*
X32558Y17698D1*
X32534Y17642D1*
X32524Y17627D1*
X33800Y16267D2*
X33723Y16144D1*
X33639Y16052D1*
X33340Y15753D1*
X33238Y15683D1*
X33114Y15605D1*
X33026Y15574D1*
X32805Y15550D1*
X32713Y15560D1*
X32501Y15635D1*
X32477Y15619D1*
X31774Y14916D1*
X31716Y14866D1*
X31650Y14827D1*
X31579Y14800D1*
X31505Y14784D1*
X31446Y14780D1*
X30034D1*
X30015Y14731D1*
X29980Y14663D1*
X29938Y14600D1*
X29889Y14542D1*
X29834Y14489D1*
X29773Y14442D1*
X29708Y14402D1*
X29640Y14370D1*
X29568Y14345D1*
X29494Y14328D1*
X29368Y14318D1*
X28871Y14317D1*
X28842D1*
X28766Y14325D1*
X28691Y14340D1*
X28619Y14363D1*
X28549Y14394D1*
X28483Y14432D1*
X28422Y14477D1*
X28365Y14528D1*
X28315Y14585D1*
X28271Y14647D1*
X28234Y14714D1*
X28204Y14784D1*
X28182Y14857D1*
X28168Y14932D1*
X28162Y15008D1*
X28164Y15084D1*
X28174Y15159D1*
X28192Y15233D1*
X28218Y15305D1*
X28252Y15373D1*
X28293Y15437D1*
X28340Y15497D1*
X28394Y15551D1*
X28453Y15599D1*
X28517Y15641D1*
X28584Y15675D1*
X28656Y15702D1*
X28729Y15721D1*
X28805Y15732D1*
X29023Y15735D1*
X29371Y15733D1*
X29457Y15730D1*
X29571Y15706D1*
X31255Y15707D1*
X32306Y16759D1*
X32345Y16793D1*
X32444Y16864D1*
X32689Y17109D1*
X32791Y17179D1*
X32915Y17257D1*
X33003Y17288D1*
X33224Y17313D1*
X33316Y17302D1*
X33527Y17229D1*
X33605Y17179D1*
X33763Y17022D1*
X33812Y16943D1*
X33886Y16733D1*
X33896Y16640D1*
X33871Y16419D1*
X33841Y16331D1*
X33800Y16267D1*
X35108Y14959D2*
X35031Y14836D1*
X34947Y14744D1*
X34648Y14445D1*
X34546Y14375D1*
X34422Y14297D1*
X34335Y14266D1*
X34113Y14241D1*
X34019Y14253D1*
X33320Y13556D1*
X33026Y13262D1*
X32968Y13213D1*
X32903Y13174D1*
X32832Y13146D1*
X32757Y13130D1*
X32698Y13127D1*
X30077D1*
X30064Y13025D1*
X30043Y12951D1*
X30015Y12881D1*
X29980Y12813D1*
X29938Y12750D1*
X29889Y12692D1*
X29834Y12639D1*
X29773Y12592D1*
X29708Y12552D1*
X29640Y12520D1*
X29568Y12495D1*
X29494Y12478D1*
X29368Y12468D1*
X28871Y12467D1*
X28842D1*
X28766Y12475D1*
X28691Y12490D1*
X28619Y12513D1*
X28549Y12544D1*
X28483Y12582D1*
X28422Y12627D1*
X28365Y12678D1*
X28315Y12735D1*
X28271Y12797D1*
X28234Y12864D1*
X28204Y12934D1*
X28182Y13007D1*
X28168Y13082D1*
X28162Y13158D1*
X28164Y13234D1*
X28174Y13309D1*
X28192Y13383D1*
X28218Y13455D1*
X28252Y13523D1*
X28293Y13587D1*
X28340Y13647D1*
X28394Y13701D1*
X28453Y13749D1*
X28517Y13791D1*
X28584Y13825D1*
X28656Y13852D1*
X28729Y13871D1*
X28805Y13882D1*
X29023Y13885D1*
X29173D1*
X29265Y13967D1*
X29330Y14006D1*
X29401Y14034D1*
X29476Y14050D1*
X29534Y14053D1*
X32509D1*
X33125Y14672D1*
X33450Y14997D1*
X33466Y15135D1*
X33497Y15223D1*
X33615Y15410D1*
X33698Y15502D1*
X33997Y15801D1*
X34099Y15871D1*
X34223Y15949D1*
X34311Y15980D1*
X34532Y16005D1*
X34625Y15994D1*
X34835Y15921D1*
X34914Y15871D1*
X35071Y15714D1*
X35120Y15635D1*
X35194Y15425D1*
X35204Y15332D1*
X35179Y15111D1*
X35149Y15023D1*
X35108Y14959D1*
X23873Y14318D2*
X23766Y14325D1*
X23691Y14340D1*
X23619Y14363D1*
X23549Y14394D1*
X23483Y14432D1*
X23422Y14477D1*
X23335Y14562D1*
X20924Y14563D1*
X20848Y14569D1*
X20774Y14588D1*
X20705Y14618D1*
X20641Y14660D1*
X20596Y14699D1*
X19744Y15549D1*
X19507Y15574D1*
X19419Y15605D1*
X19232Y15723D1*
X19140Y15807D1*
X18841Y16106D1*
X18771Y16208D1*
X18693Y16331D1*
X18662Y16419D1*
X18638Y16640D1*
X18648Y16733D1*
X18721Y16943D1*
X18771Y17022D1*
X18928Y17179D1*
X19007Y17229D1*
X19217Y17302D1*
X19310Y17313D1*
X19531Y17288D1*
X19619Y17257D1*
X19806Y17139D1*
X19898Y17056D1*
X20197Y16757D1*
X20267Y16655D1*
X20345Y16531D1*
X20376Y16443D1*
X20401Y16219D1*
X20439Y16166D1*
X21118Y15487D1*
X21534Y15489D1*
X23336D1*
X23394Y15551D1*
X23453Y15599D1*
X23517Y15641D1*
X23584Y15675D1*
X23656Y15702D1*
X23729Y15721D1*
X23805Y15732D1*
X24023Y15735D1*
X24371Y15733D1*
X24457Y15730D1*
X24532Y15717D1*
X24605Y15696D1*
X24675Y15667D1*
X24742Y15630D1*
X24805Y15587D1*
X24863Y15537D1*
X24915Y15481D1*
X24960Y15420D1*
X24999Y15355D1*
X25031Y15286D1*
X25055Y15213D1*
X25071Y15139D1*
X25080Y15026D1*
X25076Y14950D1*
X25064Y14875D1*
X25043Y14801D1*
X25015Y14731D1*
X24980Y14663D1*
X24938Y14600D1*
X24889Y14542D1*
X24834Y14489D1*
X24773Y14442D1*
X24708Y14402D1*
X24640Y14370D1*
X24568Y14345D1*
X24494Y14328D1*
X24368Y14318D1*
X23871Y14317D1*
Y14319D1*
X23873Y12468D2*
X23766Y12475D1*
X23691Y12490D1*
X23619Y12513D1*
X23549Y12544D1*
X23483Y12582D1*
X23422Y12627D1*
X23335Y12712D1*
X20158Y12713D1*
X20082Y12719D1*
X20008Y12738D1*
X19938Y12768D1*
X19874Y12810D1*
X19830Y12849D1*
X18436Y14241D1*
X18199Y14266D1*
X18111Y14297D1*
X17924Y14415D1*
X17832Y14499D1*
X17533Y14798D1*
X17463Y14899D1*
X17385Y15023D1*
X17354Y15111D1*
X17329Y15332D1*
X17340Y15425D1*
X17413Y15635D1*
X17463Y15714D1*
X17620Y15871D1*
X17699Y15921D1*
X17909Y15994D1*
X18002Y16005D1*
X18223Y15980D1*
X18311Y15949D1*
X18498Y15831D1*
X18590Y15747D1*
X18889Y15448D1*
X18959Y15347D1*
X19037Y15223D1*
X19068Y15135D1*
X19092Y14911D1*
X19131Y14858D1*
X20349Y13640D1*
X23332Y13639D1*
X23394Y13701D1*
X23453Y13749D1*
X23517Y13791D1*
X23584Y13825D1*
X23656Y13852D1*
X23729Y13871D1*
X23805Y13882D1*
X24023Y13885D1*
X24371Y13883D1*
X24457Y13880D1*
X24532Y13867D1*
X24605Y13846D1*
X24675Y13817D1*
X24742Y13780D1*
X24805Y13737D1*
X24863Y13687D1*
X24915Y13631D1*
X24960Y13570D1*
X24999Y13505D1*
X25031Y13436D1*
X25055Y13363D1*
X25071Y13289D1*
X25080Y13176D1*
X25076Y13100D1*
X25064Y13025D1*
X25043Y12951D1*
X25015Y12881D1*
X24980Y12813D1*
X24938Y12750D1*
X24889Y12692D1*
X24834Y12639D1*
X24773Y12592D1*
X24708Y12552D1*
X24640Y12520D1*
X24568Y12495D1*
X24494Y12478D1*
X24368Y12468D1*
X23871Y12467D1*
Y12469D1*
X14452Y29214D2*
X14454Y29293D1*
X14465Y29368D1*
X14483Y29442D1*
X14509Y29514D1*
X14543Y29582D1*
X14583Y29646D1*
X14631Y29706D1*
X14697Y29771D1*
X14698Y31815D1*
X14704Y31891D1*
X14723Y31964D1*
X14753Y32034D1*
X14795Y32098D1*
X14834Y32142D1*
X15101Y32412D1*
X15127Y32649D1*
X15158Y32737D1*
X15276Y32924D1*
X15359Y33016D1*
X15658Y33315D1*
X15760Y33385D1*
X15884Y33463D1*
X15972Y33494D1*
X16193Y33519D1*
X16285Y33508D1*
X16496Y33435D1*
X16574Y33385D1*
X16732Y33228D1*
X16781Y33149D1*
X16855Y32939D1*
X16865Y32846D1*
X16840Y32625D1*
X16810Y32537D1*
X16692Y32350D1*
X16608Y32258D1*
X16309Y31959D1*
X16207Y31889D1*
X16083Y31811D1*
X15995Y31780D1*
X15772Y31756D1*
X15718Y31717D1*
X15626Y31624D1*
X15625Y30215D1*
Y29774D1*
X15705Y29690D1*
X15751Y29629D1*
X15790Y29564D1*
X15821Y29495D1*
X15845Y29422D1*
X15862Y29348D1*
X15870Y29228D1*
X15868Y28735D1*
X15866Y28659D1*
X15854Y28584D1*
X15834Y28510D1*
X15806Y28440D1*
X15771Y28372D1*
X15728Y28309D1*
X15679Y28251D1*
X15624Y28198D1*
X15564Y28151D1*
X15499Y28111D1*
X15430Y28079D1*
X15358Y28054D1*
X15284Y28037D1*
X15209Y28027D1*
X15132Y28026D1*
X15057Y28034D1*
X14982Y28049D1*
X14909Y28072D1*
X14840Y28103D1*
X14774Y28141D1*
X14712Y28186D1*
X14656Y28237D1*
X14606Y28294D1*
X14562Y28356D1*
X14524Y28423D1*
X14495Y28493D1*
X14472Y28566D1*
X14458Y28641D1*
X14452Y28735D1*
X14454Y29235D1*
X12602Y29214D2*
X12604Y29293D1*
X12615Y29368D1*
X12633Y29442D1*
X12659Y29514D1*
X12693Y29582D1*
X12733Y29646D1*
X12781Y29706D1*
X12847Y29771D1*
X12848Y32581D1*
X12854Y32657D1*
X12873Y32731D1*
X12903Y32801D1*
X12945Y32864D1*
X12984Y32909D1*
X13793Y33721D1*
X13819Y33957D1*
X13850Y34045D1*
X13967Y34233D1*
X14051Y34324D1*
X14350Y34623D1*
X14452Y34693D1*
X14576Y34771D1*
X14664Y34802D1*
X14885Y34827D1*
X14977Y34816D1*
X15187Y34743D1*
X15266Y34693D1*
X15424Y34536D1*
X15473Y34457D1*
X15547Y34247D1*
X15557Y34155D1*
X15532Y33933D1*
X15501Y33846D1*
X15384Y33658D1*
X15300Y33567D1*
X15001Y33268D1*
X14899Y33197D1*
X14775Y33119D1*
X14687Y33089D1*
X14464Y33064D1*
X14410Y33025D1*
X13776Y32390D1*
X13775Y29774D1*
X13855Y29690D1*
X13901Y29629D1*
X13940Y29564D1*
X13971Y29495D1*
X13995Y29422D1*
X14012Y29348D1*
X14020Y29228D1*
X14018Y28735D1*
X14016Y28659D1*
X14004Y28584D1*
X13984Y28510D1*
X13956Y28440D1*
X13921Y28372D1*
X13878Y28309D1*
X13829Y28251D1*
X13774Y28198D1*
X13714Y28151D1*
X13649Y28111D1*
X13580Y28079D1*
X13508Y28054D1*
X13434Y28037D1*
X13359Y28027D1*
X13282Y28026D1*
X13207Y28034D1*
X13132Y28049D1*
X13059Y28072D1*
X12990Y28103D1*
X12924Y28141D1*
X12862Y28186D1*
X12806Y28237D1*
X12756Y28294D1*
X12712Y28356D1*
X12674Y28423D1*
X12645Y28493D1*
X12622Y28566D1*
X12608Y28641D1*
X12602Y28735D1*
X12604Y29235D1*
X18734Y36337D2*
X18811Y36460D1*
X18895Y36551D1*
X19194Y36850D1*
X19296Y36921D1*
X19419Y36999D1*
X19507Y37029D1*
X19731Y37054D1*
X19784Y37093D1*
X20963Y38272D1*
X21021Y38321D1*
X21086Y38360D1*
X21157Y38388D1*
X21232Y38404D1*
X21291Y38407D1*
X23336D1*
X23394Y38469D1*
X23453Y38517D1*
X23517Y38559D1*
X23584Y38593D1*
X23656Y38620D1*
X23729Y38639D1*
X23805Y38650D1*
X24023Y38653D1*
X24371Y38651D1*
X24457Y38648D1*
X24532Y38635D1*
X24605Y38614D1*
X24675Y38585D1*
X24742Y38548D1*
X24805Y38505D1*
X24863Y38455D1*
X24915Y38399D1*
X24960Y38338D1*
X24999Y38273D1*
X25031Y38204D1*
X25055Y38131D1*
X25071Y38057D1*
X25080Y37944D1*
X25076Y37868D1*
X25064Y37793D1*
X25043Y37719D1*
X25015Y37649D1*
X24980Y37581D1*
X24938Y37518D1*
X24889Y37460D1*
X24834Y37407D1*
X24773Y37360D1*
X24708Y37320D1*
X24640Y37288D1*
X24568Y37263D1*
X24494Y37246D1*
X24368Y37236D1*
X23871Y37235D1*
X23842D1*
X23766Y37243D1*
X23691Y37258D1*
X23619Y37281D1*
X23549Y37312D1*
X23483Y37350D1*
X23422Y37395D1*
X23335Y37480D1*
X21480Y37481D1*
X21133Y37132D1*
X20401Y36397D1*
X20376Y36161D1*
X20345Y36073D1*
X20227Y35885D1*
X20144Y35794D1*
X19845Y35495D1*
X19743Y35425D1*
X19619Y35347D1*
X19531Y35316D1*
X19310Y35291D1*
X19217Y35301D1*
X19007Y35375D1*
X18928Y35425D1*
X18771Y35582D1*
X18721Y35661D1*
X18648Y35871D1*
X18638Y35963D1*
X18662Y36184D1*
X18693Y36272D1*
X18734Y36337D1*
X17426Y37645D2*
X17503Y37768D1*
X17587Y37859D1*
X17886Y38158D1*
X17987Y38229D1*
X18111Y38307D1*
X18199Y38337D1*
X18423Y38362D1*
X18476Y38401D1*
X20197Y40122D1*
X20255Y40171D1*
X20320Y40210D1*
X20391Y40238D1*
X20465Y40254D1*
X20524Y40257D1*
X23332D1*
X23394Y40319D1*
X23453Y40367D1*
X23517Y40409D1*
X23584Y40443D1*
X23656Y40470D1*
X23729Y40489D1*
X23805Y40500D1*
X24023Y40503D1*
X24371Y40501D1*
X24457Y40498D1*
X24532Y40485D1*
X24605Y40464D1*
X24675Y40435D1*
X24742Y40398D1*
X24805Y40355D1*
X24863Y40305D1*
X24915Y40249D1*
X24960Y40188D1*
X24999Y40123D1*
X25031Y40054D1*
X25055Y39981D1*
X25071Y39907D1*
X25080Y39794D1*
X25076Y39718D1*
X25064Y39643D1*
X25043Y39569D1*
X25015Y39499D1*
X24980Y39431D1*
X24938Y39368D1*
X24889Y39310D1*
X24834Y39257D1*
X24773Y39210D1*
X24708Y39170D1*
X24640Y39138D1*
X24568Y39113D1*
X24494Y39096D1*
X24368Y39086D1*
X23871Y39085D1*
X23842D1*
X23766Y39093D1*
X23691Y39108D1*
X23619Y39131D1*
X23549Y39162D1*
X23483Y39200D1*
X23422Y39245D1*
X23335Y39330D1*
X20718Y39331D1*
X19092Y37707D1*
X19093Y37690D1*
X19068Y37469D1*
X19037Y37381D1*
X18919Y37193D1*
X18835Y37102D1*
X18536Y36803D1*
X18435Y36733D1*
X18311Y36655D1*
X18223Y36624D1*
X18002Y36599D1*
X17909Y36610D1*
X17699Y36683D1*
X17620Y36733D1*
X17463Y36890D1*
X17413Y36969D1*
X17340Y37179D1*
X17329Y37271D1*
X17354Y37493D1*
X17385Y37581D1*
X17426Y37645D1*
X25770Y20883D2*
X25757Y20808D1*
X25736Y20735D1*
X25707Y20664D1*
X25671Y20598D1*
X25627Y20535D1*
X25576Y20478D1*
X25520Y20427D1*
X25458Y20382D1*
X25392Y20345D1*
X25322Y20315D1*
X25249Y20293D1*
X25174Y20280D1*
X25098Y20275D1*
X25022Y20278D1*
X24946Y20289D1*
X24873Y20309D1*
X24802Y20337D1*
X24735Y20373D1*
X24672Y20416D1*
X24614Y20466D1*
X24562Y20522D1*
X24517Y20583D1*
X24479Y20649D1*
X24448Y20718D1*
X24425Y20791D1*
X24411Y20866D1*
X24405Y20942D1*
X24407Y21018D1*
X24418Y21093D1*
X24437Y21167D1*
X24464Y21238D1*
X24499Y21306D1*
X24541Y21369D1*
X24590Y21428D1*
X24645Y21480D1*
X24706Y21526D1*
X24771Y21565D1*
X24840Y21597D1*
X24913Y21621D1*
X24987Y21636D1*
X25063Y21643D1*
X25139Y21642D1*
X25215Y21632D1*
X25289Y21614D1*
X25360Y21588D1*
X25428Y21554D1*
X25492Y21513D1*
X25551Y21464D1*
X25604Y21410D1*
X25651Y21350D1*
X25691Y21285D1*
X25724Y21216D1*
X25748Y21144D1*
X25765Y21070D1*
X25774Y20959D1*
X25770Y20883D1*
X28770D2*
X28757Y20808D1*
X28736Y20735D1*
X28707Y20664D1*
X28671Y20598D1*
X28627Y20535D1*
X28576Y20478D1*
X28520Y20427D1*
X28458Y20382D1*
X28392Y20345D1*
X28322Y20315D1*
X28249Y20293D1*
X28174Y20280D1*
X28098Y20275D1*
X28022Y20278D1*
X27946Y20289D1*
X27873Y20309D1*
X27802Y20337D1*
X27735Y20373D1*
X27672Y20416D1*
X27614Y20466D1*
X27562Y20522D1*
X27517Y20583D1*
X27479Y20649D1*
X27448Y20718D1*
X27425Y20791D1*
X27411Y20866D1*
X27405Y20942D1*
X27407Y21018D1*
X27418Y21093D1*
X27437Y21167D1*
X27464Y21238D1*
X27499Y21306D1*
X27541Y21369D1*
X27590Y21428D1*
X27645Y21480D1*
X27706Y21526D1*
X27771Y21565D1*
X27840Y21597D1*
X27913Y21621D1*
X27987Y21636D1*
X28063Y21643D1*
X28139Y21642D1*
X28215Y21632D1*
X28289Y21614D1*
X28360Y21588D1*
X28428Y21554D1*
X28492Y21513D1*
X28551Y21464D1*
X28604Y21410D1*
X28651Y21350D1*
X28691Y21285D1*
X28724Y21216D1*
X28748Y21144D1*
X28765Y21070D1*
X28774Y20959D1*
X28770Y20883D1*
X42129Y42701D2*
X42206Y42824D1*
X42290Y42916D1*
X42589Y43215D1*
X42690Y43285D1*
X42814Y43363D1*
X42902Y43394D1*
X43126Y43418D1*
X43179Y43457D1*
X44860Y45141D1*
X44886Y45377D1*
X44917Y45465D1*
X45034Y45653D1*
X45118Y45744D1*
X45417Y46043D1*
X45519Y46113D1*
X45643Y46191D1*
X45731Y46222D1*
X45952Y46247D1*
X46044Y46237D1*
X46254Y46163D1*
X46333Y46114D1*
X46491Y45956D1*
X46540Y45877D1*
X46614Y45667D1*
X46624Y45575D1*
X46599Y45354D1*
X46568Y45266D1*
X46451Y45078D1*
X46367Y44987D1*
X46068Y44688D1*
X45966Y44617D1*
X45842Y44539D1*
X45754Y44509D1*
X45531Y44484D1*
X45477Y44445D1*
X43796Y42762D1*
X43771Y42525D1*
X43740Y42437D1*
X43622Y42250D1*
X43538Y42158D1*
X43239Y41859D1*
X43138Y41789D1*
X43014Y41711D1*
X42926Y41680D1*
X42705Y41655D1*
X42612Y41666D1*
X42402Y41739D1*
X42323Y41789D1*
X42166Y41946D1*
X42116Y42025D1*
X42043Y42235D1*
X42032Y42328D1*
X42057Y42549D1*
X42088Y42637D1*
X42129Y42701D1*
X40821Y44009D2*
X40898Y44132D1*
X40981Y44224D1*
X41280Y44523D1*
X41382Y44593D1*
X41506Y44671D1*
X41594Y44702D1*
X41818Y44726D1*
X41871Y44765D1*
X43552Y46449D1*
X43578Y46685D1*
X43608Y46773D1*
X43726Y46961D1*
X43810Y47052D1*
X44109Y47351D1*
X44211Y47422D1*
X44335Y47499D1*
X44423Y47530D1*
X44644Y47555D1*
X44736Y47545D1*
X44946Y47471D1*
X45025Y47422D1*
X45183Y47264D1*
X45232Y47185D1*
X45306Y46975D1*
X45316Y46883D1*
X45291Y46662D1*
X45260Y46574D1*
X45142Y46386D1*
X45059Y46295D1*
X44760Y45996D1*
X44658Y45925D1*
X44534Y45848D1*
X44446Y45817D1*
X44223Y45792D1*
X44169Y45753D1*
X42488Y44070D1*
X42463Y43833D1*
X42432Y43745D1*
X42314Y43558D1*
X42230Y43466D1*
X41931Y43167D1*
X41830Y43097D1*
X41706Y43019D1*
X41618Y42988D1*
X41397Y42963D1*
X41304Y42974D1*
X41094Y43047D1*
X41015Y43097D1*
X40858Y43254D1*
X40808Y43333D1*
X40735Y43543D1*
X40724Y43636D1*
X40749Y43857D1*
X40780Y43945D1*
X40821Y44009D1*
X47431Y50674D2*
X47631Y50873D1*
X44593Y50872D1*
X42330Y48610D1*
X42272Y48561D1*
X42207Y48522D1*
X42136Y48494D1*
X42062Y48478D1*
X42003Y48475D1*
X41838D1*
X41778Y48401D1*
X41723Y48348D1*
X41663Y48301D1*
X41598Y48261D1*
X41529Y48229D1*
X41457Y48204D1*
X41383Y48187D1*
X41258Y48177D1*
X40760Y48176D1*
X40731D1*
X40656Y48184D1*
X40581Y48199D1*
X40508Y48222D1*
X40439Y48253D1*
X40373Y48291D1*
X40311Y48336D1*
X40255Y48387D1*
X40205Y48444D1*
X40161Y48506D1*
X40123Y48573D1*
X40094Y48643D1*
X40071Y48716D1*
X40057Y48791D1*
X40051Y48867D1*
X40053Y48943D1*
X40064Y49018D1*
X40082Y49092D1*
X40108Y49164D1*
X40142Y49232D1*
X40182Y49296D1*
X40230Y49356D1*
X40283Y49410D1*
X40342Y49458D1*
X40406Y49500D1*
X40474Y49534D1*
X40545Y49561D1*
X40619Y49580D1*
X40694Y49591D1*
X40913Y49594D1*
X41260Y49592D1*
X41347Y49589D1*
X41422Y49576D1*
X41495Y49555D1*
X41565Y49526D1*
X41632Y49489D1*
X41695Y49446D1*
X41749Y49401D1*
X41813D1*
X42322Y49912D1*
X43967Y51557D1*
X43810D1*
X42660Y50408D1*
X42602Y50358D1*
X42536Y50319D1*
X42465Y50291D1*
X42391Y50276D1*
X42332Y50272D1*
X41796D1*
X41723Y50198D1*
X41663Y50151D1*
X41598Y50111D1*
X41529Y50079D1*
X41457Y50054D1*
X41383Y50037D1*
X41258Y50027D1*
X40760Y50026D1*
X40731D1*
X40656Y50034D1*
X40581Y50049D1*
X40508Y50072D1*
X40439Y50103D1*
X40373Y50141D1*
X40311Y50186D1*
X40255Y50237D1*
X40205Y50294D1*
X40161Y50356D1*
X40123Y50423D1*
X40094Y50493D1*
X40071Y50566D1*
X40057Y50641D1*
X40051Y50717D1*
X40053Y50793D1*
X40064Y50868D1*
X40082Y50942D1*
X40108Y51014D1*
X40142Y51082D1*
X40182Y51146D1*
X40230Y51206D1*
X40283Y51260D1*
X40342Y51308D1*
X40406Y51350D1*
X40474Y51384D1*
X40545Y51411D1*
X40619Y51430D1*
X40694Y51441D1*
X40913Y51444D1*
X41260Y51442D1*
X41347Y51439D1*
X41422Y51426D1*
X41495Y51405D1*
X41565Y51376D1*
X41632Y51339D1*
X41695Y51296D1*
X41796Y51199D1*
X42141Y51198D1*
X42727Y51785D1*
X40870Y51784D1*
X35357D1*
Y51320D1*
X35460Y51378D1*
X35560Y51416D1*
X35664Y51438D1*
X35771Y51444D1*
X36316Y51442D1*
X36422Y51426D1*
X36523Y51394D1*
X36619Y51347D1*
X36707Y51286D1*
X36784Y51213D1*
X36850Y51129D1*
X36902Y51037D1*
X36940Y50937D1*
X36963Y50833D1*
X36970Y50735D1*
X36962Y50629D1*
X36938Y50525D1*
X36899Y50426D1*
X36845Y50334D1*
X36778Y50251D1*
X36700Y50178D1*
X36611Y50119D1*
X36515Y50073D1*
X36413Y50043D1*
X36308Y50027D1*
X36077Y50026D1*
X35701Y50028D1*
X35596Y50045D1*
X35494Y50078D1*
X35399Y50125D1*
X35357Y50151D1*
Y49467D1*
X35406Y49500D1*
X35474Y49534D1*
X35545Y49561D1*
X35619Y49580D1*
X35694Y49591D1*
X35913Y49594D1*
X36260Y49592D1*
X36347Y49589D1*
X36422Y49576D1*
X36495Y49555D1*
X36565Y49526D1*
X36632Y49489D1*
X36695Y49446D1*
X36752Y49396D1*
X36804Y49340D1*
X36850Y49279D1*
X36889Y49214D1*
X36920Y49145D1*
X36946Y49065D1*
X37129D1*
X37235Y49123D1*
X37307Y49148D1*
X37382Y49162D1*
X37458Y49167D1*
X37534Y49161D1*
X37608Y49145D1*
X37680Y49119D1*
X37747Y49084D1*
X37809Y49040D1*
X37865Y48988D1*
X37913Y48929D1*
X37953Y48864D1*
X37984Y48794D1*
X38005Y48721D1*
X38018Y48602D1*
X38012Y48526D1*
X37997Y48451D1*
X37972Y48379D1*
X37937Y48312D1*
X37894Y48249D1*
X37842Y48193D1*
X37784Y48144D1*
X37719Y48104D1*
X37650Y48072D1*
X37577Y48051D1*
X37502Y48039D1*
X37426Y48038D1*
X37350Y48046D1*
X37276Y48065D1*
X37206Y48094D1*
X37130Y48139D1*
X36294Y48138D1*
X36218Y48145D1*
X36165Y48157D1*
X36108Y48176D1*
X35760Y48178D1*
X35656Y48184D1*
X35581Y48199D1*
X35508Y48222D1*
X35439Y48253D1*
X35356Y48304D1*
X35357Y47898D1*
Y47619D1*
X35474Y47684D1*
X35545Y47711D1*
X35619Y47730D1*
X35694Y47741D1*
X35913Y47744D1*
X36260Y47742D1*
X36347Y47739D1*
X36422Y47726D1*
X36495Y47705D1*
X36565Y47676D1*
X36632Y47639D1*
X36695Y47596D1*
X36752Y47546D1*
X36804Y47490D1*
X36861Y47411D1*
X37086D1*
X37189Y47469D1*
X37261Y47494D1*
X37336Y47508D1*
X37412Y47513D1*
X37488Y47507D1*
X37562Y47491D1*
X37634Y47465D1*
X37701Y47430D1*
X37763Y47386D1*
X37819Y47334D1*
X37867Y47275D1*
X37907Y47210D1*
X37938Y47141D1*
X37959Y47067D1*
X37972Y46948D1*
X37967Y46872D1*
X37951Y46797D1*
X37926Y46726D1*
X37891Y46658D1*
X37848Y46595D1*
X37797Y46539D1*
X37738Y46490D1*
X37673Y46450D1*
X37604Y46419D1*
X37533Y46398D1*
X40451D1*
X40373Y46441D1*
X40311Y46486D1*
X40255Y46537D1*
X40205Y46594D1*
X40161Y46656D1*
X40123Y46723D1*
X40094Y46793D1*
X40071Y46866D1*
X40057Y46941D1*
X40051Y47017D1*
X40053Y47093D1*
X40064Y47168D1*
X40082Y47242D1*
X40108Y47314D1*
X40142Y47382D1*
X40182Y47446D1*
X40230Y47506D1*
X40283Y47560D1*
X40342Y47608D1*
X40406Y47650D1*
X40474Y47684D1*
X40545Y47711D1*
X40619Y47730D1*
X40694Y47741D1*
X40913Y47744D1*
X41106D1*
X41215Y47779D1*
X41298Y47787D1*
X41810D1*
X44561Y50537D1*
X44619Y50586D1*
X44684Y50625D1*
X44755Y50653D1*
X44830Y50669D1*
X44889Y50672D1*
X47429D1*
X48286Y40859D2*
X48288Y40937D1*
X48297Y41013D1*
X48314Y41087D1*
X48339Y41159D1*
X48372Y41228D1*
X48411Y41293D1*
X48456Y41354D1*
X48508Y41410D1*
X48566Y41460D1*
X48628Y41504D1*
X48694Y41541D1*
X48764Y41572D1*
X48837Y41595D1*
X48911Y41610D1*
X48987Y41617D1*
X49063D1*
X49139Y41608D1*
X49213Y41592D1*
X49286Y41568D1*
X49355Y41537D1*
X49421Y41499D1*
X49483Y41454D1*
X49539Y41403D1*
X49590Y41347D1*
X49635Y41285D1*
X49674Y41219D1*
X49705Y41150D1*
X49729Y41077D1*
X49745Y41003D1*
X49755Y40876D1*
X49753Y40383D1*
X49751Y40307D1*
X49739Y40232D1*
X49720Y40158D1*
X49693Y40087D1*
X49658Y40019D1*
X49617Y39955D1*
X49570Y39895D1*
X49516Y39841D1*
X49457Y39793D1*
X49394Y39751D1*
X49327Y39715D1*
X49256Y39687D1*
X49182Y39667D1*
X49107Y39654D1*
X49031Y39649D1*
X48955Y39651D1*
X48880Y39662D1*
X48806Y39680D1*
X48734Y39706D1*
X48666Y39740D1*
X48601Y39780D1*
X48541Y39826D1*
X48486Y39879D1*
X48436Y39937D1*
X48393Y40000D1*
X48357Y40067D1*
X48328Y40137D1*
X48306Y40210D1*
X48292Y40285D1*
X48286Y40383D1*
X48288Y40883D1*
X14698Y20865D2*
X14697Y23200D1*
X14606Y23294D1*
X14562Y23356D1*
X14524Y23423D1*
X14495Y23493D1*
X14472Y23566D1*
X14458Y23641D1*
X14452Y23735D1*
X14454Y24235D1*
Y24293D1*
X14465Y24368D1*
X14483Y24442D1*
X14509Y24514D1*
X14543Y24582D1*
X14583Y24646D1*
X14631Y24706D1*
X14684Y24760D1*
X14743Y24808D1*
X14807Y24850D1*
X14875Y24884D1*
X14946Y24911D1*
X15020Y24930D1*
X15095Y24941D1*
X15172Y24944D1*
X15248Y24939D1*
X15323Y24926D1*
X15396Y24905D1*
X15466Y24876D1*
X15533Y24839D1*
X15596Y24796D1*
X15653Y24746D1*
X15705Y24690D1*
X15751Y24629D1*
X15790Y24564D1*
X15821Y24495D1*
X15845Y24422D1*
X15862Y24348D1*
X15870Y24228D1*
X15868Y23735D1*
X15866Y23659D1*
X15854Y23584D1*
X15834Y23510D1*
X15806Y23440D1*
X15771Y23372D1*
X15728Y23309D1*
X15679Y23251D1*
X15622Y23196D1*
X15625Y22690D1*
Y20982D1*
X15759Y20849D1*
X15995Y20823D1*
X16083Y20793D1*
X16271Y20675D1*
X16362Y20591D1*
X16661Y20292D1*
X16732Y20190D1*
X16810Y20066D1*
X16840Y19978D1*
X16865Y19757D1*
X16855Y19665D1*
X16781Y19455D1*
X16732Y19376D1*
X16574Y19219D1*
X16496Y19169D1*
X16285Y19095D1*
X16193Y19085D1*
X15972Y19110D1*
X15884Y19141D1*
X15696Y19259D1*
X15605Y19342D1*
X15306Y19641D1*
X15235Y19743D1*
X15158Y19867D1*
X15127Y19955D1*
X15102Y20193D1*
X14834Y20461D1*
X14784Y20519D1*
X14745Y20585D1*
X14718Y20656D1*
X14702Y20730D1*
X14698Y20789D1*
Y20865D1*
X12848Y20099D2*
X12847Y23200D1*
X12756Y23294D1*
X12712Y23356D1*
X12674Y23423D1*
X12645Y23493D1*
X12622Y23566D1*
X12608Y23641D1*
X12602Y23735D1*
X12604Y24235D1*
Y24293D1*
X12615Y24368D1*
X12633Y24442D1*
X12659Y24514D1*
X12693Y24582D1*
X12733Y24646D1*
X12781Y24706D1*
X12834Y24760D1*
X12893Y24808D1*
X12957Y24850D1*
X13025Y24884D1*
X13096Y24911D1*
X13170Y24930D1*
X13245Y24941D1*
X13322Y24944D1*
X13398Y24939D1*
X13473Y24926D1*
X13546Y24905D1*
X13616Y24876D1*
X13683Y24839D1*
X13746Y24796D1*
X13803Y24746D1*
X13855Y24690D1*
X13901Y24629D1*
X13940Y24564D1*
X13971Y24495D1*
X13995Y24422D1*
X14012Y24348D1*
X14020Y24228D1*
X14018Y23735D1*
X14016Y23659D1*
X14004Y23584D1*
X13984Y23510D1*
X13956Y23440D1*
X13921Y23372D1*
X13878Y23309D1*
X13829Y23251D1*
X13772Y23196D1*
X13775Y22690D1*
Y20216D1*
X14451Y19541D1*
X14687Y19515D1*
X14775Y19484D1*
X14963Y19367D1*
X15054Y19283D1*
X15353Y18984D1*
X15424Y18882D1*
X15501Y18758D1*
X15532Y18670D1*
X15557Y18449D1*
X15547Y18357D1*
X15473Y18147D1*
X15424Y18068D1*
X15266Y17910D1*
X15187Y17861D1*
X14977Y17787D1*
X14885Y17777D1*
X14664Y17802D1*
X14576Y17833D1*
X14388Y17950D1*
X14297Y18034D1*
X13998Y18333D1*
X13927Y18435D1*
X13850Y18559D1*
X13819Y18647D1*
X13794Y18885D1*
X12984Y19695D1*
X12934Y19753D1*
X12895Y19818D1*
X12868Y19889D1*
X12852Y19964D1*
X12848Y20023D1*
Y20099D1*
X31816Y39331D2*
X29905Y39330D1*
X29834Y39257D1*
X29773Y39210D1*
X29708Y39170D1*
X29640Y39138D1*
X29568Y39113D1*
X29494Y39096D1*
X29368Y39086D1*
X28871Y39085D1*
X28842D1*
X28766Y39093D1*
X28691Y39108D1*
X28619Y39131D1*
X28549Y39162D1*
X28483Y39200D1*
X28422Y39245D1*
X28365Y39296D1*
X28315Y39353D1*
X28271Y39415D1*
X28234Y39482D1*
X28204Y39552D1*
X28182Y39625D1*
X28168Y39700D1*
X28162Y39776D1*
X28164Y39852D1*
X28174Y39927D1*
X28192Y40001D1*
X28218Y40073D1*
X28252Y40141D1*
X28293Y40205D1*
X28340Y40265D1*
X28394Y40319D1*
X28453Y40367D1*
X28517Y40409D1*
X28584Y40443D1*
X28656Y40470D1*
X28729Y40489D1*
X28805Y40500D1*
X29023Y40503D1*
X29371Y40501D1*
X29457Y40498D1*
X29532Y40485D1*
X29605Y40464D1*
X29675Y40435D1*
X29742Y40398D1*
X29805Y40355D1*
X29906Y40258D1*
X32009Y40257D1*
X32085Y40251D1*
X32159Y40233D1*
X32229Y40202D1*
X32293Y40161D1*
X32337Y40122D1*
X34098Y38363D1*
X34334Y38337D1*
X34422Y38307D1*
X34610Y38189D1*
X34701Y38105D1*
X35000Y37806D1*
X35071Y37704D1*
X35149Y37581D1*
X35179Y37493D1*
X35204Y37271D1*
X35194Y37179D1*
X35120Y36969D1*
X35071Y36890D1*
X34913Y36733D1*
X34835Y36683D1*
X34625Y36610D1*
X34532Y36599D1*
X34311Y36624D1*
X34223Y36655D1*
X34035Y36773D1*
X33944Y36856D1*
X33645Y37155D1*
X33575Y37257D1*
X33497Y37381D1*
X33466Y37469D1*
X33441Y37707D1*
X31818Y39330D1*
X31050Y37481D2*
X29905Y37480D1*
X29834Y37407D1*
X29773Y37360D1*
X29708Y37320D1*
X29640Y37288D1*
X29568Y37263D1*
X29494Y37246D1*
X29368Y37236D1*
X28871Y37235D1*
X28842D1*
X28766Y37243D1*
X28691Y37258D1*
X28619Y37281D1*
X28549Y37312D1*
X28483Y37350D1*
X28422Y37395D1*
X28365Y37446D1*
X28315Y37503D1*
X28271Y37565D1*
X28234Y37632D1*
X28204Y37702D1*
X28182Y37775D1*
X28168Y37850D1*
X28162Y37926D1*
X28164Y38002D1*
X28174Y38077D1*
X28192Y38151D1*
X28218Y38223D1*
X28252Y38291D1*
X28293Y38355D1*
X28340Y38415D1*
X28394Y38469D1*
X28453Y38517D1*
X28517Y38559D1*
X28584Y38593D1*
X28656Y38620D1*
X28729Y38639D1*
X28805Y38650D1*
X29023Y38653D1*
X29371Y38651D1*
X29457Y38648D1*
X29532Y38635D1*
X29605Y38614D1*
X29675Y38585D1*
X29742Y38548D1*
X29805Y38505D1*
X29906Y38408D1*
X31243Y38407D1*
X31319Y38401D1*
X31393Y38383D1*
X31462Y38352D1*
X31526Y38311D1*
X31571Y38272D1*
X32790Y37055D1*
X33026Y37029D1*
X33114Y36999D1*
X33302Y36881D1*
X33393Y36797D1*
X33692Y36498D1*
X33763Y36396D1*
X33840Y36272D1*
X33871Y36184D1*
X33896Y35963D1*
X33886Y35871D1*
X33812Y35661D1*
X33763Y35582D1*
X33605Y35425D1*
X33526Y35375D1*
X33316Y35301D1*
X33224Y35291D1*
X33003Y35316D1*
X32915Y35347D1*
X32727Y35465D1*
X32636Y35548D1*
X32337Y35847D1*
X32266Y35949D1*
X32189Y36073D1*
X32158Y36161D1*
X32133Y36399D1*
X31052Y37480D1*
X19968Y24324D2*
X20786Y23007D1*
Y24324D2*
X19968Y23007D1*
X21268Y26524D2*
X22086Y25207D1*
Y26524D2*
X21268Y25207D1*
X27050Y30910D2*
X27476Y30484D1*
X27901Y30910D2*
X27050Y30059D1*
X35632Y24618D2*
X36827Y23352D1*
Y24618D2*
X35632Y23352D1*
X22150Y26362D2*
X23568Y24844D1*
Y26362D2*
X22150Y24844D1*
X31205Y18241D2*
X32208Y17238D1*
X32376Y18409D2*
X31037Y17070D1*
X23488Y17473D2*
X24753Y16279D1*
Y17473D2*
X23488Y16279D1*
X16622Y21944D2*
X17961Y20605D1*
X17292Y21275D2*
X16790Y20773D1*
X16414Y29618D2*
X17608Y28352D1*
Y29618D2*
X16414Y28352D1*
X20326Y35366D2*
X20827Y34865D1*
X21497Y35534D2*
X20158Y34195D1*
X28488Y36691D2*
X29121Y36094D1*
X29753Y36691D2*
X29121Y36094D1*
X34573Y31998D2*
X35911Y30660D1*
X35743Y31830D2*
X35242Y31329D1*
X43721Y41730D2*
X44222Y41229D1*
X44892Y41898D2*
X43553Y40559D1*
X50085Y48094D2*
X51088Y47091D1*
X51256Y48262D2*
X49917Y46923D1*
X35378Y51332D2*
X36643Y50138D1*
Y51332D2*
X35378Y50138D1*
X50273Y41266D2*
X50870Y40633D1*
X50273Y40000D1*
X25571Y27444D2*
X26689Y26126D1*
Y27444D2*
X25571Y26126D1*
D23*
X30446Y27615D3*
Y27115D3*
Y26615D3*
Y26115D3*
Y25615D3*
Y25115D3*
D24*
X31246Y24315D3*
X31746D3*
X32246D3*
X32746D3*
X33246D3*
X33746D3*
D23*
X34546Y25115D3*
Y25615D3*
Y26115D3*
Y26615D3*
Y27115D3*
Y27615D3*
D24*
X33746Y28415D3*
X33246D3*
X32746D3*
X32246D3*
X31746D3*
X31246D3*
D25*
X31596Y27265D3*
X32496D3*
X33396D3*
X31596Y26365D3*
X32496D3*
X33396D3*
X31596Y25465D3*
X32496D3*
X33396D3*
D26*
X32496Y26365D3*
D28*
X19077Y23665D3*
X20377D3*
X21677D3*
Y25865D3*
X20377D3*
X19077D3*
G36*
X27869Y31754D2*
X27863Y31823D1*
X27846Y31889D1*
X27817Y31951D1*
X27777Y32007D1*
X27729Y32056D1*
X27672Y32095D1*
X27610Y32124D1*
X27544Y32142D1*
X27476Y32148D1*
D1*
X27407Y32142D1*
X27341Y32124D1*
X27279Y32095D1*
X27223Y32056D1*
X27174Y32007D1*
X27135Y31951D1*
X27106Y31889D1*
X27088Y31823D1*
X27082Y31754D1*
D1*
X27088Y31686D1*
X27106Y31620D1*
X27135Y31557D1*
X27174Y31501D1*
X27223Y31453D1*
X27279Y31413D1*
X27341Y31384D1*
X27407Y31367D1*
X27476Y31361D1*
D1*
X27544Y31367D1*
X27610Y31384D1*
X27672Y31413D1*
X27729Y31453D1*
X27777Y31501D1*
X27817Y31557D1*
X27846Y31620D1*
X27863Y31686D1*
X27869Y31754D1*
G37*
G36*
X29139D2*
X29133Y31823D1*
X29116Y31889D1*
X29087Y31951D1*
X29047Y32007D1*
X28999Y32056D1*
X28942Y32095D1*
X28880Y32124D1*
X28814Y32142D1*
X28746Y32148D1*
D1*
X28677Y32142D1*
X28611Y32124D1*
X28549Y32095D1*
X28493Y32056D1*
X28444Y32007D1*
X28405Y31951D1*
X28376Y31889D1*
X28358Y31823D1*
X28352Y31754D1*
D1*
X28358Y31686D1*
X28376Y31620D1*
X28405Y31557D1*
X28444Y31501D1*
X28493Y31453D1*
X28549Y31413D1*
X28611Y31384D1*
X28677Y31367D1*
X28746Y31361D1*
D1*
X28814Y31367D1*
X28880Y31384D1*
X28942Y31413D1*
X28999Y31453D1*
X29047Y31501D1*
X29087Y31557D1*
X29116Y31620D1*
X29133Y31686D1*
X29139Y31754D1*
G37*
G36*
X30409D2*
X30403Y31823D1*
X30386Y31889D1*
X30357Y31951D1*
X30317Y32007D1*
X30269Y32056D1*
X30212Y32095D1*
X30150Y32124D1*
X30084Y32142D1*
X30016Y32148D1*
D1*
X29947Y32142D1*
X29881Y32124D1*
X29819Y32095D1*
X29763Y32056D1*
X29714Y32007D1*
X29675Y31951D1*
X29646Y31889D1*
X29628Y31823D1*
X29622Y31754D1*
D1*
X29628Y31686D1*
X29646Y31620D1*
X29675Y31557D1*
X29714Y31501D1*
X29763Y31453D1*
X29819Y31413D1*
X29881Y31384D1*
X29947Y31367D1*
X30016Y31361D1*
D1*
X30084Y31367D1*
X30150Y31384D1*
X30212Y31413D1*
X30269Y31453D1*
X30317Y31501D1*
X30357Y31557D1*
X30386Y31620D1*
X30403Y31686D1*
X30409Y31754D1*
G37*
G36*
Y30484D2*
X30403Y30553D1*
X30386Y30619D1*
X30357Y30681D1*
X30317Y30737D1*
X30269Y30786D1*
X30212Y30825D1*
X30150Y30854D1*
X30084Y30872D1*
X30016Y30878D1*
D1*
X29947Y30872D1*
X29881Y30854D1*
X29819Y30825D1*
X29763Y30786D1*
X29714Y30737D1*
X29675Y30681D1*
X29646Y30619D1*
X29628Y30553D1*
X29622Y30484D1*
D1*
X29628Y30416D1*
X29646Y30350D1*
X29675Y30287D1*
X29714Y30231D1*
X29763Y30183D1*
X29819Y30143D1*
X29881Y30114D1*
X29947Y30097D1*
X30016Y30091D1*
D1*
X30084Y30097D1*
X30150Y30114D1*
X30212Y30143D1*
X30269Y30183D1*
X30317Y30231D1*
X30357Y30287D1*
X30386Y30350D1*
X30403Y30416D1*
X30409Y30484D1*
G37*
G36*
X29139D2*
X29133Y30553D1*
X29116Y30619D1*
X29087Y30681D1*
X29047Y30737D1*
X28999Y30786D1*
X28942Y30825D1*
X28880Y30854D1*
X28814Y30872D1*
X28746Y30878D1*
D1*
X28677Y30872D1*
X28611Y30854D1*
X28549Y30825D1*
X28493Y30786D1*
X28444Y30737D1*
X28405Y30681D1*
X28376Y30619D1*
X28358Y30553D1*
X28352Y30484D1*
D1*
X28358Y30416D1*
X28376Y30350D1*
X28405Y30287D1*
X28444Y30231D1*
X28493Y30183D1*
X28549Y30143D1*
X28611Y30114D1*
X28677Y30097D1*
X28746Y30091D1*
D1*
X28814Y30097D1*
X28880Y30114D1*
X28942Y30143D1*
X28999Y30183D1*
X29047Y30231D1*
X29087Y30287D1*
X29116Y30350D1*
X29133Y30416D1*
X29139Y30484D1*
G37*
G36*
X27869D2*
X27863Y30553D1*
X27846Y30619D1*
X27817Y30681D1*
X27777Y30737D1*
X27729Y30786D1*
X27672Y30825D1*
X27610Y30854D1*
X27544Y30872D1*
X27476Y30878D1*
D1*
X27407Y30872D1*
X27341Y30854D1*
X27279Y30825D1*
X27223Y30786D1*
X27174Y30737D1*
X27135Y30681D1*
X27106Y30619D1*
X27088Y30553D1*
X27082Y30484D1*
D1*
X27088Y30416D1*
X27106Y30350D1*
X27135Y30287D1*
X27174Y30231D1*
X27223Y30183D1*
X27279Y30143D1*
X27341Y30114D1*
X27407Y30097D1*
X27476Y30091D1*
D1*
X27544Y30097D1*
X27610Y30114D1*
X27672Y30143D1*
X27729Y30183D1*
X27777Y30231D1*
X27817Y30287D1*
X27846Y30350D1*
X27863Y30416D1*
X27869Y30484D1*
G37*
D31*
X39930Y28985D3*
X38080D3*
X36230D3*
Y23985D3*
X38080D3*
X39930D3*
D32*
X19547Y22230D3*
X21247D3*
D33*
X22859Y25603D3*
Y23903D3*
D34*
X19022Y27923D3*
X20722D3*
G36*
X38389Y18482D2*
X38507Y18670D1*
X38532Y18891D1*
X38458Y19101D1*
X38301Y19259D1*
X38091Y19332D1*
X37870Y19307D1*
X37681Y19189D1*
X37328Y18835D1*
X37210Y18647D1*
X37185Y18426D1*
X37258Y18216D1*
X37415Y18058D1*
X37625Y17985D1*
X37847Y18010D1*
X38035Y18128D1*
X38389Y18482D1*
G37*
G36*
X37080Y19790D2*
X37199Y19978D1*
X37224Y20199D1*
X37150Y20409D1*
X36993Y20567D1*
X36783Y20640D1*
X36562Y20615D1*
X36373Y20497D1*
X36020Y20143D1*
X35901Y19955D1*
X35876Y19734D1*
X35950Y19524D1*
X36107Y19367D1*
X36317Y19293D1*
X36538Y19318D1*
X36727Y19436D1*
X37080Y19790D1*
G37*
G36*
X35772Y21098D2*
X35891Y21286D1*
X35916Y21508D1*
X35842Y21718D1*
X35685Y21875D1*
X35475Y21948D1*
X35254Y21924D1*
X35065Y21805D1*
X34712Y21452D1*
X34593Y21263D1*
X34568Y21042D1*
X34642Y20832D1*
X34799Y20675D1*
X35009Y20601D1*
X35230Y20626D1*
X35419Y20744D1*
X35772Y21098D1*
G37*
G36*
X32237Y17562D2*
X32355Y17751D1*
X32380Y17972D1*
X32307Y18182D1*
X32149Y18339D1*
X31939Y18413D1*
X31718Y18388D1*
X31530Y18270D1*
X31176Y17916D1*
X31058Y17728D1*
X31033Y17506D1*
X31106Y17296D1*
X31264Y17139D1*
X31474Y17066D1*
X31695Y17091D1*
X31883Y17209D1*
X32237Y17562D1*
G37*
G36*
X33545Y16254D2*
X33663Y16443D1*
X33688Y16664D1*
X33615Y16874D1*
X33457Y17031D1*
X33247Y17105D1*
X33026Y17080D1*
X32838Y16961D1*
X32484Y16608D1*
X32366Y16419D1*
X32341Y16198D1*
X32414Y15988D1*
X32572Y15831D1*
X32782Y15757D1*
X33003Y15782D1*
X33191Y15901D1*
X33545Y16254D1*
G37*
G36*
X34853Y14946D2*
X34971Y15135D1*
X34996Y15356D1*
X34923Y15566D1*
X34766Y15723D1*
X34555Y15797D1*
X34334Y15772D1*
X34146Y15653D1*
X33792Y15300D1*
X33674Y15111D1*
X33649Y14890D1*
X33723Y14680D1*
X33880Y14523D1*
X34090Y14449D1*
X34311Y14474D1*
X34499Y14593D1*
X34853Y14946D1*
G37*
D36*
X29121Y13176D3*
Y15026D3*
Y16876D3*
X24121D3*
Y15026D3*
Y13176D3*
G36*
X18388Y15653D2*
X18199Y15772D1*
X17978Y15797D1*
X17768Y15723D1*
X17611Y15566D1*
X17537Y15356D1*
X17562Y15135D1*
X17681Y14946D1*
X18034Y14593D1*
X18223Y14474D1*
X18444Y14449D1*
X18654Y14523D1*
X18811Y14680D1*
X18885Y14890D1*
X18860Y15111D1*
X18741Y15300D1*
X18388Y15653D1*
G37*
G36*
X19696Y16961D2*
X19507Y17080D1*
X19286Y17105D1*
X19076Y17031D1*
X18919Y16874D1*
X18845Y16664D1*
X18870Y16443D1*
X18989Y16254D1*
X19342Y15901D1*
X19531Y15782D1*
X19752Y15757D1*
X19962Y15831D1*
X20119Y15988D1*
X20193Y16198D1*
X20168Y16419D1*
X20049Y16608D1*
X19696Y16961D1*
G37*
G36*
X21004Y18270D2*
X20816Y18388D1*
X20594Y18413D1*
X20384Y18339D1*
X20227Y18182D1*
X20154Y17972D1*
X20179Y17751D1*
X20297Y17563D1*
X20650Y17209D1*
X20839Y17091D1*
X21060Y17066D1*
X21270Y17139D1*
X21427Y17296D1*
X21501Y17507D1*
X21476Y17728D1*
X21358Y17916D1*
X21004Y18270D1*
G37*
G36*
X17468Y21805D2*
X17280Y21924D1*
X17059Y21948D1*
X16849Y21875D1*
X16692Y21718D1*
X16618Y21508D1*
X16643Y21286D1*
X16761Y21098D1*
X17115Y20744D1*
X17303Y20626D1*
X17524Y20601D1*
X17735Y20675D1*
X17892Y20832D1*
X17965Y21042D1*
X17940Y21263D1*
X17822Y21452D1*
X17468Y21805D1*
G37*
G36*
X16160Y20497D2*
X15972Y20615D1*
X15751Y20640D1*
X15541Y20567D1*
X15383Y20409D1*
X15310Y20199D1*
X15335Y19978D1*
X15453Y19790D1*
X15807Y19436D1*
X15995Y19318D1*
X16216Y19293D1*
X16426Y19367D1*
X16584Y19524D1*
X16657Y19734D1*
X16632Y19955D1*
X16514Y20143D1*
X16160Y20497D1*
G37*
G36*
X14852Y19189D2*
X14664Y19307D1*
X14443Y19332D1*
X14233Y19259D1*
X14075Y19101D1*
X14002Y18891D1*
X14027Y18670D1*
X14145Y18482D1*
X14499Y18128D1*
X14687Y18010D1*
X14908Y17985D1*
X15118Y18058D1*
X15276Y18216D1*
X15349Y18426D1*
X15324Y18647D1*
X15206Y18835D1*
X14852Y19189D1*
G37*
D31*
X13311Y23985D3*
X15161D3*
X17011D3*
Y28985D3*
X15161D3*
X13311D3*
G36*
X14145Y34122D2*
X14027Y33934D1*
X14002Y33712D1*
X14075Y33502D1*
X14233Y33345D1*
X14443Y33272D1*
X14664Y33297D1*
X14852Y33415D1*
X15206Y33768D1*
X15324Y33957D1*
X15349Y34178D1*
X15276Y34388D1*
X15118Y34545D1*
X14908Y34619D1*
X14687Y34594D1*
X14499Y34476D1*
X14145Y34122D1*
G37*
G36*
X15453Y32814D2*
X15335Y32625D1*
X15310Y32404D1*
X15383Y32194D1*
X15541Y32037D1*
X15751Y31963D1*
X15972Y31988D1*
X16160Y32107D1*
X16514Y32460D1*
X16632Y32649D1*
X16657Y32870D1*
X16584Y33080D1*
X16426Y33237D1*
X16216Y33311D1*
X15995Y33286D1*
X15807Y33167D1*
X15453Y32814D1*
G37*
G36*
X16761Y31506D2*
X16643Y31317D1*
X16618Y31096D1*
X16692Y30886D1*
X16849Y30729D1*
X17059Y30655D1*
X17280Y30680D1*
X17469Y30799D1*
X17822Y31152D1*
X17940Y31341D1*
X17965Y31562D1*
X17892Y31772D1*
X17735Y31929D1*
X17525Y32003D1*
X17303Y31978D1*
X17115Y31859D1*
X16761Y31506D1*
G37*
G36*
X20297Y35041D2*
X20179Y34853D1*
X20154Y34632D1*
X20227Y34422D1*
X20384Y34264D1*
X20595Y34191D1*
X20816Y34216D1*
X21004Y34334D1*
X21358Y34688D1*
X21476Y34876D1*
X21501Y35097D1*
X21427Y35307D1*
X21270Y35465D1*
X21060Y35538D1*
X20839Y35513D1*
X20651Y35395D1*
X20297Y35041D1*
G37*
G36*
X18989Y36349D2*
X18870Y36161D1*
X18845Y35940D1*
X18919Y35730D1*
X19076Y35573D1*
X19286Y35499D1*
X19507Y35524D1*
X19696Y35642D1*
X20049Y35996D1*
X20168Y36184D1*
X20193Y36405D1*
X20119Y36615D1*
X19962Y36773D1*
X19752Y36846D1*
X19531Y36821D1*
X19342Y36703D1*
X18989Y36349D1*
G37*
G36*
X17681Y37658D2*
X17562Y37469D1*
X17537Y37248D1*
X17611Y37038D1*
X17768Y36881D1*
X17978Y36807D1*
X18199Y36832D1*
X18388Y36950D1*
X18741Y37304D1*
X18860Y37492D1*
X18885Y37714D1*
X18811Y37924D1*
X18654Y38081D1*
X18444Y38154D1*
X18223Y38130D1*
X18034Y38011D1*
X17681Y37658D1*
G37*
D36*
X24121Y39794D3*
Y37944D3*
Y36094D3*
X29121D3*
Y37944D3*
Y39794D3*
G36*
X34146Y36950D2*
X34334Y36832D1*
X34555Y36807D1*
X34765Y36881D1*
X34923Y37038D1*
X34996Y37248D1*
X34971Y37469D1*
X34853Y37658D1*
X34499Y38011D1*
X34311Y38130D1*
X34090Y38154D1*
X33880Y38081D1*
X33723Y37924D1*
X33649Y37714D1*
X33674Y37492D1*
X33792Y37304D1*
X34146Y36950D1*
G37*
G36*
X32838Y35642D2*
X33026Y35524D1*
X33247Y35499D1*
X33457Y35573D1*
X33615Y35730D1*
X33688Y35940D1*
X33663Y36161D1*
X33545Y36349D1*
X33191Y36703D1*
X33003Y36821D1*
X32782Y36846D1*
X32572Y36773D1*
X32414Y36615D1*
X32341Y36405D1*
X32366Y36184D1*
X32484Y35996D1*
X32838Y35642D1*
G37*
G36*
X31530Y34334D2*
X31718Y34216D1*
X31939Y34191D1*
X32149Y34264D1*
X32307Y34422D1*
X32380Y34632D1*
X32355Y34853D1*
X32237Y35041D1*
X31883Y35395D1*
X31695Y35513D1*
X31474Y35538D1*
X31264Y35465D1*
X31106Y35307D1*
X31033Y35097D1*
X31058Y34876D1*
X31176Y34688D1*
X31530Y34334D1*
G37*
G36*
X35065Y30799D2*
X35254Y30680D1*
X35475Y30655D1*
X35685Y30729D1*
X35842Y30886D1*
X35916Y31096D1*
X35891Y31317D1*
X35772Y31506D1*
X35419Y31859D1*
X35230Y31978D1*
X35009Y32003D1*
X34799Y31929D1*
X34642Y31772D1*
X34568Y31562D1*
X34593Y31341D1*
X34712Y31152D1*
X35065Y30799D1*
G37*
G36*
X36373Y32107D2*
X36562Y31988D1*
X36783Y31963D1*
X36993Y32037D1*
X37150Y32194D1*
X37224Y32404D1*
X37199Y32625D1*
X37080Y32814D1*
X36727Y33167D1*
X36538Y33286D1*
X36317Y33311D1*
X36107Y33237D1*
X35950Y33080D1*
X35876Y32870D1*
X35901Y32649D1*
X36020Y32460D1*
X36373Y32107D1*
G37*
G36*
X37681Y33415D2*
X37870Y33297D1*
X38091Y33272D1*
X38301Y33345D1*
X38458Y33502D1*
X38532Y33712D1*
X38507Y33934D1*
X38389Y34122D1*
X38035Y34476D1*
X37847Y34594D1*
X37625Y34619D1*
X37415Y34545D1*
X37258Y34388D1*
X37185Y34178D1*
X37209Y33957D1*
X37328Y33768D1*
X37681Y33415D1*
G37*
G36*
X30739Y20259D2*
Y19459D1*
X29739D1*
Y20259D1*
X30739D1*
G37*
G36*
Y22459D2*
Y21659D1*
X29739D1*
Y22459D1*
X30739D1*
G37*
G36*
X23439D2*
Y21659D1*
X22439D1*
Y22459D1*
X23439D1*
G37*
G36*
Y20259D2*
Y19459D1*
X22439D1*
Y20259D1*
X23439D1*
G37*
G36*
X24689Y19959D2*
Y18459D1*
X23989D1*
Y19959D1*
X24689D1*
G37*
G36*
X26189D2*
Y18459D1*
X25489D1*
Y19959D1*
X26189D1*
G37*
G36*
X29189D2*
Y18459D1*
X28489D1*
Y19959D1*
X29189D1*
G37*
G36*
X37540Y40486D2*
X37422Y40298D1*
X37397Y40077D1*
X37470Y39867D1*
X37628Y39709D1*
X37838Y39636D1*
X38059Y39661D1*
X38247Y39779D1*
X38601Y40133D1*
X38719Y40321D1*
X38744Y40542D1*
X38671Y40752D1*
X38513Y40910D1*
X38303Y40983D1*
X38082Y40958D1*
X37894Y40840D1*
X37540Y40486D1*
G37*
G36*
X38848Y39178D2*
X38730Y38990D1*
X38705Y38769D1*
X38778Y38559D1*
X38936Y38401D1*
X39146Y38328D1*
X39367Y38353D1*
X39555Y38471D1*
X39909Y38825D1*
X40027Y39013D1*
X40052Y39234D1*
X39979Y39444D1*
X39821Y39602D1*
X39611Y39675D1*
X39390Y39650D1*
X39202Y39532D1*
X38848Y39178D1*
G37*
G36*
X40156Y37870D2*
X40038Y37682D1*
X40013Y37460D1*
X40087Y37250D1*
X40244Y37093D1*
X40454Y37020D1*
X40675Y37045D1*
X40863Y37163D1*
X41217Y37516D1*
X41335Y37705D1*
X41360Y37926D1*
X41287Y38136D1*
X41129Y38293D1*
X40919Y38367D1*
X40698Y38342D1*
X40510Y38224D1*
X40156Y37870D1*
G37*
G36*
X43692Y41406D2*
X43573Y41217D1*
X43549Y40996D1*
X43622Y40786D1*
X43779Y40629D1*
X43989Y40555D1*
X44211Y40580D1*
X44399Y40698D1*
X44753Y41052D1*
X44871Y41240D1*
X44896Y41462D1*
X44822Y41672D1*
X44665Y41829D1*
X44455Y41902D1*
X44234Y41878D1*
X44045Y41759D1*
X43692Y41406D1*
G37*
G36*
X42384Y42714D2*
X42265Y42525D1*
X42240Y42304D1*
X42314Y42094D1*
X42471Y41937D1*
X42681Y41863D1*
X42902Y41888D1*
X43091Y42007D1*
X43444Y42360D1*
X43563Y42549D1*
X43588Y42770D1*
X43514Y42980D1*
X43357Y43137D1*
X43147Y43211D1*
X42926Y43186D1*
X42737Y43067D1*
X42384Y42714D1*
G37*
G36*
X41076Y44022D2*
X40957Y43833D1*
X40932Y43612D1*
X41006Y43402D1*
X41163Y43245D1*
X41373Y43171D1*
X41594Y43196D1*
X41783Y43315D1*
X42136Y43668D1*
X42255Y43857D1*
X42280Y44078D1*
X42206Y44288D1*
X42049Y44445D1*
X41839Y44519D1*
X41618Y44494D1*
X41429Y44375D1*
X41076Y44022D1*
G37*
G36*
X44965Y46497D2*
X45083Y46685D1*
X45108Y46906D1*
X45035Y47116D1*
X44877Y47274D1*
X44667Y47347D1*
X44446Y47322D1*
X44258Y47204D1*
X43904Y46850D1*
X43786Y46662D1*
X43761Y46441D1*
X43834Y46231D1*
X43992Y46073D1*
X44202Y46000D1*
X44423Y46025D1*
X44611Y46143D1*
X44965Y46497D1*
G37*
G36*
X46273Y45189D2*
X46391Y45377D1*
X46416Y45598D1*
X46343Y45808D1*
X46185Y45966D1*
X45975Y46039D1*
X45754Y46014D1*
X45566Y45896D1*
X45212Y45542D1*
X45094Y45354D1*
X45069Y45133D1*
X45142Y44923D1*
X45300Y44765D1*
X45510Y44692D1*
X45731Y44717D1*
X45919Y44835D1*
X46273Y45189D1*
G37*
G36*
X47581Y43880D2*
X47699Y44069D1*
X47724Y44290D1*
X47651Y44500D1*
X47493Y44657D1*
X47283Y44731D1*
X47062Y44706D1*
X46874Y44588D1*
X46520Y44234D1*
X46402Y44046D1*
X46377Y43824D1*
X46451Y43614D1*
X46608Y43457D1*
X46818Y43384D1*
X47039Y43409D1*
X47227Y43527D1*
X47581Y43880D1*
G37*
G36*
X51117Y47416D2*
X51235Y47604D1*
X51260Y47826D1*
X51186Y48036D1*
X51029Y48193D1*
X50819Y48266D1*
X50598Y48242D1*
X50409Y48123D1*
X50056Y47770D1*
X49937Y47581D1*
X49913Y47360D1*
X49986Y47150D1*
X50143Y46993D1*
X50353Y46919D1*
X50575Y46944D1*
X50763Y47062D1*
X51117Y47416D1*
G37*
G36*
X49808Y48724D2*
X49927Y48913D1*
X49952Y49134D1*
X49878Y49344D1*
X49721Y49501D1*
X49511Y49575D1*
X49290Y49550D1*
X49101Y49431D1*
X48748Y49078D1*
X48629Y48889D1*
X48604Y48668D1*
X48678Y48458D1*
X48835Y48301D1*
X49045Y48227D1*
X49266Y48252D1*
X49455Y48371D1*
X49808Y48724D1*
G37*
G36*
X48500Y50032D2*
X48619Y50221D1*
X48644Y50442D1*
X48570Y50652D1*
X48413Y50809D1*
X48203Y50883D1*
X47982Y50858D1*
X47793Y50739D1*
X47440Y50386D1*
X47321Y50197D1*
X47296Y49976D1*
X47370Y49766D1*
X47527Y49609D1*
X47737Y49535D1*
X47958Y49560D1*
X48147Y49679D1*
X48500Y50032D1*
G37*
D36*
X41010Y47035D3*
Y48885D3*
Y50735D3*
X36010D3*
Y48885D3*
Y47035D3*
D31*
X47170Y35633D3*
X49020D3*
X50870D3*
Y40633D3*
X49020D3*
X47170D3*
D39*
X24118Y34220D3*
X25418D3*
D40*
X24435Y32308D3*
Y31008D3*
X20945Y31991D3*
Y30691D3*
X25271Y29769D3*
Y28469D3*
X22744Y29606D3*
Y28306D3*
D33*
X24001Y29614D3*
Y27914D3*
D41*
X23417Y32350D3*
X22917D3*
X22417D3*
X21917D3*
D42*
Y31850D3*
Y31350D3*
D41*
Y30850D3*
X22417D3*
X22917D3*
X23417D3*
D42*
Y31350D3*
Y31850D3*
D40*
X26130Y26785D3*
Y25485D3*
M02*
