M48
METRIC,0000.00
T01C0.33
T02C0.9
T03C0.95
T04C2.54
%
T01
X+003160Y+002727
X+003250Y+002727
X+003250Y+002637
X+003160Y+002637
X+003160Y+002547
X+003250Y+002547
X+003340Y+002547
X+003340Y+002637
X+003340Y+002727
X+003309Y+002941
X+003240Y+002998
X+003417Y+002996
X+002996Y+002956
X+002826Y+002972
X+002864Y+003240
X+002636Y+003210
X+002387Y+003243
X+002199Y+003353
X+002272Y+003530
X+002334Y+002964
X+002324Y+002784
X+002217Y+002370
X+002013Y+002210
X+001998Y+001973
X+002362Y+001880
X+002666Y+002022
X+002602Y+002446
X+002949Y+002592
X+001920Y+002957
X+001578Y+002778
X+003741Y+004695
X+003745Y+004860
X+004728Y+003680
X+004866Y+003670
T02
X+002509Y+002096
X+002809Y+002096
T03
X+002621Y+003112
X+003129Y+003214
X+003129Y+003010
T04
X+002878Y+004427
T00
M30
