G04 DipTrace 2.4.0.2*
%INfemalemalecrosspeace.gtp*%
%MOMM*%
%ADD20O,0.86X0.85*%
%ADD22O,0.973X0.96*%
%ADD24O,0.28X1.0*%
%ADD25O,1.0X0.28*%
%ADD29R,0.9X0.4*%
%ADD32O,1.5X1.0*%
%ADD33R,1.0X1.1*%
%ADD34R,1.1X1.0*%
%ADD35R,2.0X0.85*%
%ADD37O,1.0X1.5*%
%ADD40R,0.9X0.7*%
%ADD41R,0.7X0.9*%
%ADD42R,0.275X0.25*%
%ADD43R,0.25X0.275*%
%ADD46O,0.85X0.86*%
%ADD47O,0.96X0.973*%
%ADD49R,0.4X0.9*%
%ADD51R,0.85X2.0*%
%FSLAX53Y53*%
G04*
G71*
G90*
G75*
G01*
%LNTopPaste*%
%LPD*%
D20*
X26502Y108303D3*
D22*
X27275Y109041D3*
X25712Y109051D3*
X27265Y107508D3*
X25709Y107498D3*
D24*
X27749Y110331D3*
X27249D3*
X26749D3*
X26249D3*
X25749D3*
X25249D3*
D25*
X24449Y109531D3*
Y109031D3*
Y108531D3*
Y108031D3*
Y107531D3*
Y107031D3*
D24*
X25249Y106231D3*
X25749D3*
X26249D3*
X26749D3*
X27249D3*
X27749D3*
D25*
X28549Y107031D3*
Y107531D3*
Y108031D3*
Y108531D3*
Y109031D3*
Y109531D3*
D29*
X24193Y121724D3*
Y120424D3*
Y119124D3*
X26393D3*
Y120424D3*
Y121724D3*
D32*
X29118Y100848D3*
Y102698D3*
Y104548D3*
X24118D3*
Y102698D3*
Y100848D3*
D33*
X22758Y121254D3*
Y119554D3*
D34*
X26131Y117942D3*
X24431D3*
D35*
X28452Y121778D3*
Y120078D3*
G36*
X18615Y102389D2*
X18803Y102270D1*
X19024Y102245D1*
X19235Y102319D1*
X19392Y102476D1*
X19465Y102686D1*
X19440Y102907D1*
X19322Y103096D1*
X18968Y103449D1*
X18780Y103568D1*
X18559Y103593D1*
X18349Y103519D1*
X18192Y103362D1*
X18118Y103152D1*
X18143Y102931D1*
X18261Y102742D1*
X18615Y102389D1*
G37*
G36*
X19923Y103697D2*
X20111Y103578D1*
X20333Y103553D1*
X20543Y103627D1*
X20700Y103784D1*
X20773Y103994D1*
X20749Y104215D1*
X20630Y104404D1*
X20277Y104757D1*
X20088Y104876D1*
X19867Y104901D1*
X19657Y104827D1*
X19500Y104670D1*
X19426Y104460D1*
X19451Y104239D1*
X19570Y104050D1*
X19923Y103697D1*
G37*
G36*
X21231Y105005D2*
X21420Y104886D1*
X21641Y104862D1*
X21851Y104935D1*
X22008Y105092D1*
X22082Y105302D1*
X22057Y105524D1*
X21938Y105712D1*
X21585Y106066D1*
X21396Y106184D1*
X21175Y106209D1*
X20965Y106135D1*
X20808Y105978D1*
X20734Y105768D1*
X20759Y105547D1*
X20878Y105358D1*
X21231Y105005D1*
G37*
G36*
X17696Y108540D2*
X17884Y108422D1*
X18105Y108397D1*
X18315Y108471D1*
X18473Y108628D1*
X18546Y108838D1*
X18521Y109059D1*
X18403Y109248D1*
X18049Y109601D1*
X17861Y109719D1*
X17640Y109744D1*
X17430Y109671D1*
X17272Y109514D1*
X17199Y109304D1*
X17224Y109082D1*
X17342Y108894D1*
X17696Y108540D1*
G37*
G36*
X16388Y107232D2*
X16576Y107114D1*
X16797Y107089D1*
X17007Y107162D1*
X17164Y107320D1*
X17238Y107530D1*
X17213Y107751D1*
X17095Y107939D1*
X16741Y108293D1*
X16553Y108411D1*
X16332Y108436D1*
X16122Y108363D1*
X15964Y108205D1*
X15891Y107995D1*
X15916Y107774D1*
X16034Y107586D1*
X16388Y107232D1*
G37*
G36*
X15079Y105924D2*
X15268Y105806D1*
X15489Y105781D1*
X15699Y105854D1*
X15856Y106012D1*
X15930Y106222D1*
X15905Y106443D1*
X15787Y106631D1*
X15433Y106985D1*
X15245Y107103D1*
X15023Y107128D1*
X14813Y107055D1*
X14656Y106897D1*
X14583Y106687D1*
X14607Y106466D1*
X14726Y106278D1*
X15079Y105924D1*
G37*
D37*
X13309Y111657D3*
X15159D3*
X17009D3*
Y116657D3*
X15159D3*
X13309D3*
G36*
X14726Y122743D2*
X14607Y122555D1*
X14583Y122333D1*
X14656Y122123D1*
X14813Y121966D1*
X15023Y121893D1*
X15245Y121917D1*
X15433Y122036D1*
X15787Y122389D1*
X15905Y122578D1*
X15930Y122799D1*
X15856Y123009D1*
X15699Y123166D1*
X15489Y123240D1*
X15268Y123215D1*
X15079Y123097D1*
X14726Y122743D1*
G37*
G36*
X16034Y121435D2*
X15916Y121246D1*
X15891Y121025D1*
X15964Y120815D1*
X16122Y120658D1*
X16332Y120584D1*
X16553Y120609D1*
X16741Y120728D1*
X17095Y121081D1*
X17213Y121270D1*
X17238Y121491D1*
X17164Y121701D1*
X17007Y121858D1*
X16797Y121932D1*
X16576Y121907D1*
X16388Y121788D1*
X16034Y121435D1*
G37*
G36*
X17342Y120127D2*
X17224Y119938D1*
X17199Y119717D1*
X17272Y119507D1*
X17430Y119350D1*
X17640Y119276D1*
X17861Y119301D1*
X18049Y119420D1*
X18403Y119773D1*
X18521Y119962D1*
X18546Y120183D1*
X18473Y120393D1*
X18315Y120550D1*
X18105Y120624D1*
X17884Y120599D1*
X17696Y120480D1*
X17342Y120127D1*
G37*
G36*
X20878Y123662D2*
X20759Y123474D1*
X20734Y123253D1*
X20808Y123043D1*
X20965Y122885D1*
X21175Y122812D1*
X21396Y122837D1*
X21585Y122955D1*
X21938Y123309D1*
X22057Y123497D1*
X22082Y123718D1*
X22008Y123928D1*
X21851Y124086D1*
X21641Y124159D1*
X21420Y124134D1*
X21231Y124016D1*
X20878Y123662D1*
G37*
G36*
X19570Y124970D2*
X19451Y124782D1*
X19426Y124561D1*
X19500Y124351D1*
X19657Y124193D1*
X19867Y124120D1*
X20088Y124145D1*
X20277Y124263D1*
X20630Y124617D1*
X20749Y124805D1*
X20773Y125026D1*
X20700Y125236D1*
X20543Y125394D1*
X20333Y125467D1*
X20111Y125442D1*
X19923Y125324D1*
X19570Y124970D1*
G37*
G36*
X18261Y126278D2*
X18143Y126090D1*
X18118Y125869D1*
X18192Y125659D1*
X18349Y125502D1*
X18559Y125428D1*
X18780Y125453D1*
X18968Y125571D1*
X19322Y125925D1*
X19440Y126113D1*
X19465Y126334D1*
X19392Y126545D1*
X19235Y126702D1*
X19024Y126775D1*
X18803Y126750D1*
X18615Y126632D1*
X18261Y126278D1*
G37*
D32*
X24118Y127466D3*
Y125616D3*
Y123766D3*
X29118D3*
Y125616D3*
Y127466D3*
G36*
X34255Y126632D2*
X34067Y126750D1*
X33846Y126775D1*
X33636Y126702D1*
X33478Y126545D1*
X33405Y126335D1*
X33430Y126113D1*
X33548Y125925D1*
X33902Y125571D1*
X34090Y125453D1*
X34311Y125428D1*
X34521Y125502D1*
X34679Y125659D1*
X34752Y125869D1*
X34727Y126090D1*
X34609Y126279D1*
X34255Y126632D1*
G37*
G36*
X32947Y125324D2*
X32759Y125442D1*
X32538Y125467D1*
X32328Y125394D1*
X32170Y125236D1*
X32097Y125026D1*
X32122Y124805D1*
X32240Y124617D1*
X32594Y124263D1*
X32782Y124145D1*
X33003Y124120D1*
X33213Y124193D1*
X33370Y124351D1*
X33444Y124561D1*
X33419Y124782D1*
X33301Y124970D1*
X32947Y125324D1*
G37*
G36*
X31639Y124016D2*
X31451Y124134D1*
X31229Y124159D1*
X31019Y124086D1*
X30862Y123928D1*
X30789Y123718D1*
X30813Y123497D1*
X30932Y123309D1*
X31285Y122955D1*
X31474Y122837D1*
X31695Y122812D1*
X31905Y122885D1*
X32062Y123043D1*
X32136Y123253D1*
X32111Y123474D1*
X31993Y123662D1*
X31639Y124016D1*
G37*
G36*
X35174Y120480D2*
X34986Y120599D1*
X34765Y120624D1*
X34555Y120550D1*
X34398Y120393D1*
X34324Y120183D1*
X34349Y119962D1*
X34467Y119773D1*
X34821Y119420D1*
X35009Y119301D1*
X35230Y119276D1*
X35441Y119350D1*
X35598Y119507D1*
X35671Y119717D1*
X35646Y119938D1*
X35528Y120127D1*
X35174Y120480D1*
G37*
G36*
X36483Y121788D2*
X36294Y121907D1*
X36073Y121932D1*
X35863Y121858D1*
X35706Y121701D1*
X35632Y121491D1*
X35657Y121270D1*
X35776Y121081D1*
X36129Y120728D1*
X36317Y120609D1*
X36539Y120584D1*
X36749Y120658D1*
X36906Y120815D1*
X36979Y121025D1*
X36955Y121246D1*
X36836Y121435D1*
X36483Y121788D1*
G37*
G36*
X37791Y123097D2*
X37602Y123215D1*
X37381Y123240D1*
X37171Y123166D1*
X37014Y123009D1*
X36940Y122799D1*
X36965Y122578D1*
X37084Y122389D1*
X37437Y122036D1*
X37626Y121917D1*
X37847Y121893D1*
X38057Y121966D1*
X38214Y122123D1*
X38288Y122333D1*
X38263Y122555D1*
X38144Y122743D1*
X37791Y123097D1*
G37*
D37*
X39927Y116657D3*
X38077D3*
X36227D3*
Y111657D3*
X38077D3*
X39927D3*
G36*
X38144Y106278D2*
X38263Y106466D1*
X38288Y106687D1*
X38214Y106897D1*
X38057Y107055D1*
X37847Y107128D1*
X37626Y107103D1*
X37437Y106985D1*
X37084Y106631D1*
X36965Y106443D1*
X36940Y106222D1*
X37014Y106012D1*
X37171Y105854D1*
X37381Y105781D1*
X37602Y105806D1*
X37791Y105924D1*
X38144Y106278D1*
G37*
G36*
X36836Y107586D2*
X36955Y107774D1*
X36980Y107995D1*
X36906Y108205D1*
X36749Y108363D1*
X36539Y108436D1*
X36318Y108411D1*
X36129Y108293D1*
X35776Y107939D1*
X35657Y107751D1*
X35632Y107530D1*
X35706Y107320D1*
X35863Y107162D1*
X36073Y107089D1*
X36294Y107114D1*
X36483Y107232D1*
X36836Y107586D1*
G37*
G36*
X35528Y108894D2*
X35646Y109082D1*
X35671Y109304D1*
X35598Y109514D1*
X35441Y109671D1*
X35230Y109744D1*
X35009Y109719D1*
X34821Y109601D1*
X34467Y109248D1*
X34349Y109059D1*
X34324Y108838D1*
X34398Y108628D1*
X34555Y108471D1*
X34765Y108397D1*
X34986Y108422D1*
X35174Y108540D1*
X35528Y108894D1*
G37*
G36*
X31993Y105358D2*
X32111Y105547D1*
X32136Y105768D1*
X32062Y105978D1*
X31905Y106135D1*
X31695Y106209D1*
X31474Y106184D1*
X31285Y106066D1*
X30932Y105712D1*
X30813Y105524D1*
X30789Y105302D1*
X30862Y105092D1*
X31019Y104935D1*
X31229Y104862D1*
X31451Y104886D1*
X31639Y105005D1*
X31993Y105358D1*
G37*
G36*
X33301Y104050D2*
X33419Y104239D1*
X33444Y104460D1*
X33370Y104670D1*
X33213Y104827D1*
X33003Y104901D1*
X32782Y104876D1*
X32594Y104757D1*
X32240Y104404D1*
X32122Y104215D1*
X32097Y103994D1*
X32170Y103784D1*
X32328Y103627D1*
X32538Y103553D1*
X32759Y103578D1*
X32947Y103697D1*
X33301Y104050D1*
G37*
G36*
X34609Y102742D2*
X34727Y102931D1*
X34752Y103152D1*
X34679Y103362D1*
X34521Y103519D1*
X34311Y103593D1*
X34090Y103568D1*
X33902Y103449D1*
X33548Y103096D1*
X33430Y102907D1*
X33405Y102686D1*
X33478Y102476D1*
X33636Y102319D1*
X33846Y102245D1*
X34067Y102270D1*
X34255Y102389D1*
X34609Y102742D1*
G37*
G36*
X19592Y111038D2*
X20392D1*
Y110038D1*
X19592D1*
Y111038D1*
G37*
G36*
X21792D2*
X22592D1*
Y110038D1*
X21792D1*
Y111038D1*
G37*
G36*
Y118338D2*
X22592D1*
Y117338D1*
X21792D1*
Y118338D1*
G37*
G36*
X19592D2*
X20392D1*
Y117338D1*
X19592D1*
Y118338D1*
G37*
G36*
X18592Y116788D2*
X20092D1*
Y116088D1*
X18592D1*
Y116788D1*
G37*
G36*
Y115288D2*
X20092D1*
Y114588D1*
X18592D1*
Y115288D1*
G37*
G36*
Y112288D2*
X20092D1*
Y111588D1*
X18592D1*
Y112288D1*
G37*
D37*
X28468Y96198D3*
X26618D3*
X24768D3*
Y91198D3*
X26618D3*
X28468D3*
Y87198D3*
X26618D3*
X24768D3*
Y82198D3*
X26618D3*
X28468D3*
Y78198D3*
X26618D3*
X24768D3*
Y73198D3*
X26618D3*
X28468D3*
X15768Y82198D3*
X17618D3*
X19468D3*
Y87198D3*
X17618D3*
X15768D3*
D40*
X26774Y114850D3*
X25474D3*
D41*
X34318Y116819D3*
Y115519D3*
D40*
X32406Y116503D3*
X31106D3*
X32089Y119992D3*
X30789D3*
X29867Y115666D3*
X28567D3*
X29704Y118194D3*
X28404D3*
D34*
X29712Y116937D3*
X28012D3*
D42*
X32448Y117521D3*
Y118021D3*
Y118521D3*
Y119021D3*
D43*
X31948D3*
X31448D3*
D42*
X30948D3*
Y118521D3*
Y118021D3*
Y117521D3*
D43*
X31448D3*
X31948D3*
D37*
X37468Y87198D3*
X35618D3*
X33768D3*
Y82198D3*
X35618D3*
X37468D3*
D46*
X62571Y99116D3*
D47*
X61832Y99889D3*
X61822Y98326D3*
X63366Y99879D3*
X63375Y98322D3*
D25*
X60542Y100362D3*
Y99862D3*
Y99362D3*
Y98862D3*
Y98362D3*
Y97862D3*
D24*
X61342Y97062D3*
X61842D3*
X62342D3*
X62842D3*
X63342D3*
X63842D3*
D25*
X64642Y97862D3*
Y98362D3*
Y98862D3*
Y99362D3*
Y99862D3*
Y100362D3*
D24*
X63842Y101162D3*
X63342D3*
X62842D3*
X62342D3*
X61842D3*
X61342D3*
D49*
X49173Y96412D3*
X50473D3*
X51773D3*
Y98612D3*
X50473D3*
X49173D3*
D37*
X70026Y101732D3*
X68176D3*
X66326D3*
Y96732D3*
X68176D3*
X70026D3*
D34*
X49643Y94977D3*
X51343D3*
D33*
X52955Y98350D3*
Y96650D3*
D51*
X49118Y100671D3*
X50818D3*
G36*
X68485Y91229D2*
X68603Y91417D1*
X68628Y91638D1*
X68554Y91848D1*
X68397Y92006D1*
X68187Y92079D1*
X67966Y92054D1*
X67778Y91936D1*
X67424Y91582D1*
X67306Y91394D1*
X67281Y91173D1*
X67354Y90963D1*
X67511Y90805D1*
X67722Y90732D1*
X67943Y90757D1*
X68131Y90875D1*
X68485Y91229D1*
G37*
G36*
X67176Y92537D2*
X67295Y92725D1*
X67320Y92947D1*
X67246Y93157D1*
X67089Y93314D1*
X66879Y93387D1*
X66658Y93362D1*
X66469Y93244D1*
X66116Y92891D1*
X65997Y92702D1*
X65973Y92481D1*
X66046Y92271D1*
X66203Y92114D1*
X66413Y92040D1*
X66635Y92065D1*
X66823Y92183D1*
X67176Y92537D1*
G37*
G36*
X65868Y93845D2*
X65987Y94034D1*
X66012Y94255D1*
X65938Y94465D1*
X65781Y94622D1*
X65571Y94696D1*
X65350Y94671D1*
X65161Y94552D1*
X64808Y94199D1*
X64689Y94010D1*
X64664Y93789D1*
X64738Y93579D1*
X64895Y93422D1*
X65105Y93348D1*
X65326Y93373D1*
X65515Y93492D1*
X65868Y93845D1*
G37*
G36*
X62333Y90310D2*
X62451Y90498D1*
X62476Y90719D1*
X62403Y90929D1*
X62245Y91086D1*
X62035Y91160D1*
X61814Y91135D1*
X61626Y91017D1*
X61272Y90663D1*
X61154Y90475D1*
X61129Y90254D1*
X61202Y90044D1*
X61360Y89886D1*
X61570Y89813D1*
X61791Y89838D1*
X61979Y89956D1*
X62333Y90310D1*
G37*
G36*
X63641Y89001D2*
X63759Y89190D1*
X63784Y89411D1*
X63711Y89621D1*
X63553Y89778D1*
X63343Y89852D1*
X63122Y89827D1*
X62934Y89709D1*
X62580Y89355D1*
X62462Y89167D1*
X62437Y88945D1*
X62510Y88735D1*
X62668Y88578D1*
X62878Y88505D1*
X63099Y88529D1*
X63287Y88648D1*
X63641Y89001D1*
G37*
G36*
X64949Y87693D2*
X65067Y87882D1*
X65092Y88103D1*
X65019Y88313D1*
X64862Y88470D1*
X64652Y88544D1*
X64430Y88519D1*
X64242Y88400D1*
X63888Y88047D1*
X63770Y87858D1*
X63745Y87637D1*
X63819Y87427D1*
X63976Y87270D1*
X64186Y87196D1*
X64407Y87221D1*
X64596Y87340D1*
X64949Y87693D1*
G37*
D32*
X59217Y85923D3*
Y87773D3*
Y89623D3*
X54217D3*
Y87773D3*
Y85923D3*
G36*
X48484Y88400D2*
X48295Y88519D1*
X48074Y88544D1*
X47864Y88470D1*
X47707Y88313D1*
X47633Y88103D1*
X47658Y87882D1*
X47777Y87693D1*
X48130Y87340D1*
X48319Y87221D1*
X48540Y87196D1*
X48750Y87270D1*
X48907Y87427D1*
X48981Y87637D1*
X48956Y87858D1*
X48837Y88047D1*
X48484Y88400D1*
G37*
G36*
X49792Y89709D2*
X49604Y89827D1*
X49382Y89852D1*
X49172Y89778D1*
X49015Y89621D1*
X48942Y89411D1*
X48966Y89190D1*
X49085Y89001D1*
X49438Y88648D1*
X49627Y88529D1*
X49848Y88505D1*
X50058Y88578D1*
X50215Y88735D1*
X50289Y88945D1*
X50264Y89167D1*
X50145Y89355D1*
X49792Y89709D1*
G37*
G36*
X51100Y91017D2*
X50912Y91135D1*
X50691Y91160D1*
X50480Y91087D1*
X50323Y90929D1*
X50250Y90719D1*
X50275Y90498D1*
X50393Y90310D1*
X50747Y89956D1*
X50935Y89838D1*
X51156Y89813D1*
X51366Y89886D1*
X51523Y90044D1*
X51597Y90254D1*
X51572Y90475D1*
X51454Y90663D1*
X51100Y91017D1*
G37*
G36*
X47565Y94552D2*
X47376Y94671D1*
X47155Y94696D1*
X46945Y94622D1*
X46788Y94465D1*
X46714Y94255D1*
X46739Y94034D1*
X46857Y93845D1*
X47211Y93492D1*
X47399Y93373D1*
X47621Y93348D1*
X47831Y93422D1*
X47988Y93579D1*
X48061Y93789D1*
X48036Y94010D1*
X47918Y94199D1*
X47565Y94552D1*
G37*
G36*
X46256Y93244D2*
X46068Y93362D1*
X45847Y93387D1*
X45637Y93314D1*
X45479Y93157D1*
X45406Y92947D1*
X45431Y92725D1*
X45549Y92537D1*
X45903Y92183D1*
X46091Y92065D1*
X46312Y92040D1*
X46522Y92114D1*
X46680Y92271D1*
X46753Y92481D1*
X46728Y92702D1*
X46610Y92891D1*
X46256Y93244D1*
G37*
G36*
X44948Y91936D2*
X44760Y92054D1*
X44539Y92079D1*
X44329Y92006D1*
X44171Y91848D1*
X44098Y91638D1*
X44123Y91417D1*
X44241Y91229D1*
X44595Y90875D1*
X44783Y90757D1*
X45004Y90732D1*
X45214Y90805D1*
X45372Y90963D1*
X45445Y91173D1*
X45420Y91394D1*
X45302Y91582D1*
X44948Y91936D1*
G37*
D37*
X43407Y96732D3*
X45257D3*
X47107D3*
Y101732D3*
X45257D3*
X43407D3*
G36*
X44241Y106869D2*
X44123Y106681D1*
X44098Y106460D1*
X44171Y106250D1*
X44329Y106092D1*
X44539Y106019D1*
X44760Y106044D1*
X44948Y106162D1*
X45302Y106516D1*
X45420Y106704D1*
X45445Y106925D1*
X45372Y107135D1*
X45214Y107292D1*
X45004Y107366D1*
X44783Y107341D1*
X44595Y107223D1*
X44241Y106869D1*
G37*
G36*
X45549Y105561D2*
X45431Y105373D1*
X45406Y105151D1*
X45479Y104941D1*
X45637Y104784D1*
X45847Y104711D1*
X46068Y104735D1*
X46256Y104854D1*
X46610Y105207D1*
X46728Y105396D1*
X46753Y105617D1*
X46680Y105827D1*
X46522Y105984D1*
X46312Y106058D1*
X46091Y106033D1*
X45903Y105915D1*
X45549Y105561D1*
G37*
G36*
X46857Y104253D2*
X46739Y104064D1*
X46714Y103843D1*
X46788Y103633D1*
X46945Y103476D1*
X47155Y103402D1*
X47376Y103427D1*
X47565Y103546D1*
X47918Y103899D1*
X48037Y104088D1*
X48061Y104309D1*
X47988Y104519D1*
X47831Y104676D1*
X47621Y104750D1*
X47399Y104725D1*
X47211Y104606D1*
X46857Y104253D1*
G37*
G36*
X50393Y107788D2*
X50275Y107600D1*
X50250Y107379D1*
X50323Y107169D1*
X50481Y107011D1*
X50691Y106938D1*
X50912Y106963D1*
X51100Y107081D1*
X51454Y107435D1*
X51572Y107623D1*
X51597Y107844D1*
X51523Y108054D1*
X51366Y108212D1*
X51156Y108285D1*
X50935Y108260D1*
X50747Y108142D1*
X50393Y107788D1*
G37*
G36*
X49085Y109097D2*
X48966Y108908D1*
X48942Y108687D1*
X49015Y108477D1*
X49172Y108320D1*
X49382Y108246D1*
X49604Y108271D1*
X49792Y108389D1*
X50145Y108743D1*
X50264Y108931D1*
X50289Y109153D1*
X50215Y109363D1*
X50058Y109520D1*
X49848Y109593D1*
X49627Y109568D1*
X49438Y109450D1*
X49085Y109097D1*
G37*
G36*
X47777Y110405D2*
X47658Y110216D1*
X47633Y109995D1*
X47707Y109785D1*
X47864Y109628D1*
X48074Y109554D1*
X48295Y109579D1*
X48484Y109698D1*
X48837Y110051D1*
X48956Y110240D1*
X48981Y110461D1*
X48907Y110671D1*
X48750Y110828D1*
X48540Y110902D1*
X48319Y110877D1*
X48130Y110758D1*
X47777Y110405D1*
G37*
D32*
X54217Y112541D3*
Y110691D3*
Y108841D3*
X59217D3*
Y110691D3*
Y112541D3*
G36*
X64242Y109698D2*
X64430Y109579D1*
X64651Y109554D1*
X64861Y109628D1*
X65019Y109785D1*
X65092Y109995D1*
X65067Y110216D1*
X64949Y110405D1*
X64595Y110758D1*
X64407Y110877D1*
X64186Y110902D1*
X63976Y110828D1*
X63819Y110671D1*
X63745Y110461D1*
X63770Y110240D1*
X63888Y110051D1*
X64242Y109698D1*
G37*
G36*
X62934Y108389D2*
X63122Y108271D1*
X63343Y108246D1*
X63553Y108320D1*
X63711Y108477D1*
X63784Y108687D1*
X63759Y108908D1*
X63641Y109097D1*
X63287Y109450D1*
X63099Y109568D1*
X62878Y109593D1*
X62668Y109520D1*
X62510Y109363D1*
X62437Y109153D1*
X62462Y108931D1*
X62580Y108743D1*
X62934Y108389D1*
G37*
G36*
X61626Y107081D2*
X61814Y106963D1*
X62035Y106938D1*
X62245Y107011D1*
X62403Y107169D1*
X62476Y107379D1*
X62451Y107600D1*
X62333Y107788D1*
X61979Y108142D1*
X61791Y108260D1*
X61570Y108285D1*
X61360Y108212D1*
X61202Y108054D1*
X61129Y107844D1*
X61154Y107623D1*
X61272Y107435D1*
X61626Y107081D1*
G37*
G36*
X65161Y103546D2*
X65350Y103427D1*
X65571Y103402D1*
X65781Y103476D1*
X65938Y103633D1*
X66012Y103843D1*
X65987Y104064D1*
X65868Y104253D1*
X65515Y104606D1*
X65326Y104725D1*
X65105Y104750D1*
X64895Y104676D1*
X64738Y104519D1*
X64664Y104309D1*
X64689Y104088D1*
X64808Y103899D1*
X65161Y103546D1*
G37*
G36*
X66469Y104854D2*
X66658Y104735D1*
X66879Y104711D1*
X67089Y104784D1*
X67246Y104941D1*
X67320Y105151D1*
X67295Y105373D1*
X67176Y105561D1*
X66823Y105915D1*
X66634Y106033D1*
X66413Y106058D1*
X66203Y105984D1*
X66046Y105827D1*
X65972Y105617D1*
X65997Y105396D1*
X66116Y105207D1*
X66469Y104854D1*
G37*
G36*
X67777Y106162D2*
X67966Y106044D1*
X68187Y106019D1*
X68397Y106092D1*
X68554Y106250D1*
X68628Y106460D1*
X68603Y106681D1*
X68485Y106869D1*
X68131Y107223D1*
X67943Y107341D1*
X67721Y107366D1*
X67511Y107292D1*
X67354Y107135D1*
X67281Y106925D1*
X67305Y106704D1*
X67424Y106516D1*
X67777Y106162D1*
G37*
G36*
X60835Y93006D2*
Y92206D1*
X59835D1*
Y93006D1*
X60835D1*
G37*
G36*
Y95206D2*
Y94406D1*
X59835D1*
Y95206D1*
X60835D1*
G37*
G36*
X53535D2*
Y94406D1*
X52535D1*
Y95206D1*
X53535D1*
G37*
G36*
Y93006D2*
Y92206D1*
X52535D1*
Y93006D1*
X53535D1*
G37*
G36*
X54785Y92706D2*
Y91206D1*
X54085D1*
Y92706D1*
X54785D1*
G37*
G36*
X56285D2*
Y91206D1*
X55585D1*
Y92706D1*
X56285D1*
G37*
G36*
X59285D2*
Y91206D1*
X58585D1*
Y92706D1*
X59285D1*
G37*
G36*
X67636Y113233D2*
X67518Y113045D1*
X67493Y112824D1*
X67566Y112614D1*
X67724Y112456D1*
X67934Y112383D1*
X68155Y112408D1*
X68343Y112526D1*
X68697Y112880D1*
X68815Y113068D1*
X68840Y113289D1*
X68767Y113499D1*
X68609Y113657D1*
X68399Y113730D1*
X68178Y113705D1*
X67990Y113587D1*
X67636Y113233D1*
G37*
G36*
X68944Y111925D2*
X68826Y111737D1*
X68801Y111516D1*
X68874Y111306D1*
X69032Y111148D1*
X69242Y111075D1*
X69463Y111100D1*
X69651Y111218D1*
X70005Y111572D1*
X70123Y111760D1*
X70148Y111981D1*
X70075Y112191D1*
X69917Y112349D1*
X69707Y112422D1*
X69486Y112397D1*
X69298Y112279D1*
X68944Y111925D1*
G37*
G36*
X70252Y110617D2*
X70134Y110429D1*
X70109Y110208D1*
X70183Y109998D1*
X70340Y109840D1*
X70550Y109767D1*
X70771Y109792D1*
X70959Y109910D1*
X71313Y110264D1*
X71431Y110452D1*
X71456Y110673D1*
X71383Y110883D1*
X71226Y111040D1*
X71015Y111114D1*
X70794Y111089D1*
X70606Y110971D1*
X70252Y110617D1*
G37*
G36*
X73788Y114153D2*
X73670Y113964D1*
X73645Y113743D1*
X73718Y113533D1*
X73875Y113376D1*
X74085Y113302D1*
X74307Y113327D1*
X74495Y113446D1*
X74849Y113799D1*
X74967Y113988D1*
X74992Y114209D1*
X74918Y114419D1*
X74761Y114576D1*
X74551Y114650D1*
X74330Y114625D1*
X74141Y114506D1*
X73788Y114153D1*
G37*
G36*
X72480Y115461D2*
X72361Y115272D1*
X72336Y115051D1*
X72410Y114841D1*
X72567Y114684D1*
X72777Y114610D1*
X72998Y114635D1*
X73187Y114754D1*
X73540Y115107D1*
X73659Y115296D1*
X73684Y115517D1*
X73610Y115727D1*
X73453Y115884D1*
X73243Y115958D1*
X73022Y115933D1*
X72833Y115814D1*
X72480Y115461D1*
G37*
G36*
X71172Y116769D2*
X71053Y116581D1*
X71028Y116359D1*
X71102Y116149D1*
X71259Y115992D1*
X71469Y115919D1*
X71690Y115943D1*
X71879Y116062D1*
X72232Y116415D1*
X72351Y116604D1*
X72376Y116825D1*
X72302Y117035D1*
X72145Y117192D1*
X71935Y117266D1*
X71714Y117241D1*
X71525Y117122D1*
X71172Y116769D1*
G37*
G36*
X75061Y119244D2*
X75179Y119432D1*
X75204Y119653D1*
X75131Y119863D1*
X74973Y120021D1*
X74763Y120094D1*
X74542Y120069D1*
X74354Y119951D1*
X74000Y119597D1*
X73882Y119409D1*
X73857Y119188D1*
X73930Y118978D1*
X74088Y118820D1*
X74298Y118747D1*
X74519Y118772D1*
X74707Y118890D1*
X75061Y119244D1*
G37*
G36*
X76369Y117936D2*
X76487Y118124D1*
X76512Y118345D1*
X76439Y118555D1*
X76281Y118713D1*
X76071Y118786D1*
X75850Y118761D1*
X75662Y118643D1*
X75308Y118289D1*
X75190Y118101D1*
X75165Y117880D1*
X75238Y117670D1*
X75396Y117512D1*
X75606Y117439D1*
X75827Y117464D1*
X76015Y117582D1*
X76369Y117936D1*
G37*
G36*
X77677Y116628D2*
X77795Y116816D1*
X77820Y117037D1*
X77747Y117247D1*
X77590Y117404D1*
X77379Y117478D1*
X77158Y117453D1*
X76970Y117335D1*
X76616Y116981D1*
X76498Y116793D1*
X76473Y116572D1*
X76547Y116362D1*
X76704Y116204D1*
X76914Y116131D1*
X77135Y116156D1*
X77323Y116274D1*
X77677Y116628D1*
G37*
G36*
X81213Y120163D2*
X81331Y120352D1*
X81356Y120573D1*
X81282Y120783D1*
X81125Y120940D1*
X80915Y121014D1*
X80694Y120989D1*
X80505Y120870D1*
X80152Y120517D1*
X80034Y120328D1*
X80009Y120107D1*
X80082Y119897D1*
X80239Y119740D1*
X80449Y119666D1*
X80671Y119691D1*
X80859Y119810D1*
X81213Y120163D1*
G37*
G36*
X79904Y121471D2*
X80023Y121660D1*
X80048Y121881D1*
X79974Y122091D1*
X79817Y122248D1*
X79607Y122322D1*
X79386Y122297D1*
X79197Y122178D1*
X78844Y121825D1*
X78725Y121636D1*
X78700Y121415D1*
X78774Y121205D1*
X78931Y121048D1*
X79141Y120974D1*
X79362Y120999D1*
X79551Y121118D1*
X79904Y121471D1*
G37*
G36*
X78596Y122779D2*
X78715Y122968D1*
X78740Y123189D1*
X78666Y123399D1*
X78509Y123556D1*
X78299Y123630D1*
X78078Y123605D1*
X77889Y123486D1*
X77536Y123133D1*
X77417Y122945D1*
X77392Y122723D1*
X77466Y122513D1*
X77623Y122356D1*
X77833Y122283D1*
X78054Y122307D1*
X78243Y122426D1*
X78596Y122779D1*
G37*
D32*
X71106Y119782D3*
Y121632D3*
Y123482D3*
X66106D3*
Y121632D3*
Y119782D3*
D37*
X77266Y108380D3*
X79116D3*
X80966D3*
Y113380D3*
X79116D3*
X77266D3*
D40*
X54214Y106967D3*
X55514D3*
D41*
X54531Y105055D3*
Y103755D3*
X51041Y104738D3*
Y103438D3*
X55367Y102516D3*
Y101216D3*
X52840Y102353D3*
Y101053D3*
D33*
X54097Y102361D3*
Y100661D3*
D43*
X53513Y105097D3*
X53013D3*
X52513D3*
X52013D3*
D42*
Y104597D3*
Y104097D3*
D43*
Y103597D3*
X52513D3*
X53013D3*
X53513D3*
D42*
Y104097D3*
Y104597D3*
D41*
X56226Y99532D3*
Y98232D3*
D20*
X78000Y32150D3*
D22*
X77227Y31412D3*
X78790Y31402D3*
X77237Y32945D3*
X78794Y32955D3*
D24*
X76754Y30122D3*
X77254D3*
X77754D3*
X78254D3*
X78754D3*
X79254D3*
D25*
X80054Y30922D3*
Y31422D3*
Y31922D3*
Y32422D3*
Y32922D3*
Y33422D3*
D24*
X79254Y34222D3*
X78754D3*
X78254D3*
X77754D3*
X77254D3*
X76754D3*
D25*
X75954Y33422D3*
Y32922D3*
Y32422D3*
Y31922D3*
Y31422D3*
Y30922D3*
D49*
X81685Y77860D3*
X80385D3*
X79085D3*
Y75660D3*
X80385D3*
X81685D3*
D37*
X76154Y37672D3*
X78004D3*
X79854D3*
Y42672D3*
X78004D3*
X76154D3*
D34*
X81215Y79295D3*
X79515D3*
D33*
X77904Y76970D3*
Y78670D3*
D51*
X81740Y73602D3*
X80040D3*
D37*
X76154Y46672D3*
X78004D3*
X79854D3*
Y51672D3*
X78004D3*
X76154D3*
Y55672D3*
X78004D3*
X79854D3*
Y60672D3*
X78004D3*
X76154D3*
Y64672D3*
X78004D3*
X79854D3*
Y69672D3*
X78004D3*
X76154D3*
D32*
X71504Y74322D3*
Y76172D3*
Y78022D3*
X66504D3*
Y76172D3*
Y74322D3*
X62504D3*
Y76172D3*
Y78022D3*
X57504D3*
Y76172D3*
Y74322D3*
D37*
X76154Y82672D3*
X78004D3*
X79854D3*
Y87672D3*
X78004D3*
X76154D3*
Y91672D3*
X78004D3*
X79854D3*
Y96672D3*
X78004D3*
X76154D3*
D32*
X84504Y78022D3*
Y76172D3*
Y74322D3*
X89504D3*
Y76172D3*
Y78022D3*
X93504D3*
Y76172D3*
Y74322D3*
X98504D3*
Y76172D3*
Y78022D3*
D40*
X76389Y71647D3*
X75089D3*
D41*
X73743Y72841D3*
Y74141D3*
X77413Y73008D3*
Y74308D3*
X73110Y75730D3*
Y77030D3*
X75649Y75743D3*
Y77043D3*
D33*
X74375Y75784D3*
Y77484D3*
D43*
X74898Y72885D3*
X75398D3*
X75898D3*
X76398D3*
D42*
Y73385D3*
Y73885D3*
D43*
Y74385D3*
X75898D3*
X75398D3*
X74898D3*
D42*
Y73885D3*
Y73385D3*
D40*
X79156Y35553D3*
X80456D3*
D20*
X35327Y44528D3*
D22*
X34553Y43789D3*
X36117Y43779D3*
X34563Y45323D3*
X36120Y45332D3*
D24*
X34080Y42499D3*
X34580D3*
X35080D3*
X35580D3*
X36080D3*
X36580D3*
D25*
X37380Y43299D3*
Y43799D3*
Y44299D3*
Y44799D3*
Y45299D3*
Y45799D3*
D24*
X36580Y46599D3*
X36080D3*
X35580D3*
X35080D3*
X34580D3*
X34080D3*
D25*
X33280Y45799D3*
Y45299D3*
Y44799D3*
Y44299D3*
Y43799D3*
Y43299D3*
D49*
X50575Y25835D3*
X49275D3*
X47975D3*
Y23635D3*
X49275D3*
X50575D3*
D37*
X40433Y20584D3*
X42283D3*
X44133D3*
Y25584D3*
X42283D3*
X40433D3*
D34*
X50105Y27270D3*
X48405D3*
D33*
X46793Y23897D3*
Y25597D3*
D51*
X50630Y21577D3*
X48930D3*
D37*
X40433Y29584D3*
X42283D3*
X44133D3*
Y34584D3*
X42283D3*
X40433D3*
Y38584D3*
X42283D3*
X44133D3*
Y43584D3*
X42283D3*
X40433D3*
G36*
X40933Y47834D2*
X40884Y48051D1*
X40745Y48225D1*
X40545Y48322D1*
X40322D1*
X40122Y48225D1*
X39983Y48051D1*
X39933Y47834D1*
Y47334D1*
X39983Y47117D1*
X40122Y46943D1*
X40322Y46847D1*
X40545D1*
X40745Y46943D1*
X40884Y47117D1*
X40933Y47334D1*
Y47834D1*
G37*
G36*
X42783D2*
X42734Y48051D1*
X42595Y48225D1*
X42395Y48322D1*
X42172D1*
X41972Y48225D1*
X41833Y48051D1*
X41783Y47834D1*
Y47334D1*
X41833Y47117D1*
X41972Y46943D1*
X42172Y46847D1*
X42395D1*
X42595Y46943D1*
X42734Y47117D1*
X42783Y47334D1*
Y47834D1*
G37*
G36*
X44633D2*
X44584Y48051D1*
X44445Y48225D1*
X44245Y48322D1*
X44022D1*
X43822Y48225D1*
X43683Y48051D1*
X43633Y47834D1*
Y47334D1*
X43683Y47117D1*
X43822Y46943D1*
X44022Y46847D1*
X44245D1*
X44445Y46943D1*
X44584Y47117D1*
X44633Y47334D1*
Y47834D1*
G37*
G36*
Y52834D2*
X44584Y53051D1*
X44445Y53225D1*
X44245Y53322D1*
X44022D1*
X43822Y53225D1*
X43683Y53051D1*
X43633Y52834D1*
Y52334D1*
X43683Y52117D1*
X43822Y51943D1*
X44022Y51847D1*
X44245D1*
X44445Y51943D1*
X44584Y52117D1*
X44633Y52334D1*
Y52834D1*
G37*
G36*
X42783D2*
X42734Y53051D1*
X42595Y53225D1*
X42395Y53322D1*
X42172D1*
X41972Y53225D1*
X41833Y53051D1*
X41783Y52834D1*
Y52334D1*
X41833Y52117D1*
X41972Y51943D1*
X42172Y51847D1*
X42395D1*
X42595Y51943D1*
X42734Y52117D1*
X42783Y52334D1*
Y52834D1*
G37*
G36*
X40933D2*
X40884Y53051D1*
X40745Y53225D1*
X40545Y53322D1*
X40322D1*
X40122Y53225D1*
X39983Y53051D1*
X39933Y52834D1*
Y52334D1*
X39983Y52117D1*
X40122Y51943D1*
X40322Y51847D1*
X40545D1*
X40745Y51943D1*
X40884Y52117D1*
X40933Y52334D1*
Y52834D1*
G37*
G36*
Y56834D2*
X40884Y57051D1*
X40745Y57225D1*
X40545Y57322D1*
X40322D1*
X40122Y57225D1*
X39983Y57051D1*
X39933Y56834D1*
Y56334D1*
X39983Y56117D1*
X40122Y55943D1*
X40322Y55847D1*
X40545D1*
X40745Y55943D1*
X40884Y56117D1*
X40933Y56334D1*
Y56834D1*
G37*
G36*
X42783D2*
X42734Y57051D1*
X42595Y57225D1*
X42395Y57322D1*
X42172D1*
X41972Y57225D1*
X41833Y57051D1*
X41783Y56834D1*
Y56334D1*
X41833Y56117D1*
X41972Y55943D1*
X42172Y55847D1*
X42395D1*
X42595Y55943D1*
X42734Y56117D1*
X42783Y56334D1*
Y56834D1*
G37*
G36*
X44633D2*
X44584Y57051D1*
X44445Y57225D1*
X44245Y57322D1*
X44022D1*
X43822Y57225D1*
X43683Y57051D1*
X43633Y56834D1*
Y56334D1*
X43683Y56117D1*
X43822Y55943D1*
X44022Y55847D1*
X44245D1*
X44445Y55943D1*
X44584Y56117D1*
X44633Y56334D1*
Y56834D1*
G37*
G36*
Y61834D2*
X44584Y62051D1*
X44445Y62225D1*
X44245Y62322D1*
X44022D1*
X43822Y62225D1*
X43683Y62051D1*
X43633Y61834D1*
Y61334D1*
X43683Y61117D1*
X43822Y60943D1*
X44022Y60847D1*
X44245D1*
X44445Y60943D1*
X44584Y61117D1*
X44633Y61334D1*
Y61834D1*
G37*
G36*
X42783D2*
X42734Y62051D1*
X42595Y62225D1*
X42395Y62322D1*
X42172D1*
X41972Y62225D1*
X41833Y62051D1*
X41783Y61834D1*
Y61334D1*
X41833Y61117D1*
X41972Y60943D1*
X42172Y60847D1*
X42395D1*
X42595Y60943D1*
X42734Y61117D1*
X42783Y61334D1*
Y61834D1*
G37*
G36*
X40933D2*
X40884Y62051D1*
X40745Y62225D1*
X40545Y62322D1*
X40322D1*
X40122Y62225D1*
X39983Y62051D1*
X39933Y61834D1*
Y61334D1*
X39983Y61117D1*
X40122Y60943D1*
X40322Y60847D1*
X40545D1*
X40745Y60943D1*
X40884Y61117D1*
X40933Y61334D1*
Y61834D1*
G37*
G36*
X36829Y33721D2*
X36711Y33532D1*
X36686Y33311D1*
X36759Y33101D1*
X36916Y32944D1*
X37127Y32870D1*
X37348Y32895D1*
X37536Y33014D1*
X37890Y33367D1*
X38008Y33555D1*
X38033Y33777D1*
X37959Y33987D1*
X37802Y34144D1*
X37592Y34217D1*
X37371Y34193D1*
X37183Y34074D1*
X36829Y33721D1*
G37*
G36*
X35521Y35029D2*
X35402Y34840D1*
X35378Y34619D1*
X35451Y34409D1*
X35608Y34252D1*
X35818Y34178D1*
X36040Y34203D1*
X36228Y34322D1*
X36581Y34675D1*
X36700Y34864D1*
X36725Y35085D1*
X36651Y35295D1*
X36494Y35452D1*
X36284Y35526D1*
X36063Y35501D1*
X35874Y35382D1*
X35521Y35029D1*
G37*
G36*
X34213Y36337D2*
X34094Y36148D1*
X34069Y35927D1*
X34143Y35717D1*
X34300Y35560D1*
X34510Y35486D1*
X34731Y35511D1*
X34920Y35630D1*
X35273Y35983D1*
X35392Y36172D1*
X35417Y36393D1*
X35343Y36603D1*
X35186Y36760D1*
X34976Y36834D1*
X34755Y36809D1*
X34566Y36690D1*
X34213Y36337D1*
G37*
G36*
X30677Y32801D2*
X30559Y32613D1*
X30534Y32392D1*
X30607Y32182D1*
X30765Y32024D1*
X30975Y31951D1*
X31196Y31976D1*
X31384Y32094D1*
X31738Y32448D1*
X31856Y32636D1*
X31881Y32857D1*
X31808Y33067D1*
X31650Y33225D1*
X31440Y33298D1*
X31219Y33273D1*
X31031Y33155D1*
X30677Y32801D1*
G37*
G36*
X31985Y31493D2*
X31867Y31305D1*
X31842Y31084D1*
X31915Y30874D1*
X32073Y30716D1*
X32283Y30643D1*
X32504Y30668D1*
X32692Y30786D1*
X33046Y31140D1*
X33164Y31328D1*
X33189Y31549D1*
X33116Y31759D1*
X32958Y31917D1*
X32748Y31990D1*
X32527Y31965D1*
X32339Y31847D1*
X31985Y31493D1*
G37*
G36*
X33293Y30185D2*
X33175Y29997D1*
X33150Y29776D1*
X33224Y29566D1*
X33381Y29408D1*
X33591Y29335D1*
X33812Y29360D1*
X34001Y29478D1*
X34354Y29832D1*
X34472Y30020D1*
X34497Y30241D1*
X34424Y30451D1*
X34267Y30608D1*
X34057Y30682D1*
X33835Y30657D1*
X33647Y30539D1*
X33293Y30185D1*
G37*
G36*
X30829Y27721D2*
X30711Y27532D1*
X30686Y27311D1*
X30759Y27101D1*
X30916Y26944D1*
X31127Y26870D1*
X31348Y26895D1*
X31536Y27014D1*
X31890Y27367D1*
X32008Y27555D1*
X32033Y27777D1*
X31959Y27987D1*
X31802Y28144D1*
X31592Y28217D1*
X31371Y28193D1*
X31183Y28074D1*
X30829Y27721D1*
G37*
G36*
X29521Y29029D2*
X29402Y28840D1*
X29378Y28619D1*
X29451Y28409D1*
X29608Y28252D1*
X29818Y28178D1*
X30040Y28203D1*
X30228Y28322D1*
X30581Y28675D1*
X30700Y28864D1*
X30725Y29085D1*
X30651Y29295D1*
X30494Y29452D1*
X30284Y29526D1*
X30063Y29501D1*
X29874Y29382D1*
X29521Y29029D1*
G37*
G36*
X28213Y30337D2*
X28094Y30148D1*
X28069Y29927D1*
X28143Y29717D1*
X28300Y29560D1*
X28510Y29486D1*
X28731Y29511D1*
X28920Y29630D1*
X29273Y29983D1*
X29392Y30172D1*
X29417Y30393D1*
X29343Y30603D1*
X29186Y30760D1*
X28976Y30834D1*
X28755Y30809D1*
X28566Y30690D1*
X28213Y30337D1*
G37*
G36*
X24677Y26801D2*
X24559Y26613D1*
X24534Y26392D1*
X24607Y26182D1*
X24765Y26024D1*
X24975Y25951D1*
X25196Y25976D1*
X25384Y26094D1*
X25738Y26448D1*
X25856Y26636D1*
X25881Y26857D1*
X25808Y27067D1*
X25650Y27225D1*
X25440Y27298D1*
X25219Y27273D1*
X25031Y27155D1*
X24677Y26801D1*
G37*
G36*
X25985Y25493D2*
X25867Y25305D1*
X25842Y25084D1*
X25915Y24874D1*
X26073Y24716D1*
X26283Y24643D1*
X26504Y24668D1*
X26692Y24786D1*
X27046Y25140D1*
X27164Y25328D1*
X27189Y25549D1*
X27116Y25759D1*
X26958Y25917D1*
X26748Y25990D1*
X26527Y25965D1*
X26339Y25847D1*
X25985Y25493D1*
G37*
G36*
X27293Y24185D2*
X27175Y23997D1*
X27150Y23776D1*
X27224Y23566D1*
X27381Y23408D1*
X27591Y23335D1*
X27812Y23360D1*
X28001Y23478D1*
X28354Y23832D1*
X28472Y24020D1*
X28497Y24241D1*
X28424Y24451D1*
X28267Y24608D1*
X28057Y24682D1*
X27835Y24657D1*
X27647Y24539D1*
X27293Y24185D1*
G37*
G36*
X56560Y23975D2*
X56748Y23857D1*
X56970Y23832D1*
X57180Y23905D1*
X57337Y24063D1*
X57410Y24273D1*
X57385Y24494D1*
X57267Y24682D1*
X56914Y25036D1*
X56725Y25154D1*
X56504Y25179D1*
X56294Y25106D1*
X56137Y24948D1*
X56063Y24738D1*
X56088Y24517D1*
X56206Y24329D1*
X56560Y23975D1*
G37*
G36*
X57868Y25283D2*
X58057Y25165D1*
X58278Y25140D1*
X58488Y25214D1*
X58645Y25371D1*
X58719Y25581D1*
X58694Y25802D1*
X58575Y25990D1*
X58222Y26344D1*
X58033Y26462D1*
X57812Y26487D1*
X57602Y26414D1*
X57445Y26257D1*
X57371Y26046D1*
X57396Y25825D1*
X57515Y25637D1*
X57868Y25283D1*
G37*
G36*
X59176Y26592D2*
X59365Y26473D1*
X59586Y26448D1*
X59796Y26522D1*
X59953Y26679D1*
X60027Y26889D1*
X60002Y27110D1*
X59883Y27299D1*
X59530Y27652D1*
X59341Y27771D1*
X59120Y27796D1*
X58910Y27722D1*
X58753Y27565D1*
X58679Y27355D1*
X58704Y27134D1*
X58823Y26945D1*
X59176Y26592D1*
G37*
G36*
X55641Y30127D2*
X55829Y30009D1*
X56050Y29984D1*
X56260Y30057D1*
X56418Y30215D1*
X56491Y30425D1*
X56466Y30646D1*
X56348Y30834D1*
X55994Y31188D1*
X55806Y31306D1*
X55585Y31331D1*
X55375Y31258D1*
X55217Y31100D1*
X55144Y30890D1*
X55169Y30669D1*
X55287Y30481D1*
X55641Y30127D1*
G37*
G36*
X54333Y28819D2*
X54521Y28701D1*
X54742Y28676D1*
X54952Y28749D1*
X55109Y28906D1*
X55183Y29116D1*
X55158Y29338D1*
X55040Y29526D1*
X54686Y29880D1*
X54498Y29998D1*
X54277Y30023D1*
X54067Y29949D1*
X53909Y29792D1*
X53836Y29582D1*
X53861Y29361D1*
X53979Y29172D1*
X54333Y28819D1*
G37*
G36*
X53024Y27511D2*
X53213Y27392D1*
X53434Y27367D1*
X53644Y27441D1*
X53801Y27598D1*
X53875Y27808D1*
X53850Y28029D1*
X53732Y28218D1*
X53378Y28571D1*
X53190Y28690D1*
X52968Y28715D1*
X52758Y28641D1*
X52601Y28484D1*
X52528Y28274D1*
X52552Y28053D1*
X52671Y27864D1*
X53024Y27511D1*
G37*
G36*
X46914Y39632D2*
X47714D1*
Y38632D1*
X46914D1*
Y39632D1*
G37*
G36*
X49114D2*
X49914D1*
Y38632D1*
X49114D1*
Y39632D1*
G37*
G36*
Y46932D2*
X49914D1*
Y45932D1*
X49114D1*
Y46932D1*
G37*
G36*
X46914D2*
X47714D1*
Y45932D1*
X46914D1*
Y46932D1*
G37*
G36*
X45914Y45382D2*
X47414D1*
Y44682D1*
X45914D1*
Y45382D1*
G37*
G36*
Y43882D2*
X47414D1*
Y43182D1*
X45914D1*
Y43882D1*
G37*
G36*
Y40882D2*
X47414D1*
Y40182D1*
X45914D1*
Y40882D1*
G37*
D40*
X34936Y41360D3*
X36236D3*
X34730Y20133D3*
X33430D3*
D41*
X34414Y22045D3*
Y23345D3*
X37904Y22362D3*
Y23662D3*
X33578Y24584D3*
Y25884D3*
X36105Y24747D3*
Y26047D3*
D33*
X34848Y24738D3*
Y26438D3*
D43*
X35432Y22003D3*
X35932D3*
X36432D3*
X36932D3*
D42*
Y22503D3*
Y23003D3*
D43*
Y23503D3*
X36432D3*
X35932D3*
X35432D3*
D42*
Y23003D3*
Y22503D3*
G36*
X50560Y29975D2*
X50748Y29857D1*
X50970Y29832D1*
X51180Y29905D1*
X51337Y30063D1*
X51410Y30273D1*
X51385Y30494D1*
X51267Y30682D1*
X50914Y31036D1*
X50725Y31154D1*
X50504Y31179D1*
X50294Y31106D1*
X50137Y30948D1*
X50063Y30738D1*
X50088Y30517D1*
X50206Y30329D1*
X50560Y29975D1*
G37*
G36*
X51868Y31283D2*
X52057Y31165D1*
X52278Y31140D1*
X52488Y31214D1*
X52645Y31371D1*
X52719Y31581D1*
X52694Y31802D1*
X52575Y31991D1*
X52222Y32344D1*
X52033Y32462D1*
X51812Y32487D1*
X51602Y32414D1*
X51445Y32257D1*
X51371Y32047D1*
X51396Y31825D1*
X51515Y31637D1*
X51868Y31283D1*
G37*
G36*
X53176Y32592D2*
X53365Y32473D1*
X53586Y32448D1*
X53796Y32522D1*
X53953Y32679D1*
X54027Y32889D1*
X54002Y33110D1*
X53883Y33299D1*
X53530Y33652D1*
X53341Y33771D1*
X53120Y33796D1*
X52910Y33722D1*
X52753Y33565D1*
X52679Y33355D1*
X52704Y33134D1*
X52823Y32945D1*
X53176Y32592D1*
G37*
G36*
X49641Y36127D2*
X49829Y36009D1*
X50050Y35984D1*
X50260Y36057D1*
X50418Y36215D1*
X50491Y36425D1*
X50466Y36646D1*
X50348Y36834D1*
X49994Y37188D1*
X49806Y37306D1*
X49585Y37331D1*
X49375Y37258D1*
X49217Y37100D1*
X49144Y36890D1*
X49169Y36669D1*
X49287Y36481D1*
X49641Y36127D1*
G37*
G36*
X48333Y34819D2*
X48521Y34701D1*
X48742Y34676D1*
X48952Y34749D1*
X49109Y34906D1*
X49183Y35117D1*
X49158Y35338D1*
X49040Y35526D1*
X48686Y35880D1*
X48498Y35998D1*
X48277Y36023D1*
X48067Y35949D1*
X47909Y35792D1*
X47836Y35582D1*
X47861Y35361D1*
X47979Y35173D1*
X48333Y34819D1*
G37*
G36*
X47024Y33511D2*
X47213Y33392D1*
X47434Y33368D1*
X47644Y33441D1*
X47801Y33598D1*
X47875Y33808D1*
X47850Y34030D1*
X47732Y34218D1*
X47378Y34571D1*
X47190Y34690D1*
X46968Y34715D1*
X46758Y34641D1*
X46601Y34484D1*
X46528Y34274D1*
X46552Y34053D1*
X46671Y33864D1*
X47024Y33511D1*
G37*
D37*
X67433Y38584D3*
X69283D3*
X71133D3*
Y43584D3*
X69283D3*
X67433D3*
G36*
X66491Y46487D2*
X66608Y46298D1*
X66796Y46179D1*
X67017Y46152D1*
X67227Y46225D1*
X67385Y46381D1*
X67460Y46591D1*
X67436Y46812D1*
X67274Y47285D1*
X67157Y47474D1*
X66969Y47593D1*
X66748Y47620D1*
X66538Y47547D1*
X66379Y47391D1*
X66305Y47181D1*
X66328Y46960D1*
X66491Y46487D1*
G37*
G36*
X68240Y47088D2*
X68358Y46899D1*
X68545Y46779D1*
X68766Y46753D1*
X68977Y46825D1*
X69135Y46982D1*
X69210Y47191D1*
X69186Y47413D1*
X69024Y47885D1*
X68907Y48075D1*
X68719Y48194D1*
X68498Y48220D1*
X68287Y48148D1*
X68129Y47992D1*
X68054Y47782D1*
X68078Y47561D1*
X68240Y47088D1*
G37*
G36*
X69990Y47689D2*
X70107Y47499D1*
X70295Y47380D1*
X70516Y47354D1*
X70727Y47426D1*
X70885Y47582D1*
X70960Y47792D1*
X70936Y48013D1*
X70774Y48486D1*
X70656Y48675D1*
X70469Y48795D1*
X70248Y48821D1*
X70037Y48749D1*
X69879Y48592D1*
X69804Y48383D1*
X69828Y48161D1*
X69990Y47689D1*
G37*
G36*
X68367Y52418D2*
X68484Y52229D1*
X68672Y52109D1*
X68893Y52083D1*
X69103Y52155D1*
X69261Y52311D1*
X69336Y52521D1*
X69312Y52742D1*
X69150Y53215D1*
X69033Y53404D1*
X68845Y53524D1*
X68624Y53550D1*
X68414Y53478D1*
X68255Y53321D1*
X68181Y53112D1*
X68204Y52891D1*
X68367Y52418D1*
G37*
G36*
X66617Y51817D2*
X66734Y51628D1*
X66922Y51508D1*
X67143Y51482D1*
X67353Y51554D1*
X67512Y51711D1*
X67586Y51920D1*
X67563Y52142D1*
X67400Y52615D1*
X67283Y52804D1*
X67095Y52923D1*
X66874Y52949D1*
X66664Y52877D1*
X66506Y52721D1*
X66431Y52511D1*
X66455Y52290D1*
X66617Y51817D1*
G37*
G36*
X64867Y51216D2*
X64984Y51027D1*
X65172Y50908D1*
X65393Y50881D1*
X65604Y50954D1*
X65762Y51110D1*
X65837Y51320D1*
X65813Y51541D1*
X65651Y52014D1*
X65533Y52203D1*
X65346Y52322D1*
X65125Y52349D1*
X64914Y52276D1*
X64756Y52120D1*
X64681Y51910D1*
X64705Y51689D1*
X64867Y51216D1*
G37*
G36*
X63424Y54055D2*
X63596Y53914D1*
X63813Y53862D1*
X64030Y53909D1*
X64206Y54045D1*
X64305Y54245D1*
X64307Y54467D1*
X64213Y54669D1*
X63906Y55063D1*
X63734Y55204D1*
X63517Y55256D1*
X63300Y55209D1*
X63124Y55073D1*
X63025Y54873D1*
X63023Y54651D1*
X63117Y54449D1*
X63424Y54055D1*
G37*
G36*
X64884Y55191D2*
X65056Y55050D1*
X65273Y54998D1*
X65490Y55045D1*
X65666Y55182D1*
X65765Y55381D1*
X65767Y55604D1*
X65673Y55805D1*
X65366Y56200D1*
X65194Y56341D1*
X64977Y56393D1*
X64760Y56346D1*
X64584Y56209D1*
X64485Y56010D1*
X64483Y55787D1*
X64577Y55586D1*
X64884Y55191D1*
G37*
G36*
X66344Y56327D2*
X66516Y56187D1*
X66732Y56134D1*
X66950Y56181D1*
X67126Y56318D1*
X67224Y56517D1*
X67227Y56740D1*
X67133Y56942D1*
X66826Y57336D1*
X66654Y57477D1*
X66437Y57529D1*
X66220Y57482D1*
X66044Y57345D1*
X65945Y57146D1*
X65943Y56923D1*
X66037Y56722D1*
X66344Y56327D1*
G37*
G36*
X63273Y60273D2*
X63445Y60132D1*
X63661Y60080D1*
X63879Y60127D1*
X64055Y60264D1*
X64153Y60463D1*
X64156Y60686D1*
X64062Y60887D1*
X63755Y61282D1*
X63582Y61423D1*
X63366Y61475D1*
X63149Y61428D1*
X62973Y61291D1*
X62874Y61092D1*
X62871Y60869D1*
X62966Y60668D1*
X63273Y60273D1*
G37*
G36*
X61813Y59137D2*
X61985Y58996D1*
X62202Y58944D1*
X62419Y58991D1*
X62595Y59127D1*
X62694Y59327D1*
X62696Y59549D1*
X62602Y59751D1*
X62295Y60145D1*
X62123Y60286D1*
X61906Y60338D1*
X61689Y60291D1*
X61513Y60155D1*
X61414Y59955D1*
X61412Y59733D1*
X61506Y59531D1*
X61813Y59137D1*
G37*
G36*
X60353Y58000D2*
X60525Y57860D1*
X60742Y57808D1*
X60959Y57854D1*
X61135Y57991D1*
X61234Y58190D1*
X61236Y58413D1*
X61142Y58615D1*
X60835Y59009D1*
X60663Y59150D1*
X60446Y59202D1*
X60229Y59155D1*
X60053Y59018D1*
X59954Y58819D1*
X59952Y58597D1*
X60046Y58395D1*
X60353Y58000D1*
G37*
G36*
X58068Y60216D2*
X58277Y60139D1*
X58498Y60160D1*
X58689Y60275D1*
X58811Y60461D1*
X58840Y60682D1*
X58770Y60893D1*
X58615Y61053D1*
X58197Y61326D1*
X57988Y61404D1*
X57766Y61383D1*
X57576Y61268D1*
X57454Y61081D1*
X57425Y60861D1*
X57495Y60649D1*
X57650Y60489D1*
X58068Y60216D1*
G37*
G36*
X59080Y61765D2*
X59289Y61687D1*
X59510Y61708D1*
X59701Y61823D1*
X59823Y62010D1*
X59851Y62230D1*
X59782Y62442D1*
X59627Y62602D1*
X59208Y62875D1*
X59000Y62952D1*
X58778Y62931D1*
X58588Y62816D1*
X58466Y62630D1*
X58437Y62409D1*
X58507Y62198D1*
X58662Y62038D1*
X59080Y61765D1*
G37*
G36*
X60092Y63313D2*
X60301Y63236D1*
X60522Y63257D1*
X60713Y63372D1*
X60834Y63558D1*
X60863Y63779D1*
X60793Y63990D1*
X60639Y64150D1*
X60220Y64424D1*
X60012Y64501D1*
X59790Y64480D1*
X59600Y64365D1*
X59478Y64179D1*
X59449Y63958D1*
X59519Y63747D1*
X59673Y63587D1*
X60092Y63313D1*
G37*
G36*
X55906Y66048D2*
X56115Y65971D1*
X56336Y65992D1*
X56527Y66107D1*
X56649Y66293D1*
X56677Y66514D1*
X56608Y66725D1*
X56453Y66885D1*
X56035Y67159D1*
X55826Y67236D1*
X55604Y67215D1*
X55414Y67100D1*
X55292Y66914D1*
X55263Y66693D1*
X55333Y66482D1*
X55488Y66322D1*
X55906Y66048D1*
G37*
G36*
X54894Y64499D2*
X55103Y64422D1*
X55325Y64443D1*
X55515Y64558D1*
X55637Y64744D1*
X55666Y64965D1*
X55596Y65176D1*
X55441Y65336D1*
X55023Y65610D1*
X54814Y65687D1*
X54592Y65666D1*
X54402Y65551D1*
X54280Y65365D1*
X54251Y65144D1*
X54321Y64933D1*
X54476Y64773D1*
X54894Y64499D1*
G37*
G36*
X53882Y62951D2*
X54091Y62873D1*
X54313Y62894D1*
X54503Y63009D1*
X54625Y63196D1*
X54654Y63416D1*
X54584Y63628D1*
X54429Y63788D1*
X54011Y64061D1*
X53802Y64138D1*
X53581Y64117D1*
X53390Y64002D1*
X53268Y63816D1*
X53240Y63595D1*
X53309Y63384D1*
X53464Y63224D1*
X53882Y62951D1*
G37*
G36*
X51000Y64305D2*
X51223Y64300D1*
X51425Y64392D1*
X51568Y64562D1*
X51623Y64778D1*
X51579Y64996D1*
X51444Y65173D1*
X51246Y65274D1*
X50761Y65397D1*
X50539Y65402D1*
X50336Y65311D1*
X50193Y65140D1*
X50139Y64924D1*
X50183Y64706D1*
X50317Y64529D1*
X50516Y64428D1*
X51000Y64305D1*
G37*
G36*
X51454Y66098D2*
X51677Y66093D1*
X51880Y66185D1*
X52022Y66356D1*
X52077Y66571D1*
X52033Y66789D1*
X51898Y66967D1*
X51700Y67068D1*
X51215Y67191D1*
X50993Y67196D1*
X50790Y67104D1*
X50647Y66933D1*
X50593Y66718D1*
X50637Y66500D1*
X50772Y66322D1*
X50970Y66221D1*
X51454Y66098D1*
G37*
G36*
X51909Y67892D2*
X52131Y67887D1*
X52334Y67978D1*
X52477Y68149D1*
X52531Y68365D1*
X52487Y68583D1*
X52352Y68760D1*
X52154Y68861D1*
X51669Y68984D1*
X51447Y68989D1*
X51244Y68897D1*
X51101Y68727D1*
X51047Y68511D1*
X51091Y68293D1*
X51226Y68116D1*
X51424Y68015D1*
X51909Y67892D1*
G37*
G36*
X47062Y69119D2*
X47284Y69114D1*
X47487Y69206D1*
X47630Y69376D1*
X47684Y69592D1*
X47640Y69810D1*
X47505Y69987D1*
X47307Y70089D1*
X46822Y70211D1*
X46600Y70217D1*
X46397Y70125D1*
X46254Y69954D1*
X46200Y69739D1*
X46244Y69520D1*
X46379Y69343D1*
X46577Y69242D1*
X47062Y69119D1*
G37*
G36*
X46607Y67326D2*
X46830Y67321D1*
X47033Y67412D1*
X47175Y67583D1*
X47230Y67799D1*
X47186Y68017D1*
X47051Y68194D1*
X46853Y68295D1*
X46368Y68418D1*
X46146Y68423D1*
X45943Y68331D1*
X45800Y68161D1*
X45746Y67945D1*
X45790Y67727D1*
X45925Y67550D1*
X46123Y67449D1*
X46607Y67326D1*
G37*
G36*
X46153Y65532D2*
X46376Y65527D1*
X46578Y65619D1*
X46721Y65790D1*
X46776Y66005D1*
X46732Y66223D1*
X46597Y66401D1*
X46399Y66502D1*
X45914Y66625D1*
X45692Y66630D1*
X45489Y66538D1*
X45346Y66367D1*
X45292Y66152D1*
X45336Y65934D1*
X45470Y65756D1*
X45669Y65655D1*
X46153Y65532D1*
G37*
G36*
X42988Y65877D2*
X43200Y65945D1*
X43362Y66097D1*
X43442Y66305D1*
X43423Y66527D1*
X43311Y66719D1*
X43126Y66842D1*
X42905Y66874D1*
X42407Y66833D1*
X42195Y66765D1*
X42033Y66613D1*
X41953Y66405D1*
X41972Y66183D1*
X42085Y65991D1*
X42269Y65867D1*
X42490Y65836D1*
X42988Y65877D1*
G37*
G36*
X42835Y67721D2*
X43047Y67788D1*
X43209Y67941D1*
X43289Y68149D1*
X43271Y68370D1*
X43158Y68562D1*
X42973Y68686D1*
X42753Y68718D1*
X42254Y68676D1*
X42042Y68609D1*
X41880Y68456D1*
X41801Y68249D1*
X41819Y68027D1*
X41932Y67835D1*
X42117Y67711D1*
X42337Y67680D1*
X42835Y67721D1*
G37*
G36*
X42683Y69565D2*
X42895Y69632D1*
X43057Y69785D1*
X43136Y69992D1*
X43118Y70214D1*
X43005Y70406D1*
X42820Y70530D1*
X42600Y70561D1*
X42102Y70520D1*
X41890Y70453D1*
X41728Y70300D1*
X41648Y70092D1*
X41666Y69871D1*
X41779Y69679D1*
X41964Y69555D1*
X42184Y69523D1*
X42683Y69565D1*
G37*
G36*
X37700Y69152D2*
X37912Y69219D1*
X38074Y69372D1*
X38153Y69579D1*
X38135Y69801D1*
X38022Y69993D1*
X37837Y70117D1*
X37617Y70148D1*
X37119Y70107D1*
X36907Y70040D1*
X36745Y69887D1*
X36665Y69679D1*
X36683Y69458D1*
X36796Y69266D1*
X36981Y69142D1*
X37201Y69111D1*
X37700Y69152D1*
G37*
G36*
X37852Y67308D2*
X38064Y67375D1*
X38226Y67528D1*
X38306Y67736D1*
X38288Y67958D1*
X38175Y68149D1*
X37990Y68273D1*
X37770Y68305D1*
X37271Y68263D1*
X37059Y68196D1*
X36897Y68044D1*
X36818Y67836D1*
X36836Y67614D1*
X36949Y67422D1*
X37134Y67298D1*
X37354Y67267D1*
X37852Y67308D1*
G37*
G36*
X38005Y65464D2*
X38217Y65532D1*
X38379Y65684D1*
X38459Y65892D1*
X38440Y66114D1*
X38328Y66306D1*
X38143Y66430D1*
X37923Y66461D1*
X37424Y66420D1*
X37212Y66352D1*
X37050Y66200D1*
X36971Y65992D1*
X36989Y65770D1*
X37102Y65578D1*
X37287Y65455D1*
X37507Y65423D1*
X38005Y65464D1*
G37*
G36*
X34900Y64763D2*
X35079Y64895D1*
X35182Y65092D1*
X35190Y65315D1*
X35101Y65518D1*
X34932Y65663D1*
X34717Y65720D1*
X34498Y65679D1*
X34040Y65478D1*
X33861Y65345D1*
X33758Y65148D1*
X33750Y64926D1*
X33839Y64722D1*
X34008Y64577D1*
X34223Y64520D1*
X34442Y64562D1*
X34900Y64763D1*
G37*
G36*
X34157Y66457D2*
X34335Y66589D1*
X34439Y66786D1*
X34447Y67009D1*
X34357Y67213D1*
X34189Y67357D1*
X33973Y67415D1*
X33755Y67373D1*
X33297Y67172D1*
X33118Y67039D1*
X33015Y66842D1*
X33007Y66620D1*
X33096Y66416D1*
X33265Y66272D1*
X33480Y66214D1*
X33699Y66256D1*
X34157Y66457D1*
G37*
G36*
X33413Y68151D2*
X33592Y68284D1*
X33696Y68481D1*
X33704Y68703D1*
X33614Y68907D1*
X33445Y69052D1*
X33230Y69109D1*
X33012Y69067D1*
X32554Y68866D1*
X32375Y68734D1*
X32272Y68537D1*
X32264Y68314D1*
X32353Y68111D1*
X32522Y67966D1*
X32737Y67909D1*
X32956Y67950D1*
X33413Y68151D1*
G37*
G36*
X28835Y66143D2*
X29013Y66275D1*
X29117Y66472D1*
X29125Y66695D1*
X29035Y66898D1*
X28867Y67043D1*
X28651Y67100D1*
X28433Y67058D1*
X27975Y66858D1*
X27796Y66725D1*
X27693Y66528D1*
X27685Y66306D1*
X27774Y66102D1*
X27943Y65957D1*
X28158Y65900D1*
X28377Y65942D1*
X28835Y66143D1*
G37*
G36*
X29578Y64449D2*
X29757Y64581D1*
X29860Y64778D1*
X29868Y65000D1*
X29779Y65204D1*
X29610Y65349D1*
X29395Y65406D1*
X29176Y65364D1*
X28718Y65163D1*
X28539Y65031D1*
X28436Y64834D1*
X28428Y64612D1*
X28517Y64408D1*
X28686Y64263D1*
X28901Y64206D1*
X29120Y64248D1*
X29578Y64449D1*
G37*
G36*
X30321Y62754D2*
X30500Y62887D1*
X30603Y63084D1*
X30611Y63306D1*
X30522Y63510D1*
X30353Y63655D1*
X30138Y63712D1*
X29919Y63670D1*
X29461Y63469D1*
X29283Y63337D1*
X29179Y63140D1*
X29171Y62917D1*
X29260Y62714D1*
X29429Y62569D1*
X29644Y62512D1*
X29863Y62554D1*
X30321Y62754D1*
G37*
G36*
X27611Y61083D2*
X27737Y61266D1*
X27771Y61486D1*
X27707Y61699D1*
X27556Y61863D1*
X27349Y61945D1*
X27127Y61929D1*
X26934Y61819D1*
X26566Y61480D1*
X26440Y61297D1*
X26406Y61077D1*
X26471Y60864D1*
X26621Y60700D1*
X26828Y60618D1*
X27050Y60634D1*
X27243Y60744D1*
X27611Y61083D1*
G37*
G36*
X26358Y62444D2*
X26484Y62627D1*
X26518Y62847D1*
X26454Y63060D1*
X26303Y63224D1*
X26096Y63306D1*
X25874Y63290D1*
X25681Y63180D1*
X25313Y62841D1*
X25187Y62658D1*
X25153Y62438D1*
X25218Y62225D1*
X25368Y62061D1*
X25575Y61979D1*
X25797Y61995D1*
X25990Y62105D1*
X26358Y62444D1*
G37*
G36*
X25105Y63805D2*
X25231Y63988D1*
X25265Y64208D1*
X25201Y64421D1*
X25050Y64585D1*
X24843Y64667D1*
X24621Y64651D1*
X24428Y64541D1*
X24060Y64202D1*
X23934Y64019D1*
X23900Y63799D1*
X23965Y63586D1*
X24116Y63422D1*
X24322Y63340D1*
X24544Y63356D1*
X24737Y63466D1*
X25105Y63805D1*
G37*
G36*
X21427Y60419D2*
X21553Y60602D1*
X21587Y60822D1*
X21522Y61035D1*
X21371Y61198D1*
X21165Y61281D1*
X20943Y61265D1*
X20749Y61154D1*
X20382Y60816D1*
X20255Y60632D1*
X20221Y60412D1*
X20286Y60199D1*
X20437Y60036D1*
X20644Y59954D1*
X20866Y59969D1*
X21059Y60080D1*
X21427Y60419D1*
G37*
G36*
X22680Y59057D2*
X22806Y59241D1*
X22840Y59461D1*
X22775Y59674D1*
X22624Y59837D1*
X22417Y59919D1*
X22196Y59904D1*
X22002Y59793D1*
X21635Y59455D1*
X21508Y59271D1*
X21474Y59051D1*
X21539Y58838D1*
X21690Y58675D1*
X21897Y58593D1*
X22119Y58608D1*
X22312Y58719D1*
X22680Y59057D1*
G37*
G36*
X23933Y57696D2*
X24059Y57880D1*
X24093Y58100D1*
X24028Y58313D1*
X23877Y58476D1*
X23670Y58558D1*
X23449Y58543D1*
X23255Y58432D1*
X22888Y58093D1*
X22761Y57910D1*
X22727Y57690D1*
X22792Y57477D1*
X22943Y57314D1*
X23150Y57231D1*
X23372Y57247D1*
X23565Y57358D1*
X23933Y57696D1*
G37*
G36*
X20796Y55272D2*
X20736Y55057D1*
X20775Y54838D1*
X20905Y54658D1*
X21101Y54552D1*
X21323Y54541D1*
X21528Y54628D1*
X21675Y54796D1*
X21913Y55235D1*
X21973Y55450D1*
X21933Y55669D1*
X21803Y55849D1*
X21607Y55955D1*
X21385Y55965D1*
X21180Y55878D1*
X21034Y55711D1*
X20796Y55272D1*
G37*
G36*
X19169Y56152D2*
X19109Y55938D1*
X19148Y55719D1*
X19278Y55538D1*
X19474Y55432D1*
X19696Y55422D1*
X19901Y55509D1*
X20048Y55676D1*
X20286Y56116D1*
X20346Y56330D1*
X20306Y56549D1*
X20176Y56730D1*
X19980Y56835D1*
X19758Y56846D1*
X19553Y56759D1*
X19406Y56592D1*
X19169Y56152D1*
G37*
G36*
X17542Y57033D2*
X17482Y56818D1*
X17521Y56599D1*
X17651Y56419D1*
X17847Y56313D1*
X18069Y56302D1*
X18274Y56389D1*
X18421Y56557D1*
X18659Y56996D1*
X18719Y57211D1*
X18679Y57430D1*
X18549Y57610D1*
X18353Y57716D1*
X18131Y57726D1*
X17926Y57639D1*
X17779Y57472D1*
X17542Y57033D1*
G37*
G36*
X15162Y52635D2*
X15102Y52421D1*
X15141Y52202D1*
X15272Y52021D1*
X15467Y51915D1*
X15690Y51905D1*
X15894Y51992D1*
X16041Y52159D1*
X16279Y52599D1*
X16339Y52813D1*
X16300Y53032D1*
X16169Y53213D1*
X15974Y53319D1*
X15751Y53329D1*
X15547Y53242D1*
X15400Y53075D1*
X15162Y52635D1*
G37*
G36*
X16789Y51755D2*
X16729Y51540D1*
X16768Y51321D1*
X16899Y51141D1*
X17094Y51035D1*
X17317Y51024D1*
X17521Y51111D1*
X17668Y51279D1*
X17906Y51718D1*
X17966Y51933D1*
X17927Y52152D1*
X17796Y52332D1*
X17601Y52438D1*
X17378Y52449D1*
X17174Y52362D1*
X17027Y52194D1*
X16789Y51755D1*
G37*
G36*
X18416Y50874D2*
X18356Y50660D1*
X18395Y50441D1*
X18526Y50260D1*
X18721Y50154D1*
X18944Y50144D1*
X19149Y50231D1*
X19295Y50398D1*
X19533Y50838D1*
X19593Y51052D1*
X19554Y51271D1*
X19423Y51452D1*
X19228Y51558D1*
X19005Y51568D1*
X18801Y51481D1*
X18654Y51314D1*
X18416Y50874D1*
G37*
G36*
X17353Y47525D2*
X17366Y47303D1*
X17475Y47109D1*
X17657Y46981D1*
X17876Y46944D1*
X18090Y47006D1*
X18255Y47155D1*
X18340Y47361D1*
X18422Y47854D1*
X18409Y48076D1*
X18301Y48270D1*
X18119Y48399D1*
X17899Y48435D1*
X17686Y48373D1*
X17520Y48224D1*
X17436Y48019D1*
X17353Y47525D1*
G37*
G36*
X15529Y47830D2*
X15542Y47608D1*
X15650Y47413D1*
X15832Y47285D1*
X16051Y47248D1*
X16265Y47311D1*
X16430Y47459D1*
X16515Y47665D1*
X16597Y48158D1*
X16584Y48381D1*
X16476Y48575D1*
X16294Y48703D1*
X16075Y48740D1*
X15861Y48678D1*
X15695Y48529D1*
X15611Y48323D1*
X15529Y47830D1*
G37*
G36*
X13704Y48134D2*
X13717Y47912D1*
X13825Y47718D1*
X14007Y47590D1*
X14226Y47553D1*
X14440Y47615D1*
X14606Y47764D1*
X14690Y47970D1*
X14772Y48463D1*
X14759Y48685D1*
X14651Y48879D1*
X14469Y49008D1*
X14250Y49044D1*
X14036Y48982D1*
X13871Y48833D1*
X13786Y48628D1*
X13704Y48134D1*
G37*
G36*
X12881Y43203D2*
X12894Y42980D1*
X13002Y42786D1*
X13184Y42658D1*
X13403Y42621D1*
X13617Y42683D1*
X13783Y42832D1*
X13867Y43038D1*
X13949Y43531D1*
X13936Y43753D1*
X13828Y43948D1*
X13646Y44076D1*
X13427Y44113D1*
X13213Y44050D1*
X13048Y43902D1*
X12963Y43696D1*
X12881Y43203D1*
G37*
G36*
X14706Y42898D2*
X14719Y42676D1*
X14827Y42481D1*
X15009Y42353D1*
X15228Y42317D1*
X15442Y42379D1*
X15607Y42528D1*
X15692Y42733D1*
X15774Y43227D1*
X15761Y43449D1*
X15653Y43643D1*
X15471Y43771D1*
X15252Y43808D1*
X15038Y43746D1*
X14872Y43597D1*
X14788Y43391D1*
X14706Y42898D1*
G37*
G36*
X16530Y42594D2*
X16543Y42371D1*
X16652Y42177D1*
X16834Y42049D1*
X17053Y42012D1*
X17267Y42074D1*
X17432Y42223D1*
X17517Y42429D1*
X17599Y42922D1*
X17586Y43144D1*
X17478Y43339D1*
X17296Y43467D1*
X17076Y43504D1*
X16863Y43441D1*
X16697Y43293D1*
X16613Y43087D1*
X16530Y42594D1*
G37*
G36*
X16613Y39082D2*
X16697Y38876D1*
X16863Y38727D1*
X17076Y38665D1*
X17296Y38702D1*
X17478Y38830D1*
X17586Y39024D1*
X17599Y39246D1*
X17517Y39740D1*
X17432Y39945D1*
X17267Y40094D1*
X17053Y40156D1*
X16834Y40120D1*
X16652Y39991D1*
X16543Y39797D1*
X16530Y39575D1*
X16613Y39082D1*
G37*
G36*
X14788Y38777D2*
X14872Y38571D1*
X15038Y38423D1*
X15252Y38360D1*
X15471Y38397D1*
X15653Y38525D1*
X15761Y38720D1*
X15774Y38942D1*
X15692Y39435D1*
X15607Y39641D1*
X15442Y39790D1*
X15228Y39852D1*
X15009Y39815D1*
X14827Y39687D1*
X14719Y39493D1*
X14706Y39270D1*
X14788Y38777D1*
G37*
G36*
X12963Y38473D2*
X13048Y38267D1*
X13213Y38118D1*
X13427Y38056D1*
X13646Y38093D1*
X13828Y38221D1*
X13936Y38415D1*
X13949Y38637D1*
X13867Y39131D1*
X13783Y39336D1*
X13617Y39485D1*
X13403Y39547D1*
X13184Y39511D1*
X13002Y39382D1*
X12894Y39188D1*
X12881Y38966D1*
X12963Y38473D1*
G37*
G36*
X13786Y33541D2*
X13871Y33335D1*
X14036Y33186D1*
X14250Y33124D1*
X14469Y33161D1*
X14651Y33289D1*
X14759Y33483D1*
X14772Y33706D1*
X14690Y34199D1*
X14606Y34405D1*
X14440Y34553D1*
X14226Y34616D1*
X14007Y34579D1*
X13825Y34451D1*
X13717Y34256D1*
X13704Y34034D1*
X13786Y33541D1*
G37*
G36*
X15611Y33845D2*
X15695Y33640D1*
X15861Y33491D1*
X16075Y33429D1*
X16294Y33465D1*
X16476Y33593D1*
X16584Y33788D1*
X16597Y34010D1*
X16515Y34503D1*
X16430Y34709D1*
X16265Y34858D1*
X16051Y34920D1*
X15832Y34883D1*
X15650Y34755D1*
X15542Y34561D1*
X15529Y34339D1*
X15611Y33845D1*
G37*
G36*
X17436Y34150D2*
X17520Y33944D1*
X17686Y33795D1*
X17899Y33733D1*
X18119Y33770D1*
X18301Y33898D1*
X18409Y34092D1*
X18422Y34315D1*
X18340Y34808D1*
X18255Y35014D1*
X18090Y35162D1*
X17876Y35225D1*
X17657Y35188D1*
X17475Y35060D1*
X17366Y34865D1*
X17353Y34643D1*
X17436Y34150D1*
G37*
G36*
X18654Y30855D2*
X18801Y30687D1*
X19005Y30600D1*
X19228Y30611D1*
X19423Y30717D1*
X19554Y30897D1*
X19593Y31116D1*
X19533Y31330D1*
X19295Y31770D1*
X19148Y31937D1*
X18944Y32024D1*
X18721Y32014D1*
X18526Y31908D1*
X18395Y31728D1*
X18356Y31509D1*
X18416Y31294D1*
X18654Y30855D1*
G37*
G36*
X17027Y29974D2*
X17174Y29807D1*
X17378Y29720D1*
X17601Y29730D1*
X17796Y29836D1*
X17927Y30017D1*
X17966Y30236D1*
X17906Y30450D1*
X17668Y30890D1*
X17521Y31057D1*
X17317Y31144D1*
X17094Y31133D1*
X16899Y31028D1*
X16768Y30847D1*
X16729Y30628D1*
X16789Y30414D1*
X17027Y29974D1*
G37*
G36*
X15400Y29094D2*
X15547Y28926D1*
X15751Y28839D1*
X15974Y28850D1*
X16169Y28956D1*
X16300Y29136D1*
X16339Y29355D1*
X16279Y29569D1*
X16041Y30009D1*
X15894Y30176D1*
X15690Y30263D1*
X15467Y30253D1*
X15272Y30147D1*
X15141Y29967D1*
X15102Y29748D1*
X15162Y29533D1*
X15400Y29094D1*
G37*
G36*
X17779Y24696D2*
X17926Y24529D1*
X18131Y24442D1*
X18353Y24452D1*
X18549Y24558D1*
X18679Y24739D1*
X18719Y24958D1*
X18659Y25172D1*
X18421Y25612D1*
X18274Y25779D1*
X18069Y25866D1*
X17847Y25856D1*
X17651Y25750D1*
X17521Y25569D1*
X17482Y25350D1*
X17541Y25136D1*
X17779Y24696D1*
G37*
G36*
X19406Y25577D2*
X19553Y25409D1*
X19758Y25322D1*
X19980Y25333D1*
X20176Y25439D1*
X20306Y25619D1*
X20346Y25838D1*
X20286Y26053D1*
X20048Y26492D1*
X19901Y26660D1*
X19696Y26747D1*
X19474Y26736D1*
X19278Y26630D1*
X19148Y26450D1*
X19109Y26231D1*
X19169Y26016D1*
X19406Y25577D1*
G37*
G36*
X21033Y26457D2*
X21180Y26290D1*
X21385Y26203D1*
X21607Y26213D1*
X21803Y26319D1*
X21933Y26500D1*
X21973Y26719D1*
X21913Y26933D1*
X21675Y27373D1*
X21528Y27540D1*
X21323Y27627D1*
X21101Y27617D1*
X20905Y27511D1*
X20775Y27330D1*
X20736Y27111D1*
X20796Y26897D1*
X21033Y26457D1*
G37*
G36*
X23255Y23736D2*
X23449Y23626D1*
X23670Y23610D1*
X23877Y23692D1*
X24028Y23856D1*
X24093Y24069D1*
X24059Y24289D1*
X23933Y24472D1*
X23565Y24811D1*
X23372Y24921D1*
X23150Y24937D1*
X22943Y24855D1*
X22792Y24691D1*
X22727Y24478D1*
X22761Y24258D1*
X22888Y24075D1*
X23255Y23736D1*
G37*
G36*
X22002Y22375D2*
X22196Y22265D1*
X22417Y22249D1*
X22624Y22331D1*
X22775Y22495D1*
X22840Y22708D1*
X22806Y22928D1*
X22680Y23111D1*
X22312Y23450D1*
X22119Y23560D1*
X21897Y23576D1*
X21690Y23494D1*
X21539Y23330D1*
X21474Y23117D1*
X21508Y22897D1*
X21635Y22714D1*
X22002Y22375D1*
G37*
G36*
X20749Y21014D2*
X20943Y20904D1*
X21165Y20888D1*
X21371Y20970D1*
X21522Y21134D1*
X21587Y21347D1*
X21553Y21567D1*
X21427Y21750D1*
X21059Y22089D1*
X20866Y22199D1*
X20644Y22215D1*
X20437Y22133D1*
X20286Y21969D1*
X20221Y21756D1*
X20255Y21536D1*
X20382Y21353D1*
X20749Y21014D1*
G37*
G36*
X24428Y17628D2*
X24621Y17517D1*
X24843Y17501D1*
X25050Y17584D1*
X25201Y17747D1*
X25265Y17960D1*
X25231Y18180D1*
X25105Y18363D1*
X24737Y18702D1*
X24544Y18813D1*
X24322Y18828D1*
X24115Y18746D1*
X23965Y18583D1*
X23900Y18370D1*
X23934Y18150D1*
X24060Y17966D1*
X24428Y17628D1*
G37*
G36*
X25681Y18989D2*
X25874Y18878D1*
X26096Y18863D1*
X26303Y18945D1*
X26454Y19108D1*
X26518Y19321D1*
X26484Y19541D1*
X26358Y19725D1*
X25990Y20063D1*
X25797Y20174D1*
X25575Y20189D1*
X25368Y20107D1*
X25218Y19944D1*
X25153Y19731D1*
X25187Y19511D1*
X25313Y19327D1*
X25681Y18989D1*
G37*
G36*
X26934Y20350D2*
X27127Y20239D1*
X27349Y20224D1*
X27556Y20306D1*
X27707Y20469D1*
X27771Y20682D1*
X27737Y20902D1*
X27611Y21086D1*
X27243Y21424D1*
X27050Y21535D1*
X26828Y21551D1*
X26621Y21468D1*
X26471Y21305D1*
X26406Y21092D1*
X26440Y20872D1*
X26566Y20689D1*
X26934Y20350D1*
G37*
G36*
X29920Y18499D2*
X30138Y18457D1*
X30353Y18514D1*
X30522Y18659D1*
X30612Y18863D1*
X30604Y19085D1*
X30500Y19282D1*
X30322Y19414D1*
X29864Y19615D1*
X29645Y19657D1*
X29430Y19600D1*
X29261Y19455D1*
X29172Y19252D1*
X29180Y19029D1*
X29283Y18832D1*
X29462Y18700D1*
X29920Y18499D1*
G37*
G36*
X29176Y16805D2*
X29395Y16763D1*
X29610Y16820D1*
X29779Y16965D1*
X29868Y17169D1*
X29860Y17391D1*
X29757Y17588D1*
X29578Y17720D1*
X29120Y17921D1*
X28902Y17963D1*
X28687Y17906D1*
X28518Y17761D1*
X28428Y17558D1*
X28436Y17335D1*
X28540Y17138D1*
X28718Y17006D1*
X29176Y16805D1*
G37*
G36*
X28433Y15111D2*
X28651Y15069D1*
X28866Y15126D1*
X29035Y15271D1*
X29125Y15475D1*
X29117Y15697D1*
X29013Y15894D1*
X28835Y16026D1*
X28377Y16227D1*
X28158Y16269D1*
X27943Y16212D1*
X27774Y16067D1*
X27685Y15864D1*
X27692Y15641D1*
X27796Y15444D1*
X27975Y15312D1*
X28433Y15111D1*
G37*
G36*
X33011Y13101D2*
X33229Y13059D1*
X33445Y13116D1*
X33613Y13261D1*
X33703Y13465D1*
X33695Y13687D1*
X33592Y13884D1*
X33413Y14017D1*
X32955Y14218D1*
X32736Y14260D1*
X32521Y14202D1*
X32352Y14058D1*
X32263Y13854D1*
X32271Y13632D1*
X32374Y13435D1*
X32553Y13302D1*
X33011Y13101D1*
G37*
G36*
X33754Y14795D2*
X33973Y14753D1*
X34188Y14810D1*
X34357Y14955D1*
X34447Y15159D1*
X34439Y15381D1*
X34335Y15578D1*
X34156Y15711D1*
X33699Y15912D1*
X33480Y15954D1*
X33265Y15896D1*
X33096Y15752D1*
X33007Y15548D1*
X33014Y15326D1*
X33118Y15129D1*
X33297Y14996D1*
X33754Y14795D1*
G37*
G36*
X34498Y16489D2*
X34717Y16447D1*
X34932Y16504D1*
X35101Y16649D1*
X35190Y16853D1*
X35182Y17075D1*
X35079Y17272D1*
X34900Y17405D1*
X34442Y17606D1*
X34224Y17648D1*
X34009Y17590D1*
X33840Y17446D1*
X33750Y17242D1*
X33758Y17020D1*
X33862Y16823D1*
X34040Y16690D1*
X34498Y16489D1*
G37*
G36*
X37923Y15708D2*
X38143Y15739D1*
X38328Y15863D1*
X38441Y16055D1*
X38459Y16276D1*
X38379Y16484D1*
X38217Y16637D1*
X38005Y16704D1*
X37507Y16745D1*
X37287Y16714D1*
X37102Y16590D1*
X36989Y16398D1*
X36971Y16177D1*
X37050Y15969D1*
X37212Y15816D1*
X37424Y15749D1*
X37923Y15708D1*
G37*
G36*
X37770Y13864D2*
X37990Y13895D1*
X38175Y14019D1*
X38288Y14211D1*
X38306Y14433D1*
X38226Y14641D1*
X38065Y14793D1*
X37852Y14860D1*
X37354Y14902D1*
X37134Y14870D1*
X36949Y14746D1*
X36836Y14555D1*
X36818Y14333D1*
X36897Y14125D1*
X37059Y13972D1*
X37271Y13905D1*
X37770Y13864D1*
G37*
G36*
X37617Y12020D2*
X37837Y12052D1*
X38022Y12175D1*
X38135Y12367D1*
X38153Y12589D1*
X38074Y12797D1*
X37912Y12949D1*
X37700Y13017D1*
X37201Y13058D1*
X36981Y13027D1*
X36796Y12903D1*
X36683Y12711D1*
X36665Y12489D1*
X36745Y12281D1*
X36906Y12129D1*
X37119Y12061D1*
X37617Y12020D1*
G37*
G36*
X42600Y11607D2*
X42820Y11638D1*
X43005Y11762D1*
X43118Y11954D1*
X43136Y12176D1*
X43056Y12384D1*
X42895Y12536D1*
X42682Y12604D1*
X42184Y12645D1*
X41964Y12613D1*
X41779Y12490D1*
X41666Y12298D1*
X41648Y12076D1*
X41727Y11868D1*
X41889Y11716D1*
X42101Y11648D1*
X42600Y11607D1*
G37*
G36*
X42753Y13451D2*
X42973Y13482D1*
X43158Y13606D1*
X43271Y13798D1*
X43289Y14020D1*
X43209Y14227D1*
X43047Y14380D1*
X42835Y14447D1*
X42337Y14489D1*
X42117Y14457D1*
X41932Y14333D1*
X41819Y14141D1*
X41801Y13920D1*
X41880Y13712D1*
X42042Y13559D1*
X42254Y13492D1*
X42753Y13451D1*
G37*
G36*
X42906Y15294D2*
X43126Y15326D1*
X43311Y15450D1*
X43423Y15641D1*
X43442Y15863D1*
X43362Y16071D1*
X43200Y16224D1*
X42988Y16291D1*
X42490Y16332D1*
X42270Y16301D1*
X42085Y16177D1*
X41972Y15985D1*
X41954Y15763D1*
X42033Y15556D1*
X42195Y15403D1*
X42407Y15336D1*
X42906Y15294D1*
G37*
G36*
X46399Y15667D2*
X46597Y15768D1*
X46732Y15945D1*
X46776Y16163D1*
X46722Y16379D1*
X46579Y16550D1*
X46376Y16642D1*
X46154Y16636D1*
X45669Y16514D1*
X45471Y16413D1*
X45336Y16235D1*
X45292Y16017D1*
X45346Y15802D1*
X45489Y15631D1*
X45692Y15539D1*
X45914Y15544D1*
X46399Y15667D1*
G37*
G36*
X46853Y13874D2*
X47051Y13975D1*
X47186Y14152D1*
X47230Y14370D1*
X47175Y14586D1*
X47033Y14756D1*
X46830Y14848D1*
X46607Y14843D1*
X46123Y14720D1*
X45925Y14619D1*
X45790Y14442D1*
X45746Y14224D1*
X45800Y14008D1*
X45943Y13838D1*
X46146Y13746D1*
X46368Y13751D1*
X46853Y13874D1*
G37*
G36*
X47307Y12080D2*
X47505Y12181D1*
X47639Y12358D1*
X47684Y12577D1*
X47629Y12792D1*
X47486Y12963D1*
X47284Y13055D1*
X47061Y13050D1*
X46577Y12927D1*
X46378Y12826D1*
X46244Y12648D1*
X46199Y12430D1*
X46254Y12215D1*
X46397Y12044D1*
X46599Y11952D1*
X46822Y11957D1*
X47307Y12080D1*
G37*
G36*
X52154Y13307D2*
X52352Y13408D1*
X52487Y13585D1*
X52531Y13803D1*
X52476Y14019D1*
X52334Y14189D1*
X52131Y14281D1*
X51909Y14276D1*
X51424Y14153D1*
X51226Y14052D1*
X51091Y13875D1*
X51047Y13657D1*
X51101Y13441D1*
X51244Y13271D1*
X51447Y13179D1*
X51669Y13184D1*
X52154Y13307D1*
G37*
G36*
X51700Y15100D2*
X51898Y15201D1*
X52033Y15378D1*
X52077Y15597D1*
X52023Y15812D1*
X51880Y15983D1*
X51677Y16075D1*
X51455Y16070D1*
X50970Y15947D1*
X50772Y15846D1*
X50637Y15668D1*
X50593Y15450D1*
X50647Y15235D1*
X50790Y15064D1*
X50993Y14972D1*
X51215Y14977D1*
X51700Y15100D1*
G37*
G36*
X51246Y16894D2*
X51444Y16995D1*
X51579Y17172D1*
X51623Y17390D1*
X51569Y17606D1*
X51426Y17776D1*
X51223Y17868D1*
X51001Y17863D1*
X50516Y17740D1*
X50318Y17639D1*
X50183Y17462D1*
X50139Y17244D1*
X50194Y17028D1*
X50336Y16858D1*
X50539Y16766D1*
X50761Y16771D1*
X51246Y16894D1*
G37*
G36*
X54429Y18379D2*
X54584Y18539D1*
X54653Y18750D1*
X54624Y18971D1*
X54503Y19157D1*
X54312Y19272D1*
X54091Y19293D1*
X53882Y19216D1*
X53464Y18942D1*
X53309Y18782D1*
X53239Y18570D1*
X53268Y18350D1*
X53390Y18163D1*
X53581Y18049D1*
X53802Y18028D1*
X54011Y18105D1*
X54429Y18379D1*
G37*
G36*
X55442Y16831D2*
X55597Y16991D1*
X55666Y17202D1*
X55637Y17423D1*
X55516Y17609D1*
X55325Y17724D1*
X55104Y17745D1*
X54895Y17668D1*
X54477Y17394D1*
X54322Y17234D1*
X54252Y17022D1*
X54281Y16802D1*
X54403Y16615D1*
X54594Y16501D1*
X54815Y16480D1*
X55024Y16557D1*
X55442Y16831D1*
G37*
G36*
X56455Y15283D2*
X56610Y15443D1*
X56679Y15654D1*
X56650Y15875D1*
X56529Y16061D1*
X56338Y16176D1*
X56117Y16197D1*
X55908Y16120D1*
X55490Y15846D1*
X55335Y15686D1*
X55265Y15474D1*
X55294Y15254D1*
X55416Y15067D1*
X55607Y14952D1*
X55828Y14932D1*
X56037Y15009D1*
X56455Y15283D1*
G37*
G36*
X60639Y18021D2*
X60794Y18181D1*
X60863Y18392D1*
X60834Y18613D1*
X60712Y18799D1*
X60522Y18914D1*
X60300Y18935D1*
X60092Y18857D1*
X59673Y18584D1*
X59519Y18423D1*
X59449Y18212D1*
X59478Y17991D1*
X59600Y17805D1*
X59791Y17690D1*
X60012Y17669D1*
X60221Y17747D1*
X60639Y18021D1*
G37*
G36*
X59626Y19569D2*
X59781Y19729D1*
X59850Y19940D1*
X59821Y20161D1*
X59699Y20347D1*
X59509Y20462D1*
X59287Y20483D1*
X59079Y20405D1*
X58660Y20132D1*
X58506Y19971D1*
X58436Y19760D1*
X58465Y19539D1*
X58587Y19353D1*
X58778Y19238D1*
X58999Y19217D1*
X59208Y19295D1*
X59626Y19569D1*
G37*
G36*
X58613Y21117D2*
X58768Y21277D1*
X58837Y21488D1*
X58808Y21709D1*
X58686Y21895D1*
X58496Y22010D1*
X58274Y22031D1*
X58066Y21953D1*
X57647Y21680D1*
X57493Y21519D1*
X57423Y21308D1*
X57452Y21087D1*
X57574Y20901D1*
X57765Y20786D1*
X57986Y20766D1*
X58195Y20843D1*
X58613Y21117D1*
G37*
G36*
X60047Y23774D2*
X59953Y23572D1*
X59955Y23350D1*
X60054Y23150D1*
X60230Y23014D1*
X60447Y22967D1*
X60663Y23019D1*
X60836Y23160D1*
X61143Y23554D1*
X61237Y23756D1*
X61235Y23978D1*
X61136Y24178D1*
X60960Y24314D1*
X60743Y24361D1*
X60526Y24309D1*
X60354Y24168D1*
X60047Y23774D1*
G37*
G36*
X61507Y22637D2*
X61412Y22436D1*
X61415Y22213D1*
X61514Y22014D1*
X61689Y21877D1*
X61907Y21830D1*
X62123Y21882D1*
X62296Y22023D1*
X62603Y22418D1*
X62697Y22619D1*
X62694Y22842D1*
X62595Y23041D1*
X62420Y23178D1*
X62202Y23225D1*
X61986Y23173D1*
X61814Y23032D1*
X61507Y22637D1*
G37*
G36*
X62966Y21501D2*
X62872Y21299D1*
X62875Y21077D1*
X62974Y20878D1*
X63149Y20741D1*
X63367Y20694D1*
X63583Y20746D1*
X63755Y20887D1*
X64063Y21281D1*
X64157Y21483D1*
X64154Y21705D1*
X64055Y21905D1*
X63880Y22041D1*
X63662Y22088D1*
X63446Y22036D1*
X63274Y21895D1*
X62966Y21501D1*
G37*
G36*
X66038Y25446D2*
X65944Y25245D1*
X65946Y25022D1*
X66045Y24823D1*
X66221Y24686D1*
X66438Y24639D1*
X66655Y24691D1*
X66827Y24832D1*
X67134Y25227D1*
X67228Y25428D1*
X67226Y25651D1*
X67127Y25850D1*
X66951Y25987D1*
X66734Y26034D1*
X66517Y25982D1*
X66345Y25841D1*
X66038Y25446D1*
G37*
G36*
X64578Y26583D2*
X64484Y26381D1*
X64486Y26159D1*
X64585Y25959D1*
X64761Y25823D1*
X64978Y25776D1*
X65195Y25828D1*
X65367Y25969D1*
X65674Y26363D1*
X65768Y26565D1*
X65766Y26787D1*
X65667Y26986D1*
X65491Y27123D1*
X65274Y27170D1*
X65057Y27118D1*
X64885Y26977D1*
X64578Y26583D1*
G37*
G36*
X63118Y27719D2*
X63024Y27518D1*
X63027Y27295D1*
X63125Y27096D1*
X63301Y26959D1*
X63519Y26912D1*
X63735Y26964D1*
X63907Y27105D1*
X64214Y27499D1*
X64309Y27701D1*
X64306Y27924D1*
X64207Y28123D1*
X64032Y28260D1*
X63814Y28307D1*
X63598Y28255D1*
X63425Y28114D1*
X63118Y27719D1*
G37*
G36*
X64706Y30477D2*
X64683Y30255D1*
X64758Y30046D1*
X64916Y29890D1*
X65127Y29818D1*
X65348Y29844D1*
X65535Y29964D1*
X65652Y30153D1*
X65814Y30626D1*
X65838Y30847D1*
X65763Y31057D1*
X65604Y31213D1*
X65394Y31285D1*
X65173Y31259D1*
X64985Y31139D1*
X64868Y30950D1*
X64706Y30477D1*
G37*
G36*
X66457Y29877D2*
X66433Y29656D1*
X66508Y29447D1*
X66666Y29290D1*
X66877Y29218D1*
X67098Y29245D1*
X67286Y29364D1*
X67403Y29554D1*
X67565Y30027D1*
X67588Y30248D1*
X67513Y30457D1*
X67355Y30614D1*
X67144Y30686D1*
X66923Y30659D1*
X66736Y30540D1*
X66619Y30350D1*
X66457Y29877D1*
G37*
G36*
X68207Y29278D2*
X68183Y29057D1*
X68258Y28847D1*
X68417Y28691D1*
X68627Y28619D1*
X68848Y28645D1*
X69036Y28765D1*
X69153Y28954D1*
X69315Y29427D1*
X69338Y29649D1*
X69263Y29858D1*
X69105Y30014D1*
X68894Y30086D1*
X68674Y30060D1*
X68486Y29940D1*
X68369Y29751D1*
X68207Y29278D1*
G37*
G36*
X69826Y34009D2*
X69803Y33787D1*
X69878Y33578D1*
X70036Y33422D1*
X70247Y33349D1*
X70468Y33376D1*
X70655Y33495D1*
X70773Y33685D1*
X70934Y34158D1*
X70958Y34379D1*
X70883Y34589D1*
X70725Y34745D1*
X70514Y34817D1*
X70293Y34791D1*
X70106Y34671D1*
X69988Y34482D1*
X69826Y34009D1*
G37*
G36*
X68076Y34608D2*
X68053Y34387D1*
X68128Y34177D1*
X68286Y34021D1*
X68497Y33949D1*
X68718Y33975D1*
X68905Y34095D1*
X69022Y34284D1*
X69184Y34757D1*
X69208Y34978D1*
X69133Y35188D1*
X68974Y35344D1*
X68764Y35416D1*
X68543Y35390D1*
X68355Y35270D1*
X68238Y35081D1*
X68076Y34608D1*
G37*
G36*
X66326Y35207D2*
X66303Y34986D1*
X66377Y34776D1*
X66536Y34620D1*
X66746Y34548D1*
X66967Y34574D1*
X67155Y34694D1*
X67272Y34883D1*
X67434Y35356D1*
X67457Y35578D1*
X67382Y35787D1*
X67224Y35943D1*
X67014Y36015D1*
X66793Y35989D1*
X66605Y35869D1*
X66488Y35680D1*
X66326Y35207D1*
G37*
M02*
