M48
METRIC,0000.00
T01C0.33
T02C0.61
T03C0.9
T04C0.95
T05C2.54
%
T01
X+002740Y+010918
X+002740Y+010828
X+002650Y+010828
X+002650Y+010918
X+002560Y+010918
X+002560Y+010828
X+002560Y+010738
X+002650Y+010738
X+002740Y+010738
X+002957Y+010759
X+003011Y+010837
X+002995Y+010652
X+002982Y+011142
X+002980Y+011243
X+003253Y+011214
X+003223Y+011430
X+003253Y+011707
X+003328Y+011899
X+003542Y+011792
X+002974Y+011760
X+002793Y+011770
X+002444Y+011705
X+002446Y+011482
X+002605Y+011129
X+002035Y+011411
X+001893Y+011716
X+001987Y+012079
X+002193Y+012065
X+002807Y+012471
X+003011Y+012184
X+004304Y+010971
X+004588Y+010053
X+004929Y+010232
X+005344Y+010239
X+005333Y+010058
X+005226Y+009645
X+005023Y+009484
X+005008Y+009248
X+005372Y+009155
X+005676Y+009296
X+005612Y+009721
X+005958Y+009867
X+006169Y+009911
X+006169Y+010001
X+006259Y+010001
X+006259Y+009911
X+006259Y+009821
X+006169Y+009821
X+006349Y+009821
X+006349Y+009911
X+006349Y+010001
X+006319Y+010215
X+006250Y+010273
X+006427Y+010271
X+006006Y+010231
X+005836Y+010246
X+005873Y+010514
X+005646Y+010485
X+005396Y+010518
X+005209Y+010628
X+005282Y+010805
X+006750Y+011970
X+006755Y+012135
X+007738Y+010954
X+007876Y+010945
X+007735Y+009440
X+007583Y+009451
X+007514Y+008190
X+007429Y+008113
X+007987Y+008018
X+008253Y+007770
X+008413Y+007870
X+008585Y+007840
X+008437Y+007319
X+008206Y+007204
X+008115Y+007188
X+007893Y+007032
X+007566Y+006746
X+007382Y+007170
X+007429Y+007290
X+007027Y+007569
X+005866Y+007619
X+005829Y+007436
X+003748Y+008619
X+003558Y+008611
X+003267Y+008224
X+002705Y+008465
X+002360Y+008553
X+002183Y+008336
X+001759Y+008312
X+001573Y+008316
X+001570Y+008626
X+001759Y+008626
X+002469Y+009746
X+002229Y+010483
X+002657Y+007433
X+002847Y+007429
X+003455Y+004779
X+003343Y+004723
X+003443Y+004545
X+003443Y+004455
X+003533Y+004455
X+003533Y+004545
X+003623Y+004545
X+003623Y+004455
X+003623Y+004365
X+003533Y+004365
X+003443Y+004365
X+003219Y+004530
X+003110Y+004528
X+002888Y+004446
X+002935Y+004237
X+002951Y+004120
X+003114Y+004188
X+002646Y+004069
X+002688Y+003773
X+003524Y+003701
X+004395Y+003976
X+004630Y+004282
X+004637Y+004576
X+004964Y+004031
X+004852Y+003905
X+004874Y+003683
X+005445Y+003311
X+005568Y+002740
X+005063Y+002033
X+005029Y+001406
X+005878Y+001787
X+006453Y+002501
X+007574Y+002939
X+007669Y+002901
X+007786Y+002892
X+007993Y+002975
X+007890Y+003127
X+007800Y+003127
X+007710Y+003127
X+007710Y+003217
X+007710Y+003307
X+007800Y+003307
X+007800Y+003217
X+007890Y+003217
X+007890Y+003307
X+008110Y+003241
X+007849Y+003618
X+007921Y+003703
X+007927Y+003880
X+007916Y+004013
X+007841Y+004060
X+007711Y+004017
X+007522Y+003571
X+007509Y+003463
X+007509Y+003202
X+007656Y+002660
X+007950Y+002606
X+008087Y+005126
X+008087Y+006005
X+004227Y+002186
X+004051Y+002186
X+003690Y+002117
X+003498Y+002192
X+003551Y+002471
X+002877Y+002906
X+001665Y+002831
X+003172Y+001422
T02
X+004168Y+010693
X+004134Y+010621
X+004099Y+010546
X+004064Y+010469
X+004035Y+010392
X+004198Y+010769
X+004233Y+010842
X+004267Y+010911
X+007354Y+010174
X+007357Y+010096
X+007360Y+010014
X+007364Y+009927
X+007364Y+009832
X+007366Y+009742
X+007368Y+009644
X+007310Y+004878
X+007327Y+004799
X+007338Y+004721
X+007346Y+004641
X+007351Y+004556
X+007355Y+004473
X+007356Y+004386
X+007354Y+004300
X+007350Y+004211
X+007349Y+004122
X+007346Y+004034
X+007348Y+003957
X+007344Y+003874
X+007342Y+003784
X+007342Y+003695
X+007338Y+003604
X+007334Y+003516
T03
X+002109Y+011569
X+002109Y+011269
X+005519Y+009371
X+005819Y+009371
X+007971Y+005718
X+007971Y+005418
X+004841Y+004428
X+004841Y+004128
T04
X+003125Y+011457
X+003227Y+010949
X+003024Y+010949
X+005630Y+010387
X+006138Y+010488
X+006138Y+010285
X+002876Y+004334
X+002672Y+004334
X+002774Y+003826
X+007550Y+002734
X+008058Y+002836
X+008058Y+002633
T05
X+002662Y+013194
X+005888Y+011701
X+007800Y+010117
X+004228Y+007382
T00
M30
