999
dxflib 3.7.5.0
  0
SECTION
  2
HEADER
  9
$ACADVER
  1
AC1009
  0
ENDSEC
  0
SECTION
  2
TABLES
  0
TABLE
  2
VPORT
 70
1
  0
VPORT
  2
*Active
 70
0
 10
0.0
 20
0.0
 11
1.0
 21
1.0
 12
286.3055555555554861
 22
148.5
 13
0.0
 23
0.0
 14
10.0
 24
10.0
 15
10.0
 25
10.0
 16
0.0
 26
0.0
 36
1.0
 17
0.0
 27
0.0
 37
0.0
 40
297.0
 41
1.92798353909465
 42
50.0
 43
0.0
 44
0.0
 50
0.0
 51
0.0
 71
0
 72
100
 73
1
 74
3
 75
1
 76
1
 77
0
 78
0
  0
ENDTAB
  0
TABLE
  2
LTYPE
 70
50
  0
LTYPE
  2
Continuous
 70
0
  3
Solid line
 72
65
 73
0
 40
0.0
  0
LTYPE
  2
ACAD_ISO15W100
 70
0
  3
ISO double-dash triple-dot __ __ . . . __ __ . .
 72
65
 73
10
 40
39.0
 49
12.0
 49
-3.0
 49
12.0
 49
-3.0
 49
0.0
 49
-3.0
 49
0.0
 49
-3.0
 49
0.0
 49
-3.0
  0
LTYPE
  2
HOT_WATER_SUPPLY
 70
0
  3
Hot water supply ---- HW ---- HW ---- HW ----
 72
65
 73
3
 40
22.8599999999999994
 49
12.6999999999999993
 49
-5.0800000000000001
 49
-5.0800000000000001
  0
LTYPE
  2
DIVIDE
 70
0
  3
Divide ____ . . ____ . . ____ . . ____ . . ____
 72
65
 73
6
 40
31.75
 49
12.6999999999999993
 49
-6.3499999999999996
 49
0.0
 49
-6.3499999999999996
 49
0.0
 49
-6.3499999999999996
  0
LTYPE
  2
ACAD_ISO10W100
 70
0
  3
ISO dash dot __ . __ . __ . __ . __ . __ . __ . 
 72
65
 73
4
 40
18.0
 49
12.0
 49
-3.0
 49
0.0
 49
-3.0
  0
LTYPE
  2
GAS_LINE
 70
0
  3
Gas line ----GAS----GAS----GAS----GAS----GAS----GAS--
 72
65
 73
3
 40
24.1300000000000026
 49
12.6999999999999993
 49
-5.0800000000000001
 49
-6.3499999999999996
  0
LTYPE
  2
ACAD_ISO04W100
 70
0
  3
ISO long-dash dot ____ . ____ . ____ . ____ . _
 72
65
 73
4
 40
30.0
 49
24.0
 49
-3.0
 49
0.0
 49
-3.0
  0
LTYPE
  2
CENTER2
 70
0
  3
Center (.5x) ___ _ ___ _ ___ _ ___ _ ___ _ ___
 72
65
 73
4
 40
28.5750000000000028
 49
19.0500000000000007
 49
-3.1749999999999998
 49
3.1749999999999998
 49
-3.1749999999999998
  0
LTYPE
  2
ACAD_ISO11W100
 70
0
  3
ISO double-dash dot __ __ . __ __ . __ __ . __ _
 72
65
 73
6
 40
33.0
 49
12.0
 49
-3.0
 49
12.0
 49
-3.0
 49
0.0
 49
-3.0
  0
LTYPE
  2
HIDDEN2
 70
0
  3
Hidden (.5x) _ _ _ _ _ _ _ _ _ _ _ _ _ _ _ _ _ 
 72
65
 73
2
 40
4.7624999999999993
 49
3.1749999999999998
 49
-1.5874999999999999
  0
LTYPE
  2
BORDERX2
 70
0
  3
Border (2x) ____  ____  .  ____  ____  .  ___
 72
65
 73
6
 40
88.8999999999999915
 49
25.3999999999999986
 49
-12.6999999999999993
 49
25.3999999999999986
 49
-12.6999999999999993
 49
0.0
 49
-12.6999999999999993
  0
LTYPE
  2
ACAD_ISO05W100
 70
0
  3
ISO long-dash double-dot ____ .. ____ .. ____ . 
 72
65
 73
6
 40
33.0
 49
24.0
 49
-3.0
 49
0.0
 49
-3.0
 49
0.0
 49
-3.0
  0
LTYPE
  2
DASHDOTX2
 70
0
  3
Dash dot (2x) ____  .  ____  .  ____  .  ___
 72
65
 73
4
 40
50.7999999999999972
 49
25.3999999999999986
 49
-12.6999999999999993
 49
0.0
 49
-12.6999999999999993
  0
LTYPE
  2
HIDDENX2
 70
0
  3
Hidden (2x) ____ ____ ____ ____ ____ ____ ____ 
 72
65
 73
2
 40
19.0499999999999972
 49
12.6999999999999993
 49
-6.3499999999999996
  0
LTYPE
  2
CENTERX2
 70
0
  3
Center (2x) ________  __  ________  __  _____
 72
65
 73
4
 40
101.6000000000000085
 49
63.5
 49
-12.6999999999999993
 49
12.6999999999999993
 49
-12.6999999999999993
  0
LTYPE
  2
BORDER2
 70
0
  3
Border (.5x) __.__.__.__.__.__.__.__.__.__.__.
 72
65
 73
6
 40
22.2249999999999979
 49
6.3499999999999996
 49
-3.1749999999999998
 49
6.3499999999999996
 49
-3.1749999999999998
 49
0.0
 49
-3.1749999999999998
  0
LTYPE
  2
DASHDOT2
 70
0
  3
Dash dot (.5x) _._._._._._._._._._._._._._._.
 72
65
 73
4
 40
12.6999999999999993
 49
6.3499999999999996
 49
-3.1749999999999998
 49
0.0
 49
-3.1749999999999998
  0
LTYPE
  2
ACAD_ISO12W100
 70
0
  3
ISO dash double-dot __ . . __ . . __ . . __ . . 
 72
65
 73
6
 40
21.0
 49
12.0
 49
-3.0
 49
0.0
 49
-3.0
 49
0.0
 49
-3.0
  0
LTYPE
  2
ACAD_ISO07W100
 70
0
  3
ISO dot . . . . . . . . . . . . . . . . . . . . 
 72
65
 73
2
 40
3.0
 49
0.0
 49
-3.0
  0
LTYPE
  2
ACAD_ISO06W100
 70
0
  3
ISO long-dash triple-dot ____ ... ____ ... ____
 72
65
 73
8
 40
36.0
 49
24.0
 49
-3.0
 49
0.0
 49
-3.0
 49
0.0
 49
-3.0
 49
0.0
 49
-3.0
  0
LTYPE
  2
CENTER
 70
0
  3
Center ____ _ ____ _ ____ _ ____ _ ____ _ ____
 72
65
 73
4
 40
50.8000000000000043
 49
31.75
 49
-6.3499999999999996
 49
6.3499999999999996
 49
-6.3499999999999996
  0
LTYPE
  2
HIDDEN
 70
0
  3
Hidden __ __ __ __ __ __ __ __ __ __ __ __ __ __
 72
65
 73
2
 40
9.5249999999999986
 49
6.3499999999999996
 49
-3.1749999999999998
  0
LTYPE
  2
DOTX2
 70
0
  3
Dot (2x) .  .  .  .  .  .  .  .  .  .  .  .  .  .
 72
65
 73
2
 40
12.6999999999999993
 49
0.0
 49
-12.6999999999999993
  0
LTYPE
  2
PHANTOM
 70
0
  3
Phantom ______  __  __  ______  __  __  ______ 
 72
65
 73
6
 40
63.5000000000000071
 49
31.75
 49
-6.3499999999999996
 49
6.3499999999999996
 49
-6.3499999999999996
 49
6.3499999999999996
 49
-6.3499999999999996
  0
LTYPE
  2
ACAD_ISO08W100
 70
0
  3
ISO long-dash short-dash ____ __ ____ __ ____ _
 72
65
 73
4
 40
36.0
 49
24.0
 49
-3.0
 49
6.0
 49
-3.0
  0
LTYPE
  2
DASHEDX2
 70
0
  3
Dashed (2x) ____  ____  ____  ____  ____  ___
 72
65
 73
2
 40
38.0999999999999943
 49
25.3999999999999986
 49
-12.6999999999999993
  0
LTYPE
  2
DRAINAGE
 70
0
  3
Drainage ---->---->---->----
 72
65
 73
2
 40
10.1600000000000001
 49
5.0800000000000001
 49
5.0800000000000001
  0
LTYPE
  2
ACAD_ISO02W100
 70
0
  3
ISO dash __ __ __ __ __ __ __ __ __ __ __ __ __
 72
65
 73
2
 40
15.0
 49
12.0
 49
-3.0
  0
LTYPE
  2
PHANTOM2
 70
0
  3
Phantom (.5x) ___ _ _ ___ _ _ ___ _ _ ___ _ _
 72
65
 73
6
 40
31.7500000000000036
 49
15.875
 49
-3.1749999999999998
 49
3.1749999999999998
 49
-3.1749999999999998
 49
3.1749999999999998
 49
-3.1749999999999998
  0
LTYPE
  2
DASHED2
 70
0
  3
Dashed (.5x) _ _ _ _ _ _ _ _ _ _ _ _ _ _ _ _ _ 
 72
65
 73
2
 40
9.5249999999999986
 49
6.3499999999999996
 49
-3.1749999999999998
  0
LTYPE
  2
ACAD_ISO09W100
 70
0
  3
ISO long-dash double-short-dash ____ __ __ ____
 72
65
 73
6
 40
45.0
 49
24.0
 49
-3.0
 49
6.0
 49
-3.0
 49
6.0
 49
-3.0
  0
LTYPE
  2
ACAD_ISO13W100
 70
0
  3
ISO double-dash double-dot __ __ . . __ __ . . _
 72
65
 73
8
 40
36.0
 49
12.0
 49
-3.0
 49
12.0
 49
-3.0
 49
0.0
 49
-3.0
 49
0.0
 49
-3.0
  0
LTYPE
  2
TRACKS
 70
0
  3
Tracks -|-|-|-|-|-|-|-|-|-|-|-|-|-|-|-|-|-|-|-|-|-|-|-|-
 72
65
 73
2
 40
7.6200000000000001
 49
3.8100000000000001
 49
3.8100000000000001
  0
LTYPE
  2
DRAINAGE2
 70
0
  3
Drainage reversed----<----<----<----
 72
65
 73
2
 40
10.1600000000000001
 49
5.0800000000000001
 49
5.0800000000000001
  0
LTYPE
  2
DOT2
 70
0
  3
Dot (.5x) ........................................
 72
65
 73
2
 40
3.1749999999999998
 49
0.0
 49
-3.1749999999999998
  0
LTYPE
  2
ZIGZAG
 70
0
  3
Zig zag /\/\/\/\/\/\/\/\/\/\/\/\/\/\/\/\/\/\/\/\/\/\/\/
 72
65
 73
4
 40
20.32254
 49
0.00254
 49
-5.0800000000000001
 49
-10.1600000000000001
 49
-5.0800000000000001
  0
LTYPE
  2
DASHED
 70
0
  3
Dashed __ __ __ __ __ __ __ __ __ __ __ __ __ _
 72
65
 73
2
 40
19.0499999999999972
 49
12.6999999999999993
 49
-6.3499999999999996
  0
LTYPE
  2
ACAD_ISO14W100
 70
0
  3
ISO dash triple-dot __ . . . __ . . . __ . . . _
 72
65
 73
8
 40
24.0
 49
12.0
 49
-3.0
 49
0.0
 49
-3.0
 49
0.0
 49
-3.0
 49
0.0
 49
-3.0
  0
LTYPE
  2
PHANTOMX2
 70
0
  3
Phantom (2x) ____________    ____    ____   _
 72
65
 73
6
 40
127.0000000000000142
 49
63.5
 49
-12.6999999999999993
 49
12.6999999999999993
 49
-12.6999999999999993
 49
12.6999999999999993
 49
-12.6999999999999993
  0
LTYPE
  2
DIVIDEX2
 70
0
  3
Divide (2x) ________  .  .  ________  .  .  _
 72
65
 73
6
 40
63.5
 49
25.3999999999999986
 49
-12.6999999999999993
 49
0.0
 49
-12.6999999999999993
 49
0.0
 49
-12.6999999999999993
  0
LTYPE
  2
BORDER
 70
0
  3
Border __ __ . __ __ . __ __ . __ __ . __ __ .
 72
65
 73
6
 40
44.4499999999999957
 49
12.6999999999999993
 49
-6.3499999999999996
 49
12.6999999999999993
 49
-6.3499999999999996
 49
0.0
 49
-6.3499999999999996
  0
LTYPE
  2
DIVIDE2
 70
0
  3
Divide (.5x) __..__..__..__..__..__..__..__.._
 72
65
 73
6
 40
15.875
 49
6.3499999999999996
 49
-3.1749999999999998
 49
0.0
 49
-3.1749999999999998
 49
0.0
 49
-3.1749999999999998
  0
LTYPE
  2
DOT
 70
0
  3
Dot . . . . . . . . . . . . . . . . . . . . . . . .
 72
65
 73
2
 40
6.3499999999999996
 49
0.0
 49
-6.3499999999999996
  0
LTYPE
  2
DASHDOT
 70
0
  3
Dash dot __ . __ . __ . __ . __ . __ . __ . __
 72
65
 73
4
 40
25.3999999999999986
 49
12.6999999999999993
 49
-6.3499999999999996
 49
0.0
 49
-6.3499999999999996
  0
LTYPE
  2
FENCELINE1
 70
0
  3
Fenceline circle ----0-----0----0-----0----0-----0--
 72
65
 73
4
 40
36.8299999999999983
 49
6.3499999999999996
 49
-2.54
 49
-2.54
 49
25.3999999999999986
  0
LTYPE
  2
BATTING
 70
0
  3
Batting SSSSSSSSSSSSSSSSSSSSSSSSSSSSSSSSSSSSSSSSSSSSSSS
 72
65
 73
4
 40
10.1625399999999999
 49
0.00254
 49
-2.54
 49
-5.0800000000000001
 49
-2.54
  0
LTYPE
  2
ACAD_ISO03W100
 70
0
  3
ISO dash space __    __    __    __    __    __
 72
65
 73
2
 40
30.0
 49
12.0
 49
-18.0
  0
LTYPE
  2
FENCELINE2
 70
0
  3
Fenceline square ----[]-----[]----[]-----[]----[]---
 72
65
 73
4
 40
36.8299999999999983
 49
6.3499999999999996
 49
-2.54
 49
-2.54
 49
25.3999999999999986
  0
ENDTAB
  0
TABLE
  2
LAYER
 70
2
  0
LAYER
  2
Board_Outline
 70
0
 62
23
  6
Continuous
  0
LAYER
  2
0
 70
0
 62
7
  6
Continuous
  0
ENDTAB
  0
TABLE
  2
STYLE
 70
1
  0
STYLE
  2
Standard
 70
0
 40
0.0
 41
1.0
 50
0.0
 71
0
 42
2.5
  3
txt
  4

  0
ENDTAB
  0
TABLE
  2
VIEW
 70
0
  0
ENDTAB
  0
TABLE
  2
UCS
 70
0
  0
ENDTAB
  0
TABLE
  2
APPID
 70
1
  0
APPID
  2
ACAD
 70
0
  0
APPID
  2
QCAD
 70
0
  0
ENDTAB
  0
TABLE
  2
DIMSTYLE
 70
1
  0
DIMSTYLE
  2
Standard
  3

  4

  5

  6

  7

 40
1.0
 41
0.18
 42
0.0625
 43
3.75
 44
0.18
 45
0.0
 46
0.0
 47
0.0
 48
0.0
 70
0
 71
0
 72
0
 73
0
 74
0
 75
0
 76
0
 77
1
 78
8
140
0.18
141
2.5
142
0.0
143
0.03937007874016
144
1.0
145
0.0
146
1.0
147
0.09
170
0
171
3
172
1
173
0
174
0
175
0
176
0
177
0
178
0
  0
ENDTAB
  0
ENDSEC
  0
SECTION
  2
BLOCKS
  0
ENDSEC
  0
SECTION
  2
ENTITIES
  0
POLYLINE
  8
Board_Outline
 66
1
 70
0
 10
0.0
 20
0.0
 30
0.0
  0
VERTEX
  8
Board_Outline
 10
-0.0014
 20
4.1085000000000003
 30
0.0
 42
1.0
  0
VERTEX
  8
Board_Outline
 10
0.0014
 20
4.1085000000000003
 30
0.0
 42
1.0
  0
VERTEX
  8
Board_Outline
 10
-0.0014
 20
4.1085000000000003
 30
0.0
 42
1.0
  0
SEQEND
  0
POLYLINE
  8
Board_Outline
 66
1
 70
0
 10
0.0
 20
0.0
 30
0.0
  0
VERTEX
  8
Board_Outline
 10
0.4048
 20
0.3579
 30
0.0
 42
1.0
  0
VERTEX
  8
Board_Outline
 10
0.4048
 20
0.3579
 30
0.0
 42
1.0
  0
VERTEX
  8
Board_Outline
 10
0.4048
 20
0.3579
 30
0.0
 42
1.0
  0
SEQEND
  0
LINE
  8
Board_Outline
 10
2.5198000000000005
 20
3.3818999999999995
 30
0.0
 11
2.5190999999999999
 21
3.3826000000000001
 31
0.0
  0
LINE
  8
Board_Outline
 10
2.5190999999999999
 20
3.3826000000000001
 30
0.0
 11
2.5171000000000001
 21
3.3843999999999999
 31
0.0
  0
LINE
  8
Board_Outline
 10
2.5171000000000001
 20
3.3843999999999999
 30
0.0
 11
2.5148999999999999
 21
3.3858999999999999
 31
0.0
  0
LINE
  8
Board_Outline
 10
2.5148999999999999
 20
3.3858999999999999
 30
0.0
 11
2.5127000000000002
 21
3.3873000000000002
 31
0.0
  0
LINE
  8
Board_Outline
 10
2.5127000000000002
 20
3.3873000000000002
 30
0.0
 11
2.5103
 21
3.3885999999999998
 31
0.0
  0
LINE
  8
Board_Outline
 10
2.5103
 20
3.3885999999999998
 30
0.0
 11
2.5078
 21
3.3896000000000002
 31
0.0
  0
LINE
  8
Board_Outline
 10
2.5078
 20
3.3896000000000002
 30
0.0
 11
2.5053000000000001
 21
3.3904000000000001
 31
0.0
  0
LINE
  8
Board_Outline
 10
2.5053000000000001
 20
3.3904000000000001
 30
0.0
 11
2.5026999999999999
 21
3.3910999999999998
 31
0.0
  0
LINE
  8
Board_Outline
 10
2.5026999999999999
 20
3.3910999999999998
 30
0.0
 11
2.5001000000000002
 21
3.3915000000000002
 31
0.0
  0
LINE
  8
Board_Outline
 10
2.5001000000000002
 20
3.3915000000000002
 30
0.0
 11
2.4975000000000001
 21
3.3917000000000002
 31
0.0
  0
LINE
  8
Board_Outline
 10
2.4975000000000001
 20
3.3917000000000002
 30
0.0
 11
2.4948000000000001
 21
3.3917000000000002
 31
0.0
  0
LINE
  8
Board_Outline
 10
2.4948000000000001
 20
3.3917000000000002
 30
0.0
 11
2.4921000000000002
 21
3.3915000000000002
 31
0.0
  0
LINE
  8
Board_Outline
 10
2.4921000000000002
 20
3.3915000000000002
 30
0.0
 11
2.4895
 21
3.3910999999999998
 31
0.0
  0
LINE
  8
Board_Outline
 10
2.4895
 20
3.3910999999999998
 30
0.0
 11
2.4868999999999999
 21
3.3904999999999998
 31
0.0
  0
LINE
  8
Board_Outline
 10
2.4868999999999999
 20
3.3904999999999998
 30
0.0
 11
2.4843999999999999
 21
3.3896999999999999
 31
0.0
  0
LINE
  8
Board_Outline
 10
2.4843999999999999
 20
3.3896999999999999
 30
0.0
 11
2.4819
 21
3.3887
 31
0.0
  0
LINE
  8
Board_Outline
 10
2.4819
 20
3.3887
 30
0.0
 11
2.4796
 21
3.3875000000000002
 31
0.0
  0
LINE
  8
Board_Outline
 10
2.4796
 20
3.3875000000000002
 30
0.0
 11
2.4773000000000001
 21
3.3860999999999999
 31
0.0
  0
LINE
  8
Board_Outline
 10
2.4773000000000001
 20
3.3860999999999999
 30
0.0
 11
2.4750999999999999
 21
3.3845000000000001
 31
0.0
  0
LINE
  8
Board_Outline
 10
2.4750999999999999
 20
3.3845000000000001
 30
0.0
 11
2.4724687279423052
 21
3.3822634187509597
 31
0.0
  0
LINE
  8
Board_Outline
 10
2.8348
 20
0.5975
 30
0.0
 11
2.8348
 21
2.2904
 31
0.0
  0
LINE
  8
Board_Outline
 10
2.8348
 20
2.2904
 30
0.0
 11
2.9922
 21
2.4479000000000002
 31
0.0
  0
LINE
  8
Board_Outline
 10
2.9922
 20
2.4479000000000002
 30
0.0
 11
3.5434000000000001
 21
2.4479000000000002
 31
0.0
  0
LINE
  8
Board_Outline
 10
3.5434000000000001
 20
2.4479000000000002
 30
0.0
 11
3.5434000000000001
 21
2.7629000000000001
 31
0.0
  0
LINE
  8
Board_Outline
 10
3.5434000000000001
 20
2.7629000000000001
 30
0.0
 11
2.9922
 21
2.7629000000000001
 31
0.0
  0
LINE
  8
Board_Outline
 10
2.9922
 20
2.7629000000000001
 30
0.0
 11
2.8348
 21
2.8809999999999998
 31
0.0
  0
LINE
  8
Board_Outline
 10
2.8348
 20
2.8809999999999998
 30
0.0
 11
2.8348
 21
3.7078000000000002
 31
0.0
  0
LINE
  8
Board_Outline
 10
2.8348
 20
3.7078000000000002
 30
0.0
 11
2.5198
 21
3.7078000000000002
 31
0.0
  0
LINE
  8
Board_Outline
 10
2.5198
 20
3.7078000000000002
 30
0.0
 11
2.5198
 21
3.6448666666666671
 31
0.0
  0
LINE
  8
Board_Outline
 10
2.5198
 20
2.8809999999999998
 30
0.0
 11
2.3622999999999998
 21
2.7629000000000001
 31
0.0
  0
LINE
  8
Board_Outline
 10
2.3622999999999998
 20
2.7629000000000001
 30
0.0
 11
1.8110999999999999
 21
2.7629000000000001
 31
0.0
  0
LINE
  8
Board_Outline
 10
1.8110999999999999
 20
2.7629000000000001
 30
0.0
 11
1.8110999999999999
 21
2.4479000000000002
 31
0.0
  0
LINE
  8
Board_Outline
 10
1.8110999999999999
 20
2.4479000000000002
 30
0.0
 11
2.3622999999999998
 21
2.4479000000000002
 31
0.0
  0
LINE
  8
Board_Outline
 10
2.3622999999999998
 20
2.4479000000000002
 30
0.0
 11
2.5198
 21
2.2904
 31
0.0
  0
LINE
  8
Board_Outline
 10
2.5198
 20
2.2904
 30
0.0
 11
2.5198
 21
1.5585312500000001
 31
0.0
  0
LINE
  8
Board_Outline
 10
2.5198
 20
0.5975
 30
0.0
 11
2.8348
 21
0.5975
 31
0.0
  0
LINE
  8
Board_Outline
 10
1.1850000000000001
 20
3.5209000000000001
 30
0.0
 11
1.1868000000000001
 21
3.4695999999999998
 31
0.0
  0
LINE
  8
Board_Outline
 10
1.1868000000000001
 20
3.4695999999999998
 30
0.0
 11
1.1926000000000001
 21
3.4186000000000001
 31
0.0
  0
LINE
  8
Board_Outline
 10
1.1926000000000001
 20
3.4186000000000001
 30
0.0
 11
1.2024999999999999
 21
3.3681999999999999
 31
0.0
  0
LINE
  8
Board_Outline
 10
1.2024999999999999
 20
3.3681999999999999
 30
0.0
 11
1.2161999999999999
 21
3.3188
 31
0.0
  0
LINE
  8
Board_Outline
 10
1.2161999999999999
 20
3.3188
 30
0.0
 11
1.2338
 21
3.2706
 31
0.0
  0
LINE
  8
Board_Outline
 10
1.2338
 20
3.2706
 30
0.0
 11
1.2551000000000001
 21
3.2239
 31
0.0
  0
LINE
  8
Board_Outline
 10
1.2551000000000001
 20
3.2239
 30
0.0
 11
1.28
 21
3.1789999999999998
 31
0.0
  0
LINE
  8
Board_Outline
 10
1.28
 20
3.1789999999999998
 30
0.0
 11
1.3083
 21
3.1362000000000001
 31
0.0
  0
LINE
  8
Board_Outline
 10
1.3083
 20
3.1362000000000001
 30
0.0
 11
1.3399000000000001
 21
3.0956999999999999
 31
0.0
  0
LINE
  8
Board_Outline
 10
1.3399000000000001
 20
3.0956999999999999
 30
0.0
 11
1.3746
 21
3.0579000000000001
 31
0.0
  0
LINE
  8
Board_Outline
 10
1.3746
 20
3.0579000000000001
 30
0.0
 11
1.4120999999999999
 21
3.0228999999999999
 31
0.0
  0
LINE
  8
Board_Outline
 10
1.4120999999999999
 20
3.0228999999999999
 30
0.0
 11
1.4522999999999999
 21
2.9908999999999999
 31
0.0
  0
LINE
  8
Board_Outline
 10
1.4522999999999999
 20
2.9908999999999999
 30
0.0
 11
1.4947999999999999
 21
2.9622000000000002
 31
0.0
  0
LINE
  8
Board_Outline
 10
1.4947999999999999
 20
2.9622000000000002
 30
0.0
 11
1.5395000000000001
 21
2.9369999999999998
 31
0.0
  0
LINE
  8
Board_Outline
 10
1.5395000000000001
 20
2.9369999999999998
 30
0.0
 11
1.5860000000000001
 21
2.9152
 31
0.0
  0
LINE
  8
Board_Outline
 10
1.5860000000000001
 20
2.9152
 30
0.0
 11
1.6341000000000001
 21
2.8973
 31
0.0
  0
LINE
  8
Board_Outline
 10
1.6341000000000001
 20
2.8973
 30
0.0
 11
1.6834
 21
2.8831000000000002
 31
0.0
  0
LINE
  8
Board_Outline
 10
1.6834
 20
2.8831000000000002
 30
0.0
 11
1.7337
 21
2.8727999999999998
 31
0.0
  0
LINE
  8
Board_Outline
 10
1.7337
 20
2.8727999999999998
 30
0.0
 11
1.7847
 21
2.8666
 31
0.0
  0
LINE
  8
Board_Outline
 10
1.7847
 20
2.8666
 30
0.0
 11
1.8359000000000001
 21
2.8643000000000001
 31
0.0
  0
LINE
  8
Board_Outline
 10
1.8359000000000001
 20
2.8643000000000001
 30
0.0
 11
1.8872
 21
2.8660000000000001
 31
0.0
  0
LINE
  8
Board_Outline
 10
1.8872
 20
2.8660000000000001
 30
0.0
 11
1.9381999999999999
 21
2.8717999999999999
 31
0.0
  0
LINE
  8
Board_Outline
 10
1.9381999999999999
 20
2.8717999999999999
 30
0.0
 11
1.9885999999999999
 21
2.8816000000000002
 31
0.0
  0
LINE
  8
Board_Outline
 10
1.9885999999999999
 20
2.8816000000000002
 30
0.0
 11
2.0381
 21
2.8952
 31
0.0
  0
LINE
  8
Board_Outline
 10
2.0381
 20
2.8952
 30
0.0
 11
2.0863999999999998
 21
2.9127999999999998
 31
0.0
  0
LINE
  8
Board_Outline
 10
2.0863999999999998
 20
2.9127999999999998
 30
0.0
 11
2.1331000000000002
 21
2.9340000000000002
 31
0.0
  0
LINE
  8
Board_Outline
 10
2.1331000000000002
 20
2.9340000000000002
 30
0.0
 11
2.1779999999999999
 21
2.9588000000000001
 31
0.0
  0
LINE
  8
Board_Outline
 10
2.1779999999999999
 20
2.9588000000000001
 30
0.0
 11
2.2208000000000001
 21
2.9870999999999999
 31
0.0
  0
LINE
  8
Board_Outline
 10
2.2208000000000001
 20
2.9870999999999999
 30
0.0
 11
2.2612999999999999
 21
3.0186999999999999
 31
0.0
  0
LINE
  8
Board_Outline
 10
2.2612999999999999
 20
3.0186999999999999
 30
0.0
 11
2.2991999999999999
 21
3.0533000000000001
 31
0.0
  0
LINE
  8
Board_Outline
 10
2.2991999999999999
 20
3.0533000000000001
 30
0.0
 11
2.3260999999999998
 21
3.0830000000000002
 31
0.0
  0
LINE
  8
Board_Outline
 10
2.3260999999999998
 20
3.0830000000000002
 30
0.0
 11
2.3512
 21
3.1143000000000001
 31
0.0
  0
LINE
  8
Board_Outline
 10
2.3512
 20
3.1143000000000001
 30
0.0
 11
2.3744000000000001
 21
3.1469
 31
0.0
  0
LINE
  8
Board_Outline
 10
2.3744000000000001
 20
3.1469
 30
0.0
 11
2.3956
 21
3.181
 31
0.0
  0
LINE
  8
Board_Outline
 10
2.3956
 20
3.181
 30
0.0
 11
2.4146999999999998
 21
3.2162000000000002
 31
0.0
  0
LINE
  8
Board_Outline
 10
2.4146999999999998
 20
3.2162000000000002
 30
0.0
 11
2.4317000000000002
 21
3.2524999999999999
 31
0.0
  0
LINE
  8
Board_Outline
 10
2.4317000000000002
 20
3.2524999999999999
 30
0.0
 11
2.4464999999999999
 21
3.2896999999999998
 31
0.0
  0
LINE
  8
Board_Outline
 10
2.4464999999999999
 20
3.2896999999999998
 30
0.0
 11
2.4590000000000001
 21
3.3277999999999999
 31
0.0
  0
LINE
  8
Board_Outline
 10
2.4590000000000001
 20
3.3277999999999999
 30
0.0
 11
2.4693000000000001
 21
3.3664999999999998
 31
0.0
  0
LINE
  8
Board_Outline
 10
2.4693000000000001
 20
3.3664999999999998
 30
0.0
 11
2.4724687279423048
 21
3.3822634187509597
 31
0.0
  0
LINE
  8
Board_Outline
 10
2.4750700000000005
 20
3.6445599999999967
 30
0.0
 11
2.4750000000000001
 21
3.645
 31
0.0
  0
LINE
  8
Board_Outline
 10
2.4750000000000001
 20
3.645
 30
0.0
 11
2.4664000000000001
 21
3.6840999999999999
 31
0.0
  0
LINE
  8
Board_Outline
 10
2.4664000000000001
 20
3.6840999999999999
 30
0.0
 11
2.4554
 21
3.7227000000000001
 31
0.0
  0
LINE
  8
Board_Outline
 10
2.4554
 20
3.7227000000000001
 30
0.0
 11
2.4420999999999999
 21
3.7605
 31
0.0
  0
LINE
  8
Board_Outline
 10
2.4420999999999999
 20
3.7605
 30
0.0
 11
2.4266000000000001
 21
3.7974999999999999
 31
0.0
  0
LINE
  8
Board_Outline
 10
2.4266000000000001
 20
3.7974999999999999
 30
0.0
 11
2.4089999999999998
 21
3.8334000000000001
 31
0.0
  0
LINE
  8
Board_Outline
 10
2.4089999999999998
 20
3.8334000000000001
 30
0.0
 11
2.3892000000000002
 21
3.8683000000000001
 31
0.0
  0
LINE
  8
Board_Outline
 10
2.3892000000000002
 20
3.8683000000000001
 30
0.0
 11
2.5941999999999998
 21
4.0792999999999999
 31
0.0
  0
LINE
  8
Board_Outline
 10
2.5941999999999998
 20
4.0792999999999999
 30
0.0
 11
2.5941999999999998
 21
3.8283
 31
0.0
  0
LINE
  8
Board_Outline
 10
2.5941999999999998
 20
3.8283
 30
0.0
 11
2.8641999999999999
 21
3.8283
 31
0.0
  0
LINE
  8
Board_Outline
 10
2.8641999999999999
 20
3.8283
 30
0.0
 11
2.8641999999999999
 21
4.5382999999999996
 31
0.0
  0
LINE
  8
Board_Outline
 10
2.8641999999999999
 20
4.5382999999999996
 30
0.0
 11
2.1541999999999999
 21
4.5382999999999996
 31
0.0
  0
LINE
  8
Board_Outline
 10
2.1541999999999999
 20
4.5382999999999996
 30
0.0
 11
2.1541999999999999
 21
4.2683
 31
0.0
  0
LINE
  8
Board_Outline
 10
2.1541999999999999
 20
4.2683
 30
0.0
 11
2.4051999999999998
 21
4.2683
 31
0.0
  0
LINE
  8
Board_Outline
 10
2.4051999999999998
 20
4.2683
 30
0.0
 11
2.1941999999999999
 21
4.0632999999999999
 31
0.0
  0
LINE
  8
Board_Outline
 10
2.1941999999999999
 20
4.0632999999999999
 30
0.0
 11
2.1042000000000001
 21
4.1082999999999998
 31
0.0
  0
LINE
  8
Board_Outline
 10
2.1042000000000001
 20
4.1082999999999998
 30
0.0
 11
2.0828000000000002
 21
4.1177999999999999
 31
0.0
  0
LINE
  8
Board_Outline
 10
2.0828000000000002
 20
4.1177999999999999
 30
0.0
 11
2.0638000000000001
 21
4.1313000000000004
 31
0.0
  0
LINE
  8
Board_Outline
 10
2.0638000000000001
 20
4.1313000000000004
 30
0.0
 11
2.0478999999999998
 21
4.1483999999999996
 31
0.0
  0
LINE
  8
Board_Outline
 10
2.0478999999999998
 20
4.1483999999999996
 30
0.0
 11
2.0356999999999998
 21
4.1683000000000003
 31
0.0
  0
LINE
  8
Board_Outline
 10
2.0356999999999998
 20
4.1683000000000003
 30
0.0
 11
2.0276999999999998
 21
4.1901999999999999
 31
0.0
  0
LINE
  8
Board_Outline
 10
2.0276999999999998
 20
4.1901999999999999
 30
0.0
 11
2.0242
 21
4.2133000000000003
 31
0.0
  0
LINE
  8
Board_Outline
 10
2.0242
 20
4.2133000000000003
 30
0.0
 11
2.0221
 21
4.2397999999999998
 31
0.0
  0
LINE
  8
Board_Outline
 10
2.0221
 20
4.2397999999999998
 30
0.0
 11
2.0127000000000002
 21
4.2645999999999997
 31
0.0
  0
LINE
  8
Board_Outline
 10
2.0127000000000002
 20
4.2645999999999997
 30
0.0
 11
1.9966999999999999
 21
4.2858000000000001
 31
0.0
  0
LINE
  8
Board_Outline
 10
1.9966999999999999
 20
4.2858000000000001
 30
0.0
 11
1.9755
 21
4.3018000000000001
 31
0.0
  0
LINE
  8
Board_Outline
 10
1.9755
 20
4.3018000000000001
 30
0.0
 11
1.9507000000000001
 21
4.3112000000000004
 31
0.0
  0
LINE
  8
Board_Outline
 10
1.9507000000000001
 20
4.3112000000000004
 30
0.0
 11
1.9241999999999999
 21
4.3132999999999999
 31
0.0
  0
LINE
  8
Board_Outline
 10
1.9241999999999999
 20
4.3132999999999999
 30
0.0
 11
1.8976999999999999
 21
4.3112000000000004
 31
0.0
  0
LINE
  8
Board_Outline
 10
1.8976999999999999
 20
4.3112000000000004
 30
0.0
 11
1.8729
 21
4.3018000000000001
 31
0.0
  0
LINE
  8
Board_Outline
 10
1.8729
 20
4.3018000000000001
 30
0.0
 11
1.8516999999999999
 21
4.2858000000000001
 31
0.0
  0
LINE
  8
Board_Outline
 10
1.8516999999999999
 20
4.2858000000000001
 30
0.0
 11
1.8357000000000001
 21
4.2645999999999997
 31
0.0
  0
LINE
  8
Board_Outline
 10
1.8357000000000001
 20
4.2645999999999997
 30
0.0
 11
1.8263
 21
4.2397999999999998
 31
0.0
  0
LINE
  8
Board_Outline
 10
1.8263
 20
4.2397999999999998
 30
0.0
 11
1.8242
 21
4.2133000000000003
 31
0.0
  0
LINE
  8
Board_Outline
 10
1.8242
 20
4.2133000000000003
 30
0.0
 11
1.8098000000000001
 21
4.181
 31
0.0
  0
LINE
  8
Board_Outline
 10
1.8098000000000001
 20
4.181
 30
0.0
 11
1.7883
 21
4.1528999999999998
 31
0.0
  0
LINE
  8
Board_Outline
 10
1.7883
 20
4.1528999999999998
 30
0.0
 11
1.7608999999999999
 21
4.1306000000000003
 31
0.0
  0
LINE
  8
Board_Outline
 10
1.7608999999999999
 20
4.1306000000000003
 30
0.0
 11
1.7291000000000001
 21
4.1151999999999997
 31
0.0
  0
LINE
  8
Board_Outline
 10
1.7291000000000001
 20
4.1151999999999997
 30
0.0
 11
1.6944999999999999
 21
4.1077000000000004
 31
0.0
  0
LINE
  8
Board_Outline
 10
1.6944999999999999
 20
4.1077000000000004
 30
0.0
 11
1.6592
 21
4.1082999999999998
 31
0.0
  0
LINE
  8
Board_Outline
 10
1.6592
 20
4.1082999999999998
 30
0.0
 11
1.6324000000000001
 21
4.1067999999999998
 31
0.0
  0
LINE
  8
Board_Outline
 10
1.6324000000000001
 20
4.1067999999999998
 30
0.0
 11
1.6057999999999999
 21
4.1028000000000002
 31
0.0
  0
LINE
  8
Board_Outline
 10
1.6057999999999999
 20
4.1028000000000002
 30
0.0
 11
1.5797000000000001
 21
4.0963000000000003
 31
0.0
  0
LINE
  8
Board_Outline
 10
1.5797000000000001
 20
4.0963000000000003
 30
0.0
 11
1.5544
 21
4.0873999999999997
 31
0.0
  0
LINE
  8
Board_Outline
 10
1.5544
 20
4.0873999999999997
 30
0.0
 11
1.53
 21
4.0761000000000003
 31
0.0
  0
LINE
  8
Board_Outline
 10
1.53
 20
4.0761000000000003
 30
0.0
 11
1.5067999999999999
 21
4.0625
 31
0.0
  0
LINE
  8
Board_Outline
 10
1.5067999999999999
 20
4.0625
 30
0.0
 11
1.4728000000000001
 21
4.0434000000000001
 31
0.0
  0
LINE
  8
Board_Outline
 10
1.4728000000000001
 20
4.0434000000000001
 30
0.0
 11
1.4400999999999999
 21
4.0221
 31
0.0
  0
LINE
  8
Board_Outline
 10
1.4400999999999999
 20
4.0221
 30
0.0
 11
1.4089
 21
3.9986999999999999
 31
0.0
  0
LINE
  8
Board_Outline
 10
1.4089
 20
3.9986999999999999
 30
0.0
 11
1.3792
 21
3.9733000000000001
 31
0.0
  0
LINE
  8
Board_Outline
 10
1.3792
 20
3.9733000000000001
 30
0.0
 11
1.3512999999999999
 21
3.9460000000000002
 31
0.0
  0
LINE
  8
Board_Outline
 10
1.3512999999999999
 20
3.9460000000000002
 30
0.0
 11
1.3391894736842103
 21
3.9325438596491225
 31
0.0
  0
LINE
  8
Board_Outline
 10
1.2004848739495799
 20
3.6670621848739504
 30
0.0
 11
1.1941999999999999
 21
3.6375000000000002
 31
0.0
  0
LINE
  8
Board_Outline
 10
1.1941999999999999
 20
3.6375000000000002
 30
0.0
 11
1.1886000000000001
 21
3.5988000000000002
 31
0.0
  0
LINE
  8
Board_Outline
 10
1.1886000000000001
 20
3.5988000000000002
 30
0.0
 11
1.1855
 21
3.5598999999999998
 31
0.0
  0
LINE
  8
Board_Outline
 10
1.1855
 20
3.5598999999999998
 30
0.0
 11
1.1850000000000001
 21
3.5209000000000001
 31
0.0
  0
LINE
  8
Board_Outline
 10
2.4750700000000005
 20
3.6445599999999949
 30
0.0
 11
2.4771000000000001
 21
3.6404999999999998
 31
0.0
  0
LINE
  8
Board_Outline
 10
2.4771000000000001
 20
3.6404999999999998
 30
0.0
 11
2.4788999999999999
 21
3.6379000000000001
 31
0.0
  0
LINE
  8
Board_Outline
 10
2.4788999999999999
 20
3.6379000000000001
 30
0.0
 11
2.4809000000000001
 21
3.6356000000000002
 31
0.0
  0
LINE
  8
Board_Outline
 10
2.4809000000000001
 20
3.6356000000000002
 30
0.0
 11
2.4832999999999998
 21
3.6335999999999999
 31
0.0
  0
LINE
  8
Board_Outline
 10
2.4832999999999998
 20
3.6335999999999999
 30
0.0
 11
2.4859
 21
3.6318000000000001
 31
0.0
  0
LINE
  8
Board_Outline
 10
2.4859
 20
3.6318000000000001
 30
0.0
 11
2.4887999999999999
 21
3.6305000000000001
 31
0.0
  0
LINE
  8
Board_Outline
 10
2.4887999999999999
 20
3.6305000000000001
 30
0.0
 11
2.4916999999999998
 21
3.6295000000000002
 31
0.0
  0
LINE
  8
Board_Outline
 10
2.4916999999999998
 20
3.6295000000000002
 30
0.0
 11
2.4948000000000001
 21
3.629
 31
0.0
  0
LINE
  8
Board_Outline
 10
2.4948000000000001
 20
3.629
 30
0.0
 11
2.4980000000000002
 21
3.6288
 31
0.0
  0
LINE
  8
Board_Outline
 10
2.4980000000000002
 20
3.6288
 30
0.0
 11
2.5011000000000001
 21
3.6291000000000002
 31
0.0
  0
LINE
  8
Board_Outline
 10
2.5011000000000001
 20
3.6291000000000002
 30
0.0
 11
2.5041000000000002
 21
3.6297999999999999
 31
0.0
  0
LINE
  8
Board_Outline
 10
2.5041000000000002
 20
3.6297999999999999
 30
0.0
 11
2.5070999999999999
 21
3.6309
 31
0.0
  0
LINE
  8
Board_Outline
 10
2.5070999999999999
 20
3.6309
 30
0.0
 11
2.5097999999999998
 21
3.6322999999999999
 31
0.0
  0
LINE
  8
Board_Outline
 10
2.5097999999999998
 20
3.6322999999999999
 30
0.0
 11
2.5124
 21
3.6341000000000001
 31
0.0
  0
LINE
  8
Board_Outline
 10
2.5124
 20
3.6341000000000001
 30
0.0
 11
2.5146999999999999
 21
3.6362999999999999
 31
0.0
  0
LINE
  8
Board_Outline
 10
2.5146999999999999
 20
3.6362999999999999
 30
0.0
 11
2.5167000000000002
 21
3.6387
 31
0.0
  0
LINE
  8
Board_Outline
 10
2.5167000000000002
 20
3.6387
 30
0.0
 11
2.5183
 21
3.6413000000000002
 31
0.0
  0
LINE
  8
Board_Outline
 10
2.5183
 20
3.6413000000000002
 30
0.0
 11
2.5196000000000001
 21
3.6442000000000001
 31
0.0
  0
LINE
  8
Board_Outline
 10
2.5196000000000001
 20
3.6442000000000001
 30
0.0
 11
2.5198
 21
3.6448666666666671
 31
0.0
  0
LINE
  8
Board_Outline
 10
2.5198
 20
3.3818999999999995
 30
0.0
 11
2.5198
 21
2.8809999999999998
 31
0.0
  0
LINE
  8
Board_Outline
 10
0.4048
 20
0.3579
 30
0.0
 11
0.4993
 21
0.2726
 31
0.0
  0
LINE
  8
Board_Outline
 10
0.4993
 20
0.2726
 30
0.0
 11
0.6022
 21
0.1976
 31
0.0
  0
LINE
  8
Board_Outline
 10
0.6022
 20
0.1976
 30
0.0
 11
0.7123
 21
0.1336
 31
0.0
  0
LINE
  8
Board_Outline
 10
0.7123
 20
0.1336
 30
0.0
 11
0.8284
 21
0.0815
 31
0.0
  0
LINE
  8
Board_Outline
 10
0.8284
 20
0.0815
 30
0.0
 11
0.9494
 21
0.0417
 31
0.0
  0
LINE
  8
Board_Outline
 10
0.9494
 20
0.0417
 30
0.0
 11
1.0738000000000001
 21
0.0147
 31
0.0
  0
LINE
  8
Board_Outline
 10
1.0738000000000001
 20
0.0147
 30
0.0
 11
1.2002999999999999
 21
0.0007
 31
0.0
  0
LINE
  8
Board_Outline
 10
1.2002999999999999
 20
0.0007
 30
0.0
 11
1.3275999999999999
 21
0.0
 31
0.0
  0
LINE
  8
Board_Outline
 10
1.3275999999999999
 20
0.0
 30
0.0
 11
1.4542999999999999
 21
0.0125
 31
0.0
  0
LINE
  8
Board_Outline
 10
1.4542999999999999
 20
0.0125
 30
0.0
 11
1.579
 21
0.0381
 31
0.0
  0
LINE
  8
Board_Outline
 10
1.579
 20
0.0381
 30
0.0
 11
1.7003999999999999
 21
0.0765
 31
0.0
  0
LINE
  8
Board_Outline
 10
1.7003999999999999
 20
0.0765
 30
0.0
 11
1.8170999999999999
 21
0.1273
 31
0.0
  0
LINE
  8
Board_Outline
 10
1.8170999999999999
 20
0.1273
 30
0.0
 11
1.9278999999999999
 21
0.19
 31
0.0
  0
LINE
  8
Board_Outline
 10
1.9278999999999999
 20
0.19
 30
0.0
 11
2.0316999999999998
 21
0.2638
 31
0.0
  0
LINE
  8
Board_Outline
 10
2.0316999999999998
 20
0.2638
 30
0.0
 11
2.1271
 21
0.348
 31
0.0
  0
LINE
  8
Board_Outline
 10
2.1271
 20
0.348
 30
0.0
 11
2.2134
 21
0.4417
 31
0.0
  0
LINE
  8
Board_Outline
 10
2.2134
 20
0.4417
 30
0.0
 11
2.2894000000000001
 21
0.5438
 31
0.0
  0
LINE
  8
Board_Outline
 10
2.2894000000000001
 20
0.5438
 30
0.0
 11
2.3544
 21
0.6532
 31
0.0
  0
LINE
  8
Board_Outline
 10
2.3544
 20
0.6532
 30
0.0
 11
2.4077000000000002
 21
0.7688
 31
0.0
  0
LINE
  8
Board_Outline
 10
2.4077000000000002
 20
0.7688
 30
0.0
 11
2.4487000000000001
 21
0.8894
 31
0.0
  0
LINE
  8
Board_Outline
 10
2.4487000000000001
 20
0.8894
 30
0.0
 11
2.4665093666064366
 21
0.9677738438247794
 31
0.0
  0
LINE
  8
Board_Outline
 10
2.446516314546499
 20
1.5582046913895451
 30
0.0
 11
2.4213
 21
1.6407
 31
0.0
  0
LINE
  8
Board_Outline
 10
2.4213
 20
1.6407
 30
0.0
 11
2.3715999999999999
 21
1.7579
 31
0.0
  0
LINE
  8
Board_Outline
 10
2.3715999999999999
 20
1.7579
 30
0.0
 11
2.3100999999999998
 21
1.8694
 31
0.0
  0
LINE
  8
Board_Outline
 10
2.3100999999999998
 20
1.8694
 30
0.0
 11
2.2372999999999998
 21
1.9738
 31
0.0
  0
LINE
  8
Board_Outline
 10
2.2372999999999998
 20
1.9738
 30
0.0
 11
2.1539999999999999
 21
2.0701000000000001
 31
0.0
  0
LINE
  8
Board_Outline
 10
2.1539999999999999
 20
2.0701000000000001
 30
0.0
 11
2.1280999999999999
 21
2.1004999999999998
 31
0.0
  0
LINE
  8
Board_Outline
 10
2.1280999999999999
 20
2.1004999999999998
 30
0.0
 11
2.1009000000000002
 21
2.1297000000000001
 31
0.0
  0
LINE
  8
Board_Outline
 10
2.1009000000000002
 20
2.1297000000000001
 30
0.0
 11
2.0727000000000002
 21
2.1579999999999999
 31
0.0
  0
LINE
  8
Board_Outline
 10
2.0727000000000002
 20
2.1579999999999999
 30
0.0
 11
2.0434000000000001
 21
2.1850999999999998
 31
0.0
  0
LINE
  8
Board_Outline
 10
2.0434000000000001
 20
2.1850999999999998
 30
0.0
 11
2.0129999999999999
 21
2.2109999999999999
 31
0.0
  0
LINE
  8
Board_Outline
 10
2.0129999999999999
 20
2.2109999999999999
 30
0.0
 11
1.9817
 21
2.2357999999999998
 31
0.0
  0
LINE
  8
Board_Outline
 10
1.9817
 20
2.2357999999999998
 30
0.0
 11
1.9494
 21
2.2593000000000001
 31
0.0
  0
LINE
  8
Board_Outline
 10
1.9494
 20
2.2593000000000001
 30
0.0
 11
1.9162999999999999
 21
2.2816000000000001
 31
0.0
  0
LINE
  8
Board_Outline
 10
1.9162999999999999
 20
2.2816000000000001
 30
0.0
 11
1.8823000000000001
 21
2.3025000000000002
 31
0.0
  0
LINE
  8
Board_Outline
 10
1.8823000000000001
 20
2.3025000000000002
 30
0.0
 11
1.8474999999999999
 21
2.3220999999999998
 31
0.0
  0
LINE
  8
Board_Outline
 10
1.8474999999999999
 20
2.3220999999999998
 30
0.0
 11
1.8120000000000001
 21
2.3403999999999998
 31
0.0
  0
LINE
  8
Board_Outline
 10
1.8120000000000001
 20
2.3403999999999998
 30
0.0
 11
1.7758
 21
2.3573
 31
0.0
  0
LINE
  8
Board_Outline
 10
1.7758
 20
2.3573
 30
0.0
 11
1.7390000000000001
 21
2.3727
 31
0.0
  0
LINE
  8
Board_Outline
 10
1.7390000000000001
 20
2.3727
 30
0.0
 11
1.7016
 21
2.3866999999999998
 31
0.0
  0
LINE
  8
Board_Outline
 10
1.7016
 20
2.3866999999999998
 30
0.0
 11
1.6637999999999999
 21
2.3993000000000002
 31
0.0
  0
LINE
  8
Board_Outline
 10
1.6637999999999999
 20
2.3993000000000002
 30
0.0
 11
1.6254
 21
2.4104000000000001
 31
0.0
  0
LINE
  8
Board_Outline
 10
1.6254
 20
2.4104000000000001
 30
0.0
 11
1.5866
 21
2.4199999999999999
 31
0.0
  0
LINE
  8
Board_Outline
 10
1.5866
 20
2.4199999999999999
 30
0.0
 11
1.5475000000000001
 21
2.4281000000000001
 31
0.0
  0
LINE
  8
Board_Outline
 10
1.5475000000000001
 20
2.4281000000000001
 30
0.0
 11
1.5082
 21
2.4346000000000001
 31
0.0
  0
LINE
  8
Board_Outline
 10
1.5082
 20
2.4346000000000001
 30
0.0
 11
1.4684999999999999
 21
2.4397000000000002
 31
0.0
  0
LINE
  8
Board_Outline
 10
1.4684999999999999
 20
2.4397000000000002
 30
0.0
 11
1.4288000000000001
 21
2.4430999999999998
 31
0.0
  0
LINE
  8
Board_Outline
 10
1.4288000000000001
 20
2.4430999999999998
 30
0.0
 11
1.3889
 21
2.4451000000000001
 31
0.0
  0
LINE
  8
Board_Outline
 10
1.3889
 20
2.4451000000000001
 30
0.0
 11
1.349
 21
2.4455
 31
0.0
  0
LINE
  8
Board_Outline
 10
1.349
 20
2.4455
 30
0.0
 11
1.3664000000000001
 21
2.4741
 31
0.0
  0
LINE
  8
Board_Outline
 10
1.3664000000000001
 20
2.4741
 30
0.0
 11
1.3737999999999999
 21
2.5068000000000001
 31
0.0
  0
LINE
  8
Board_Outline
 10
1.3737999999999999
 20
2.5068000000000001
 30
0.0
 11
1.3703000000000001
 21
2.5400999999999998
 31
0.0
  0
LINE
  8
Board_Outline
 10
1.3703000000000001
 20
2.5400999999999998
 30
0.0
 11
1.3564000000000001
 21
2.5706000000000002
 31
0.0
  0
LINE
  8
Board_Outline
 10
1.3564000000000001
 20
2.5706000000000002
 30
0.0
 11
1.3334999999999999
 21
2.5951
 31
0.0
  0
LINE
  8
Board_Outline
 10
1.3334999999999999
 20
2.5951
 30
0.0
 11
1.304
 21
2.6109
 31
0.0
  0
LINE
  8
Board_Outline
 10
1.304
 20
2.6109
 30
0.0
 11
1.2709999999999999
 21
2.6164999999999998
 31
0.0
  0
LINE
  8
Board_Outline
 10
1.2709999999999999
 20
2.6164999999999998
 30
0.0
 11
1.2379
 21
2.6109
 31
0.0
  0
LINE
  8
Board_Outline
 10
1.2379
 20
2.6109
 30
0.0
 11
1.2083999999999999
 21
2.5951
 31
0.0
  0
LINE
  8
Board_Outline
 10
1.2083999999999999
 20
2.5951
 30
0.0
 11
1.1855
 21
2.5706000000000002
 31
0.0
  0
LINE
  8
Board_Outline
 10
1.1855
 20
2.5706000000000002
 30
0.0
 11
1.1716
 21
2.5400999999999998
 31
0.0
  0
LINE
  8
Board_Outline
 10
1.1716
 20
2.5400999999999998
 30
0.0
 11
1.1681999999999999
 21
2.5068000000000001
 31
0.0
  0
LINE
  8
Board_Outline
 10
1.1681999999999999
 20
2.5068000000000001
 30
0.0
 11
1.1755
 21
2.4741
 31
0.0
  0
LINE
  8
Board_Outline
 10
1.1755
 20
2.4741
 30
0.0
 11
1.1930000000000001
 21
2.4455
 31
0.0
  0
LINE
  8
Board_Outline
 10
1.1930000000000001
 20
2.4455
 30
0.0
 11
1.1553
 21
2.4439000000000002
 31
0.0
  0
LINE
  8
Board_Outline
 10
1.1553
 20
2.4439000000000002
 30
0.0
 11
1.1177999999999999
 21
2.4405999999999999
 31
0.0
  0
LINE
  8
Board_Outline
 10
1.1177999999999999
 20
2.4405999999999999
 30
0.0
 11
1.0805
 21
2.4357000000000002
 31
0.0
  0
LINE
  8
Board_Outline
 10
1.0805
 20
2.4357000000000002
 30
0.0
 11
1.0434000000000001
 21
2.4289999999999998
 31
0.0
  0
LINE
  8
Board_Outline
 10
1.0434000000000001
 20
2.4289999999999998
 30
0.0
 11
1.0066999999999999
 21
2.4205999999999999
 31
0.0
  0
LINE
  8
Board_Outline
 10
1.0066999999999999
 20
2.4205999999999999
 30
0.0
 11
0.9704
 21
2.4106000000000001
 31
0.0
  0
LINE
  8
Board_Outline
 10
0.9704
 20
2.4106000000000001
 30
0.0
 11
0.9346
 21
2.399
 31
0.0
  0
LINE
  8
Board_Outline
 10
0.9346
 20
2.399
 30
0.0
 11
0.8538
 21
2.3732000000000002
 31
0.0
  0
LINE
  8
Board_Outline
 10
0.8538
 20
2.3732000000000002
 30
0.0
 11
0.7749
 21
2.3418999999999999
 31
0.0
  0
LINE
  8
Board_Outline
 10
0.7749
 20
2.3418999999999999
 30
0.0
 11
0.6984
 21
2.3052000000000001
 31
0.0
  0
LINE
  8
Board_Outline
 10
0.6984
 20
2.3052000000000001
 30
0.0
 11
0.6247
 21
2.2631999999999999
 31
0.0
  0
LINE
  8
Board_Outline
 10
0.6247
 20
2.2631999999999999
 30
0.0
 11
0.554
 21
2.2162000000000002
 31
0.0
  0
LINE
  8
Board_Outline
 10
0.554
 20
2.2162000000000002
 30
0.0
 11
0.4868
 21
2.1644999999999999
 31
0.0
  0
LINE
  8
Board_Outline
 10
0.4868
 20
2.1644999999999999
 30
0.0
 11
0.4234
 21
2.1080999999999999
 31
0.0
  0
LINE
  8
Board_Outline
 10
0.4234
 20
2.1080999999999999
 30
0.0
 11
0.364
 21
2.0476000000000001
 31
0.0
  0
LINE
  8
Board_Outline
 10
0.364
 20
2.0476000000000001
 30
0.0
 11
0.3089
 21
1.9830000000000001
 31
0.0
  0
LINE
  8
Board_Outline
 10
0.3089
 20
1.9830000000000001
 30
0.0
 11
0.2585
 21
1.9147000000000001
 31
0.0
  0
LINE
  8
Board_Outline
 10
0.2585
 20
1.9147000000000001
 30
0.0
 11
0.2129
 21
1.8431999999999999
 31
0.0
  0
LINE
  8
Board_Outline
 10
0.2129
 20
1.8431999999999999
 30
0.0
 11
0.1725
 21
1.7685999999999999
 31
0.0
  0
LINE
  8
Board_Outline
 10
0.1725
 20
1.7685999999999999
 30
0.0
 11
0.1373
 21
1.6914
 31
0.0
  0
LINE
  8
Board_Outline
 10
0.1373
 20
1.6914
 30
0.0
 11
0.1075
 21
1.6119000000000001
 31
0.0
  0
LINE
  8
Board_Outline
 10
0.1075
 20
1.6119000000000001
 30
0.0
 11
0.0834
 21
1.5306
 31
0.0
  0
LINE
  8
Board_Outline
 10
0.0834
 20
1.5306
 30
0.0
 11
0.0649
 21
1.4478
 31
0.0
  0
LINE
  8
Board_Outline
 10
0.0649
 20
1.4478
 30
0.0
 11
0.0523
 21
1.3638999999999999
 31
0.0
  0
LINE
  8
Board_Outline
 10
0.0523
 20
1.3638999999999999
 30
0.0
 11
0.0455
 21
1.2793000000000001
 31
0.0
  0
LINE
  8
Board_Outline
 10
0.0455
 20
1.2793000000000001
 30
0.0
 11
0.0446
 21
1.1944999999999999
 31
0.0
  0
LINE
  8
Board_Outline
 10
0.0446
 20
1.1944999999999999
 30
0.0
 11
0.0496
 21
1.1097999999999999
 31
0.0
  0
LINE
  8
Board_Outline
 10
0.0496
 20
1.1097999999999999
 30
0.0
 11
0.0605
 21
1.0256000000000001
 31
0.0
  0
LINE
  8
Board_Outline
 10
0.0605
 20
1.0256000000000001
 30
0.0
 11
0.0771
 21
0.9425
 31
0.0
  0
LINE
  8
Board_Outline
 10
0.0771
 20
0.9425
 30
0.0
 11
0.0996
 21
0.8606
 31
0.0
  0
LINE
  8
Board_Outline
 10
0.0996
 20
0.8606
 30
0.0
 11
0.1276
 21
0.7806
 31
0.0
  0
LINE
  8
Board_Outline
 10
0.1276
 20
0.7806
 30
0.0
 11
0.1612
 21
0.7026
 31
0.0
  0
LINE
  8
Board_Outline
 10
0.1612
 20
0.7026
 30
0.0
 11
0.2001
 21
0.6272
 31
0.0
  0
LINE
  8
Board_Outline
 10
0.2001
 20
0.6272
 30
0.0
 11
0.2441
 21
0.5547
 31
0.0
  0
LINE
  8
Board_Outline
 10
0.2441
 20
0.5547
 30
0.0
 11
0.2931
 21
0.4854
 31
0.0
  0
LINE
  8
Board_Outline
 10
0.2931
 20
0.4854
 30
0.0
 11
0.3467
 21
0.4197
 31
0.0
  0
LINE
  8
Board_Outline
 10
0.3467
 20
0.4197
 30
0.0
 11
0.4048
 21
0.3579
 31
0.0
  0
LINE
  8
Board_Outline
 10
2.5198
 20
0.9361250000000041
 30
0.0
 11
2.5179999999999998
 21
0.9458
 31
0.0
  0
LINE
  8
Board_Outline
 10
2.5179999999999998
 20
0.9458
 30
0.0
 11
2.5165999999999999
 21
0.9500999999999999
 31
0.0
  0
LINE
  8
Board_Outline
 10
2.5165999999999999
 20
0.9500999999999999
 30
0.0
 11
2.5148000000000001
 21
0.9540999999999999
 31
0.0
  0
LINE
  8
Board_Outline
 10
2.5148000000000001
 20
0.9540999999999999
 30
0.0
 11
2.5124
 21
0.9579
 31
0.0
  0
LINE
  8
Board_Outline
 10
2.5124
 20
0.9579
 30
0.0
 11
2.5095999999999998
 21
0.9613
 31
0.0
  0
LINE
  8
Board_Outline
 10
2.5095999999999998
 20
0.9613
 30
0.0
 11
2.5064000000000002
 21
0.9643
 31
0.0
  0
LINE
  8
Board_Outline
 10
2.5064000000000002
 20
0.9643
 30
0.0
 11
2.5028000000000001
 21
0.967
 31
0.0
  0
LINE
  8
Board_Outline
 10
2.5028000000000001
 20
0.967
 30
0.0
 11
2.4988999999999999
 21
0.9691
 31
0.0
  0
LINE
  8
Board_Outline
 10
2.4988999999999999
 20
0.9691
 30
0.0
 11
2.4948000000000001
 21
0.9708
 31
0.0
  0
LINE
  8
Board_Outline
 10
2.4948000000000001
 20
0.9708
 30
0.0
 11
2.4904999999999999
 21
0.9719
 31
0.0
  0
LINE
  8
Board_Outline
 10
2.4904999999999999
 20
0.9719
 30
0.0
 11
2.4861
 21
0.9724
 31
0.0
  0
LINE
  8
Board_Outline
 10
2.4861
 20
0.9724
 30
0.0
 11
2.4815999999999998
 21
0.9724
 31
0.0
  0
LINE
  8
Board_Outline
 10
2.4815999999999998
 20
0.9724
 30
0.0
 11
2.4771999999999998
 21
0.9718
 31
0.0
  0
LINE
  8
Board_Outline
 10
2.4771999999999998
 20
0.9718
 30
0.0
 11
2.4729999999999999
 21
0.9707
 31
0.0
  0
LINE
  8
Board_Outline
 10
2.4729999999999999
 20
0.9707
 30
0.0
 11
2.4687999999999999
 21
0.9691
 31
0.0
  0
LINE
  8
Board_Outline
 10
2.4687999999999999
 20
0.9691
 30
0.0
 11
2.4665093666064366
 21
0.9677738438247792
 31
0.0
  0
LINE
  8
Board_Outline
 10
2.446516314546499
 20
1.5582046913895449
 30
0.0
 11
2.4502999999999999
 21
1.5551999999999999
 31
0.0
  0
LINE
  8
Board_Outline
 10
2.4502999999999999
 20
1.5551999999999999
 30
0.0
 11
2.4538000000000002
 21
1.5527
 31
0.0
  0
LINE
  8
Board_Outline
 10
2.4538000000000002
 20
1.5527
 30
0.0
 11
2.4575
 21
1.5506
 31
0.0
  0
LINE
  8
Board_Outline
 10
2.4575
 20
1.5506
 30
0.0
 11
2.4613999999999998
 21
1.5487
 31
0.0
  0
LINE
  8
Board_Outline
 10
2.4613999999999998
 20
1.5487
 30
0.0
 11
2.4653999999999998
 21
1.5471999999999999
 31
0.0
  0
LINE
  8
Board_Outline
 10
2.4653999999999998
 20
1.5471999999999999
 30
0.0
 11
2.4695
 21
1.546
 31
0.0
  0
LINE
  8
Board_Outline
 10
2.4695
 20
1.546
 30
0.0
 11
2.4737
 21
1.5450999999999999
 31
0.0
  0
LINE
  8
Board_Outline
 10
2.4737
 20
1.5450999999999999
 30
0.0
 11
2.4780000000000002
 21
1.5445
 31
0.0
  0
LINE
  8
Board_Outline
 10
2.4780000000000002
 20
1.5445
 30
0.0
 11
2.4823
 21
1.5443
 31
0.0
  0
LINE
  8
Board_Outline
 10
2.4823
 20
1.5443
 30
0.0
 11
2.4866000000000001
 21
1.5444
 31
0.0
  0
LINE
  8
Board_Outline
 10
2.4866000000000001
 20
1.5444
 30
0.0
 11
2.4908999999999999
 21
1.5448
 31
0.0
  0
LINE
  8
Board_Outline
 10
2.4908999999999999
 20
1.5448
 30
0.0
 11
2.4950999999999999
 21
1.5456000000000001
 31
0.0
  0
LINE
  8
Board_Outline
 10
2.4950999999999999
 20
1.5456000000000001
 30
0.0
 11
2.4992000000000001
 21
1.5467
 31
0.0
  0
LINE
  8
Board_Outline
 10
2.4992000000000001
 20
1.5467
 30
0.0
 11
2.5032999999999999
 21
1.5481
 31
0.0
  0
LINE
  8
Board_Outline
 10
2.5032999999999999
 20
1.5481
 30
0.0
 11
2.5072000000000001
 21
1.5499000000000001
 31
0.0
  0
LINE
  8
Board_Outline
 10
2.5072000000000001
 20
1.5499000000000001
 30
0.0
 11
2.5110000000000001
 21
1.5519000000000001
 31
0.0
  0
LINE
  8
Board_Outline
 10
2.5110000000000001
 20
1.5519000000000001
 30
0.0
 11
2.5146000000000002
 21
1.5543
 31
0.0
  0
LINE
  8
Board_Outline
 10
2.5146000000000002
 20
1.5543
 30
0.0
 11
2.5179999999999998
 21
1.5569
 31
0.0
  0
LINE
  8
Board_Outline
 10
2.5179999999999998
 20
1.5569
 30
0.0
 11
2.5198
 21
1.5585312500000001
 31
0.0
  0
LINE
  8
Board_Outline
 10
2.5198
 20
0.9361250000000042
 30
0.0
 11
2.5198
 21
0.5975
 31
0.0
  0
LINE
  8
Board_Outline
 10
0.0
 20
4.1085000000000003
 30
0.0
 11
0.0011
 21
4.0644
 31
0.0
  0
LINE
  8
Board_Outline
 10
0.0011
 20
4.0644
 30
0.0
 11
0.0053
 21
4.0204000000000004
 31
0.0
  0
LINE
  8
Board_Outline
 10
0.0053
 20
4.0204000000000004
 30
0.0
 11
0.0124
 21
3.9769000000000001
 31
0.0
  0
LINE
  8
Board_Outline
 10
0.0124
 20
3.9769000000000001
 30
0.0
 11
0.0225
 21
3.9339
 31
0.0
  0
LINE
  8
Board_Outline
 10
0.0225
 20
3.9339
 30
0.0
 11
0.0355
 21
3.8917000000000002
 31
0.0
  0
LINE
  8
Board_Outline
 10
0.0355
 20
3.8917000000000002
 30
0.0
 11
0.0513
 21
3.8504999999999998
 31
0.0
  0
LINE
  8
Board_Outline
 10
0.0513
 20
3.8504999999999998
 30
0.0
 11
0.0699
 21
3.8105000000000002
 31
0.0
  0
LINE
  8
Board_Outline
 10
0.0699
 20
3.8105000000000002
 30
0.0
 11
0.0912
 21
3.7717999999999998
 31
0.0
  0
LINE
  8
Board_Outline
 10
0.0912
 20
3.7717999999999998
 30
0.0
 11
0.1151
 21
3.7347000000000001
 31
0.0
  0
LINE
  8
Board_Outline
 10
0.1151
 20
3.7347000000000001
 30
0.0
 11
0.1414
 21
3.6993
 31
0.0
  0
LINE
  8
Board_Outline
 10
0.1414
 20
3.6993
 30
0.0
 11
0.1701
 21
3.6657999999999999
 31
0.0
  0
LINE
  8
Board_Outline
 10
0.1701
 20
3.6657999999999999
 30
0.0
 11
0.2011
 21
3.6343000000000001
 31
0.0
  0
LINE
  8
Board_Outline
 10
0.2011
 20
3.6343000000000001
 30
0.0
 11
0.2341
 21
3.605
 31
0.0
  0
LINE
  8
Board_Outline
 10
0.2341
 20
3.605
 30
0.0
 11
0.269
 21
3.5779999999999998
 31
0.0
  0
LINE
  8
Board_Outline
 10
0.269
 20
3.5779999999999998
 30
0.0
 11
0.3057
 21
3.5533999999999999
 31
0.0
  0
LINE
  8
Board_Outline
 10
0.3057
 20
3.5533999999999999
 30
0.0
 11
0.3439
 21
3.5314000000000001
 31
0.0
  0
LINE
  8
Board_Outline
 10
0.3439
 20
3.5314000000000001
 30
0.0
 11
0.3836
 21
3.5121000000000002
 31
0.0
  0
LINE
  8
Board_Outline
 10
0.3836
 20
3.5121000000000002
 30
0.0
 11
0.4245
 21
3.4954999999999998
 31
0.0
  0
LINE
  8
Board_Outline
 10
0.4245
 20
3.4954999999999998
 30
0.0
 11
0.4665
 21
3.4817
 31
0.0
  0
LINE
  8
Board_Outline
 10
0.4665
 20
3.4817
 30
0.0
 11
0.5092
 21
3.4708999999999999
 31
0.0
  0
LINE
  8
Board_Outline
 10
0.5092
 20
3.4708999999999999
 30
0.0
 11
0.5092
 21
3.0859000000000001
 31
0.0
  0
LINE
  8
Board_Outline
 10
0.5092
 20
3.0859000000000001
 30
0.0
 11
0.1592
 21
3.0859000000000001
 31
0.0
  0
LINE
  8
Board_Outline
 10
0.1592
 20
3.0859000000000001
 30
0.0
 11
0.1592
 21
2.7909000000000002
 31
0.0
  0
LINE
  8
Board_Outline
 10
0.1592
 20
2.7909000000000002
 30
0.0
 11
0.5092
 21
2.7909000000000002
 31
0.0
  0
LINE
  8
Board_Outline
 10
0.5092
 20
2.7909000000000002
 30
0.0
 11
0.5092
 21
2.4409000000000001
 31
0.0
  0
LINE
  8
Board_Outline
 10
0.5092
 20
2.4409000000000001
 30
0.0
 11
0.7992
 21
2.4409000000000001
 31
0.0
  0
LINE
  8
Board_Outline
 10
0.7992
 20
2.4409000000000001
 30
0.0
 11
0.7992
 21
2.7909000000000002
 31
0.0
  0
LINE
  8
Board_Outline
 10
0.7992
 20
2.7909000000000002
 30
0.0
 11
1.1492
 21
2.7909000000000002
 31
0.0
  0
LINE
  8
Board_Outline
 10
1.1492
 20
2.7909000000000002
 30
0.0
 11
1.1492
 21
3.0859000000000001
 31
0.0
  0
LINE
  8
Board_Outline
 10
1.1492
 20
3.0859000000000001
 30
0.0
 11
0.7992
 21
3.0859000000000001
 31
0.0
  0
LINE
  8
Board_Outline
 10
0.7992
 20
3.0859000000000001
 30
0.0
 11
0.7992
 21
3.4708999999999999
 31
0.0
  0
LINE
  8
Board_Outline
 10
0.7992
 20
3.4708999999999999
 30
0.0
 11
0.8372000000000001
 21
3.4784000000000002
 31
0.0
  0
LINE
  8
Board_Outline
 10
0.8372000000000001
 20
3.4784000000000002
 30
0.0
 11
0.8746
 21
3.4885999999999999
 31
0.0
  0
LINE
  8
Board_Outline
 10
0.8746
 20
3.4885999999999999
 30
0.0
 11
0.9112
 21
3.5013999999999998
 31
0.0
  0
LINE
  8
Board_Outline
 10
0.9112
 20
3.5013999999999998
 30
0.0
 11
0.9467
 21
3.5167999999999999
 31
0.0
  0
LINE
  8
Board_Outline
 10
0.9467
 20
3.5167999999999999
 30
0.0
 11
0.9811
 21
3.5347
 31
0.0
  0
LINE
  8
Board_Outline
 10
0.9811
 20
3.5347
 30
0.0
 11
1.0141
 21
3.5550000000000002
 31
0.0
  0
LINE
  8
Board_Outline
 10
1.0141
 20
3.5550000000000002
 30
0.0
 11
1.0455000000000001
 21
3.5775999999999999
 31
0.0
  0
LINE
  8
Board_Outline
 10
1.0455000000000001
 20
3.5775999999999999
 30
0.0
 11
1.0752999999999999
 21
3.6023999999999998
 31
0.0
  0
LINE
  8
Board_Outline
 10
1.0752999999999999
 20
3.6023999999999998
 30
0.0
 11
1.1032
 21
3.6292
 31
0.0
  0
LINE
  8
Board_Outline
 10
1.1032
 20
3.6292
 30
0.0
 11
1.1292
 21
3.6579999999999999
 31
0.0
  0
LINE
  8
Board_Outline
 10
1.1292
 20
3.6579999999999999
 30
0.0
 11
1.165942292235975
 21
3.7013724803086321
 31
0.0
  0
LINE
  8
Board_Outline
 10
1.2859318855134321
 20
3.9540553602811954
 30
0.0
 11
1.2930999999999999
 21
3.9851000000000001
 31
0.0
  0
LINE
  8
Board_Outline
 10
1.2930999999999999
 20
3.9851000000000001
 30
0.0
 11
1.3012999999999999
 21
4.0462999999999996
 31
0.0
  0
LINE
  8
Board_Outline
 10
1.3012999999999999
 20
4.0462999999999996
 30
0.0
 11
1.3036000000000001
 21
4.1081000000000003
 31
0.0
  0
LINE
  8
Board_Outline
 10
1.3036000000000001
 20
4.1081000000000003
 30
0.0
 11
1.3
 21
4.1696999999999997
 31
0.0
  0
LINE
  8
Board_Outline
 10
1.3
 20
4.1696999999999997
 30
0.0
 11
1.2907
 21
4.2308000000000003
 31
0.0
  0
LINE
  8
Board_Outline
 10
1.2907
 20
4.2308000000000003
 30
0.0
 11
1.2756000000000001
 21
4.2907000000000002
 31
0.0
  0
LINE
  8
Board_Outline
 10
1.2756000000000001
 20
4.2907000000000002
 30
0.0
 11
1.2547999999999999
 21
4.3489000000000004
 31
0.0
  0
LINE
  8
Board_Outline
 10
1.2547999999999999
 20
4.3489000000000004
 30
0.0
 11
1.2286999999999999
 21
4.4048999999999996
 31
0.0
  0
LINE
  8
Board_Outline
 10
1.2286999999999999
 20
4.4048999999999996
 30
0.0
 11
1.1974
 21
4.4581999999999997
 31
0.0
  0
LINE
  8
Board_Outline
 10
1.1974
 20
4.4581999999999997
 30
0.0
 11
1.1612
 21
4.5082000000000004
 31
0.0
  0
LINE
  8
Board_Outline
 10
1.1612
 20
4.5082000000000004
 30
0.0
 11
1.1204000000000001
 21
4.5545999999999998
 31
0.0
  0
LINE
  8
Board_Outline
 10
1.1204000000000001
 20
4.5545999999999998
 30
0.0
 11
1.0752999999999999
 21
4.5970000000000004
 31
0.0
  0
LINE
  8
Board_Outline
 10
1.0752999999999999
 20
4.5970000000000004
 30
0.0
 11
1.0265
 21
4.6348000000000003
 31
0.0
  0
LINE
  8
Board_Outline
 10
1.0265
 20
4.6348000000000003
 30
0.0
 11
0.9743000000000001
 21
4.6679000000000004
 31
0.0
  0
LINE
  8
Board_Outline
 10
0.9743000000000001
 20
4.6679000000000004
 30
0.0
 11
0.9192
 21
4.6959
 31
0.0
  0
LINE
  8
Board_Outline
 10
0.9192
 20
4.6959
 30
0.0
 11
0.8837
 21
4.6944999999999997
 31
0.0
  0
LINE
  8
Board_Outline
 10
0.8837
 20
4.6944999999999997
 30
0.0
 11
0.8488
 21
4.7016
 31
0.0
  0
LINE
  8
Board_Outline
 10
0.8488
 20
4.7016
 30
0.0
 11
0.8167
 21
4.7169999999999996
 31
0.0
  0
LINE
  8
Board_Outline
 10
0.8167
 20
4.7169999999999996
 30
0.0
 11
0.7893
 21
4.7394999999999996
 31
0.0
  0
LINE
  8
Board_Outline
 10
0.7893
 20
4.7394999999999996
 30
0.0
 11
0.768
 21
4.7680999999999996
 31
0.0
  0
LINE
  8
Board_Outline
 10
0.768
 20
4.7680999999999996
 30
0.0
 11
0.7542
 21
4.8009000000000004
 31
0.0
  0
LINE
  8
Board_Outline
 10
0.7542
 20
4.8009000000000004
 30
0.0
 11
0.7521
 21
4.8273000000000001
 31
0.0
  0
LINE
  8
Board_Outline
 10
0.7521
 20
4.8273000000000001
 30
0.0
 11
0.7427
 21
4.8521999999999998
 31
0.0
  0
LINE
  8
Board_Outline
 10
0.7427
 20
4.8521999999999998
 30
0.0
 11
0.7268
 21
4.8734000000000002
 31
0.0
  0
LINE
  8
Board_Outline
 10
0.7268
 20
4.8734000000000002
 30
0.0
 11
0.7055
 21
4.8894000000000002
 31
0.0
  0
LINE
  8
Board_Outline
 10
0.7055
 20
4.8894000000000002
 30
0.0
 11
0.6807
 21
4.8987999999999996
 31
0.0
  0
LINE
  8
Board_Outline
 10
0.6807
 20
4.8987999999999996
 30
0.0
 11
0.6542
 21
4.9009
 31
0.0
  0
LINE
  8
Board_Outline
 10
0.6542
 20
4.9009
 30
0.0
 11
0.6278
 21
4.8987999999999996
 31
0.0
  0
LINE
  8
Board_Outline
 10
0.6278
 20
4.8987999999999996
 30
0.0
 11
0.6029
 21
4.8894000000000002
 31
0.0
  0
LINE
  8
Board_Outline
 10
0.6029
 20
4.8894000000000002
 30
0.0
 11
0.5817
 21
4.8734000000000002
 31
0.0
  0
LINE
  8
Board_Outline
 10
0.5817
 20
4.8734000000000002
 30
0.0
 11
0.5657
 21
4.8521999999999998
 31
0.0
  0
LINE
  8
Board_Outline
 10
0.5657
 20
4.8521999999999998
 30
0.0
 11
0.5563
 21
4.8273000000000001
 31
0.0
  0
LINE
  8
Board_Outline
 10
0.5563
 20
4.8273000000000001
 30
0.0
 11
0.5542
 21
4.8009000000000004
 31
0.0
  0
LINE
  8
Board_Outline
 10
0.5542
 20
4.8009000000000004
 30
0.0
 11
0.5405
 21
4.7680999999999996
 31
0.0
  0
LINE
  8
Board_Outline
 10
0.5405
 20
4.7680999999999996
 30
0.0
 11
0.5192
 21
4.7396000000000003
 31
0.0
  0
LINE
  8
Board_Outline
 10
0.5192
 20
4.7396000000000003
 30
0.0
 11
0.4917
 21
4.7169999999999996
 31
0.0
  0
LINE
  8
Board_Outline
 10
0.4917
 20
4.7169999999999996
 30
0.0
 11
0.4596
 21
4.7016
 31
0.0
  0
LINE
  8
Board_Outline
 10
0.4596
 20
4.7016
 30
0.0
 11
0.4248
 21
4.6944999999999997
 31
0.0
  0
LINE
  8
Board_Outline
 10
0.4248
 20
4.6944999999999997
 30
0.0
 11
0.3892
 21
4.6959
 31
0.0
  0
LINE
  8
Board_Outline
 10
0.3892
 20
4.6959
 30
0.0
 11
0.3541
 21
4.6787000000000001
 31
0.0
  0
LINE
  8
Board_Outline
 10
0.3541
 20
4.6787000000000001
 30
0.0
 11
0.3201
 21
4.6595000000000004
 31
0.0
  0
LINE
  8
Board_Outline
 10
0.3201
 20
4.6595000000000004
 30
0.0
 11
0.2872
 21
4.6383000000000001
 31
0.0
  0
LINE
  8
Board_Outline
 10
0.2872
 20
4.6383000000000001
 30
0.0
 11
0.2557
 21
4.6151999999999997
 31
0.0
  0
LINE
  8
Board_Outline
 10
0.2557
 20
4.6151999999999997
 30
0.0
 11
0.2256
 21
4.5902000000000003
 31
0.0
  0
LINE
  8
Board_Outline
 10
0.2256
 20
4.5902000000000003
 30
0.0
 11
0.197
 21
4.5636000000000001
 31
0.0
  0
LINE
  8
Board_Outline
 10
0.197
 20
4.5636000000000001
 30
0.0
 11
0.17
 21
4.5353000000000003
 31
0.0
  0
LINE
  8
Board_Outline
 10
0.17
 20
4.5353000000000003
 30
0.0
 11
0.1447
 21
4.5054999999999996
 31
0.0
  0
LINE
  8
Board_Outline
 10
0.1447
 20
4.5054999999999996
 30
0.0
 11
0.1212
 21
4.4741999999999997
 31
0.0
  0
LINE
  8
Board_Outline
 10
0.1212
 20
4.4741999999999997
 30
0.0
 11
0.0997
 21
4.4417
 31
0.0
  0
LINE
  8
Board_Outline
 10
0.0997
 20
4.4417
 30
0.0
 11
0.08
 21
4.4078999999999997
 31
0.0
  0
LINE
  8
Board_Outline
 10
0.08
 20
4.4078999999999997
 30
0.0
 11
0.0624
 21
4.3730000000000002
 31
0.0
  0
LINE
  8
Board_Outline
 10
0.0624
 20
4.3730000000000002
 30
0.0
 11
0.0469
 21
4.3371000000000004
 31
0.0
  0
LINE
  8
Board_Outline
 10
0.0469
 20
4.3371000000000004
 30
0.0
 11
0.0335
 21
4.3003999999999998
 31
0.0
  0
LINE
  8
Board_Outline
 10
0.0335
 20
4.3003999999999998
 30
0.0
 11
0.0223
 21
4.2629000000000001
 31
0.0
  0
LINE
  8
Board_Outline
 10
0.0223
 20
4.2629000000000001
 30
0.0
 11
0.0133
 21
4.2248999999999999
 31
0.0
  0
LINE
  8
Board_Outline
 10
0.0133
 20
4.2248999999999999
 30
0.0
 11
0.0066
 21
4.1863999999999999
 31
0.0
  0
LINE
  8
Board_Outline
 10
0.0066
 20
4.1863999999999999
 30
0.0
 11
0.0021
 21
4.1475
 31
0.0
  0
LINE
  8
Board_Outline
 10
0.0021
 20
4.1475
 30
0.0
 11
0.0
 21
4.1085000000000003
 31
0.0
  0
LINE
  8
Board_Outline
 10
1.2859318855134318
 20
3.9540553602811954
 30
0.0
 11
1.2879
 21
3.9512999999999998
 31
0.0
  0
LINE
  8
Board_Outline
 10
1.2879
 20
3.9512999999999998
 30
0.0
 11
1.2901
 21
3.9487999999999999
 31
0.0
  0
LINE
  8
Board_Outline
 10
1.2901
 20
3.9487999999999999
 30
0.0
 11
1.2924
 21
3.9464000000000001
 31
0.0
  0
LINE
  8
Board_Outline
 10
1.2924
 20
3.9464000000000001
 30
0.0
 11
1.2948999999999999
 21
3.9441000000000002
 31
0.0
  0
LINE
  8
Board_Outline
 10
1.2948999999999999
 20
3.9441000000000002
 30
0.0
 11
1.2975000000000001
 21
3.9420000000000002
 31
0.0
  0
LINE
  8
Board_Outline
 10
1.2975000000000001
 20
3.9420000000000002
 30
0.0
 11
1.3003
 21
3.9399999999999999
 31
0.0
  0
LINE
  8
Board_Outline
 10
1.3003
 20
3.9399999999999999
 30
0.0
 11
1.3031999999999999
 21
3.9382999999999999
 31
0.0
  0
LINE
  8
Board_Outline
 10
1.3031999999999999
 20
3.9382999999999999
 30
0.0
 11
1.3061
 21
3.9367000000000001
 31
0.0
  0
LINE
  8
Board_Outline
 10
1.3061
 20
3.9367000000000001
 30
0.0
 11
1.3091999999999999
 21
3.9354
 31
0.0
  0
LINE
  8
Board_Outline
 10
1.3091999999999999
 20
3.9354
 30
0.0
 11
1.3124
 21
3.9342000000000001
 31
0.0
  0
LINE
  8
Board_Outline
 10
1.3124
 20
3.9342000000000001
 30
0.0
 11
1.3156000000000001
 21
3.9331999999999998
 31
0.0
  0
LINE
  8
Board_Outline
 10
1.3156000000000001
 20
3.9331999999999998
 30
0.0
 11
1.3189
 21
3.9325000000000001
 31
0.0
  0
LINE
  8
Board_Outline
 10
1.3189
 20
3.9325000000000001
 30
0.0
 11
1.3222
 21
3.9319000000000002
 31
0.0
  0
LINE
  8
Board_Outline
 10
1.3222
 20
3.9319000000000002
 30
0.0
 11
1.3254999999999999
 21
3.9316
 31
0.0
  0
LINE
  8
Board_Outline
 10
1.3254999999999999
 20
3.9316
 30
0.0
 11
1.3289
 21
3.9315000000000002
 31
0.0
  0
LINE
  8
Board_Outline
 10
1.3289
 20
3.9315000000000002
 30
0.0
 11
1.3323
 21
3.9316
 31
0.0
  0
LINE
  8
Board_Outline
 10
1.3323
 20
3.9316
 30
0.0
 11
1.3355999999999999
 21
3.9319999999999999
 31
0.0
  0
LINE
  8
Board_Outline
 10
1.3355999999999999
 20
3.9319999999999999
 30
0.0
 11
1.3391894736842098
 21
3.9325438596491229
 31
0.0
  0
LINE
  8
Board_Outline
 10
1.2004848739495793
 20
3.6670621848739522
 30
0.0
 11
1.1992
 21
3.6707999999999998
 31
0.0
  0
LINE
  8
Board_Outline
 10
1.1992
 20
3.6707999999999998
 30
0.0
 11
1.1979
 21
3.6738
 31
0.0
  0
LINE
  8
Board_Outline
 10
1.1979
 20
3.6738
 30
0.0
 11
1.1963999999999999
 21
3.6768000000000001
 31
0.0
  0
LINE
  8
Board_Outline
 10
1.1963999999999999
 20
3.6768000000000001
 30
0.0
 11
1.1947000000000001
 21
3.6797
 31
0.0
  0
LINE
  8
Board_Outline
 10
1.1947000000000001
 20
3.6797
 30
0.0
 11
1.1928000000000001
 21
3.6823999999999999
 31
0.0
  0
LINE
  8
Board_Outline
 10
1.1928000000000001
 20
3.6823999999999999
 30
0.0
 11
1.1908000000000001
 21
3.6850000000000001
 31
0.0
  0
LINE
  8
Board_Outline
 10
1.1908000000000001
 20
3.6850000000000001
 30
0.0
 11
1.1886000000000001
 21
3.6875
 31
0.0
  0
LINE
  8
Board_Outline
 10
1.1886000000000001
 20
3.6875
 30
0.0
 11
1.1861999999999999
 21
3.6899000000000002
 31
0.0
  0
LINE
  8
Board_Outline
 10
1.1861999999999999
 20
3.6899000000000002
 30
0.0
 11
1.1837
 21
3.6920000000000002
 31
0.0
  0
LINE
  8
Board_Outline
 10
1.1837
 20
3.6920000000000002
 30
0.0
 11
1.181
 21
3.694
 31
0.0
  0
LINE
  8
Board_Outline
 10
1.181
 20
3.694
 30
0.0
 11
1.1782999999999999
 21
3.6959
 31
0.0
  0
LINE
  8
Board_Outline
 10
1.1782999999999999
 20
3.6959
 30
0.0
 11
1.1754
 21
3.6974999999999998
 31
0.0
  0
LINE
  8
Board_Outline
 10
1.1754
 20
3.6974999999999998
 30
0.0
 11
1.1724000000000001
 21
3.6989999999999998
 31
0.0
  0
LINE
  8
Board_Outline
 10
1.1724000000000001
 20
3.6989999999999998
 30
0.0
 11
1.1693
 21
3.7002999999999999
 31
0.0
  0
LINE
  8
Board_Outline
 10
1.1693
 20
3.7002999999999999
 30
0.0
 11
1.1661999999999999
 21
3.7012999999999998
 31
0.0
  0
LINE
  8
Board_Outline
 10
1.1661999999999999
 20
3.7012999999999998
 30
0.0
 11
1.165942292235975
 21
3.7013724803086316
 31
0.0
  0
ENDSEC
  0
EOF
