G04 DipTrace 2.4.0.2*
%INfemalemalecrosspeace.gts*%
%MOMM*%
%ADD10C,0.25*%
%ADD21C,0.165*%
%ADD30R,1.0X0.5*%
%ADD50R,0.5X1.0*%
%ADD57C,0.33*%
%ADD58C,0.95*%
%ADD59C,0.9*%
%ADD60C,2.54*%
%ADD61C,0.61*%
%ADD66R,0.9X2.05*%
%ADD69R,0.3X0.325*%
%ADD70R,0.325X0.3*%
%ADD71R,0.75X0.95*%
%ADD72R,0.95X0.75*%
%ADD75O,1.05X1.55*%
%ADD76R,2.05X0.9*%
%ADD77R,1.15X1.05*%
%ADD78R,1.05X1.15*%
%ADD79O,1.55X1.05*%
%ADD83O,1.05X0.33*%
%ADD84O,0.33X1.05*%
%FSLAX53Y53*%
G04*
G71*
G90*
G75*
G01*
%LNTopMask*%
%LPD*%
X27116Y108285D2*
D21*
Y108303D1*
X27118Y108322D1*
X27122Y108340D1*
X27126Y108358D1*
X27132Y108376D1*
X27140Y108393D1*
X27148Y108410D1*
X27158Y108426D1*
X27169Y108441D1*
X27181Y108456D1*
X27194Y108470D1*
X27208Y108483D1*
X27223Y108495D1*
X27239Y108506D1*
X27255Y108516D1*
X27273Y108524D1*
X27290Y108532D1*
X27309Y108538D1*
X27328Y108543D1*
X27347Y108547D1*
X27366Y108550D1*
X27385Y108551D1*
X27405D1*
X27424Y108550D1*
X27444Y108547D1*
X27463Y108543D1*
X27481Y108538D1*
X27500Y108532D1*
X27518Y108524D1*
X27535Y108516D1*
X27551Y108506D1*
X27567Y108495D1*
X27582Y108483D1*
X27596Y108470D1*
X27609Y108456D1*
X27621Y108441D1*
X27632Y108426D1*
X27642Y108410D1*
X27650Y108393D1*
X27658Y108376D1*
X27664Y108358D1*
X27668Y108340D1*
X27672Y108322D1*
X27674Y108303D1*
X27675Y108285D1*
X27674Y108266D1*
X27672Y108248D1*
X27668Y108229D1*
X27664Y108211D1*
X27658Y108194D1*
X27650Y108176D1*
X27642Y108160D1*
X27632Y108143D1*
X27621Y108128D1*
X27609Y108113D1*
X27596Y108099D1*
X27582Y108087D1*
X27567Y108075D1*
X27551Y108064D1*
X27535Y108054D1*
X27518Y108045D1*
X27500Y108037D1*
X27481Y108031D1*
X27463Y108026D1*
X27444Y108022D1*
X27424Y108020D1*
X27405Y108018D1*
X27385D1*
X27366Y108020D1*
X27347Y108022D1*
X27328Y108026D1*
X27309Y108031D1*
X27290Y108037D1*
X27273Y108045D1*
X27255Y108054D1*
X27239Y108064D1*
X27223Y108075D1*
X27208Y108087D1*
X27194Y108099D1*
X27181Y108113D1*
X27169Y108128D1*
X27158Y108143D1*
X27148Y108160D1*
X27140Y108176D1*
X27132Y108194D1*
X27126Y108211D1*
X27122Y108229D1*
X27118Y108248D1*
X27116Y108266D1*
Y108285D1*
Y107381D2*
Y107400D1*
X27118Y107419D1*
X27122Y107437D1*
X27126Y107455D1*
X27132Y107473D1*
X27140Y107490D1*
X27148Y107507D1*
X27158Y107523D1*
X27169Y107538D1*
X27181Y107553D1*
X27194Y107567D1*
X27208Y107580D1*
X27223Y107592D1*
X27239Y107602D1*
X27255Y107612D1*
X27273Y107621D1*
X27290Y107629D1*
X27309Y107635D1*
X27328Y107640D1*
X27347Y107644D1*
X27366Y107647D1*
X27385Y107648D1*
X27405D1*
X27424Y107647D1*
X27444Y107644D1*
X27463Y107640D1*
X27481Y107635D1*
X27500Y107629D1*
X27518Y107621D1*
X27535Y107612D1*
X27551Y107602D1*
X27567Y107592D1*
X27582Y107580D1*
X27596Y107567D1*
X27609Y107553D1*
X27621Y107538D1*
X27632Y107523D1*
X27642Y107507D1*
X27650Y107490D1*
X27658Y107473D1*
X27664Y107455D1*
X27668Y107437D1*
X27672Y107419D1*
X27674Y107400D1*
X27675Y107381D1*
X27674Y107363D1*
X27672Y107344D1*
X27668Y107326D1*
X27664Y107308D1*
X27658Y107290D1*
X27650Y107273D1*
X27642Y107256D1*
X27632Y107240D1*
X27621Y107225D1*
X27609Y107210D1*
X27596Y107196D1*
X27582Y107183D1*
X27567Y107171D1*
X27551Y107160D1*
X27535Y107151D1*
X27518Y107142D1*
X27500Y107134D1*
X27481Y107128D1*
X27463Y107123D1*
X27444Y107119D1*
X27424Y107116D1*
X27405Y107115D1*
X27385D1*
X27366Y107116D1*
X27347Y107119D1*
X27328Y107123D1*
X27309Y107128D1*
X27290Y107134D1*
X27273Y107142D1*
X27255Y107151D1*
X27239Y107160D1*
X27223Y107171D1*
X27208Y107183D1*
X27194Y107196D1*
X27181Y107210D1*
X27169Y107225D1*
X27158Y107240D1*
X27148Y107256D1*
X27140Y107273D1*
X27132Y107290D1*
X27126Y107308D1*
X27122Y107326D1*
X27118Y107344D1*
X27116Y107363D1*
Y107381D1*
X26219Y109191D2*
X26220Y109210D1*
X26222Y109228D1*
X26225Y109247D1*
X26230Y109265D1*
X26236Y109283D1*
X26243Y109300D1*
X26252Y109317D1*
X26262Y109333D1*
X26272Y109348D1*
X26284Y109363D1*
X26297Y109377D1*
X26312Y109389D1*
X26326Y109401D1*
X26342Y109412D1*
X26359Y109422D1*
X26376Y109431D1*
X26394Y109439D1*
X26412Y109445D1*
X26431Y109450D1*
X26450Y109454D1*
X26469Y109457D1*
X26489Y109458D1*
X26508D1*
X26528Y109457D1*
X26547Y109454D1*
X26566Y109450D1*
X26585Y109445D1*
X26603Y109439D1*
X26621Y109431D1*
X26638Y109422D1*
X26655Y109412D1*
X26671Y109401D1*
X26686Y109389D1*
X26700Y109377D1*
X26713Y109363D1*
X26725Y109348D1*
X26736Y109333D1*
X26745Y109317D1*
X26754Y109300D1*
X26761Y109283D1*
X26767Y109265D1*
X26772Y109247D1*
X26775Y109228D1*
X26777Y109210D1*
X26778Y109191D1*
X26777Y109173D1*
X26775Y109154D1*
X26772Y109136D1*
X26767Y109118D1*
X26761Y109100D1*
X26754Y109083D1*
X26745Y109066D1*
X26736Y109050D1*
X26725Y109035D1*
X26713Y109020D1*
X26700Y109006D1*
X26686Y108993D1*
X26671Y108981D1*
X26655Y108970D1*
X26638Y108960D1*
X26621Y108952D1*
X26603Y108944D1*
X26585Y108938D1*
X26566Y108933D1*
X26547Y108929D1*
X26528Y108926D1*
X26508Y108925D1*
X26489D1*
X26469Y108926D1*
X26450Y108929D1*
X26431Y108933D1*
X26412Y108938D1*
X26394Y108944D1*
X26376Y108952D1*
X26359Y108960D1*
X26342Y108970D1*
X26326Y108981D1*
X26312Y108993D1*
X26297Y109006D1*
X26284Y109020D1*
X26272Y109035D1*
X26262Y109050D1*
X26252Y109066D1*
X26243Y109083D1*
X26236Y109100D1*
X26230Y109118D1*
X26225Y109136D1*
X26222Y109154D1*
X26220Y109173D1*
X26219Y109191D1*
X26216Y108291D2*
X26217Y108310D1*
X26219Y108329D1*
X26222Y108347D1*
X26227Y108365D1*
X26233Y108383D1*
X26240Y108400D1*
X26249Y108417D1*
X26258Y108433D1*
X26269Y108448D1*
X26281Y108463D1*
X26294Y108477D1*
X26308Y108490D1*
X26323Y108502D1*
X26339Y108513D1*
X26356Y108522D1*
X26373Y108531D1*
X26391Y108539D1*
X26409Y108545D1*
X26428Y108550D1*
X26447Y108554D1*
X26466Y108557D1*
X26485Y108558D1*
X26505D1*
X26524Y108557D1*
X26544Y108554D1*
X26563Y108550D1*
X26582Y108545D1*
X26600Y108539D1*
X26618Y108531D1*
X26635Y108522D1*
X26651Y108513D1*
X26667Y108502D1*
X26682Y108490D1*
X26696Y108477D1*
X26709Y108463D1*
X26721Y108448D1*
X26732Y108433D1*
X26742Y108417D1*
X26750Y108400D1*
X26758Y108383D1*
X26764Y108365D1*
X26768Y108347D1*
X26772Y108329D1*
X26774Y108310D1*
Y108291D1*
Y108273D1*
X26772Y108254D1*
X26768Y108236D1*
X26764Y108218D1*
X26758Y108200D1*
X26750Y108183D1*
X26742Y108166D1*
X26732Y108150D1*
X26721Y108135D1*
X26709Y108120D1*
X26696Y108106D1*
X26682Y108093D1*
X26667Y108081D1*
X26651Y108070D1*
X26635Y108061D1*
X26618Y108052D1*
X26600Y108044D1*
X26582Y108038D1*
X26563Y108033D1*
X26544Y108029D1*
X26524Y108026D1*
X26505Y108025D1*
X26485D1*
X26466Y108026D1*
X26447Y108029D1*
X26428Y108033D1*
X26409Y108038D1*
X26391Y108044D1*
X26373Y108052D1*
X26356Y108061D1*
X26339Y108070D1*
X26323Y108081D1*
X26308Y108093D1*
X26294Y108106D1*
X26281Y108120D1*
X26269Y108135D1*
X26258Y108150D1*
X26249Y108166D1*
X26240Y108183D1*
X26233Y108200D1*
X26227Y108218D1*
X26222Y108236D1*
X26219Y108254D1*
X26217Y108273D1*
X26216Y108291D1*
Y108281D2*
X26217Y108300D1*
X26219Y108318D1*
X26222Y108337D1*
X26227Y108355D1*
X26233Y108372D1*
X26240Y108390D1*
X26249Y108406D1*
X26258Y108423D1*
X26269Y108438D1*
X26281Y108453D1*
X26294Y108466D1*
X26308Y108479D1*
X26323Y108491D1*
X26339Y108502D1*
X26356Y108512D1*
X26373Y108521D1*
X26391Y108528D1*
X26409Y108535D1*
X26428Y108540D1*
X26447Y108544D1*
X26466Y108546D1*
X26485Y108548D1*
X26505D1*
X26524Y108546D1*
X26544Y108544D1*
X26563Y108540D1*
X26582Y108535D1*
X26600Y108528D1*
X26618Y108521D1*
X26635Y108512D1*
X26651Y108502D1*
X26667Y108491D1*
X26682Y108479D1*
X26696Y108466D1*
X26709Y108453D1*
X26721Y108438D1*
X26732Y108423D1*
X26742Y108406D1*
X26750Y108390D1*
X26758Y108372D1*
X26764Y108355D1*
X26768Y108337D1*
X26772Y108318D1*
X26774Y108300D1*
Y108281D1*
Y108263D1*
X26772Y108244D1*
X26768Y108226D1*
X26764Y108208D1*
X26758Y108190D1*
X26750Y108173D1*
X26742Y108156D1*
X26732Y108140D1*
X26721Y108125D1*
X26709Y108110D1*
X26696Y108096D1*
X26682Y108083D1*
X26667Y108071D1*
X26651Y108060D1*
X26635Y108050D1*
X26618Y108042D1*
X26600Y108034D1*
X26582Y108028D1*
X26563Y108023D1*
X26544Y108019D1*
X26524Y108016D1*
X26505Y108015D1*
X26485D1*
X26466Y108016D1*
X26447Y108019D1*
X26428Y108023D1*
X26409Y108028D1*
X26391Y108034D1*
X26373Y108042D1*
X26356Y108050D1*
X26339Y108060D1*
X26323Y108071D1*
X26308Y108083D1*
X26294Y108096D1*
X26281Y108110D1*
X26269Y108125D1*
X26258Y108140D1*
X26249Y108156D1*
X26240Y108173D1*
X26233Y108190D1*
X26227Y108208D1*
X26222Y108226D1*
X26219Y108244D1*
X26217Y108263D1*
X26216Y108281D1*
X26223Y107385D2*
Y107403D1*
X26225Y107422D1*
X26229Y107440D1*
X26233Y107458D1*
X26239Y107476D1*
X26247Y107493D1*
X26255Y107510D1*
X26265Y107526D1*
X26276Y107542D1*
X26288Y107556D1*
X26301Y107570D1*
X26315Y107583D1*
X26330Y107595D1*
X26346Y107606D1*
X26362Y107616D1*
X26379Y107624D1*
X26397Y107632D1*
X26416Y107638D1*
X26434Y107644D1*
X26453Y107647D1*
X26473Y107650D1*
X26492Y107651D1*
X26512D1*
X26531Y107650D1*
X26550Y107647D1*
X26569Y107644D1*
X26588Y107638D1*
X26606Y107632D1*
X26624Y107624D1*
X26641Y107616D1*
X26658Y107606D1*
X26674Y107595D1*
X26689Y107583D1*
X26703Y107570D1*
X26716Y107556D1*
X26728Y107542D1*
X26739Y107526D1*
X26748Y107510D1*
X26757Y107493D1*
X26764Y107476D1*
X26770Y107458D1*
X26775Y107440D1*
X26778Y107422D1*
X26780Y107403D1*
X26781Y107385D1*
X26780Y107366D1*
X26778Y107348D1*
X26775Y107329D1*
X26770Y107311D1*
X26764Y107294D1*
X26757Y107276D1*
X26748Y107260D1*
X26739Y107244D1*
X26728Y107228D1*
X26716Y107213D1*
X26703Y107200D1*
X26689Y107187D1*
X26674Y107175D1*
X26658Y107164D1*
X26641Y107154D1*
X26624Y107145D1*
X26606Y107138D1*
X26588Y107131D1*
X26569Y107126D1*
X26550Y107122D1*
X26531Y107120D1*
X26512Y107118D1*
X26492D1*
X26473Y107120D1*
X26453Y107122D1*
X26434Y107126D1*
X26416Y107131D1*
X26397Y107138D1*
X26379Y107145D1*
X26362Y107154D1*
X26346Y107164D1*
X26330Y107175D1*
X26315Y107187D1*
X26301Y107200D1*
X26288Y107213D1*
X26276Y107228D1*
X26265Y107244D1*
X26255Y107260D1*
X26247Y107276D1*
X26239Y107294D1*
X26233Y107311D1*
X26229Y107329D1*
X26225Y107348D1*
X26223Y107366D1*
Y107385D1*
X25316Y108288D2*
X25317Y108307D1*
X25319Y108325D1*
X25322Y108344D1*
X25327Y108362D1*
X25333Y108379D1*
X25340Y108397D1*
X25349Y108413D1*
X25358Y108429D1*
X25369Y108445D1*
X25381Y108459D1*
X25394Y108473D1*
X25408Y108486D1*
X25423Y108498D1*
X25439Y108509D1*
X25455Y108519D1*
X25473Y108528D1*
X25490Y108535D1*
X25509Y108542D1*
X25528Y108547D1*
X25547Y108551D1*
X25566Y108553D1*
X25585Y108555D1*
X25605D1*
X25624Y108553D1*
X25644Y108551D1*
X25663Y108547D1*
X25681Y108542D1*
X25700Y108535D1*
X25717Y108528D1*
X25735Y108519D1*
X25751Y108509D1*
X25767Y108498D1*
X25782Y108486D1*
X25796Y108473D1*
X25809Y108459D1*
X25821Y108445D1*
X25832Y108429D1*
X25842Y108413D1*
X25850Y108397D1*
X25857Y108379D1*
X25863Y108362D1*
X25868Y108344D1*
X25872Y108325D1*
X25874Y108307D1*
Y108288D1*
Y108269D1*
X25872Y108251D1*
X25868Y108233D1*
X25863Y108215D1*
X25857Y108197D1*
X25850Y108180D1*
X25842Y108163D1*
X25832Y108147D1*
X25821Y108131D1*
X25809Y108117D1*
X25796Y108103D1*
X25782Y108090D1*
X25767Y108078D1*
X25751Y108067D1*
X25735Y108057D1*
X25717Y108048D1*
X25700Y108041D1*
X25681Y108035D1*
X25663Y108029D1*
X25644Y108026D1*
X25624Y108023D1*
X25605Y108022D1*
X25585D1*
X25566Y108023D1*
X25547Y108026D1*
X25528Y108029D1*
X25509Y108035D1*
X25490Y108041D1*
X25473Y108048D1*
X25455Y108057D1*
X25439Y108067D1*
X25423Y108078D1*
X25408Y108090D1*
X25394Y108103D1*
X25381Y108117D1*
X25369Y108131D1*
X25358Y108147D1*
X25349Y108163D1*
X25340Y108180D1*
X25333Y108197D1*
X25327Y108215D1*
X25322Y108233D1*
X25319Y108251D1*
X25317Y108269D1*
X25316Y108288D1*
Y109185D2*
X25317Y109203D1*
X25319Y109222D1*
X25322Y109240D1*
X25327Y109258D1*
X25333Y109276D1*
X25340Y109293D1*
X25349Y109310D1*
X25358Y109326D1*
X25369Y109341D1*
X25381Y109356D1*
X25394Y109370D1*
X25408Y109383D1*
X25423Y109395D1*
X25439Y109406D1*
X25455Y109415D1*
X25473Y109424D1*
X25490Y109432D1*
X25509Y109438D1*
X25528Y109443D1*
X25547Y109447D1*
X25566Y109450D1*
X25585Y109451D1*
X25605D1*
X25624Y109450D1*
X25644Y109447D1*
X25663Y109443D1*
X25681Y109438D1*
X25700Y109432D1*
X25717Y109424D1*
X25735Y109415D1*
X25751Y109406D1*
X25767Y109395D1*
X25782Y109383D1*
X25796Y109370D1*
X25809Y109356D1*
X25821Y109341D1*
X25832Y109326D1*
X25842Y109310D1*
X25850Y109293D1*
X25857Y109276D1*
X25863Y109258D1*
X25868Y109240D1*
X25872Y109222D1*
X25874Y109203D1*
Y109185D1*
Y109166D1*
X25872Y109147D1*
X25868Y109129D1*
X25863Y109111D1*
X25857Y109093D1*
X25850Y109076D1*
X25842Y109059D1*
X25832Y109043D1*
X25821Y109028D1*
X25809Y109013D1*
X25796Y108999D1*
X25782Y108986D1*
X25767Y108974D1*
X25751Y108964D1*
X25735Y108954D1*
X25717Y108945D1*
X25700Y108937D1*
X25681Y108931D1*
X25663Y108926D1*
X25644Y108922D1*
X25624Y108919D1*
X25605Y108918D1*
X25585D1*
X25566Y108919D1*
X25547Y108922D1*
X25528Y108926D1*
X25509Y108931D1*
X25490Y108937D1*
X25473Y108945D1*
X25455Y108954D1*
X25439Y108964D1*
X25423Y108974D1*
X25408Y108986D1*
X25394Y108999D1*
X25381Y109013D1*
X25369Y109028D1*
X25358Y109043D1*
X25349Y109059D1*
X25340Y109076D1*
X25333Y109093D1*
X25327Y109111D1*
X25322Y109129D1*
X25319Y109147D1*
X25317Y109166D1*
X25316Y109185D1*
Y107381D2*
X25317Y107400D1*
X25319Y107419D1*
X25322Y107437D1*
X25327Y107455D1*
X25333Y107473D1*
X25340Y107490D1*
X25349Y107507D1*
X25358Y107523D1*
X25369Y107538D1*
X25381Y107553D1*
X25394Y107567D1*
X25408Y107580D1*
X25423Y107592D1*
X25439Y107602D1*
X25455Y107612D1*
X25473Y107621D1*
X25490Y107629D1*
X25509Y107635D1*
X25528Y107640D1*
X25547Y107644D1*
X25566Y107647D1*
X25585Y107648D1*
X25605D1*
X25624Y107647D1*
X25644Y107644D1*
X25663Y107640D1*
X25681Y107635D1*
X25700Y107629D1*
X25717Y107621D1*
X25735Y107612D1*
X25751Y107602D1*
X25767Y107592D1*
X25782Y107580D1*
X25796Y107567D1*
X25809Y107553D1*
X25821Y107538D1*
X25832Y107523D1*
X25842Y107507D1*
X25850Y107490D1*
X25857Y107473D1*
X25863Y107455D1*
X25868Y107437D1*
X25872Y107419D1*
X25874Y107400D1*
Y107381D1*
Y107363D1*
X25872Y107344D1*
X25868Y107326D1*
X25863Y107308D1*
X25857Y107290D1*
X25850Y107273D1*
X25842Y107256D1*
X25832Y107240D1*
X25821Y107225D1*
X25809Y107210D1*
X25796Y107196D1*
X25782Y107183D1*
X25767Y107171D1*
X25751Y107160D1*
X25735Y107151D1*
X25717Y107142D1*
X25700Y107134D1*
X25681Y107128D1*
X25663Y107123D1*
X25644Y107119D1*
X25624Y107116D1*
X25605Y107115D1*
X25585D1*
X25566Y107116D1*
X25547Y107119D1*
X25528Y107123D1*
X25509Y107128D1*
X25490Y107134D1*
X25473Y107142D1*
X25455Y107151D1*
X25439Y107160D1*
X25423Y107171D1*
X25408Y107183D1*
X25394Y107196D1*
X25381Y107210D1*
X25369Y107225D1*
X25358Y107240D1*
X25349Y107256D1*
X25340Y107273D1*
X25333Y107290D1*
X25327Y107308D1*
X25322Y107326D1*
X25319Y107344D1*
X25317Y107363D1*
X25316Y107381D1*
X27765Y109541D2*
D10*
X25238D1*
Y107051D1*
X27765D1*
Y109541D1*
G36*
X27705Y108947D2*
X25322D1*
Y108467D1*
X27705D1*
Y108947D1*
G37*
G36*
X26299Y109504D2*
X25832D1*
Y107028D1*
X26299D1*
Y109504D1*
G37*
G36*
X27158Y109487D2*
X26692D1*
Y107128D1*
X27158D1*
Y109487D1*
G37*
G36*
X27799Y108058D2*
X25329D1*
Y107585D1*
X27799D1*
Y108058D1*
G37*
X27102Y109158D2*
D21*
X27103Y109177D1*
X27105Y109195D1*
X27108Y109213D1*
X27113Y109231D1*
X27119Y109249D1*
X27127Y109266D1*
X27135Y109283D1*
X27145Y109299D1*
X27156Y109315D1*
X27168Y109329D1*
X27181Y109343D1*
X27195Y109356D1*
X27210Y109368D1*
X27226Y109379D1*
X27242Y109389D1*
X27259Y109398D1*
X27277Y109405D1*
X27295Y109411D1*
X27314Y109417D1*
X27333Y109420D1*
X27353Y109423D1*
X27372Y109424D1*
X27392D1*
X27411Y109423D1*
X27430Y109420D1*
X27449Y109417D1*
X27468Y109411D1*
X27487Y109405D1*
X27504Y109398D1*
X27522Y109389D1*
X27538Y109379D1*
X27554Y109368D1*
X27569Y109356D1*
X27583Y109343D1*
X27596Y109329D1*
X27608Y109315D1*
X27619Y109299D1*
X27629Y109283D1*
X27637Y109266D1*
X27644Y109249D1*
X27651Y109231D1*
X27655Y109213D1*
X27659Y109195D1*
X27661Y109177D1*
Y109158D1*
Y109139D1*
X27659Y109121D1*
X27655Y109102D1*
X27651Y109084D1*
X27644Y109067D1*
X27637Y109049D1*
X27629Y109033D1*
X27619Y109017D1*
X27608Y109001D1*
X27596Y108987D1*
X27583Y108973D1*
X27569Y108960D1*
X27554Y108948D1*
X27538Y108937D1*
X27522Y108927D1*
X27504Y108918D1*
X27487Y108911D1*
X27468Y108904D1*
X27449Y108899D1*
X27430Y108895D1*
X27411Y108893D1*
X27392Y108891D1*
X27372D1*
X27353Y108893D1*
X27333Y108895D1*
X27314Y108899D1*
X27295Y108904D1*
X27277Y108911D1*
X27259Y108918D1*
X27242Y108927D1*
X27226Y108937D1*
X27210Y108948D1*
X27195Y108960D1*
X27181Y108973D1*
X27168Y108987D1*
X27156Y109001D1*
X27145Y109017D1*
X27135Y109033D1*
X27127Y109049D1*
X27119Y109067D1*
X27113Y109084D1*
X27108Y109102D1*
X27105Y109121D1*
X27103Y109139D1*
X27102Y109158D1*
D84*
X27749Y110331D3*
X27249D3*
X26749D3*
X26249D3*
X25749D3*
X25249D3*
D83*
X24449Y109531D3*
Y109031D3*
Y108531D3*
Y108031D3*
Y107531D3*
Y107031D3*
D84*
X25249Y106231D3*
X25749D3*
X26249D3*
X26749D3*
X27249D3*
X27749D3*
D83*
X28549Y107031D3*
Y107531D3*
Y108031D3*
Y108531D3*
Y109031D3*
Y109531D3*
D30*
X24193Y121724D3*
Y120424D3*
Y119124D3*
X26393D3*
Y120424D3*
Y121724D3*
G36*
X31887Y112883D2*
X31960Y112889D1*
X32031Y112908D1*
X32097Y112939D1*
X32157Y112981D1*
X32208Y113032D1*
X32250Y113092D1*
X32281Y113158D1*
X32300Y113229D1*
X32306Y113302D1*
D1*
X32300Y113374D1*
X32281Y113445D1*
X32250Y113511D1*
X32208Y113571D1*
X32157Y113622D1*
X32097Y113664D1*
X32031Y113695D1*
X31960Y113714D1*
X31887Y113720D1*
D1*
X31815Y113714D1*
X31744Y113695D1*
X31678Y113664D1*
X31618Y113622D1*
X31567Y113571D1*
X31525Y113511D1*
X31494Y113445D1*
X31475Y113374D1*
X31469Y113302D1*
D1*
X31475Y113229D1*
X31494Y113158D1*
X31525Y113092D1*
X31567Y113032D1*
X31618Y112981D1*
X31678Y112939D1*
X31744Y112908D1*
X31815Y112889D1*
X31887Y112883D1*
G37*
G36*
Y111613D2*
X31960Y111619D1*
X32031Y111638D1*
X32097Y111669D1*
X32157Y111711D1*
X32208Y111762D1*
X32250Y111822D1*
X32281Y111888D1*
X32300Y111959D1*
X32306Y112032D1*
D1*
X32300Y112104D1*
X32281Y112175D1*
X32250Y112241D1*
X32208Y112301D1*
X32157Y112352D1*
X32097Y112394D1*
X32031Y112425D1*
X31960Y112444D1*
X31887Y112450D1*
D1*
X31815Y112444D1*
X31744Y112425D1*
X31678Y112394D1*
X31618Y112352D1*
X31567Y112301D1*
X31525Y112241D1*
X31494Y112175D1*
X31475Y112104D1*
X31469Y112032D1*
D1*
X31475Y111959D1*
X31494Y111888D1*
X31525Y111822D1*
X31567Y111762D1*
X31618Y111711D1*
X31678Y111669D1*
X31744Y111638D1*
X31815Y111619D1*
X31887Y111613D1*
G37*
G36*
Y110343D2*
X31960Y110349D1*
X32031Y110368D1*
X32097Y110399D1*
X32157Y110441D1*
X32208Y110492D1*
X32250Y110552D1*
X32281Y110618D1*
X32300Y110689D1*
X32306Y110762D1*
D1*
X32300Y110834D1*
X32281Y110905D1*
X32250Y110971D1*
X32208Y111031D1*
X32157Y111082D1*
X32097Y111124D1*
X32031Y111155D1*
X31960Y111174D1*
X31887Y111180D1*
D1*
X31815Y111174D1*
X31744Y111155D1*
X31678Y111124D1*
X31618Y111082D1*
X31567Y111031D1*
X31525Y110971D1*
X31494Y110905D1*
X31475Y110834D1*
X31469Y110762D1*
D1*
X31475Y110689D1*
X31494Y110618D1*
X31525Y110552D1*
X31567Y110492D1*
X31618Y110441D1*
X31678Y110399D1*
X31744Y110368D1*
X31815Y110349D1*
X31887Y110343D1*
G37*
G36*
X30617D2*
X30690Y110349D1*
X30761Y110368D1*
X30827Y110399D1*
X30887Y110441D1*
X30938Y110492D1*
X30980Y110552D1*
X31011Y110618D1*
X31030Y110689D1*
X31036Y110762D1*
D1*
X31030Y110834D1*
X31011Y110905D1*
X30980Y110971D1*
X30938Y111031D1*
X30887Y111082D1*
X30827Y111124D1*
X30761Y111155D1*
X30690Y111174D1*
X30617Y111180D1*
D1*
X30545Y111174D1*
X30474Y111155D1*
X30408Y111124D1*
X30348Y111082D1*
X30297Y111031D1*
X30255Y110971D1*
X30224Y110905D1*
X30205Y110834D1*
X30199Y110762D1*
D1*
X30205Y110689D1*
X30224Y110618D1*
X30255Y110552D1*
X30297Y110492D1*
X30348Y110441D1*
X30408Y110399D1*
X30474Y110368D1*
X30545Y110349D1*
X30617Y110343D1*
G37*
G36*
Y111613D2*
X30690Y111619D1*
X30761Y111638D1*
X30827Y111669D1*
X30887Y111711D1*
X30938Y111762D1*
X30980Y111822D1*
X31011Y111888D1*
X31030Y111959D1*
X31036Y112032D1*
D1*
X31030Y112104D1*
X31011Y112175D1*
X30980Y112241D1*
X30938Y112301D1*
X30887Y112352D1*
X30827Y112394D1*
X30761Y112425D1*
X30690Y112444D1*
X30617Y112450D1*
D1*
X30545Y112444D1*
X30474Y112425D1*
X30408Y112394D1*
X30348Y112352D1*
X30297Y112301D1*
X30255Y112241D1*
X30224Y112175D1*
X30205Y112104D1*
X30199Y112032D1*
D1*
X30205Y111959D1*
X30224Y111888D1*
X30255Y111822D1*
X30297Y111762D1*
X30348Y111711D1*
X30408Y111669D1*
X30474Y111638D1*
X30545Y111619D1*
X30617Y111613D1*
G37*
G36*
Y112883D2*
X30690Y112889D1*
X30761Y112908D1*
X30827Y112939D1*
X30887Y112981D1*
X30938Y113032D1*
X30980Y113092D1*
X31011Y113158D1*
X31030Y113229D1*
X31036Y113302D1*
D1*
X31030Y113374D1*
X31011Y113445D1*
X30980Y113511D1*
X30938Y113571D1*
X30887Y113622D1*
X30827Y113664D1*
X30761Y113695D1*
X30690Y113714D1*
X30617Y113720D1*
D1*
X30545Y113714D1*
X30474Y113695D1*
X30408Y113664D1*
X30348Y113622D1*
X30297Y113571D1*
X30255Y113511D1*
X30224Y113445D1*
X30205Y113374D1*
X30199Y113302D1*
D1*
X30205Y113229D1*
X30224Y113158D1*
X30255Y113092D1*
X30297Y113032D1*
X30348Y112981D1*
X30408Y112939D1*
X30474Y112908D1*
X30545Y112889D1*
X30617Y112883D1*
G37*
D58*
X31252Y114572D3*
X32268Y109492D3*
X30236D3*
D79*
X29118Y100848D3*
Y102698D3*
Y104548D3*
X24118D3*
Y102698D3*
Y100848D3*
D78*
X22758Y121254D3*
Y119554D3*
D77*
X26131Y117942D3*
X24431D3*
D76*
X28452Y121778D3*
Y120078D3*
G36*
X18599Y102369D2*
X18795Y102246D1*
X19027Y102220D1*
X19248Y102297D1*
X19414Y102462D1*
X19491Y102683D1*
X19465Y102916D1*
X19342Y103111D1*
X18984Y103469D1*
X18789Y103592D1*
X18556Y103618D1*
X18335Y103541D1*
X18170Y103375D1*
X18093Y103155D1*
X18119Y102922D1*
X18242Y102726D1*
X18599Y102369D1*
G37*
G36*
X19907Y103677D2*
X20103Y103554D1*
X20335Y103528D1*
X20556Y103605D1*
X20722Y103771D1*
X20799Y103991D1*
X20773Y104224D1*
X20650Y104419D1*
X20292Y104777D1*
X20097Y104900D1*
X19864Y104926D1*
X19643Y104849D1*
X19478Y104683D1*
X19401Y104463D1*
X19427Y104230D1*
X19550Y104035D1*
X19907Y103677D1*
G37*
G36*
X21216Y104985D2*
X21411Y104862D1*
X21644Y104836D1*
X21864Y104913D1*
X22030Y105079D1*
X22107Y105300D1*
X22081Y105532D1*
X21958Y105728D1*
X21600Y106085D1*
X21405Y106208D1*
X21172Y106234D1*
X20952Y106157D1*
X20786Y105992D1*
X20709Y105771D1*
X20735Y105538D1*
X20858Y105343D1*
X21216Y104985D1*
G37*
G36*
X17680Y108521D2*
X17876Y108398D1*
X18108Y108372D1*
X18329Y108449D1*
X18494Y108614D1*
X18572Y108835D1*
X18545Y109068D1*
X18422Y109263D1*
X18065Y109621D1*
X17869Y109744D1*
X17637Y109770D1*
X17416Y109693D1*
X17251Y109527D1*
X17173Y109306D1*
X17200Y109074D1*
X17322Y108878D1*
X17680Y108521D1*
G37*
G36*
X16372Y107213D2*
X16567Y107090D1*
X16800Y107063D1*
X17021Y107141D1*
X17186Y107306D1*
X17263Y107527D1*
X17237Y107759D1*
X17114Y107955D1*
X16757Y108313D1*
X16561Y108436D1*
X16329Y108462D1*
X16108Y108384D1*
X15942Y108219D1*
X15865Y107998D1*
X15891Y107766D1*
X16014Y107570D1*
X16372Y107213D1*
G37*
G36*
X15064Y105904D2*
X15259Y105782D1*
X15492Y105755D1*
X15713Y105833D1*
X15878Y105998D1*
X15955Y106219D1*
X15929Y106451D1*
X15806Y106647D1*
X15449Y107004D1*
X15253Y107127D1*
X15021Y107154D1*
X14800Y107076D1*
X14634Y106911D1*
X14557Y106690D1*
X14583Y106458D1*
X14706Y106262D1*
X15064Y105904D1*
G37*
D75*
X13309Y111657D3*
X15159D3*
X17009D3*
Y116657D3*
X15159D3*
X13309D3*
G36*
X14706Y122759D2*
X14583Y122563D1*
X14557Y122331D1*
X14634Y122110D1*
X14800Y121944D1*
X15021Y121867D1*
X15253Y121893D1*
X15449Y122016D1*
X15806Y122374D1*
X15929Y122569D1*
X15955Y122802D1*
X15878Y123023D1*
X15713Y123188D1*
X15492Y123265D1*
X15259Y123239D1*
X15064Y123116D1*
X14706Y122759D1*
G37*
G36*
X16014Y121450D2*
X15891Y121255D1*
X15865Y121022D1*
X15942Y120802D1*
X16108Y120636D1*
X16329Y120559D1*
X16561Y120585D1*
X16757Y120708D1*
X17114Y121066D1*
X17237Y121261D1*
X17263Y121494D1*
X17186Y121714D1*
X17021Y121880D1*
X16800Y121957D1*
X16567Y121931D1*
X16372Y121808D1*
X16014Y121450D1*
G37*
G36*
X17322Y120142D2*
X17200Y119947D1*
X17173Y119714D1*
X17251Y119493D1*
X17416Y119328D1*
X17637Y119251D1*
X17869Y119277D1*
X18065Y119400D1*
X18422Y119757D1*
X18545Y119953D1*
X18572Y120186D1*
X18494Y120406D1*
X18329Y120572D1*
X18108Y120649D1*
X17876Y120623D1*
X17680Y120500D1*
X17322Y120142D1*
G37*
G36*
X20858Y123678D2*
X20735Y123482D1*
X20709Y123250D1*
X20786Y123029D1*
X20952Y122864D1*
X21172Y122786D1*
X21405Y122813D1*
X21600Y122935D1*
X21958Y123293D1*
X22081Y123489D1*
X22107Y123721D1*
X22030Y123942D1*
X21864Y124107D1*
X21644Y124185D1*
X21411Y124158D1*
X21216Y124035D1*
X20858Y123678D1*
G37*
G36*
X19550Y124986D2*
X19427Y124790D1*
X19401Y124558D1*
X19478Y124337D1*
X19643Y124172D1*
X19864Y124094D1*
X20097Y124121D1*
X20292Y124244D1*
X20650Y124601D1*
X20773Y124797D1*
X20799Y125029D1*
X20722Y125250D1*
X20556Y125415D1*
X20335Y125493D1*
X20103Y125467D1*
X19907Y125344D1*
X19550Y124986D1*
G37*
G36*
X18242Y126294D2*
X18119Y126099D1*
X18093Y125866D1*
X18170Y125645D1*
X18335Y125480D1*
X18556Y125403D1*
X18789Y125429D1*
X18984Y125552D1*
X19342Y125909D1*
X19465Y126105D1*
X19491Y126337D1*
X19414Y126558D1*
X19248Y126724D1*
X19027Y126801D1*
X18795Y126775D1*
X18599Y126652D1*
X18242Y126294D1*
G37*
D79*
X24118Y127466D3*
Y125616D3*
Y123766D3*
X29118D3*
Y125616D3*
Y127466D3*
G36*
X34271Y126652D2*
X34075Y126775D1*
X33843Y126801D1*
X33622Y126724D1*
X33457Y126558D1*
X33379Y126337D1*
X33406Y126105D1*
X33528Y125909D1*
X33886Y125552D1*
X34082Y125429D1*
X34314Y125403D1*
X34535Y125480D1*
X34700Y125645D1*
X34778Y125866D1*
X34751Y126099D1*
X34628Y126294D1*
X34271Y126652D1*
G37*
G36*
X32963Y125344D2*
X32767Y125467D1*
X32535Y125493D1*
X32314Y125415D1*
X32148Y125250D1*
X32071Y125029D1*
X32097Y124797D1*
X32220Y124601D1*
X32578Y124244D1*
X32773Y124121D1*
X33006Y124094D1*
X33227Y124172D1*
X33392Y124337D1*
X33469Y124558D1*
X33443Y124790D1*
X33320Y124986D1*
X32963Y125344D1*
G37*
G36*
X31655Y124035D2*
X31459Y124158D1*
X31227Y124185D1*
X31006Y124107D1*
X30840Y123942D1*
X30763Y123721D1*
X30789Y123489D1*
X30912Y123293D1*
X31270Y122935D1*
X31465Y122813D1*
X31698Y122786D1*
X31919Y122864D1*
X32084Y123029D1*
X32161Y123250D1*
X32135Y123482D1*
X32012Y123678D1*
X31655Y124035D1*
G37*
G36*
X35190Y120500D2*
X34995Y120623D1*
X34762Y120649D1*
X34541Y120572D1*
X34376Y120406D1*
X34299Y120186D1*
X34325Y119953D1*
X34448Y119757D1*
X34805Y119400D1*
X35001Y119277D1*
X35233Y119251D1*
X35454Y119328D1*
X35620Y119493D1*
X35697Y119714D1*
X35671Y119947D1*
X35548Y120142D1*
X35190Y120500D1*
G37*
G36*
X36498Y121808D2*
X36303Y121931D1*
X36070Y121957D1*
X35849Y121880D1*
X35684Y121715D1*
X35607Y121494D1*
X35633Y121261D1*
X35756Y121066D1*
X36113Y120708D1*
X36309Y120585D1*
X36541Y120559D1*
X36762Y120636D1*
X36928Y120802D1*
X37005Y121022D1*
X36979Y121255D1*
X36856Y121451D1*
X36498Y121808D1*
G37*
G36*
X37806Y123116D2*
X37611Y123239D1*
X37378Y123265D1*
X37158Y123188D1*
X36992Y123023D1*
X36915Y122802D1*
X36941Y122569D1*
X37064Y122374D1*
X37422Y122016D1*
X37617Y121893D1*
X37850Y121867D1*
X38070Y121944D1*
X38236Y122110D1*
X38313Y122331D1*
X38287Y122563D1*
X38164Y122759D1*
X37806Y123116D1*
G37*
D75*
X39927Y116657D3*
X38077D3*
X36227D3*
Y111657D3*
X38077D3*
X39927D3*
G36*
X38164Y106262D2*
X38287Y106458D1*
X38313Y106690D1*
X38236Y106911D1*
X38070Y107076D1*
X37850Y107154D1*
X37617Y107127D1*
X37422Y107004D1*
X37064Y106647D1*
X36941Y106451D1*
X36915Y106219D1*
X36992Y105998D1*
X37158Y105833D1*
X37378Y105755D1*
X37611Y105782D1*
X37806Y105904D1*
X38164Y106262D1*
G37*
G36*
X36856Y107570D2*
X36979Y107766D1*
X37005Y107998D1*
X36928Y108219D1*
X36762Y108384D1*
X36542Y108462D1*
X36309Y108436D1*
X36113Y108313D1*
X35756Y107955D1*
X35633Y107759D1*
X35607Y107527D1*
X35684Y107306D1*
X35849Y107141D1*
X36070Y107063D1*
X36303Y107090D1*
X36498Y107213D1*
X36856Y107570D1*
G37*
G36*
X35548Y108878D2*
X35671Y109074D1*
X35697Y109306D1*
X35620Y109527D1*
X35454Y109693D1*
X35233Y109770D1*
X35001Y109744D1*
X34805Y109621D1*
X34448Y109263D1*
X34325Y109068D1*
X34299Y108835D1*
X34376Y108614D1*
X34541Y108449D1*
X34762Y108372D1*
X34995Y108398D1*
X35190Y108521D1*
X35548Y108878D1*
G37*
G36*
X32012Y105343D2*
X32135Y105538D1*
X32161Y105771D1*
X32084Y105992D1*
X31919Y106157D1*
X31698Y106234D1*
X31465Y106208D1*
X31270Y106085D1*
X30912Y105728D1*
X30789Y105532D1*
X30763Y105300D1*
X30840Y105079D1*
X31006Y104913D1*
X31227Y104836D1*
X31459Y104862D1*
X31655Y104985D1*
X32012Y105343D1*
G37*
G36*
X33320Y104035D2*
X33443Y104230D1*
X33469Y104463D1*
X33392Y104684D1*
X33227Y104849D1*
X33006Y104926D1*
X32774Y104900D1*
X32578Y104777D1*
X32220Y104420D1*
X32097Y104224D1*
X32071Y103991D1*
X32148Y103771D1*
X32314Y103605D1*
X32535Y103528D1*
X32767Y103554D1*
X32963Y103677D1*
X33320Y104035D1*
G37*
G36*
X34628Y102726D2*
X34751Y102922D1*
X34778Y103155D1*
X34700Y103375D1*
X34535Y103541D1*
X34314Y103618D1*
X34082Y103592D1*
X33886Y103469D1*
X33528Y103111D1*
X33406Y102916D1*
X33379Y102683D1*
X33457Y102462D1*
X33622Y102297D1*
X33843Y102220D1*
X34075Y102246D1*
X34271Y102369D1*
X34628Y102726D1*
G37*
G36*
X19567Y111063D2*
X20417D1*
Y110013D1*
X19567D1*
Y111063D1*
G37*
G36*
X21767D2*
X22617D1*
Y110013D1*
X21767D1*
Y111063D1*
G37*
G36*
Y118363D2*
X22617D1*
Y117313D1*
X21767D1*
Y118363D1*
G37*
G36*
X19567D2*
X20417D1*
Y117313D1*
X19567D1*
Y118363D1*
G37*
G36*
X18567Y116813D2*
X20117D1*
Y116063D1*
X18567D1*
Y116813D1*
G37*
G36*
Y115313D2*
X20117D1*
Y114563D1*
X18567D1*
Y115313D1*
G37*
G36*
Y112313D2*
X20117D1*
Y111563D1*
X18567D1*
Y112313D1*
G37*
D59*
X21092Y115688D3*
Y112688D3*
D75*
X28468Y96198D3*
X26618D3*
X24768D3*
Y91198D3*
X26618D3*
X28468D3*
Y87198D3*
X26618D3*
X24768D3*
Y82198D3*
X26618D3*
X28468D3*
Y78198D3*
X26618D3*
X24768D3*
Y73198D3*
X26618D3*
X28468D3*
X15768Y82198D3*
X17618D3*
X19468D3*
Y87198D3*
X17618D3*
X15768D3*
D72*
X26774Y114850D3*
X25474D3*
D71*
X34318Y116819D3*
Y115519D3*
D72*
X32406Y116503D3*
X31106D3*
X32089Y119992D3*
X30789D3*
X29867Y115666D3*
X28567D3*
X29704Y118194D3*
X28404D3*
D77*
X29712Y116937D3*
X28012D3*
D70*
X32448Y117521D3*
Y118021D3*
Y118521D3*
Y119021D3*
D69*
X31948D3*
X31448D3*
D70*
X30948D3*
Y118521D3*
Y118021D3*
Y117521D3*
D69*
X31448D3*
X31948D3*
D75*
X37468Y87198D3*
X35618D3*
X33768D3*
Y82198D3*
X35618D3*
X37468D3*
D60*
X26618Y131937D3*
X62322Y100009D2*
D21*
X62323Y100029D1*
X62325Y100048D1*
X62328Y100067D1*
X62332Y100086D1*
X62338Y100105D1*
X62345Y100123D1*
X62353Y100140D1*
X62362Y100157D1*
X62373Y100173D1*
X62384Y100189D1*
X62397Y100203D1*
X62410Y100217D1*
X62424Y100229D1*
X62439Y100241D1*
X62455Y100251D1*
X62472Y100260D1*
X62489Y100268D1*
X62506Y100275D1*
X62524Y100280D1*
X62542Y100284D1*
X62561Y100287D1*
X62579Y100288D1*
X62598D1*
X62616Y100287D1*
X62635Y100284D1*
X62653Y100280D1*
X62671Y100275D1*
X62688Y100268D1*
X62705Y100260D1*
X62722Y100251D1*
X62738Y100241D1*
X62753Y100229D1*
X62767Y100217D1*
X62780Y100203D1*
X62793Y100189D1*
X62804Y100173D1*
X62815Y100157D1*
X62824Y100140D1*
X62832Y100123D1*
X62839Y100105D1*
X62845Y100086D1*
X62849Y100067D1*
X62853Y100048D1*
X62854Y100029D1*
X62855Y100009D1*
X62854Y99990D1*
X62853Y99970D1*
X62849Y99951D1*
X62845Y99932D1*
X62839Y99913D1*
X62832Y99895D1*
X62824Y99878D1*
X62815Y99861D1*
X62804Y99845D1*
X62793Y99829D1*
X62780Y99815D1*
X62767Y99801D1*
X62753Y99789D1*
X62738Y99777D1*
X62722Y99767D1*
X62705Y99758D1*
X62688Y99750D1*
X62671Y99743D1*
X62653Y99738D1*
X62635Y99734D1*
X62616Y99731D1*
X62598Y99730D1*
X62579D1*
X62561Y99731D1*
X62542Y99734D1*
X62524Y99738D1*
X62506Y99743D1*
X62489Y99750D1*
X62472Y99758D1*
X62455Y99767D1*
X62439Y99777D1*
X62424Y99789D1*
X62410Y99801D1*
X62397Y99815D1*
X62384Y99829D1*
X62373Y99845D1*
X62362Y99861D1*
X62353Y99878D1*
X62345Y99895D1*
X62338Y99913D1*
X62332Y99932D1*
X62328Y99951D1*
X62325Y99970D1*
X62323Y99990D1*
X62322Y100009D1*
X63225D2*
X63226Y100029D1*
X63228Y100048D1*
X63231Y100067D1*
X63236Y100086D1*
X63241Y100105D1*
X63248Y100123D1*
X63256Y100140D1*
X63266Y100157D1*
X63276Y100173D1*
X63288Y100189D1*
X63300Y100203D1*
X63313Y100217D1*
X63328Y100229D1*
X63343Y100241D1*
X63358Y100251D1*
X63375Y100260D1*
X63392Y100268D1*
X63409Y100275D1*
X63427Y100280D1*
X63445Y100284D1*
X63464Y100287D1*
X63482Y100288D1*
X63501D1*
X63520Y100287D1*
X63538Y100284D1*
X63556Y100280D1*
X63574Y100275D1*
X63592Y100268D1*
X63609Y100260D1*
X63625Y100251D1*
X63641Y100241D1*
X63656Y100229D1*
X63670Y100217D1*
X63684Y100203D1*
X63696Y100189D1*
X63707Y100173D1*
X63718Y100157D1*
X63727Y100140D1*
X63735Y100123D1*
X63742Y100105D1*
X63748Y100086D1*
X63753Y100067D1*
X63756Y100048D1*
X63758Y100029D1*
Y100009D1*
Y99990D1*
X63756Y99970D1*
X63753Y99951D1*
X63748Y99932D1*
X63742Y99913D1*
X63735Y99895D1*
X63727Y99878D1*
X63718Y99861D1*
X63707Y99845D1*
X63696Y99829D1*
X63684Y99815D1*
X63670Y99801D1*
X63656Y99789D1*
X63641Y99777D1*
X63625Y99767D1*
X63609Y99758D1*
X63592Y99750D1*
X63574Y99743D1*
X63556Y99738D1*
X63538Y99734D1*
X63520Y99731D1*
X63501Y99730D1*
X63482D1*
X63464Y99731D1*
X63445Y99734D1*
X63427Y99738D1*
X63409Y99743D1*
X63392Y99750D1*
X63375Y99758D1*
X63358Y99767D1*
X63343Y99777D1*
X63328Y99789D1*
X63313Y99801D1*
X63300Y99815D1*
X63288Y99829D1*
X63276Y99845D1*
X63266Y99861D1*
X63256Y99878D1*
X63248Y99895D1*
X63241Y99913D1*
X63236Y99932D1*
X63231Y99951D1*
X63228Y99970D1*
X63226Y99990D1*
X63225Y100009D1*
X61415Y99112D2*
X61416Y99132D1*
X61418Y99151D1*
X61421Y99171D1*
X61426Y99189D1*
X61431Y99208D1*
X61438Y99226D1*
X61446Y99244D1*
X61456Y99261D1*
X61466Y99277D1*
X61478Y99292D1*
X61490Y99307D1*
X61503Y99320D1*
X61518Y99333D1*
X61533Y99344D1*
X61549Y99354D1*
X61565Y99364D1*
X61582Y99372D1*
X61599Y99378D1*
X61617Y99384D1*
X61636Y99388D1*
X61654Y99390D1*
X61673Y99392D1*
X61691D1*
X61710Y99390D1*
X61728Y99388D1*
X61746Y99384D1*
X61764Y99378D1*
X61782Y99372D1*
X61799Y99364D1*
X61815Y99354D1*
X61831Y99344D1*
X61846Y99333D1*
X61860Y99320D1*
X61874Y99307D1*
X61886Y99292D1*
X61898Y99277D1*
X61908Y99261D1*
X61917Y99244D1*
X61925Y99226D1*
X61932Y99208D1*
X61938Y99189D1*
X61943Y99171D1*
X61946Y99151D1*
X61948Y99132D1*
Y99112D1*
Y99093D1*
X61946Y99074D1*
X61943Y99054D1*
X61938Y99035D1*
X61932Y99017D1*
X61925Y98999D1*
X61917Y98981D1*
X61908Y98964D1*
X61898Y98948D1*
X61886Y98933D1*
X61874Y98918D1*
X61860Y98905D1*
X61846Y98892D1*
X61831Y98881D1*
X61815Y98870D1*
X61799Y98861D1*
X61782Y98853D1*
X61764Y98847D1*
X61746Y98841D1*
X61728Y98837D1*
X61710Y98834D1*
X61691Y98833D1*
X61673D1*
X61654Y98834D1*
X61636Y98837D1*
X61617Y98841D1*
X61599Y98847D1*
X61582Y98853D1*
X61565Y98861D1*
X61549Y98870D1*
X61533Y98881D1*
X61518Y98892D1*
X61503Y98905D1*
X61490Y98918D1*
X61478Y98933D1*
X61466Y98948D1*
X61456Y98964D1*
X61446Y98981D1*
X61438Y98999D1*
X61431Y99017D1*
X61426Y99035D1*
X61421Y99054D1*
X61418Y99074D1*
X61416Y99093D1*
X61415Y99112D1*
X62315Y99109D2*
X62316Y99129D1*
X62318Y99148D1*
X62321Y99167D1*
X62325Y99186D1*
X62331Y99205D1*
X62338Y99223D1*
X62346Y99240D1*
X62356Y99257D1*
X62366Y99273D1*
X62377Y99289D1*
X62390Y99303D1*
X62403Y99317D1*
X62418Y99329D1*
X62433Y99341D1*
X62448Y99351D1*
X62465Y99360D1*
X62482Y99368D1*
X62499Y99375D1*
X62517Y99380D1*
X62535Y99384D1*
X62554Y99387D1*
X62572Y99388D1*
X62591D1*
X62610Y99387D1*
X62628Y99384D1*
X62646Y99380D1*
X62664Y99375D1*
X62682Y99368D1*
X62699Y99360D1*
X62715Y99351D1*
X62731Y99341D1*
X62746Y99329D1*
X62760Y99317D1*
X62774Y99303D1*
X62786Y99289D1*
X62797Y99273D1*
X62808Y99257D1*
X62817Y99240D1*
X62825Y99223D1*
X62832Y99205D1*
X62838Y99186D1*
X62843Y99167D1*
X62846Y99148D1*
X62848Y99129D1*
Y99109D1*
Y99090D1*
X62846Y99070D1*
X62843Y99051D1*
X62838Y99032D1*
X62832Y99014D1*
X62825Y98996D1*
X62817Y98978D1*
X62808Y98961D1*
X62797Y98945D1*
X62786Y98930D1*
X62774Y98915D1*
X62760Y98902D1*
X62746Y98889D1*
X62731Y98878D1*
X62715Y98867D1*
X62699Y98858D1*
X62682Y98850D1*
X62664Y98844D1*
X62646Y98838D1*
X62628Y98834D1*
X62610Y98831D1*
X62591Y98830D1*
X62572D1*
X62554Y98831D1*
X62535Y98834D1*
X62517Y98838D1*
X62499Y98844D1*
X62482Y98850D1*
X62465Y98858D1*
X62448Y98867D1*
X62433Y98878D1*
X62418Y98889D1*
X62403Y98902D1*
X62390Y98915D1*
X62377Y98930D1*
X62366Y98945D1*
X62356Y98961D1*
X62346Y98978D1*
X62338Y98996D1*
X62331Y99014D1*
X62325Y99032D1*
X62321Y99051D1*
X62318Y99070D1*
X62316Y99090D1*
X62315Y99109D1*
X62325D2*
X62326Y99129D1*
X62328Y99148D1*
X62331Y99167D1*
X62336Y99186D1*
X62341Y99205D1*
X62348Y99223D1*
X62357Y99240D1*
X62366Y99257D1*
X62376Y99273D1*
X62388Y99289D1*
X62400Y99303D1*
X62414Y99317D1*
X62428Y99329D1*
X62443Y99341D1*
X62459Y99351D1*
X62475Y99360D1*
X62492Y99368D1*
X62510Y99375D1*
X62527Y99380D1*
X62546Y99384D1*
X62564Y99387D1*
X62583Y99388D1*
X62601D1*
X62620Y99387D1*
X62638Y99384D1*
X62656Y99380D1*
X62674Y99375D1*
X62692Y99368D1*
X62709Y99360D1*
X62725Y99351D1*
X62741Y99341D1*
X62756Y99329D1*
X62770Y99317D1*
X62784Y99303D1*
X62796Y99289D1*
X62808Y99273D1*
X62818Y99257D1*
X62827Y99240D1*
X62835Y99223D1*
X62842Y99205D1*
X62848Y99186D1*
X62853Y99167D1*
X62856Y99148D1*
X62858Y99129D1*
X62859Y99109D1*
X62858Y99090D1*
X62856Y99070D1*
X62853Y99051D1*
X62848Y99032D1*
X62842Y99014D1*
X62835Y98996D1*
X62827Y98978D1*
X62818Y98961D1*
X62808Y98945D1*
X62796Y98930D1*
X62784Y98915D1*
X62770Y98902D1*
X62756Y98889D1*
X62741Y98878D1*
X62725Y98867D1*
X62709Y98858D1*
X62692Y98850D1*
X62674Y98844D1*
X62656Y98838D1*
X62638Y98834D1*
X62620Y98831D1*
X62601Y98830D1*
X62583D1*
X62564Y98831D1*
X62546Y98834D1*
X62527Y98838D1*
X62510Y98844D1*
X62492Y98850D1*
X62475Y98858D1*
X62459Y98867D1*
X62443Y98878D1*
X62428Y98889D1*
X62414Y98902D1*
X62400Y98915D1*
X62388Y98930D1*
X62376Y98945D1*
X62366Y98961D1*
X62357Y98978D1*
X62348Y98996D1*
X62341Y99014D1*
X62336Y99032D1*
X62331Y99051D1*
X62328Y99070D1*
X62326Y99090D1*
X62325Y99109D1*
X63222Y99116D2*
Y99135D1*
X63224Y99155D1*
X63228Y99174D1*
X63232Y99193D1*
X63238Y99211D1*
X63245Y99229D1*
X63253Y99247D1*
X63262Y99264D1*
X63273Y99280D1*
X63284Y99295D1*
X63297Y99310D1*
X63310Y99323D1*
X63324Y99336D1*
X63339Y99347D1*
X63355Y99358D1*
X63372Y99367D1*
X63389Y99375D1*
X63406Y99381D1*
X63424Y99387D1*
X63442Y99391D1*
X63461Y99393D1*
X63479Y99395D1*
X63498D1*
X63516Y99393D1*
X63535Y99391D1*
X63553Y99387D1*
X63571Y99381D1*
X63588Y99375D1*
X63605Y99367D1*
X63622Y99358D1*
X63637Y99347D1*
X63653Y99336D1*
X63667Y99323D1*
X63680Y99310D1*
X63693Y99295D1*
X63704Y99280D1*
X63714Y99264D1*
X63724Y99247D1*
X63732Y99229D1*
X63739Y99211D1*
X63745Y99193D1*
X63749Y99174D1*
X63752Y99155D1*
X63754Y99135D1*
X63755Y99116D1*
X63754Y99096D1*
X63752Y99077D1*
X63749Y99058D1*
X63745Y99039D1*
X63739Y99020D1*
X63732Y99002D1*
X63724Y98985D1*
X63714Y98968D1*
X63704Y98952D1*
X63693Y98936D1*
X63680Y98922D1*
X63667Y98908D1*
X63653Y98896D1*
X63637Y98884D1*
X63622Y98874D1*
X63605Y98865D1*
X63588Y98857D1*
X63571Y98850D1*
X63553Y98845D1*
X63535Y98841D1*
X63516Y98838D1*
X63498Y98837D1*
X63479D1*
X63461Y98838D1*
X63442Y98841D1*
X63424Y98845D1*
X63406Y98850D1*
X63389Y98857D1*
X63372Y98865D1*
X63355Y98874D1*
X63339Y98884D1*
X63324Y98896D1*
X63310Y98908D1*
X63297Y98922D1*
X63284Y98936D1*
X63273Y98952D1*
X63262Y98968D1*
X63253Y98985D1*
X63245Y99002D1*
X63238Y99020D1*
X63232Y99039D1*
X63228Y99058D1*
X63224Y99077D1*
X63222Y99096D1*
Y99116D1*
X62319Y98209D2*
Y98228D1*
X62321Y98248D1*
X62324Y98267D1*
X62329Y98286D1*
X62335Y98304D1*
X62342Y98323D1*
X62350Y98340D1*
X62359Y98357D1*
X62369Y98373D1*
X62381Y98388D1*
X62393Y98403D1*
X62407Y98416D1*
X62421Y98429D1*
X62436Y98440D1*
X62452Y98451D1*
X62468Y98460D1*
X62485Y98468D1*
X62503Y98475D1*
X62521Y98480D1*
X62539Y98484D1*
X62557Y98487D1*
X62576Y98488D1*
X62594D1*
X62613Y98487D1*
X62631Y98484D1*
X62650Y98480D1*
X62668Y98475D1*
X62685Y98468D1*
X62702Y98460D1*
X62718Y98451D1*
X62734Y98440D1*
X62749Y98429D1*
X62764Y98416D1*
X62777Y98403D1*
X62789Y98388D1*
X62801Y98373D1*
X62811Y98357D1*
X62821Y98340D1*
X62829Y98323D1*
X62836Y98304D1*
X62841Y98286D1*
X62846Y98267D1*
X62849Y98248D1*
X62851Y98228D1*
X62852Y98209D1*
X62851Y98189D1*
X62849Y98170D1*
X62846Y98151D1*
X62841Y98132D1*
X62836Y98113D1*
X62829Y98095D1*
X62821Y98078D1*
X62811Y98061D1*
X62801Y98045D1*
X62789Y98029D1*
X62777Y98015D1*
X62764Y98001D1*
X62749Y97989D1*
X62734Y97977D1*
X62718Y97967D1*
X62702Y97958D1*
X62685Y97950D1*
X62668Y97943D1*
X62650Y97938D1*
X62631Y97934D1*
X62613Y97931D1*
X62594Y97930D1*
X62576D1*
X62557Y97931D1*
X62539Y97934D1*
X62521Y97938D1*
X62503Y97943D1*
X62485Y97950D1*
X62468Y97958D1*
X62452Y97967D1*
X62436Y97977D1*
X62421Y97989D1*
X62407Y98001D1*
X62393Y98015D1*
X62381Y98029D1*
X62369Y98045D1*
X62359Y98061D1*
X62350Y98078D1*
X62342Y98095D1*
X62335Y98113D1*
X62329Y98132D1*
X62324Y98151D1*
X62321Y98170D1*
X62319Y98189D1*
Y98209D1*
X61422D2*
X61423Y98228D1*
X61425Y98248D1*
X61428Y98267D1*
X61432Y98286D1*
X61438Y98304D1*
X61445Y98323D1*
X61453Y98340D1*
X61463Y98357D1*
X61473Y98373D1*
X61484Y98388D1*
X61497Y98403D1*
X61510Y98416D1*
X61525Y98429D1*
X61540Y98440D1*
X61555Y98451D1*
X61572Y98460D1*
X61589Y98468D1*
X61606Y98475D1*
X61624Y98480D1*
X61642Y98484D1*
X61661Y98487D1*
X61679Y98488D1*
X61698D1*
X61717Y98487D1*
X61735Y98484D1*
X61753Y98480D1*
X61771Y98475D1*
X61789Y98468D1*
X61806Y98460D1*
X61822Y98451D1*
X61838Y98440D1*
X61853Y98429D1*
X61867Y98416D1*
X61880Y98403D1*
X61893Y98388D1*
X61904Y98373D1*
X61915Y98357D1*
X61924Y98340D1*
X61932Y98323D1*
X61939Y98304D1*
X61945Y98286D1*
X61949Y98267D1*
X61953Y98248D1*
X61955Y98228D1*
Y98209D1*
Y98189D1*
X61953Y98170D1*
X61949Y98151D1*
X61945Y98132D1*
X61939Y98113D1*
X61932Y98095D1*
X61924Y98078D1*
X61915Y98061D1*
X61904Y98045D1*
X61893Y98029D1*
X61880Y98015D1*
X61867Y98001D1*
X61853Y97989D1*
X61838Y97977D1*
X61822Y97967D1*
X61806Y97958D1*
X61789Y97950D1*
X61771Y97943D1*
X61753Y97938D1*
X61735Y97934D1*
X61717Y97931D1*
X61698Y97930D1*
X61679D1*
X61661Y97931D1*
X61642Y97934D1*
X61624Y97938D1*
X61606Y97943D1*
X61589Y97950D1*
X61572Y97958D1*
X61555Y97967D1*
X61540Y97977D1*
X61525Y97989D1*
X61510Y98001D1*
X61497Y98015D1*
X61484Y98029D1*
X61473Y98045D1*
X61463Y98061D1*
X61453Y98078D1*
X61445Y98095D1*
X61438Y98113D1*
X61432Y98132D1*
X61428Y98151D1*
X61425Y98170D1*
X61423Y98189D1*
X61422Y98209D1*
X63225D2*
X63226Y98228D1*
X63228Y98248D1*
X63231Y98267D1*
X63236Y98286D1*
X63241Y98304D1*
X63248Y98323D1*
X63256Y98340D1*
X63266Y98357D1*
X63276Y98373D1*
X63288Y98388D1*
X63300Y98403D1*
X63313Y98416D1*
X63328Y98429D1*
X63343Y98440D1*
X63358Y98451D1*
X63375Y98460D1*
X63392Y98468D1*
X63409Y98475D1*
X63427Y98480D1*
X63445Y98484D1*
X63464Y98487D1*
X63482Y98488D1*
X63501D1*
X63520Y98487D1*
X63538Y98484D1*
X63556Y98480D1*
X63574Y98475D1*
X63592Y98468D1*
X63609Y98460D1*
X63625Y98451D1*
X63641Y98440D1*
X63656Y98429D1*
X63670Y98416D1*
X63684Y98403D1*
X63696Y98388D1*
X63707Y98373D1*
X63718Y98357D1*
X63727Y98340D1*
X63735Y98323D1*
X63742Y98304D1*
X63748Y98286D1*
X63753Y98267D1*
X63756Y98248D1*
X63758Y98228D1*
Y98209D1*
Y98189D1*
X63756Y98170D1*
X63753Y98151D1*
X63748Y98132D1*
X63742Y98113D1*
X63735Y98095D1*
X63727Y98078D1*
X63718Y98061D1*
X63707Y98045D1*
X63696Y98029D1*
X63684Y98015D1*
X63670Y98001D1*
X63656Y97989D1*
X63641Y97977D1*
X63625Y97967D1*
X63609Y97958D1*
X63592Y97950D1*
X63574Y97943D1*
X63556Y97938D1*
X63538Y97934D1*
X63520Y97931D1*
X63501Y97930D1*
X63482D1*
X63464Y97931D1*
X63445Y97934D1*
X63427Y97938D1*
X63409Y97943D1*
X63392Y97950D1*
X63375Y97958D1*
X63358Y97967D1*
X63343Y97977D1*
X63328Y97989D1*
X63313Y98001D1*
X63300Y98015D1*
X63288Y98029D1*
X63276Y98045D1*
X63266Y98061D1*
X63256Y98078D1*
X63248Y98095D1*
X63241Y98113D1*
X63236Y98132D1*
X63231Y98151D1*
X63228Y98170D1*
X63226Y98189D1*
X63225Y98209D1*
X61332Y100379D2*
D10*
X63822D1*
Y97852D1*
X61332D1*
Y100379D1*
G36*
X61926Y100319D2*
X62406D1*
Y97936D1*
X61926D1*
Y100319D1*
G37*
G36*
X61369Y98913D2*
X63846D1*
Y98446D1*
X61369D1*
Y98913D1*
G37*
G36*
X61386Y99772D2*
X63745D1*
Y99306D1*
X61386D1*
Y99772D1*
G37*
G36*
X62815Y100412D2*
X63289D1*
Y97942D1*
X62815D1*
Y100412D1*
G37*
X61449Y99996D2*
D21*
Y100015D1*
X61451Y100035D1*
X61454Y100054D1*
X61459Y100073D1*
X61465Y100091D1*
X61472Y100109D1*
X61480Y100127D1*
X61489Y100144D1*
X61500Y100160D1*
X61511Y100175D1*
X61524Y100190D1*
X61537Y100203D1*
X61551Y100216D1*
X61566Y100227D1*
X61582Y100238D1*
X61598Y100247D1*
X61615Y100255D1*
X61633Y100262D1*
X61651Y100267D1*
X61669Y100271D1*
X61687Y100274D1*
X61706Y100275D1*
X61725D1*
X61743Y100274D1*
X61762Y100271D1*
X61780Y100267D1*
X61798Y100262D1*
X61815Y100255D1*
X61832Y100247D1*
X61849Y100238D1*
X61864Y100227D1*
X61879Y100216D1*
X61894Y100203D1*
X61907Y100190D1*
X61920Y100175D1*
X61931Y100160D1*
X61941Y100144D1*
X61951Y100127D1*
X61959Y100109D1*
X61966Y100091D1*
X61972Y100073D1*
X61976Y100054D1*
X61979Y100035D1*
X61981Y100015D1*
X61982Y99996D1*
X61981Y99976D1*
X61979Y99957D1*
X61976Y99938D1*
X61972Y99919D1*
X61966Y99900D1*
X61959Y99882D1*
X61951Y99865D1*
X61941Y99848D1*
X61931Y99831D1*
X61920Y99816D1*
X61907Y99802D1*
X61894Y99788D1*
X61879Y99776D1*
X61864Y99764D1*
X61849Y99754D1*
X61832Y99745D1*
X61815Y99737D1*
X61798Y99730D1*
X61780Y99725D1*
X61762Y99721D1*
X61743Y99718D1*
X61725Y99716D1*
X61706D1*
X61687Y99718D1*
X61669Y99721D1*
X61651Y99725D1*
X61633Y99730D1*
X61615Y99737D1*
X61598Y99745D1*
X61582Y99754D1*
X61566Y99764D1*
X61551Y99776D1*
X61537Y99788D1*
X61524Y99802D1*
X61511Y99816D1*
X61500Y99831D1*
X61489Y99848D1*
X61480Y99865D1*
X61472Y99882D1*
X61465Y99900D1*
X61459Y99919D1*
X61454Y99938D1*
X61451Y99957D1*
X61449Y99976D1*
Y99996D1*
D83*
X60542Y100362D3*
Y99862D3*
Y99362D3*
Y98862D3*
Y98362D3*
Y97862D3*
D84*
X61342Y97062D3*
X61842D3*
X62342D3*
X62842D3*
X63342D3*
X63842D3*
D83*
X64642Y97862D3*
Y98362D3*
Y98862D3*
Y99362D3*
Y99862D3*
Y100362D3*
D84*
X63842Y101162D3*
X63342D3*
X62842D3*
X62342D3*
X61842D3*
X61342D3*
D50*
X49173Y96412D3*
X50473D3*
X51773D3*
Y98612D3*
X50473D3*
X49173D3*
G36*
X57990Y104501D2*
X57984Y104574D1*
X57965Y104645D1*
X57934Y104711D1*
X57892Y104771D1*
X57841Y104822D1*
X57781Y104864D1*
X57715Y104895D1*
X57644Y104914D1*
X57572Y104920D1*
D1*
X57499Y104914D1*
X57428Y104895D1*
X57362Y104864D1*
X57302Y104822D1*
X57251Y104771D1*
X57209Y104711D1*
X57178Y104645D1*
X57159Y104574D1*
X57153Y104501D1*
D1*
X57159Y104429D1*
X57178Y104358D1*
X57209Y104292D1*
X57251Y104232D1*
X57302Y104181D1*
X57362Y104139D1*
X57428Y104108D1*
X57499Y104089D1*
X57572Y104083D1*
D1*
X57644Y104089D1*
X57715Y104108D1*
X57781Y104139D1*
X57841Y104181D1*
X57892Y104232D1*
X57934Y104292D1*
X57965Y104358D1*
X57984Y104429D1*
X57990Y104501D1*
G37*
G36*
X59260D2*
X59254Y104574D1*
X59235Y104645D1*
X59204Y104711D1*
X59162Y104771D1*
X59111Y104822D1*
X59051Y104864D1*
X58985Y104895D1*
X58914Y104914D1*
X58842Y104920D1*
D1*
X58769Y104914D1*
X58698Y104895D1*
X58632Y104864D1*
X58572Y104822D1*
X58521Y104771D1*
X58479Y104711D1*
X58448Y104645D1*
X58429Y104574D1*
X58423Y104501D1*
D1*
X58429Y104429D1*
X58448Y104358D1*
X58479Y104292D1*
X58521Y104232D1*
X58572Y104181D1*
X58632Y104139D1*
X58698Y104108D1*
X58769Y104089D1*
X58842Y104083D1*
D1*
X58914Y104089D1*
X58985Y104108D1*
X59051Y104139D1*
X59111Y104181D1*
X59162Y104232D1*
X59204Y104292D1*
X59235Y104358D1*
X59254Y104429D1*
X59260Y104501D1*
G37*
G36*
X60530D2*
X60524Y104574D1*
X60505Y104645D1*
X60474Y104711D1*
X60432Y104771D1*
X60381Y104822D1*
X60321Y104864D1*
X60255Y104895D1*
X60184Y104914D1*
X60112Y104920D1*
D1*
X60039Y104914D1*
X59968Y104895D1*
X59902Y104864D1*
X59842Y104822D1*
X59791Y104771D1*
X59749Y104711D1*
X59718Y104645D1*
X59699Y104574D1*
X59693Y104501D1*
D1*
X59699Y104429D1*
X59718Y104358D1*
X59749Y104292D1*
X59791Y104232D1*
X59842Y104181D1*
X59902Y104139D1*
X59968Y104108D1*
X60039Y104089D1*
X60112Y104083D1*
D1*
X60184Y104089D1*
X60255Y104108D1*
X60321Y104139D1*
X60381Y104181D1*
X60432Y104232D1*
X60474Y104292D1*
X60505Y104358D1*
X60524Y104429D1*
X60530Y104501D1*
G37*
G36*
Y103231D2*
X60524Y103304D1*
X60505Y103375D1*
X60474Y103441D1*
X60432Y103501D1*
X60381Y103552D1*
X60321Y103594D1*
X60255Y103625D1*
X60184Y103644D1*
X60112Y103650D1*
D1*
X60039Y103644D1*
X59968Y103625D1*
X59902Y103594D1*
X59842Y103552D1*
X59791Y103501D1*
X59749Y103441D1*
X59718Y103375D1*
X59699Y103304D1*
X59693Y103231D1*
D1*
X59699Y103159D1*
X59718Y103088D1*
X59749Y103022D1*
X59791Y102962D1*
X59842Y102911D1*
X59902Y102869D1*
X59968Y102838D1*
X60039Y102819D1*
X60112Y102813D1*
D1*
X60184Y102819D1*
X60255Y102838D1*
X60321Y102869D1*
X60381Y102911D1*
X60432Y102962D1*
X60474Y103022D1*
X60505Y103088D1*
X60524Y103159D1*
X60530Y103231D1*
G37*
G36*
X59260D2*
X59254Y103304D1*
X59235Y103375D1*
X59204Y103441D1*
X59162Y103501D1*
X59111Y103552D1*
X59051Y103594D1*
X58985Y103625D1*
X58914Y103644D1*
X58842Y103650D1*
D1*
X58769Y103644D1*
X58698Y103625D1*
X58632Y103594D1*
X58572Y103552D1*
X58521Y103501D1*
X58479Y103441D1*
X58448Y103375D1*
X58429Y103304D1*
X58423Y103231D1*
D1*
X58429Y103159D1*
X58448Y103088D1*
X58479Y103022D1*
X58521Y102962D1*
X58572Y102911D1*
X58632Y102869D1*
X58698Y102838D1*
X58769Y102819D1*
X58842Y102813D1*
D1*
X58914Y102819D1*
X58985Y102838D1*
X59051Y102869D1*
X59111Y102911D1*
X59162Y102962D1*
X59204Y103022D1*
X59235Y103088D1*
X59254Y103159D1*
X59260Y103231D1*
G37*
G36*
X57990D2*
X57984Y103304D1*
X57965Y103375D1*
X57934Y103441D1*
X57892Y103501D1*
X57841Y103552D1*
X57781Y103594D1*
X57715Y103625D1*
X57644Y103644D1*
X57572Y103650D1*
D1*
X57499Y103644D1*
X57428Y103625D1*
X57362Y103594D1*
X57302Y103552D1*
X57251Y103501D1*
X57209Y103441D1*
X57178Y103375D1*
X57159Y103304D1*
X57153Y103231D1*
D1*
X57159Y103159D1*
X57178Y103088D1*
X57209Y103022D1*
X57251Y102962D1*
X57302Y102911D1*
X57362Y102869D1*
X57428Y102838D1*
X57499Y102819D1*
X57572Y102813D1*
D1*
X57644Y102819D1*
X57715Y102838D1*
X57781Y102869D1*
X57841Y102911D1*
X57892Y102962D1*
X57934Y103022D1*
X57965Y103088D1*
X57984Y103159D1*
X57990Y103231D1*
G37*
D58*
X56302Y103866D3*
X61382Y104882D3*
Y102850D3*
D75*
X70026Y101732D3*
X68176D3*
X66326D3*
Y96732D3*
X68176D3*
X70026D3*
D77*
X49643Y94977D3*
X51343D3*
D78*
X52955Y98350D3*
Y96650D3*
D66*
X49118Y100671D3*
X50818D3*
G36*
X68504Y91213D2*
X68627Y91409D1*
X68653Y91641D1*
X68576Y91862D1*
X68411Y92027D1*
X68190Y92105D1*
X67957Y92079D1*
X67762Y91956D1*
X67404Y91598D1*
X67281Y91402D1*
X67255Y91170D1*
X67332Y90949D1*
X67498Y90784D1*
X67719Y90706D1*
X67951Y90733D1*
X68147Y90856D1*
X68504Y91213D1*
G37*
G36*
X67196Y92521D2*
X67319Y92717D1*
X67345Y92949D1*
X67268Y93170D1*
X67103Y93336D1*
X66882Y93413D1*
X66649Y93387D1*
X66454Y93264D1*
X66096Y92906D1*
X65973Y92711D1*
X65947Y92478D1*
X66024Y92257D1*
X66190Y92092D1*
X66411Y92015D1*
X66643Y92041D1*
X66839Y92164D1*
X67196Y92521D1*
G37*
G36*
X65888Y93829D2*
X66011Y94025D1*
X66037Y94258D1*
X65960Y94478D1*
X65794Y94644D1*
X65574Y94721D1*
X65341Y94695D1*
X65146Y94572D1*
X64788Y94214D1*
X64665Y94019D1*
X64639Y93786D1*
X64716Y93565D1*
X64882Y93400D1*
X65102Y93323D1*
X65335Y93349D1*
X65530Y93472D1*
X65888Y93829D1*
G37*
G36*
X62352Y90294D2*
X62475Y90490D1*
X62502Y90722D1*
X62424Y90943D1*
X62259Y91108D1*
X62038Y91185D1*
X61806Y91159D1*
X61610Y91036D1*
X61252Y90679D1*
X61130Y90483D1*
X61103Y90251D1*
X61181Y90030D1*
X61346Y89864D1*
X61567Y89787D1*
X61799Y89813D1*
X61995Y89936D1*
X62352Y90294D1*
G37*
G36*
X63661Y88986D2*
X63784Y89181D1*
X63810Y89414D1*
X63732Y89635D1*
X63567Y89800D1*
X63346Y89877D1*
X63114Y89851D1*
X62918Y89728D1*
X62561Y89371D1*
X62438Y89175D1*
X62411Y88943D1*
X62489Y88722D1*
X62654Y88556D1*
X62875Y88479D1*
X63107Y88505D1*
X63303Y88628D1*
X63661Y88986D1*
G37*
G36*
X64969Y87678D2*
X65092Y87873D1*
X65118Y88106D1*
X65041Y88327D1*
X64875Y88492D1*
X64654Y88569D1*
X64422Y88543D1*
X64226Y88420D1*
X63869Y88063D1*
X63746Y87867D1*
X63720Y87634D1*
X63797Y87414D1*
X63962Y87248D1*
X64183Y87171D1*
X64416Y87197D1*
X64611Y87320D1*
X64969Y87678D1*
G37*
D79*
X59217Y85923D3*
Y87773D3*
Y89623D3*
X54217D3*
Y87773D3*
Y85923D3*
G36*
X48499Y88420D2*
X48304Y88543D1*
X48071Y88569D1*
X47851Y88492D1*
X47685Y88327D1*
X47608Y88106D1*
X47634Y87873D1*
X47757Y87678D1*
X48115Y87320D1*
X48310Y87197D1*
X48543Y87171D1*
X48763Y87248D1*
X48929Y87414D1*
X49006Y87634D1*
X48980Y87867D1*
X48857Y88063D1*
X48499Y88420D1*
G37*
G36*
X49808Y89728D2*
X49612Y89851D1*
X49380Y89877D1*
X49159Y89800D1*
X48993Y89635D1*
X48916Y89414D1*
X48942Y89181D1*
X49065Y88986D1*
X49423Y88628D1*
X49618Y88505D1*
X49851Y88479D1*
X50072Y88556D1*
X50237Y88722D1*
X50314Y88943D1*
X50288Y89175D1*
X50165Y89371D1*
X49808Y89728D1*
G37*
G36*
X51116Y91036D2*
X50920Y91159D1*
X50688Y91185D1*
X50467Y91108D1*
X50301Y90943D1*
X50224Y90722D1*
X50250Y90490D1*
X50373Y90294D1*
X50731Y89936D1*
X50926Y89813D1*
X51159Y89787D1*
X51380Y89865D1*
X51545Y90030D1*
X51622Y90251D1*
X51596Y90483D1*
X51473Y90679D1*
X51116Y91036D1*
G37*
G36*
X47580Y94572D2*
X47385Y94695D1*
X47152Y94721D1*
X46931Y94644D1*
X46766Y94478D1*
X46689Y94258D1*
X46715Y94025D1*
X46838Y93829D1*
X47195Y93472D1*
X47391Y93349D1*
X47623Y93323D1*
X47844Y93400D1*
X48010Y93565D1*
X48087Y93786D1*
X48061Y94019D1*
X47938Y94214D1*
X47580Y94572D1*
G37*
G36*
X46272Y93264D2*
X46076Y93387D1*
X45844Y93413D1*
X45623Y93336D1*
X45458Y93170D1*
X45380Y92949D1*
X45407Y92717D1*
X45530Y92521D1*
X45887Y92164D1*
X46083Y92041D1*
X46315Y92015D1*
X46536Y92092D1*
X46701Y92257D1*
X46779Y92478D1*
X46753Y92711D1*
X46630Y92906D1*
X46272Y93264D1*
G37*
G36*
X44964Y91956D2*
X44768Y92079D1*
X44536Y92105D1*
X44315Y92027D1*
X44150Y91862D1*
X44072Y91641D1*
X44099Y91409D1*
X44221Y91213D1*
X44579Y90856D1*
X44775Y90733D1*
X45007Y90706D1*
X45228Y90784D1*
X45393Y90949D1*
X45471Y91170D1*
X45444Y91402D1*
X45321Y91598D1*
X44964Y91956D1*
G37*
D75*
X43407Y96732D3*
X45257D3*
X47107D3*
Y101732D3*
X45257D3*
X43407D3*
G36*
X44221Y106885D2*
X44099Y106689D1*
X44072Y106457D1*
X44150Y106236D1*
X44315Y106070D1*
X44536Y105993D1*
X44768Y106019D1*
X44964Y106142D1*
X45321Y106500D1*
X45444Y106696D1*
X45471Y106928D1*
X45393Y107149D1*
X45228Y107314D1*
X45007Y107391D1*
X44775Y107365D1*
X44579Y107242D1*
X44221Y106885D1*
G37*
G36*
X45530Y105577D2*
X45407Y105381D1*
X45380Y105149D1*
X45458Y104928D1*
X45623Y104762D1*
X45844Y104685D1*
X46076Y104711D1*
X46272Y104834D1*
X46630Y105192D1*
X46753Y105387D1*
X46779Y105620D1*
X46701Y105841D1*
X46536Y106006D1*
X46315Y106083D1*
X46083Y106057D1*
X45887Y105934D1*
X45530Y105577D1*
G37*
G36*
X46838Y104269D2*
X46715Y104073D1*
X46689Y103840D1*
X46766Y103620D1*
X46931Y103454D1*
X47152Y103377D1*
X47385Y103403D1*
X47580Y103526D1*
X47938Y103884D1*
X48061Y104079D1*
X48087Y104312D1*
X48010Y104533D1*
X47844Y104698D1*
X47623Y104775D1*
X47391Y104749D1*
X47195Y104626D1*
X46838Y104269D1*
G37*
G36*
X50373Y107804D2*
X50250Y107608D1*
X50224Y107376D1*
X50301Y107155D1*
X50467Y106990D1*
X50688Y106912D1*
X50920Y106939D1*
X51116Y107062D1*
X51473Y107419D1*
X51596Y107615D1*
X51622Y107847D1*
X51545Y108068D1*
X51380Y108233D1*
X51159Y108311D1*
X50926Y108285D1*
X50731Y108162D1*
X50373Y107804D1*
G37*
G36*
X49065Y109112D2*
X48942Y108917D1*
X48916Y108684D1*
X48993Y108463D1*
X49159Y108298D1*
X49380Y108221D1*
X49612Y108247D1*
X49808Y108370D1*
X50165Y108727D1*
X50288Y108923D1*
X50314Y109155D1*
X50237Y109376D1*
X50072Y109542D1*
X49851Y109619D1*
X49618Y109593D1*
X49423Y109470D1*
X49065Y109112D1*
G37*
G36*
X47757Y110420D2*
X47634Y110225D1*
X47608Y109992D1*
X47685Y109771D1*
X47851Y109606D1*
X48071Y109529D1*
X48304Y109555D1*
X48499Y109678D1*
X48857Y110035D1*
X48980Y110231D1*
X49006Y110464D1*
X48929Y110684D1*
X48763Y110850D1*
X48543Y110927D1*
X48310Y110901D1*
X48115Y110778D1*
X47757Y110420D1*
G37*
D79*
X54217Y112541D3*
Y110691D3*
Y108841D3*
X59217D3*
Y110691D3*
Y112541D3*
G36*
X64226Y109678D2*
X64422Y109555D1*
X64654Y109529D1*
X64875Y109606D1*
X65041Y109771D1*
X65118Y109992D1*
X65092Y110225D1*
X64969Y110420D1*
X64611Y110778D1*
X64416Y110901D1*
X64183Y110927D1*
X63962Y110850D1*
X63797Y110684D1*
X63720Y110464D1*
X63746Y110231D1*
X63869Y110035D1*
X64226Y109678D1*
G37*
G36*
X62918Y108370D2*
X63114Y108247D1*
X63346Y108221D1*
X63567Y108298D1*
X63732Y108463D1*
X63810Y108684D1*
X63783Y108917D1*
X63661Y109112D1*
X63303Y109470D1*
X63107Y109593D1*
X62875Y109619D1*
X62654Y109542D1*
X62489Y109376D1*
X62411Y109155D1*
X62438Y108923D1*
X62561Y108727D1*
X62918Y108370D1*
G37*
G36*
X61610Y107062D2*
X61806Y106939D1*
X62038Y106912D1*
X62259Y106990D1*
X62424Y107155D1*
X62502Y107376D1*
X62475Y107608D1*
X62352Y107804D1*
X61995Y108162D1*
X61799Y108285D1*
X61567Y108311D1*
X61346Y108233D1*
X61181Y108068D1*
X61103Y107847D1*
X61129Y107615D1*
X61252Y107419D1*
X61610Y107062D1*
G37*
G36*
X65145Y103526D2*
X65341Y103403D1*
X65574Y103377D1*
X65794Y103454D1*
X65960Y103620D1*
X66037Y103840D1*
X66011Y104073D1*
X65888Y104268D1*
X65530Y104626D1*
X65335Y104749D1*
X65102Y104775D1*
X64881Y104698D1*
X64716Y104532D1*
X64639Y104312D1*
X64665Y104079D1*
X64788Y103884D1*
X65145Y103526D1*
G37*
G36*
X66454Y104834D2*
X66649Y104711D1*
X66882Y104685D1*
X67103Y104762D1*
X67268Y104928D1*
X67345Y105149D1*
X67319Y105381D1*
X67196Y105577D1*
X66839Y105934D1*
X66643Y106057D1*
X66410Y106083D1*
X66190Y106006D1*
X66024Y105841D1*
X65947Y105620D1*
X65973Y105387D1*
X66096Y105192D1*
X66454Y104834D1*
G37*
G36*
X67762Y106142D2*
X67957Y106019D1*
X68190Y105993D1*
X68411Y106070D1*
X68576Y106236D1*
X68653Y106457D1*
X68627Y106689D1*
X68504Y106885D1*
X68147Y107242D1*
X67951Y107365D1*
X67719Y107391D1*
X67498Y107314D1*
X67332Y107149D1*
X67255Y106928D1*
X67281Y106696D1*
X67404Y106500D1*
X67762Y106142D1*
G37*
G36*
X60860Y93031D2*
Y92181D1*
X59810D1*
Y93031D1*
X60860D1*
G37*
G36*
Y95231D2*
Y94381D1*
X59810D1*
Y95231D1*
X60860D1*
G37*
G36*
X53560D2*
Y94381D1*
X52510D1*
Y95231D1*
X53560D1*
G37*
G36*
Y93031D2*
Y92181D1*
X52510D1*
Y93031D1*
X53560D1*
G37*
G36*
X54810Y92731D2*
Y91181D1*
X54060D1*
Y92731D1*
X54810D1*
G37*
G36*
X56310D2*
Y91181D1*
X55560D1*
Y92731D1*
X56310D1*
G37*
G36*
X59310D2*
Y91181D1*
X58560D1*
Y92731D1*
X59310D1*
G37*
D59*
X55185Y93706D3*
X58185D3*
G36*
X67616Y113249D2*
X67493Y113053D1*
X67467Y112821D1*
X67545Y112600D1*
X67710Y112435D1*
X67931Y112357D1*
X68163Y112384D1*
X68359Y112507D1*
X68716Y112864D1*
X68839Y113060D1*
X68866Y113292D1*
X68788Y113513D1*
X68623Y113678D1*
X68402Y113756D1*
X68170Y113730D1*
X67974Y113607D1*
X67616Y113249D1*
G37*
G36*
X68925Y111941D2*
X68802Y111745D1*
X68775Y111513D1*
X68853Y111292D1*
X69018Y111127D1*
X69239Y111049D1*
X69471Y111076D1*
X69667Y111198D1*
X70025Y111556D1*
X70147Y111752D1*
X70174Y111984D1*
X70096Y112205D1*
X69931Y112370D1*
X69710Y112448D1*
X69478Y112421D1*
X69282Y112298D1*
X68925Y111941D1*
G37*
G36*
X70233Y110633D2*
X70110Y110437D1*
X70084Y110205D1*
X70161Y109984D1*
X70326Y109818D1*
X70547Y109741D1*
X70780Y109767D1*
X70975Y109890D1*
X71333Y110248D1*
X71456Y110444D1*
X71482Y110676D1*
X71405Y110897D1*
X71239Y111062D1*
X71018Y111139D1*
X70786Y111113D1*
X70590Y110990D1*
X70233Y110633D1*
G37*
G36*
X73768Y114168D2*
X73645Y113973D1*
X73619Y113740D1*
X73696Y113519D1*
X73862Y113354D1*
X74083Y113277D1*
X74315Y113303D1*
X74511Y113426D1*
X74868Y113783D1*
X74991Y113979D1*
X75017Y114212D1*
X74940Y114432D1*
X74775Y114598D1*
X74554Y114675D1*
X74321Y114649D1*
X74126Y114526D1*
X73768Y114168D1*
G37*
G36*
X72460Y115476D2*
X72337Y115281D1*
X72311Y115048D1*
X72388Y114828D1*
X72554Y114662D1*
X72774Y114585D1*
X73007Y114611D1*
X73203Y114734D1*
X73560Y115092D1*
X73683Y115287D1*
X73709Y115520D1*
X73632Y115740D1*
X73467Y115906D1*
X73246Y115983D1*
X73013Y115957D1*
X72818Y115834D1*
X72460Y115476D1*
G37*
G36*
X71152Y116785D2*
X71029Y116589D1*
X71003Y116357D1*
X71080Y116136D1*
X71245Y115970D1*
X71466Y115893D1*
X71699Y115919D1*
X71894Y116042D1*
X72252Y116400D1*
X72375Y116595D1*
X72401Y116828D1*
X72324Y117049D1*
X72158Y117214D1*
X71938Y117291D1*
X71705Y117265D1*
X71509Y117142D1*
X71152Y116785D1*
G37*
G36*
X75080Y119228D2*
X75203Y119424D1*
X75230Y119656D1*
X75152Y119877D1*
X74987Y120042D1*
X74766Y120120D1*
X74534Y120094D1*
X74338Y119971D1*
X73980Y119613D1*
X73857Y119417D1*
X73831Y119185D1*
X73909Y118964D1*
X74074Y118799D1*
X74295Y118721D1*
X74527Y118748D1*
X74723Y118871D1*
X75080Y119228D1*
G37*
G36*
X76389Y117920D2*
X76511Y118116D1*
X76538Y118348D1*
X76460Y118569D1*
X76295Y118734D1*
X76074Y118812D1*
X75842Y118785D1*
X75646Y118662D1*
X75289Y118305D1*
X75166Y118109D1*
X75139Y117877D1*
X75217Y117656D1*
X75382Y117491D1*
X75603Y117413D1*
X75835Y117440D1*
X76031Y117562D1*
X76389Y117920D1*
G37*
G36*
X77697Y116612D2*
X77820Y116808D1*
X77846Y117040D1*
X77769Y117261D1*
X77603Y117426D1*
X77382Y117503D1*
X77150Y117477D1*
X76954Y117354D1*
X76597Y116997D1*
X76474Y116801D1*
X76448Y116569D1*
X76525Y116348D1*
X76690Y116182D1*
X76911Y116105D1*
X77144Y116131D1*
X77339Y116254D1*
X77697Y116612D1*
G37*
G36*
X81232Y120147D2*
X81355Y120343D1*
X81381Y120576D1*
X81304Y120796D1*
X81139Y120962D1*
X80918Y121039D1*
X80685Y121013D1*
X80490Y120890D1*
X80132Y120532D1*
X80009Y120337D1*
X79983Y120104D1*
X80060Y119883D1*
X80226Y119718D1*
X80447Y119641D1*
X80679Y119667D1*
X80875Y119790D1*
X81232Y120147D1*
G37*
G36*
X79924Y121456D2*
X80047Y121651D1*
X80073Y121884D1*
X79996Y122104D1*
X79831Y122270D1*
X79610Y122347D1*
X79377Y122321D1*
X79182Y122198D1*
X78824Y121840D1*
X78701Y121645D1*
X78675Y121412D1*
X78752Y121192D1*
X78918Y121026D1*
X79138Y120949D1*
X79371Y120975D1*
X79567Y121098D1*
X79924Y121456D1*
G37*
G36*
X78616Y122764D2*
X78739Y122959D1*
X78765Y123192D1*
X78688Y123413D1*
X78522Y123578D1*
X78302Y123655D1*
X78069Y123629D1*
X77873Y123506D1*
X77516Y123149D1*
X77393Y122953D1*
X77367Y122721D1*
X77444Y122500D1*
X77609Y122334D1*
X77830Y122257D1*
X78063Y122283D1*
X78258Y122406D1*
X78616Y122764D1*
G37*
D79*
X71106Y119782D3*
Y121632D3*
Y123482D3*
X66106D3*
Y121632D3*
Y119782D3*
D75*
X77266Y108380D3*
X79116D3*
X80966D3*
Y113380D3*
X79116D3*
X77266D3*
D72*
X54214Y106967D3*
X55514D3*
D71*
X54531Y105055D3*
Y103755D3*
X51041Y104738D3*
Y103438D3*
X55367Y102516D3*
Y101216D3*
X52840Y102353D3*
Y101053D3*
D78*
X54097Y102361D3*
Y100661D3*
D69*
X53513Y105097D3*
X53013D3*
X52513D3*
X52013D3*
D70*
Y104597D3*
Y104097D3*
D69*
Y103597D3*
X52513D3*
X53013D3*
X53513D3*
D70*
Y104097D3*
Y104597D3*
D71*
X56226Y99532D3*
Y98232D3*
D60*
X58875Y117012D3*
X76828Y32168D2*
D21*
Y32187D1*
X76830Y32205D1*
X76834Y32223D1*
X76838Y32242D1*
X76844Y32259D1*
X76852Y32276D1*
X76860Y32293D1*
X76870Y32309D1*
X76881Y32325D1*
X76893Y32339D1*
X76906Y32353D1*
X76920Y32366D1*
X76935Y32378D1*
X76951Y32389D1*
X76967Y32399D1*
X76985Y32408D1*
X77002Y32415D1*
X77021Y32422D1*
X77039Y32427D1*
X77059Y32431D1*
X77078Y32433D1*
X77097Y32435D1*
X77117D1*
X77136Y32433D1*
X77156Y32431D1*
X77175Y32427D1*
X77193Y32422D1*
X77212Y32415D1*
X77230Y32408D1*
X77247Y32399D1*
X77263Y32389D1*
X77279Y32378D1*
X77294Y32366D1*
X77308Y32353D1*
X77321Y32339D1*
X77333Y32325D1*
X77344Y32309D1*
X77354Y32293D1*
X77362Y32276D1*
X77370Y32259D1*
X77376Y32242D1*
X77380Y32223D1*
X77384Y32205D1*
X77386Y32187D1*
X77387Y32168D1*
X77386Y32149D1*
X77384Y32131D1*
X77380Y32113D1*
X77376Y32095D1*
X77370Y32077D1*
X77362Y32060D1*
X77354Y32043D1*
X77344Y32027D1*
X77333Y32011D1*
X77321Y31997D1*
X77308Y31983D1*
X77294Y31970D1*
X77279Y31958D1*
X77263Y31947D1*
X77247Y31937D1*
X77230Y31928D1*
X77212Y31921D1*
X77193Y31914D1*
X77175Y31909D1*
X77156Y31905D1*
X77136Y31903D1*
X77117Y31902D1*
X77097D1*
X77078Y31903D1*
X77059Y31905D1*
X77039Y31909D1*
X77021Y31914D1*
X77002Y31921D1*
X76985Y31928D1*
X76967Y31937D1*
X76951Y31947D1*
X76935Y31958D1*
X76920Y31970D1*
X76906Y31983D1*
X76893Y31997D1*
X76881Y32011D1*
X76870Y32027D1*
X76860Y32043D1*
X76852Y32060D1*
X76844Y32077D1*
X76838Y32095D1*
X76834Y32113D1*
X76830Y32131D1*
X76828Y32149D1*
Y32168D1*
Y33071D2*
Y33090D1*
X76830Y33108D1*
X76834Y33127D1*
X76838Y33145D1*
X76844Y33163D1*
X76852Y33180D1*
X76860Y33196D1*
X76870Y33213D1*
X76881Y33228D1*
X76893Y33243D1*
X76906Y33257D1*
X76920Y33269D1*
X76935Y33281D1*
X76951Y33292D1*
X76967Y33302D1*
X76985Y33311D1*
X77002Y33319D1*
X77021Y33325D1*
X77039Y33330D1*
X77059Y33334D1*
X77078Y33336D1*
X77097Y33338D1*
X77117D1*
X77136Y33336D1*
X77156Y33334D1*
X77175Y33330D1*
X77193Y33325D1*
X77212Y33319D1*
X77230Y33311D1*
X77247Y33302D1*
X77263Y33292D1*
X77279Y33281D1*
X77294Y33269D1*
X77308Y33257D1*
X77321Y33243D1*
X77333Y33228D1*
X77344Y33213D1*
X77354Y33196D1*
X77362Y33180D1*
X77370Y33163D1*
X77376Y33145D1*
X77380Y33127D1*
X77384Y33108D1*
X77386Y33090D1*
X77387Y33071D1*
X77386Y33053D1*
X77384Y33034D1*
X77380Y33016D1*
X77376Y32998D1*
X77370Y32980D1*
X77362Y32963D1*
X77354Y32946D1*
X77344Y32930D1*
X77333Y32915D1*
X77321Y32900D1*
X77308Y32886D1*
X77294Y32873D1*
X77279Y32861D1*
X77263Y32850D1*
X77247Y32840D1*
X77230Y32832D1*
X77212Y32824D1*
X77193Y32818D1*
X77175Y32813D1*
X77156Y32809D1*
X77136Y32806D1*
X77117Y32805D1*
X77097D1*
X77078Y32806D1*
X77059Y32809D1*
X77039Y32813D1*
X77021Y32818D1*
X77002Y32824D1*
X76985Y32832D1*
X76967Y32840D1*
X76951Y32850D1*
X76935Y32861D1*
X76920Y32873D1*
X76906Y32886D1*
X76893Y32900D1*
X76881Y32915D1*
X76870Y32930D1*
X76860Y32946D1*
X76852Y32963D1*
X76844Y32980D1*
X76838Y32998D1*
X76834Y33016D1*
X76830Y33034D1*
X76828Y33053D1*
Y33071D1*
X77724Y31261D2*
X77725Y31280D1*
X77727Y31298D1*
X77730Y31317D1*
X77735Y31335D1*
X77741Y31353D1*
X77748Y31370D1*
X77757Y31387D1*
X77767Y31403D1*
X77778Y31418D1*
X77790Y31433D1*
X77803Y31447D1*
X77817Y31460D1*
X77832Y31471D1*
X77847Y31482D1*
X77864Y31492D1*
X77881Y31501D1*
X77899Y31509D1*
X77917Y31515D1*
X77936Y31520D1*
X77955Y31524D1*
X77974Y31527D1*
X77994Y31528D1*
X78013D1*
X78033Y31527D1*
X78052Y31524D1*
X78071Y31520D1*
X78090Y31515D1*
X78108Y31509D1*
X78126Y31501D1*
X78143Y31492D1*
X78160Y31482D1*
X78176Y31471D1*
X78191Y31460D1*
X78205Y31447D1*
X78218Y31433D1*
X78230Y31418D1*
X78241Y31403D1*
X78250Y31387D1*
X78259Y31370D1*
X78266Y31353D1*
X78272Y31335D1*
X78277Y31317D1*
X78280Y31298D1*
X78282Y31280D1*
X78283Y31261D1*
X78282Y31243D1*
X78280Y31224D1*
X78277Y31206D1*
X78272Y31188D1*
X78266Y31170D1*
X78259Y31153D1*
X78250Y31136D1*
X78241Y31120D1*
X78230Y31105D1*
X78218Y31090D1*
X78205Y31076D1*
X78191Y31063D1*
X78176Y31051D1*
X78160Y31040D1*
X78143Y31030D1*
X78126Y31022D1*
X78108Y31014D1*
X78090Y31008D1*
X78071Y31003D1*
X78052Y30999D1*
X78033Y30996D1*
X78013Y30995D1*
X77994D1*
X77974Y30996D1*
X77955Y30999D1*
X77936Y31003D1*
X77917Y31008D1*
X77899Y31014D1*
X77881Y31022D1*
X77864Y31030D1*
X77847Y31040D1*
X77832Y31051D1*
X77817Y31063D1*
X77803Y31076D1*
X77790Y31090D1*
X77778Y31105D1*
X77767Y31120D1*
X77757Y31136D1*
X77748Y31153D1*
X77741Y31170D1*
X77735Y31188D1*
X77730Y31206D1*
X77727Y31224D1*
X77725Y31243D1*
X77724Y31261D1*
X77728Y32161D2*
Y32180D1*
X77730Y32198D1*
X77734Y32217D1*
X77739Y32235D1*
X77745Y32252D1*
X77752Y32270D1*
X77760Y32286D1*
X77770Y32303D1*
X77781Y32318D1*
X77793Y32333D1*
X77806Y32346D1*
X77820Y32359D1*
X77835Y32371D1*
X77851Y32382D1*
X77867Y32392D1*
X77885Y32401D1*
X77902Y32408D1*
X77921Y32415D1*
X77939Y32420D1*
X77959Y32424D1*
X77978Y32426D1*
X77997Y32428D1*
X78017D1*
X78036Y32426D1*
X78055Y32424D1*
X78075Y32420D1*
X78093Y32415D1*
X78112Y32408D1*
X78129Y32401D1*
X78147Y32392D1*
X78163Y32382D1*
X78179Y32371D1*
X78194Y32359D1*
X78208Y32346D1*
X78221Y32333D1*
X78233Y32318D1*
X78244Y32303D1*
X78254Y32286D1*
X78262Y32270D1*
X78269Y32252D1*
X78275Y32235D1*
X78280Y32217D1*
X78283Y32198D1*
X78286Y32180D1*
Y32161D1*
Y32143D1*
X78283Y32124D1*
X78280Y32106D1*
X78275Y32088D1*
X78269Y32070D1*
X78262Y32053D1*
X78254Y32036D1*
X78244Y32020D1*
X78233Y32005D1*
X78221Y31990D1*
X78208Y31976D1*
X78194Y31963D1*
X78179Y31951D1*
X78163Y31940D1*
X78147Y31930D1*
X78129Y31922D1*
X78112Y31914D1*
X78093Y31908D1*
X78075Y31903D1*
X78055Y31899D1*
X78036Y31896D1*
X78017Y31895D1*
X77997D1*
X77978Y31896D1*
X77959Y31899D1*
X77939Y31903D1*
X77921Y31908D1*
X77902Y31914D1*
X77885Y31922D1*
X77867Y31930D1*
X77851Y31940D1*
X77835Y31951D1*
X77820Y31963D1*
X77806Y31976D1*
X77793Y31990D1*
X77781Y32005D1*
X77770Y32020D1*
X77760Y32036D1*
X77752Y32053D1*
X77745Y32070D1*
X77739Y32088D1*
X77734Y32106D1*
X77730Y32124D1*
X77728Y32143D1*
Y32161D1*
Y32171D2*
Y32190D1*
X77730Y32209D1*
X77734Y32227D1*
X77739Y32245D1*
X77745Y32263D1*
X77752Y32280D1*
X77760Y32297D1*
X77770Y32313D1*
X77781Y32328D1*
X77793Y32343D1*
X77806Y32357D1*
X77820Y32370D1*
X77835Y32382D1*
X77851Y32392D1*
X77867Y32402D1*
X77885Y32411D1*
X77902Y32419D1*
X77921Y32425D1*
X77939Y32430D1*
X77959Y32434D1*
X77978Y32437D1*
X77997Y32438D1*
X78017D1*
X78036Y32437D1*
X78055Y32434D1*
X78075Y32430D1*
X78093Y32425D1*
X78112Y32419D1*
X78129Y32411D1*
X78147Y32402D1*
X78163Y32392D1*
X78179Y32382D1*
X78194Y32370D1*
X78208Y32357D1*
X78221Y32343D1*
X78233Y32328D1*
X78244Y32313D1*
X78254Y32297D1*
X78262Y32280D1*
X78269Y32263D1*
X78275Y32245D1*
X78280Y32227D1*
X78283Y32209D1*
X78286Y32190D1*
Y32171D1*
Y32153D1*
X78283Y32134D1*
X78280Y32116D1*
X78275Y32098D1*
X78269Y32080D1*
X78262Y32063D1*
X78254Y32046D1*
X78244Y32030D1*
X78233Y32015D1*
X78221Y32000D1*
X78208Y31986D1*
X78194Y31973D1*
X78179Y31961D1*
X78163Y31950D1*
X78147Y31941D1*
X78129Y31932D1*
X78112Y31924D1*
X78093Y31918D1*
X78075Y31913D1*
X78055Y31909D1*
X78036Y31906D1*
X78017Y31905D1*
X77997D1*
X77978Y31906D1*
X77959Y31909D1*
X77939Y31913D1*
X77921Y31918D1*
X77902Y31924D1*
X77885Y31932D1*
X77867Y31941D1*
X77851Y31950D1*
X77835Y31961D1*
X77820Y31973D1*
X77806Y31986D1*
X77793Y32000D1*
X77781Y32015D1*
X77770Y32030D1*
X77760Y32046D1*
X77752Y32063D1*
X77745Y32080D1*
X77739Y32098D1*
X77734Y32116D1*
X77730Y32134D1*
X77728Y32153D1*
Y32171D1*
X77721Y33068D2*
X77722Y33087D1*
X77724Y33105D1*
X77727Y33123D1*
X77732Y33141D1*
X77738Y33159D1*
X77745Y33176D1*
X77754Y33193D1*
X77764Y33209D1*
X77774Y33225D1*
X77786Y33239D1*
X77799Y33253D1*
X77814Y33266D1*
X77828Y33278D1*
X77844Y33289D1*
X77861Y33299D1*
X77878Y33308D1*
X77896Y33315D1*
X77914Y33321D1*
X77933Y33327D1*
X77952Y33330D1*
X77971Y33333D1*
X77991Y33334D1*
X78010D1*
X78030Y33333D1*
X78049Y33330D1*
X78068Y33327D1*
X78087Y33321D1*
X78105Y33315D1*
X78123Y33308D1*
X78140Y33299D1*
X78156Y33289D1*
X78172Y33278D1*
X78187Y33266D1*
X78201Y33253D1*
X78214Y33239D1*
X78226Y33225D1*
X78237Y33209D1*
X78247Y33193D1*
X78255Y33176D1*
X78263Y33159D1*
X78269Y33141D1*
X78273Y33123D1*
X78277Y33105D1*
X78279Y33087D1*
X78280Y33068D1*
X78279Y33049D1*
X78277Y33031D1*
X78273Y33012D1*
X78269Y32994D1*
X78263Y32977D1*
X78255Y32959D1*
X78247Y32943D1*
X78237Y32927D1*
X78226Y32911D1*
X78214Y32897D1*
X78201Y32883D1*
X78187Y32870D1*
X78172Y32858D1*
X78156Y32847D1*
X78140Y32837D1*
X78123Y32828D1*
X78105Y32821D1*
X78087Y32814D1*
X78068Y32809D1*
X78049Y32805D1*
X78030Y32803D1*
X78010Y32801D1*
X77991D1*
X77971Y32803D1*
X77952Y32805D1*
X77933Y32809D1*
X77914Y32814D1*
X77896Y32821D1*
X77878Y32828D1*
X77861Y32837D1*
X77844Y32847D1*
X77828Y32858D1*
X77814Y32870D1*
X77799Y32883D1*
X77786Y32897D1*
X77774Y32911D1*
X77764Y32927D1*
X77754Y32943D1*
X77745Y32959D1*
X77738Y32977D1*
X77732Y32994D1*
X77727Y33012D1*
X77724Y33031D1*
X77722Y33049D1*
X77721Y33068D1*
X78628Y32165D2*
X78629Y32183D1*
X78631Y32202D1*
X78634Y32220D1*
X78639Y32238D1*
X78645Y32256D1*
X78652Y32273D1*
X78661Y32290D1*
X78670Y32306D1*
X78681Y32321D1*
X78693Y32336D1*
X78706Y32350D1*
X78720Y32363D1*
X78735Y32375D1*
X78751Y32386D1*
X78768Y32396D1*
X78785Y32404D1*
X78803Y32412D1*
X78821Y32418D1*
X78840Y32423D1*
X78859Y32427D1*
X78878Y32430D1*
X78897Y32431D1*
X78917D1*
X78936Y32430D1*
X78956Y32427D1*
X78975Y32423D1*
X78993Y32418D1*
X79012Y32412D1*
X79030Y32404D1*
X79047Y32396D1*
X79063Y32386D1*
X79079Y32375D1*
X79094Y32363D1*
X79108Y32350D1*
X79121Y32336D1*
X79133Y32321D1*
X79144Y32306D1*
X79154Y32290D1*
X79162Y32273D1*
X79170Y32256D1*
X79176Y32238D1*
X79180Y32220D1*
X79184Y32202D1*
X79186Y32183D1*
Y32165D1*
Y32146D1*
X79184Y32128D1*
X79180Y32109D1*
X79176Y32091D1*
X79170Y32073D1*
X79162Y32056D1*
X79154Y32039D1*
X79144Y32023D1*
X79133Y32008D1*
X79121Y31993D1*
X79108Y31979D1*
X79094Y31967D1*
X79079Y31955D1*
X79063Y31944D1*
X79047Y31934D1*
X79030Y31925D1*
X79012Y31917D1*
X78993Y31911D1*
X78975Y31906D1*
X78956Y31902D1*
X78936Y31899D1*
X78917Y31898D1*
X78897D1*
X78878Y31899D1*
X78859Y31902D1*
X78840Y31906D1*
X78821Y31911D1*
X78803Y31917D1*
X78785Y31925D1*
X78768Y31934D1*
X78751Y31944D1*
X78735Y31955D1*
X78720Y31967D1*
X78706Y31979D1*
X78693Y31993D1*
X78681Y32008D1*
X78670Y32023D1*
X78661Y32039D1*
X78652Y32056D1*
X78645Y32073D1*
X78639Y32091D1*
X78634Y32109D1*
X78631Y32128D1*
X78629Y32146D1*
X78628Y32165D1*
Y31268D2*
X78629Y31287D1*
X78631Y31305D1*
X78634Y31324D1*
X78639Y31342D1*
X78645Y31359D1*
X78652Y31377D1*
X78661Y31393D1*
X78670Y31409D1*
X78681Y31425D1*
X78693Y31440D1*
X78706Y31453D1*
X78720Y31466D1*
X78735Y31478D1*
X78751Y31489D1*
X78768Y31499D1*
X78785Y31508D1*
X78803Y31515D1*
X78821Y31522D1*
X78840Y31527D1*
X78859Y31531D1*
X78878Y31533D1*
X78897Y31535D1*
X78917D1*
X78936Y31533D1*
X78956Y31531D1*
X78975Y31527D1*
X78993Y31522D1*
X79012Y31515D1*
X79030Y31508D1*
X79047Y31499D1*
X79063Y31489D1*
X79079Y31478D1*
X79094Y31466D1*
X79108Y31453D1*
X79121Y31440D1*
X79133Y31425D1*
X79144Y31409D1*
X79154Y31393D1*
X79162Y31377D1*
X79170Y31359D1*
X79176Y31342D1*
X79180Y31324D1*
X79184Y31305D1*
X79186Y31287D1*
Y31268D1*
Y31250D1*
X79184Y31231D1*
X79180Y31213D1*
X79176Y31195D1*
X79170Y31177D1*
X79162Y31160D1*
X79154Y31143D1*
X79144Y31127D1*
X79133Y31111D1*
X79121Y31097D1*
X79108Y31083D1*
X79094Y31070D1*
X79079Y31058D1*
X79063Y31047D1*
X79047Y31037D1*
X79030Y31029D1*
X79012Y31021D1*
X78993Y31015D1*
X78975Y31009D1*
X78956Y31006D1*
X78936Y31003D1*
X78917Y31002D1*
X78897D1*
X78878Y31003D1*
X78859Y31006D1*
X78840Y31009D1*
X78821Y31015D1*
X78803Y31021D1*
X78785Y31029D1*
X78768Y31037D1*
X78751Y31047D1*
X78735Y31058D1*
X78720Y31070D1*
X78706Y31083D1*
X78693Y31097D1*
X78681Y31111D1*
X78670Y31127D1*
X78661Y31143D1*
X78652Y31160D1*
X78645Y31177D1*
X78639Y31195D1*
X78634Y31213D1*
X78631Y31231D1*
X78629Y31250D1*
X78628Y31268D1*
Y33071D2*
X78629Y33090D1*
X78631Y33108D1*
X78634Y33127D1*
X78639Y33145D1*
X78645Y33163D1*
X78652Y33180D1*
X78661Y33196D1*
X78670Y33213D1*
X78681Y33228D1*
X78693Y33243D1*
X78706Y33257D1*
X78720Y33269D1*
X78735Y33281D1*
X78751Y33292D1*
X78768Y33302D1*
X78785Y33311D1*
X78803Y33319D1*
X78821Y33325D1*
X78840Y33330D1*
X78859Y33334D1*
X78878Y33336D1*
X78897Y33338D1*
X78917D1*
X78936Y33336D1*
X78956Y33334D1*
X78975Y33330D1*
X78993Y33325D1*
X79012Y33319D1*
X79030Y33311D1*
X79047Y33302D1*
X79063Y33292D1*
X79079Y33281D1*
X79094Y33269D1*
X79108Y33257D1*
X79121Y33243D1*
X79133Y33228D1*
X79144Y33213D1*
X79154Y33196D1*
X79162Y33180D1*
X79170Y33163D1*
X79176Y33145D1*
X79180Y33127D1*
X79184Y33108D1*
X79186Y33090D1*
Y33071D1*
Y33053D1*
X79184Y33034D1*
X79180Y33016D1*
X79176Y32998D1*
X79170Y32980D1*
X79162Y32963D1*
X79154Y32946D1*
X79144Y32930D1*
X79133Y32915D1*
X79121Y32900D1*
X79108Y32886D1*
X79094Y32873D1*
X79079Y32861D1*
X79063Y32850D1*
X79047Y32840D1*
X79030Y32832D1*
X79012Y32824D1*
X78993Y32818D1*
X78975Y32813D1*
X78956Y32809D1*
X78936Y32806D1*
X78917Y32805D1*
X78897D1*
X78878Y32806D1*
X78859Y32809D1*
X78840Y32813D1*
X78821Y32818D1*
X78803Y32824D1*
X78785Y32832D1*
X78768Y32840D1*
X78751Y32850D1*
X78735Y32861D1*
X78720Y32873D1*
X78706Y32886D1*
X78693Y32900D1*
X78681Y32915D1*
X78670Y32930D1*
X78661Y32946D1*
X78652Y32963D1*
X78645Y32980D1*
X78639Y32998D1*
X78634Y33016D1*
X78631Y33034D1*
X78629Y33053D1*
X78628Y33071D1*
X76737Y30911D2*
D10*
X79264D1*
Y33402D1*
X76737D1*
Y30911D1*
G36*
X76797Y31505D2*
X79180D1*
Y31985D1*
X76797D1*
Y31505D1*
G37*
G36*
X78204Y30948D2*
X78670D1*
Y33425D1*
X78204D1*
Y30948D1*
G37*
G36*
X77344Y30965D2*
X77810D1*
Y33325D1*
X77344D1*
Y30965D1*
G37*
G36*
X76704Y32395D2*
X79174D1*
Y32868D1*
X76704D1*
Y32395D1*
G37*
X76841Y31295D2*
D21*
X76842Y31313D1*
X76844Y31332D1*
X76847Y31350D1*
X76852Y31368D1*
X76858Y31386D1*
X76865Y31403D1*
X76874Y31420D1*
X76883Y31436D1*
X76894Y31452D1*
X76906Y31466D1*
X76919Y31480D1*
X76933Y31493D1*
X76948Y31505D1*
X76964Y31516D1*
X76981Y31526D1*
X76998Y31534D1*
X77016Y31542D1*
X77034Y31548D1*
X77053Y31554D1*
X77072Y31557D1*
X77091Y31560D1*
X77111Y31561D1*
X77130D1*
X77150Y31560D1*
X77169Y31557D1*
X77188Y31554D1*
X77207Y31548D1*
X77225Y31542D1*
X77243Y31534D1*
X77260Y31526D1*
X77277Y31516D1*
X77292Y31505D1*
X77307Y31493D1*
X77321Y31480D1*
X77334Y31466D1*
X77346Y31452D1*
X77357Y31436D1*
X77367Y31420D1*
X77376Y31403D1*
X77383Y31386D1*
X77389Y31368D1*
X77394Y31350D1*
X77397Y31332D1*
X77399Y31313D1*
X77400Y31295D1*
X77399Y31276D1*
X77397Y31258D1*
X77394Y31239D1*
X77389Y31221D1*
X77383Y31204D1*
X77376Y31186D1*
X77367Y31170D1*
X77357Y31154D1*
X77346Y31138D1*
X77334Y31123D1*
X77321Y31110D1*
X77307Y31097D1*
X77292Y31085D1*
X77277Y31074D1*
X77260Y31064D1*
X77243Y31055D1*
X77225Y31048D1*
X77207Y31041D1*
X77188Y31036D1*
X77169Y31032D1*
X77150Y31030D1*
X77130Y31028D1*
X77111D1*
X77091Y31030D1*
X77072Y31032D1*
X77053Y31036D1*
X77034Y31041D1*
X77016Y31048D1*
X76998Y31055D1*
X76981Y31064D1*
X76964Y31074D1*
X76948Y31085D1*
X76933Y31097D1*
X76919Y31110D1*
X76906Y31123D1*
X76894Y31138D1*
X76883Y31154D1*
X76874Y31170D1*
X76865Y31186D1*
X76858Y31204D1*
X76852Y31221D1*
X76847Y31239D1*
X76844Y31258D1*
X76842Y31276D1*
X76841Y31295D1*
D84*
X76754Y30122D3*
X77254D3*
X77754D3*
X78254D3*
X78754D3*
X79254D3*
D83*
X80054Y30922D3*
Y31422D3*
Y31922D3*
Y32422D3*
Y32922D3*
Y33422D3*
D84*
X79254Y34222D3*
X78754D3*
X78254D3*
X77754D3*
X77254D3*
X76754D3*
D83*
X75954Y33422D3*
Y32922D3*
Y32422D3*
Y31922D3*
Y31422D3*
Y30922D3*
D50*
X81685Y77860D3*
X80385D3*
X79085D3*
Y75660D3*
X80385D3*
X81685D3*
G36*
X77192Y27979D2*
X77186Y28051D1*
X77167Y28122D1*
X77136Y28188D1*
X77094Y28248D1*
X77043Y28300D1*
X76983Y28341D1*
X76917Y28372D1*
X76846Y28391D1*
X76774Y28398D1*
D1*
X76701Y28391D1*
X76630Y28372D1*
X76564Y28341D1*
X76504Y28300D1*
X76453Y28248D1*
X76411Y28188D1*
X76380Y28122D1*
X76361Y28051D1*
X76355Y27979D1*
D1*
X76361Y27906D1*
X76380Y27835D1*
X76411Y27769D1*
X76453Y27710D1*
X76504Y27658D1*
X76564Y27616D1*
X76630Y27585D1*
X76701Y27566D1*
X76774Y27560D1*
D1*
X76846Y27566D1*
X76917Y27585D1*
X76983Y27616D1*
X77043Y27658D1*
X77094Y27710D1*
X77136Y27769D1*
X77167Y27835D1*
X77186Y27906D1*
X77192Y27979D1*
G37*
G36*
X78462D2*
X78456Y28051D1*
X78437Y28122D1*
X78406Y28188D1*
X78364Y28248D1*
X78313Y28300D1*
X78253Y28341D1*
X78187Y28372D1*
X78116Y28391D1*
X78044Y28398D1*
D1*
X77971Y28391D1*
X77900Y28372D1*
X77834Y28341D1*
X77774Y28300D1*
X77723Y28248D1*
X77681Y28188D1*
X77650Y28122D1*
X77631Y28051D1*
X77625Y27979D1*
D1*
X77631Y27906D1*
X77650Y27835D1*
X77681Y27769D1*
X77723Y27710D1*
X77774Y27658D1*
X77834Y27616D1*
X77900Y27585D1*
X77971Y27566D1*
X78044Y27560D1*
D1*
X78116Y27566D1*
X78187Y27585D1*
X78253Y27616D1*
X78313Y27658D1*
X78364Y27710D1*
X78406Y27769D1*
X78437Y27835D1*
X78456Y27906D1*
X78462Y27979D1*
G37*
G36*
X79732D2*
X79726Y28051D1*
X79707Y28122D1*
X79676Y28188D1*
X79634Y28248D1*
X79583Y28300D1*
X79523Y28341D1*
X79457Y28372D1*
X79386Y28391D1*
X79314Y28398D1*
D1*
X79241Y28391D1*
X79170Y28372D1*
X79104Y28341D1*
X79044Y28300D1*
X78993Y28248D1*
X78951Y28188D1*
X78920Y28122D1*
X78901Y28051D1*
X78895Y27979D1*
D1*
X78901Y27906D1*
X78920Y27835D1*
X78951Y27769D1*
X78993Y27710D1*
X79044Y27658D1*
X79104Y27616D1*
X79170Y27585D1*
X79241Y27566D1*
X79314Y27560D1*
D1*
X79386Y27566D1*
X79457Y27585D1*
X79523Y27616D1*
X79583Y27658D1*
X79634Y27710D1*
X79676Y27769D1*
X79707Y27835D1*
X79726Y27906D1*
X79732Y27979D1*
G37*
G36*
Y26709D2*
X79726Y26781D1*
X79707Y26852D1*
X79676Y26918D1*
X79634Y26978D1*
X79583Y27030D1*
X79523Y27071D1*
X79457Y27102D1*
X79386Y27121D1*
X79314Y27128D1*
D1*
X79241Y27121D1*
X79170Y27102D1*
X79104Y27071D1*
X79044Y27030D1*
X78993Y26978D1*
X78951Y26918D1*
X78920Y26852D1*
X78901Y26781D1*
X78895Y26709D1*
D1*
X78901Y26636D1*
X78920Y26565D1*
X78951Y26499D1*
X78993Y26440D1*
X79044Y26388D1*
X79104Y26346D1*
X79170Y26315D1*
X79241Y26296D1*
X79314Y26290D1*
D1*
X79386Y26296D1*
X79457Y26315D1*
X79523Y26346D1*
X79583Y26388D1*
X79634Y26440D1*
X79676Y26499D1*
X79707Y26565D1*
X79726Y26636D1*
X79732Y26709D1*
G37*
G36*
X78462D2*
X78456Y26781D1*
X78437Y26852D1*
X78406Y26918D1*
X78364Y26978D1*
X78313Y27030D1*
X78253Y27071D1*
X78187Y27102D1*
X78116Y27121D1*
X78044Y27128D1*
D1*
X77971Y27121D1*
X77900Y27102D1*
X77834Y27071D1*
X77774Y27030D1*
X77723Y26978D1*
X77681Y26918D1*
X77650Y26852D1*
X77631Y26781D1*
X77625Y26709D1*
D1*
X77631Y26636D1*
X77650Y26565D1*
X77681Y26499D1*
X77723Y26440D1*
X77774Y26388D1*
X77834Y26346D1*
X77900Y26315D1*
X77971Y26296D1*
X78044Y26290D1*
D1*
X78116Y26296D1*
X78187Y26315D1*
X78253Y26346D1*
X78313Y26388D1*
X78364Y26440D1*
X78406Y26499D1*
X78437Y26565D1*
X78456Y26636D1*
X78462Y26709D1*
G37*
G36*
X77192D2*
X77186Y26781D1*
X77167Y26852D1*
X77136Y26918D1*
X77094Y26978D1*
X77043Y27030D1*
X76983Y27071D1*
X76917Y27102D1*
X76846Y27121D1*
X76774Y27128D1*
D1*
X76701Y27121D1*
X76630Y27102D1*
X76564Y27071D1*
X76504Y27030D1*
X76453Y26978D1*
X76411Y26918D1*
X76380Y26852D1*
X76361Y26781D1*
X76355Y26709D1*
D1*
X76361Y26636D1*
X76380Y26565D1*
X76411Y26499D1*
X76453Y26440D1*
X76504Y26388D1*
X76564Y26346D1*
X76630Y26315D1*
X76701Y26296D1*
X76774Y26290D1*
D1*
X76846Y26296D1*
X76917Y26315D1*
X76983Y26346D1*
X77043Y26388D1*
X77094Y26440D1*
X77136Y26499D1*
X77167Y26565D1*
X77186Y26636D1*
X77192Y26709D1*
G37*
D58*
X75504Y27344D3*
X80584Y28360D3*
Y26328D3*
D75*
X76154Y37672D3*
X78004D3*
X79854D3*
Y42672D3*
X78004D3*
X76154D3*
D77*
X81215Y79295D3*
X79515D3*
D78*
X77904Y76970D3*
Y78670D3*
D66*
X81740Y73602D3*
X80040D3*
D75*
X76154Y46672D3*
X78004D3*
X79854D3*
Y51672D3*
X78004D3*
X76154D3*
Y55672D3*
X78004D3*
X79854D3*
Y60672D3*
X78004D3*
X76154D3*
Y64672D3*
X78004D3*
X79854D3*
Y69672D3*
X78004D3*
X76154D3*
D79*
X71504Y74322D3*
Y76172D3*
Y78022D3*
X66504D3*
Y76172D3*
Y74322D3*
X62504D3*
Y76172D3*
Y78022D3*
X57504D3*
Y76172D3*
Y74322D3*
D75*
X76154Y82672D3*
X78004D3*
X79854D3*
Y87672D3*
X78004D3*
X76154D3*
Y91672D3*
X78004D3*
X79854D3*
Y96672D3*
X78004D3*
X76154D3*
D79*
X84504Y78022D3*
Y76172D3*
Y74322D3*
X89504D3*
Y76172D3*
Y78022D3*
X93504D3*
Y76172D3*
Y74322D3*
X98504D3*
Y76172D3*
Y78022D3*
D59*
X79714Y54185D3*
Y57185D3*
D72*
X76389Y71647D3*
X75089D3*
D71*
X73743Y72841D3*
Y74141D3*
X77413Y73008D3*
Y74308D3*
X73110Y75730D3*
Y77030D3*
X75649Y75743D3*
Y77043D3*
D78*
X74375Y75784D3*
Y77484D3*
D69*
X74898Y72885D3*
X75398D3*
X75898D3*
X76398D3*
D70*
Y73385D3*
Y73885D3*
D69*
Y74385D3*
X75898D3*
X75398D3*
X74898D3*
D70*
Y73885D3*
Y73385D3*
D72*
X79156Y35553D3*
X80456D3*
D60*
X78004Y101172D3*
X34154Y44546D2*
D21*
X34155Y44564D1*
X34157Y44583D1*
X34160Y44601D1*
X34165Y44619D1*
X34171Y44637D1*
X34178Y44654D1*
X34187Y44671D1*
X34197Y44687D1*
X34207Y44702D1*
X34219Y44717D1*
X34233Y44731D1*
X34247Y44744D1*
X34261Y44756D1*
X34277Y44767D1*
X34294Y44776D1*
X34311Y44785D1*
X34329Y44793D1*
X34347Y44799D1*
X34366Y44804D1*
X34385Y44808D1*
X34404Y44811D1*
X34424Y44812D1*
X34443D1*
X34463Y44811D1*
X34482Y44808D1*
X34501Y44804D1*
X34520Y44799D1*
X34538Y44793D1*
X34556Y44785D1*
X34573Y44776D1*
X34590Y44767D1*
X34606Y44756D1*
X34621Y44744D1*
X34635Y44731D1*
X34648Y44717D1*
X34660Y44702D1*
X34671Y44687D1*
X34680Y44671D1*
X34689Y44654D1*
X34696Y44637D1*
X34702Y44619D1*
X34707Y44601D1*
X34710Y44583D1*
X34712Y44564D1*
X34713Y44546D1*
X34712Y44527D1*
X34710Y44508D1*
X34707Y44490D1*
X34702Y44472D1*
X34696Y44454D1*
X34689Y44437D1*
X34680Y44420D1*
X34671Y44404D1*
X34660Y44389D1*
X34648Y44374D1*
X34635Y44360D1*
X34621Y44347D1*
X34606Y44335D1*
X34590Y44325D1*
X34573Y44315D1*
X34556Y44306D1*
X34538Y44298D1*
X34520Y44292D1*
X34501Y44287D1*
X34482Y44283D1*
X34463Y44280D1*
X34443Y44279D1*
X34424D1*
X34404Y44280D1*
X34385Y44283D1*
X34366Y44287D1*
X34347Y44292D1*
X34329Y44298D1*
X34311Y44306D1*
X34294Y44315D1*
X34277Y44325D1*
X34261Y44335D1*
X34247Y44347D1*
X34233Y44360D1*
X34219Y44374D1*
X34207Y44389D1*
X34197Y44404D1*
X34187Y44420D1*
X34178Y44437D1*
X34171Y44454D1*
X34165Y44472D1*
X34160Y44490D1*
X34157Y44508D1*
X34155Y44527D1*
X34154Y44546D1*
Y45449D2*
X34155Y45467D1*
X34157Y45486D1*
X34160Y45504D1*
X34165Y45522D1*
X34171Y45540D1*
X34178Y45557D1*
X34187Y45574D1*
X34197Y45590D1*
X34207Y45606D1*
X34219Y45620D1*
X34233Y45634D1*
X34247Y45647D1*
X34261Y45659D1*
X34277Y45670D1*
X34294Y45680D1*
X34311Y45688D1*
X34329Y45696D1*
X34347Y45702D1*
X34366Y45708D1*
X34385Y45711D1*
X34404Y45714D1*
X34424Y45715D1*
X34443D1*
X34463Y45714D1*
X34482Y45711D1*
X34501Y45708D1*
X34520Y45702D1*
X34538Y45696D1*
X34556Y45688D1*
X34573Y45680D1*
X34590Y45670D1*
X34606Y45659D1*
X34621Y45647D1*
X34635Y45634D1*
X34648Y45620D1*
X34660Y45606D1*
X34671Y45590D1*
X34680Y45574D1*
X34689Y45557D1*
X34696Y45540D1*
X34702Y45522D1*
X34707Y45504D1*
X34710Y45486D1*
X34712Y45467D1*
X34713Y45449D1*
X34712Y45430D1*
X34710Y45412D1*
X34707Y45393D1*
X34702Y45375D1*
X34696Y45358D1*
X34689Y45340D1*
X34680Y45324D1*
X34671Y45308D1*
X34660Y45292D1*
X34648Y45277D1*
X34635Y45264D1*
X34621Y45251D1*
X34606Y45239D1*
X34590Y45228D1*
X34573Y45218D1*
X34556Y45209D1*
X34538Y45202D1*
X34520Y45195D1*
X34501Y45190D1*
X34482Y45186D1*
X34463Y45184D1*
X34443Y45182D1*
X34424D1*
X34404Y45184D1*
X34385Y45186D1*
X34366Y45190D1*
X34347Y45195D1*
X34329Y45202D1*
X34311Y45209D1*
X34294Y45218D1*
X34277Y45228D1*
X34261Y45239D1*
X34247Y45251D1*
X34233Y45264D1*
X34219Y45277D1*
X34207Y45292D1*
X34197Y45308D1*
X34187Y45324D1*
X34178Y45340D1*
X34171Y45358D1*
X34165Y45375D1*
X34160Y45393D1*
X34157Y45412D1*
X34155Y45430D1*
X34154Y45449D1*
X35051Y43639D2*
Y43658D1*
X35053Y43676D1*
X35057Y43694D1*
X35061Y43712D1*
X35068Y43730D1*
X35075Y43747D1*
X35083Y43764D1*
X35093Y43780D1*
X35104Y43796D1*
X35116Y43810D1*
X35129Y43824D1*
X35143Y43837D1*
X35158Y43849D1*
X35174Y43860D1*
X35190Y43870D1*
X35208Y43879D1*
X35225Y43886D1*
X35244Y43892D1*
X35263Y43898D1*
X35282Y43901D1*
X35301Y43904D1*
X35320Y43905D1*
X35340D1*
X35359Y43904D1*
X35379Y43901D1*
X35398Y43898D1*
X35417Y43892D1*
X35435Y43886D1*
X35453Y43879D1*
X35470Y43870D1*
X35486Y43860D1*
X35502Y43849D1*
X35517Y43837D1*
X35531Y43824D1*
X35544Y43810D1*
X35556Y43796D1*
X35567Y43780D1*
X35577Y43764D1*
X35585Y43747D1*
X35593Y43730D1*
X35599Y43712D1*
X35604Y43694D1*
X35607Y43676D1*
X35609Y43658D1*
X35610Y43639D1*
X35609Y43620D1*
X35607Y43602D1*
X35604Y43583D1*
X35599Y43565D1*
X35593Y43548D1*
X35585Y43530D1*
X35577Y43514D1*
X35567Y43498D1*
X35556Y43482D1*
X35544Y43468D1*
X35531Y43454D1*
X35517Y43441D1*
X35502Y43429D1*
X35486Y43418D1*
X35470Y43408D1*
X35453Y43399D1*
X35435Y43392D1*
X35417Y43385D1*
X35398Y43380D1*
X35379Y43376D1*
X35359Y43374D1*
X35340Y43372D1*
X35320D1*
X35301Y43374D1*
X35282Y43376D1*
X35263Y43380D1*
X35244Y43385D1*
X35225Y43392D1*
X35208Y43399D1*
X35190Y43408D1*
X35174Y43418D1*
X35158Y43429D1*
X35143Y43441D1*
X35129Y43454D1*
X35116Y43468D1*
X35104Y43482D1*
X35093Y43498D1*
X35083Y43514D1*
X35075Y43530D1*
X35068Y43548D1*
X35061Y43565D1*
X35057Y43583D1*
X35053Y43602D1*
X35051Y43620D1*
Y43639D1*
X35054Y44539D2*
X35055Y44557D1*
X35057Y44576D1*
X35060Y44594D1*
X35065Y44612D1*
X35071Y44630D1*
X35078Y44647D1*
X35087Y44664D1*
X35097Y44680D1*
X35108Y44696D1*
X35120Y44710D1*
X35133Y44724D1*
X35147Y44737D1*
X35162Y44749D1*
X35177Y44760D1*
X35194Y44770D1*
X35211Y44778D1*
X35229Y44786D1*
X35247Y44792D1*
X35266Y44797D1*
X35285Y44801D1*
X35304Y44804D1*
X35324Y44805D1*
X35343D1*
X35363Y44804D1*
X35382Y44801D1*
X35401Y44797D1*
X35420Y44792D1*
X35438Y44786D1*
X35456Y44778D1*
X35473Y44770D1*
X35490Y44760D1*
X35505Y44749D1*
X35520Y44737D1*
X35534Y44724D1*
X35547Y44710D1*
X35559Y44696D1*
X35570Y44680D1*
X35580Y44664D1*
X35589Y44647D1*
X35596Y44630D1*
X35602Y44612D1*
X35607Y44594D1*
X35610Y44576D1*
X35612Y44557D1*
X35613Y44539D1*
X35612Y44520D1*
X35610Y44502D1*
X35607Y44483D1*
X35602Y44465D1*
X35596Y44448D1*
X35589Y44430D1*
X35580Y44414D1*
X35570Y44398D1*
X35559Y44382D1*
X35547Y44367D1*
X35534Y44354D1*
X35520Y44341D1*
X35505Y44329D1*
X35490Y44318D1*
X35473Y44308D1*
X35456Y44299D1*
X35438Y44292D1*
X35420Y44285D1*
X35401Y44280D1*
X35382Y44276D1*
X35363Y44274D1*
X35343Y44272D1*
X35324D1*
X35304Y44274D1*
X35285Y44276D1*
X35266Y44280D1*
X35247Y44285D1*
X35229Y44292D1*
X35211Y44299D1*
X35194Y44308D1*
X35177Y44318D1*
X35162Y44329D1*
X35147Y44341D1*
X35133Y44354D1*
X35120Y44367D1*
X35108Y44382D1*
X35097Y44398D1*
X35087Y44414D1*
X35078Y44430D1*
X35071Y44448D1*
X35065Y44465D1*
X35060Y44483D1*
X35057Y44502D1*
X35055Y44520D1*
X35054Y44539D1*
Y44549D2*
X35055Y44568D1*
X35057Y44586D1*
X35060Y44604D1*
X35065Y44622D1*
X35071Y44640D1*
X35078Y44657D1*
X35087Y44674D1*
X35097Y44690D1*
X35108Y44706D1*
X35120Y44720D1*
X35133Y44734D1*
X35147Y44747D1*
X35162Y44759D1*
X35177Y44770D1*
X35194Y44780D1*
X35211Y44789D1*
X35229Y44796D1*
X35247Y44803D1*
X35266Y44808D1*
X35285Y44812D1*
X35304Y44814D1*
X35324Y44815D1*
X35343D1*
X35363Y44814D1*
X35382Y44812D1*
X35401Y44808D1*
X35420Y44803D1*
X35438Y44796D1*
X35456Y44789D1*
X35473Y44780D1*
X35490Y44770D1*
X35505Y44759D1*
X35520Y44747D1*
X35534Y44734D1*
X35547Y44720D1*
X35559Y44706D1*
X35570Y44690D1*
X35580Y44674D1*
X35589Y44657D1*
X35596Y44640D1*
X35602Y44622D1*
X35607Y44604D1*
X35610Y44586D1*
X35612Y44568D1*
X35613Y44549D1*
X35612Y44530D1*
X35610Y44512D1*
X35607Y44494D1*
X35602Y44475D1*
X35596Y44458D1*
X35589Y44441D1*
X35580Y44424D1*
X35570Y44408D1*
X35559Y44392D1*
X35547Y44378D1*
X35534Y44364D1*
X35520Y44351D1*
X35505Y44339D1*
X35490Y44328D1*
X35473Y44318D1*
X35456Y44309D1*
X35438Y44302D1*
X35420Y44295D1*
X35401Y44290D1*
X35382Y44286D1*
X35363Y44284D1*
X35343Y44283D1*
X35324D1*
X35304Y44284D1*
X35285Y44286D1*
X35266Y44290D1*
X35247Y44295D1*
X35229Y44302D1*
X35211Y44309D1*
X35194Y44318D1*
X35177Y44328D1*
X35162Y44339D1*
X35147Y44351D1*
X35133Y44364D1*
X35120Y44378D1*
X35108Y44392D1*
X35097Y44408D1*
X35087Y44424D1*
X35078Y44441D1*
X35071Y44458D1*
X35065Y44475D1*
X35060Y44494D1*
X35057Y44512D1*
X35055Y44530D1*
X35054Y44549D1*
X35048Y45445D2*
Y45464D1*
X35050Y45483D1*
X35054Y45501D1*
X35058Y45519D1*
X35064Y45537D1*
X35072Y45554D1*
X35080Y45571D1*
X35090Y45587D1*
X35101Y45602D1*
X35113Y45617D1*
X35126Y45631D1*
X35140Y45644D1*
X35155Y45656D1*
X35171Y45666D1*
X35187Y45676D1*
X35204Y45685D1*
X35222Y45693D1*
X35241Y45699D1*
X35259Y45704D1*
X35278Y45708D1*
X35298Y45711D1*
X35317Y45712D1*
X35337D1*
X35356Y45711D1*
X35375Y45708D1*
X35394Y45704D1*
X35413Y45699D1*
X35431Y45693D1*
X35449Y45685D1*
X35466Y45676D1*
X35483Y45666D1*
X35499Y45656D1*
X35514Y45644D1*
X35528Y45631D1*
X35541Y45617D1*
X35553Y45602D1*
X35564Y45587D1*
X35573Y45571D1*
X35582Y45554D1*
X35589Y45537D1*
X35595Y45519D1*
X35600Y45501D1*
X35603Y45483D1*
X35605Y45464D1*
X35606Y45445D1*
X35605Y45427D1*
X35603Y45408D1*
X35600Y45390D1*
X35595Y45372D1*
X35589Y45354D1*
X35582Y45337D1*
X35573Y45320D1*
X35564Y45304D1*
X35553Y45289D1*
X35541Y45274D1*
X35528Y45260D1*
X35514Y45247D1*
X35499Y45235D1*
X35483Y45224D1*
X35466Y45215D1*
X35449Y45206D1*
X35431Y45198D1*
X35413Y45192D1*
X35394Y45187D1*
X35375Y45183D1*
X35356Y45180D1*
X35337Y45179D1*
X35317D1*
X35298Y45180D1*
X35278Y45183D1*
X35259Y45187D1*
X35241Y45192D1*
X35222Y45198D1*
X35204Y45206D1*
X35187Y45215D1*
X35171Y45224D1*
X35155Y45235D1*
X35140Y45247D1*
X35126Y45260D1*
X35113Y45274D1*
X35101Y45289D1*
X35090Y45304D1*
X35080Y45320D1*
X35072Y45337D1*
X35064Y45354D1*
X35058Y45372D1*
X35054Y45390D1*
X35050Y45408D1*
X35048Y45427D1*
Y45445D1*
X35954Y44542D2*
X35955Y44561D1*
X35957Y44579D1*
X35960Y44598D1*
X35965Y44616D1*
X35971Y44633D1*
X35979Y44651D1*
X35987Y44667D1*
X35997Y44683D1*
X36008Y44699D1*
X36020Y44714D1*
X36033Y44727D1*
X36047Y44740D1*
X36062Y44752D1*
X36077Y44763D1*
X36094Y44773D1*
X36111Y44782D1*
X36129Y44789D1*
X36147Y44796D1*
X36166Y44801D1*
X36185Y44805D1*
X36204Y44807D1*
X36224Y44809D1*
X36243D1*
X36263Y44807D1*
X36282Y44805D1*
X36301Y44801D1*
X36320Y44796D1*
X36338Y44789D1*
X36356Y44782D1*
X36373Y44773D1*
X36390Y44763D1*
X36406Y44752D1*
X36420Y44740D1*
X36434Y44727D1*
X36448Y44714D1*
X36460Y44699D1*
X36470Y44683D1*
X36480Y44667D1*
X36489Y44651D1*
X36496Y44633D1*
X36502Y44616D1*
X36507Y44598D1*
X36510Y44579D1*
X36512Y44561D1*
X36513Y44542D1*
X36512Y44524D1*
X36510Y44505D1*
X36507Y44487D1*
X36502Y44469D1*
X36496Y44451D1*
X36489Y44434D1*
X36480Y44417D1*
X36470Y44401D1*
X36460Y44385D1*
X36448Y44371D1*
X36434Y44357D1*
X36420Y44344D1*
X36406Y44332D1*
X36390Y44321D1*
X36373Y44311D1*
X36356Y44303D1*
X36338Y44295D1*
X36320Y44289D1*
X36301Y44283D1*
X36282Y44280D1*
X36263Y44277D1*
X36243Y44276D1*
X36224D1*
X36204Y44277D1*
X36185Y44280D1*
X36166Y44283D1*
X36147Y44289D1*
X36129Y44295D1*
X36111Y44303D1*
X36094Y44311D1*
X36077Y44321D1*
X36062Y44332D1*
X36047Y44344D1*
X36033Y44357D1*
X36020Y44371D1*
X36008Y44385D1*
X35997Y44401D1*
X35987Y44417D1*
X35979Y44434D1*
X35971Y44451D1*
X35965Y44469D1*
X35960Y44487D1*
X35957Y44505D1*
X35955Y44524D1*
X35954Y44542D1*
Y43646D2*
X35955Y43664D1*
X35957Y43683D1*
X35960Y43701D1*
X35965Y43719D1*
X35971Y43737D1*
X35979Y43754D1*
X35987Y43771D1*
X35997Y43787D1*
X36008Y43802D1*
X36020Y43817D1*
X36033Y43831D1*
X36047Y43844D1*
X36062Y43856D1*
X36077Y43867D1*
X36094Y43877D1*
X36111Y43885D1*
X36129Y43893D1*
X36147Y43899D1*
X36166Y43904D1*
X36185Y43908D1*
X36204Y43911D1*
X36224Y43912D1*
X36243D1*
X36263Y43911D1*
X36282Y43908D1*
X36301Y43904D1*
X36320Y43899D1*
X36338Y43893D1*
X36356Y43885D1*
X36373Y43877D1*
X36390Y43867D1*
X36406Y43856D1*
X36420Y43844D1*
X36434Y43831D1*
X36448Y43817D1*
X36460Y43802D1*
X36470Y43787D1*
X36480Y43771D1*
X36489Y43754D1*
X36496Y43737D1*
X36502Y43719D1*
X36507Y43701D1*
X36510Y43683D1*
X36512Y43664D1*
X36513Y43646D1*
X36512Y43627D1*
X36510Y43609D1*
X36507Y43590D1*
X36502Y43572D1*
X36496Y43555D1*
X36489Y43537D1*
X36480Y43521D1*
X36470Y43504D1*
X36460Y43489D1*
X36448Y43474D1*
X36434Y43461D1*
X36420Y43448D1*
X36406Y43436D1*
X36390Y43425D1*
X36373Y43415D1*
X36356Y43406D1*
X36338Y43399D1*
X36320Y43392D1*
X36301Y43387D1*
X36282Y43383D1*
X36263Y43381D1*
X36243Y43379D1*
X36224D1*
X36204Y43381D1*
X36185Y43383D1*
X36166Y43387D1*
X36147Y43392D1*
X36129Y43399D1*
X36111Y43406D1*
X36094Y43415D1*
X36077Y43425D1*
X36062Y43436D1*
X36047Y43448D1*
X36033Y43461D1*
X36020Y43474D1*
X36008Y43489D1*
X35997Y43504D1*
X35987Y43521D1*
X35979Y43537D1*
X35971Y43555D1*
X35965Y43572D1*
X35960Y43590D1*
X35957Y43609D1*
X35955Y43627D1*
X35954Y43646D1*
Y45449D2*
X35955Y45467D1*
X35957Y45486D1*
X35960Y45504D1*
X35965Y45522D1*
X35971Y45540D1*
X35979Y45557D1*
X35987Y45574D1*
X35997Y45590D1*
X36008Y45606D1*
X36020Y45620D1*
X36033Y45634D1*
X36047Y45647D1*
X36062Y45659D1*
X36077Y45670D1*
X36094Y45680D1*
X36111Y45688D1*
X36129Y45696D1*
X36147Y45702D1*
X36166Y45708D1*
X36185Y45711D1*
X36204Y45714D1*
X36224Y45715D1*
X36243D1*
X36263Y45714D1*
X36282Y45711D1*
X36301Y45708D1*
X36320Y45702D1*
X36338Y45696D1*
X36356Y45688D1*
X36373Y45680D1*
X36390Y45670D1*
X36406Y45659D1*
X36420Y45647D1*
X36434Y45634D1*
X36448Y45620D1*
X36460Y45606D1*
X36470Y45590D1*
X36480Y45574D1*
X36489Y45557D1*
X36496Y45540D1*
X36502Y45522D1*
X36507Y45504D1*
X36510Y45486D1*
X36512Y45467D1*
X36513Y45449D1*
X36512Y45430D1*
X36510Y45412D1*
X36507Y45393D1*
X36502Y45375D1*
X36496Y45358D1*
X36489Y45340D1*
X36480Y45324D1*
X36470Y45308D1*
X36460Y45292D1*
X36448Y45277D1*
X36434Y45264D1*
X36420Y45251D1*
X36406Y45239D1*
X36390Y45228D1*
X36373Y45218D1*
X36356Y45209D1*
X36338Y45202D1*
X36320Y45195D1*
X36301Y45190D1*
X36282Y45186D1*
X36263Y45184D1*
X36243Y45182D1*
X36224D1*
X36204Y45184D1*
X36185Y45186D1*
X36166Y45190D1*
X36147Y45195D1*
X36129Y45202D1*
X36111Y45209D1*
X36094Y45218D1*
X36077Y45228D1*
X36062Y45239D1*
X36047Y45251D1*
X36033Y45264D1*
X36020Y45277D1*
X36008Y45292D1*
X35997Y45308D1*
X35987Y45324D1*
X35979Y45340D1*
X35971Y45358D1*
X35965Y45375D1*
X35960Y45393D1*
X35957Y45412D1*
X35955Y45430D1*
X35954Y45449D1*
X34063Y43289D2*
D10*
X36590D1*
Y45780D1*
X34063D1*
Y43289D1*
G36*
X34123Y43883D2*
X36507D1*
Y44363D1*
X34123D1*
Y43883D1*
G37*
G36*
X35530Y43326D2*
X35997D1*
Y45803D1*
X35530D1*
Y43326D1*
G37*
G36*
X34670Y43343D2*
X35137D1*
Y45702D1*
X34670D1*
Y43343D1*
G37*
G36*
X34030Y44773D2*
X36500D1*
Y45246D1*
X34030D1*
Y44773D1*
G37*
X34167Y43672D2*
D21*
X34168Y43691D1*
X34170Y43709D1*
X34173Y43728D1*
X34178Y43746D1*
X34184Y43764D1*
X34192Y43781D1*
X34200Y43798D1*
X34210Y43814D1*
X34221Y43829D1*
X34233Y43844D1*
X34246Y43858D1*
X34260Y43870D1*
X34275Y43882D1*
X34291Y43893D1*
X34307Y43903D1*
X34324Y43912D1*
X34342Y43920D1*
X34360Y43926D1*
X34379Y43931D1*
X34398Y43935D1*
X34418Y43938D1*
X34437Y43939D1*
X34457D1*
X34476Y43938D1*
X34495Y43935D1*
X34514Y43931D1*
X34533Y43926D1*
X34552Y43920D1*
X34569Y43912D1*
X34587Y43903D1*
X34603Y43893D1*
X34619Y43882D1*
X34634Y43870D1*
X34648Y43858D1*
X34661Y43844D1*
X34673Y43829D1*
X34684Y43814D1*
X34694Y43798D1*
X34702Y43781D1*
X34709Y43764D1*
X34715Y43746D1*
X34720Y43728D1*
X34724Y43709D1*
X34726Y43691D1*
Y43672D1*
Y43654D1*
X34724Y43635D1*
X34720Y43617D1*
X34715Y43599D1*
X34709Y43581D1*
X34702Y43564D1*
X34694Y43547D1*
X34684Y43531D1*
X34673Y43516D1*
X34661Y43501D1*
X34648Y43487D1*
X34634Y43474D1*
X34619Y43462D1*
X34603Y43451D1*
X34587Y43441D1*
X34569Y43433D1*
X34552Y43425D1*
X34533Y43419D1*
X34514Y43414D1*
X34495Y43410D1*
X34476Y43407D1*
X34457Y43406D1*
X34437D1*
X34418Y43407D1*
X34398Y43410D1*
X34379Y43414D1*
X34360Y43419D1*
X34342Y43425D1*
X34324Y43433D1*
X34307Y43441D1*
X34291Y43451D1*
X34275Y43462D1*
X34260Y43474D1*
X34246Y43487D1*
X34233Y43501D1*
X34221Y43516D1*
X34210Y43531D1*
X34200Y43547D1*
X34192Y43564D1*
X34184Y43581D1*
X34178Y43599D1*
X34173Y43617D1*
X34170Y43635D1*
X34168Y43654D1*
X34167Y43672D1*
D84*
X34080Y42499D3*
X34580D3*
X35080D3*
X35580D3*
X36080D3*
X36580D3*
D83*
X37380Y43299D3*
Y43799D3*
Y44299D3*
Y44799D3*
Y45299D3*
Y45799D3*
D84*
X36580Y46599D3*
X36080D3*
X35580D3*
X35080D3*
X34580D3*
X34080D3*
D83*
X33280Y45799D3*
Y45299D3*
Y44799D3*
Y44299D3*
Y43799D3*
Y43299D3*
D50*
X50575Y25835D3*
X49275D3*
X47975D3*
Y23635D3*
X49275D3*
X50575D3*
G36*
X27105Y39947D2*
X27032Y39941D1*
X26962Y39922D1*
X26896Y39891D1*
X26836Y39850D1*
X26784Y39798D1*
X26742Y39738D1*
X26711Y39672D1*
X26693Y39601D1*
X26686Y39529D1*
D1*
X26693Y39456D1*
X26711Y39385D1*
X26742Y39319D1*
X26784Y39260D1*
X26836Y39208D1*
X26896Y39166D1*
X26962Y39135D1*
X27032Y39116D1*
X27105Y39110D1*
D1*
X27178Y39116D1*
X27248Y39135D1*
X27314Y39166D1*
X27374Y39208D1*
X27426Y39260D1*
X27468Y39319D1*
X27499Y39385D1*
X27517Y39456D1*
X27524Y39529D1*
D1*
X27517Y39601D1*
X27499Y39672D1*
X27468Y39738D1*
X27426Y39798D1*
X27374Y39850D1*
X27314Y39891D1*
X27248Y39922D1*
X27178Y39941D1*
X27105Y39947D1*
G37*
G36*
Y41217D2*
X27032Y41211D1*
X26962Y41192D1*
X26896Y41161D1*
X26836Y41120D1*
X26784Y41068D1*
X26742Y41008D1*
X26711Y40942D1*
X26693Y40871D1*
X26686Y40799D1*
D1*
X26693Y40726D1*
X26711Y40655D1*
X26742Y40589D1*
X26784Y40530D1*
X26836Y40478D1*
X26896Y40436D1*
X26962Y40405D1*
X27032Y40386D1*
X27105Y40380D1*
D1*
X27178Y40386D1*
X27248Y40405D1*
X27314Y40436D1*
X27374Y40478D1*
X27426Y40530D1*
X27468Y40589D1*
X27499Y40655D1*
X27517Y40726D1*
X27524Y40799D1*
D1*
X27517Y40871D1*
X27499Y40942D1*
X27468Y41008D1*
X27426Y41068D1*
X27374Y41120D1*
X27314Y41161D1*
X27248Y41192D1*
X27178Y41211D1*
X27105Y41217D1*
G37*
G36*
Y42487D2*
X27032Y42481D1*
X26962Y42462D1*
X26896Y42431D1*
X26836Y42390D1*
X26784Y42338D1*
X26742Y42278D1*
X26711Y42212D1*
X26693Y42141D1*
X26686Y42069D1*
D1*
X26693Y41996D1*
X26711Y41925D1*
X26742Y41859D1*
X26784Y41800D1*
X26836Y41748D1*
X26896Y41706D1*
X26962Y41675D1*
X27032Y41656D1*
X27105Y41650D1*
D1*
X27178Y41656D1*
X27248Y41675D1*
X27314Y41706D1*
X27374Y41748D1*
X27426Y41800D1*
X27468Y41859D1*
X27499Y41925D1*
X27517Y41996D1*
X27524Y42069D1*
D1*
X27517Y42141D1*
X27499Y42212D1*
X27468Y42278D1*
X27426Y42338D1*
X27374Y42390D1*
X27314Y42431D1*
X27248Y42462D1*
X27178Y42481D1*
X27105Y42487D1*
G37*
G36*
X28375D2*
X28302Y42481D1*
X28232Y42462D1*
X28166Y42431D1*
X28106Y42390D1*
X28054Y42338D1*
X28012Y42278D1*
X27981Y42212D1*
X27963Y42141D1*
X27956Y42069D1*
D1*
X27963Y41996D1*
X27981Y41925D1*
X28012Y41859D1*
X28054Y41800D1*
X28106Y41748D1*
X28166Y41706D1*
X28232Y41675D1*
X28302Y41656D1*
X28375Y41650D1*
D1*
X28448Y41656D1*
X28518Y41675D1*
X28584Y41706D1*
X28644Y41748D1*
X28696Y41800D1*
X28738Y41859D1*
X28769Y41925D1*
X28787Y41996D1*
X28794Y42069D1*
D1*
X28787Y42141D1*
X28769Y42212D1*
X28738Y42278D1*
X28696Y42338D1*
X28644Y42390D1*
X28584Y42431D1*
X28518Y42462D1*
X28448Y42481D1*
X28375Y42487D1*
G37*
G36*
Y41217D2*
X28302Y41211D1*
X28232Y41192D1*
X28166Y41161D1*
X28106Y41120D1*
X28054Y41068D1*
X28012Y41008D1*
X27981Y40942D1*
X27963Y40871D1*
X27956Y40799D1*
D1*
X27963Y40726D1*
X27981Y40655D1*
X28012Y40589D1*
X28054Y40530D1*
X28106Y40478D1*
X28166Y40436D1*
X28232Y40405D1*
X28302Y40386D1*
X28375Y40380D1*
D1*
X28448Y40386D1*
X28518Y40405D1*
X28584Y40436D1*
X28644Y40478D1*
X28696Y40530D1*
X28738Y40589D1*
X28769Y40655D1*
X28787Y40726D1*
X28794Y40799D1*
D1*
X28787Y40871D1*
X28769Y40942D1*
X28738Y41008D1*
X28696Y41068D1*
X28644Y41120D1*
X28584Y41161D1*
X28518Y41192D1*
X28448Y41211D1*
X28375Y41217D1*
G37*
G36*
Y39947D2*
X28302Y39941D1*
X28232Y39922D1*
X28166Y39891D1*
X28106Y39850D1*
X28054Y39798D1*
X28012Y39738D1*
X27981Y39672D1*
X27963Y39601D1*
X27956Y39529D1*
D1*
X27963Y39456D1*
X27981Y39385D1*
X28012Y39319D1*
X28054Y39260D1*
X28106Y39208D1*
X28166Y39166D1*
X28232Y39135D1*
X28302Y39116D1*
X28375Y39110D1*
D1*
X28448Y39116D1*
X28518Y39135D1*
X28584Y39166D1*
X28644Y39208D1*
X28696Y39260D1*
X28738Y39319D1*
X28769Y39385D1*
X28787Y39456D1*
X28794Y39529D1*
D1*
X28787Y39601D1*
X28769Y39672D1*
X28738Y39738D1*
X28696Y39798D1*
X28644Y39850D1*
X28584Y39891D1*
X28518Y39922D1*
X28448Y39941D1*
X28375Y39947D1*
G37*
D58*
X27740Y38259D3*
X26724Y43339D3*
X28756D3*
D75*
X40433Y20584D3*
X42283D3*
X44133D3*
Y25584D3*
X42283D3*
X40433D3*
D77*
X50105Y27270D3*
X48405D3*
D78*
X46793Y23897D3*
Y25597D3*
D66*
X50630Y21577D3*
X48930D3*
D75*
X40433Y29584D3*
X42283D3*
X44133D3*
Y34584D3*
X42283D3*
X40433D3*
Y38584D3*
X42283D3*
X44133D3*
Y43584D3*
X42283D3*
X40433D3*
G36*
X40958Y47837D2*
X40907Y48062D1*
X40761Y48245D1*
X40550Y48347D1*
X40316D1*
X40106Y48245D1*
X39960Y48062D1*
X39908Y47837D1*
Y47331D1*
X39960Y47106D1*
X40106Y46923D1*
X40316Y46822D1*
X40550D1*
X40761Y46923D1*
X40907Y47106D1*
X40958Y47331D1*
Y47837D1*
G37*
G36*
X42808D2*
X42757Y48062D1*
X42611Y48245D1*
X42400Y48347D1*
X42166D1*
X41956Y48245D1*
X41810Y48062D1*
X41758Y47837D1*
Y47331D1*
X41810Y47106D1*
X41956Y46923D1*
X42166Y46822D1*
X42400D1*
X42611Y46923D1*
X42757Y47106D1*
X42808Y47331D1*
Y47837D1*
G37*
G36*
X44658D2*
X44607Y48062D1*
X44461Y48245D1*
X44250Y48347D1*
X44016D1*
X43806Y48245D1*
X43660Y48062D1*
X43608Y47837D1*
Y47331D1*
X43660Y47106D1*
X43806Y46923D1*
X44016Y46822D1*
X44250D1*
X44461Y46923D1*
X44607Y47106D1*
X44658Y47331D1*
Y47837D1*
G37*
G36*
Y52837D2*
X44607Y53062D1*
X44461Y53245D1*
X44250Y53347D1*
X44016D1*
X43806Y53245D1*
X43660Y53062D1*
X43608Y52837D1*
Y52331D1*
X43660Y52106D1*
X43806Y51923D1*
X44016Y51822D1*
X44250D1*
X44461Y51923D1*
X44607Y52106D1*
X44658Y52331D1*
Y52837D1*
G37*
G36*
X42808D2*
X42757Y53062D1*
X42611Y53245D1*
X42400Y53347D1*
X42166D1*
X41956Y53245D1*
X41810Y53062D1*
X41758Y52837D1*
Y52331D1*
X41810Y52106D1*
X41956Y51923D1*
X42166Y51822D1*
X42400D1*
X42611Y51923D1*
X42757Y52106D1*
X42808Y52331D1*
Y52837D1*
G37*
G36*
X40958D2*
X40907Y53062D1*
X40761Y53245D1*
X40550Y53347D1*
X40316D1*
X40106Y53245D1*
X39960Y53062D1*
X39908Y52837D1*
Y52331D1*
X39960Y52106D1*
X40106Y51923D1*
X40316Y51822D1*
X40550D1*
X40761Y51923D1*
X40907Y52106D1*
X40958Y52331D1*
Y52837D1*
G37*
G36*
Y56837D2*
X40907Y57062D1*
X40761Y57245D1*
X40550Y57347D1*
X40316D1*
X40106Y57245D1*
X39960Y57062D1*
X39908Y56837D1*
Y56331D1*
X39960Y56106D1*
X40106Y55923D1*
X40316Y55822D1*
X40550D1*
X40761Y55923D1*
X40907Y56106D1*
X40958Y56331D1*
Y56837D1*
G37*
G36*
X42808D2*
X42757Y57062D1*
X42611Y57245D1*
X42400Y57347D1*
X42166D1*
X41956Y57245D1*
X41810Y57062D1*
X41758Y56837D1*
Y56331D1*
X41810Y56106D1*
X41956Y55923D1*
X42166Y55822D1*
X42400D1*
X42611Y55923D1*
X42757Y56106D1*
X42808Y56331D1*
Y56837D1*
G37*
G36*
X44658D2*
X44607Y57062D1*
X44461Y57245D1*
X44250Y57347D1*
X44016D1*
X43806Y57245D1*
X43660Y57062D1*
X43608Y56837D1*
Y56331D1*
X43660Y56106D1*
X43806Y55923D1*
X44016Y55822D1*
X44250D1*
X44461Y55923D1*
X44607Y56106D1*
X44658Y56331D1*
Y56837D1*
G37*
G36*
Y61837D2*
X44607Y62062D1*
X44461Y62245D1*
X44250Y62347D1*
X44016D1*
X43806Y62245D1*
X43660Y62062D1*
X43608Y61837D1*
Y61331D1*
X43660Y61106D1*
X43806Y60923D1*
X44016Y60822D1*
X44250D1*
X44461Y60923D1*
X44607Y61106D1*
X44658Y61331D1*
Y61837D1*
G37*
G36*
X42808D2*
X42757Y62062D1*
X42611Y62245D1*
X42400Y62347D1*
X42166D1*
X41956Y62245D1*
X41810Y62062D1*
X41758Y61837D1*
Y61331D1*
X41810Y61106D1*
X41956Y60923D1*
X42166Y60822D1*
X42400D1*
X42611Y60923D1*
X42757Y61106D1*
X42808Y61331D1*
Y61837D1*
G37*
G36*
X40958D2*
X40907Y62062D1*
X40761Y62245D1*
X40550Y62347D1*
X40316D1*
X40106Y62245D1*
X39960Y62062D1*
X39908Y61837D1*
Y61331D1*
X39960Y61106D1*
X40106Y60923D1*
X40316Y60822D1*
X40550D1*
X40761Y60923D1*
X40907Y61106D1*
X40958Y61331D1*
Y61837D1*
G37*
G36*
X36809Y33736D2*
X36686Y33541D1*
X36660Y33308D1*
X36737Y33087D1*
X36903Y32922D1*
X37124Y32845D1*
X37356Y32871D1*
X37552Y32994D1*
X37909Y33351D1*
X38032Y33547D1*
X38058Y33779D1*
X37981Y34000D1*
X37816Y34166D1*
X37595Y34243D1*
X37362Y34217D1*
X37167Y34094D1*
X36809Y33736D1*
G37*
G36*
X35501Y35044D2*
X35378Y34849D1*
X35352Y34616D1*
X35429Y34396D1*
X35595Y34230D1*
X35816Y34153D1*
X36048Y34179D1*
X36244Y34302D1*
X36601Y34660D1*
X36724Y34855D1*
X36750Y35088D1*
X36673Y35308D1*
X36508Y35474D1*
X36287Y35551D1*
X36054Y35525D1*
X35859Y35402D1*
X35501Y35044D1*
G37*
G36*
X34193Y36353D2*
X34070Y36157D1*
X34044Y35924D1*
X34121Y35704D1*
X34287Y35538D1*
X34507Y35461D1*
X34740Y35487D1*
X34935Y35610D1*
X35293Y35968D1*
X35416Y36163D1*
X35442Y36396D1*
X35365Y36617D1*
X35199Y36782D1*
X34979Y36859D1*
X34746Y36833D1*
X34551Y36710D1*
X34193Y36353D1*
G37*
G36*
X30657Y32817D2*
X30535Y32621D1*
X30508Y32389D1*
X30586Y32168D1*
X30751Y32003D1*
X30972Y31925D1*
X31204Y31952D1*
X31400Y32075D1*
X31757Y32432D1*
X31880Y32628D1*
X31907Y32860D1*
X31829Y33081D1*
X31664Y33246D1*
X31443Y33324D1*
X31211Y33298D1*
X31015Y33175D1*
X30657Y32817D1*
G37*
G36*
X31966Y31509D2*
X31843Y31313D1*
X31816Y31081D1*
X31894Y30860D1*
X32059Y30695D1*
X32280Y30617D1*
X32512Y30644D1*
X32708Y30766D1*
X33066Y31124D1*
X33189Y31320D1*
X33215Y31552D1*
X33137Y31773D1*
X32972Y31938D1*
X32751Y32016D1*
X32519Y31989D1*
X32323Y31866D1*
X31966Y31509D1*
G37*
G36*
X33274Y30201D2*
X33151Y30005D1*
X33125Y29773D1*
X33202Y29552D1*
X33367Y29386D1*
X33588Y29309D1*
X33821Y29335D1*
X34016Y29458D1*
X34374Y29816D1*
X34497Y30011D1*
X34523Y30244D1*
X34446Y30465D1*
X34280Y30630D1*
X34059Y30707D1*
X33827Y30681D1*
X33631Y30558D1*
X33274Y30201D1*
G37*
G36*
X30809Y27736D2*
X30686Y27541D1*
X30660Y27308D1*
X30737Y27087D1*
X30903Y26922D1*
X31124Y26845D1*
X31356Y26871D1*
X31552Y26994D1*
X31909Y27351D1*
X32032Y27547D1*
X32058Y27779D1*
X31981Y28000D1*
X31816Y28166D1*
X31595Y28243D1*
X31362Y28217D1*
X31167Y28094D1*
X30809Y27736D1*
G37*
G36*
X29501Y29044D2*
X29378Y28849D1*
X29352Y28616D1*
X29429Y28396D1*
X29595Y28230D1*
X29816Y28153D1*
X30048Y28179D1*
X30244Y28302D1*
X30601Y28660D1*
X30724Y28855D1*
X30750Y29088D1*
X30673Y29308D1*
X30508Y29474D1*
X30287Y29551D1*
X30054Y29525D1*
X29859Y29402D1*
X29501Y29044D1*
G37*
G36*
X28193Y30353D2*
X28070Y30157D1*
X28044Y29924D1*
X28121Y29704D1*
X28287Y29538D1*
X28507Y29461D1*
X28740Y29487D1*
X28935Y29610D1*
X29293Y29968D1*
X29416Y30163D1*
X29442Y30396D1*
X29365Y30617D1*
X29199Y30782D1*
X28979Y30859D1*
X28746Y30833D1*
X28551Y30710D1*
X28193Y30353D1*
G37*
G36*
X24657Y26817D2*
X24535Y26621D1*
X24508Y26389D1*
X24586Y26168D1*
X24751Y26003D1*
X24972Y25925D1*
X25204Y25952D1*
X25400Y26075D1*
X25757Y26432D1*
X25880Y26628D1*
X25907Y26860D1*
X25829Y27081D1*
X25664Y27246D1*
X25443Y27324D1*
X25211Y27298D1*
X25015Y27175D1*
X24657Y26817D1*
G37*
G36*
X25966Y25509D2*
X25843Y25313D1*
X25816Y25081D1*
X25894Y24860D1*
X26059Y24695D1*
X26280Y24617D1*
X26512Y24644D1*
X26708Y24766D1*
X27066Y25124D1*
X27189Y25320D1*
X27215Y25552D1*
X27137Y25773D1*
X26972Y25938D1*
X26751Y26016D1*
X26519Y25989D1*
X26323Y25866D1*
X25966Y25509D1*
G37*
G36*
X27274Y24201D2*
X27151Y24005D1*
X27125Y23773D1*
X27202Y23552D1*
X27367Y23386D1*
X27588Y23309D1*
X27821Y23335D1*
X28016Y23458D1*
X28374Y23816D1*
X28497Y24011D1*
X28523Y24244D1*
X28446Y24465D1*
X28280Y24630D1*
X28059Y24707D1*
X27827Y24681D1*
X27631Y24558D1*
X27274Y24201D1*
G37*
G36*
X56544Y23956D2*
X56740Y23833D1*
X56972Y23806D1*
X57193Y23884D1*
X57359Y24049D1*
X57436Y24270D1*
X57410Y24502D1*
X57287Y24698D1*
X56929Y25056D1*
X56734Y25179D1*
X56501Y25205D1*
X56280Y25127D1*
X56115Y24962D1*
X56038Y24741D1*
X56064Y24509D1*
X56187Y24313D1*
X56544Y23956D1*
G37*
G36*
X57852Y25264D2*
X58048Y25141D1*
X58281Y25115D1*
X58501Y25192D1*
X58667Y25357D1*
X58744Y25578D1*
X58718Y25811D1*
X58595Y26006D1*
X58237Y26364D1*
X58042Y26487D1*
X57809Y26513D1*
X57588Y26436D1*
X57423Y26270D1*
X57346Y26049D1*
X57372Y25817D1*
X57495Y25621D1*
X57852Y25264D1*
G37*
G36*
X59161Y26572D2*
X59356Y26449D1*
X59589Y26423D1*
X59809Y26500D1*
X59975Y26665D1*
X60052Y26886D1*
X60026Y27119D1*
X59903Y27314D1*
X59545Y27672D1*
X59350Y27795D1*
X59117Y27821D1*
X58897Y27744D1*
X58731Y27578D1*
X58654Y27358D1*
X58680Y27125D1*
X58803Y26929D1*
X59161Y26572D1*
G37*
G36*
X55625Y30107D2*
X55821Y29984D1*
X56053Y29958D1*
X56274Y30036D1*
X56439Y30201D1*
X56517Y30422D1*
X56490Y30654D1*
X56367Y30850D1*
X56010Y31207D1*
X55814Y31330D1*
X55582Y31357D1*
X55361Y31279D1*
X55196Y31114D1*
X55118Y30893D1*
X55145Y30661D1*
X55267Y30465D1*
X55625Y30107D1*
G37*
G36*
X54317Y28799D2*
X54513Y28676D1*
X54745Y28650D1*
X54966Y28727D1*
X55131Y28893D1*
X55208Y29114D1*
X55182Y29346D1*
X55059Y29542D1*
X54702Y29899D1*
X54506Y30022D1*
X54274Y30048D1*
X54053Y29971D1*
X53887Y29806D1*
X53810Y29585D1*
X53836Y29352D1*
X53959Y29157D1*
X54317Y28799D1*
G37*
G36*
X53009Y27491D2*
X53204Y27368D1*
X53437Y27342D1*
X53658Y27419D1*
X53823Y27585D1*
X53900Y27805D1*
X53874Y28038D1*
X53751Y28234D1*
X53394Y28591D1*
X53198Y28714D1*
X52966Y28740D1*
X52745Y28663D1*
X52579Y28498D1*
X52502Y28277D1*
X52528Y28044D1*
X52651Y27849D1*
X53009Y27491D1*
G37*
G36*
X46889Y39657D2*
X47739D1*
Y38607D1*
X46889D1*
Y39657D1*
G37*
G36*
X49089D2*
X49939D1*
Y38607D1*
X49089D1*
Y39657D1*
G37*
G36*
Y46957D2*
X49939D1*
Y45907D1*
X49089D1*
Y46957D1*
G37*
G36*
X46889D2*
X47739D1*
Y45907D1*
X46889D1*
Y46957D1*
G37*
G36*
X45889Y45407D2*
X47439D1*
Y44657D1*
X45889D1*
Y45407D1*
G37*
G36*
Y43907D2*
X47439D1*
Y43157D1*
X45889D1*
Y43907D1*
G37*
G36*
Y40907D2*
X47439D1*
Y40157D1*
X45889D1*
Y40907D1*
G37*
D59*
X48414Y44282D3*
Y41282D3*
D72*
X34936Y41360D3*
X36236D3*
X34730Y20133D3*
X33430D3*
D71*
X34414Y22045D3*
Y23345D3*
X37904Y22362D3*
Y23662D3*
X33578Y24584D3*
Y25884D3*
X36105Y24747D3*
Y26047D3*
D78*
X34848Y24738D3*
Y26438D3*
D69*
X35432Y22003D3*
X35932D3*
X36432D3*
X36932D3*
D70*
Y22503D3*
Y23003D3*
D69*
Y23503D3*
X36432D3*
X35932D3*
X35432D3*
D70*
Y23003D3*
Y22503D3*
G36*
X50544Y29956D2*
X50740Y29833D1*
X50972Y29806D1*
X51193Y29884D1*
X51359Y30049D1*
X51436Y30270D1*
X51410Y30502D1*
X51287Y30698D1*
X50929Y31056D1*
X50734Y31179D1*
X50501Y31205D1*
X50280Y31127D1*
X50115Y30962D1*
X50038Y30741D1*
X50064Y30509D1*
X50187Y30313D1*
X50544Y29956D1*
G37*
G36*
X51852Y31264D2*
X52048Y31141D1*
X52281Y31115D1*
X52501Y31192D1*
X52667Y31357D1*
X52744Y31578D1*
X52718Y31811D1*
X52595Y32006D1*
X52237Y32364D1*
X52042Y32487D1*
X51809Y32513D1*
X51588Y32436D1*
X51423Y32270D1*
X51346Y32049D1*
X51372Y31817D1*
X51495Y31621D1*
X51852Y31264D1*
G37*
G36*
X53161Y32572D2*
X53356Y32449D1*
X53589Y32423D1*
X53809Y32500D1*
X53975Y32665D1*
X54052Y32886D1*
X54026Y33119D1*
X53903Y33314D1*
X53545Y33672D1*
X53350Y33795D1*
X53117Y33821D1*
X52897Y33744D1*
X52731Y33578D1*
X52654Y33358D1*
X52680Y33125D1*
X52803Y32929D1*
X53161Y32572D1*
G37*
G36*
X49625Y36107D2*
X49821Y35985D1*
X50053Y35958D1*
X50274Y36036D1*
X50439Y36201D1*
X50517Y36422D1*
X50490Y36654D1*
X50367Y36850D1*
X50010Y37207D1*
X49814Y37330D1*
X49582Y37357D1*
X49361Y37279D1*
X49196Y37114D1*
X49118Y36893D1*
X49145Y36661D1*
X49267Y36465D1*
X49625Y36107D1*
G37*
G36*
X48317Y34799D2*
X48513Y34676D1*
X48745Y34650D1*
X48966Y34727D1*
X49131Y34893D1*
X49208Y35114D1*
X49182Y35346D1*
X49059Y35542D1*
X48702Y35899D1*
X48506Y36022D1*
X48274Y36048D1*
X48053Y35971D1*
X47887Y35806D1*
X47810Y35585D1*
X47836Y35352D1*
X47959Y35157D1*
X48317Y34799D1*
G37*
G36*
X47009Y33491D2*
X47204Y33368D1*
X47437Y33342D1*
X47658Y33419D1*
X47823Y33585D1*
X47900Y33806D1*
X47874Y34038D1*
X47751Y34234D1*
X47394Y34591D1*
X47198Y34714D1*
X46966Y34740D1*
X46745Y34663D1*
X46579Y34498D1*
X46502Y34277D1*
X46528Y34044D1*
X46651Y33849D1*
X47009Y33491D1*
G37*
D75*
X67433Y38584D3*
X69283D3*
X71133D3*
Y43584D3*
X69283D3*
X67433D3*
G36*
X66468Y46476D2*
X66590Y46280D1*
X66787Y46154D1*
X67019Y46127D1*
X67241Y46203D1*
X67407Y46367D1*
X67485Y46588D1*
X67461Y46817D1*
X67297Y47296D1*
X67175Y47492D1*
X66978Y47618D1*
X66745Y47645D1*
X66524Y47569D1*
X66358Y47405D1*
X66279Y47184D1*
X66304Y46955D1*
X66468Y46476D1*
G37*
G36*
X68218Y47077D2*
X68339Y46881D1*
X68537Y46755D1*
X68769Y46728D1*
X68990Y46804D1*
X69157Y46968D1*
X69235Y47188D1*
X69211Y47418D1*
X69047Y47896D1*
X68925Y48093D1*
X68727Y48218D1*
X68495Y48246D1*
X68274Y48170D1*
X68108Y48005D1*
X68029Y47785D1*
X68053Y47555D1*
X68218Y47077D1*
G37*
G36*
X69967Y47678D2*
X70089Y47481D1*
X70286Y47356D1*
X70519Y47328D1*
X70740Y47404D1*
X70906Y47569D1*
X70985Y47789D1*
X70960Y48019D1*
X70796Y48497D1*
X70675Y48693D1*
X70477Y48819D1*
X70245Y48846D1*
X70024Y48770D1*
X69857Y48606D1*
X69779Y48386D1*
X69803Y48156D1*
X69967Y47678D1*
G37*
G36*
X68344Y52407D2*
X68466Y52211D1*
X68663Y52085D1*
X68895Y52057D1*
X69117Y52133D1*
X69283Y52298D1*
X69362Y52518D1*
X69337Y52748D1*
X69173Y53226D1*
X69051Y53422D1*
X68854Y53548D1*
X68621Y53576D1*
X68400Y53500D1*
X68234Y53335D1*
X68155Y53115D1*
X68180Y52885D1*
X68344Y52407D1*
G37*
G36*
X66594Y51806D2*
X66716Y51610D1*
X66913Y51484D1*
X67146Y51457D1*
X67367Y51533D1*
X67533Y51697D1*
X67612Y51917D1*
X67587Y52147D1*
X67423Y52625D1*
X67301Y52822D1*
X67104Y52947D1*
X66872Y52975D1*
X66650Y52899D1*
X66484Y52735D1*
X66405Y52514D1*
X66430Y52284D1*
X66594Y51806D1*
G37*
G36*
X64844Y51205D2*
X64966Y51009D1*
X65163Y50884D1*
X65396Y50856D1*
X65617Y50932D1*
X65783Y51096D1*
X65862Y51317D1*
X65837Y51546D1*
X65673Y52025D1*
X65552Y52221D1*
X65354Y52347D1*
X65122Y52374D1*
X64901Y52298D1*
X64734Y52134D1*
X64656Y51913D1*
X64680Y51684D1*
X64844Y51205D1*
G37*
G36*
X63406Y54037D2*
X63585Y53891D1*
X63812Y53836D1*
X64041Y53886D1*
X64226Y54029D1*
X64330Y54239D1*
X64332Y54473D1*
X64235Y54682D1*
X63924Y55081D1*
X63745Y55227D1*
X63518Y55282D1*
X63289Y55233D1*
X63104Y55089D1*
X63000Y54879D1*
X62998Y54645D1*
X63095Y54436D1*
X63406Y54037D1*
G37*
G36*
X64866Y55173D2*
X65045Y55027D1*
X65272Y54973D1*
X65501Y55022D1*
X65686Y55166D1*
X65789Y55375D1*
X65792Y55609D1*
X65694Y55818D1*
X65384Y56217D1*
X65205Y56364D1*
X64978Y56418D1*
X64749Y56369D1*
X64564Y56225D1*
X64460Y56016D1*
X64458Y55782D1*
X64555Y55572D1*
X64866Y55173D1*
G37*
G36*
X66326Y56310D2*
X66505Y56164D1*
X66732Y56109D1*
X66961Y56158D1*
X67145Y56302D1*
X67249Y56511D1*
X67252Y56745D1*
X67154Y56955D1*
X66844Y57354D1*
X66665Y57500D1*
X66437Y57555D1*
X66209Y57505D1*
X66024Y57362D1*
X65920Y57152D1*
X65917Y56918D1*
X66015Y56709D1*
X66326Y56310D1*
G37*
G36*
X63255Y60255D2*
X63434Y60109D1*
X63661Y60055D1*
X63890Y60104D1*
X64074Y60248D1*
X64178Y60457D1*
X64181Y60691D1*
X64083Y60900D1*
X63773Y61299D1*
X63594Y61446D1*
X63366Y61500D1*
X63138Y61451D1*
X62953Y61307D1*
X62849Y61098D1*
X62846Y60864D1*
X62944Y60654D1*
X63255Y60255D1*
G37*
G36*
X61795Y59119D2*
X61974Y58973D1*
X62201Y58918D1*
X62430Y58968D1*
X62614Y59111D1*
X62718Y59321D1*
X62721Y59555D1*
X62623Y59764D1*
X62313Y60163D1*
X62134Y60309D1*
X61906Y60364D1*
X61678Y60315D1*
X61493Y60171D1*
X61389Y59961D1*
X61386Y59727D1*
X61484Y59518D1*
X61795Y59119D1*
G37*
G36*
X60335Y57983D2*
X60514Y57837D1*
X60741Y57782D1*
X60970Y57831D1*
X61155Y57975D1*
X61259Y58184D1*
X61261Y58418D1*
X61164Y58628D1*
X60853Y59027D1*
X60674Y59173D1*
X60447Y59228D1*
X60218Y59178D1*
X60033Y59035D1*
X59929Y58825D1*
X59927Y58591D1*
X60024Y58382D1*
X60335Y57983D1*
G37*
G36*
X58057Y60193D2*
X58274Y60113D1*
X58507Y60135D1*
X58707Y60256D1*
X58835Y60452D1*
X58865Y60684D1*
X58792Y60906D1*
X58631Y61072D1*
X58208Y61349D1*
X57991Y61429D1*
X57758Y61407D1*
X57558Y61286D1*
X57430Y61090D1*
X57400Y60858D1*
X57473Y60636D1*
X57634Y60470D1*
X58057Y60193D1*
G37*
G36*
X59069Y61742D2*
X59285Y61662D1*
X59518Y61684D1*
X59719Y61805D1*
X59847Y62001D1*
X59877Y62233D1*
X59804Y62455D1*
X59643Y62621D1*
X59220Y62898D1*
X59003Y62978D1*
X58770Y62956D1*
X58570Y62835D1*
X58442Y62639D1*
X58412Y62407D1*
X58485Y62185D1*
X58645Y62019D1*
X59069Y61742D1*
G37*
G36*
X60081Y63291D2*
X60297Y63211D1*
X60530Y63233D1*
X60730Y63354D1*
X60858Y63550D1*
X60889Y63781D1*
X60815Y64004D1*
X60655Y64170D1*
X60232Y64446D1*
X60015Y64527D1*
X59782Y64504D1*
X59582Y64384D1*
X59454Y64188D1*
X59424Y63956D1*
X59497Y63734D1*
X59657Y63567D1*
X60081Y63291D1*
G37*
G36*
X55895Y66026D2*
X56111Y65945D1*
X56344Y65967D1*
X56545Y66088D1*
X56673Y66284D1*
X56703Y66516D1*
X56630Y66738D1*
X56469Y66905D1*
X56046Y67181D1*
X55829Y67261D1*
X55596Y67239D1*
X55396Y67118D1*
X55268Y66922D1*
X55238Y66690D1*
X55311Y66468D1*
X55472Y66302D1*
X55895Y66026D1*
G37*
G36*
X54883Y64477D2*
X55100Y64397D1*
X55333Y64419D1*
X55533Y64540D1*
X55661Y64735D1*
X55691Y64967D1*
X55618Y65190D1*
X55457Y65356D1*
X55034Y65632D1*
X54817Y65713D1*
X54584Y65690D1*
X54384Y65570D1*
X54256Y65374D1*
X54226Y65142D1*
X54299Y64920D1*
X54460Y64753D1*
X54883Y64477D1*
G37*
G36*
X53871Y62928D2*
X54088Y62848D1*
X54321Y62870D1*
X54521Y62991D1*
X54649Y63187D1*
X54679Y63419D1*
X54606Y63641D1*
X54445Y63807D1*
X54022Y64084D1*
X53805Y64164D1*
X53573Y64142D1*
X53372Y64021D1*
X53244Y63825D1*
X53214Y63593D1*
X53287Y63371D1*
X53448Y63205D1*
X53871Y62928D1*
G37*
G36*
X50997Y64280D2*
X51228Y64275D1*
X51441Y64371D1*
X51591Y64551D1*
X51649Y64777D1*
X51602Y65007D1*
X51460Y65193D1*
X51255Y65298D1*
X50765Y65422D1*
X50534Y65428D1*
X50320Y65331D1*
X50170Y65152D1*
X50113Y64925D1*
X50160Y64696D1*
X50301Y64509D1*
X50507Y64404D1*
X50997Y64280D1*
G37*
G36*
X51451Y66073D2*
X51682Y66068D1*
X51895Y66165D1*
X52045Y66344D1*
X52103Y66571D1*
X52056Y66800D1*
X51915Y66986D1*
X51709Y67091D1*
X51219Y67215D1*
X50988Y67221D1*
X50775Y67124D1*
X50624Y66945D1*
X50567Y66718D1*
X50614Y66489D1*
X50755Y66303D1*
X50961Y66198D1*
X51451Y66073D1*
G37*
G36*
X51905Y67867D2*
X52136Y67861D1*
X52349Y67958D1*
X52499Y68137D1*
X52557Y68364D1*
X52510Y68593D1*
X52369Y68780D1*
X52163Y68885D1*
X51673Y69009D1*
X51442Y69014D1*
X51229Y68918D1*
X51079Y68738D1*
X51021Y68512D1*
X51068Y68282D1*
X51209Y68096D1*
X51415Y67991D1*
X51905Y67867D1*
G37*
G36*
X47058Y69094D2*
X47289Y69089D1*
X47502Y69185D1*
X47652Y69365D1*
X47710Y69591D1*
X47663Y69821D1*
X47522Y70007D1*
X47316Y70112D1*
X46826Y70236D1*
X46595Y70242D1*
X46382Y70145D1*
X46232Y69966D1*
X46174Y69739D1*
X46221Y69510D1*
X46362Y69324D1*
X46568Y69218D1*
X47058Y69094D1*
G37*
G36*
X46604Y67301D2*
X46835Y67295D1*
X47048Y67392D1*
X47198Y67571D1*
X47256Y67798D1*
X47209Y68027D1*
X47068Y68214D1*
X46862Y68319D1*
X46372Y68443D1*
X46141Y68448D1*
X45928Y68352D1*
X45777Y68173D1*
X45720Y67946D1*
X45767Y67716D1*
X45908Y67530D1*
X46114Y67425D1*
X46604Y67301D1*
G37*
G36*
X46150Y65508D2*
X46381Y65502D1*
X46594Y65599D1*
X46744Y65778D1*
X46802Y66005D1*
X46755Y66234D1*
X46613Y66420D1*
X46408Y66525D1*
X45918Y66650D1*
X45687Y66655D1*
X45473Y66558D1*
X45323Y66379D1*
X45266Y66152D1*
X45313Y65923D1*
X45454Y65737D1*
X45660Y65632D1*
X46150Y65508D1*
G37*
G36*
X42993Y65853D2*
X43213Y65922D1*
X43383Y66083D1*
X43467Y66301D1*
X43448Y66534D1*
X43329Y66736D1*
X43135Y66866D1*
X42906Y66899D1*
X42402Y66857D1*
X42182Y66787D1*
X42012Y66627D1*
X41928Y66409D1*
X41947Y66175D1*
X42066Y65974D1*
X42260Y65844D1*
X42489Y65811D1*
X42993Y65853D1*
G37*
G36*
X42840Y67696D2*
X43060Y67766D1*
X43231Y67927D1*
X43314Y68145D1*
X43295Y68378D1*
X43176Y68580D1*
X42982Y68710D1*
X42753Y68743D1*
X42250Y68701D1*
X42029Y68631D1*
X41859Y68471D1*
X41775Y68252D1*
X41795Y68019D1*
X41913Y67817D1*
X42108Y67687D1*
X42336Y67655D1*
X42840Y67696D1*
G37*
G36*
X42687Y69540D2*
X42908Y69610D1*
X43078Y69770D1*
X43162Y69989D1*
X43142Y70222D1*
X43024Y70424D1*
X42829Y70554D1*
X42601Y70586D1*
X42097Y70545D1*
X41877Y70475D1*
X41706Y70314D1*
X41623Y70096D1*
X41642Y69863D1*
X41760Y69661D1*
X41955Y69531D1*
X42183Y69498D1*
X42687Y69540D1*
G37*
G36*
X37704Y69127D2*
X37925Y69197D1*
X38095Y69357D1*
X38179Y69576D1*
X38159Y69809D1*
X38041Y70011D1*
X37846Y70141D1*
X37618Y70174D1*
X37114Y70132D1*
X36894Y70062D1*
X36723Y69901D1*
X36640Y69683D1*
X36659Y69450D1*
X36778Y69248D1*
X36972Y69118D1*
X37201Y69085D1*
X37704Y69127D1*
G37*
G36*
X37857Y67283D2*
X38077Y67353D1*
X38248Y67514D1*
X38331Y67732D1*
X38312Y67965D1*
X38194Y68167D1*
X37999Y68297D1*
X37771Y68330D1*
X37267Y68288D1*
X37046Y68218D1*
X36876Y68058D1*
X36792Y67839D1*
X36812Y67606D1*
X36930Y67405D1*
X37125Y67274D1*
X37353Y67242D1*
X37857Y67283D1*
G37*
G36*
X38010Y65440D2*
X38230Y65510D1*
X38400Y65670D1*
X38484Y65888D1*
X38465Y66122D1*
X38346Y66323D1*
X38152Y66454D1*
X37923Y66486D1*
X37419Y66444D1*
X37199Y66375D1*
X37029Y66214D1*
X36945Y65996D1*
X36964Y65763D1*
X37083Y65561D1*
X37277Y65431D1*
X37506Y65398D1*
X38010Y65440D1*
G37*
G36*
X34912Y64741D2*
X35098Y64879D1*
X35207Y65086D1*
X35215Y65319D1*
X35121Y65534D1*
X34944Y65686D1*
X34718Y65746D1*
X34491Y65703D1*
X34028Y65499D1*
X33842Y65362D1*
X33733Y65155D1*
X33725Y64921D1*
X33819Y64707D1*
X33996Y64555D1*
X34222Y64495D1*
X34449Y64538D1*
X34912Y64741D1*
G37*
G36*
X34169Y66435D2*
X34355Y66573D1*
X34464Y66780D1*
X34472Y67014D1*
X34378Y67228D1*
X34200Y67380D1*
X33974Y67440D1*
X33747Y67397D1*
X33284Y67194D1*
X33099Y67056D1*
X32990Y66849D1*
X32982Y66615D1*
X33076Y66401D1*
X33253Y66249D1*
X33479Y66189D1*
X33706Y66232D1*
X34169Y66435D1*
G37*
G36*
X33426Y68129D2*
X33612Y68267D1*
X33721Y68474D1*
X33729Y68708D1*
X33635Y68922D1*
X33457Y69074D1*
X33231Y69134D1*
X33004Y69091D1*
X32541Y68888D1*
X32356Y68750D1*
X32247Y68543D1*
X32238Y68309D1*
X32332Y68095D1*
X32510Y67943D1*
X32736Y67883D1*
X32963Y67926D1*
X33426Y68129D1*
G37*
G36*
X28847Y66121D2*
X29033Y66259D1*
X29142Y66466D1*
X29150Y66699D1*
X29056Y66914D1*
X28878Y67066D1*
X28652Y67126D1*
X28425Y67082D1*
X27962Y66879D1*
X27777Y66742D1*
X27668Y66535D1*
X27660Y66301D1*
X27754Y66087D1*
X27931Y65935D1*
X28157Y65874D1*
X28384Y65918D1*
X28847Y66121D1*
G37*
G36*
X29590Y64427D2*
X29776Y64564D1*
X29885Y64771D1*
X29893Y65005D1*
X29799Y65219D1*
X29622Y65372D1*
X29396Y65432D1*
X29169Y65388D1*
X28706Y65185D1*
X28520Y65048D1*
X28411Y64841D1*
X28403Y64607D1*
X28497Y64393D1*
X28674Y64240D1*
X28900Y64180D1*
X29127Y64224D1*
X29590Y64427D1*
G37*
G36*
X30333Y62733D2*
X30519Y62870D1*
X30628Y63077D1*
X30636Y63311D1*
X30542Y63525D1*
X30365Y63677D1*
X30139Y63738D1*
X29912Y63694D1*
X29449Y63491D1*
X29263Y63353D1*
X29154Y63146D1*
X29146Y62913D1*
X29240Y62698D1*
X29417Y62546D1*
X29643Y62486D1*
X29870Y62529D1*
X30333Y62733D1*
G37*
G36*
X27630Y61066D2*
X27761Y61257D1*
X27797Y61488D1*
X27729Y61712D1*
X27570Y61884D1*
X27353Y61970D1*
X27120Y61954D1*
X26919Y61839D1*
X26547Y61496D1*
X26416Y61306D1*
X26380Y61075D1*
X26448Y60851D1*
X26607Y60679D1*
X26824Y60593D1*
X27058Y60609D1*
X27258Y60724D1*
X27630Y61066D1*
G37*
G36*
X26377Y62427D2*
X26508Y62618D1*
X26544Y62849D1*
X26476Y63073D1*
X26317Y63245D1*
X26100Y63331D1*
X25867Y63315D1*
X25666Y63200D1*
X25294Y62857D1*
X25163Y62667D1*
X25127Y62436D1*
X25195Y62212D1*
X25354Y62040D1*
X25571Y61954D1*
X25805Y61970D1*
X26005Y62085D1*
X26377Y62427D1*
G37*
G36*
X25124Y63788D2*
X25255Y63979D1*
X25291Y64210D1*
X25223Y64434D1*
X25064Y64606D1*
X24847Y64692D1*
X24614Y64676D1*
X24413Y64561D1*
X24041Y64219D1*
X23910Y64028D1*
X23874Y63797D1*
X23943Y63573D1*
X24101Y63401D1*
X24318Y63315D1*
X24552Y63331D1*
X24752Y63446D1*
X25124Y63788D1*
G37*
G36*
X21446Y60402D2*
X21577Y60592D1*
X21612Y60824D1*
X21544Y61047D1*
X21386Y61220D1*
X21168Y61306D1*
X20935Y61289D1*
X20735Y61175D1*
X20363Y60832D1*
X20232Y60642D1*
X20196Y60411D1*
X20264Y60187D1*
X20422Y60015D1*
X20640Y59928D1*
X20873Y59945D1*
X21074Y60060D1*
X21446Y60402D1*
G37*
G36*
X22699Y59041D2*
X22830Y59231D1*
X22865Y59463D1*
X22797Y59686D1*
X22639Y59858D1*
X22421Y59945D1*
X22188Y59928D1*
X21988Y59813D1*
X21616Y59471D1*
X21485Y59281D1*
X21449Y59049D1*
X21517Y58826D1*
X21675Y58654D1*
X21893Y58567D1*
X22126Y58584D1*
X22327Y58699D1*
X22699Y59041D1*
G37*
G36*
X23952Y57680D2*
X24083Y57870D1*
X24118Y58101D1*
X24050Y58325D1*
X23892Y58497D1*
X23674Y58584D1*
X23441Y58567D1*
X23241Y58452D1*
X22869Y58110D1*
X22738Y57920D1*
X22702Y57688D1*
X22770Y57465D1*
X22928Y57292D1*
X23146Y57206D1*
X23379Y57223D1*
X23580Y57337D1*
X23952Y57680D1*
G37*
G36*
X20772Y55281D2*
X20710Y55058D1*
X20751Y54828D1*
X20889Y54639D1*
X21094Y54527D1*
X21328Y54516D1*
X21543Y54608D1*
X21696Y54781D1*
X21936Y55226D1*
X21998Y55448D1*
X21957Y55679D1*
X21820Y55868D1*
X21614Y55980D1*
X21381Y55991D1*
X21165Y55899D1*
X21013Y55726D1*
X20772Y55281D1*
G37*
G36*
X19145Y56161D2*
X19083Y55939D1*
X19124Y55709D1*
X19261Y55519D1*
X19467Y55408D1*
X19701Y55397D1*
X19916Y55488D1*
X20069Y55662D1*
X20309Y56106D1*
X20371Y56329D1*
X20330Y56559D1*
X20193Y56749D1*
X19987Y56860D1*
X19754Y56871D1*
X19538Y56780D1*
X19386Y56606D1*
X19145Y56161D1*
G37*
G36*
X17518Y57042D2*
X17456Y56819D1*
X17497Y56589D1*
X17634Y56400D1*
X17840Y56288D1*
X18074Y56277D1*
X18289Y56369D1*
X18442Y56542D1*
X18682Y56987D1*
X18744Y57209D1*
X18703Y57440D1*
X18566Y57629D1*
X18360Y57741D1*
X18127Y57752D1*
X17911Y57660D1*
X17759Y57487D1*
X17518Y57042D1*
G37*
G36*
X15138Y52645D2*
X15076Y52422D1*
X15118Y52192D1*
X15255Y52002D1*
X15460Y51891D1*
X15694Y51880D1*
X15909Y51971D1*
X16062Y52145D1*
X16303Y52589D1*
X16365Y52812D1*
X16323Y53042D1*
X16186Y53232D1*
X15981Y53343D1*
X15747Y53354D1*
X15532Y53263D1*
X15379Y53089D1*
X15138Y52645D1*
G37*
G36*
X16765Y51764D2*
X16703Y51541D1*
X16745Y51311D1*
X16882Y51122D1*
X17087Y51010D1*
X17321Y50999D1*
X17536Y51091D1*
X17689Y51264D1*
X17930Y51709D1*
X17992Y51932D1*
X17950Y52162D1*
X17813Y52351D1*
X17608Y52463D1*
X17374Y52474D1*
X17159Y52382D1*
X17006Y52209D1*
X16765Y51764D1*
G37*
G36*
X18392Y50884D2*
X18330Y50661D1*
X18372Y50431D1*
X18509Y50241D1*
X18715Y50130D1*
X18948Y50119D1*
X19164Y50210D1*
X19316Y50384D1*
X19557Y50828D1*
X19619Y51051D1*
X19577Y51281D1*
X19440Y51471D1*
X19235Y51582D1*
X19001Y51593D1*
X18786Y51502D1*
X18633Y51328D1*
X18392Y50884D1*
G37*
G36*
X17328Y47527D2*
X17342Y47296D1*
X17456Y47092D1*
X17647Y46957D1*
X17878Y46918D1*
X18102Y46984D1*
X18276Y47140D1*
X18364Y47354D1*
X18447Y47853D1*
X18433Y48083D1*
X18320Y48288D1*
X18129Y48422D1*
X17898Y48461D1*
X17673Y48396D1*
X17499Y48239D1*
X17411Y48025D1*
X17328Y47527D1*
G37*
G36*
X15503Y47831D2*
X15517Y47601D1*
X15631Y47396D1*
X15822Y47261D1*
X16053Y47223D1*
X16277Y47288D1*
X16451Y47445D1*
X16539Y47658D1*
X16622Y48157D1*
X16609Y48388D1*
X16495Y48592D1*
X16304Y48727D1*
X16073Y48765D1*
X15848Y48700D1*
X15674Y48544D1*
X15587Y48330D1*
X15503Y47831D1*
G37*
G36*
X13679Y48136D2*
X13692Y47905D1*
X13806Y47701D1*
X13997Y47566D1*
X14228Y47527D1*
X14453Y47593D1*
X14627Y47749D1*
X14714Y47963D1*
X14798Y48462D1*
X14784Y48692D1*
X14670Y48897D1*
X14479Y49031D1*
X14248Y49070D1*
X14024Y49005D1*
X13850Y48848D1*
X13762Y48634D1*
X13679Y48136D1*
G37*
G36*
X12856Y43204D2*
X12869Y42973D1*
X12983Y42769D1*
X13174Y42634D1*
X13405Y42595D1*
X13630Y42661D1*
X13804Y42817D1*
X13891Y43031D1*
X13975Y43530D1*
X13961Y43760D1*
X13847Y43965D1*
X13656Y44100D1*
X13425Y44138D1*
X13201Y44073D1*
X13027Y43916D1*
X12939Y43703D1*
X12856Y43204D1*
G37*
G36*
X14680Y42899D2*
X14694Y42669D1*
X14808Y42464D1*
X14999Y42329D1*
X15230Y42291D1*
X15454Y42356D1*
X15628Y42513D1*
X15716Y42727D1*
X15799Y43225D1*
X15786Y43456D1*
X15672Y43660D1*
X15481Y43795D1*
X15250Y43834D1*
X15025Y43768D1*
X14851Y43612D1*
X14764Y43398D1*
X14680Y42899D1*
G37*
G36*
X16505Y42595D2*
X16519Y42364D1*
X16633Y42160D1*
X16824Y42025D1*
X17055Y41986D1*
X17279Y42052D1*
X17453Y42208D1*
X17541Y42422D1*
X17624Y42921D1*
X17610Y43151D1*
X17497Y43356D1*
X17306Y43491D1*
X17075Y43529D1*
X16850Y43464D1*
X16676Y43307D1*
X16588Y43094D1*
X16505Y42595D1*
G37*
G36*
X16588Y39075D2*
X16676Y38861D1*
X16850Y38705D1*
X17075Y38639D1*
X17306Y38678D1*
X17497Y38813D1*
X17610Y39017D1*
X17624Y39248D1*
X17541Y39746D1*
X17453Y39960D1*
X17279Y40117D1*
X17055Y40182D1*
X16824Y40143D1*
X16633Y40009D1*
X16519Y39804D1*
X16505Y39574D1*
X16588Y39075D1*
G37*
G36*
X14764Y38770D2*
X14851Y38557D1*
X15025Y38400D1*
X15250Y38335D1*
X15481Y38373D1*
X15672Y38508D1*
X15786Y38713D1*
X15799Y38943D1*
X15716Y39442D1*
X15628Y39656D1*
X15454Y39812D1*
X15230Y39877D1*
X14999Y39839D1*
X14808Y39704D1*
X14694Y39500D1*
X14680Y39269D1*
X14764Y38770D1*
G37*
G36*
X12939Y38466D2*
X13027Y38252D1*
X13201Y38096D1*
X13425Y38030D1*
X13656Y38069D1*
X13847Y38204D1*
X13961Y38408D1*
X13975Y38639D1*
X13891Y39137D1*
X13804Y39351D1*
X13630Y39508D1*
X13405Y39573D1*
X13174Y39534D1*
X12983Y39400D1*
X12869Y39195D1*
X12856Y38965D1*
X12939Y38466D1*
G37*
G36*
X13762Y33534D2*
X13850Y33320D1*
X14024Y33164D1*
X14248Y33098D1*
X14479Y33137D1*
X14670Y33272D1*
X14784Y33476D1*
X14798Y33707D1*
X14714Y34206D1*
X14627Y34419D1*
X14453Y34576D1*
X14228Y34641D1*
X13997Y34603D1*
X13806Y34468D1*
X13692Y34263D1*
X13679Y34033D1*
X13762Y33534D1*
G37*
G36*
X15587Y33839D2*
X15674Y33625D1*
X15848Y33468D1*
X16073Y33403D1*
X16304Y33441D1*
X16495Y33576D1*
X16609Y33781D1*
X16622Y34011D1*
X16539Y34510D1*
X16451Y34724D1*
X16277Y34880D1*
X16053Y34946D1*
X15822Y34907D1*
X15631Y34772D1*
X15517Y34568D1*
X15503Y34337D1*
X15587Y33839D1*
G37*
G36*
X17411Y34143D2*
X17499Y33929D1*
X17673Y33773D1*
X17898Y33707D1*
X18129Y33746D1*
X18320Y33881D1*
X18433Y34085D1*
X18447Y34316D1*
X18364Y34815D1*
X18276Y35028D1*
X18102Y35185D1*
X17878Y35250D1*
X17647Y35212D1*
X17456Y35077D1*
X17342Y34872D1*
X17328Y34642D1*
X17411Y34143D1*
G37*
G36*
X18633Y30840D2*
X18786Y30667D1*
X19001Y30575D1*
X19235Y30586D1*
X19440Y30697D1*
X19577Y30887D1*
X19619Y31117D1*
X19557Y31340D1*
X19316Y31785D1*
X19163Y31958D1*
X18948Y32050D1*
X18714Y32039D1*
X18509Y31927D1*
X18372Y31738D1*
X18330Y31507D1*
X18392Y31285D1*
X18633Y30840D1*
G37*
G36*
X17006Y29960D2*
X17159Y29786D1*
X17374Y29695D1*
X17608Y29706D1*
X17813Y29817D1*
X17950Y30007D1*
X17992Y30237D1*
X17930Y30459D1*
X17689Y30904D1*
X17536Y31078D1*
X17321Y31169D1*
X17087Y31158D1*
X16882Y31047D1*
X16745Y30857D1*
X16703Y30627D1*
X16765Y30404D1*
X17006Y29960D1*
G37*
G36*
X15379Y29079D2*
X15531Y28906D1*
X15747Y28814D1*
X15980Y28825D1*
X16186Y28936D1*
X16323Y29126D1*
X16365Y29356D1*
X16303Y29579D1*
X16062Y30024D1*
X15909Y30197D1*
X15694Y30289D1*
X15460Y30278D1*
X15255Y30166D1*
X15118Y29977D1*
X15076Y29746D1*
X15138Y29524D1*
X15379Y29079D1*
G37*
G36*
X17759Y24682D2*
X17911Y24508D1*
X18127Y24417D1*
X18360Y24428D1*
X18566Y24539D1*
X18703Y24729D1*
X18744Y24959D1*
X18682Y25182D1*
X18442Y25626D1*
X18289Y25800D1*
X18074Y25891D1*
X17840Y25880D1*
X17634Y25769D1*
X17497Y25579D1*
X17456Y25349D1*
X17518Y25126D1*
X17759Y24682D1*
G37*
G36*
X19386Y25562D2*
X19538Y25389D1*
X19754Y25297D1*
X19987Y25308D1*
X20193Y25420D1*
X20330Y25609D1*
X20371Y25839D1*
X20309Y26062D1*
X20069Y26507D1*
X19916Y26680D1*
X19701Y26772D1*
X19467Y26761D1*
X19261Y26649D1*
X19124Y26460D1*
X19083Y26230D1*
X19145Y26007D1*
X19386Y25562D1*
G37*
G36*
X21013Y26443D2*
X21165Y26269D1*
X21381Y26178D1*
X21614Y26189D1*
X21820Y26300D1*
X21957Y26490D1*
X21998Y26720D1*
X21936Y26943D1*
X21696Y27387D1*
X21543Y27561D1*
X21328Y27652D1*
X21094Y27641D1*
X20888Y27530D1*
X20751Y27340D1*
X20710Y27110D1*
X20772Y26887D1*
X21013Y26443D1*
G37*
G36*
X23241Y23716D2*
X23441Y23601D1*
X23674Y23585D1*
X23892Y23671D1*
X24050Y23843D1*
X24118Y24067D1*
X24083Y24298D1*
X23952Y24489D1*
X23580Y24831D1*
X23379Y24946D1*
X23146Y24962D1*
X22928Y24876D1*
X22770Y24704D1*
X22702Y24480D1*
X22738Y24249D1*
X22869Y24058D1*
X23241Y23716D1*
G37*
G36*
X21988Y22355D2*
X22188Y22240D1*
X22421Y22224D1*
X22639Y22310D1*
X22797Y22482D1*
X22865Y22706D1*
X22830Y22937D1*
X22699Y23127D1*
X22327Y23470D1*
X22126Y23585D1*
X21893Y23601D1*
X21675Y23515D1*
X21517Y23343D1*
X21449Y23119D1*
X21485Y22888D1*
X21616Y22697D1*
X21988Y22355D1*
G37*
G36*
X20735Y20994D2*
X20935Y20879D1*
X21168Y20863D1*
X21386Y20949D1*
X21544Y21121D1*
X21612Y21345D1*
X21577Y21576D1*
X21446Y21766D1*
X21074Y22109D1*
X20873Y22224D1*
X20640Y22240D1*
X20422Y22154D1*
X20264Y21982D1*
X20196Y21758D1*
X20232Y21527D1*
X20363Y21336D1*
X20735Y20994D1*
G37*
G36*
X24413Y17607D2*
X24614Y17493D1*
X24847Y17476D1*
X25064Y17562D1*
X25223Y17735D1*
X25291Y17958D1*
X25255Y18190D1*
X25124Y18380D1*
X24752Y18722D1*
X24552Y18837D1*
X24318Y18854D1*
X24101Y18767D1*
X23942Y18595D1*
X23874Y18371D1*
X23910Y18140D1*
X24041Y17950D1*
X24413Y17607D1*
G37*
G36*
X25666Y18969D2*
X25867Y18854D1*
X26100Y18837D1*
X26317Y18924D1*
X26476Y19096D1*
X26544Y19319D1*
X26508Y19551D1*
X26377Y19741D1*
X26005Y20083D1*
X25805Y20198D1*
X25571Y20215D1*
X25354Y20128D1*
X25195Y19956D1*
X25127Y19733D1*
X25163Y19501D1*
X25294Y19311D1*
X25666Y18969D1*
G37*
G36*
X26919Y20330D2*
X27120Y20215D1*
X27353Y20198D1*
X27570Y20285D1*
X27729Y20457D1*
X27797Y20681D1*
X27761Y20912D1*
X27630Y21102D1*
X27258Y21445D1*
X27058Y21559D1*
X26824Y21576D1*
X26607Y21490D1*
X26448Y21317D1*
X26380Y21094D1*
X26416Y20862D1*
X26547Y20672D1*
X26919Y20330D1*
G37*
G36*
X29912Y18475D2*
X30139Y18431D1*
X30365Y18491D1*
X30543Y18644D1*
X30637Y18858D1*
X30629Y19091D1*
X30520Y19299D1*
X30334Y19436D1*
X29871Y19639D1*
X29644Y19683D1*
X29418Y19623D1*
X29241Y19471D1*
X29147Y19256D1*
X29155Y19023D1*
X29264Y18816D1*
X29449Y18678D1*
X29912Y18475D1*
G37*
G36*
X29169Y16781D2*
X29396Y16737D1*
X29622Y16797D1*
X29799Y16950D1*
X29893Y17164D1*
X29885Y17398D1*
X29776Y17605D1*
X29591Y17742D1*
X29128Y17945D1*
X28901Y17989D1*
X28675Y17929D1*
X28497Y17777D1*
X28403Y17562D1*
X28411Y17329D1*
X28520Y17122D1*
X28706Y16984D1*
X29169Y16781D1*
G37*
G36*
X28425Y15087D2*
X28652Y15043D1*
X28878Y15103D1*
X29056Y15256D1*
X29150Y15470D1*
X29142Y15704D1*
X29033Y15911D1*
X28847Y16048D1*
X28384Y16251D1*
X28157Y16295D1*
X27931Y16235D1*
X27753Y16083D1*
X27659Y15868D1*
X27668Y15635D1*
X27777Y15428D1*
X27962Y15290D1*
X28425Y15087D1*
G37*
G36*
X33003Y13077D2*
X33230Y13034D1*
X33456Y13094D1*
X33634Y13246D1*
X33728Y13460D1*
X33720Y13694D1*
X33611Y13901D1*
X33425Y14038D1*
X32962Y14242D1*
X32736Y14285D1*
X32509Y14225D1*
X32332Y14073D1*
X32238Y13859D1*
X32246Y13625D1*
X32355Y13418D1*
X32540Y13280D1*
X33003Y13077D1*
G37*
G36*
X33747Y14771D2*
X33974Y14728D1*
X34200Y14788D1*
X34378Y14940D1*
X34472Y15154D1*
X34463Y15388D1*
X34355Y15595D1*
X34169Y15732D1*
X33706Y15936D1*
X33479Y15979D1*
X33253Y15919D1*
X33075Y15767D1*
X32981Y15553D1*
X32990Y15319D1*
X33098Y15112D1*
X33284Y14974D1*
X33747Y14771D1*
G37*
G36*
X34491Y16465D2*
X34718Y16422D1*
X34944Y16482D1*
X35121Y16634D1*
X35215Y16848D1*
X35207Y17082D1*
X35098Y17289D1*
X34913Y17426D1*
X34450Y17630D1*
X34223Y17673D1*
X33997Y17613D1*
X33819Y17461D1*
X33725Y17247D1*
X33733Y17013D1*
X33842Y16806D1*
X34028Y16668D1*
X34491Y16465D1*
G37*
G36*
X37923Y15682D2*
X38152Y15715D1*
X38346Y15845D1*
X38465Y16047D1*
X38484Y16280D1*
X38401Y16498D1*
X38230Y16659D1*
X38010Y16729D1*
X37506Y16771D1*
X37277Y16738D1*
X37083Y16608D1*
X36965Y16406D1*
X36945Y16173D1*
X37029Y15954D1*
X37199Y15794D1*
X37419Y15724D1*
X37923Y15682D1*
G37*
G36*
X37771Y13839D2*
X37999Y13871D1*
X38194Y14002D1*
X38312Y14203D1*
X38331Y14436D1*
X38248Y14655D1*
X38077Y14815D1*
X37857Y14885D1*
X37353Y14927D1*
X37125Y14894D1*
X36930Y14764D1*
X36812Y14562D1*
X36792Y14329D1*
X36876Y14111D1*
X37046Y13950D1*
X37267Y13880D1*
X37771Y13839D1*
G37*
G36*
X37618Y11995D2*
X37846Y12028D1*
X38041Y12158D1*
X38159Y12360D1*
X38179Y12593D1*
X38095Y12811D1*
X37925Y12972D1*
X37704Y13041D1*
X37200Y13083D1*
X36972Y13051D1*
X36777Y12920D1*
X36659Y12719D1*
X36640Y12486D1*
X36723Y12267D1*
X36893Y12107D1*
X37114Y12037D1*
X37618Y11995D1*
G37*
G36*
X42601Y11582D2*
X42829Y11614D1*
X43024Y11745D1*
X43142Y11946D1*
X43161Y12179D1*
X43078Y12398D1*
X42907Y12558D1*
X42687Y12628D1*
X42183Y12670D1*
X41955Y12637D1*
X41760Y12507D1*
X41642Y12306D1*
X41622Y12072D1*
X41706Y11854D1*
X41876Y11693D1*
X42097Y11624D1*
X42601Y11582D1*
G37*
G36*
X42753Y13426D2*
X42982Y13458D1*
X43176Y13588D1*
X43295Y13790D1*
X43314Y14023D1*
X43231Y14242D1*
X43060Y14402D1*
X42840Y14472D1*
X42336Y14514D1*
X42107Y14481D1*
X41913Y14351D1*
X41795Y14149D1*
X41775Y13916D1*
X41859Y13698D1*
X42029Y13537D1*
X42249Y13467D1*
X42753Y13426D1*
G37*
G36*
X42906Y15269D2*
X43135Y15302D1*
X43329Y15432D1*
X43448Y15634D1*
X43467Y15867D1*
X43384Y16085D1*
X43213Y16246D1*
X42993Y16316D1*
X42489Y16357D1*
X42260Y16325D1*
X42066Y16194D1*
X41948Y15993D1*
X41928Y15760D1*
X42012Y15541D1*
X42182Y15381D1*
X42402Y15311D1*
X42906Y15269D1*
G37*
G36*
X46408Y15643D2*
X46614Y15749D1*
X46755Y15935D1*
X46802Y16164D1*
X46744Y16391D1*
X46594Y16570D1*
X46381Y16667D1*
X46150Y16661D1*
X45660Y16537D1*
X45454Y16432D1*
X45313Y16246D1*
X45266Y16017D1*
X45323Y15790D1*
X45474Y15611D1*
X45687Y15514D1*
X45918Y15519D1*
X46408Y15643D1*
G37*
G36*
X46862Y13850D2*
X47067Y13955D1*
X47209Y14141D1*
X47256Y14371D1*
X47198Y14597D1*
X47048Y14777D1*
X46835Y14873D1*
X46604Y14868D1*
X46114Y14744D1*
X45908Y14639D1*
X45767Y14453D1*
X45720Y14223D1*
X45777Y13997D1*
X45927Y13817D1*
X46140Y13721D1*
X46371Y13726D1*
X46862Y13850D1*
G37*
G36*
X47315Y12057D2*
X47521Y12162D1*
X47663Y12348D1*
X47709Y12577D1*
X47652Y12804D1*
X47502Y12983D1*
X47289Y13080D1*
X47058Y13074D1*
X46568Y12950D1*
X46362Y12845D1*
X46220Y12659D1*
X46174Y12430D1*
X46231Y12203D1*
X46381Y12024D1*
X46594Y11927D1*
X46825Y11933D1*
X47315Y12057D1*
G37*
G36*
X52163Y13283D2*
X52368Y13388D1*
X52510Y13574D1*
X52557Y13804D1*
X52499Y14030D1*
X52349Y14210D1*
X52136Y14306D1*
X51905Y14301D1*
X51415Y14177D1*
X51209Y14072D1*
X51068Y13886D1*
X51021Y13656D1*
X51078Y13430D1*
X51228Y13250D1*
X51442Y13154D1*
X51673Y13159D1*
X52163Y13283D1*
G37*
G36*
X51709Y15077D2*
X51915Y15182D1*
X52056Y15368D1*
X52103Y15597D1*
X52045Y15824D1*
X51895Y16003D1*
X51682Y16100D1*
X51451Y16094D1*
X50961Y15970D1*
X50755Y15865D1*
X50614Y15679D1*
X50567Y15450D1*
X50625Y15223D1*
X50775Y15044D1*
X50988Y14947D1*
X51219Y14953D1*
X51709Y15077D1*
G37*
G36*
X51255Y16870D2*
X51461Y16975D1*
X51602Y17161D1*
X51649Y17391D1*
X51592Y17617D1*
X51442Y17797D1*
X51228Y17893D1*
X50997Y17888D1*
X50507Y17764D1*
X50302Y17659D1*
X50160Y17473D1*
X50113Y17243D1*
X50171Y17017D1*
X50321Y16837D1*
X50534Y16741D1*
X50765Y16746D1*
X51255Y16870D1*
G37*
G36*
X54445Y18359D2*
X54606Y18526D1*
X54679Y18748D1*
X54649Y18980D1*
X54520Y19176D1*
X54320Y19296D1*
X54087Y19318D1*
X53871Y19238D1*
X53447Y18961D1*
X53287Y18795D1*
X53214Y18573D1*
X53244Y18341D1*
X53373Y18145D1*
X53573Y18024D1*
X53806Y18002D1*
X54022Y18083D1*
X54445Y18359D1*
G37*
G36*
X55458Y16811D2*
X55619Y16978D1*
X55692Y17200D1*
X55662Y17432D1*
X55533Y17628D1*
X55333Y17748D1*
X55100Y17770D1*
X54884Y17690D1*
X54460Y17413D1*
X54300Y17247D1*
X54227Y17025D1*
X54257Y16793D1*
X54386Y16597D1*
X54586Y16476D1*
X54819Y16454D1*
X55035Y16535D1*
X55458Y16811D1*
G37*
G36*
X56471Y15263D2*
X56632Y15430D1*
X56705Y15652D1*
X56675Y15884D1*
X56546Y16080D1*
X56346Y16200D1*
X56113Y16222D1*
X55897Y16142D1*
X55473Y15865D1*
X55313Y15699D1*
X55240Y15477D1*
X55270Y15245D1*
X55399Y15049D1*
X55599Y14928D1*
X55832Y14906D1*
X56048Y14987D1*
X56471Y15263D1*
G37*
G36*
X60655Y18001D2*
X60816Y18168D1*
X60889Y18390D1*
X60858Y18622D1*
X60730Y18817D1*
X60530Y18938D1*
X60297Y18960D1*
X60080Y18880D1*
X59657Y18603D1*
X59497Y18437D1*
X59424Y18214D1*
X59454Y17982D1*
X59582Y17787D1*
X59783Y17666D1*
X60016Y17644D1*
X60232Y17724D1*
X60655Y18001D1*
G37*
G36*
X59642Y19549D2*
X59803Y19716D1*
X59876Y19938D1*
X59845Y20170D1*
X59717Y20365D1*
X59517Y20486D1*
X59284Y20508D1*
X59067Y20428D1*
X58644Y20151D1*
X58484Y19985D1*
X58411Y19762D1*
X58441Y19530D1*
X58569Y19335D1*
X58770Y19214D1*
X59003Y19192D1*
X59219Y19272D1*
X59642Y19549D1*
G37*
G36*
X58629Y21097D2*
X58790Y21264D1*
X58863Y21486D1*
X58832Y21718D1*
X58704Y21913D1*
X58504Y22034D1*
X58271Y22056D1*
X58054Y21976D1*
X57631Y21699D1*
X57471Y21533D1*
X57398Y21310D1*
X57428Y21079D1*
X57556Y20883D1*
X57757Y20762D1*
X57990Y20740D1*
X58206Y20820D1*
X58629Y21097D1*
G37*
G36*
X60025Y23787D2*
X59927Y23578D1*
X59930Y23344D1*
X60034Y23134D1*
X60219Y22990D1*
X60447Y22941D1*
X60675Y22996D1*
X60854Y23142D1*
X61164Y23541D1*
X61262Y23750D1*
X61259Y23984D1*
X61155Y24194D1*
X60971Y24337D1*
X60742Y24387D1*
X60515Y24332D1*
X60336Y24186D1*
X60025Y23787D1*
G37*
G36*
X61485Y22651D2*
X61387Y22441D1*
X61390Y22207D1*
X61494Y21998D1*
X61679Y21854D1*
X61907Y21805D1*
X62135Y21859D1*
X62314Y22006D1*
X62624Y22405D1*
X62722Y22614D1*
X62719Y22848D1*
X62615Y23057D1*
X62431Y23201D1*
X62202Y23250D1*
X61975Y23196D1*
X61796Y23049D1*
X61485Y22651D1*
G37*
G36*
X62945Y21514D2*
X62847Y21305D1*
X62850Y21071D1*
X62954Y20861D1*
X63138Y20718D1*
X63367Y20668D1*
X63594Y20723D1*
X63773Y20869D1*
X64084Y21268D1*
X64182Y21477D1*
X64179Y21711D1*
X64075Y21921D1*
X63891Y22065D1*
X63662Y22114D1*
X63434Y22059D1*
X63256Y21913D1*
X62945Y21514D1*
G37*
G36*
X66016Y25459D2*
X65919Y25250D1*
X65921Y25016D1*
X66025Y24807D1*
X66210Y24663D1*
X66438Y24614D1*
X66666Y24668D1*
X66845Y24814D1*
X67155Y25213D1*
X67253Y25423D1*
X67250Y25657D1*
X67147Y25866D1*
X66962Y26010D1*
X66733Y26059D1*
X66506Y26005D1*
X66327Y25858D1*
X66016Y25459D1*
G37*
G36*
X64557Y26596D2*
X64459Y26387D1*
X64461Y26153D1*
X64565Y25943D1*
X64750Y25799D1*
X64979Y25750D1*
X65206Y25805D1*
X65385Y25951D1*
X65696Y26350D1*
X65793Y26559D1*
X65791Y26793D1*
X65687Y27003D1*
X65502Y27146D1*
X65273Y27196D1*
X65046Y27141D1*
X64867Y26995D1*
X64557Y26596D1*
G37*
G36*
X63097Y27732D2*
X62999Y27523D1*
X63002Y27289D1*
X63106Y27080D1*
X63290Y26936D1*
X63519Y26886D1*
X63746Y26941D1*
X63925Y27087D1*
X64236Y27486D1*
X64334Y27696D1*
X64331Y27930D1*
X64227Y28139D1*
X64042Y28283D1*
X63814Y28332D1*
X63586Y28277D1*
X63407Y28131D1*
X63097Y27732D1*
G37*
G36*
X64682Y30482D2*
X64657Y30252D1*
X64736Y30032D1*
X64903Y29868D1*
X65124Y29792D1*
X65356Y29820D1*
X65554Y29946D1*
X65675Y30142D1*
X65839Y30620D1*
X65863Y30850D1*
X65784Y31070D1*
X65618Y31235D1*
X65397Y31310D1*
X65164Y31283D1*
X64967Y31157D1*
X64846Y30960D1*
X64682Y30482D1*
G37*
G36*
X66432Y29883D2*
X66408Y29653D1*
X66486Y29433D1*
X66653Y29269D1*
X66874Y29193D1*
X67107Y29221D1*
X67304Y29346D1*
X67425Y29543D1*
X67589Y30021D1*
X67613Y30251D1*
X67535Y30471D1*
X67368Y30635D1*
X67147Y30711D1*
X66915Y30683D1*
X66717Y30558D1*
X66596Y30361D1*
X66432Y29883D1*
G37*
G36*
X68182Y29284D2*
X68158Y29054D1*
X68237Y28834D1*
X68403Y28669D1*
X68625Y28594D1*
X68857Y28621D1*
X69054Y28747D1*
X69176Y28944D1*
X69339Y29422D1*
X69364Y29652D1*
X69285Y29872D1*
X69118Y30036D1*
X68897Y30112D1*
X68665Y30084D1*
X68468Y29958D1*
X68346Y29762D1*
X68182Y29284D1*
G37*
G36*
X69802Y34014D2*
X69778Y33784D1*
X69856Y33564D1*
X70023Y33400D1*
X70244Y33324D1*
X70476Y33352D1*
X70674Y33477D1*
X70795Y33674D1*
X70959Y34152D1*
X70983Y34382D1*
X70905Y34602D1*
X70738Y34767D1*
X70517Y34842D1*
X70284Y34815D1*
X70087Y34689D1*
X69966Y34492D1*
X69802Y34014D1*
G37*
G36*
X68052Y34613D2*
X68027Y34384D1*
X68106Y34163D1*
X68273Y33999D1*
X68494Y33923D1*
X68726Y33951D1*
X68923Y34077D1*
X69045Y34273D1*
X69209Y34752D1*
X69233Y34981D1*
X69154Y35202D1*
X68988Y35366D1*
X68766Y35442D1*
X68534Y35414D1*
X68337Y35288D1*
X68215Y35092D1*
X68052Y34613D1*
G37*
G36*
X66301Y35213D2*
X66277Y34983D1*
X66356Y34763D1*
X66522Y34598D1*
X66744Y34522D1*
X66976Y34550D1*
X67173Y34676D1*
X67295Y34872D1*
X67459Y35351D1*
X67483Y35581D1*
X67404Y35801D1*
X67238Y35965D1*
X67016Y36041D1*
X66784Y36013D1*
X66587Y35887D1*
X66465Y35691D1*
X66301Y35213D1*
G37*
G36*
X50678Y54929D2*
X49728Y55074D1*
X48988Y55374D1*
X48518Y55754D1*
X48138Y56139D1*
X47823Y56699D1*
X47693Y57024D1*
X47593Y57504D1*
X47543Y57754D1*
X47518Y58169D1*
X47633Y58494D1*
X47823Y58684D1*
X47948Y58809D1*
X48013Y59129D1*
X47988Y59259D1*
X47913Y59509D1*
X47758Y59649D1*
X48168Y60144D1*
X48548Y59894D1*
X48638D1*
X48818Y60334D1*
X49093Y60309D1*
X49598Y60449D1*
X49068Y59184D1*
Y59024D1*
X49103Y58809D1*
X49218Y58759D1*
X49473Y58859D1*
X49788Y59439D1*
X50143Y60294D1*
X50398Y60169D1*
X50668Y59849D1*
X50298Y58899D1*
X50488Y58929D1*
X50678D1*
Y54929D1*
G37*
D60*
X42283Y73822D3*
D61*
X41684Y106929D3*
X73456Y46411D3*
X40645Y104690D3*
X41980Y107695D3*
X40990Y105457D3*
X73553Y44725D3*
X41337Y106211D3*
X73384Y47205D3*
X73506Y45562D3*
X73560Y43857D3*
X42673Y109107D3*
X40352Y103924D3*
D57*
X43043Y109713D3*
D61*
X73478Y39574D3*
X42331Y108419D3*
X73444Y38737D3*
X73418Y37835D3*
X73343Y35163D3*
X73644Y98324D3*
X73680Y96444D3*
X73659Y97422D3*
X73597Y100141D3*
X73637Y99265D3*
X73571Y100955D3*
X73539Y101741D3*
X73101Y48782D3*
X73270Y47988D3*
X73536Y43001D3*
X73502Y42106D3*
X73491Y41220D3*
X73457Y40338D3*
X73421Y36953D3*
X73385Y36044D3*
M02*
