G04 DipTrace 2.4.0.2*
%INfemalemalecrosspeace.gto*%
%MOMM*%
%ADD10C,0.25*%
%ADD14C,0.4*%
%ADD18C,0.152*%
%ADD23O,0.437X0.4*%
%ADD28O,0.5X0.5*%
%ADD31O,0.975X0.925*%
%ADD36O,0.925X0.975*%
%ADD48O,0.4X0.437*%
%ADD54O,3.825X4.663*%
%ADD85C,0.118*%
%ADD86C,0.314*%
%FSLAX53Y53*%
G04*
G71*
G90*
G75*
G01*
%LNTopSilk*%
%LPD*%
D23*
X27854Y111198D3*
X27998Y110281D2*
D10*
X28499Y109781D1*
Y106781D2*
Y106281D1*
X27998D1*
X24999D2*
X24498D1*
Y106781D1*
X24999Y110281D2*
X24498D1*
Y109781D1*
X26293Y122124D2*
X24293D1*
X26293Y118724D2*
X24293D1*
D28*
X24043Y122299D3*
X24018Y100198D2*
D10*
X26018D1*
X24018Y105198D2*
X26018D1*
X27218D2*
X29218D1*
X27218Y100198D2*
X29218D1*
D31*
X29081Y99835D3*
X29602Y121778D2*
D10*
Y120078D1*
X27302Y121778D2*
Y120078D1*
X14726Y106066D2*
X16140Y104651D1*
X18262Y109601D2*
X19676Y108187D1*
X20524Y107338D2*
X21938Y105924D1*
X16988Y103802D2*
X18403Y102388D1*
D36*
X18049Y102229D3*
X12659Y116757D2*
D10*
Y114757D1*
X17659Y116757D2*
Y114757D1*
Y113557D2*
Y111557D1*
X12659Y113557D2*
Y111557D1*
D36*
X12297Y111694D3*
X18403Y126632D2*
D10*
X16989Y125218D1*
X21938Y123096D2*
X20524Y121682D1*
X19675Y120834D2*
X18261Y119420D1*
X16140Y124370D2*
X14726Y122955D1*
D31*
X14566Y123309D3*
X29218Y128116D2*
D10*
X27218D1*
X29218Y123116D2*
X27218D1*
X26018D2*
X24018D1*
X26018Y128116D2*
X24018D1*
D31*
X24155Y128478D3*
X38144Y122955D2*
D10*
X36730Y124369D1*
X34609Y119420D2*
X33194Y120834D1*
X32346Y121683D2*
X30932Y123097D1*
X35882Y125218D2*
X34468Y126632D1*
D36*
X34821Y126792D3*
X40578Y111557D2*
D10*
Y113557D1*
X35577Y111557D2*
Y113557D1*
Y114757D2*
Y116757D1*
X40578Y114757D2*
Y116757D1*
D36*
X40940Y116619D3*
X34467Y102389D2*
D10*
X35881Y103803D1*
X30932Y105924D2*
X32346Y107339D1*
X33195Y108187D2*
X34609Y109601D1*
X36731Y104651D2*
X38145Y106065D1*
D31*
X38304Y105712D3*
X19592Y117688D2*
D10*
X22592D1*
Y110688D1*
X19592D1*
Y117688D1*
X29118Y91098D2*
Y93098D1*
X24118Y91098D2*
Y93098D1*
Y94298D2*
Y96298D1*
X29118Y94298D2*
Y96298D1*
D36*
X29481Y96161D3*
X29118Y82098D2*
D10*
Y84098D1*
X24118Y82098D2*
Y84098D1*
Y85298D2*
Y87298D1*
X29118Y85298D2*
Y87298D1*
D36*
X29481Y87161D3*
X29118Y73098D2*
D10*
Y75098D1*
X24118Y73098D2*
Y75098D1*
Y76298D2*
Y78298D1*
X29118Y76298D2*
Y78298D1*
D36*
X29481Y78161D3*
X15118Y87298D2*
D10*
Y85298D1*
X20118Y87298D2*
Y85298D1*
Y84098D2*
Y82098D1*
X15118Y84098D2*
Y82098D1*
D36*
X14756Y82235D3*
D14*
X33023Y117296D3*
X32798Y117171D2*
D18*
X30598D1*
Y119371D1*
X32798D1*
Y117171D1*
X38118Y82098D2*
D10*
Y84098D1*
X33118Y82098D2*
Y84098D1*
Y85298D2*
Y87298D1*
X38118Y85298D2*
Y87298D1*
D36*
X38481Y87161D3*
D48*
X59676Y100468D3*
X60592Y100612D2*
D10*
X61092Y101113D1*
X64092D2*
X64592D1*
Y100612D1*
Y97613D2*
Y97112D1*
X64092D1*
X60592Y97613D2*
Y97112D1*
X61092D1*
X48773Y98512D2*
Y96512D1*
X52173Y98512D2*
Y96512D1*
D28*
X48598Y96262D3*
X70676Y96632D2*
D10*
Y98632D1*
X65676Y96632D2*
Y98632D1*
Y99832D2*
Y101832D1*
X70676Y99832D2*
Y101832D1*
D36*
X71038Y101695D3*
X49118Y101821D2*
D10*
X50818D1*
X49118Y99521D2*
X50818D1*
X64808Y87340D2*
X66222Y88754D1*
X61272Y90875D2*
X62686Y92290D1*
X63535Y93138D2*
X64949Y94552D1*
X67071Y89602D2*
X68485Y91016D1*
D31*
X68644Y90663D3*
X54117Y85273D2*
D10*
X56117D1*
X54117Y90273D2*
X56117D1*
X57317D2*
X59317D1*
X57317Y85273D2*
X59317D1*
D31*
X59179Y84911D3*
X44241Y91017D2*
D10*
X45655Y89603D1*
X47777Y94552D2*
X49191Y93138D1*
X50039Y92289D2*
X51454Y90875D1*
X46504Y88754D2*
X47918Y87339D1*
D36*
X47565Y87180D3*
X42757Y101832D2*
D10*
Y99832D1*
X47757Y101832D2*
Y99832D1*
Y98632D2*
Y96632D1*
X42757Y98632D2*
Y96632D1*
D36*
X42395Y96769D3*
X47918Y110758D2*
D10*
X46504Y109344D1*
X51454Y107222D2*
X50040Y105808D1*
X49191Y104960D2*
X47776Y103546D1*
X45655Y108496D2*
X44241Y107081D1*
D31*
X44082Y107435D3*
X59317Y113191D2*
D10*
X57317D1*
X59317Y108191D2*
X57317D1*
X56117D2*
X54117D1*
X56117Y113191D2*
X54117D1*
D31*
X54254Y113554D3*
X68485Y107081D2*
D10*
X67070Y108495D1*
X64949Y103546D2*
X63534Y104960D1*
X62686Y105809D2*
X61272Y107223D1*
X66222Y109344D2*
X64808Y110758D1*
D36*
X65161Y110918D3*
X53185Y92206D2*
D10*
Y95206D1*
X60185D1*
Y92206D1*
X53185D1*
X71313Y117123D2*
X69899Y115708D1*
X74849Y113587D2*
X73435Y112172D1*
X72585Y111324D2*
X71171Y109910D1*
X69050Y114860D2*
X67636Y113446D1*
D31*
X67477Y113799D3*
X77677Y123487D2*
D10*
X76263Y122072D1*
X81213Y119951D2*
X79799Y118536D1*
X78949Y117688D2*
X77535Y116274D1*
X75414Y121224D2*
X74000Y119810D1*
D31*
X73841Y120163D3*
X66006Y119132D2*
D10*
X68006D1*
X66006Y124132D2*
X68006D1*
X69206D2*
X71206D1*
X69206Y119132D2*
X71206D1*
D31*
X71069Y118770D3*
X76616Y113480D2*
D10*
Y111480D1*
X81616Y113480D2*
Y111480D1*
Y110280D2*
Y108280D1*
X76616Y110280D2*
Y108280D1*
D36*
X76254Y108417D3*
D14*
X53738Y105672D3*
X53862Y105447D2*
D18*
X51663D1*
Y103247D1*
X53862D1*
Y105447D1*
D23*
X76649Y29255D3*
X76504Y30172D2*
D10*
X76003Y30672D1*
Y33672D2*
Y34172D1*
X76504D1*
X79504D2*
X80004D1*
Y33672D1*
X79504Y30172D2*
X80004D1*
Y30672D1*
X82086Y75760D2*
Y77760D1*
X78685Y75760D2*
Y77760D1*
D28*
X82261Y78010D3*
X75503Y42772D2*
D10*
Y40772D1*
X80504Y42772D2*
Y40772D1*
Y39572D2*
Y37572D1*
X75503Y39572D2*
Y37572D1*
D36*
X75141Y37709D3*
X81740Y72452D2*
D10*
X80040D1*
X81740Y74752D2*
X80040D1*
X75503Y51772D2*
Y49772D1*
X80504Y51772D2*
Y49772D1*
Y48572D2*
Y46572D1*
X75503Y48572D2*
Y46572D1*
D36*
X75141Y46709D3*
X75503Y60772D2*
D10*
Y58772D1*
X80504Y60772D2*
Y58772D1*
Y57572D2*
Y55572D1*
X75503Y57572D2*
Y55572D1*
D36*
X75141Y55709D3*
X75503Y69772D2*
D10*
Y67772D1*
X80504Y69772D2*
Y67772D1*
Y66572D2*
Y64572D1*
X75503Y66572D2*
Y64572D1*
D36*
X75141Y64709D3*
X66404Y73672D2*
D10*
X68404D1*
X66404Y78672D2*
X68404D1*
X69604D2*
X71604D1*
X69604Y73672D2*
X71604D1*
D31*
X71467Y73309D3*
X57404Y73672D2*
D10*
X59404D1*
X57404Y78672D2*
X59404D1*
X60604D2*
X62604D1*
X60604Y73672D2*
X62604D1*
D31*
X62467Y73309D3*
X75503Y87772D2*
D10*
Y85772D1*
X80504Y87772D2*
Y85772D1*
Y84572D2*
Y82572D1*
X75503Y84572D2*
Y82572D1*
D36*
X75141Y82709D3*
X75503Y96772D2*
D10*
Y94772D1*
X80504Y96772D2*
Y94772D1*
Y93572D2*
Y91572D1*
X75503Y93572D2*
Y91572D1*
D36*
X75141Y91709D3*
X89604Y78672D2*
D10*
X87604D1*
X89604Y73672D2*
X87604D1*
X86404D2*
X84404D1*
X86404Y78672D2*
X84404D1*
D31*
X84541Y79034D3*
X98604Y78672D2*
D10*
X96604D1*
X98604Y73672D2*
X96604D1*
X95404D2*
X93404D1*
X95404Y78672D2*
X93404D1*
D31*
X93541Y79034D3*
D14*
X74673Y72310D3*
X74548Y72535D2*
D18*
X76748D1*
Y74735D1*
X74548D1*
Y72535D1*
D23*
X33975Y41633D3*
X33830Y42550D2*
D10*
X33330Y43049D1*
Y46049D2*
Y46549D1*
X33830D1*
X36830D2*
X37330D1*
Y46049D1*
X36830Y42550D2*
X37330D1*
Y43049D1*
X50975Y23735D2*
Y25735D1*
X47575Y23735D2*
Y25735D1*
D28*
X51150Y25985D3*
X39783Y25684D2*
D10*
Y23684D1*
X44783Y25684D2*
Y23684D1*
Y22484D2*
Y20484D1*
X39783Y22484D2*
Y20484D1*
D36*
X39421Y20621D3*
X50629Y20427D2*
D10*
X48930D1*
X50629Y22727D2*
X48930D1*
X39783Y34684D2*
Y32684D1*
X44783Y34684D2*
Y32684D1*
Y31484D2*
Y29484D1*
X39783Y31484D2*
Y29484D1*
D36*
X39421Y29621D3*
X39783Y43684D2*
D10*
Y41684D1*
X44783Y43684D2*
Y41684D1*
Y40484D2*
Y38484D1*
X39783Y40484D2*
Y38484D1*
D36*
X39421Y38621D3*
X39783Y52684D2*
D10*
Y50684D1*
X44783Y52684D2*
Y50684D1*
Y49484D2*
Y47485D1*
X39783Y49484D2*
Y47485D1*
D36*
X39421Y47621D3*
X39783Y61684D2*
D10*
Y59684D1*
X44783Y61684D2*
Y59684D1*
Y58484D2*
Y56485D1*
X39783Y58484D2*
Y56485D1*
D31*
X39421Y56621D3*
X34213Y29478D2*
D10*
X35627Y30892D1*
X30677Y33014D2*
X32091Y34428D1*
X32940Y35276D2*
X34354Y36691D1*
X36476Y31740D2*
X37890Y33155D1*
D31*
X38049Y32801D3*
X28213Y23478D2*
D10*
X29627Y24892D1*
X24677Y27014D2*
X26091Y28428D1*
X26940Y29276D2*
X28354Y30691D1*
X30476Y25740D2*
X31890Y27155D1*
D36*
X32049Y26801D3*
X52671Y27652D2*
D10*
X54085Y26238D1*
X56207Y31188D2*
X57621Y29774D1*
X58469Y28925D2*
X59883Y27511D1*
X54933Y25389D2*
X56348Y23975D1*
D36*
X55994Y23816D3*
X46914Y46282D2*
D10*
X49914D1*
Y39282D1*
X46914D1*
Y46282D1*
D14*
X35207Y21428D3*
X35082Y21653D2*
D18*
X37282D1*
Y23853D1*
X35082D1*
Y21653D1*
X46671Y33652D2*
D10*
X48085Y32238D1*
X50207Y37187D2*
X51621Y35774D1*
X52469Y34925D2*
X53883Y33511D1*
X48933Y31389D2*
X50348Y29975D1*
D31*
X49994Y29816D3*
X66783Y43684D2*
D10*
Y41684D1*
X71783Y43684D2*
Y41684D1*
Y40484D2*
Y38484D1*
X66783Y40484D2*
Y38484D1*
D36*
X66421Y38621D3*
X64611Y51499D2*
D10*
X65261Y49607D1*
X69341Y53122D2*
X69990Y51230D1*
X70380Y50095D2*
X71029Y48204D1*
X65650Y48472D2*
X66300Y46581D1*
D36*
X65913Y46593D3*
X60019Y58184D2*
D10*
X61248Y56606D1*
X63966Y61256D2*
X65194Y59677D1*
X65931Y58731D2*
X67159Y57152D1*
X61985Y55659D2*
X63213Y54081D1*
D36*
X62843Y53966D3*
X53507Y63016D2*
D10*
X55181Y61922D1*
X56242Y67202D2*
X57917Y66109D1*
X58921Y65452D2*
X60596Y64358D1*
X56186Y61266D2*
X57860Y60172D1*
D36*
X57548Y59944D3*
X45777Y65473D2*
D10*
X47716Y64982D1*
X47004Y70320D2*
X48943Y69829D1*
X50107Y69534D2*
X52045Y69043D1*
X48880Y64687D2*
X50818Y64196D1*
D31*
X50596Y63879D3*
X37669Y65286D2*
D10*
X39662Y65451D1*
X37256Y70269D2*
X39249Y70434D1*
X40445Y70533D2*
X42438Y70698D1*
X40858Y65550D2*
X42851Y65715D1*
D31*
X42744Y65343D3*
X30061Y62476D2*
D10*
X31892Y63280D1*
X28052Y67055D2*
X29884Y67858D1*
X30982Y68341D2*
X32814Y69144D1*
X32991Y63762D2*
X34822Y64565D1*
D31*
X34843Y64178D3*
X23777Y57349D2*
D10*
X25248Y58704D1*
X20391Y61027D2*
X21862Y62382D1*
X22745Y63195D2*
X24216Y64549D1*
X26131Y59516D2*
X27602Y60870D1*
D31*
X27747Y60511D3*
X19499Y50459D2*
D10*
X20451Y52218D1*
X15101Y52839D2*
X16053Y54597D1*
X16624Y55653D2*
X17576Y57412D1*
X21022Y53273D2*
X21974Y55032D1*
D36*
X22227Y54739D3*
X17689Y42552D2*
D10*
X18018Y44525D1*
X12758Y43375D2*
X13087Y45348D1*
X13284Y46532D2*
X13614Y48504D1*
X18216Y45708D2*
X18545Y47681D1*
D36*
X18880Y47486D3*
X18545Y34487D2*
D10*
X18216Y36460D1*
X13614Y33664D2*
X13284Y35637D1*
X13087Y36820D2*
X12758Y38793D1*
X18019Y37644D2*
X17689Y39616D1*
D36*
X18070Y39541D3*
X21974Y27136D2*
D10*
X21022Y28895D1*
X17576Y24757D2*
X16624Y26516D1*
X16053Y27571D2*
X15101Y29330D1*
X20451Y29951D2*
X19499Y31710D1*
D36*
X19882Y31762D3*
X27602Y21298D2*
D10*
X26131Y22653D1*
X24216Y17619D2*
X22745Y18974D1*
X21862Y19786D2*
X20391Y21141D1*
X25248Y23465D2*
X23777Y24819D1*
D31*
X24123Y24993D3*
X34823Y17603D2*
D10*
X32992Y18406D1*
X32813Y13024D2*
X30982Y13828D1*
X29883Y14310D2*
X28052Y15114D1*
X31893Y18889D2*
X30062Y19692D1*
D31*
X30333Y19969D3*
X42851Y16453D2*
D10*
X40858Y16618D1*
X42438Y11470D2*
X40444Y11635D1*
X39249Y11734D2*
X37256Y11899D1*
X39662Y16718D2*
X37669Y16883D1*
D31*
X37836Y17232D3*
X50819Y17972D2*
D10*
X48880Y17481D1*
X52045Y13124D2*
X50107Y12634D1*
X48943Y12339D2*
X47004Y11849D1*
X47716Y17187D2*
X45777Y16696D1*
D31*
X45822Y17081D3*
X57858Y21997D2*
D10*
X56184Y20902D1*
X60596Y17813D2*
X58923Y16718D1*
X57918Y16061D2*
X56245Y14966D1*
X55180Y20245D2*
X53506Y19150D1*
D31*
X53423Y19528D3*
X63214Y28087D2*
D10*
X61986Y26509D1*
X67160Y25016D2*
X65932Y23438D1*
X65195Y22491D2*
X63966Y20913D1*
X61249Y25563D2*
X60021Y23984D1*
D36*
X59819Y24315D3*
X66297Y35587D2*
D10*
X65650Y33694D1*
X71028Y33967D2*
X70380Y32075D1*
X69992Y30940D2*
X69344Y29047D1*
X65261Y32560D2*
X64613Y30667D1*
D36*
X64314Y30914D3*
X50679Y55030D2*
D10*
G03X53703Y58380I-218J3237D01*
G01*
D54*
X51916Y58086D3*
G36*
X50629Y55104D2*
X50478Y57154D1*
X53428Y57730D1*
X52529Y55804D1*
X51579Y55279D1*
D1*
X50629Y55104D1*
G37*
X26220Y112514D2*
D85*
Y111967D1*
X26242Y111857D1*
X26286Y111785D1*
X26351Y111748D1*
X26395D1*
X26461Y111785D1*
X26505Y111857D1*
X26526Y111967D1*
Y112514D1*
X26667Y112367D2*
X26711Y112404D1*
X26777Y112513D1*
Y111748D1*
X27142Y121180D2*
Y120634D1*
X27164Y120524D1*
X27208Y120452D1*
X27273Y120415D1*
X27317D1*
X27382Y120452D1*
X27426Y120524D1*
X27448Y120634D1*
Y121180D1*
X27611Y120998D2*
Y121034D1*
X27633Y121107D1*
X27655Y121143D1*
X27699Y121180D1*
X27786D1*
X27830Y121143D1*
X27852Y121107D1*
X27874Y121034D1*
Y120961D1*
X27852Y120888D1*
X27808Y120779D1*
X27589Y120415D1*
X27896D1*
X33072Y116003D2*
Y115420D1*
X33050Y115310D1*
X33028Y115274D1*
X32985Y115237D1*
X32941D1*
X32897Y115274D1*
X32876Y115310D1*
X32853Y115420D1*
Y115492D1*
X33213Y115856D2*
X33257Y115893D1*
X33323Y116002D1*
Y115237D1*
X26241Y106314D2*
Y105767D1*
X26263Y105658D1*
X26307Y105585D1*
X26373Y105548D1*
X26416D1*
X26482Y105585D1*
X26526Y105658D1*
X26548Y105767D1*
Y106314D1*
X26733Y106313D2*
X26973D1*
X26842Y106021D1*
X26908D1*
X26951Y105985D1*
X26973Y105949D1*
X26995Y105839D1*
Y105767D1*
X26973Y105658D1*
X26929Y105584D1*
X26864Y105548D1*
X26798D1*
X26733Y105584D1*
X26711Y105621D1*
X26689Y105694D1*
X22797Y122737D2*
X22775Y122810D1*
X22731Y122883D1*
X22688Y122919D1*
X22600D1*
X22556Y122883D1*
X22513Y122810D1*
X22491Y122737D1*
X22469Y122628D1*
Y122445D1*
X22491Y122337D1*
X22513Y122263D1*
X22556Y122191D1*
X22600Y122154D1*
X22688D1*
X22731Y122191D1*
X22775Y122263D1*
X22797Y122337D1*
X22938Y122773D2*
X22982Y122810D1*
X23048Y122919D1*
Y122154D1*
X25221Y119376D2*
X25200Y119448D1*
X25156Y119521D1*
X25112Y119557D1*
X25025D1*
X24981Y119521D1*
X24937Y119448D1*
X24915Y119376D1*
X24893Y119266D1*
Y119083D1*
X24915Y118975D1*
X24937Y118901D1*
X24981Y118829D1*
X25025Y118792D1*
X25112D1*
X25156Y118829D1*
X25200Y118901D1*
X25221Y118975D1*
X25385Y119375D2*
Y119411D1*
X25407Y119484D1*
X25428Y119520D1*
X25472Y119557D1*
X25560D1*
X25603Y119520D1*
X25625Y119484D1*
X25647Y119411D1*
Y119338D1*
X25625Y119265D1*
X25581Y119157D1*
X25363Y118792D1*
X25669D1*
X30110Y121611D2*
Y120846D1*
X30372D1*
X30514Y121465D2*
X30557Y121502D1*
X30623Y121611D1*
Y120846D1*
X17944Y110860D2*
Y110314D1*
X17966Y110204D1*
X18010Y110132D1*
X18076Y110095D1*
X18119D1*
X18185Y110132D1*
X18229Y110204D1*
X18251Y110314D1*
Y110860D1*
X18611Y110095D2*
Y110859D1*
X18392Y110350D1*
X18720D1*
X14370Y118523D2*
Y117976D1*
X14392Y117866D1*
X14436Y117794D1*
X14501Y117757D1*
X14545D1*
X14611Y117794D1*
X14655Y117866D1*
X14676Y117976D1*
Y118523D1*
X15080Y118522D2*
X14861D1*
X14840Y118194D1*
X14861Y118230D1*
X14927Y118267D1*
X14992D1*
X15058Y118230D1*
X15102Y118158D1*
X15124Y118048D1*
Y117976D1*
X15102Y117866D1*
X15058Y117793D1*
X14992Y117757D1*
X14927D1*
X14861Y117793D1*
X14840Y117830D1*
X14817Y117903D1*
X17715Y127891D2*
Y127345D1*
X17736Y127235D1*
X17780Y127163D1*
X17846Y127126D1*
X17889D1*
X17955Y127163D1*
X17999Y127235D1*
X18021Y127345D1*
Y127891D1*
X18424Y127782D2*
X18403Y127854D1*
X18337Y127890D1*
X18293D1*
X18228Y127854D1*
X18184Y127745D1*
X18162Y127563D1*
Y127381D1*
X18184Y127235D1*
X18228Y127162D1*
X18293Y127126D1*
X18315D1*
X18380Y127162D1*
X18424Y127235D1*
X18446Y127345D1*
Y127381D1*
X18424Y127490D1*
X18380Y127563D1*
X18315Y127599D1*
X18293D1*
X18228Y127563D1*
X18184Y127490D1*
X18162Y127381D1*
X26241Y130057D2*
Y129510D1*
X26263Y129401D1*
X26307Y129328D1*
X26373Y129291D1*
X26416D1*
X26482Y129328D1*
X26526Y129401D1*
X26548Y129510D1*
Y130057D1*
X26776Y129291D2*
X26995Y130056D1*
X26689D1*
X34161Y128395D2*
Y127848D1*
X34183Y127739D1*
X34227Y127666D1*
X34293Y127629D1*
X34336D1*
X34402Y127666D1*
X34446Y127739D1*
X34468Y127848D1*
Y128395D1*
X34718Y128394D2*
X34653Y128358D1*
X34631Y128285D1*
Y128212D1*
X34653Y128140D1*
X34696Y128103D1*
X34784Y128066D1*
X34849Y128030D1*
X34893Y127957D1*
X34915Y127884D1*
Y127775D1*
X34893Y127702D1*
X34871Y127665D1*
X34806Y127629D1*
X34718D1*
X34653Y127665D1*
X34631Y127702D1*
X34609Y127775D1*
Y127884D1*
X34631Y127957D1*
X34675Y128030D1*
X34740Y128066D1*
X34827Y128103D1*
X34871Y128140D1*
X34893Y128212D1*
Y128285D1*
X34871Y128358D1*
X34806Y128394D1*
X34718D1*
X38124Y118523D2*
Y117976D1*
X38146Y117866D1*
X38190Y117794D1*
X38255Y117757D1*
X38299D1*
X38364Y117794D1*
X38408Y117866D1*
X38430Y117976D1*
Y118523D1*
X38856Y118267D2*
X38834Y118158D1*
X38790Y118085D1*
X38724Y118048D1*
X38703D1*
X38637Y118085D1*
X38594Y118158D1*
X38571Y118267D1*
Y118304D1*
X38594Y118413D1*
X38637Y118485D1*
X38703Y118522D1*
X38724D1*
X38790Y118485D1*
X38834Y118413D1*
X38856Y118267D1*
Y118085D1*
X38834Y117903D1*
X38790Y117793D1*
X38724Y117757D1*
X38681D1*
X38615Y117793D1*
X38594Y117866D1*
X34288Y110860D2*
Y110314D1*
X34309Y110204D1*
X34353Y110132D1*
X34419Y110095D1*
X34462D1*
X34528Y110132D1*
X34572Y110204D1*
X34594Y110314D1*
Y110860D1*
X34735Y110714D2*
X34779Y110751D1*
X34845Y110859D1*
Y110095D1*
X35117Y110859D2*
X35052Y110823D1*
X35008Y110714D1*
X34986Y110532D1*
Y110422D1*
X35008Y110240D1*
X35052Y110131D1*
X35117Y110095D1*
X35161D1*
X35226Y110131D1*
X35270Y110240D1*
X35292Y110422D1*
Y110532D1*
X35270Y110714D1*
X35226Y110823D1*
X35161Y110859D1*
X35117D1*
X35270Y110714D2*
X35008Y110240D1*
X20090Y119454D2*
Y118907D1*
X20112Y118798D1*
X20156Y118725D1*
X20221Y118688D1*
X20265D1*
X20331Y118725D1*
X20375Y118798D1*
X20396Y118907D1*
Y119454D1*
X20538Y119307D2*
X20581Y119344D1*
X20647Y119453D1*
Y118688D1*
X21051Y119453D2*
X20832D1*
X20811Y119125D1*
X20832Y119162D1*
X20898Y119199D1*
X20963D1*
X21029Y119162D1*
X21073Y119089D1*
X21095Y118980D1*
Y118907D1*
X21073Y118798D1*
X21029Y118725D1*
X20963Y118688D1*
X20898D1*
X20832Y118725D1*
X20811Y118762D1*
X20788Y118834D1*
X26627Y98064D2*
Y97517D1*
X26648Y97408D1*
X26692Y97335D1*
X26758Y97298D1*
X26802D1*
X26867Y97335D1*
X26911Y97408D1*
X26933Y97517D1*
Y98064D1*
X27074Y97917D2*
X27118Y97954D1*
X27184Y98063D1*
Y97298D1*
X27325Y97917D2*
X27369Y97954D1*
X27435Y98063D1*
Y97298D1*
X26528Y89064D2*
Y88517D1*
X26550Y88408D1*
X26594Y88335D1*
X26660Y88298D1*
X26703D1*
X26769Y88335D1*
X26813Y88408D1*
X26835Y88517D1*
Y89064D1*
X26976Y88917D2*
X27020Y88954D1*
X27086Y89063D1*
Y88298D1*
X27249Y88881D2*
Y88917D1*
X27271Y88990D1*
X27292Y89027D1*
X27336Y89063D1*
X27424D1*
X27467Y89027D1*
X27489Y88990D1*
X27511Y88917D1*
Y88845D1*
X27489Y88771D1*
X27446Y88663D1*
X27227Y88298D1*
X27533D1*
X26528Y80064D2*
Y79517D1*
X26550Y79408D1*
X26594Y79335D1*
X26660Y79298D1*
X26703D1*
X26769Y79335D1*
X26813Y79408D1*
X26835Y79517D1*
Y80064D1*
X26976Y79917D2*
X27020Y79954D1*
X27086Y80063D1*
Y79298D1*
X27271Y80063D2*
X27511D1*
X27380Y79771D1*
X27446D1*
X27489Y79735D1*
X27511Y79699D1*
X27533Y79589D1*
Y79517D1*
X27511Y79408D1*
X27467Y79334D1*
X27402Y79298D1*
X27336D1*
X27271Y79334D1*
X27249Y79371D1*
X27227Y79444D1*
X20952Y85845D2*
Y85299D1*
X20974Y85189D1*
X21018Y85117D1*
X21083Y85080D1*
X21127D1*
X21192Y85117D1*
X21236Y85189D1*
X21258Y85299D1*
Y85845D1*
X21399Y85699D2*
X21443Y85736D1*
X21509Y85845D1*
Y85080D1*
X21869D2*
Y85845D1*
X21650Y85335D1*
X21978D1*
X26064Y116134D2*
X26042Y116206D1*
X25998Y116280D1*
X25955Y116316D1*
X25867D1*
X25823Y116280D1*
X25780Y116206D1*
X25758Y116134D1*
X25736Y116024D1*
Y115842D1*
X25758Y115733D1*
X25780Y115660D1*
X25823Y115587D1*
X25867Y115550D1*
X25955D1*
X25998Y115587D1*
X26042Y115660D1*
X26064Y115733D1*
X26249Y116315D2*
X26489D1*
X26358Y116024D1*
X26424D1*
X26467Y115987D1*
X26489Y115951D1*
X26511Y115842D1*
Y115769D1*
X26489Y115660D1*
X26446Y115586D1*
X26380Y115550D1*
X26314D1*
X26249Y115586D1*
X26227Y115623D1*
X26205Y115696D1*
X33113Y116811D2*
X33309D1*
X33375Y116848D1*
X33397Y116884D1*
X33419Y116956D1*
Y117030D1*
X33397Y117102D1*
X33375Y117139D1*
X33309Y117175D1*
X33113D1*
Y116410D1*
X33266Y116811D2*
X33419Y116410D1*
X33560Y117029D2*
X33604Y117066D1*
X33670Y117174D1*
Y116410D1*
X30428Y117500D2*
X30625D1*
X30691Y117537D1*
X30713Y117573D1*
X30735Y117645D1*
Y117719D1*
X30713Y117791D1*
X30691Y117828D1*
X30625Y117864D1*
X30428D1*
Y117099D1*
X30581Y117500D2*
X30735Y117099D1*
X30898Y117682D2*
Y117718D1*
X30920Y117791D1*
X30941Y117827D1*
X30985Y117864D1*
X31073D1*
X31116Y117827D1*
X31138Y117791D1*
X31160Y117718D1*
Y117645D1*
X31138Y117572D1*
X31095Y117464D1*
X30876Y117099D1*
X31182D1*
X31636Y119200D2*
X31614Y119272D1*
X31570Y119346D1*
X31527Y119382D1*
X31439D1*
X31395Y119346D1*
X31352Y119272D1*
X31330Y119200D1*
X31308Y119090D1*
Y118908D1*
X31330Y118799D1*
X31352Y118726D1*
X31395Y118653D1*
X31439Y118616D1*
X31527D1*
X31570Y118653D1*
X31614Y118726D1*
X31636Y118799D1*
X31996Y118616D2*
Y119381D1*
X31777Y118871D1*
X32105D1*
X29124Y116823D2*
X29102Y116896D1*
X29058Y116969D1*
X29015Y117005D1*
X28927D1*
X28883Y116969D1*
X28840Y116896D1*
X28818Y116823D1*
X28796Y116714D1*
Y116531D1*
X28818Y116422D1*
X28840Y116349D1*
X28883Y116276D1*
X28927Y116239D1*
X29015D1*
X29058Y116276D1*
X29102Y116349D1*
X29124Y116422D1*
X29527Y117004D2*
X29309D1*
X29287Y116677D1*
X29309Y116713D1*
X29375Y116750D1*
X29440D1*
X29506Y116713D1*
X29550Y116640D1*
X29571Y116531D1*
Y116458D1*
X29550Y116349D1*
X29506Y116276D1*
X29440Y116239D1*
X29375D1*
X29309Y116276D1*
X29287Y116313D1*
X29265Y116385D1*
X30338Y118045D2*
X30265Y118024D1*
X30192Y117980D1*
X30156Y117936D1*
Y117849D1*
X30192Y117805D1*
X30265Y117761D1*
X30338Y117739D1*
X30447Y117717D1*
X30630D1*
X30739Y117739D1*
X30812Y117761D1*
X30884Y117805D1*
X30921Y117849D1*
Y117936D1*
X30884Y117980D1*
X30812Y118024D1*
X30739Y118045D1*
X30265Y118449D2*
X30193Y118427D1*
X30157Y118361D1*
Y118318D1*
X30193Y118252D1*
X30302Y118208D1*
X30484Y118187D1*
X30666D1*
X30812Y118208D1*
X30885Y118252D1*
X30921Y118318D1*
Y118340D1*
X30885Y118405D1*
X30812Y118449D1*
X30702Y118471D1*
X30666D1*
X30557Y118449D1*
X30484Y118405D1*
X30448Y118340D1*
Y118318D1*
X30484Y118252D1*
X30557Y118208D1*
X30666Y118187D1*
X30844Y117115D2*
X30822Y117187D1*
X30778Y117260D1*
X30735Y117296D1*
X30647D1*
X30603Y117260D1*
X30560Y117187D1*
X30538Y117115D1*
X30516Y117005D1*
Y116822D1*
X30538Y116714D1*
X30560Y116640D1*
X30603Y116568D1*
X30647Y116531D1*
X30735D1*
X30778Y116568D1*
X30822Y116640D1*
X30844Y116714D1*
X31073Y116531D2*
X31291Y117296D1*
X30985D1*
X29610Y118776D2*
Y118230D1*
X29631Y118120D1*
X29675Y118048D1*
X29741Y118011D1*
X29785D1*
X29850Y118048D1*
X29894Y118120D1*
X29916Y118230D1*
Y118776D1*
X30057Y118630D2*
X30101Y118667D1*
X30167Y118775D1*
Y118011D1*
X30395D2*
X30614Y118775D1*
X30308D1*
X31269Y85278D2*
Y84731D1*
X31291Y84621D1*
X31335Y84549D1*
X31401Y84512D1*
X31444D1*
X31510Y84549D1*
X31554Y84621D1*
X31576Y84731D1*
Y85278D1*
X31717Y85131D2*
X31761Y85168D1*
X31826Y85277D1*
Y84512D1*
X32077Y85277D2*
X32012Y85240D1*
X31989Y85168D1*
Y85095D1*
X32012Y85022D1*
X32055Y84985D1*
X32142Y84949D1*
X32208Y84913D1*
X32252Y84840D1*
X32273Y84767D1*
Y84658D1*
X32252Y84585D1*
X32230Y84548D1*
X32164Y84512D1*
X32077D1*
X32012Y84548D1*
X31989Y84585D1*
X31968Y84658D1*
Y84767D1*
X31989Y84840D1*
X32033Y84913D1*
X32098Y84949D1*
X32186Y84985D1*
X32230Y85022D1*
X32252Y85095D1*
Y85168D1*
X32230Y85240D1*
X32164Y85277D1*
X32077D1*
X62030Y102778D2*
Y102232D1*
X62052Y102122D1*
X62096Y102050D1*
X62162Y102013D1*
X62205D1*
X62271Y102050D1*
X62315Y102122D1*
X62337Y102232D1*
Y102778D1*
X62478Y102632D2*
X62522Y102669D1*
X62587Y102778D1*
Y102013D1*
X52109Y97694D2*
Y97147D1*
X52131Y97038D1*
X52175Y96965D1*
X52241Y96928D1*
X52284D1*
X52350Y96965D1*
X52394Y97038D1*
X52415Y97147D1*
Y97694D1*
X52579Y97511D2*
Y97547D1*
X52601Y97621D1*
X52622Y97657D1*
X52666Y97693D1*
X52754D1*
X52797Y97657D1*
X52819Y97621D1*
X52841Y97547D1*
Y97475D1*
X52819Y97402D1*
X52775Y97293D1*
X52557Y96928D1*
X52863D1*
X60661Y106314D2*
Y105731D1*
X60640Y105621D1*
X60617Y105585D1*
X60574Y105548D1*
X60530D1*
X60486Y105585D1*
X60465Y105621D1*
X60442Y105731D1*
Y105803D1*
X60802Y106167D2*
X60846Y106204D1*
X60912Y106313D1*
Y105548D1*
X68211Y103598D2*
Y103052D1*
X68233Y102942D1*
X68277Y102870D1*
X68343Y102833D1*
X68386D1*
X68452Y102870D1*
X68496Y102942D1*
X68518Y103052D1*
Y103598D1*
X68703Y103597D2*
X68943D1*
X68812Y103306D1*
X68878D1*
X68921Y103270D1*
X68943Y103233D1*
X68965Y103124D1*
Y103052D1*
X68943Y102942D1*
X68899Y102869D1*
X68834Y102833D1*
X68768D1*
X68703Y102869D1*
X68681Y102906D1*
X68659Y102978D1*
X50532Y96411D2*
X50510Y96483D1*
X50466Y96557D1*
X50423Y96593D1*
X50335D1*
X50291Y96557D1*
X50248Y96483D1*
X50225Y96411D1*
X50204Y96302D1*
Y96119D1*
X50225Y96010D1*
X50248Y95937D1*
X50291Y95864D1*
X50335Y95827D1*
X50423D1*
X50466Y95864D1*
X50510Y95937D1*
X50532Y96010D1*
X50673Y96446D2*
X50717Y96483D1*
X50783Y96592D1*
Y95827D1*
X52895Y99834D2*
X52874Y99906D1*
X52830Y99980D1*
X52786Y100016D1*
X52699D1*
X52655Y99980D1*
X52611Y99906D1*
X52589Y99834D1*
X52567Y99724D1*
Y99542D1*
X52589Y99433D1*
X52611Y99360D1*
X52655Y99287D1*
X52699Y99250D1*
X52786D1*
X52830Y99287D1*
X52874Y99360D1*
X52895Y99433D1*
X53059Y99833D2*
Y99869D1*
X53081Y99943D1*
X53102Y99979D1*
X53146Y100015D1*
X53234D1*
X53277Y99979D1*
X53299Y99943D1*
X53321Y99869D1*
Y99797D1*
X53299Y99724D1*
X53255Y99615D1*
X53037Y99250D1*
X53343D1*
X51627Y101229D2*
Y100463D1*
X51889D1*
X52030Y101082D2*
X52074Y101119D1*
X52140Y101228D1*
Y100463D1*
X64742Y95811D2*
Y95265D1*
X64764Y95155D1*
X64808Y95083D1*
X64874Y95046D1*
X64917D1*
X64983Y95083D1*
X65027Y95155D1*
X65049Y95265D1*
Y95811D1*
X65409Y95046D2*
Y95811D1*
X65190Y95301D1*
X65518D1*
X56340Y91389D2*
Y90843D1*
X56361Y90733D1*
X56405Y90661D1*
X56471Y90624D1*
X56515D1*
X56580Y90661D1*
X56624Y90733D1*
X56646Y90843D1*
Y91389D1*
X57049Y91388D2*
X56831D1*
X56809Y91061D1*
X56831Y91097D1*
X56897Y91134D1*
X56962D1*
X57028Y91097D1*
X57072Y91024D1*
X57093Y90915D1*
Y90843D1*
X57072Y90733D1*
X57028Y90660D1*
X56962Y90624D1*
X56897D1*
X56831Y90660D1*
X56809Y90697D1*
X56787Y90769D1*
X47482Y95811D2*
Y95265D1*
X47503Y95155D1*
X47547Y95083D1*
X47613Y95046D1*
X47657D1*
X47722Y95083D1*
X47766Y95155D1*
X47788Y95265D1*
Y95811D1*
X48191Y95702D2*
X48170Y95774D1*
X48104Y95811D1*
X48060D1*
X47995Y95774D1*
X47951Y95665D1*
X47929Y95483D1*
Y95301D1*
X47951Y95155D1*
X47995Y95082D1*
X48060Y95046D1*
X48082D1*
X48147Y95082D1*
X48191Y95155D1*
X48213Y95265D1*
Y95301D1*
X48191Y95411D1*
X48147Y95483D1*
X48082Y95519D1*
X48060D1*
X47995Y95483D1*
X47951Y95411D1*
X47929Y95301D1*
X44468Y103598D2*
Y103052D1*
X44490Y102942D1*
X44534Y102870D1*
X44599Y102833D1*
X44643D1*
X44709Y102870D1*
X44752Y102942D1*
X44774Y103052D1*
Y103598D1*
X45003Y102833D2*
X45222Y103597D1*
X44915D1*
X47219Y112017D2*
Y111471D1*
X47241Y111361D1*
X47285Y111289D1*
X47350Y111252D1*
X47394D1*
X47460Y111289D1*
X47504Y111361D1*
X47525Y111471D1*
Y112017D1*
X47776D2*
X47710Y111980D1*
X47688Y111908D1*
Y111835D1*
X47710Y111762D1*
X47754Y111725D1*
X47841Y111689D1*
X47907Y111653D1*
X47950Y111579D1*
X47972Y111507D1*
Y111397D1*
X47950Y111325D1*
X47929Y111288D1*
X47863Y111252D1*
X47776D1*
X47710Y111288D1*
X47688Y111325D1*
X47666Y111397D1*
Y111507D1*
X47688Y111579D1*
X47732Y111653D1*
X47797Y111689D1*
X47885Y111725D1*
X47929Y111762D1*
X47950Y111835D1*
Y111908D1*
X47929Y111980D1*
X47863Y112017D1*
X47776D1*
X56351Y115132D2*
Y114586D1*
X56372Y114476D1*
X56416Y114404D1*
X56482Y114367D1*
X56525D1*
X56591Y114404D1*
X56635Y114476D1*
X56657Y114586D1*
Y115132D1*
X57083Y114877D2*
X57060Y114767D1*
X57017Y114694D1*
X56951Y114658D1*
X56929D1*
X56864Y114694D1*
X56820Y114767D1*
X56798Y114877D1*
Y114913D1*
X56820Y115023D1*
X56864Y115095D1*
X56929Y115131D1*
X56951D1*
X57017Y115095D1*
X57060Y115023D1*
X57083Y114877D1*
Y114694D1*
X57060Y114512D1*
X57017Y114403D1*
X56951Y114367D1*
X56908D1*
X56842Y114403D1*
X56820Y114476D1*
X64376Y112521D2*
Y111974D1*
X64398Y111865D1*
X64442Y111792D1*
X64507Y111755D1*
X64551D1*
X64617Y111792D1*
X64661Y111865D1*
X64682Y111974D1*
Y112521D1*
X64823Y112374D2*
X64867Y112411D1*
X64933Y112520D1*
Y111755D1*
X65206Y112520D2*
X65140Y112484D1*
X65096Y112374D1*
X65074Y112192D1*
Y112083D1*
X65096Y111901D1*
X65140Y111792D1*
X65206Y111755D1*
X65249D1*
X65315Y111792D1*
X65358Y111901D1*
X65381Y112083D1*
Y112192D1*
X65358Y112374D1*
X65315Y112484D1*
X65249Y112520D1*
X65206D1*
X65358Y112374D2*
X65096Y111901D1*
X56183Y96322D2*
Y95776D1*
X56205Y95666D1*
X56249Y95594D1*
X56314Y95557D1*
X56358D1*
X56423Y95594D1*
X56467Y95666D1*
X56489Y95776D1*
Y96322D1*
X56630Y96176D2*
X56674Y96213D1*
X56740Y96321D1*
Y95557D1*
X57143Y96321D2*
X56925D1*
X56903Y95994D1*
X56925Y96030D1*
X56991Y96067D1*
X57056D1*
X57122Y96030D1*
X57166Y95957D1*
X57187Y95848D1*
Y95776D1*
X57166Y95666D1*
X57122Y95593D1*
X57056Y95557D1*
X56991D1*
X56925Y95593D1*
X56903Y95630D1*
X56881Y95702D1*
X72916Y117665D2*
Y117118D1*
X72937Y117009D1*
X72981Y116936D1*
X73047Y116899D1*
X73090D1*
X73156Y116936D1*
X73200Y117009D1*
X73222Y117118D1*
Y117665D1*
X73363Y117518D2*
X73407Y117556D1*
X73473Y117664D1*
Y116899D1*
X73614Y117518D2*
X73658Y117556D1*
X73724Y117664D1*
Y116899D1*
X76852Y124746D2*
Y124199D1*
X76874Y124090D1*
X76918Y124017D1*
X76984Y123980D1*
X77027D1*
X77093Y124017D1*
X77137Y124090D1*
X77159Y124199D1*
Y124746D1*
X77300Y124599D2*
X77344Y124636D1*
X77409Y124745D1*
Y123980D1*
X77573Y124563D2*
Y124599D1*
X77595Y124672D1*
X77616Y124709D1*
X77660Y124745D1*
X77748D1*
X77791Y124709D1*
X77813Y124672D1*
X77835Y124599D1*
Y124527D1*
X77813Y124453D1*
X77769Y124345D1*
X77551Y123980D1*
X77857D1*
X72284Y123875D2*
Y123328D1*
X72306Y123218D1*
X72350Y123146D1*
X72416Y123109D1*
X72459D1*
X72525Y123146D1*
X72569Y123218D1*
X72591Y123328D1*
Y123875D1*
X72732Y123728D2*
X72776Y123765D1*
X72841Y123874D1*
Y123109D1*
X73027Y123874D2*
X73267D1*
X73136Y123582D1*
X73201D1*
X73245Y123546D1*
X73267Y123510D1*
X73289Y123400D1*
Y123328D1*
X73267Y123218D1*
X73223Y123145D1*
X73157Y123109D1*
X73092D1*
X73027Y123145D1*
X73005Y123182D1*
X72983Y123255D1*
X78191Y115246D2*
Y114700D1*
X78212Y114590D1*
X78256Y114518D1*
X78322Y114481D1*
X78366D1*
X78431Y114518D1*
X78475Y114590D1*
X78497Y114700D1*
Y115246D1*
X78638Y115100D2*
X78682Y115137D1*
X78748Y115245D1*
Y114481D1*
X79108D2*
Y115245D1*
X78889Y114736D1*
X79217D1*
X53659Y106858D2*
X53856D1*
X53921Y106895D1*
X53944Y106932D1*
X53965Y107004D1*
Y107077D1*
X53944Y107150D1*
X53921Y107187D1*
X53856Y107223D1*
X53659D1*
Y106457D1*
X53812Y106858D2*
X53965Y106457D1*
X54107Y107076D2*
X54151Y107114D1*
X54216Y107222D1*
Y106457D1*
X53203Y106152D2*
X53399D1*
X53465Y106189D1*
X53487Y106225D1*
X53509Y106298D1*
Y106371D1*
X53487Y106443D1*
X53465Y106480D1*
X53399Y106517D1*
X53203D1*
Y105751D1*
X53356Y106152D2*
X53509Y105751D1*
X53672Y106334D2*
Y106370D1*
X53694Y106443D1*
X53716Y106480D1*
X53760Y106516D1*
X53847D1*
X53891Y106480D1*
X53913Y106443D1*
X53935Y106370D1*
Y106298D1*
X53913Y106224D1*
X53869Y106116D1*
X53650Y105751D1*
X53957D1*
X51238Y104046D2*
X51216Y104118D1*
X51172Y104191D1*
X51128Y104227D1*
X51041D1*
X50997Y104191D1*
X50954Y104118D1*
X50931Y104046D1*
X50910Y103936D1*
Y103753D1*
X50931Y103645D1*
X50954Y103571D1*
X50997Y103499D1*
X51041Y103462D1*
X51128D1*
X51172Y103499D1*
X51216Y103571D1*
X51238Y103645D1*
X51598Y103462D2*
Y104227D1*
X51379Y103717D1*
X51707D1*
X55273Y103773D2*
X55252Y103845D1*
X55208Y103919D1*
X55164Y103955D1*
X55077D1*
X55033Y103919D1*
X54989Y103845D1*
X54967Y103773D1*
X54945Y103663D1*
Y103481D1*
X54967Y103372D1*
X54989Y103299D1*
X55033Y103226D1*
X55077Y103189D1*
X55164D1*
X55208Y103226D1*
X55252Y103299D1*
X55273Y103372D1*
X55677Y103954D2*
X55459D1*
X55437Y103626D1*
X55459Y103663D1*
X55524Y103700D1*
X55590D1*
X55655Y103663D1*
X55699Y103590D1*
X55721Y103481D1*
Y103408D1*
X55699Y103299D1*
X55655Y103225D1*
X55590Y103189D1*
X55524D1*
X55459Y103225D1*
X55437Y103262D1*
X55415Y103335D1*
X54873Y101555D2*
X54801Y101533D1*
X54728Y101489D1*
X54691Y101446D1*
Y101358D1*
X54728Y101314D1*
X54801Y101271D1*
X54873Y101249D1*
X54983Y101227D1*
X55166D1*
X55274Y101249D1*
X55347Y101271D1*
X55420Y101314D1*
X55457Y101358D1*
Y101446D1*
X55420Y101489D1*
X55347Y101533D1*
X55274Y101555D1*
X54801Y101959D2*
X54728Y101937D1*
X54692Y101871D1*
Y101828D1*
X54728Y101762D1*
X54838Y101718D1*
X55020Y101696D1*
X55202D1*
X55347Y101718D1*
X55421Y101762D1*
X55457Y101828D1*
Y101849D1*
X55421Y101915D1*
X55347Y101959D1*
X55238Y101980D1*
X55202D1*
X55092Y101959D1*
X55020Y101915D1*
X54984Y101849D1*
Y101828D1*
X55020Y101762D1*
X55092Y101718D1*
X55202Y101696D1*
X56078Y102589D2*
X56057Y102662D1*
X56013Y102735D1*
X55969Y102771D1*
X55882D1*
X55838Y102735D1*
X55794Y102662D1*
X55772Y102589D1*
X55750Y102480D1*
Y102297D1*
X55772Y102189D1*
X55794Y102115D1*
X55838Y102043D1*
X55882Y102006D1*
X55969D1*
X56013Y102043D1*
X56057Y102115D1*
X56078Y102189D1*
X56307Y102006D2*
X56526Y102771D1*
X56220D1*
X50511Y105277D2*
Y104730D1*
X50532Y104621D1*
X50576Y104548D1*
X50642Y104511D1*
X50685D1*
X50751Y104548D1*
X50795Y104621D1*
X50817Y104730D1*
Y105277D1*
X50958Y105131D2*
X51002Y105168D1*
X51068Y105276D1*
Y104511D1*
X51471Y105168D2*
X51449Y105240D1*
X51384Y105276D1*
X51340D1*
X51275Y105240D1*
X51231Y105131D1*
X51209Y104949D1*
Y104767D1*
X51231Y104621D1*
X51275Y104548D1*
X51340Y104511D1*
X51362D1*
X51427Y104548D1*
X51471Y104621D1*
X51493Y104730D1*
Y104767D1*
X51471Y104876D1*
X51427Y104949D1*
X51362Y104985D1*
X51340D1*
X51275Y104949D1*
X51231Y104876D1*
X51209Y104767D1*
X56166Y100916D2*
X56144Y100988D1*
X56100Y101061D1*
X56057Y101098D1*
X55970D1*
X55926Y101061D1*
X55882Y100988D1*
X55860Y100916D1*
X55838Y100806D1*
Y100623D1*
X55860Y100515D1*
X55882Y100441D1*
X55926Y100369D1*
X55970Y100332D1*
X56057D1*
X56100Y100369D1*
X56144Y100441D1*
X56166Y100515D1*
X56351Y101097D2*
X56591D1*
X56460Y100805D1*
X56526D1*
X56570Y100769D1*
X56591Y100733D1*
X56614Y100623D1*
Y100551D1*
X56591Y100441D1*
X56548Y100368D1*
X56482Y100332D1*
X56416D1*
X56351Y100368D1*
X56330Y100405D1*
X56307Y100478D1*
X77725Y35838D2*
Y35291D1*
X77747Y35182D1*
X77791Y35109D1*
X77857Y35072D1*
X77900D1*
X77966Y35109D1*
X78010Y35182D1*
X78031Y35291D1*
Y35838D1*
X78173Y35691D2*
X78217Y35728D1*
X78282Y35837D1*
Y35072D1*
X82446Y76942D2*
Y76395D1*
X82468Y76286D1*
X82512Y76213D1*
X82578Y76176D1*
X82621D1*
X82687Y76213D1*
X82731Y76286D1*
X82753Y76395D1*
Y76942D1*
X82916Y76759D2*
Y76795D1*
X82938Y76869D1*
X82960Y76905D1*
X83004Y76941D1*
X83091D1*
X83134Y76905D1*
X83156Y76869D1*
X83178Y76795D1*
Y76723D1*
X83156Y76650D1*
X83113Y76541D1*
X82894Y76176D1*
X83200D1*
X79863Y29791D2*
Y29208D1*
X79842Y29099D1*
X79819Y29062D1*
X79776Y29025D1*
X79732D1*
X79688Y29062D1*
X79667Y29099D1*
X79644Y29208D1*
Y29281D1*
X80004Y29644D2*
X80048Y29682D1*
X80114Y29790D1*
Y29025D1*
X77214Y44538D2*
Y43991D1*
X77236Y43882D1*
X77280Y43809D1*
X77346Y43772D1*
X77389D1*
X77455Y43809D1*
X77499Y43882D1*
X77521Y43991D1*
Y44538D1*
X77706Y44537D2*
X77946D1*
X77815Y44245D1*
X77881D1*
X77924Y44209D1*
X77946Y44173D1*
X77968Y44063D1*
Y43991D1*
X77946Y43882D1*
X77902Y43808D1*
X77837Y43772D1*
X77771D1*
X77706Y43808D1*
X77684Y43845D1*
X77662Y43918D1*
X80404Y80729D2*
X80382Y80801D1*
X80338Y80875D1*
X80295Y80911D1*
X80207D1*
X80163Y80875D1*
X80120Y80801D1*
X80098Y80729D1*
X80076Y80620D1*
Y80437D1*
X80098Y80328D1*
X80120Y80255D1*
X80163Y80182D1*
X80207Y80145D1*
X80295D1*
X80338Y80182D1*
X80382Y80255D1*
X80404Y80328D1*
X80545Y80764D2*
X80589Y80801D1*
X80655Y80910D1*
Y80145D1*
X77844Y80154D2*
X77822Y80226D1*
X77778Y80299D1*
X77735Y80336D1*
X77647D1*
X77603Y80299D1*
X77560Y80226D1*
X77538Y80154D1*
X77516Y80044D1*
Y79861D1*
X77538Y79753D1*
X77560Y79679D1*
X77603Y79607D1*
X77647Y79570D1*
X77735D1*
X77778Y79607D1*
X77822Y79679D1*
X77844Y79753D1*
X78007Y80153D2*
Y80189D1*
X78029Y80262D1*
X78051Y80298D1*
X78095Y80335D1*
X78182D1*
X78226Y80298D1*
X78247Y80262D1*
X78269Y80189D1*
Y80117D1*
X78247Y80043D1*
X78204Y79935D1*
X77985Y79570D1*
X78291D1*
X82548Y74160D2*
Y73394D1*
X82811D1*
X82952Y74013D2*
X82996Y74050D1*
X83062Y74159D1*
Y73394D1*
X77203Y53538D2*
Y52991D1*
X77225Y52882D1*
X77269Y52809D1*
X77335Y52772D1*
X77378D1*
X77444Y52809D1*
X77488Y52882D1*
X77510Y52991D1*
Y53538D1*
X77870Y52772D2*
Y53537D1*
X77651Y53027D1*
X77979D1*
X77214Y62538D2*
Y61991D1*
X77236Y61882D1*
X77280Y61809D1*
X77346Y61772D1*
X77389D1*
X77455Y61809D1*
X77499Y61882D1*
X77521Y61991D1*
Y62538D1*
X77924Y62537D2*
X77706D1*
X77684Y62209D1*
X77706Y62245D1*
X77771Y62282D1*
X77837D1*
X77902Y62245D1*
X77946Y62173D1*
X77968Y62063D1*
Y61991D1*
X77946Y61882D1*
X77902Y61808D1*
X77837Y61772D1*
X77771D1*
X77706Y61808D1*
X77684Y61845D1*
X77662Y61918D1*
X77225Y71538D2*
Y70991D1*
X77247Y70882D1*
X77291Y70809D1*
X77357Y70772D1*
X77400D1*
X77466Y70809D1*
X77510Y70882D1*
X77532Y70991D1*
Y71538D1*
X77935Y71428D2*
X77913Y71501D1*
X77848Y71537D1*
X77804D1*
X77739Y71501D1*
X77695Y71391D1*
X77673Y71209D1*
Y71027D1*
X77695Y70882D1*
X77739Y70808D1*
X77804Y70772D1*
X77826D1*
X77891Y70808D1*
X77935Y70882D1*
X77957Y70991D1*
Y71027D1*
X77935Y71137D1*
X77891Y71209D1*
X77826Y71245D1*
X77804D1*
X77739Y71209D1*
X77695Y71137D1*
X77673Y71027D1*
X68627Y79788D2*
Y79241D1*
X68649Y79132D1*
X68693Y79059D1*
X68758Y79022D1*
X68802D1*
X68867Y79059D1*
X68911Y79132D1*
X68933Y79241D1*
Y79788D1*
X69162Y79022D2*
X69381Y79787D1*
X69074D1*
X59627Y79788D2*
Y79241D1*
X59649Y79132D1*
X59693Y79059D1*
X59758Y79022D1*
X59802D1*
X59868Y79059D1*
X59912Y79132D1*
X59933Y79241D1*
Y79788D1*
X60184Y79787D2*
X60118Y79751D1*
X60096Y79678D1*
Y79605D1*
X60118Y79532D1*
X60162Y79495D1*
X60249Y79459D1*
X60315Y79423D1*
X60359Y79350D1*
X60380Y79277D1*
Y79168D1*
X60359Y79095D1*
X60337Y79058D1*
X60271Y79022D1*
X60184D1*
X60118Y79058D1*
X60096Y79095D1*
X60075Y79168D1*
Y79277D1*
X60096Y79350D1*
X60140Y79423D1*
X60205Y79459D1*
X60293Y79495D1*
X60337Y79532D1*
X60359Y79605D1*
Y79678D1*
X60337Y79751D1*
X60271Y79787D1*
X60184D1*
X77225Y89538D2*
Y88991D1*
X77247Y88882D1*
X77291Y88809D1*
X77357Y88772D1*
X77400D1*
X77466Y88809D1*
X77510Y88882D1*
X77531Y88991D1*
Y89538D1*
X77957Y89282D2*
X77935Y89173D1*
X77891Y89100D1*
X77826Y89063D1*
X77804D1*
X77738Y89100D1*
X77695Y89173D1*
X77673Y89282D1*
Y89319D1*
X77695Y89428D1*
X77738Y89501D1*
X77804Y89537D1*
X77826D1*
X77891Y89501D1*
X77935Y89428D1*
X77957Y89282D1*
Y89100D1*
X77935Y88918D1*
X77891Y88808D1*
X77826Y88772D1*
X77782D1*
X77717Y88808D1*
X77695Y88882D1*
X77089Y98538D2*
Y97991D1*
X77111Y97882D1*
X77155Y97809D1*
X77220Y97772D1*
X77264D1*
X77329Y97809D1*
X77373Y97882D1*
X77395Y97991D1*
Y98538D1*
X77536Y98391D2*
X77580Y98428D1*
X77646Y98537D1*
Y97772D1*
X77919Y98537D2*
X77853Y98501D1*
X77809Y98391D1*
X77787Y98209D1*
Y98100D1*
X77809Y97918D1*
X77853Y97808D1*
X77919Y97772D1*
X77962D1*
X78028Y97808D1*
X78071Y97918D1*
X78093Y98100D1*
Y98209D1*
X78071Y98391D1*
X78028Y98501D1*
X77962Y98537D1*
X77919D1*
X78071Y98391D2*
X77809Y97918D1*
X86600Y79766D2*
Y79219D1*
X86621Y79110D1*
X86665Y79037D1*
X86731Y79000D1*
X86775D1*
X86840Y79037D1*
X86884Y79110D1*
X86906Y79219D1*
Y79766D1*
X87047Y79619D2*
X87091Y79656D1*
X87157Y79765D1*
Y79000D1*
X87298Y79619D2*
X87342Y79656D1*
X87408Y79765D1*
Y79000D1*
X95564Y79861D2*
Y79314D1*
X95586Y79205D1*
X95630Y79132D1*
X95695Y79095D1*
X95739D1*
X95805Y79132D1*
X95849Y79205D1*
X95870Y79314D1*
Y79861D1*
X96011Y79714D2*
X96055Y79751D1*
X96121Y79860D1*
Y79095D1*
X96285Y79678D2*
Y79714D1*
X96306Y79788D1*
X96328Y79824D1*
X96372Y79860D1*
X96459D1*
X96503Y79824D1*
X96525Y79788D1*
X96547Y79714D1*
Y79642D1*
X96525Y79569D1*
X96481Y79460D1*
X96262Y79095D1*
X96569D1*
X75460Y72748D2*
X75657D1*
X75722Y72785D1*
X75745Y72821D1*
X75766Y72894D1*
Y72967D1*
X75745Y73040D1*
X75722Y73077D1*
X75657Y73113D1*
X75460D1*
Y72347D1*
X75613Y72748D2*
X75766Y72347D1*
X75907Y72966D2*
X75951Y73003D1*
X76017Y73112D1*
Y72347D1*
X73366Y75342D2*
X73562D1*
X73628Y75379D1*
X73650Y75415D1*
X73672Y75488D1*
Y75561D1*
X73650Y75633D1*
X73628Y75670D1*
X73562Y75707D1*
X73366D1*
Y74941D1*
X73519Y75342D2*
X73672Y74941D1*
X73836Y75524D2*
Y75560D1*
X73857Y75633D1*
X73879Y75670D1*
X73923Y75706D1*
X74010D1*
X74054Y75670D1*
X74076Y75633D1*
X74098Y75560D1*
Y75488D1*
X74076Y75414D1*
X74032Y75306D1*
X73813Y74941D1*
X74120D1*
X77342Y75692D2*
X77321Y75765D1*
X77277Y75838D1*
X77233Y75874D1*
X77146D1*
X77102Y75838D1*
X77058Y75765D1*
X77036Y75692D1*
X77014Y75583D1*
Y75400D1*
X77036Y75291D1*
X77058Y75218D1*
X77102Y75146D1*
X77146Y75109D1*
X77233D1*
X77277Y75146D1*
X77321Y75218D1*
X77342Y75291D1*
X77702Y75109D2*
Y75873D1*
X77484Y75364D1*
X77812D1*
X73050Y78414D2*
X73028Y78486D1*
X72984Y78559D1*
X72941Y78596D1*
X72853D1*
X72809Y78559D1*
X72766Y78486D1*
X72744Y78414D1*
X72722Y78304D1*
Y78121D1*
X72744Y78013D1*
X72766Y77939D1*
X72809Y77867D1*
X72853Y77830D1*
X72941D1*
X72984Y77867D1*
X73028Y77939D1*
X73050Y78013D1*
X73453Y78595D2*
X73235D1*
X73213Y78267D1*
X73235Y78303D1*
X73301Y78340D1*
X73366D1*
X73432Y78303D1*
X73476Y78231D1*
X73497Y78121D1*
Y78049D1*
X73476Y77939D1*
X73432Y77866D1*
X73366Y77830D1*
X73301D1*
X73235Y77866D1*
X73213Y77903D1*
X73191Y77976D1*
X75600Y78427D2*
X75579Y78499D1*
X75535Y78572D1*
X75491Y78609D1*
X75404D1*
X75360Y78572D1*
X75316Y78499D1*
X75294Y78427D1*
X75272Y78317D1*
Y78134D1*
X75294Y78026D1*
X75316Y77952D1*
X75360Y77880D1*
X75404Y77843D1*
X75491D1*
X75535Y77880D1*
X75579Y77952D1*
X75600Y78026D1*
X76004Y78499D2*
X75982Y78571D1*
X75916Y78608D1*
X75873D1*
X75807Y78571D1*
X75763Y78462D1*
X75742Y78280D1*
Y78098D1*
X75763Y77952D1*
X75807Y77879D1*
X75873Y77843D1*
X75895D1*
X75960Y77879D1*
X76004Y77952D1*
X76026Y78062D1*
Y78098D1*
X76004Y78208D1*
X75960Y78280D1*
X75895Y78316D1*
X75873D1*
X75807Y78280D1*
X75763Y78208D1*
X75742Y78098D1*
X74315Y78968D2*
X74293Y79040D1*
X74250Y79114D1*
X74206Y79150D1*
X74119D1*
X74075Y79114D1*
X74031Y79040D1*
X74009Y78968D1*
X73987Y78858D1*
Y78676D1*
X74009Y78567D1*
X74031Y78494D1*
X74075Y78421D1*
X74119Y78384D1*
X74206D1*
X74250Y78421D1*
X74293Y78494D1*
X74315Y78567D1*
X74544Y78384D2*
X74763Y79149D1*
X74456D1*
X75108Y75851D2*
Y75305D1*
X75130Y75195D1*
X75174Y75123D1*
X75239Y75086D1*
X75283D1*
X75349Y75123D1*
X75393Y75195D1*
X75414Y75305D1*
Y75851D1*
X75556Y75705D2*
X75600Y75742D1*
X75665Y75850D1*
Y75086D1*
X75850Y75850D2*
X76090D1*
X75960Y75559D1*
X76025D1*
X76069Y75523D1*
X76090Y75487D1*
X76113Y75377D1*
Y75305D1*
X76090Y75195D1*
X76047Y75122D1*
X75981Y75086D1*
X75916D1*
X75850Y75122D1*
X75829Y75159D1*
X75806Y75231D1*
X79746Y36837D2*
X79724Y36910D1*
X79680Y36983D1*
X79637Y37019D1*
X79550D1*
X79506Y36983D1*
X79462Y36910D1*
X79440Y36837D1*
X79418Y36728D1*
Y36545D1*
X79440Y36436D1*
X79462Y36363D1*
X79506Y36290D1*
X79550Y36253D1*
X79637D1*
X79680Y36290D1*
X79724Y36363D1*
X79746Y36436D1*
X79931Y37018D2*
X80171D1*
X80040Y36727D1*
X80106D1*
X80150Y36691D1*
X80171Y36654D1*
X80194Y36545D1*
Y36472D1*
X80171Y36363D1*
X80128Y36290D1*
X80062Y36253D1*
X79996D1*
X79931Y36290D1*
X79910Y36327D1*
X79887Y36399D1*
X35052Y48215D2*
Y47669D1*
X35073Y47559D1*
X35117Y47487D1*
X35183Y47450D1*
X35226D1*
X35292Y47487D1*
X35336Y47559D1*
X35358Y47669D1*
Y48215D1*
X35499Y48069D2*
X35543Y48106D1*
X35609Y48214D1*
Y47450D1*
X51336Y24917D2*
Y24370D1*
X51357Y24261D1*
X51401Y24188D1*
X51467Y24151D1*
X51511D1*
X51576Y24188D1*
X51620Y24261D1*
X51642Y24370D1*
Y24917D1*
X51805Y24734D2*
Y24771D1*
X51827Y24844D1*
X51849Y24880D1*
X51893Y24916D1*
X51980D1*
X52024Y24880D1*
X52045Y24844D1*
X52068Y24771D1*
Y24698D1*
X52045Y24625D1*
X52002Y24516D1*
X51783Y24151D1*
X52089D1*
X29560Y44770D2*
Y44187D1*
X29538Y44078D1*
X29516Y44041D1*
X29472Y44004D1*
X29428D1*
X29385Y44041D1*
X29363Y44078D1*
X29341Y44187D1*
Y44260D1*
X29701Y44623D2*
X29745Y44660D1*
X29810Y44769D1*
Y44004D1*
X41494Y27450D2*
Y26903D1*
X41516Y26794D1*
X41560Y26722D1*
X41625Y26684D1*
X41669D1*
X41735Y26722D1*
X41779Y26794D1*
X41800Y26903D1*
Y27450D1*
X41985Y27449D2*
X42225D1*
X42095Y27158D1*
X42160D1*
X42204Y27122D1*
X42225Y27085D1*
X42248Y26976D1*
Y26903D1*
X42225Y26794D1*
X42182Y26721D1*
X42116Y26684D1*
X42051D1*
X41985Y26721D1*
X41964Y26758D1*
X41941Y26830D1*
X49293Y28704D2*
X49272Y28777D1*
X49228Y28850D1*
X49184Y28886D1*
X49097D1*
X49053Y28850D1*
X49009Y28777D1*
X48987Y28704D1*
X48965Y28595D1*
Y28412D1*
X48987Y28303D1*
X49009Y28230D1*
X49053Y28158D1*
X49097Y28121D1*
X49184D1*
X49228Y28158D1*
X49272Y28230D1*
X49293Y28303D1*
X49434Y28740D2*
X49478Y28777D1*
X49544Y28885D1*
Y28121D1*
X46733Y27081D2*
X46711Y27154D1*
X46667Y27227D1*
X46624Y27263D1*
X46536D1*
X46492Y27227D1*
X46449Y27154D1*
X46427Y27081D1*
X46405Y26972D1*
Y26789D1*
X46427Y26680D1*
X46449Y26607D1*
X46492Y26535D1*
X46536Y26498D1*
X46624D1*
X46667Y26535D1*
X46711Y26607D1*
X46733Y26680D1*
X46896Y27081D2*
Y27117D1*
X46918Y27190D1*
X46940Y27226D1*
X46984Y27262D1*
X47071D1*
X47115Y27226D1*
X47137Y27190D1*
X47159Y27117D1*
Y27044D1*
X47137Y26971D1*
X47093Y26862D1*
X46874Y26498D1*
X47180D1*
X51438Y22135D2*
Y21369D1*
X51700D1*
X51841Y21988D2*
X51885Y22025D1*
X51951Y22134D1*
Y21369D1*
X41483Y36450D2*
Y35903D1*
X41505Y35794D1*
X41549Y35722D1*
X41615Y35684D1*
X41658D1*
X41724Y35722D1*
X41768Y35794D1*
X41789Y35903D1*
Y36450D1*
X42149Y35684D2*
Y36449D1*
X41931Y35940D1*
X42259D1*
X41494Y45450D2*
Y44903D1*
X41516Y44794D1*
X41560Y44722D1*
X41625Y44684D1*
X41669D1*
X41735Y44722D1*
X41779Y44794D1*
X41800Y44903D1*
Y45450D1*
X42204Y45449D2*
X41985D1*
X41964Y45122D1*
X41985Y45158D1*
X42051Y45195D1*
X42116D1*
X42182Y45158D1*
X42226Y45085D1*
X42248Y44976D1*
Y44903D1*
X42226Y44794D1*
X42182Y44721D1*
X42116Y44684D1*
X42051D1*
X41985Y44721D1*
X41964Y44758D1*
X41941Y44830D1*
X41505Y54438D2*
Y53891D1*
X41527Y53781D1*
X41571Y53709D1*
X41637Y53672D1*
X41680D1*
X41746Y53709D1*
X41790Y53781D1*
X41811Y53891D1*
Y54438D1*
X42215Y54328D2*
X42193Y54401D1*
X42127Y54437D1*
X42084D1*
X42018Y54401D1*
X41974Y54291D1*
X41953Y54109D1*
Y53927D1*
X41974Y53781D1*
X42018Y53708D1*
X42084Y53672D1*
X42106D1*
X42171Y53708D1*
X42215Y53781D1*
X42237Y53891D1*
Y53927D1*
X42215Y54037D1*
X42171Y54109D1*
X42106Y54145D1*
X42084D1*
X42018Y54109D1*
X41974Y54037D1*
X41953Y53927D1*
X41482Y63438D2*
Y62891D1*
X41503Y62781D1*
X41547Y62709D1*
X41613Y62672D1*
X41656D1*
X41722Y62709D1*
X41766Y62781D1*
X41788Y62891D1*
Y63438D1*
X42016Y62672D2*
X42235Y63437D1*
X41929D1*
X34159Y37950D2*
Y37403D1*
X34180Y37294D1*
X34224Y37221D1*
X34290Y37184D1*
X34333D1*
X34399Y37221D1*
X34443Y37294D1*
X34465Y37403D1*
Y37950D1*
X34715Y37949D2*
X34650Y37913D1*
X34628Y37840D1*
Y37767D1*
X34650Y37694D1*
X34693Y37657D1*
X34781Y37621D1*
X34847Y37585D1*
X34890Y37512D1*
X34912Y37439D1*
Y37330D1*
X34890Y37257D1*
X34868Y37220D1*
X34803Y37184D1*
X34715D1*
X34650Y37220D1*
X34628Y37257D1*
X34606Y37330D1*
Y37439D1*
X34628Y37512D1*
X34672Y37585D1*
X34737Y37621D1*
X34824Y37657D1*
X34868Y37694D1*
X34890Y37767D1*
Y37840D1*
X34868Y37913D1*
X34803Y37949D1*
X34715D1*
X28157Y31950D2*
Y31403D1*
X28178Y31294D1*
X28222Y31221D1*
X28288Y31184D1*
X28332D1*
X28397Y31221D1*
X28441Y31294D1*
X28463Y31403D1*
Y31950D1*
X28889Y31694D2*
X28866Y31585D1*
X28823Y31512D1*
X28757Y31475D1*
X28735D1*
X28670Y31512D1*
X28626Y31585D1*
X28604Y31694D1*
Y31731D1*
X28626Y31840D1*
X28670Y31913D1*
X28735Y31949D1*
X28757D1*
X28823Y31913D1*
X28866Y31840D1*
X28889Y31694D1*
Y31512D1*
X28866Y31330D1*
X28823Y31220D1*
X28757Y31184D1*
X28714D1*
X28648Y31220D1*
X28626Y31294D1*
X55775Y32447D2*
Y31900D1*
X55797Y31791D1*
X55841Y31718D1*
X55906Y31681D1*
X55950D1*
X56015Y31718D1*
X56059Y31791D1*
X56081Y31900D1*
Y32447D1*
X56222Y32300D2*
X56266Y32337D1*
X56332Y32446D1*
Y31681D1*
X56605Y32446D2*
X56539Y32410D1*
X56495Y32300D1*
X56473Y32118D1*
Y32009D1*
X56495Y31827D1*
X56539Y31718D1*
X56605Y31681D1*
X56648D1*
X56714Y31718D1*
X56757Y31827D1*
X56779Y32009D1*
Y32118D1*
X56757Y32300D1*
X56714Y32410D1*
X56648Y32446D1*
X56605D1*
X56757Y32300D2*
X56495Y31827D1*
X47411Y48048D2*
Y47502D1*
X47433Y47392D1*
X47477Y47320D1*
X47543Y47283D1*
X47586D1*
X47652Y47320D1*
X47696Y47392D1*
X47718Y47502D1*
Y48048D1*
X47859Y47902D2*
X47903Y47939D1*
X47969Y48047D1*
Y47283D1*
X48372Y48047D2*
X48154D1*
X48132Y47720D1*
X48154Y47756D1*
X48219Y47793D1*
X48285D1*
X48350Y47756D1*
X48394Y47684D1*
X48416Y47574D1*
Y47502D1*
X48394Y47392D1*
X48350Y47319D1*
X48285Y47283D1*
X48219D1*
X48154Y47319D1*
X48132Y47356D1*
X48110Y47428D1*
X35527Y42644D2*
X35505Y42717D1*
X35461Y42790D1*
X35417Y42826D1*
X35330D1*
X35286Y42790D1*
X35243Y42717D1*
X35220Y42644D1*
X35199Y42535D1*
Y42352D1*
X35220Y42243D1*
X35243Y42170D1*
X35286Y42097D1*
X35330Y42060D1*
X35417D1*
X35461Y42097D1*
X35505Y42170D1*
X35527Y42243D1*
X35712Y42825D2*
X35952D1*
X35821Y42534D1*
X35887D1*
X35930Y42498D1*
X35952Y42461D1*
X35974Y42352D1*
Y42279D1*
X35952Y42170D1*
X35908Y42097D1*
X35843Y42060D1*
X35777D1*
X35712Y42097D1*
X35690Y42134D1*
X35668Y42206D1*
X32875Y20024D2*
X33072D1*
X33138Y20061D1*
X33160Y20097D1*
X33182Y20170D1*
Y20243D1*
X33160Y20316D1*
X33138Y20353D1*
X33072Y20389D1*
X32875D1*
Y19623D1*
X33028Y20024D2*
X33182Y19623D1*
X33323Y20242D2*
X33367Y20279D1*
X33432Y20388D1*
Y19623D1*
X33086Y24442D2*
X33283D1*
X33349Y24479D1*
X33371Y24515D1*
X33393Y24587D1*
Y24661D1*
X33371Y24733D1*
X33349Y24770D1*
X33283Y24806D1*
X33086D1*
Y24041D1*
X33239Y24442D2*
X33393Y24041D1*
X33556Y24624D2*
Y24660D1*
X33578Y24733D1*
X33599Y24769D1*
X33643Y24806D1*
X33731D1*
X33774Y24769D1*
X33796Y24733D1*
X33818Y24660D1*
Y24587D1*
X33796Y24514D1*
X33753Y24406D1*
X33534Y24041D1*
X33840D1*
X38100Y22969D2*
X38079Y23041D1*
X38035Y23115D1*
X37991Y23151D1*
X37904D1*
X37860Y23115D1*
X37816Y23041D1*
X37794Y22969D1*
X37772Y22860D1*
Y22677D1*
X37794Y22568D1*
X37816Y22495D1*
X37860Y22422D1*
X37904Y22385D1*
X37991D1*
X38035Y22422D1*
X38079Y22495D1*
X38100Y22568D1*
X38460Y22385D2*
Y23150D1*
X38242Y22641D1*
X38570D1*
X33484Y27140D2*
X33463Y27213D1*
X33419Y27286D1*
X33375Y27322D1*
X33288D1*
X33244Y27286D1*
X33200Y27213D1*
X33178Y27140D1*
X33156Y27031D1*
Y26848D1*
X33178Y26739D1*
X33200Y26666D1*
X33244Y26593D1*
X33288Y26556D1*
X33375D1*
X33419Y26593D1*
X33463Y26666D1*
X33484Y26739D1*
X33888Y27321D2*
X33669D1*
X33648Y26994D1*
X33669Y27030D1*
X33735Y27067D1*
X33800D1*
X33866Y27030D1*
X33910Y26957D1*
X33932Y26848D1*
Y26775D1*
X33910Y26666D1*
X33866Y26593D1*
X33800Y26556D1*
X33735D1*
X33669Y26593D1*
X33648Y26630D1*
X33626Y26702D1*
X38138Y25248D2*
X38066Y25227D1*
X37993Y25183D1*
X37956Y25139D1*
Y25052D1*
X37993Y25008D1*
X38066Y24964D1*
X38138Y24942D1*
X38248Y24920D1*
X38431D1*
X38539Y24942D1*
X38613Y24964D1*
X38685Y25008D1*
X38722Y25052D1*
Y25139D1*
X38685Y25183D1*
X38613Y25227D1*
X38539Y25248D1*
X38066Y25652D2*
X37993Y25630D1*
X37957Y25564D1*
Y25521D1*
X37993Y25455D1*
X38103Y25411D1*
X38285Y25389D1*
X38467D1*
X38613Y25411D1*
X38686Y25455D1*
X38722Y25521D1*
Y25543D1*
X38686Y25608D1*
X38613Y25652D1*
X38503Y25674D1*
X38467D1*
X38357Y25652D1*
X38285Y25608D1*
X38249Y25543D1*
Y25521D1*
X38285Y25455D1*
X38357Y25411D1*
X38467Y25389D1*
X36829Y26666D2*
X36808Y26739D1*
X36764Y26812D1*
X36720Y26848D1*
X36633D1*
X36589Y26812D1*
X36545Y26739D1*
X36523Y26666D1*
X36501Y26557D1*
Y26374D1*
X36523Y26265D1*
X36545Y26192D1*
X36589Y26120D1*
X36633Y26083D1*
X36720D1*
X36764Y26120D1*
X36808Y26192D1*
X36829Y26265D1*
X37058Y26083D2*
X37277Y26847D1*
X36970D1*
X33942Y23258D2*
Y22712D1*
X33964Y22602D1*
X34008Y22530D1*
X34074Y22493D1*
X34117D1*
X34183Y22530D1*
X34227Y22602D1*
X34249Y22712D1*
Y23258D1*
X34390Y23112D2*
X34434Y23149D1*
X34499Y23258D1*
Y22493D1*
X34641Y23112D2*
X34685Y23149D1*
X34750Y23258D1*
Y22493D1*
X49775Y38447D2*
Y37900D1*
X49797Y37791D1*
X49841Y37718D1*
X49906Y37681D1*
X49950D1*
X50015Y37718D1*
X50059Y37791D1*
X50081Y37900D1*
Y38447D1*
X50222Y38300D2*
X50266Y38337D1*
X50332Y38446D1*
Y37681D1*
X50495Y38264D2*
Y38300D1*
X50517Y38374D1*
X50539Y38410D1*
X50583Y38446D1*
X50670D1*
X50714Y38410D1*
X50735Y38374D1*
X50758Y38300D1*
Y38228D1*
X50735Y38155D1*
X50692Y38046D1*
X50473Y37681D1*
X50779D1*
X68369Y45450D2*
Y44903D1*
X68390Y44794D1*
X68434Y44722D1*
X68500Y44684D1*
X68543D1*
X68609Y44722D1*
X68653Y44794D1*
X68675Y44903D1*
Y45450D1*
X68816Y45304D2*
X68860Y45341D1*
X68926Y45449D1*
Y44684D1*
X69111Y45449D2*
X69351D1*
X69220Y45158D1*
X69286D1*
X69329Y45122D1*
X69351Y45085D1*
X69373Y44976D1*
Y44903D1*
X69351Y44794D1*
X69307Y44721D1*
X69242Y44684D1*
X69176D1*
X69111Y44721D1*
X69089Y44758D1*
X69067Y44830D1*
X67307Y54666D2*
Y54119D1*
X67329Y54010D1*
X67373Y53937D1*
X67439Y53900D1*
X67482D1*
X67548Y53937D1*
X67592Y54010D1*
X67613Y54119D1*
Y54666D1*
X67755Y54519D2*
X67799Y54556D1*
X67864Y54665D1*
Y53900D1*
X68224D2*
Y54665D1*
X68005Y54156D1*
X68333D1*
X62510Y62851D2*
Y62304D1*
X62532Y62195D1*
X62576Y62122D1*
X62641Y62085D1*
X62685D1*
X62751Y62122D1*
X62795Y62195D1*
X62816Y62304D1*
Y62851D1*
X62957Y62704D2*
X63001Y62742D1*
X63067Y62850D1*
Y62085D1*
X63471Y62742D2*
X63449Y62814D1*
X63383Y62850D1*
X63340D1*
X63274Y62814D1*
X63230Y62704D1*
X63208Y62523D1*
Y62341D1*
X63230Y62195D1*
X63274Y62122D1*
X63340Y62085D1*
X63361D1*
X63427Y62122D1*
X63471Y62195D1*
X63492Y62304D1*
Y62341D1*
X63471Y62450D1*
X63427Y62523D1*
X63361Y62559D1*
X63340D1*
X63274Y62523D1*
X63230Y62450D1*
X63208Y62341D1*
X61139Y64081D2*
Y63534D1*
X61160Y63425D1*
X61204Y63353D1*
X61270Y63315D1*
X61314D1*
X61379Y63353D1*
X61423Y63425D1*
X61445Y63534D1*
Y64081D1*
X61586Y63935D2*
X61630Y63972D1*
X61696Y64080D1*
Y63315D1*
X61946Y64080D2*
X61881Y64044D1*
X61859Y63972D1*
Y63898D1*
X61881Y63826D1*
X61924Y63789D1*
X62012Y63753D1*
X62078Y63716D1*
X62121Y63643D1*
X62143Y63571D1*
Y63461D1*
X62121Y63389D1*
X62099Y63352D1*
X62034Y63315D1*
X61946D1*
X61881Y63352D1*
X61859Y63389D1*
X61837Y63461D1*
Y63571D1*
X61859Y63643D1*
X61903Y63716D1*
X61968Y63753D1*
X62055Y63789D1*
X62099Y63826D1*
X62121Y63898D1*
Y63972D1*
X62099Y64044D1*
X62034Y64080D1*
X61946D1*
X53009Y69524D2*
Y68977D1*
X53031Y68868D1*
X53075Y68795D1*
X53141Y68758D1*
X53184D1*
X53250Y68795D1*
X53294Y68868D1*
X53316Y68977D1*
Y69524D1*
X53457Y69377D2*
X53501Y69414D1*
X53566Y69523D1*
Y68758D1*
X53992Y69268D2*
X53970Y69159D1*
X53926Y69086D1*
X53861Y69049D1*
X53839D1*
X53773Y69086D1*
X53730Y69159D1*
X53708Y69268D1*
Y69305D1*
X53730Y69414D1*
X53773Y69487D1*
X53839Y69523D1*
X53861D1*
X53926Y69487D1*
X53970Y69414D1*
X53992Y69268D1*
Y69086D1*
X53970Y68904D1*
X53926Y68794D1*
X53861Y68758D1*
X53817D1*
X53752Y68794D1*
X53730Y68868D1*
X43405Y71049D2*
Y70503D1*
X43426Y70393D1*
X43470Y70321D1*
X43536Y70284D1*
X43580D1*
X43645Y70321D1*
X43689Y70393D1*
X43711Y70503D1*
Y71049D1*
X43874Y70867D2*
Y70903D1*
X43896Y70976D1*
X43918Y71012D1*
X43962Y71049D1*
X44049D1*
X44093Y71012D1*
X44114Y70976D1*
X44137Y70903D1*
Y70830D1*
X44114Y70757D1*
X44071Y70648D1*
X43852Y70284D1*
X44158D1*
X44431Y71049D2*
X44365Y71012D1*
X44321Y70903D1*
X44300Y70721D1*
Y70611D1*
X44321Y70429D1*
X44365Y70320D1*
X44431Y70284D1*
X44474D1*
X44540Y70320D1*
X44584Y70429D1*
X44606Y70611D1*
Y70721D1*
X44584Y70903D1*
X44540Y71012D1*
X44474Y71049D1*
X44431D1*
X44584Y70903D2*
X44321Y70429D1*
X33619Y70005D2*
Y69458D1*
X33640Y69349D1*
X33684Y69276D1*
X33750Y69239D1*
X33793D1*
X33859Y69276D1*
X33903Y69349D1*
X33925Y69458D1*
Y70005D1*
X34088Y69822D2*
Y69858D1*
X34110Y69932D1*
X34132Y69968D1*
X34176Y70004D1*
X34263D1*
X34307Y69968D1*
X34328Y69932D1*
X34351Y69858D1*
Y69786D1*
X34328Y69713D1*
X34285Y69604D1*
X34066Y69239D1*
X34372D1*
X34513Y69858D2*
X34557Y69896D1*
X34623Y70004D1*
Y69239D1*
X24711Y65847D2*
Y65300D1*
X24733Y65190D1*
X24777Y65118D1*
X24842Y65081D1*
X24886D1*
X24952Y65118D1*
X24996Y65190D1*
X25017Y65300D1*
Y65847D1*
X25181Y65664D2*
Y65700D1*
X25202Y65773D1*
X25224Y65810D1*
X25268Y65846D1*
X25356D1*
X25399Y65810D1*
X25421Y65773D1*
X25443Y65700D1*
Y65628D1*
X25421Y65554D1*
X25377Y65446D1*
X25158Y65081D1*
X25465D1*
X25628Y65664D2*
Y65700D1*
X25650Y65773D1*
X25672Y65810D1*
X25716Y65846D1*
X25803D1*
X25846Y65810D1*
X25868Y65773D1*
X25890Y65700D1*
Y65628D1*
X25868Y65554D1*
X25825Y65446D1*
X25606Y65081D1*
X25912D1*
X18295Y58842D2*
Y58296D1*
X18317Y58186D1*
X18361Y58114D1*
X18426Y58077D1*
X18470D1*
X18535Y58114D1*
X18579Y58186D1*
X18601Y58296D1*
Y58842D1*
X18765Y58660D2*
Y58696D1*
X18786Y58769D1*
X18808Y58805D1*
X18852Y58842D1*
X18939D1*
X18983Y58805D1*
X19005Y58769D1*
X19027Y58696D1*
Y58623D1*
X19005Y58550D1*
X18961Y58441D1*
X18742Y58077D1*
X19049D1*
X19234Y58842D2*
X19474D1*
X19343Y58550D1*
X19409D1*
X19452Y58514D1*
X19474Y58478D1*
X19496Y58368D1*
Y58296D1*
X19474Y58186D1*
X19430Y58113D1*
X19365Y58077D1*
X19299D1*
X19234Y58113D1*
X19212Y58150D1*
X19190Y58222D1*
X15439Y50160D2*
Y49614D1*
X15460Y49504D1*
X15504Y49432D1*
X15570Y49395D1*
X15614D1*
X15679Y49432D1*
X15723Y49504D1*
X15745Y49614D1*
Y50160D1*
X15908Y49977D2*
Y50014D1*
X15930Y50087D1*
X15952Y50123D1*
X15996Y50159D1*
X16083D1*
X16127Y50123D1*
X16148Y50087D1*
X16171Y50014D1*
Y49941D1*
X16148Y49868D1*
X16105Y49759D1*
X15886Y49395D1*
X16192D1*
X16552D2*
Y50159D1*
X16334Y49650D1*
X16662D1*
X15051Y41272D2*
Y40726D1*
X15073Y40616D1*
X15117Y40544D1*
X15182Y40507D1*
X15226D1*
X15291Y40544D1*
X15335Y40616D1*
X15357Y40726D1*
Y41272D1*
X15521Y41089D2*
Y41126D1*
X15542Y41199D1*
X15564Y41235D1*
X15608Y41271D1*
X15695D1*
X15739Y41235D1*
X15761Y41199D1*
X15783Y41126D1*
Y41053D1*
X15761Y40980D1*
X15717Y40871D1*
X15498Y40507D1*
X15805D1*
X16208Y41271D2*
X15990D1*
X15968Y40944D1*
X15990Y40980D1*
X16055Y41017D1*
X16121D1*
X16186Y40980D1*
X16230Y40908D1*
X16252Y40798D1*
Y40726D1*
X16230Y40616D1*
X16186Y40543D1*
X16121Y40507D1*
X16055D1*
X15990Y40543D1*
X15968Y40580D1*
X15946Y40652D1*
X17948Y33365D2*
Y32818D1*
X17970Y32709D1*
X18014Y32636D1*
X18079Y32599D1*
X18123D1*
X18189Y32636D1*
X18233Y32709D1*
X18254Y32818D1*
Y33365D1*
X18418Y33182D2*
Y33218D1*
X18439Y33292D1*
X18461Y33328D1*
X18505Y33364D1*
X18593D1*
X18636Y33328D1*
X18658Y33292D1*
X18680Y33218D1*
Y33146D1*
X18658Y33073D1*
X18614Y32964D1*
X18395Y32599D1*
X18702D1*
X19105Y33256D2*
X19083Y33328D1*
X19018Y33364D1*
X18974D1*
X18909Y33328D1*
X18865Y33218D1*
X18843Y33037D1*
Y32855D1*
X18865Y32709D1*
X18909Y32636D1*
X18974Y32599D1*
X18996D1*
X19061Y32636D1*
X19105Y32709D1*
X19127Y32818D1*
Y32855D1*
X19105Y32964D1*
X19061Y33037D1*
X18996Y33073D1*
X18974D1*
X18909Y33037D1*
X18865Y32964D1*
X18843Y32855D1*
X23396Y26572D2*
Y26025D1*
X23418Y25916D1*
X23462Y25843D1*
X23527Y25806D1*
X23571D1*
X23636Y25843D1*
X23680Y25916D1*
X23702Y26025D1*
Y26572D1*
X23865Y26389D2*
Y26425D1*
X23887Y26498D1*
X23909Y26535D1*
X23953Y26571D1*
X24040D1*
X24084Y26535D1*
X24106Y26498D1*
X24128Y26425D1*
Y26353D1*
X24106Y26279D1*
X24062Y26171D1*
X23843Y25806D1*
X24150D1*
X24378D2*
X24597Y26571D1*
X24291D1*
X30837Y21548D2*
Y21001D1*
X30859Y20892D1*
X30903Y20819D1*
X30968Y20782D1*
X31012D1*
X31078Y20819D1*
X31122Y20892D1*
X31143Y21001D1*
Y21548D1*
X31307Y21365D2*
Y21401D1*
X31328Y21474D1*
X31350Y21511D1*
X31394Y21547D1*
X31482D1*
X31525Y21511D1*
X31547Y21474D1*
X31569Y21401D1*
Y21329D1*
X31547Y21255D1*
X31503Y21147D1*
X31284Y20782D1*
X31591D1*
X31841Y21547D2*
X31776Y21511D1*
X31754Y21438D1*
Y21365D1*
X31776Y21292D1*
X31819Y21255D1*
X31907Y21219D1*
X31972Y21183D1*
X32016Y21110D1*
X32038Y21037D1*
Y20928D1*
X32016Y20855D1*
X31994Y20818D1*
X31929Y20782D1*
X31841D1*
X31776Y20818D1*
X31754Y20855D1*
X31732Y20928D1*
Y21037D1*
X31754Y21110D1*
X31798Y21183D1*
X31863Y21219D1*
X31950Y21255D1*
X31994Y21292D1*
X32016Y21365D1*
Y21438D1*
X31994Y21511D1*
X31929Y21547D1*
X31841D1*
X39464Y18811D2*
Y18264D1*
X39485Y18155D1*
X39529Y18082D1*
X39595Y18045D1*
X39639D1*
X39704Y18082D1*
X39748Y18155D1*
X39770Y18264D1*
Y18811D1*
X39933Y18628D2*
Y18664D1*
X39955Y18738D1*
X39977Y18774D1*
X40021Y18810D1*
X40108D1*
X40152Y18774D1*
X40173Y18738D1*
X40196Y18664D1*
Y18592D1*
X40173Y18519D1*
X40130Y18410D1*
X39911Y18045D1*
X40217D1*
X40643Y18556D2*
X40621Y18446D1*
X40577Y18373D1*
X40512Y18337D1*
X40490D1*
X40424Y18373D1*
X40381Y18446D1*
X40359Y18556D1*
Y18592D1*
X40381Y18701D1*
X40424Y18774D1*
X40490Y18810D1*
X40512D1*
X40577Y18774D1*
X40621Y18701D1*
X40643Y18556D1*
Y18373D1*
X40621Y18191D1*
X40577Y18081D1*
X40512Y18045D1*
X40468D1*
X40403Y18081D1*
X40381Y18155D1*
X48311Y19088D2*
Y18541D1*
X48333Y18432D1*
X48377Y18359D1*
X48442Y18322D1*
X48486D1*
X48551Y18359D1*
X48595Y18432D1*
X48617Y18541D1*
Y19088D1*
X48802Y19087D2*
X49042D1*
X48911Y18795D1*
X48977D1*
X49021Y18759D1*
X49042Y18723D1*
X49065Y18614D1*
Y18541D1*
X49042Y18432D1*
X48999Y18358D1*
X48933Y18322D1*
X48867D1*
X48802Y18358D1*
X48780Y18395D1*
X48758Y18468D1*
X49337Y19087D2*
X49271Y19051D1*
X49227Y18941D1*
X49206Y18759D1*
Y18650D1*
X49227Y18468D1*
X49271Y18358D1*
X49337Y18322D1*
X49381D1*
X49446Y18358D1*
X49490Y18468D1*
X49512Y18650D1*
Y18759D1*
X49490Y18941D1*
X49446Y19051D1*
X49381Y19087D1*
X49337D1*
X49490Y18941D2*
X49227Y18468D1*
X56397Y23147D2*
Y22600D1*
X56419Y22491D1*
X56463Y22418D1*
X56529Y22381D1*
X56572D1*
X56638Y22418D1*
X56682Y22491D1*
X56703Y22600D1*
Y23147D1*
X56889Y23146D2*
X57129D1*
X56998Y22854D1*
X57063D1*
X57107Y22818D1*
X57129Y22782D1*
X57151Y22672D1*
Y22600D1*
X57129Y22491D1*
X57085Y22417D1*
X57020Y22381D1*
X56954D1*
X56889Y22417D1*
X56867Y22454D1*
X56845Y22527D1*
X57292Y23000D2*
X57336Y23037D1*
X57402Y23146D1*
Y22381D1*
X62692Y29422D2*
Y28876D1*
X62713Y28766D1*
X62757Y28694D1*
X62823Y28657D1*
X62866D1*
X62932Y28694D1*
X62976Y28766D1*
X62998Y28876D1*
Y29422D1*
X63183D2*
X63423D1*
X63292Y29130D1*
X63358D1*
X63401Y29094D1*
X63423Y29058D1*
X63445Y28948D1*
Y28876D1*
X63423Y28766D1*
X63380Y28693D1*
X63314Y28657D1*
X63248D1*
X63183Y28693D1*
X63161Y28730D1*
X63139Y28803D1*
X63609Y29240D2*
Y29276D1*
X63630Y29349D1*
X63652Y29385D1*
X63696Y29422D1*
X63784D1*
X63827Y29385D1*
X63849Y29349D1*
X63871Y29276D1*
Y29203D1*
X63849Y29130D1*
X63805Y29022D1*
X63587Y28657D1*
X63893D1*
X66839Y37131D2*
Y36585D1*
X66861Y36475D1*
X66905Y36403D1*
X66971Y36366D1*
X67014D1*
X67080Y36403D1*
X67124Y36475D1*
X67146Y36585D1*
Y37131D1*
X67331Y37130D2*
X67571D1*
X67440Y36839D1*
X67506D1*
X67549Y36803D1*
X67571Y36767D1*
X67593Y36657D1*
Y36585D1*
X67571Y36475D1*
X67527Y36402D1*
X67462Y36366D1*
X67396D1*
X67331Y36402D1*
X67309Y36439D1*
X67287Y36511D1*
X67778Y37130D2*
X68018D1*
X67887Y36839D1*
X67953D1*
X67996Y36803D1*
X68018Y36767D1*
X68040Y36657D1*
Y36585D1*
X68018Y36475D1*
X67975Y36402D1*
X67909Y36366D1*
X67843D1*
X67778Y36402D1*
X67756Y36439D1*
X67734Y36511D1*
X47172Y52525D2*
D86*
X45908D1*
Y50483D1*
Y51552D2*
X46685D1*
X47899Y51844D2*
X48481Y50483D1*
X48287Y50094D1*
X48092Y49899D1*
X47899Y49802D1*
X47800D1*
X49065Y51844D2*
X48481Y50483D1*
X49692Y52525D2*
Y50483D1*
Y51552D2*
X49887Y51748D1*
X50081Y51844D1*
X50373D1*
X50566Y51748D1*
X50761Y51552D1*
X50858Y51260D1*
Y51067D1*
X50761Y50775D1*
X50566Y50582D1*
X50373Y50483D1*
X50081D1*
X49887Y50582D1*
X49692Y50775D1*
X51485Y51260D2*
X52651D1*
Y51456D1*
X52554Y51651D1*
X52458Y51748D1*
X52262Y51844D1*
X51970D1*
X51777Y51748D1*
X51582Y51552D1*
X51485Y51260D1*
Y51067D1*
X51582Y50775D1*
X51777Y50582D1*
X51970Y50483D1*
X52262D1*
X52458Y50582D1*
X52651Y50775D1*
X53278Y51844D2*
Y50483D1*
Y51260D2*
X53377Y51552D1*
X53570Y51748D1*
X53766Y51844D1*
X54058D1*
X56660Y52525D2*
Y50483D1*
X57826D1*
X59619Y51844D2*
Y50483D1*
Y51552D2*
X59426Y51748D1*
X59231Y51844D1*
X58941D1*
X58746Y51748D1*
X58552Y51552D1*
X58454Y51260D1*
Y51067D1*
X58552Y50775D1*
X58746Y50582D1*
X58941Y50483D1*
X59231D1*
X59426Y50582D1*
X59619Y50775D1*
X60247Y52525D2*
Y50483D1*
Y51552D2*
X60442Y51748D1*
X60635Y51844D1*
X60927D1*
X61121Y51748D1*
X61316Y51552D1*
X61413Y51260D1*
Y51067D1*
X61316Y50775D1*
X61121Y50582D1*
X60927Y50483D1*
X60635D1*
X60442Y50582D1*
X60247Y50775D1*
X63109Y51552D2*
X63013Y51748D1*
X62721Y51844D1*
X62429D1*
X62137Y51748D1*
X62040Y51552D1*
X62137Y51359D1*
X62332Y51260D1*
X62817Y51164D1*
X63013Y51067D1*
X63109Y50872D1*
Y50775D1*
X63013Y50582D1*
X62721Y50483D1*
X62429D1*
X62137Y50582D1*
X62040Y50775D1*
X52527Y48178D2*
Y46136D1*
X51847Y48178D2*
X53208D1*
X53835D2*
X53932Y48081D1*
X54031Y48178D1*
X53932Y48277D1*
X53835Y48178D1*
X53932Y47497D2*
Y46136D1*
X54658Y47497D2*
Y46136D1*
Y47109D2*
X54950Y47401D1*
X55146Y47497D1*
X55435D1*
X55631Y47401D1*
X55727Y47109D1*
Y46136D1*
X56454Y47497D2*
X57035Y46136D1*
X56842Y45747D1*
X56647Y45552D1*
X56454Y45455D1*
X56355D1*
X57619Y47497D2*
X57035Y46136D1*
X58247Y48178D2*
Y46136D1*
X59413D1*
X61302Y48178D2*
X60040D1*
Y46136D1*
X61302D1*
X60040Y47205D2*
X60817D1*
X61930Y48178D2*
Y46136D1*
X62610D1*
X62902Y46235D1*
X63098Y46428D1*
X63194Y46623D1*
X63291Y46913D1*
Y47401D1*
X63194Y47693D1*
X63098Y47886D1*
X62902Y48081D1*
X62610Y48178D1*
X61930D1*
X25128Y51678D2*
X26001D1*
X26293Y51776D1*
X26392Y51873D1*
X26489Y52066D1*
Y52262D1*
X26392Y52455D1*
X26293Y52554D1*
X26001Y52650D1*
X25128D1*
Y50608D1*
X25808Y51678D2*
X26489Y50608D1*
X27116Y51386D2*
X28282D1*
Y51581D1*
X28185Y51776D1*
X28089Y51873D1*
X27893Y51970D1*
X27601D1*
X27408Y51873D1*
X27213Y51678D1*
X27116Y51386D1*
Y51192D1*
X27213Y50900D1*
X27408Y50707D1*
X27601Y50608D1*
X27893D1*
X28089Y50707D1*
X28282Y50900D1*
X28910Y51970D2*
X29494Y50608D1*
X30075Y51970D1*
X30799Y50804D2*
X30703Y50705D1*
X30799Y50608D1*
X30898Y50705D1*
X30799Y50804D1*
X34085Y52648D2*
X33793Y52551D1*
X33597Y52259D1*
X33501Y51774D1*
Y51482D1*
X33597Y50997D1*
X33793Y50705D1*
X34085Y50608D1*
X34278D1*
X34570Y50705D1*
X34763Y50997D1*
X34862Y51482D1*
Y51774D1*
X34763Y52259D1*
X34570Y52551D1*
X34278Y52648D1*
X34085D1*
X34763Y52259D2*
X33597Y50997D1*
X35586Y50804D2*
X35489Y50705D1*
X35586Y50608D1*
X35685Y50705D1*
X35586Y50804D1*
X37478Y52648D2*
X36508D1*
X36411Y51774D1*
X36508Y51871D1*
X36800Y51970D1*
X37089D1*
X37381Y51871D1*
X37577Y51678D1*
X37673Y51386D1*
Y51192D1*
X37577Y50900D1*
X37381Y50705D1*
X37089Y50608D1*
X36800D1*
X36508Y50705D1*
X36411Y50804D1*
X36312Y50997D1*
X28507Y57190D2*
Y57287D1*
X28604Y57482D1*
X28700Y57579D1*
X28896Y57676D1*
X29284D1*
X29477Y57579D1*
X29574Y57482D1*
X29673Y57287D1*
Y57094D1*
X29574Y56898D1*
X29381Y56609D1*
X28408Y55636D1*
X29769D1*
X30981Y57676D2*
X30689Y57579D1*
X30493Y57287D1*
X30397Y56802D1*
Y56510D1*
X30493Y56025D1*
X30689Y55733D1*
X30981Y55636D1*
X31174D1*
X31466Y55733D1*
X31659Y56025D1*
X31758Y56510D1*
Y56802D1*
X31659Y57287D1*
X31466Y57579D1*
X31174Y57676D1*
X30981D1*
X31659Y57287D2*
X30493Y56025D1*
X32385Y57287D2*
X32581Y57386D1*
X32873Y57676D1*
Y55636D1*
X34666Y57676D2*
X33696D1*
X33599Y56802D1*
X33696Y56898D1*
X33988Y56997D1*
X34277D1*
X34569Y56898D1*
X34765Y56705D1*
X34861Y56413D1*
Y56220D1*
X34765Y55928D1*
X34569Y55733D1*
X34277Y55636D1*
X33988D1*
X33696Y55733D1*
X33599Y55831D1*
X33500Y56025D1*
X52272Y42976D2*
X53148D1*
X53438Y43072D1*
X53537Y43171D1*
X53633Y43364D1*
Y43656D1*
X53537Y43850D1*
X53438Y43948D1*
X53148Y44045D1*
X52272D1*
Y42003D1*
X54261Y42780D2*
X55427D1*
Y42976D1*
X55330Y43171D1*
X55233Y43268D1*
X55038Y43364D1*
X54746D1*
X54553Y43268D1*
X54357Y43072D1*
X54261Y42780D1*
Y42587D1*
X54357Y42295D1*
X54553Y42102D1*
X54746Y42003D1*
X55038D1*
X55233Y42102D1*
X55427Y42295D1*
X57220Y43364D2*
Y42003D1*
Y43072D2*
X57027Y43268D1*
X56831Y43364D1*
X56541D1*
X56346Y43268D1*
X56153Y43072D1*
X56054Y42780D1*
Y42587D1*
X56153Y42295D1*
X56346Y42102D1*
X56541Y42003D1*
X56831D1*
X57027Y42102D1*
X57220Y42295D1*
X59015Y43072D2*
X58820Y43268D1*
X58624Y43364D1*
X58335D1*
X58139Y43268D1*
X57946Y43072D1*
X57847Y42780D1*
Y42587D1*
X57946Y42295D1*
X58139Y42102D1*
X58335Y42003D1*
X58624D1*
X58820Y42102D1*
X59015Y42295D1*
X59643Y42780D2*
X60808D1*
Y42976D1*
X60712Y43171D1*
X60615Y43268D1*
X60420Y43364D1*
X60128D1*
X59935Y43268D1*
X59739Y43072D1*
X59643Y42780D1*
Y42587D1*
X59739Y42295D1*
X59935Y42102D1*
X60128Y42003D1*
X60420D1*
X60615Y42102D1*
X60808Y42295D1*
M02*
