G04 DipTrace 2.4.0.2*
%INfemalemalecrosspeace.gko*%
%MOMM*%
%ADD11C,0.14*%
%FSLAX53Y53*%
G04*
G71*
G90*
G75*
G01*
%LNBoardOutline*%
%LPD*%
X39700Y103988D2*
D11*
X39621Y104013D1*
X39615Y104015D1*
X38682Y102913D1*
X38021Y102182D1*
X37313Y101501D1*
X36556Y100871D1*
X35758Y100297D1*
X34920Y99781D1*
X34046Y99327D1*
X33144Y98936D1*
X32215Y98610D1*
X31265Y98351D1*
X30300Y98161D1*
Y88382D1*
X39190D1*
Y80889D1*
X30300D1*
Y71999D1*
X22934D1*
Y80889D1*
X14044D1*
Y88382D1*
X22934D1*
Y98161D1*
X21849Y98435D1*
X20782Y98786D1*
X19743Y99207D1*
X18735Y99698D1*
X17765Y100256D1*
X16833Y100881D1*
X15946Y101567D1*
X15108Y102311D1*
X14321Y103111D1*
X13592Y103962D1*
X12924Y104861D1*
X12316Y105804D1*
X11775Y106787D1*
X11303Y107803D1*
X10902Y108849D1*
X10571Y109921D1*
X10315Y111013D1*
X10135Y112118D1*
X10028Y113236D1*
X10000Y114356D1*
X10053Y115346D1*
X10168Y116335D1*
X10338Y117312D1*
X10566Y118278D1*
X10851Y119230D1*
X11191Y120162D1*
X11585Y121074D1*
X12032Y121961D1*
X12532Y122819D1*
X13078Y123645D1*
X13675Y124440D1*
X14318Y125197D1*
X15004Y125915D1*
X15730Y126591D1*
X16495Y127226D1*
X17295Y127813D1*
X18131Y128351D1*
X18994Y128839D1*
X19886Y129276D1*
X20790Y129240D1*
X21674Y129421D1*
X22489Y129812D1*
X23188Y130386D1*
X23729Y131110D1*
X24077Y131943D1*
X24130Y132613D1*
X24369Y133246D1*
X24775Y133784D1*
X25314Y134191D1*
X25946Y134430D1*
X26617Y134483D1*
X27290Y134430D1*
X27920Y134191D1*
X28461Y133784D1*
X28865Y133246D1*
X29103Y132613D1*
X29157Y131943D1*
X29507Y131110D1*
X30048Y130383D1*
X30744Y129812D1*
X31560Y129421D1*
X32446Y129240D1*
X33348Y129276D1*
X34747Y128565D1*
X36073Y127724D1*
X37313Y126764D1*
X38458Y125687D1*
X39494Y124508D1*
X40414Y123238D1*
X41209Y121884D1*
X41872Y120462D1*
X42400Y118984D1*
X42784Y117462D1*
X43020Y115910D1*
X43111Y114346D1*
X43053Y112776D1*
X42845Y111222D1*
X42663Y110433D1*
X42713Y110363D1*
X42769Y110300D1*
X42827Y110239D1*
X42890Y110180D1*
X42957Y110127D1*
X43028Y110076D1*
X43101Y110033D1*
X43175Y109992D1*
X43254Y109959D1*
X43335Y109929D1*
X43416Y109903D1*
X43500Y109885D1*
X43584Y109870D1*
X43668Y109863D1*
X43754Y109860D1*
X43840Y109863D1*
X43924Y109873D1*
X44015Y109887D1*
X44323Y110228D1*
X45032Y110922D1*
X45786Y111567D1*
X46579Y112161D1*
X47409Y112702D1*
X48273Y113187D1*
X48862Y113533D1*
X49482Y113820D1*
X50124Y114046D1*
X50787Y114211D1*
X51463Y114313D1*
X52144Y114351D1*
X53040Y114336D1*
X53919Y114526D1*
X54727Y114917D1*
X55423Y115484D1*
X55969Y116197D1*
X56335Y117018D1*
X56388Y117691D1*
X56627Y118321D1*
X57033Y118859D1*
X57572Y119266D1*
X58202Y119504D1*
X58875Y119558D1*
X59548Y119504D1*
X60178Y119266D1*
X60716Y118859D1*
X61123Y118321D1*
X61361Y117691D1*
X61415Y117018D1*
X61504Y116431D1*
X61707Y115875D1*
X62017Y115369D1*
X62421Y114935D1*
X62903Y114592D1*
X63447Y114351D1*
X65733Y113208D1*
X71092Y118415D1*
X64717D1*
Y125273D1*
X82751D1*
Y107239D1*
X75893D1*
Y113614D1*
X70686Y108255D1*
X71189Y107368D1*
X71636Y106457D1*
X72029Y105517D1*
X72367Y104557D1*
X72647Y103576D1*
X72865Y102583D1*
X72867Y102572D1*
X72918Y102469D1*
X72964Y102403D1*
X73015Y102344D1*
X73076Y102293D1*
X73142Y102248D1*
X73216Y102215D1*
X73289Y102189D1*
X73368Y102177D1*
X73449Y102172D1*
X73528Y102179D1*
X73604Y102197D1*
X73680Y102225D1*
X73749Y102260D1*
X73815Y102306D1*
X73873Y102362D1*
X73924Y102423D1*
X73965Y102489D1*
X73998Y102563D1*
X74003Y102580D1*
Y104178D1*
X82004D1*
Y83177D1*
X86002Y80178D1*
X100002D1*
Y72177D1*
X86002D1*
X82004Y68176D1*
Y25177D1*
X74003D1*
Y33778D1*
X73957Y34023D1*
X73922Y34133D1*
X73876Y34234D1*
X73815Y34331D1*
X73744Y34417D1*
X73663Y34493D1*
X73571Y34562D1*
X73472Y34615D1*
X73368Y34658D1*
X73259Y34686D1*
X73147Y34699D1*
X73033D1*
X72921Y34684D1*
X72814Y34656D1*
X72708Y34615D1*
X72649Y34581D1*
X72197Y32591D1*
X71156Y29528D1*
X69802Y26591D1*
X68151Y23813D1*
X66220Y21219D1*
X64028Y18839D1*
X61605Y16701D1*
X58969Y14826D1*
X56154Y13233D1*
X53190Y11943D1*
X50107Y10968D1*
X46939Y10318D1*
X43721Y10000D1*
X40488Y10018D1*
X37275Y10373D1*
X34115Y11059D1*
X31041Y12070D1*
X28092Y13393D1*
X25296Y15019D1*
X22682Y16924D1*
X20282Y19091D1*
X18806Y20660D1*
X17445Y22329D1*
X16200Y24089D1*
X15083Y25931D1*
X14094Y27846D1*
X13241Y29827D1*
X12530Y31859D1*
X11958Y33940D1*
X11537Y36050D1*
X11260Y38189D1*
X11133Y40340D1*
X11156Y42494D1*
X11328Y44643D1*
X11648Y46774D1*
X12118Y48877D1*
X12730Y50942D1*
X13487Y52962D1*
X14381Y54922D1*
X15408Y56817D1*
X16566Y58633D1*
X17846Y60368D1*
X19246Y62009D1*
X20754Y63546D1*
X22365Y64978D1*
X24072Y66291D1*
X25867Y67485D1*
X27739Y68552D1*
X29682Y69484D1*
X31687Y70279D1*
X33739Y70935D1*
X34648Y71229D1*
X35570Y71483D1*
X36502Y71697D1*
X37445Y71867D1*
X38392Y71991D1*
X39345Y72075D1*
X40302Y72116D1*
X39858Y72842D1*
X39672Y73673D1*
X39759Y74519D1*
X40112Y75293D1*
X40693Y75916D1*
X41443Y76317D1*
X42283Y76459D1*
X43122Y76317D1*
X43871Y75916D1*
X44453Y75293D1*
X44806Y74519D1*
X44895Y73673D1*
X44707Y72842D1*
X44265Y72116D1*
X45278Y72106D1*
X46292Y72055D1*
X47300Y71968D1*
X48308Y71839D1*
X49307Y71674D1*
X50300Y71468D1*
X51285Y71224D1*
X52261Y70942D1*
X53221Y70622D1*
X54171Y70267D1*
X55105Y69875D1*
X56025Y69446D1*
X56926Y68981D1*
X57810Y68484D1*
X58674Y67953D1*
X59515Y67386D1*
X60335Y66789D1*
X61130Y66159D1*
X61902Y65502D1*
X62647Y64813D1*
X63363Y64094D1*
X64054Y63353D1*
X64712Y62581D1*
X66827Y60135D1*
X68677Y57483D1*
X70239Y54651D1*
X71501Y51674D1*
X72142Y49578D1*
X72238Y49502D1*
X72327Y49439D1*
X72421Y49385D1*
X72520Y49337D1*
X72621Y49299D1*
X72725Y49268D1*
X72832Y49246D1*
X72941Y49230D1*
X73050Y49225D1*
X73160Y49228D1*
X73269Y49238D1*
X73376Y49258D1*
X73480Y49286D1*
X73584Y49322D1*
X73683Y49367D1*
X73779Y49418D1*
X73871Y49479D1*
X73957Y49545D1*
X74003Y49587D1*
Y68176D1*
X70002Y72177D1*
X56002D1*
Y80178D1*
X70002D1*
X74003Y83177D1*
Y95900D1*
X73985Y95918D1*
X73934Y95964D1*
X73878Y96002D1*
X73823Y96037D1*
X73762Y96070D1*
X73698Y96096D1*
X73635Y96116D1*
X73569Y96134D1*
X73503Y96144D1*
X73437Y96149D1*
X73368D1*
X73299Y96144D1*
X73233Y96134D1*
X73167Y96119D1*
X73104Y96098D1*
X73040Y96073D1*
X72982Y96042D1*
X72923Y96007D1*
X72868Y95966D1*
X72801Y95909D1*
X72720Y95509D1*
X72459Y94526D1*
X72141Y93558D1*
X71765Y92613D1*
X71333Y91691D1*
X70848Y90797D1*
X70310Y89931D1*
X69720Y89103D1*
X69083Y88308D1*
X68400Y87554D1*
X67437Y86675D1*
X66408Y85872D1*
X65321Y85154D1*
X64181Y84524D1*
X62995Y83985D1*
X61768Y83538D1*
X60510Y83193D1*
X59230Y82944D1*
X57935Y82796D1*
X56632Y82753D1*
X55331Y82812D1*
X54036Y82969D1*
X52758Y83231D1*
X51506Y83591D1*
X50284Y84046D1*
X49103Y84600D1*
X47968Y85240D1*
X46888Y85969D1*
X45867Y86782D1*
X44915Y87671D1*
X44033Y88631D1*
X43231Y89659D1*
X42512Y90747D1*
X41880Y91887D1*
X41339Y93073D1*
X40891Y94298D1*
X40543Y95552D1*
X40292Y96832D1*
X40145Y98128D1*
X40099Y99431D1*
X40112Y100421D1*
X40190Y101410D1*
X40333Y102393D1*
X40492Y103143D1*
X40460Y103238D1*
X40427Y103315D1*
X40389Y103391D1*
X40345Y103464D1*
X40297Y103533D1*
X40246Y103599D1*
X40190Y103663D1*
X40129Y103723D1*
X40066Y103777D1*
X39997Y103828D1*
X39929Y103876D1*
X39855Y103917D1*
X39779Y103955D1*
X39700Y103988D1*
X10036Y114356D2*
X10031Y114374D1*
X10018Y114387D1*
X10000Y114391D1*
X9982Y114387D1*
X9969Y114374D1*
X9964Y114356D1*
X9969Y114338D1*
X9982Y114325D1*
X10000Y114320D1*
X10018Y114325D1*
X10031Y114338D1*
X10036Y114356D1*
M02*
