G04 DipTrace 2.4.0.2*
%INpeace.gtp*%
%MOMM*%
%ADD20O,0.86X0.85*%
%ADD22O,0.973X0.96*%
%ADD24O,0.28X1.0*%
%ADD25O,1.0X0.28*%
%ADD29R,0.4X0.9*%
%ADD32O,1.0X1.5*%
%ADD33R,1.1X1.0*%
%ADD34R,1.0X1.1*%
%ADD35R,0.85X2.0*%
%ADD39R,0.9X0.7*%
%ADD40R,0.7X0.9*%
%ADD42R,0.25X0.275*%
%ADD43R,0.275X0.25*%
%FSLAX53Y53*%
G04*
G71*
G90*
G75*
G01*
%LNTopPaste*%
%LPD*%
D20*
X34203Y44566D3*
D22*
X33429Y43828D3*
X34993Y43818D3*
X33439Y45362D3*
X34996Y45371D3*
D24*
X32956Y42538D3*
X33456D3*
X33956D3*
X34456D3*
X34956D3*
X35456D3*
D25*
X36256Y43338D3*
Y43838D3*
Y44338D3*
Y44838D3*
Y45338D3*
Y45838D3*
D24*
X35456Y46638D3*
X34956D3*
X34456D3*
X33956D3*
X33456D3*
X32956D3*
D25*
X32156Y45838D3*
Y45338D3*
Y44838D3*
Y44338D3*
Y43838D3*
Y43338D3*
D29*
X49451Y25874D3*
X48151D3*
X46851D3*
Y23674D3*
X48151D3*
X49451D3*
D32*
X39309Y20623D3*
X41159D3*
X43009D3*
Y25623D3*
X41159D3*
X39309D3*
D33*
X48981Y27309D3*
X47281D3*
D34*
X45669Y23936D3*
Y25636D3*
D35*
X49505Y21616D3*
X47805D3*
D32*
X39309Y29623D3*
X41159D3*
X43009D3*
Y34623D3*
X41159D3*
X39309D3*
Y38623D3*
X41159D3*
X43009D3*
Y43623D3*
X41159D3*
X39309D3*
G36*
X39809Y47873D2*
X39760Y48090D1*
X39621Y48264D1*
X39421Y48360D1*
X39198D1*
X38998Y48264D1*
X38859Y48090D1*
X38809Y47873D1*
Y47373D1*
X38859Y47156D1*
X38998Y46982D1*
X39198Y46885D1*
X39421D1*
X39621Y46982D1*
X39760Y47156D1*
X39809Y47373D1*
Y47873D1*
G37*
G36*
X41659D2*
X41610Y48090D1*
X41471Y48264D1*
X41271Y48360D1*
X41048D1*
X40848Y48264D1*
X40709Y48090D1*
X40659Y47873D1*
Y47373D1*
X40709Y47156D1*
X40848Y46982D1*
X41048Y46885D1*
X41271D1*
X41471Y46982D1*
X41610Y47156D1*
X41659Y47373D1*
Y47873D1*
G37*
G36*
X43509D2*
X43460Y48090D1*
X43321Y48264D1*
X43121Y48360D1*
X42898D1*
X42698Y48264D1*
X42559Y48090D1*
X42509Y47873D1*
Y47373D1*
X42559Y47156D1*
X42698Y46982D1*
X42898Y46885D1*
X43121D1*
X43321Y46982D1*
X43460Y47156D1*
X43509Y47373D1*
Y47873D1*
G37*
G36*
Y52873D2*
X43460Y53090D1*
X43321Y53264D1*
X43121Y53360D1*
X42898D1*
X42698Y53264D1*
X42559Y53090D1*
X42509Y52873D1*
Y52373D1*
X42559Y52156D1*
X42698Y51982D1*
X42898Y51885D1*
X43121D1*
X43321Y51982D1*
X43460Y52156D1*
X43509Y52373D1*
Y52873D1*
G37*
G36*
X41659D2*
X41610Y53090D1*
X41471Y53264D1*
X41271Y53360D1*
X41048D1*
X40848Y53264D1*
X40709Y53090D1*
X40659Y52873D1*
Y52373D1*
X40709Y52156D1*
X40848Y51982D1*
X41048Y51885D1*
X41271D1*
X41471Y51982D1*
X41610Y52156D1*
X41659Y52373D1*
Y52873D1*
G37*
G36*
X39809D2*
X39760Y53090D1*
X39621Y53264D1*
X39421Y53360D1*
X39198D1*
X38998Y53264D1*
X38859Y53090D1*
X38809Y52873D1*
Y52373D1*
X38859Y52156D1*
X38998Y51982D1*
X39198Y51885D1*
X39421D1*
X39621Y51982D1*
X39760Y52156D1*
X39809Y52373D1*
Y52873D1*
G37*
G36*
Y56873D2*
X39760Y57090D1*
X39621Y57264D1*
X39421Y57360D1*
X39198D1*
X38998Y57264D1*
X38859Y57090D1*
X38809Y56873D1*
Y56373D1*
X38859Y56156D1*
X38998Y55982D1*
X39198Y55885D1*
X39421D1*
X39621Y55982D1*
X39760Y56156D1*
X39809Y56373D1*
Y56873D1*
G37*
G36*
X41659D2*
X41610Y57090D1*
X41471Y57264D1*
X41271Y57360D1*
X41048D1*
X40848Y57264D1*
X40709Y57090D1*
X40659Y56873D1*
Y56373D1*
X40709Y56156D1*
X40848Y55982D1*
X41048Y55885D1*
X41271D1*
X41471Y55982D1*
X41610Y56156D1*
X41659Y56373D1*
Y56873D1*
G37*
G36*
X43509D2*
X43460Y57090D1*
X43321Y57264D1*
X43121Y57360D1*
X42898D1*
X42698Y57264D1*
X42559Y57090D1*
X42509Y56873D1*
Y56373D1*
X42559Y56156D1*
X42698Y55982D1*
X42898Y55885D1*
X43121D1*
X43321Y55982D1*
X43460Y56156D1*
X43509Y56373D1*
Y56873D1*
G37*
G36*
Y61873D2*
X43460Y62090D1*
X43321Y62264D1*
X43121Y62360D1*
X42898D1*
X42698Y62264D1*
X42559Y62090D1*
X42509Y61873D1*
Y61373D1*
X42559Y61156D1*
X42698Y60982D1*
X42898Y60885D1*
X43121D1*
X43321Y60982D1*
X43460Y61156D1*
X43509Y61373D1*
Y61873D1*
G37*
G36*
X41659D2*
X41610Y62090D1*
X41471Y62264D1*
X41271Y62360D1*
X41048D1*
X40848Y62264D1*
X40709Y62090D1*
X40659Y61873D1*
Y61373D1*
X40709Y61156D1*
X40848Y60982D1*
X41048Y60885D1*
X41271D1*
X41471Y60982D1*
X41610Y61156D1*
X41659Y61373D1*
Y61873D1*
G37*
G36*
X39809D2*
X39760Y62090D1*
X39621Y62264D1*
X39421Y62360D1*
X39198D1*
X38998Y62264D1*
X38859Y62090D1*
X38809Y61873D1*
Y61373D1*
X38859Y61156D1*
X38998Y60982D1*
X39198Y60885D1*
X39421D1*
X39621Y60982D1*
X39760Y61156D1*
X39809Y61373D1*
Y61873D1*
G37*
G36*
X35705Y33759D2*
X35586Y33571D1*
X35562Y33350D1*
X35635Y33140D1*
X35792Y32982D1*
X36002Y32909D1*
X36224Y32934D1*
X36412Y33052D1*
X36766Y33406D1*
X36884Y33594D1*
X36909Y33815D1*
X36835Y34025D1*
X36678Y34183D1*
X36468Y34256D1*
X36247Y34231D1*
X36058Y34113D1*
X35705Y33759D1*
G37*
G36*
X34397Y35067D2*
X34278Y34879D1*
X34253Y34658D1*
X34327Y34448D1*
X34484Y34291D1*
X34694Y34217D1*
X34915Y34242D1*
X35104Y34360D1*
X35457Y34714D1*
X35576Y34902D1*
X35601Y35123D1*
X35527Y35334D1*
X35370Y35491D1*
X35160Y35564D1*
X34939Y35539D1*
X34750Y35421D1*
X34397Y35067D1*
G37*
G36*
X33089Y36376D2*
X32970Y36187D1*
X32945Y35966D1*
X33019Y35756D1*
X33176Y35599D1*
X33386Y35525D1*
X33607Y35550D1*
X33796Y35669D1*
X34149Y36022D1*
X34268Y36210D1*
X34293Y36432D1*
X34219Y36642D1*
X34062Y36799D1*
X33852Y36872D1*
X33631Y36848D1*
X33442Y36729D1*
X33089Y36376D1*
G37*
G36*
X29553Y32840D2*
X29435Y32652D1*
X29410Y32431D1*
X29483Y32221D1*
X29641Y32063D1*
X29851Y31990D1*
X30072Y32015D1*
X30260Y32133D1*
X30614Y32487D1*
X30732Y32675D1*
X30757Y32896D1*
X30684Y33106D1*
X30526Y33263D1*
X30316Y33337D1*
X30095Y33312D1*
X29907Y33194D1*
X29553Y32840D1*
G37*
G36*
X30861Y31532D2*
X30743Y31344D1*
X30718Y31122D1*
X30791Y30912D1*
X30949Y30755D1*
X31159Y30682D1*
X31380Y30706D1*
X31568Y30825D1*
X31922Y31178D1*
X32040Y31367D1*
X32065Y31588D1*
X31992Y31798D1*
X31834Y31955D1*
X31624Y32029D1*
X31403Y32004D1*
X31215Y31886D1*
X30861Y31532D1*
G37*
G36*
X32169Y30224D2*
X32051Y30035D1*
X32026Y29814D1*
X32100Y29604D1*
X32257Y29447D1*
X32467Y29373D1*
X32688Y29398D1*
X32876Y29517D1*
X33230Y29870D1*
X33348Y30059D1*
X33373Y30280D1*
X33300Y30490D1*
X33142Y30647D1*
X32932Y30721D1*
X32711Y30696D1*
X32523Y30577D1*
X32169Y30224D1*
G37*
G36*
X29705Y27759D2*
X29586Y27571D1*
X29562Y27350D1*
X29635Y27140D1*
X29792Y26982D1*
X30002Y26909D1*
X30224Y26934D1*
X30412Y27052D1*
X30766Y27406D1*
X30884Y27594D1*
X30909Y27815D1*
X30835Y28025D1*
X30678Y28183D1*
X30468Y28256D1*
X30247Y28231D1*
X30058Y28113D1*
X29705Y27759D1*
G37*
G36*
X28397Y29067D2*
X28278Y28879D1*
X28253Y28658D1*
X28327Y28448D1*
X28484Y28291D1*
X28694Y28217D1*
X28915Y28242D1*
X29104Y28360D1*
X29457Y28714D1*
X29576Y28902D1*
X29601Y29123D1*
X29527Y29334D1*
X29370Y29491D1*
X29160Y29564D1*
X28939Y29539D1*
X28750Y29421D1*
X28397Y29067D1*
G37*
G36*
X27089Y30376D2*
X26970Y30187D1*
X26945Y29966D1*
X27019Y29756D1*
X27176Y29599D1*
X27386Y29525D1*
X27607Y29550D1*
X27796Y29669D1*
X28149Y30022D1*
X28268Y30210D1*
X28293Y30432D1*
X28219Y30642D1*
X28062Y30799D1*
X27852Y30872D1*
X27631Y30848D1*
X27442Y30729D1*
X27089Y30376D1*
G37*
G36*
X23553Y26840D2*
X23435Y26652D1*
X23410Y26431D1*
X23483Y26221D1*
X23641Y26063D1*
X23851Y25990D1*
X24072Y26015D1*
X24260Y26133D1*
X24614Y26487D1*
X24732Y26675D1*
X24757Y26896D1*
X24684Y27106D1*
X24526Y27263D1*
X24316Y27337D1*
X24095Y27312D1*
X23907Y27194D1*
X23553Y26840D1*
G37*
G36*
X24861Y25532D2*
X24743Y25344D1*
X24718Y25122D1*
X24791Y24912D1*
X24949Y24755D1*
X25159Y24682D1*
X25380Y24706D1*
X25568Y24825D1*
X25922Y25178D1*
X26040Y25367D1*
X26065Y25588D1*
X25992Y25798D1*
X25834Y25955D1*
X25624Y26029D1*
X25403Y26004D1*
X25215Y25886D1*
X24861Y25532D1*
G37*
G36*
X26169Y24224D2*
X26051Y24035D1*
X26026Y23814D1*
X26100Y23604D1*
X26257Y23447D1*
X26467Y23373D1*
X26688Y23398D1*
X26876Y23517D1*
X27230Y23870D1*
X27348Y24059D1*
X27373Y24280D1*
X27300Y24490D1*
X27142Y24647D1*
X26932Y24721D1*
X26711Y24696D1*
X26523Y24577D1*
X26169Y24224D1*
G37*
G36*
X55436Y24014D2*
X55624Y23896D1*
X55845Y23871D1*
X56055Y23944D1*
X56213Y24102D1*
X56286Y24312D1*
X56261Y24533D1*
X56143Y24721D1*
X55789Y25075D1*
X55601Y25193D1*
X55380Y25218D1*
X55170Y25144D1*
X55013Y24987D1*
X54939Y24777D1*
X54964Y24556D1*
X55082Y24368D1*
X55436Y24014D1*
G37*
G36*
X56744Y25322D2*
X56932Y25204D1*
X57154Y25179D1*
X57364Y25252D1*
X57521Y25410D1*
X57594Y25620D1*
X57570Y25841D1*
X57451Y26029D1*
X57098Y26383D1*
X56909Y26501D1*
X56688Y26526D1*
X56478Y26453D1*
X56321Y26295D1*
X56247Y26085D1*
X56272Y25864D1*
X56390Y25676D1*
X56744Y25322D1*
G37*
G36*
X58052Y26630D2*
X58241Y26512D1*
X58462Y26487D1*
X58672Y26560D1*
X58829Y26718D1*
X58903Y26928D1*
X58878Y27149D1*
X58759Y27337D1*
X58406Y27691D1*
X58217Y27809D1*
X57996Y27834D1*
X57786Y27761D1*
X57629Y27603D1*
X57555Y27393D1*
X57580Y27172D1*
X57699Y26984D1*
X58052Y26630D1*
G37*
G36*
X54517Y30166D2*
X54705Y30047D1*
X54926Y30023D1*
X55136Y30096D1*
X55294Y30253D1*
X55367Y30463D1*
X55342Y30685D1*
X55224Y30873D1*
X54870Y31226D1*
X54682Y31345D1*
X54461Y31370D1*
X54251Y31296D1*
X54093Y31139D1*
X54020Y30929D1*
X54045Y30708D1*
X54163Y30519D1*
X54517Y30166D1*
G37*
G36*
X53209Y28858D2*
X53397Y28739D1*
X53618Y28714D1*
X53828Y28788D1*
X53985Y28945D1*
X54059Y29155D1*
X54034Y29376D1*
X53916Y29565D1*
X53562Y29918D1*
X53374Y30037D1*
X53153Y30062D1*
X52942Y29988D1*
X52785Y29831D1*
X52712Y29621D1*
X52737Y29400D1*
X52855Y29211D1*
X53209Y28858D1*
G37*
G36*
X51900Y27550D2*
X52089Y27431D1*
X52310Y27406D1*
X52520Y27480D1*
X52677Y27637D1*
X52751Y27847D1*
X52726Y28068D1*
X52607Y28257D1*
X52254Y28610D1*
X52066Y28729D1*
X51844Y28753D1*
X51634Y28680D1*
X51477Y28523D1*
X51404Y28313D1*
X51428Y28091D1*
X51547Y27903D1*
X51900Y27550D1*
G37*
G36*
X45790Y39671D2*
X46590D1*
Y38671D1*
X45790D1*
Y39671D1*
G37*
G36*
X47990D2*
X48790D1*
Y38671D1*
X47990D1*
Y39671D1*
G37*
G36*
Y46971D2*
X48790D1*
Y45971D1*
X47990D1*
Y46971D1*
G37*
G36*
X45790D2*
X46590D1*
Y45971D1*
X45790D1*
Y46971D1*
G37*
G36*
X44790Y45421D2*
X46290D1*
Y44721D1*
X44790D1*
Y45421D1*
G37*
G36*
Y43921D2*
X46290D1*
Y43221D1*
X44790D1*
Y43921D1*
G37*
G36*
Y40921D2*
X46290D1*
Y40221D1*
X44790D1*
Y40921D1*
G37*
D39*
X33812Y41399D3*
X35112D3*
X33606Y20172D3*
X32306D3*
D40*
X33290Y22084D3*
Y23384D3*
X36780Y22400D3*
Y23700D3*
X32454Y24622D3*
Y25922D3*
X34981Y24785D3*
Y26085D3*
D34*
X33724Y24777D3*
Y26477D3*
D42*
X34308Y22042D3*
X34808D3*
X35308D3*
X35808D3*
D43*
Y22542D3*
Y23042D3*
D42*
Y23542D3*
X35308D3*
X34808D3*
X34308D3*
D43*
Y23042D3*
Y22542D3*
G36*
X49436Y30014D2*
X49624Y29896D1*
X49845Y29871D1*
X50055Y29944D1*
X50213Y30102D1*
X50286Y30312D1*
X50261Y30533D1*
X50143Y30721D1*
X49789Y31075D1*
X49601Y31193D1*
X49380Y31218D1*
X49170Y31144D1*
X49013Y30987D1*
X48939Y30777D1*
X48964Y30556D1*
X49082Y30368D1*
X49436Y30014D1*
G37*
G36*
X50744Y31322D2*
X50932Y31204D1*
X51154Y31179D1*
X51364Y31252D1*
X51521Y31410D1*
X51594Y31620D1*
X51570Y31841D1*
X51451Y32029D1*
X51098Y32383D1*
X50909Y32501D1*
X50688Y32526D1*
X50478Y32453D1*
X50321Y32295D1*
X50247Y32085D1*
X50272Y31864D1*
X50390Y31676D1*
X50744Y31322D1*
G37*
G36*
X52052Y32630D2*
X52241Y32512D1*
X52462Y32487D1*
X52672Y32561D1*
X52829Y32718D1*
X52903Y32928D1*
X52878Y33149D1*
X52759Y33337D1*
X52406Y33691D1*
X52217Y33809D1*
X51996Y33834D1*
X51786Y33761D1*
X51629Y33603D1*
X51555Y33393D1*
X51580Y33172D1*
X51699Y32984D1*
X52052Y32630D1*
G37*
G36*
X48517Y36166D2*
X48705Y36047D1*
X48926Y36023D1*
X49136Y36096D1*
X49294Y36253D1*
X49367Y36463D1*
X49342Y36685D1*
X49224Y36873D1*
X48870Y37227D1*
X48682Y37345D1*
X48461Y37370D1*
X48251Y37296D1*
X48093Y37139D1*
X48020Y36929D1*
X48045Y36708D1*
X48163Y36519D1*
X48517Y36166D1*
G37*
G36*
X47209Y34858D2*
X47397Y34739D1*
X47618Y34714D1*
X47828Y34788D1*
X47985Y34945D1*
X48059Y35155D1*
X48034Y35376D1*
X47916Y35565D1*
X47562Y35918D1*
X47374Y36037D1*
X47153Y36062D1*
X46942Y35988D1*
X46785Y35831D1*
X46712Y35621D1*
X46737Y35400D1*
X46855Y35211D1*
X47209Y34858D1*
G37*
G36*
X45900Y33550D2*
X46089Y33431D1*
X46310Y33406D1*
X46520Y33480D1*
X46677Y33637D1*
X46751Y33847D1*
X46726Y34068D1*
X46607Y34257D1*
X46254Y34610D1*
X46066Y34729D1*
X45844Y34754D1*
X45634Y34680D1*
X45477Y34523D1*
X45404Y34313D1*
X45428Y34092D1*
X45547Y33903D1*
X45900Y33550D1*
G37*
D32*
X66309Y38623D3*
X68159D3*
X70009D3*
Y43623D3*
X68159D3*
X66309D3*
G36*
X65367Y46526D2*
X65484Y46337D1*
X65672Y46217D1*
X65893Y46191D1*
X66103Y46263D1*
X66261Y46420D1*
X66336Y46629D1*
X66312Y46851D1*
X66150Y47324D1*
X66033Y47513D1*
X65845Y47632D1*
X65624Y47658D1*
X65414Y47586D1*
X65255Y47430D1*
X65181Y47220D1*
X65204Y46999D1*
X65367Y46526D1*
G37*
G36*
X67116Y47127D2*
X67234Y46938D1*
X67421Y46818D1*
X67642Y46792D1*
X67853Y46864D1*
X68011Y47020D1*
X68086Y47230D1*
X68062Y47451D1*
X67900Y47924D1*
X67783Y48113D1*
X67595Y48233D1*
X67374Y48259D1*
X67163Y48187D1*
X67005Y48030D1*
X66930Y47821D1*
X66954Y47600D1*
X67116Y47127D1*
G37*
G36*
X68866Y47727D2*
X68983Y47538D1*
X69171Y47419D1*
X69392Y47392D1*
X69602Y47465D1*
X69761Y47621D1*
X69836Y47831D1*
X69812Y48052D1*
X69650Y48525D1*
X69532Y48714D1*
X69345Y48833D1*
X69124Y48860D1*
X68913Y48787D1*
X68755Y48631D1*
X68680Y48421D1*
X68704Y48200D1*
X68866Y47727D1*
G37*
G36*
X67243Y52456D2*
X67360Y52267D1*
X67548Y52148D1*
X67769Y52122D1*
X67979Y52194D1*
X68137Y52350D1*
X68212Y52560D1*
X68188Y52781D1*
X68026Y53254D1*
X67909Y53443D1*
X67721Y53563D1*
X67500Y53589D1*
X67290Y53517D1*
X67131Y53360D1*
X67057Y53151D1*
X67080Y52929D1*
X67243Y52456D1*
G37*
G36*
X65493Y51856D2*
X65610Y51667D1*
X65798Y51547D1*
X66019Y51521D1*
X66229Y51593D1*
X66388Y51750D1*
X66462Y51959D1*
X66439Y52180D1*
X66276Y52653D1*
X66159Y52842D1*
X65971Y52962D1*
X65750Y52988D1*
X65540Y52916D1*
X65382Y52759D1*
X65307Y52550D1*
X65331Y52329D1*
X65493Y51856D1*
G37*
G36*
X63743Y51255D2*
X63860Y51066D1*
X64048Y50946D1*
X64269Y50920D1*
X64479Y50992D1*
X64638Y51149D1*
X64713Y51358D1*
X64689Y51580D1*
X64527Y52053D1*
X64409Y52242D1*
X64222Y52361D1*
X64001Y52387D1*
X63790Y52315D1*
X63632Y52159D1*
X63557Y51949D1*
X63581Y51728D1*
X63743Y51255D1*
G37*
G36*
X62300Y54093D2*
X62472Y53953D1*
X62689Y53901D1*
X62906Y53948D1*
X63082Y54084D1*
X63181Y54284D1*
X63183Y54506D1*
X63089Y54708D1*
X62782Y55102D1*
X62610Y55243D1*
X62393Y55295D1*
X62176Y55248D1*
X62000Y55111D1*
X61901Y54912D1*
X61899Y54690D1*
X61993Y54488D1*
X62300Y54093D1*
G37*
G36*
X63760Y55230D2*
X63932Y55089D1*
X64149Y55037D1*
X64366Y55084D1*
X64542Y55220D1*
X64641Y55420D1*
X64643Y55642D1*
X64549Y55844D1*
X64242Y56239D1*
X64070Y56379D1*
X63853Y56431D1*
X63636Y56384D1*
X63460Y56248D1*
X63361Y56048D1*
X63359Y55826D1*
X63453Y55624D1*
X63760Y55230D1*
G37*
G36*
X65220Y56366D2*
X65392Y56225D1*
X65608Y56173D1*
X65826Y56220D1*
X66002Y56357D1*
X66100Y56556D1*
X66103Y56779D1*
X66009Y56980D1*
X65702Y57375D1*
X65529Y57516D1*
X65313Y57568D1*
X65096Y57521D1*
X64920Y57384D1*
X64821Y57185D1*
X64818Y56962D1*
X64913Y56761D1*
X65220Y56366D1*
G37*
G36*
X62149Y60312D2*
X62321Y60171D1*
X62537Y60119D1*
X62755Y60166D1*
X62930Y60302D1*
X63029Y60502D1*
X63032Y60724D1*
X62938Y60926D1*
X62631Y61321D1*
X62458Y61461D1*
X62242Y61513D1*
X62025Y61466D1*
X61849Y61330D1*
X61750Y61130D1*
X61747Y60908D1*
X61842Y60706D1*
X62149Y60312D1*
G37*
G36*
X60689Y59175D2*
X60861Y59035D1*
X61077Y58983D1*
X61295Y59030D1*
X61471Y59166D1*
X61569Y59366D1*
X61572Y59588D1*
X61478Y59790D1*
X61171Y60184D1*
X60998Y60325D1*
X60782Y60377D1*
X60565Y60330D1*
X60389Y60193D1*
X60290Y59994D1*
X60287Y59772D1*
X60382Y59570D1*
X60689Y59175D1*
G37*
G36*
X59229Y58039D2*
X59401Y57898D1*
X59618Y57846D1*
X59835Y57893D1*
X60011Y58030D1*
X60110Y58229D1*
X60112Y58452D1*
X60018Y58653D1*
X59711Y59048D1*
X59539Y59189D1*
X59322Y59241D1*
X59105Y59194D1*
X58929Y59057D1*
X58830Y58858D1*
X58828Y58635D1*
X58922Y58434D1*
X59229Y58039D1*
G37*
G36*
X56944Y60254D2*
X57153Y60177D1*
X57374Y60198D1*
X57565Y60313D1*
X57687Y60500D1*
X57715Y60720D1*
X57646Y60932D1*
X57491Y61092D1*
X57073Y61365D1*
X56864Y61442D1*
X56642Y61421D1*
X56452Y61306D1*
X56330Y61120D1*
X56301Y60899D1*
X56371Y60688D1*
X56526Y60528D1*
X56944Y60254D1*
G37*
G36*
X57956Y61803D2*
X58165Y61726D1*
X58386Y61747D1*
X58577Y61862D1*
X58698Y62048D1*
X58727Y62269D1*
X58658Y62480D1*
X58503Y62640D1*
X58084Y62914D1*
X57876Y62991D1*
X57654Y62970D1*
X57464Y62855D1*
X57342Y62669D1*
X57313Y62448D1*
X57383Y62237D1*
X57537Y62077D1*
X57956Y61803D1*
G37*
G36*
X58968Y63352D2*
X59177Y63275D1*
X59398Y63296D1*
X59589Y63411D1*
X59710Y63597D1*
X59739Y63818D1*
X59669Y64029D1*
X59515Y64189D1*
X59096Y64463D1*
X58888Y64540D1*
X58666Y64519D1*
X58476Y64404D1*
X58354Y64218D1*
X58325Y63997D1*
X58395Y63786D1*
X58549Y63626D1*
X58968Y63352D1*
G37*
G36*
X54782Y66087D2*
X54991Y66010D1*
X55212Y66031D1*
X55403Y66146D1*
X55524Y66332D1*
X55553Y66553D1*
X55484Y66764D1*
X55329Y66924D1*
X54910Y67197D1*
X54702Y67275D1*
X54480Y67254D1*
X54290Y67139D1*
X54168Y66952D1*
X54139Y66732D1*
X54209Y66520D1*
X54363Y66360D1*
X54782Y66087D1*
G37*
G36*
X53770Y64538D2*
X53979Y64461D1*
X54200Y64482D1*
X54391Y64597D1*
X54513Y64783D1*
X54541Y65004D1*
X54472Y65215D1*
X54317Y65375D1*
X53899Y65649D1*
X53690Y65726D1*
X53468Y65705D1*
X53278Y65590D1*
X53156Y65404D1*
X53127Y65183D1*
X53197Y64972D1*
X53352Y64811D1*
X53770Y64538D1*
G37*
G36*
X52758Y62989D2*
X52967Y62912D1*
X53189Y62933D1*
X53379Y63048D1*
X53501Y63234D1*
X53530Y63455D1*
X53460Y63666D1*
X53305Y63826D1*
X52887Y64100D1*
X52678Y64177D1*
X52457Y64156D1*
X52266Y64041D1*
X52144Y63855D1*
X52115Y63634D1*
X52185Y63423D1*
X52340Y63263D1*
X52758Y62989D1*
G37*
G36*
X49876Y64344D2*
X50099Y64338D1*
X50301Y64430D1*
X50444Y64601D1*
X50499Y64817D1*
X50454Y65035D1*
X50320Y65212D1*
X50122Y65313D1*
X49637Y65436D1*
X49415Y65441D1*
X49212Y65349D1*
X49069Y65179D1*
X49014Y64963D1*
X49059Y64745D1*
X49193Y64568D1*
X49392Y64466D1*
X49876Y64344D1*
G37*
G36*
X50330Y66137D2*
X50553Y66132D1*
X50756Y66224D1*
X50898Y66394D1*
X50953Y66610D1*
X50909Y66828D1*
X50774Y67005D1*
X50576Y67107D1*
X50091Y67229D1*
X49869Y67235D1*
X49666Y67143D1*
X49523Y66972D1*
X49469Y66756D1*
X49513Y66538D1*
X49648Y66361D1*
X49846Y66260D1*
X50330Y66137D1*
G37*
G36*
X50785Y67931D2*
X51007Y67925D1*
X51210Y68017D1*
X51353Y68188D1*
X51407Y68403D1*
X51363Y68621D1*
X51228Y68799D1*
X51030Y68900D1*
X50545Y69023D1*
X50323Y69028D1*
X50120Y68936D1*
X49977Y68765D1*
X49923Y68550D1*
X49967Y68332D1*
X50102Y68155D1*
X50300Y68053D1*
X50785Y67931D1*
G37*
G36*
X45938Y69158D2*
X46160Y69153D1*
X46363Y69245D1*
X46506Y69415D1*
X46560Y69631D1*
X46516Y69849D1*
X46381Y70026D1*
X46183Y70127D1*
X45698Y70250D1*
X45476Y70255D1*
X45273Y70164D1*
X45130Y69993D1*
X45076Y69777D1*
X45120Y69559D1*
X45255Y69382D1*
X45453Y69281D1*
X45938Y69158D1*
G37*
G36*
X45483Y67365D2*
X45706Y67359D1*
X45909Y67451D1*
X46051Y67622D1*
X46106Y67837D1*
X46062Y68056D1*
X45927Y68233D1*
X45729Y68334D1*
X45244Y68457D1*
X45022Y68462D1*
X44819Y68370D1*
X44676Y68200D1*
X44622Y67984D1*
X44666Y67766D1*
X44801Y67589D1*
X44999Y67487D1*
X45483Y67365D1*
G37*
G36*
X45029Y65571D2*
X45252Y65566D1*
X45454Y65658D1*
X45597Y65828D1*
X45652Y66044D1*
X45607Y66262D1*
X45473Y66439D1*
X45275Y66541D1*
X44790Y66663D1*
X44568Y66669D1*
X44365Y66577D1*
X44222Y66406D1*
X44167Y66190D1*
X44212Y65972D1*
X44346Y65795D1*
X44545Y65694D1*
X45029Y65571D1*
G37*
G36*
X41864Y65916D2*
X42076Y65983D1*
X42238Y66136D1*
X42318Y66344D1*
X42299Y66565D1*
X42187Y66757D1*
X42002Y66881D1*
X41781Y66913D1*
X41283Y66871D1*
X41071Y66804D1*
X40909Y66651D1*
X40829Y66444D1*
X40848Y66222D1*
X40961Y66030D1*
X41145Y65906D1*
X41366Y65875D1*
X41864Y65916D1*
G37*
G36*
X41711Y67760D2*
X41923Y67827D1*
X42085Y67980D1*
X42165Y68187D1*
X42147Y68409D1*
X42034Y68601D1*
X41849Y68725D1*
X41629Y68756D1*
X41130Y68715D1*
X40918Y68648D1*
X40756Y68495D1*
X40677Y68287D1*
X40695Y68066D1*
X40808Y67874D1*
X40993Y67750D1*
X41213Y67718D1*
X41711Y67760D1*
G37*
G36*
X41558Y69603D2*
X41771Y69671D1*
X41932Y69823D1*
X42012Y70031D1*
X41994Y70253D1*
X41881Y70445D1*
X41696Y70569D1*
X41476Y70600D1*
X40978Y70559D1*
X40765Y70491D1*
X40604Y70339D1*
X40524Y70131D1*
X40542Y69909D1*
X40655Y69717D1*
X40840Y69594D1*
X41060Y69562D1*
X41558Y69603D1*
G37*
G36*
X36576Y69191D2*
X36788Y69258D1*
X36950Y69410D1*
X37029Y69618D1*
X37011Y69840D1*
X36898Y70032D1*
X36713Y70156D1*
X36493Y70187D1*
X35995Y70146D1*
X35783Y70079D1*
X35621Y69926D1*
X35541Y69718D1*
X35559Y69496D1*
X35672Y69305D1*
X35857Y69181D1*
X36077Y69149D1*
X36576Y69191D1*
G37*
G36*
X36728Y67347D2*
X36940Y67414D1*
X37102Y67567D1*
X37182Y67775D1*
X37164Y67996D1*
X37051Y68188D1*
X36866Y68312D1*
X36646Y68343D1*
X36147Y68302D1*
X35935Y68235D1*
X35773Y68082D1*
X35694Y67874D1*
X35712Y67653D1*
X35825Y67461D1*
X36010Y67337D1*
X36230Y67306D1*
X36728Y67347D1*
G37*
G36*
X36881Y65503D2*
X37093Y65570D1*
X37255Y65723D1*
X37335Y65931D1*
X37316Y66153D1*
X37204Y66344D1*
X37019Y66468D1*
X36798Y66500D1*
X36300Y66458D1*
X36088Y66391D1*
X35926Y66239D1*
X35846Y66031D1*
X35865Y65809D1*
X35978Y65617D1*
X36162Y65493D1*
X36383Y65462D1*
X36881Y65503D1*
G37*
G36*
X33776Y64802D2*
X33954Y64934D1*
X34058Y65131D1*
X34066Y65353D1*
X33977Y65557D1*
X33808Y65702D1*
X33593Y65759D1*
X33374Y65717D1*
X32916Y65516D1*
X32737Y65384D1*
X32634Y65187D1*
X32626Y64965D1*
X32715Y64761D1*
X32884Y64616D1*
X33099Y64559D1*
X33318Y64601D1*
X33776Y64802D1*
G37*
G36*
X33033Y66496D2*
X33211Y66628D1*
X33315Y66825D1*
X33323Y67048D1*
X33233Y67251D1*
X33064Y67396D1*
X32849Y67453D1*
X32631Y67411D1*
X32173Y67211D1*
X31994Y67078D1*
X31891Y66881D1*
X31883Y66659D1*
X31972Y66455D1*
X32141Y66310D1*
X32356Y66253D1*
X32575Y66295D1*
X33033Y66496D1*
G37*
G36*
X32289Y68190D2*
X32468Y68322D1*
X32572Y68519D1*
X32580Y68742D1*
X32490Y68946D1*
X32321Y69090D1*
X32106Y69147D1*
X31888Y69106D1*
X31430Y68905D1*
X31251Y68772D1*
X31147Y68575D1*
X31140Y68353D1*
X31229Y68149D1*
X31398Y68004D1*
X31613Y67947D1*
X31832Y67989D1*
X32289Y68190D1*
G37*
G36*
X27711Y66181D2*
X27889Y66314D1*
X27993Y66511D1*
X28001Y66733D1*
X27911Y66937D1*
X27742Y67082D1*
X27527Y67139D1*
X27309Y67097D1*
X26851Y66896D1*
X26672Y66764D1*
X26569Y66567D1*
X26561Y66345D1*
X26650Y66141D1*
X26819Y65996D1*
X27034Y65939D1*
X27253Y65981D1*
X27711Y66181D1*
G37*
G36*
X28454Y64487D2*
X28632Y64620D1*
X28736Y64817D1*
X28744Y65039D1*
X28655Y65243D1*
X28486Y65388D1*
X28271Y65445D1*
X28052Y65403D1*
X27594Y65202D1*
X27415Y65070D1*
X27312Y64873D1*
X27304Y64650D1*
X27393Y64447D1*
X27562Y64302D1*
X27777Y64245D1*
X27996Y64286D1*
X28454Y64487D1*
G37*
G36*
X29197Y62793D2*
X29376Y62926D1*
X29479Y63123D1*
X29487Y63345D1*
X29398Y63549D1*
X29229Y63693D1*
X29014Y63751D1*
X28795Y63709D1*
X28337Y63508D1*
X28158Y63376D1*
X28055Y63179D1*
X28047Y62956D1*
X28136Y62752D1*
X28305Y62608D1*
X28520Y62550D1*
X28739Y62592D1*
X29197Y62793D1*
G37*
G36*
X26487Y61122D2*
X26613Y61305D1*
X26647Y61525D1*
X26583Y61738D1*
X26432Y61901D1*
X26225Y61984D1*
X26003Y61968D1*
X25810Y61857D1*
X25442Y61519D1*
X25316Y61335D1*
X25282Y61115D1*
X25347Y60902D1*
X25497Y60739D1*
X25704Y60657D1*
X25926Y60672D1*
X26119Y60783D1*
X26487Y61122D1*
G37*
G36*
X25234Y62483D2*
X25360Y62666D1*
X25394Y62886D1*
X25330Y63099D1*
X25179Y63263D1*
X24972Y63345D1*
X24750Y63329D1*
X24557Y63218D1*
X24189Y62880D1*
X24063Y62696D1*
X24029Y62476D1*
X24094Y62264D1*
X24244Y62100D1*
X24451Y62018D1*
X24673Y62033D1*
X24866Y62144D1*
X25234Y62483D1*
G37*
G36*
X23981Y63844D2*
X24107Y64027D1*
X24141Y64247D1*
X24077Y64460D1*
X23926Y64624D1*
X23719Y64706D1*
X23497Y64690D1*
X23304Y64579D1*
X22936Y64241D1*
X22810Y64057D1*
X22776Y63838D1*
X22841Y63625D1*
X22991Y63461D1*
X23198Y63379D1*
X23420Y63395D1*
X23613Y63505D1*
X23981Y63844D1*
G37*
G36*
X20303Y60457D2*
X20429Y60641D1*
X20463Y60861D1*
X20398Y61073D1*
X20247Y61237D1*
X20040Y61319D1*
X19818Y61304D1*
X19625Y61193D1*
X19257Y60854D1*
X19131Y60671D1*
X19097Y60451D1*
X19162Y60238D1*
X19313Y60074D1*
X19520Y59992D1*
X19742Y60008D1*
X19935Y60119D1*
X20303Y60457D1*
G37*
G36*
X21556Y59096D2*
X21682Y59280D1*
X21716Y59499D1*
X21651Y59712D1*
X21500Y59876D1*
X21293Y59958D1*
X21071Y59942D1*
X20878Y59832D1*
X20510Y59493D1*
X20384Y59310D1*
X20350Y59090D1*
X20415Y58877D1*
X20566Y58713D1*
X20773Y58631D1*
X20995Y58647D1*
X21188Y58758D1*
X21556Y59096D1*
G37*
G36*
X22809Y57735D2*
X22935Y57918D1*
X22969Y58138D1*
X22904Y58351D1*
X22753Y58515D1*
X22546Y58597D1*
X22324Y58581D1*
X22131Y58471D1*
X21763Y58132D1*
X21637Y57949D1*
X21603Y57729D1*
X21668Y57516D1*
X21819Y57352D1*
X22026Y57270D1*
X22248Y57286D1*
X22441Y57396D1*
X22809Y57735D1*
G37*
G36*
X19671Y55310D2*
X19612Y55096D1*
X19651Y54877D1*
X19781Y54697D1*
X19977Y54591D1*
X20199Y54580D1*
X20404Y54667D1*
X20551Y54834D1*
X20789Y55274D1*
X20849Y55488D1*
X20809Y55707D1*
X20679Y55888D1*
X20483Y55994D1*
X20261Y56004D1*
X20056Y55917D1*
X19909Y55750D1*
X19671Y55310D1*
G37*
G36*
X18044Y56191D2*
X17985Y55976D1*
X18024Y55757D1*
X18154Y55577D1*
X18350Y55471D1*
X18572Y55461D1*
X18777Y55548D1*
X18924Y55715D1*
X19162Y56155D1*
X19222Y56369D1*
X19182Y56588D1*
X19052Y56768D1*
X18856Y56874D1*
X18634Y56885D1*
X18429Y56798D1*
X18282Y56630D1*
X18044Y56191D1*
G37*
G36*
X16417Y57071D2*
X16358Y56857D1*
X16397Y56638D1*
X16527Y56458D1*
X16723Y56352D1*
X16945Y56341D1*
X17150Y56428D1*
X17297Y56595D1*
X17535Y57035D1*
X17595Y57249D1*
X17555Y57468D1*
X17425Y57649D1*
X17229Y57755D1*
X17007Y57765D1*
X16802Y57678D1*
X16655Y57511D1*
X16417Y57071D1*
G37*
G36*
X14038Y52674D2*
X13978Y52459D1*
X14017Y52240D1*
X14148Y52060D1*
X14343Y51954D1*
X14566Y51944D1*
X14770Y52031D1*
X14917Y52198D1*
X15155Y52638D1*
X15215Y52852D1*
X15176Y53071D1*
X15045Y53251D1*
X14850Y53357D1*
X14627Y53368D1*
X14422Y53281D1*
X14276Y53114D1*
X14038Y52674D1*
G37*
G36*
X15665Y51793D2*
X15605Y51579D1*
X15644Y51360D1*
X15775Y51180D1*
X15970Y51074D1*
X16193Y51063D1*
X16397Y51150D1*
X16544Y51317D1*
X16782Y51757D1*
X16842Y51972D1*
X16803Y52191D1*
X16672Y52371D1*
X16477Y52477D1*
X16254Y52487D1*
X16049Y52400D1*
X15903Y52233D1*
X15665Y51793D1*
G37*
G36*
X17292Y50913D2*
X17232Y50698D1*
X17271Y50479D1*
X17402Y50299D1*
X17597Y50193D1*
X17820Y50183D1*
X18024Y50270D1*
X18171Y50437D1*
X18409Y50877D1*
X18469Y51091D1*
X18430Y51310D1*
X18299Y51490D1*
X18104Y51596D1*
X17881Y51607D1*
X17677Y51520D1*
X17530Y51353D1*
X17292Y50913D1*
G37*
G36*
X16229Y47564D2*
X16242Y47342D1*
X16351Y47147D1*
X16532Y47019D1*
X16752Y46983D1*
X16966Y47045D1*
X17131Y47194D1*
X17216Y47399D1*
X17298Y47893D1*
X17285Y48115D1*
X17177Y48309D1*
X16995Y48437D1*
X16775Y48474D1*
X16562Y48412D1*
X16396Y48263D1*
X16312Y48057D1*
X16229Y47564D1*
G37*
G36*
X14404Y47869D2*
X14418Y47646D1*
X14526Y47452D1*
X14708Y47324D1*
X14927Y47287D1*
X15141Y47349D1*
X15306Y47498D1*
X15391Y47704D1*
X15473Y48197D1*
X15460Y48419D1*
X15352Y48614D1*
X15170Y48742D1*
X14950Y48779D1*
X14737Y48716D1*
X14571Y48568D1*
X14487Y48362D1*
X14404Y47869D1*
G37*
G36*
X12580Y48173D2*
X12593Y47951D1*
X12701Y47756D1*
X12883Y47628D1*
X13102Y47592D1*
X13316Y47654D1*
X13482Y47803D1*
X13566Y48008D1*
X13648Y48502D1*
X13635Y48724D1*
X13527Y48918D1*
X13345Y49046D1*
X13126Y49083D1*
X12912Y49021D1*
X12747Y48872D1*
X12662Y48666D1*
X12580Y48173D1*
G37*
G36*
X11757Y43241D2*
X11770Y43019D1*
X11878Y42825D1*
X12060Y42696D1*
X12279Y42660D1*
X12493Y42722D1*
X12659Y42871D1*
X12743Y43077D1*
X12825Y43570D1*
X12812Y43792D1*
X12704Y43986D1*
X12522Y44115D1*
X12303Y44151D1*
X12089Y44089D1*
X11924Y43940D1*
X11839Y43734D1*
X11757Y43241D1*
G37*
G36*
X13581Y42937D2*
X13595Y42715D1*
X13703Y42520D1*
X13885Y42392D1*
X14104Y42355D1*
X14318Y42418D1*
X14483Y42566D1*
X14568Y42772D1*
X14650Y43265D1*
X14637Y43487D1*
X14529Y43682D1*
X14347Y43810D1*
X14127Y43847D1*
X13914Y43785D1*
X13748Y43636D1*
X13664Y43430D1*
X13581Y42937D1*
G37*
G36*
X15406Y42632D2*
X15419Y42410D1*
X15528Y42216D1*
X15709Y42087D1*
X15929Y42051D1*
X16143Y42113D1*
X16308Y42262D1*
X16393Y42468D1*
X16475Y42961D1*
X16462Y43183D1*
X16354Y43377D1*
X16172Y43506D1*
X15952Y43542D1*
X15739Y43480D1*
X15573Y43331D1*
X15489Y43125D1*
X15406Y42632D1*
G37*
G36*
X15489Y39120D2*
X15573Y38915D1*
X15739Y38766D1*
X15952Y38704D1*
X16172Y38740D1*
X16354Y38868D1*
X16462Y39063D1*
X16475Y39285D1*
X16393Y39778D1*
X16308Y39984D1*
X16143Y40133D1*
X15929Y40195D1*
X15709Y40158D1*
X15528Y40030D1*
X15419Y39836D1*
X15406Y39614D1*
X15489Y39120D1*
G37*
G36*
X13664Y38816D2*
X13748Y38610D1*
X13914Y38461D1*
X14127Y38399D1*
X14347Y38436D1*
X14529Y38564D1*
X14637Y38758D1*
X14650Y38981D1*
X14568Y39474D1*
X14483Y39680D1*
X14318Y39828D1*
X14104Y39891D1*
X13885Y39854D1*
X13703Y39726D1*
X13595Y39531D1*
X13581Y39309D1*
X13664Y38816D1*
G37*
G36*
X11839Y38511D2*
X11924Y38306D1*
X12089Y38157D1*
X12303Y38095D1*
X12522Y38131D1*
X12704Y38259D1*
X12812Y38454D1*
X12825Y38676D1*
X12743Y39169D1*
X12659Y39375D1*
X12493Y39524D1*
X12279Y39586D1*
X12060Y39549D1*
X11878Y39421D1*
X11770Y39227D1*
X11757Y39005D1*
X11839Y38511D1*
G37*
G36*
X12662Y33580D2*
X12747Y33374D1*
X12912Y33225D1*
X13126Y33163D1*
X13345Y33199D1*
X13527Y33328D1*
X13635Y33522D1*
X13648Y33744D1*
X13566Y34237D1*
X13482Y34443D1*
X13316Y34592D1*
X13102Y34654D1*
X12883Y34618D1*
X12701Y34489D1*
X12593Y34295D1*
X12580Y34073D1*
X12662Y33580D1*
G37*
G36*
X14487Y33884D2*
X14571Y33678D1*
X14737Y33530D1*
X14950Y33467D1*
X15170Y33504D1*
X15352Y33632D1*
X15460Y33827D1*
X15473Y34049D1*
X15391Y34542D1*
X15306Y34748D1*
X15141Y34897D1*
X14927Y34959D1*
X14708Y34922D1*
X14526Y34794D1*
X14418Y34599D1*
X14404Y34377D1*
X14487Y33884D1*
G37*
G36*
X16312Y34189D2*
X16396Y33983D1*
X16562Y33834D1*
X16775Y33772D1*
X16995Y33808D1*
X17177Y33937D1*
X17285Y34131D1*
X17298Y34353D1*
X17216Y34846D1*
X17131Y35052D1*
X16966Y35201D1*
X16752Y35263D1*
X16532Y35227D1*
X16351Y35098D1*
X16242Y34904D1*
X16229Y34682D1*
X16312Y34189D1*
G37*
G36*
X17530Y30893D2*
X17676Y30726D1*
X17881Y30639D1*
X18104Y30650D1*
X18299Y30755D1*
X18430Y30936D1*
X18469Y31155D1*
X18409Y31369D1*
X18171Y31809D1*
X18024Y31976D1*
X17820Y32063D1*
X17597Y32053D1*
X17402Y31947D1*
X17271Y31766D1*
X17232Y31547D1*
X17292Y31333D1*
X17530Y30893D1*
G37*
G36*
X15903Y30013D2*
X16049Y29846D1*
X16254Y29759D1*
X16477Y29769D1*
X16672Y29875D1*
X16803Y30055D1*
X16842Y30274D1*
X16782Y30489D1*
X16544Y30928D1*
X16397Y31096D1*
X16193Y31183D1*
X15970Y31172D1*
X15775Y31066D1*
X15644Y30886D1*
X15605Y30667D1*
X15665Y30453D1*
X15903Y30013D1*
G37*
G36*
X14276Y29132D2*
X14422Y28965D1*
X14627Y28878D1*
X14850Y28889D1*
X15045Y28994D1*
X15176Y29175D1*
X15215Y29394D1*
X15155Y29608D1*
X14917Y30048D1*
X14770Y30215D1*
X14566Y30302D1*
X14343Y30292D1*
X14148Y30186D1*
X14017Y30005D1*
X13978Y29786D1*
X14038Y29572D1*
X14276Y29132D1*
G37*
G36*
X16655Y24735D2*
X16802Y24568D1*
X17007Y24481D1*
X17229Y24491D1*
X17425Y24597D1*
X17555Y24777D1*
X17595Y24996D1*
X17535Y25211D1*
X17297Y25651D1*
X17150Y25818D1*
X16945Y25905D1*
X16723Y25894D1*
X16527Y25788D1*
X16397Y25608D1*
X16358Y25389D1*
X16417Y25175D1*
X16655Y24735D1*
G37*
G36*
X18282Y25615D2*
X18429Y25448D1*
X18634Y25361D1*
X18856Y25372D1*
X19052Y25478D1*
X19182Y25658D1*
X19222Y25877D1*
X19162Y26091D1*
X18924Y26531D1*
X18777Y26698D1*
X18572Y26785D1*
X18350Y26775D1*
X18154Y26669D1*
X18024Y26489D1*
X17985Y26270D1*
X18044Y26055D1*
X18282Y25615D1*
G37*
G36*
X19909Y26496D2*
X20056Y26329D1*
X20261Y26242D1*
X20483Y26252D1*
X20679Y26358D1*
X20809Y26538D1*
X20849Y26757D1*
X20789Y26972D1*
X20551Y27412D1*
X20404Y27579D1*
X20199Y27666D1*
X19977Y27655D1*
X19781Y27549D1*
X19651Y27369D1*
X19612Y27150D1*
X19671Y26936D1*
X19909Y26496D1*
G37*
G36*
X22131Y23775D2*
X22324Y23665D1*
X22546Y23649D1*
X22753Y23731D1*
X22904Y23895D1*
X22969Y24108D1*
X22935Y24327D1*
X22809Y24511D1*
X22441Y24849D1*
X22248Y24960D1*
X22026Y24976D1*
X21819Y24894D1*
X21668Y24730D1*
X21603Y24517D1*
X21637Y24297D1*
X21763Y24114D1*
X22131Y23775D1*
G37*
G36*
X20878Y22414D2*
X21071Y22303D1*
X21293Y22288D1*
X21500Y22370D1*
X21651Y22534D1*
X21716Y22746D1*
X21682Y22966D1*
X21556Y23150D1*
X21188Y23488D1*
X20995Y23599D1*
X20773Y23615D1*
X20566Y23532D1*
X20415Y23369D1*
X20350Y23156D1*
X20384Y22936D1*
X20510Y22753D1*
X20878Y22414D1*
G37*
G36*
X19625Y21053D2*
X19818Y20942D1*
X20040Y20927D1*
X20247Y21009D1*
X20398Y21172D1*
X20463Y21385D1*
X20429Y21605D1*
X20303Y21789D1*
X19935Y22127D1*
X19742Y22238D1*
X19520Y22254D1*
X19313Y22171D1*
X19162Y22008D1*
X19097Y21795D1*
X19131Y21575D1*
X19257Y21392D1*
X19625Y21053D1*
G37*
G36*
X23304Y17666D2*
X23497Y17556D1*
X23719Y17540D1*
X23926Y17622D1*
X24077Y17786D1*
X24141Y17999D1*
X24107Y18219D1*
X23981Y18402D1*
X23613Y18741D1*
X23420Y18851D1*
X23198Y18867D1*
X22991Y18785D1*
X22841Y18621D1*
X22776Y18408D1*
X22810Y18188D1*
X22936Y18005D1*
X23304Y17666D1*
G37*
G36*
X24557Y19028D2*
X24750Y18917D1*
X24972Y18901D1*
X25179Y18983D1*
X25330Y19147D1*
X25394Y19360D1*
X25360Y19580D1*
X25234Y19763D1*
X24866Y20102D1*
X24673Y20212D1*
X24451Y20228D1*
X24244Y20146D1*
X24094Y19982D1*
X24029Y19769D1*
X24063Y19550D1*
X24189Y19366D1*
X24557Y19028D1*
G37*
G36*
X25810Y20389D2*
X26003Y20278D1*
X26225Y20262D1*
X26432Y20344D1*
X26583Y20508D1*
X26647Y20721D1*
X26613Y20941D1*
X26487Y21124D1*
X26119Y21463D1*
X25926Y21574D1*
X25704Y21589D1*
X25497Y21507D1*
X25347Y21343D1*
X25282Y21131D1*
X25316Y20911D1*
X25442Y20727D1*
X25810Y20389D1*
G37*
G36*
X28796Y18537D2*
X29014Y18496D1*
X29229Y18553D1*
X29398Y18698D1*
X29488Y18901D1*
X29480Y19124D1*
X29376Y19321D1*
X29198Y19453D1*
X28740Y19654D1*
X28521Y19696D1*
X28306Y19639D1*
X28137Y19494D1*
X28048Y19290D1*
X28056Y19068D1*
X28159Y18871D1*
X28338Y18738D1*
X28796Y18537D1*
G37*
G36*
X28052Y16844D2*
X28271Y16802D1*
X28486Y16859D1*
X28655Y17004D1*
X28744Y17207D1*
X28736Y17430D1*
X28633Y17627D1*
X28454Y17759D1*
X27996Y17960D1*
X27778Y18002D1*
X27563Y17945D1*
X27394Y17800D1*
X27304Y17596D1*
X27312Y17374D1*
X27416Y17177D1*
X27594Y17045D1*
X28052Y16844D1*
G37*
G36*
X27308Y15150D2*
X27527Y15108D1*
X27742Y15165D1*
X27911Y15310D1*
X28001Y15513D1*
X27993Y15736D1*
X27889Y15933D1*
X27710Y16065D1*
X27253Y16266D1*
X27034Y16308D1*
X26819Y16251D1*
X26650Y16106D1*
X26561Y15902D1*
X26568Y15680D1*
X26672Y15483D1*
X26851Y15351D1*
X27308Y15150D1*
G37*
G36*
X31887Y13140D2*
X32105Y13098D1*
X32320Y13155D1*
X32489Y13300D1*
X32579Y13504D1*
X32571Y13726D1*
X32468Y13923D1*
X32289Y14055D1*
X31831Y14256D1*
X31612Y14298D1*
X31397Y14241D1*
X31228Y14096D1*
X31139Y13893D1*
X31147Y13670D1*
X31250Y13473D1*
X31429Y13341D1*
X31887Y13140D1*
G37*
G36*
X32630Y14834D2*
X32849Y14792D1*
X33064Y14849D1*
X33233Y14994D1*
X33322Y15198D1*
X33315Y15420D1*
X33211Y15617D1*
X33032Y15749D1*
X32575Y15950D1*
X32356Y15992D1*
X32141Y15935D1*
X31972Y15790D1*
X31882Y15587D1*
X31890Y15364D1*
X31994Y15167D1*
X32173Y15035D1*
X32630Y14834D1*
G37*
G36*
X33374Y16528D2*
X33593Y16486D1*
X33808Y16543D1*
X33977Y16688D1*
X34066Y16892D1*
X34058Y17114D1*
X33955Y17311D1*
X33776Y17443D1*
X33318Y17644D1*
X33100Y17686D1*
X32885Y17629D1*
X32716Y17484D1*
X32626Y17281D1*
X32634Y17058D1*
X32737Y16861D1*
X32916Y16729D1*
X33374Y16528D1*
G37*
G36*
X36799Y15746D2*
X37019Y15778D1*
X37204Y15902D1*
X37316Y16093D1*
X37335Y16315D1*
X37255Y16523D1*
X37093Y16676D1*
X36881Y16743D1*
X36383Y16784D1*
X36163Y16753D1*
X35978Y16629D1*
X35865Y16437D1*
X35847Y16215D1*
X35926Y16007D1*
X36088Y15855D1*
X36300Y15788D1*
X36799Y15746D1*
G37*
G36*
X36646Y13903D2*
X36866Y13934D1*
X37051Y14058D1*
X37164Y14250D1*
X37182Y14471D1*
X37102Y14679D1*
X36940Y14832D1*
X36728Y14899D1*
X36230Y14940D1*
X36010Y14909D1*
X35825Y14785D1*
X35712Y14593D1*
X35694Y14372D1*
X35773Y14164D1*
X35935Y14011D1*
X36147Y13944D1*
X36646Y13903D1*
G37*
G36*
X36493Y12059D2*
X36713Y12090D1*
X36898Y12214D1*
X37011Y12406D1*
X37029Y12628D1*
X36949Y12836D1*
X36788Y12988D1*
X36575Y13055D1*
X36077Y13097D1*
X35857Y13065D1*
X35672Y12941D1*
X35559Y12750D1*
X35541Y12528D1*
X35620Y12320D1*
X35782Y12167D1*
X35995Y12100D1*
X36493Y12059D1*
G37*
G36*
X41476Y11646D2*
X41696Y11677D1*
X41881Y11801D1*
X41994Y11993D1*
X42012Y12215D1*
X41932Y12422D1*
X41770Y12575D1*
X41558Y12642D1*
X41060Y12684D1*
X40840Y12652D1*
X40655Y12528D1*
X40542Y12337D1*
X40524Y12115D1*
X40603Y11907D1*
X40765Y11754D1*
X40977Y11687D1*
X41476Y11646D1*
G37*
G36*
X41629Y13489D2*
X41849Y13521D1*
X42034Y13645D1*
X42146Y13837D1*
X42165Y14058D1*
X42085Y14266D1*
X41923Y14419D1*
X41711Y14486D1*
X41213Y14527D1*
X40993Y14496D1*
X40808Y14372D1*
X40695Y14180D1*
X40677Y13958D1*
X40756Y13751D1*
X40918Y13598D1*
X41130Y13531D1*
X41629Y13489D1*
G37*
G36*
X41781Y15333D2*
X42002Y15364D1*
X42187Y15488D1*
X42299Y15680D1*
X42318Y15902D1*
X42238Y16110D1*
X42076Y16262D1*
X41864Y16330D1*
X41366Y16371D1*
X41146Y16340D1*
X40961Y16216D1*
X40848Y16024D1*
X40830Y15802D1*
X40909Y15594D1*
X41071Y15442D1*
X41283Y15374D1*
X41781Y15333D1*
G37*
G36*
X45275Y15706D2*
X45473Y15807D1*
X45608Y15984D1*
X45652Y16202D1*
X45598Y16418D1*
X45455Y16589D1*
X45252Y16680D1*
X45030Y16675D1*
X44545Y16553D1*
X44347Y16451D1*
X44212Y16274D1*
X44168Y16056D1*
X44222Y15840D1*
X44365Y15670D1*
X44568Y15578D1*
X44790Y15583D1*
X45275Y15706D1*
G37*
G36*
X45729Y13912D2*
X45927Y14014D1*
X46062Y14191D1*
X46106Y14409D1*
X46051Y14624D1*
X45909Y14795D1*
X45706Y14887D1*
X45483Y14882D1*
X44999Y14759D1*
X44801Y14658D1*
X44666Y14481D1*
X44621Y14263D1*
X44676Y14047D1*
X44819Y13876D1*
X45022Y13784D1*
X45244Y13790D1*
X45729Y13912D1*
G37*
G36*
X46183Y12119D2*
X46381Y12220D1*
X46515Y12397D1*
X46560Y12615D1*
X46505Y12831D1*
X46362Y13002D1*
X46160Y13093D1*
X45937Y13088D1*
X45453Y12966D1*
X45254Y12864D1*
X45120Y12687D1*
X45075Y12469D1*
X45130Y12253D1*
X45273Y12083D1*
X45475Y11991D1*
X45698Y11996D1*
X46183Y12119D1*
G37*
G36*
X51030Y13345D2*
X51228Y13447D1*
X51363Y13624D1*
X51407Y13842D1*
X51352Y14058D1*
X51210Y14228D1*
X51007Y14320D1*
X50784Y14315D1*
X50300Y14192D1*
X50102Y14091D1*
X49967Y13914D1*
X49923Y13696D1*
X49977Y13480D1*
X50120Y13309D1*
X50323Y13217D1*
X50545Y13223D1*
X51030Y13345D1*
G37*
G36*
X50576Y15139D2*
X50774Y15240D1*
X50909Y15417D1*
X50953Y15635D1*
X50899Y15851D1*
X50756Y16022D1*
X50553Y16113D1*
X50331Y16108D1*
X49846Y15986D1*
X49648Y15884D1*
X49513Y15707D1*
X49469Y15489D1*
X49523Y15273D1*
X49666Y15103D1*
X49869Y15011D1*
X50091Y15016D1*
X50576Y15139D1*
G37*
G36*
X50122Y16932D2*
X50320Y17034D1*
X50455Y17211D1*
X50499Y17429D1*
X50445Y17644D1*
X50302Y17815D1*
X50099Y17907D1*
X49877Y17902D1*
X49392Y17779D1*
X49194Y17678D1*
X49059Y17501D1*
X49015Y17283D1*
X49069Y17067D1*
X49212Y16896D1*
X49415Y16804D1*
X49637Y16810D1*
X50122Y16932D1*
G37*
G36*
X53305Y18418D2*
X53460Y18578D1*
X53529Y18789D1*
X53500Y19010D1*
X53379Y19196D1*
X53188Y19311D1*
X52966Y19332D1*
X52758Y19254D1*
X52339Y18981D1*
X52185Y18820D1*
X52115Y18609D1*
X52144Y18388D1*
X52266Y18202D1*
X52457Y18087D1*
X52678Y18066D1*
X52887Y18144D1*
X53305Y18418D1*
G37*
G36*
X54318Y16870D2*
X54473Y17030D1*
X54542Y17241D1*
X54513Y17462D1*
X54392Y17648D1*
X54201Y17763D1*
X53979Y17784D1*
X53771Y17706D1*
X53352Y17433D1*
X53198Y17272D1*
X53128Y17061D1*
X53157Y16840D1*
X53279Y16654D1*
X53470Y16539D1*
X53691Y16518D1*
X53900Y16596D1*
X54318Y16870D1*
G37*
G36*
X55331Y15322D2*
X55486Y15482D1*
X55555Y15693D1*
X55526Y15914D1*
X55405Y16100D1*
X55214Y16215D1*
X54992Y16236D1*
X54784Y16158D1*
X54365Y15885D1*
X54211Y15724D1*
X54141Y15513D1*
X54170Y15292D1*
X54292Y15106D1*
X54483Y14991D1*
X54704Y14970D1*
X54913Y15048D1*
X55331Y15322D1*
G37*
G36*
X59515Y18059D2*
X59670Y18220D1*
X59739Y18431D1*
X59710Y18652D1*
X59588Y18838D1*
X59398Y18953D1*
X59176Y18973D1*
X58968Y18896D1*
X58549Y18622D1*
X58395Y18462D1*
X58325Y18251D1*
X58354Y18030D1*
X58476Y17844D1*
X58667Y17729D1*
X58888Y17708D1*
X59097Y17786D1*
X59515Y18059D1*
G37*
G36*
X58502Y19607D2*
X58657Y19768D1*
X58726Y19979D1*
X58697Y20200D1*
X58575Y20386D1*
X58385Y20501D1*
X58163Y20521D1*
X57955Y20444D1*
X57536Y20170D1*
X57382Y20010D1*
X57312Y19799D1*
X57341Y19578D1*
X57463Y19392D1*
X57654Y19277D1*
X57875Y19256D1*
X58084Y19334D1*
X58502Y19607D1*
G37*
G36*
X57489Y21155D2*
X57644Y21316D1*
X57713Y21527D1*
X57684Y21748D1*
X57562Y21934D1*
X57372Y22049D1*
X57150Y22070D1*
X56942Y21992D1*
X56523Y21718D1*
X56369Y21558D1*
X56299Y21347D1*
X56328Y21126D1*
X56450Y20940D1*
X56641Y20825D1*
X56862Y20804D1*
X57071Y20882D1*
X57489Y21155D1*
G37*
G36*
X58923Y23813D2*
X58828Y23611D1*
X58831Y23388D1*
X58930Y23189D1*
X59106Y23052D1*
X59323Y23005D1*
X59539Y23058D1*
X59712Y23198D1*
X60019Y23593D1*
X60113Y23794D1*
X60110Y24017D1*
X60012Y24216D1*
X59836Y24353D1*
X59618Y24400D1*
X59402Y24348D1*
X59230Y24207D1*
X58923Y23813D1*
G37*
G36*
X60382Y22676D2*
X60288Y22475D1*
X60291Y22252D1*
X60390Y22053D1*
X60565Y21916D1*
X60783Y21869D1*
X60999Y21921D1*
X61172Y22062D1*
X61479Y22456D1*
X61573Y22658D1*
X61570Y22880D1*
X61471Y23080D1*
X61296Y23217D1*
X61078Y23263D1*
X60862Y23211D1*
X60690Y23071D1*
X60382Y22676D1*
G37*
G36*
X61842Y21540D2*
X61748Y21338D1*
X61751Y21116D1*
X61850Y20916D1*
X62025Y20780D1*
X62243Y20733D1*
X62459Y20785D1*
X62631Y20925D1*
X62939Y21320D1*
X63033Y21522D1*
X63030Y21744D1*
X62931Y21943D1*
X62756Y22080D1*
X62538Y22127D1*
X62322Y22075D1*
X62149Y21934D1*
X61842Y21540D1*
G37*
G36*
X64914Y25485D2*
X64820Y25283D1*
X64822Y25061D1*
X64921Y24862D1*
X65097Y24725D1*
X65314Y24678D1*
X65530Y24730D1*
X65703Y24871D1*
X66010Y25265D1*
X66104Y25467D1*
X66102Y25689D1*
X66003Y25889D1*
X65827Y26025D1*
X65610Y26072D1*
X65393Y26020D1*
X65221Y25880D1*
X64914Y25485D1*
G37*
G36*
X63454Y26622D2*
X63360Y26420D1*
X63362Y26197D1*
X63461Y25998D1*
X63637Y25861D1*
X63854Y25814D1*
X64071Y25866D1*
X64243Y26007D1*
X64550Y26402D1*
X64644Y26603D1*
X64642Y26826D1*
X64543Y27025D1*
X64367Y27162D1*
X64150Y27209D1*
X63933Y27157D1*
X63761Y27016D1*
X63454Y26622D1*
G37*
G36*
X61994Y27758D2*
X61900Y27556D1*
X61903Y27334D1*
X62001Y27135D1*
X62177Y26998D1*
X62395Y26951D1*
X62611Y27003D1*
X62783Y27144D1*
X63090Y27538D1*
X63185Y27740D1*
X63182Y27962D1*
X63083Y28162D1*
X62907Y28298D1*
X62690Y28345D1*
X62474Y28293D1*
X62301Y28152D1*
X61994Y27758D1*
G37*
G36*
X63582Y30515D2*
X63559Y30294D1*
X63634Y30085D1*
X63792Y29928D1*
X64003Y29856D1*
X64224Y29883D1*
X64411Y30002D1*
X64528Y30192D1*
X64690Y30665D1*
X64714Y30886D1*
X64639Y31095D1*
X64480Y31252D1*
X64270Y31324D1*
X64049Y31297D1*
X63861Y31178D1*
X63744Y30988D1*
X63582Y30515D1*
G37*
G36*
X65333Y29916D2*
X65309Y29695D1*
X65384Y29485D1*
X65542Y29329D1*
X65753Y29257D1*
X65974Y29283D1*
X66161Y29403D1*
X66279Y29592D1*
X66441Y30065D1*
X66464Y30287D1*
X66389Y30496D1*
X66231Y30652D1*
X66020Y30724D1*
X65799Y30698D1*
X65612Y30578D1*
X65494Y30389D1*
X65333Y29916D1*
G37*
G36*
X67083Y29317D2*
X67059Y29096D1*
X67134Y28886D1*
X67293Y28730D1*
X67503Y28658D1*
X67724Y28684D1*
X67912Y28804D1*
X68029Y28993D1*
X68191Y29466D1*
X68214Y29687D1*
X68139Y29897D1*
X67981Y30053D1*
X67770Y30125D1*
X67549Y30099D1*
X67362Y29979D1*
X67245Y29790D1*
X67083Y29317D1*
G37*
G36*
X68702Y34047D2*
X68679Y33826D1*
X68754Y33617D1*
X68912Y33460D1*
X69123Y33388D1*
X69344Y33415D1*
X69531Y33534D1*
X69648Y33723D1*
X69810Y34196D1*
X69834Y34418D1*
X69759Y34627D1*
X69601Y34784D1*
X69390Y34856D1*
X69169Y34829D1*
X68981Y34710D1*
X68864Y34520D1*
X68702Y34047D1*
G37*
G36*
X66952Y34647D2*
X66929Y34425D1*
X67004Y34216D1*
X67162Y34059D1*
X67373Y33987D1*
X67593Y34014D1*
X67781Y34133D1*
X67898Y34323D1*
X68060Y34796D1*
X68084Y35017D1*
X68009Y35227D1*
X67850Y35383D1*
X67640Y35455D1*
X67419Y35428D1*
X67231Y35309D1*
X67114Y35120D1*
X66952Y34647D1*
G37*
G36*
X65202Y35246D2*
X65178Y35025D1*
X65253Y34815D1*
X65412Y34659D1*
X65622Y34587D1*
X65843Y34613D1*
X66031Y34733D1*
X66148Y34922D1*
X66310Y35395D1*
X66333Y35616D1*
X66258Y35826D1*
X66100Y35982D1*
X65889Y36054D1*
X65669Y36028D1*
X65481Y35908D1*
X65364Y35719D1*
X65202Y35246D1*
G37*
M02*
