G04 DipTrace 2.4.0.2*
%INpeace.gbo*%
%MOMM*%
%ADD10C,0.25*%
%ADD45O,3.825X4.663*%
%ADD68C,0.118*%
%ADD69C,0.314*%
%FSLAX53Y53*%
G04*
G71*
G90*
G75*
G01*
%LNBotSilk*%
%LPD*%
X41159Y63996D2*
D10*
G02X38135Y67346I218J3237D01*
G01*
D45*
X39922Y67052D3*
G36*
X41209Y64071D2*
X41360Y66121D1*
X38410Y66696D1*
X39309Y64771D1*
X40259Y64246D1*
D1*
X41209Y64071D1*
G37*
X41438Y57179D2*
D68*
Y56413D1*
X41241D1*
X41175Y56450D1*
X41153Y56487D1*
X41132Y56559D1*
Y56668D1*
X41153Y56742D1*
X41175Y56778D1*
X41241Y56814D1*
X41175Y56851D1*
X41153Y56887D1*
X41132Y56960D1*
Y57033D1*
X41153Y57106D1*
X41175Y57143D1*
X41241Y57179D1*
X41438D1*
Y56814D2*
X41241D1*
X40990Y57032D2*
X40946Y57069D1*
X40881Y57178D1*
Y56413D1*
X27375Y19085D2*
X27201Y18319D1*
X27026Y19085D1*
X26557Y18903D2*
X26578Y18976D1*
X26622Y19049D1*
X26666Y19085D1*
X26753D1*
X26797Y19049D1*
X26841Y18976D1*
X26863Y18903D1*
X26885Y18794D1*
Y18611D1*
X26863Y18502D1*
X26841Y18429D1*
X26797Y18356D1*
X26753Y18319D1*
X26666D1*
X26622Y18356D1*
X26578Y18429D1*
X26557Y18502D1*
X26087Y18903D2*
X26109Y18976D1*
X26153Y19049D1*
X26197Y19085D1*
X26284D1*
X26328Y19049D1*
X26371Y18976D1*
X26394Y18903D1*
X26415Y18794D1*
Y18611D1*
X26394Y18502D1*
X26371Y18429D1*
X26328Y18356D1*
X26284Y18319D1*
X26197D1*
X26153Y18356D1*
X26109Y18429D1*
X26087Y18502D1*
X25833Y20767D2*
X25876Y20840D1*
X25942Y20876D1*
X26029D1*
X26095Y20840D1*
X26139Y20767D1*
Y20695D1*
X26117Y20621D1*
X26095Y20585D1*
X26051Y20549D1*
X25920Y20476D1*
X25876Y20439D1*
X25854Y20402D1*
X25833Y20330D1*
Y20220D1*
X25876Y20148D1*
X25942Y20111D1*
X26029D1*
X26095Y20148D1*
X26139Y20220D1*
X25691Y20876D2*
X25582Y20111D1*
X25473Y20876D1*
X25363Y20111D1*
X25254Y20876D1*
X25113D2*
Y20111D1*
X24959D1*
X24894Y20148D1*
X24850Y20220D1*
X24828Y20294D1*
X24806Y20402D1*
Y20585D1*
X24828Y20695D1*
X24850Y20767D1*
X24894Y20840D1*
X24959Y20876D1*
X25113D1*
X24665D2*
Y20111D1*
X24393Y20876D2*
X24437Y20840D1*
X24480Y20767D1*
X24502Y20695D1*
X24524Y20585D1*
Y20402D1*
X24502Y20294D1*
X24480Y20220D1*
X24437Y20148D1*
X24393Y20111D1*
X24305D1*
X24262Y20148D1*
X24218Y20220D1*
X24196Y20294D1*
X24174Y20402D1*
Y20585D1*
X24196Y20695D1*
X24218Y20767D1*
X24262Y20840D1*
X24305Y20876D1*
X24393D1*
X23887Y22506D2*
X23690D1*
X23625Y22543D1*
X23602Y22580D1*
X23581Y22652D1*
Y22725D1*
X23602Y22798D1*
X23625Y22835D1*
X23690Y22871D1*
X23887D1*
Y22105D1*
X23734Y22506D2*
X23581Y22105D1*
X23440Y22397D2*
X23177D1*
Y22470D1*
X23199Y22543D1*
X23221Y22580D1*
X23265Y22616D1*
X23330D1*
X23374Y22580D1*
X23418Y22506D1*
X23440Y22397D1*
Y22324D1*
X23418Y22215D1*
X23374Y22142D1*
X23330Y22105D1*
X23265D1*
X23221Y22142D1*
X23177Y22215D1*
X22795Y22506D2*
X22817Y22580D1*
X22883Y22616D1*
X22949D1*
X23014Y22580D1*
X23036Y22506D1*
X23014Y22434D1*
X22970Y22397D1*
X22861Y22361D1*
X22817Y22324D1*
X22795Y22251D1*
Y22215D1*
X22817Y22142D1*
X22883Y22105D1*
X22949D1*
X23014Y22142D1*
X23036Y22215D1*
X22654Y22397D2*
X22392D1*
Y22470D1*
X22414Y22543D1*
X22435Y22580D1*
X22479Y22616D1*
X22545D1*
X22589Y22580D1*
X22633Y22506D1*
X22654Y22397D1*
Y22324D1*
X22633Y22215D1*
X22589Y22142D1*
X22545Y22105D1*
X22479D1*
X22435Y22142D1*
X22392Y22215D1*
X22185Y22871D2*
Y22251D1*
X22163Y22142D1*
X22119Y22105D1*
X22076D1*
X22251Y22616D2*
X22098D1*
X21681Y24678D2*
X21724Y24751D1*
X21790Y24788D1*
X21878D1*
X21943Y24751D1*
X21987Y24678D1*
Y24606D1*
X21965Y24532D1*
X21943Y24496D1*
X21900Y24460D1*
X21768Y24387D1*
X21724Y24351D1*
X21703Y24313D1*
X21681Y24241D1*
Y24132D1*
X21724Y24059D1*
X21790Y24022D1*
X21878D1*
X21943Y24059D1*
X21987Y24132D1*
X21540Y24788D2*
X21430Y24022D1*
X21321Y24788D1*
X21212Y24022D1*
X21102Y24788D1*
X20633Y24606D2*
X20655Y24678D1*
X20699Y24751D1*
X20742Y24788D1*
X20830D1*
X20874Y24751D1*
X20917Y24678D1*
X20939Y24606D1*
X20961Y24496D1*
Y24313D1*
X20939Y24205D1*
X20917Y24132D1*
X20874Y24059D1*
X20830Y24022D1*
X20742D1*
X20699Y24059D1*
X20655Y24132D1*
X20633Y24205D1*
X20492Y24788D2*
Y24022D1*
X20230D1*
X20088Y24788D2*
Y24022D1*
X19782Y24788D2*
X20088Y24277D1*
X19979Y24460D2*
X19782Y24022D1*
X19670Y26147D2*
X19692Y26219D1*
X19736Y26293D1*
X19779Y26329D1*
X19866D1*
X19910Y26293D1*
X19954Y26219D1*
X19976Y26147D1*
X19998Y26037D1*
Y25855D1*
X19976Y25746D1*
X19954Y25673D1*
X19910Y25600D1*
X19866Y25563D1*
X19779D1*
X19736Y25600D1*
X19692Y25673D1*
X19670Y25746D1*
Y25855D1*
X19779D1*
X19222Y26329D2*
Y25563D1*
X19529Y26329D1*
Y25563D1*
X19081Y26329D2*
Y25563D1*
X18928D1*
X18862Y25600D1*
X18818Y25673D1*
X18797Y25746D1*
X18775Y25855D1*
Y26037D1*
X18797Y26147D1*
X18818Y26219D1*
X18862Y26293D1*
X18928Y26329D1*
X19081D1*
X51335Y60731D2*
D69*
X52599D1*
Y58689D1*
Y59758D2*
X51822D1*
X50609Y60050D2*
X50027Y58689D1*
X50220Y58300D1*
X50415Y58105D1*
X50609Y58008D1*
X50707D1*
X49443Y60050D2*
X50027Y58689D1*
X48815Y60731D2*
Y58689D1*
Y59758D2*
X48620Y59954D1*
X48427Y60050D1*
X48135D1*
X47942Y59954D1*
X47746Y59758D1*
X47650Y59466D1*
Y59273D1*
X47746Y58981D1*
X47942Y58788D1*
X48135Y58689D1*
X48427D1*
X48620Y58788D1*
X48815Y58981D1*
X47022Y59466D2*
X45856D1*
Y59662D1*
X45953Y59857D1*
X46050Y59954D1*
X46245Y60050D1*
X46537D1*
X46730Y59954D1*
X46926Y59758D1*
X47022Y59466D1*
Y59273D1*
X46926Y58981D1*
X46730Y58788D1*
X46537Y58689D1*
X46245D1*
X46050Y58788D1*
X45856Y58981D1*
X45229Y60050D2*
Y58689D1*
Y59466D2*
X45130Y59758D1*
X44937Y59954D1*
X44742Y60050D1*
X44450D1*
X41847Y60731D2*
Y58689D1*
X40681D1*
X38888Y60050D2*
Y58689D1*
Y59758D2*
X39081Y59954D1*
X39277Y60050D1*
X39566D1*
X39762Y59954D1*
X39955Y59758D1*
X40054Y59466D1*
Y59273D1*
X39955Y58981D1*
X39762Y58788D1*
X39566Y58689D1*
X39277D1*
X39081Y58788D1*
X38888Y58981D1*
X38261Y60731D2*
Y58689D1*
Y59758D2*
X38065Y59954D1*
X37872Y60050D1*
X37580D1*
X37387Y59954D1*
X37191Y59758D1*
X37095Y59466D1*
Y59273D1*
X37191Y58981D1*
X37387Y58788D1*
X37580Y58689D1*
X37872D1*
X38065Y58788D1*
X38261Y58981D1*
X35398Y59758D2*
X35495Y59954D1*
X35787Y60050D1*
X36079D1*
X36371Y59954D1*
X36467Y59758D1*
X36371Y59565D1*
X36175Y59466D1*
X35690Y59370D1*
X35495Y59273D1*
X35398Y59078D1*
Y58981D1*
X35495Y58788D1*
X35787Y58689D1*
X36079D1*
X36371Y58788D1*
X36467Y58981D1*
X32796Y60731D2*
Y58689D1*
X32168Y60050D2*
Y58689D1*
Y59662D2*
X31876Y59954D1*
X31681Y60050D1*
X31391D1*
X31196Y59954D1*
X31099Y59662D1*
Y58689D1*
X29304Y59758D2*
X29499Y59954D1*
X29694Y60050D1*
X29984D1*
X30180Y59954D1*
X30373Y59758D1*
X30472Y59466D1*
Y59273D1*
X30373Y58981D1*
X30180Y58788D1*
X29984Y58689D1*
X29694D1*
X29499Y58788D1*
X29304Y58981D1*
X28579Y58884D2*
X28676Y58786D1*
X28579Y58689D1*
X28481Y58786D1*
X28579Y58884D1*
X31378Y34229D2*
Y32187D1*
X32059Y34229D2*
X30698D1*
X30070D2*
X29974Y34132D1*
X29875Y34229D1*
X29974Y34327D1*
X30070Y34229D1*
X29974Y33548D2*
Y32187D1*
X29247Y33548D2*
Y32187D1*
Y33159D2*
X28955Y33451D1*
X28760Y33548D1*
X28470D1*
X28275Y33451D1*
X28178Y33159D1*
Y32187D1*
X27452Y33548D2*
X26870Y32187D1*
X27063Y31798D1*
X27259Y31603D1*
X27452Y31506D1*
X27551D1*
X26286Y33548D2*
X26870Y32187D1*
X25659Y34229D2*
Y32187D1*
X24493D1*
X22603Y34229D2*
X23866D1*
Y32187D1*
X22603D1*
X23866Y33256D2*
X23088D1*
X21976Y34229D2*
Y32187D1*
X21295D1*
X21003Y32286D1*
X20808Y32479D1*
X20711Y32674D1*
X20615Y32964D1*
Y33451D1*
X20711Y33743D1*
X20808Y33937D1*
X21003Y34132D1*
X21295Y34229D1*
X21976D1*
X61221Y33182D2*
X60348D1*
X60056Y33281D1*
X59957Y33377D1*
X59860Y33570D1*
Y33766D1*
X59957Y33959D1*
X60056Y34058D1*
X60348Y34154D1*
X61221D1*
Y32113D1*
X60541Y33182D2*
X59860Y32113D1*
X59233Y32890D2*
X58067D1*
Y33085D1*
X58164Y33281D1*
X58260Y33377D1*
X58456Y33474D1*
X58748D1*
X58941Y33377D1*
X59136Y33182D1*
X59233Y32890D1*
Y32697D1*
X59136Y32405D1*
X58941Y32211D1*
X58748Y32113D1*
X58456D1*
X58260Y32211D1*
X58067Y32405D1*
X57440Y33474D2*
X56856Y32113D1*
X56274Y33474D1*
X55550Y32308D2*
X55646Y32209D1*
X55550Y32113D1*
X55451Y32209D1*
X55550Y32308D1*
X52264Y34152D2*
X52556Y34055D1*
X52752Y33763D1*
X52848Y33278D1*
Y32986D1*
X52752Y32501D1*
X52556Y32209D1*
X52264Y32113D1*
X52071D1*
X51779Y32209D1*
X51586Y32501D1*
X51487Y32986D1*
Y33278D1*
X51586Y33763D1*
X51779Y34055D1*
X52071Y34152D1*
X52264D1*
X51586Y33763D2*
X52752Y32501D1*
X50763Y32308D2*
X50860Y32209D1*
X50763Y32113D1*
X50664Y32209D1*
X50763Y32308D1*
X48871Y34152D2*
X49842D1*
X49938Y33278D1*
X49842Y33375D1*
X49550Y33474D1*
X49260D1*
X48968Y33375D1*
X48772Y33182D1*
X48676Y32890D1*
Y32697D1*
X48772Y32405D1*
X48968Y32209D1*
X49260Y32113D1*
X49550D1*
X49842Y32209D1*
X49938Y32308D1*
X50037Y32501D1*
X58194Y28974D2*
Y29071D1*
X58098Y29266D1*
X58001Y29363D1*
X57806Y29459D1*
X57417D1*
X57224Y29363D1*
X57127Y29266D1*
X57029Y29071D1*
Y28878D1*
X57127Y28682D1*
X57321Y28392D1*
X58293Y27420D1*
X56932D1*
X55721Y29459D2*
X56013Y29363D1*
X56208Y29071D1*
X56305Y28586D1*
Y28294D1*
X56208Y27808D1*
X56013Y27516D1*
X55721Y27420D1*
X55527D1*
X55235Y27516D1*
X55042Y27808D1*
X54943Y28294D1*
Y28586D1*
X55042Y29071D1*
X55235Y29363D1*
X55527Y29459D1*
X55721D1*
X55042Y29071D2*
X56208Y27808D1*
X54316Y29071D2*
X54121Y29170D1*
X53829Y29459D1*
Y27420D1*
X52035Y29459D2*
X53006D1*
X53102Y28586D1*
X53006Y28682D1*
X52714Y28781D1*
X52424D1*
X52132Y28682D1*
X51937Y28489D1*
X51840Y28197D1*
Y28004D1*
X51937Y27712D1*
X52132Y27516D1*
X52424Y27420D1*
X52714D1*
X53006Y27516D1*
X53102Y27615D1*
X53201Y27808D1*
X30546Y28085D2*
X29670D1*
X29381Y28182D1*
X29282Y28280D1*
X29185Y28474D1*
Y28766D1*
X29282Y28959D1*
X29381Y29058D1*
X29670Y29154D1*
X30546D1*
Y27112D1*
X28558Y27890D2*
X27392D1*
Y28085D1*
X27489Y28280D1*
X27585Y28377D1*
X27781Y28474D1*
X28073D1*
X28266Y28377D1*
X28461Y28182D1*
X28558Y27890D1*
Y27696D1*
X28461Y27404D1*
X28266Y27211D1*
X28073Y27112D1*
X27781D1*
X27585Y27211D1*
X27392Y27404D1*
X25599Y28474D2*
Y27112D1*
Y28182D2*
X25792Y28377D1*
X25987Y28474D1*
X26277D1*
X26473Y28377D1*
X26666Y28182D1*
X26765Y27890D1*
Y27696D1*
X26666Y27404D1*
X26473Y27211D1*
X26277Y27112D1*
X25987D1*
X25792Y27211D1*
X25599Y27404D1*
X23803Y28182D2*
X23999Y28377D1*
X24194Y28474D1*
X24484D1*
X24679Y28377D1*
X24872Y28182D1*
X24971Y27890D1*
Y27696D1*
X24872Y27404D1*
X24679Y27211D1*
X24484Y27112D1*
X24194D1*
X23999Y27211D1*
X23803Y27404D1*
X23176Y27890D2*
X22010D1*
Y28085D1*
X22107Y28280D1*
X22203Y28377D1*
X22399Y28474D1*
X22691D1*
X22884Y28377D1*
X23079Y28182D1*
X23176Y27890D1*
Y27696D1*
X23079Y27404D1*
X22884Y27211D1*
X22691Y27112D1*
X22399D1*
X22203Y27211D1*
X22010Y27404D1*
M02*
