G04 DipTrace 2.4.0.2*
%INpeace.gto*%
%MOMM*%
%ADD10C,0.25*%
%ADD17C,0.4*%
%ADD23O,0.437X0.4*%
%ADD28O,0.5X0.5*%
%ADD31O,0.925X0.975*%
%ADD36O,0.975X0.925*%
%ADD41C,0.15*%
%ADD45O,3.825X4.663*%
%ADD68C,0.118*%
%ADD69C,0.314*%
%FSLAX53Y53*%
G04*
G71*
G90*
G75*
G01*
%LNTopSilk*%
%LPD*%
D23*
X32851Y41671D3*
X32706Y42588D2*
D10*
X32206Y43088D1*
Y46088D2*
Y46588D1*
X32706D1*
X35706D2*
X36206D1*
Y46088D1*
X35706Y42588D2*
X36206D1*
Y43088D1*
X49851Y23774D2*
Y25774D1*
X46451Y23774D2*
Y25774D1*
D28*
X50026Y26024D3*
X38659Y25723D2*
D10*
Y23723D1*
X43659Y25723D2*
Y23723D1*
Y22523D2*
Y20523D1*
X38659Y22523D2*
Y20523D1*
D31*
X38297Y20660D3*
X49505Y20466D2*
D10*
X47806D1*
X49505Y22766D2*
X47806D1*
X38659Y34723D2*
Y32723D1*
X43659Y34723D2*
Y32723D1*
Y31523D2*
Y29523D1*
X38659Y31523D2*
Y29523D1*
D31*
X38297Y29660D3*
X38659Y43723D2*
D10*
Y41723D1*
X43659Y43723D2*
Y41723D1*
Y40523D2*
Y38523D1*
X38659Y40523D2*
Y38523D1*
D31*
X38297Y38660D3*
X38659Y52723D2*
D10*
Y50723D1*
X43659Y52723D2*
Y50723D1*
Y49523D2*
Y47523D1*
X38659Y49523D2*
Y47523D1*
D31*
X38297Y47660D3*
X38659Y61723D2*
D10*
Y59723D1*
X43659Y61723D2*
Y59723D1*
Y58523D2*
Y56523D1*
X38659Y58523D2*
Y56523D1*
D36*
X38297Y56660D3*
X33089Y29517D2*
D10*
X34503Y30931D1*
X29553Y33052D2*
X30967Y34467D1*
X31816Y35315D2*
X33230Y36729D1*
X35352Y31779D2*
X36766Y33193D1*
D36*
X36925Y32840D3*
X27089Y23517D2*
D10*
X28503Y24931D1*
X23553Y27052D2*
X24967Y28467D1*
X25816Y29315D2*
X27230Y30729D1*
X29351Y25779D2*
X30766Y27193D1*
D31*
X30925Y26840D3*
X51547Y27691D2*
D10*
X52961Y26277D1*
X55083Y31227D2*
X56497Y29812D1*
X57345Y28963D2*
X58759Y27549D1*
X53809Y25428D2*
X55224Y24014D1*
D31*
X54870Y23854D3*
X45790Y46321D2*
D10*
X48790D1*
Y39321D1*
X45790D1*
Y46321D1*
D17*
X34083Y21467D3*
X33958Y21692D2*
D41*
X36158D1*
Y23892D1*
X33958D1*
Y21692D1*
X45547Y33691D2*
D10*
X46961Y32277D1*
X49083Y37226D2*
X50497Y35813D1*
X51345Y34964D2*
X52759Y33549D1*
X47809Y31428D2*
X49224Y30014D1*
D36*
X48870Y29855D3*
X65659Y43723D2*
D10*
Y41723D1*
X70659Y43723D2*
Y41723D1*
Y40523D2*
Y38523D1*
X65659Y40523D2*
Y38523D1*
D31*
X65297Y38660D3*
X63487Y51538D2*
D10*
X64137Y49646D1*
X68217Y53161D2*
X68866Y51269D1*
X69256Y50134D2*
X69905Y48242D1*
X64526Y48510D2*
X65176Y46619D1*
D31*
X64789Y46631D3*
X58895Y58223D2*
D10*
X60124Y56645D1*
X62841Y61294D2*
X64070Y59716D1*
X64807Y58769D2*
X66035Y57191D1*
X60861Y55698D2*
X62089Y54120D1*
D31*
X61719Y54005D3*
X52383Y63055D2*
D10*
X54057Y61961D1*
X55118Y67241D2*
X56793Y66147D1*
X57797Y65491D2*
X59472Y64397D1*
X55062Y61305D2*
X56736Y60211D1*
D31*
X56424Y59982D3*
X44653Y65512D2*
D10*
X46592Y65021D1*
X45880Y70359D2*
X47819Y69868D1*
X48983Y69573D2*
X50921Y69082D1*
X47755Y64726D2*
X49694Y64235D1*
D36*
X49472Y63917D3*
X36545Y65325D2*
D10*
X38538Y65490D1*
X36132Y70308D2*
X38125Y70473D1*
X39321Y70572D2*
X41314Y70737D1*
X39734Y65589D2*
X41727Y65754D1*
D36*
X41620Y65382D3*
X28937Y62515D2*
D10*
X30768Y63318D1*
X26928Y67094D2*
X28759Y67897D1*
X29858Y68379D2*
X31690Y69183D1*
X31867Y63801D2*
X33698Y64604D1*
D36*
X33719Y64217D3*
X22653Y57388D2*
D10*
X24124Y58742D1*
X19266Y61066D2*
X20738Y62421D1*
X21621Y63233D2*
X23092Y64588D1*
X25007Y59555D2*
X26478Y60909D1*
D36*
X26623Y60550D3*
X18375Y50497D2*
D10*
X19327Y52257D1*
X13977Y52878D2*
X14929Y54636D1*
X15500Y55691D2*
X16452Y57451D1*
X19898Y53312D2*
X20850Y55070D1*
D31*
X21103Y54778D3*
X16565Y42591D2*
D10*
X16894Y44563D1*
X11633Y43414D2*
X11963Y45387D1*
X12160Y46570D2*
X12490Y48543D1*
X17092Y45747D2*
X17421Y47720D1*
D31*
X17756Y47525D3*
X17421Y34526D2*
D10*
X17092Y36499D1*
X12489Y33703D2*
X12160Y35675D1*
X11963Y36859D2*
X11633Y38832D1*
X16895Y37682D2*
X16565Y39655D1*
D31*
X16946Y39579D3*
X20850Y27175D2*
D10*
X19898Y28934D1*
X16452Y24795D2*
X15500Y26554D1*
X14929Y27610D2*
X13977Y29369D1*
X19327Y29989D2*
X18375Y31748D1*
D31*
X18758Y31800D3*
X26478Y21337D2*
D10*
X25007Y22691D1*
X23092Y17658D2*
X21621Y19013D1*
X20738Y19825D2*
X19266Y21179D1*
X24124Y23504D2*
X22653Y24858D1*
D36*
X22999Y25032D3*
X33699Y17641D2*
D10*
X31868Y18445D1*
X31689Y13063D2*
X29858Y13867D1*
X28759Y14349D2*
X26928Y15153D1*
X30769Y18927D2*
X28938Y19731D1*
D36*
X29209Y20008D3*
X41727Y16492D2*
D10*
X39734Y16657D1*
X41314Y11509D2*
X39320Y11674D1*
X38125Y11773D2*
X36132Y11938D1*
X38538Y16756D2*
X36545Y16921D1*
D36*
X36712Y17271D3*
X49695Y18011D2*
D10*
X47755Y17520D1*
X50921Y13163D2*
X48983Y12673D1*
X47819Y12378D2*
X45880Y11888D1*
X46592Y17226D2*
X44653Y16735D1*
D36*
X44698Y17120D3*
X56734Y22035D2*
D10*
X55060Y20941D1*
X59472Y17852D2*
X57799Y16757D1*
X56794Y16100D2*
X55121Y15004D1*
X54056Y20283D2*
X52382Y19189D1*
D36*
X52299Y19567D3*
X62090Y28126D2*
D10*
X60862Y26548D1*
X66036Y25055D2*
X64808Y23477D1*
X64071Y22530D2*
X62842Y20952D1*
X60125Y25602D2*
X58897Y24023D1*
D31*
X58695Y24354D3*
X65173Y35626D2*
D10*
X64525Y33733D1*
X69904Y34006D2*
X69256Y32114D1*
X68868Y30979D2*
X68220Y29086D1*
X64137Y32599D2*
X63489Y30706D1*
D31*
X63190Y30953D3*
X49555Y55069D2*
D10*
G03X52579Y58419I-218J3237D01*
G01*
D45*
X50792Y58125D3*
G36*
X49505Y55143D2*
X49354Y57193D1*
X52304Y57768D1*
X51405Y55843D1*
X50455Y55318D1*
D1*
X49505Y55143D1*
G37*
X33928Y48254D2*
D68*
Y47707D1*
X33949Y47598D1*
X33993Y47525D1*
X34059Y47488D1*
X34102D1*
X34168Y47525D1*
X34212Y47598D1*
X34234Y47707D1*
Y48254D1*
X34375Y48107D2*
X34419Y48144D1*
X34485Y48253D1*
Y47488D1*
X50212Y24956D2*
Y24409D1*
X50233Y24300D1*
X50277Y24227D1*
X50343Y24190D1*
X50386D1*
X50452Y24227D1*
X50496Y24300D1*
X50518Y24409D1*
Y24956D1*
X50681Y24773D2*
Y24809D1*
X50703Y24883D1*
X50725Y24919D1*
X50769Y24955D1*
X50856D1*
X50900Y24919D1*
X50921Y24883D1*
X50944Y24809D1*
Y24737D1*
X50921Y24664D1*
X50878Y24555D1*
X50659Y24190D1*
X50965D1*
X28436Y44809D2*
Y44226D1*
X28414Y44116D1*
X28392Y44080D1*
X28348Y44043D1*
X28304D1*
X28261Y44080D1*
X28239Y44116D1*
X28217Y44226D1*
Y44298D1*
X28577Y44662D2*
X28621Y44699D1*
X28686Y44808D1*
Y44043D1*
X40370Y27489D2*
Y26942D1*
X40392Y26833D1*
X40436Y26760D1*
X40501Y26723D1*
X40545D1*
X40611Y26760D1*
X40654Y26833D1*
X40676Y26942D1*
Y27489D1*
X40861Y27488D2*
X41101D1*
X40971Y27197D1*
X41036D1*
X41080Y27160D1*
X41101Y27124D1*
X41124Y27015D1*
Y26942D1*
X41101Y26833D1*
X41058Y26759D1*
X40992Y26723D1*
X40927D1*
X40861Y26759D1*
X40840Y26797D1*
X40817Y26869D1*
X48169Y28743D2*
X48148Y28816D1*
X48104Y28889D1*
X48060Y28925D1*
X47973D1*
X47929Y28889D1*
X47885Y28816D1*
X47863Y28743D1*
X47841Y28634D1*
Y28451D1*
X47863Y28342D1*
X47885Y28269D1*
X47929Y28196D1*
X47973Y28159D1*
X48060D1*
X48104Y28196D1*
X48148Y28269D1*
X48169Y28342D1*
X48310Y28778D2*
X48354Y28816D1*
X48420Y28924D1*
Y28159D1*
X45609Y27120D2*
X45587Y27193D1*
X45543Y27266D1*
X45500Y27302D1*
X45412D1*
X45368Y27266D1*
X45325Y27193D1*
X45303Y27120D1*
X45281Y27011D1*
Y26828D1*
X45303Y26719D1*
X45325Y26646D1*
X45368Y26573D1*
X45412Y26536D1*
X45500D1*
X45543Y26573D1*
X45587Y26646D1*
X45609Y26719D1*
X45772Y27119D2*
Y27156D1*
X45794Y27229D1*
X45816Y27265D1*
X45860Y27301D1*
X45947D1*
X45991Y27265D1*
X46012Y27229D1*
X46035Y27156D1*
Y27083D1*
X46012Y27010D1*
X45969Y26901D1*
X45750Y26536D1*
X46056D1*
X50314Y22174D2*
Y21408D1*
X50576D1*
X50717Y22027D2*
X50761Y22064D1*
X50827Y22173D1*
Y21408D1*
X40359Y36489D2*
Y35942D1*
X40381Y35833D1*
X40425Y35760D1*
X40490Y35723D1*
X40534D1*
X40600Y35760D1*
X40644Y35833D1*
X40665Y35942D1*
Y36489D1*
X41025Y35723D2*
Y36488D1*
X40807Y35978D1*
X41135D1*
X40370Y45489D2*
Y44942D1*
X40392Y44833D1*
X40436Y44760D1*
X40501Y44723D1*
X40545D1*
X40611Y44760D1*
X40654Y44833D1*
X40676Y44942D1*
Y45489D1*
X41080Y45488D2*
X40861D1*
X40840Y45160D1*
X40861Y45197D1*
X40927Y45234D1*
X40992D1*
X41058Y45197D1*
X41102Y45124D1*
X41124Y45015D1*
Y44942D1*
X41102Y44833D1*
X41058Y44759D1*
X40992Y44723D1*
X40927D1*
X40861Y44759D1*
X40840Y44797D1*
X40817Y44869D1*
X40381Y54476D2*
Y53930D1*
X40403Y53820D1*
X40447Y53748D1*
X40512Y53711D1*
X40556D1*
X40622Y53748D1*
X40666Y53820D1*
X40687Y53930D1*
Y54476D1*
X41091Y54367D2*
X41069Y54439D1*
X41003Y54476D1*
X40960D1*
X40894Y54439D1*
X40850Y54330D1*
X40829Y54148D1*
Y53966D1*
X40850Y53820D1*
X40894Y53747D1*
X40960Y53711D1*
X40982D1*
X41047Y53747D1*
X41091Y53820D1*
X41113Y53930D1*
Y53966D1*
X41091Y54075D1*
X41047Y54148D1*
X40982Y54184D1*
X40960D1*
X40894Y54148D1*
X40850Y54075D1*
X40829Y53966D1*
X40357Y63476D2*
Y62930D1*
X40379Y62820D1*
X40423Y62748D1*
X40489Y62711D1*
X40532D1*
X40598Y62748D1*
X40642Y62820D1*
X40664Y62930D1*
Y63476D1*
X40892Y62711D2*
X41111Y63476D1*
X40805D1*
X33034Y37988D2*
Y37442D1*
X33056Y37332D1*
X33100Y37260D1*
X33166Y37223D1*
X33209D1*
X33275Y37260D1*
X33319Y37332D1*
X33341Y37442D1*
Y37988D1*
X33591D2*
X33526Y37951D1*
X33504Y37879D1*
Y37806D1*
X33526Y37733D1*
X33569Y37696D1*
X33657Y37660D1*
X33722Y37624D1*
X33766Y37550D1*
X33788Y37478D1*
Y37368D1*
X33766Y37296D1*
X33744Y37259D1*
X33679Y37223D1*
X33591D1*
X33526Y37259D1*
X33504Y37296D1*
X33482Y37368D1*
Y37478D1*
X33504Y37550D1*
X33548Y37624D1*
X33613Y37660D1*
X33700Y37696D1*
X33744Y37733D1*
X33766Y37806D1*
Y37879D1*
X33744Y37951D1*
X33679Y37988D1*
X33591D1*
X27033Y31988D2*
Y31442D1*
X27054Y31332D1*
X27098Y31260D1*
X27164Y31223D1*
X27207D1*
X27273Y31260D1*
X27317Y31332D1*
X27339Y31442D1*
Y31988D1*
X27765Y31733D2*
X27742Y31624D1*
X27699Y31550D1*
X27633Y31514D1*
X27611D1*
X27546Y31550D1*
X27502Y31624D1*
X27480Y31733D1*
Y31769D1*
X27502Y31879D1*
X27546Y31951D1*
X27611Y31988D1*
X27633D1*
X27699Y31951D1*
X27742Y31879D1*
X27765Y31733D1*
Y31550D1*
X27742Y31368D1*
X27699Y31259D1*
X27633Y31223D1*
X27590D1*
X27524Y31259D1*
X27502Y31332D1*
X54651Y32486D2*
Y31939D1*
X54672Y31830D1*
X54716Y31757D1*
X54782Y31720D1*
X54826D1*
X54891Y31757D1*
X54935Y31830D1*
X54957Y31939D1*
Y32486D1*
X55098Y32339D2*
X55142Y32376D1*
X55208Y32485D1*
Y31720D1*
X55480Y32485D2*
X55415Y32449D1*
X55371Y32339D1*
X55349Y32157D1*
Y32048D1*
X55371Y31866D1*
X55415Y31756D1*
X55480Y31720D1*
X55524D1*
X55590Y31756D1*
X55633Y31866D1*
X55655Y32048D1*
Y32157D1*
X55633Y32339D1*
X55590Y32449D1*
X55524Y32485D1*
X55480D1*
X55633Y32339D2*
X55371Y31866D1*
X46287Y48087D2*
Y47540D1*
X46309Y47431D1*
X46353Y47358D1*
X46419Y47321D1*
X46462D1*
X46528Y47358D1*
X46572Y47431D1*
X46594Y47540D1*
Y48087D1*
X46735Y47940D2*
X46779Y47978D1*
X46844Y48086D1*
Y47321D1*
X47248Y48086D2*
X47030D1*
X47008Y47759D1*
X47030Y47795D1*
X47095Y47832D1*
X47160D1*
X47226Y47795D1*
X47270Y47722D1*
X47292Y47613D1*
Y47540D1*
X47270Y47431D1*
X47226Y47358D1*
X47160Y47321D1*
X47095D1*
X47030Y47358D1*
X47008Y47395D1*
X46986Y47467D1*
X34403Y42683D2*
X34381Y42755D1*
X34337Y42829D1*
X34293Y42865D1*
X34206D1*
X34162Y42829D1*
X34118Y42755D1*
X34096Y42683D1*
X34075Y42573D1*
Y42391D1*
X34096Y42282D1*
X34118Y42209D1*
X34162Y42136D1*
X34206Y42099D1*
X34293D1*
X34337Y42136D1*
X34381Y42209D1*
X34403Y42282D1*
X34588Y42864D2*
X34828D1*
X34697Y42573D1*
X34763D1*
X34806Y42536D1*
X34828Y42500D1*
X34850Y42391D1*
Y42318D1*
X34828Y42209D1*
X34784Y42135D1*
X34719Y42099D1*
X34653D1*
X34588Y42135D1*
X34566Y42172D1*
X34544Y42245D1*
X31751Y20063D2*
X31948D1*
X32014Y20100D1*
X32036Y20136D1*
X32058Y20209D1*
Y20282D1*
X32036Y20354D1*
X32014Y20391D1*
X31948Y20428D1*
X31751D1*
Y19662D1*
X31904Y20063D2*
X32058Y19662D1*
X32199Y20281D2*
X32243Y20318D1*
X32308Y20427D1*
Y19662D1*
X31962Y24481D2*
X32159D1*
X32225Y24518D1*
X32247Y24554D1*
X32269Y24626D1*
Y24700D1*
X32247Y24772D1*
X32225Y24809D1*
X32159Y24845D1*
X31962D1*
Y24080D1*
X32115Y24481D2*
X32269Y24080D1*
X32432Y24662D2*
Y24699D1*
X32454Y24772D1*
X32475Y24808D1*
X32519Y24844D1*
X32607D1*
X32650Y24808D1*
X32672Y24772D1*
X32694Y24699D1*
Y24626D1*
X32672Y24553D1*
X32629Y24444D1*
X32410Y24080D1*
X32716D1*
X36976Y23008D2*
X36955Y23080D1*
X36911Y23154D1*
X36867Y23190D1*
X36780D1*
X36736Y23154D1*
X36692Y23080D1*
X36670Y23008D1*
X36648Y22898D1*
Y22716D1*
X36670Y22607D1*
X36692Y22534D1*
X36736Y22461D1*
X36780Y22424D1*
X36867D1*
X36911Y22461D1*
X36955Y22534D1*
X36976Y22607D1*
X37336Y22424D2*
Y23189D1*
X37117Y22679D1*
X37445D1*
X32360Y27179D2*
X32339Y27251D1*
X32295Y27325D1*
X32251Y27361D1*
X32164D1*
X32120Y27325D1*
X32076Y27251D1*
X32054Y27179D1*
X32032Y27069D1*
Y26887D1*
X32054Y26778D1*
X32076Y26705D1*
X32120Y26632D1*
X32164Y26595D1*
X32251D1*
X32295Y26632D1*
X32339Y26705D1*
X32360Y26778D1*
X32764Y27360D2*
X32545D1*
X32524Y27032D1*
X32545Y27069D1*
X32611Y27106D1*
X32676D1*
X32742Y27069D1*
X32786Y26996D1*
X32808Y26887D1*
Y26814D1*
X32786Y26705D1*
X32742Y26631D1*
X32676Y26595D1*
X32611D1*
X32545Y26631D1*
X32524Y26668D1*
X32501Y26741D1*
X37014Y25287D2*
X36942Y25265D1*
X36869Y25221D1*
X36832Y25178D1*
Y25090D1*
X36869Y25046D1*
X36942Y25003D1*
X37014Y24981D1*
X37124Y24959D1*
X37307D1*
X37415Y24981D1*
X37488Y25003D1*
X37561Y25046D1*
X37598Y25090D1*
Y25178D1*
X37561Y25221D1*
X37488Y25265D1*
X37415Y25287D1*
X36942Y25691D2*
X36869Y25669D1*
X36833Y25603D1*
Y25560D1*
X36869Y25494D1*
X36979Y25450D1*
X37161Y25428D1*
X37343D1*
X37488Y25450D1*
X37562Y25494D1*
X37598Y25560D1*
Y25581D1*
X37562Y25647D1*
X37488Y25691D1*
X37379Y25712D1*
X37343D1*
X37233Y25691D1*
X37161Y25647D1*
X37125Y25581D1*
Y25560D1*
X37161Y25494D1*
X37233Y25450D1*
X37343Y25428D1*
X35705Y26705D2*
X35684Y26778D1*
X35640Y26851D1*
X35596Y26887D1*
X35509D1*
X35465Y26851D1*
X35421Y26778D1*
X35399Y26705D1*
X35377Y26596D1*
Y26413D1*
X35399Y26304D1*
X35421Y26231D1*
X35465Y26158D1*
X35509Y26121D1*
X35596D1*
X35640Y26158D1*
X35684Y26231D1*
X35705Y26304D1*
X35934Y26121D2*
X36153Y26886D1*
X35846D1*
X32818Y23297D2*
Y22751D1*
X32840Y22641D1*
X32884Y22569D1*
X32950Y22532D1*
X32993D1*
X33059Y22569D1*
X33103Y22641D1*
X33125Y22751D1*
Y23297D1*
X33266Y23151D2*
X33310Y23188D1*
X33375Y23296D1*
Y22532D1*
X33517Y23151D2*
X33561Y23188D1*
X33626Y23296D1*
Y22532D1*
X48651Y38486D2*
Y37939D1*
X48672Y37830D1*
X48716Y37757D1*
X48782Y37720D1*
X48826D1*
X48891Y37757D1*
X48935Y37830D1*
X48957Y37939D1*
Y38486D1*
X49098Y38339D2*
X49142Y38376D1*
X49208Y38485D1*
Y37720D1*
X49371Y38303D2*
Y38339D1*
X49393Y38412D1*
X49415Y38449D1*
X49459Y38485D1*
X49546D1*
X49590Y38449D1*
X49611Y38412D1*
X49634Y38339D1*
Y38267D1*
X49611Y38193D1*
X49568Y38085D1*
X49349Y37720D1*
X49655D1*
X67245Y45489D2*
Y44942D1*
X67266Y44833D1*
X67310Y44760D1*
X67376Y44723D1*
X67419D1*
X67485Y44760D1*
X67529Y44833D1*
X67551Y44942D1*
Y45489D1*
X67692Y45342D2*
X67736Y45379D1*
X67802Y45488D1*
Y44723D1*
X67987Y45488D2*
X68227D1*
X68096Y45197D1*
X68162D1*
X68205Y45160D1*
X68227Y45124D1*
X68249Y45015D1*
Y44942D1*
X68227Y44833D1*
X68183Y44759D1*
X68118Y44723D1*
X68052D1*
X67987Y44759D1*
X67965Y44797D1*
X67943Y44869D1*
X66183Y54705D2*
Y54158D1*
X66205Y54049D1*
X66249Y53976D1*
X66314Y53939D1*
X66358D1*
X66424Y53976D1*
X66468Y54049D1*
X66489Y54158D1*
Y54705D1*
X66631Y54558D2*
X66674Y54595D1*
X66740Y54704D1*
Y53939D1*
X67100D2*
Y54704D1*
X66881Y54194D1*
X67209D1*
X61386Y62890D2*
Y62343D1*
X61408Y62234D1*
X61452Y62161D1*
X61517Y62124D1*
X61561D1*
X61626Y62161D1*
X61670Y62234D1*
X61692Y62343D1*
Y62890D1*
X61833Y62743D2*
X61877Y62780D1*
X61943Y62889D1*
Y62124D1*
X62346Y62780D2*
X62325Y62853D1*
X62259Y62889D1*
X62216D1*
X62150Y62853D1*
X62106Y62743D1*
X62084Y62561D1*
Y62379D1*
X62106Y62234D1*
X62150Y62160D1*
X62216Y62124D1*
X62237D1*
X62303Y62160D1*
X62346Y62234D1*
X62368Y62343D1*
Y62379D1*
X62346Y62489D1*
X62303Y62561D1*
X62237Y62597D1*
X62216D1*
X62150Y62561D1*
X62106Y62489D1*
X62084Y62379D1*
X60015Y64120D2*
Y63573D1*
X60036Y63464D1*
X60080Y63391D1*
X60146Y63354D1*
X60189D1*
X60255Y63391D1*
X60299Y63464D1*
X60321Y63573D1*
Y64120D1*
X60462Y63973D2*
X60506Y64010D1*
X60572Y64119D1*
Y63354D1*
X60822Y64119D2*
X60757Y64083D1*
X60735Y64010D1*
Y63937D1*
X60757Y63865D1*
X60800Y63828D1*
X60888Y63791D1*
X60953Y63755D1*
X60997Y63682D1*
X61019Y63609D1*
Y63500D1*
X60997Y63428D1*
X60975Y63390D1*
X60909Y63354D1*
X60822D1*
X60757Y63390D1*
X60735Y63428D1*
X60713Y63500D1*
Y63609D1*
X60735Y63682D1*
X60779Y63755D1*
X60844Y63791D1*
X60931Y63828D1*
X60975Y63865D1*
X60997Y63937D1*
Y64010D1*
X60975Y64083D1*
X60909Y64119D1*
X60822D1*
X51885Y69562D2*
Y69016D1*
X51907Y68906D1*
X51951Y68834D1*
X52017Y68797D1*
X52060D1*
X52126Y68834D1*
X52170Y68906D1*
X52191Y69016D1*
Y69562D1*
X52333Y69416D2*
X52377Y69453D1*
X52442Y69562D1*
Y68797D1*
X52868Y69307D2*
X52846Y69198D1*
X52802Y69124D1*
X52737Y69088D1*
X52715D1*
X52649Y69124D1*
X52606Y69198D1*
X52584Y69307D1*
Y69343D1*
X52606Y69453D1*
X52649Y69525D1*
X52715Y69562D1*
X52737D1*
X52802Y69525D1*
X52846Y69453D1*
X52868Y69307D1*
Y69124D1*
X52846Y68942D1*
X52802Y68833D1*
X52737Y68797D1*
X52693D1*
X52627Y68833D1*
X52606Y68906D1*
X42281Y71088D2*
Y70541D1*
X42302Y70432D1*
X42346Y70360D1*
X42412Y70322D1*
X42456D1*
X42521Y70360D1*
X42565Y70432D1*
X42587Y70541D1*
Y71088D1*
X42750Y70905D2*
Y70942D1*
X42772Y71015D1*
X42794Y71051D1*
X42838Y71087D1*
X42925D1*
X42969Y71051D1*
X42990Y71015D1*
X43013Y70942D1*
Y70869D1*
X42990Y70796D1*
X42947Y70687D1*
X42728Y70322D1*
X43034D1*
X43307Y71087D2*
X43241Y71051D1*
X43197Y70942D1*
X43176Y70760D1*
Y70650D1*
X43197Y70468D1*
X43241Y70359D1*
X43307Y70322D1*
X43350D1*
X43416Y70359D1*
X43460Y70468D1*
X43482Y70650D1*
Y70760D1*
X43460Y70942D1*
X43416Y71051D1*
X43350Y71087D1*
X43307D1*
X43460Y70942D2*
X43197Y70468D1*
X32494Y70044D2*
Y69497D1*
X32516Y69388D1*
X32560Y69315D1*
X32626Y69278D1*
X32669D1*
X32735Y69315D1*
X32779Y69388D1*
X32801Y69497D1*
Y70044D1*
X32964Y69861D2*
Y69897D1*
X32986Y69970D1*
X33008Y70007D1*
X33052Y70043D1*
X33139D1*
X33182Y70007D1*
X33204Y69970D1*
X33226Y69897D1*
Y69825D1*
X33204Y69751D1*
X33161Y69643D1*
X32942Y69278D1*
X33248D1*
X33389Y69897D2*
X33433Y69934D1*
X33499Y70043D1*
Y69278D1*
X23587Y65885D2*
Y65339D1*
X23609Y65229D1*
X23653Y65157D1*
X23718Y65120D1*
X23762D1*
X23828Y65157D1*
X23871Y65229D1*
X23893Y65339D1*
Y65885D1*
X24057Y65703D2*
Y65739D1*
X24078Y65812D1*
X24100Y65848D1*
X24144Y65885D1*
X24232D1*
X24275Y65848D1*
X24297Y65812D1*
X24319Y65739D1*
Y65666D1*
X24297Y65593D1*
X24253Y65484D1*
X24034Y65120D1*
X24341D1*
X24504Y65703D2*
Y65739D1*
X24526Y65812D1*
X24548Y65848D1*
X24592Y65885D1*
X24679D1*
X24722Y65848D1*
X24744Y65812D1*
X24766Y65739D1*
Y65666D1*
X24744Y65593D1*
X24701Y65484D1*
X24482Y65120D1*
X24788D1*
X17171Y58881D2*
Y58334D1*
X17192Y58225D1*
X17236Y58153D1*
X17302Y58115D1*
X17346D1*
X17411Y58153D1*
X17455Y58225D1*
X17477Y58334D1*
Y58881D1*
X17640Y58698D2*
Y58735D1*
X17662Y58808D1*
X17684Y58844D1*
X17728Y58880D1*
X17815D1*
X17859Y58844D1*
X17881Y58808D1*
X17903Y58735D1*
Y58662D1*
X17881Y58589D1*
X17837Y58480D1*
X17618Y58115D1*
X17924D1*
X18110Y58880D2*
X18350D1*
X18219Y58589D1*
X18284D1*
X18328Y58553D1*
X18350Y58516D1*
X18372Y58407D1*
Y58334D1*
X18350Y58225D1*
X18306Y58152D1*
X18241Y58115D1*
X18175D1*
X18110Y58152D1*
X18088Y58189D1*
X18066Y58261D1*
X14315Y50199D2*
Y49652D1*
X14336Y49543D1*
X14380Y49470D1*
X14446Y49433D1*
X14489D1*
X14555Y49470D1*
X14599Y49543D1*
X14621Y49652D1*
Y50199D1*
X14784Y50016D2*
Y50052D1*
X14806Y50126D1*
X14828Y50162D1*
X14872Y50198D1*
X14959D1*
X15003Y50162D1*
X15024Y50126D1*
X15047Y50052D1*
Y49980D1*
X15024Y49907D1*
X14981Y49798D1*
X14762Y49433D1*
X15068D1*
X15428D2*
Y50198D1*
X15209Y49689D1*
X15537D1*
X13927Y41311D2*
Y40764D1*
X13949Y40655D1*
X13993Y40582D1*
X14058Y40545D1*
X14102D1*
X14167Y40582D1*
X14211Y40655D1*
X14233Y40764D1*
Y41311D1*
X14397Y41128D2*
Y41164D1*
X14418Y41238D1*
X14440Y41274D1*
X14484Y41310D1*
X14571D1*
X14615Y41274D1*
X14637Y41238D1*
X14659Y41164D1*
Y41092D1*
X14637Y41019D1*
X14593Y40910D1*
X14374Y40545D1*
X14681D1*
X15084Y41310D2*
X14866D1*
X14844Y40982D1*
X14866Y41019D1*
X14931Y41056D1*
X14997D1*
X15062Y41019D1*
X15106Y40946D1*
X15128Y40837D1*
Y40764D1*
X15106Y40655D1*
X15062Y40582D1*
X14997Y40545D1*
X14931D1*
X14866Y40582D1*
X14844Y40619D1*
X14822Y40691D1*
X16824Y33404D2*
Y32857D1*
X16846Y32748D1*
X16890Y32675D1*
X16955Y32638D1*
X16999D1*
X17064Y32675D1*
X17108Y32748D1*
X17130Y32857D1*
Y33404D1*
X17294Y33221D2*
Y33257D1*
X17315Y33331D1*
X17337Y33367D1*
X17381Y33403D1*
X17468D1*
X17512Y33367D1*
X17534Y33331D1*
X17556Y33257D1*
Y33185D1*
X17534Y33112D1*
X17490Y33003D1*
X17271Y32638D1*
X17578D1*
X17981Y33294D2*
X17959Y33367D1*
X17894Y33403D1*
X17850D1*
X17784Y33367D1*
X17741Y33257D1*
X17719Y33075D1*
Y32893D1*
X17741Y32748D1*
X17784Y32674D1*
X17850Y32638D1*
X17872D1*
X17937Y32674D1*
X17981Y32748D1*
X18003Y32857D1*
Y32893D1*
X17981Y33003D1*
X17937Y33075D1*
X17872Y33112D1*
X17850D1*
X17784Y33075D1*
X17741Y33003D1*
X17719Y32893D1*
X22272Y26610D2*
Y26064D1*
X22293Y25954D1*
X22337Y25882D1*
X22403Y25845D1*
X22447D1*
X22512Y25882D1*
X22556Y25954D1*
X22578Y26064D1*
Y26610D1*
X22741Y26428D2*
Y26464D1*
X22763Y26537D1*
X22785Y26573D1*
X22829Y26610D1*
X22916D1*
X22960Y26573D1*
X22981Y26537D1*
X23004Y26464D1*
Y26391D1*
X22981Y26318D1*
X22938Y26209D1*
X22719Y25845D1*
X23025D1*
X23254D2*
X23473Y26610D1*
X23167D1*
X29713Y21586D2*
Y21040D1*
X29735Y20930D1*
X29779Y20858D1*
X29844Y20821D1*
X29888D1*
X29954Y20858D1*
X29998Y20930D1*
X30019Y21040D1*
Y21586D1*
X30183Y21404D2*
Y21440D1*
X30204Y21513D1*
X30226Y21549D1*
X30270Y21586D1*
X30358D1*
X30401Y21549D1*
X30423Y21513D1*
X30445Y21440D1*
Y21367D1*
X30423Y21294D1*
X30379Y21185D1*
X30160Y20821D1*
X30467D1*
X30717Y21586D2*
X30652Y21549D1*
X30630Y21477D1*
Y21404D1*
X30652Y21331D1*
X30695Y21294D1*
X30783Y21258D1*
X30848Y21222D1*
X30892Y21148D1*
X30914Y21076D1*
Y20966D1*
X30892Y20894D1*
X30870Y20857D1*
X30804Y20821D1*
X30717D1*
X30652Y20857D1*
X30630Y20894D1*
X30608Y20966D1*
Y21076D1*
X30630Y21148D1*
X30674Y21222D1*
X30739Y21258D1*
X30826Y21294D1*
X30870Y21331D1*
X30892Y21404D1*
Y21477D1*
X30870Y21549D1*
X30804Y21586D1*
X30717D1*
X38340Y18850D2*
Y18303D1*
X38361Y18193D1*
X38405Y18121D1*
X38471Y18084D1*
X38514D1*
X38580Y18121D1*
X38624Y18193D1*
X38646Y18303D1*
Y18850D1*
X38809Y18667D2*
Y18703D1*
X38831Y18776D1*
X38853Y18813D1*
X38897Y18849D1*
X38984D1*
X39028Y18813D1*
X39049Y18776D1*
X39072Y18703D1*
Y18631D1*
X39049Y18557D1*
X39006Y18449D1*
X38787Y18084D1*
X39093D1*
X39519Y18594D2*
X39497Y18485D1*
X39453Y18412D1*
X39388Y18375D1*
X39366D1*
X39300Y18412D1*
X39257Y18485D1*
X39234Y18594D1*
Y18631D1*
X39257Y18740D1*
X39300Y18813D1*
X39366Y18849D1*
X39388D1*
X39453Y18813D1*
X39497Y18740D1*
X39519Y18594D1*
Y18412D1*
X39497Y18230D1*
X39453Y18120D1*
X39388Y18084D1*
X39344D1*
X39278Y18120D1*
X39257Y18193D1*
X47187Y19126D2*
Y18580D1*
X47208Y18470D1*
X47252Y18398D1*
X47318Y18361D1*
X47362D1*
X47427Y18398D1*
X47471Y18470D1*
X47493Y18580D1*
Y19126D1*
X47678D2*
X47918D1*
X47787Y18834D1*
X47853D1*
X47896Y18798D1*
X47918Y18762D1*
X47940Y18652D1*
Y18580D1*
X47918Y18470D1*
X47875Y18397D1*
X47809Y18361D1*
X47743D1*
X47678Y18397D1*
X47656Y18434D1*
X47634Y18507D1*
X48213Y19126D2*
X48147Y19089D1*
X48103Y18980D1*
X48082Y18798D1*
Y18688D1*
X48103Y18507D1*
X48147Y18397D1*
X48213Y18361D1*
X48256D1*
X48322Y18397D1*
X48366Y18507D1*
X48388Y18688D1*
Y18798D1*
X48366Y18980D1*
X48322Y19089D1*
X48256Y19126D1*
X48213D1*
X48366Y18980D2*
X48103Y18507D1*
X55273Y23185D2*
Y22639D1*
X55295Y22529D1*
X55339Y22457D1*
X55405Y22420D1*
X55448D1*
X55514Y22457D1*
X55558Y22529D1*
X55579Y22639D1*
Y23185D1*
X55765D2*
X56005D1*
X55874Y22893D1*
X55939D1*
X55983Y22857D1*
X56005Y22821D1*
X56027Y22711D1*
Y22639D1*
X56005Y22529D1*
X55961Y22456D1*
X55895Y22420D1*
X55830D1*
X55765Y22456D1*
X55743Y22493D1*
X55721Y22566D1*
X56168Y23039D2*
X56212Y23076D1*
X56278Y23185D1*
Y22420D1*
X61568Y29461D2*
Y28915D1*
X61589Y28805D1*
X61633Y28733D1*
X61699Y28696D1*
X61742D1*
X61808Y28733D1*
X61852Y28805D1*
X61874Y28915D1*
Y29461D1*
X62059Y29460D2*
X62299D1*
X62168Y29169D1*
X62234D1*
X62277Y29133D1*
X62299Y29097D1*
X62321Y28987D1*
Y28915D1*
X62299Y28805D1*
X62256Y28732D1*
X62190Y28696D1*
X62124D1*
X62059Y28732D1*
X62037Y28769D1*
X62015Y28841D1*
X62485Y29278D2*
Y29315D1*
X62506Y29388D1*
X62528Y29424D1*
X62572Y29460D1*
X62660D1*
X62703Y29424D1*
X62725Y29388D1*
X62747Y29315D1*
Y29242D1*
X62725Y29169D1*
X62681Y29060D1*
X62462Y28696D1*
X62769D1*
X65715Y37170D2*
Y36623D1*
X65737Y36514D1*
X65781Y36442D1*
X65847Y36404D1*
X65890D1*
X65956Y36442D1*
X66000Y36514D1*
X66021Y36623D1*
Y37170D1*
X66207Y37169D2*
X66447D1*
X66316Y36878D1*
X66382D1*
X66425Y36842D1*
X66447Y36805D1*
X66469Y36696D1*
Y36623D1*
X66447Y36514D1*
X66403Y36441D1*
X66338Y36404D1*
X66272D1*
X66207Y36441D1*
X66185Y36478D1*
X66163Y36550D1*
X66654Y37169D2*
X66894D1*
X66763Y36878D1*
X66829D1*
X66872Y36842D1*
X66894Y36805D1*
X66916Y36696D1*
Y36623D1*
X66894Y36514D1*
X66851Y36441D1*
X66785Y36404D1*
X66719D1*
X66654Y36441D1*
X66632Y36478D1*
X66610Y36550D1*
X46048Y52564D2*
D69*
X44784D1*
Y50522D1*
Y51591D2*
X45561D1*
X46775Y51883D2*
X47356Y50522D1*
X47163Y50133D1*
X46968Y49938D1*
X46775Y49841D1*
X46676D1*
X47940Y51883D2*
X47356Y50522D1*
X48568Y52564D2*
Y50522D1*
Y51591D2*
X48763Y51786D1*
X48956Y51883D1*
X49248D1*
X49442Y51786D1*
X49637Y51591D1*
X49734Y51299D1*
Y51106D1*
X49637Y50814D1*
X49442Y50621D1*
X49248Y50522D1*
X48956D1*
X48763Y50621D1*
X48568Y50814D1*
X50361Y51299D2*
X51527D1*
Y51494D1*
X51430Y51690D1*
X51334Y51786D1*
X51138Y51883D1*
X50846D1*
X50653Y51786D1*
X50458Y51591D1*
X50361Y51299D1*
Y51106D1*
X50458Y50814D1*
X50653Y50621D1*
X50846Y50522D1*
X51138D1*
X51334Y50621D1*
X51527Y50814D1*
X52154Y51883D2*
Y50522D1*
Y51299D2*
X52253Y51591D1*
X52446Y51786D1*
X52642Y51883D1*
X52934D1*
X55536Y52564D2*
Y50522D1*
X56702D1*
X58495Y51883D2*
Y50522D1*
Y51591D2*
X58302Y51786D1*
X58107Y51883D1*
X57817D1*
X57622Y51786D1*
X57428Y51591D1*
X57330Y51299D1*
Y51106D1*
X57428Y50814D1*
X57622Y50621D1*
X57817Y50522D1*
X58107D1*
X58302Y50621D1*
X58495Y50814D1*
X59123Y52564D2*
Y50522D1*
Y51591D2*
X59318Y51786D1*
X59511Y51883D1*
X59803D1*
X59996Y51786D1*
X60192Y51591D1*
X60288Y51299D1*
Y51106D1*
X60192Y50814D1*
X59996Y50621D1*
X59803Y50522D1*
X59511D1*
X59318Y50621D1*
X59123Y50814D1*
X61985Y51591D2*
X61889Y51786D1*
X61597Y51883D1*
X61305D1*
X61013Y51786D1*
X60916Y51591D1*
X61013Y51398D1*
X61208Y51299D1*
X61693Y51202D1*
X61889Y51106D1*
X61985Y50910D1*
Y50814D1*
X61889Y50621D1*
X61597Y50522D1*
X61305D1*
X61013Y50621D1*
X60916Y50814D1*
X51403Y48216D2*
Y46175D1*
X50723Y48216D2*
X52084D1*
X52711D2*
X52808Y48120D1*
X52907Y48216D1*
X52808Y48315D1*
X52711Y48216D1*
X52808Y47536D2*
Y46175D1*
X53534Y47536D2*
Y46175D1*
Y47147D2*
X53826Y47439D1*
X54022Y47536D1*
X54311D1*
X54507Y47439D1*
X54603Y47147D1*
Y46175D1*
X55330Y47536D2*
X55911Y46175D1*
X55718Y45786D1*
X55523Y45591D1*
X55330Y45494D1*
X55231D1*
X56495Y47536D2*
X55911Y46175D1*
X57123Y48216D2*
Y46175D1*
X58289D1*
X60178Y48216D2*
X58916D1*
Y46175D1*
X60178D1*
X58916Y47244D2*
X59693D1*
X60806Y48216D2*
Y46175D1*
X61486D1*
X61778Y46274D1*
X61974Y46467D1*
X62070Y46662D1*
X62167Y46952D1*
Y47439D1*
X62070Y47731D1*
X61974Y47924D1*
X61778Y48120D1*
X61486Y48216D1*
X60806D1*
X24004Y51716D2*
X24877D1*
X25169Y51815D1*
X25268Y51912D1*
X25365Y52105D1*
Y52300D1*
X25268Y52493D1*
X25169Y52592D1*
X24877Y52689D1*
X24004D1*
Y50647D1*
X24684Y51716D2*
X25365Y50647D1*
X25992Y51424D2*
X27158D1*
Y51620D1*
X27061Y51815D1*
X26965Y51912D1*
X26769Y52008D1*
X26477D1*
X26284Y51912D1*
X26089Y51716D1*
X25992Y51424D1*
Y51231D1*
X26089Y50939D1*
X26284Y50746D1*
X26477Y50647D1*
X26769D1*
X26965Y50746D1*
X27158Y50939D1*
X27785Y52008D2*
X28369Y50647D1*
X28951Y52008D1*
X29675Y50843D2*
X29579Y50744D1*
X29675Y50647D1*
X29774Y50744D1*
X29675Y50843D1*
X32961Y52687D2*
X32669Y52590D1*
X32473Y52298D1*
X32377Y51813D1*
Y51521D1*
X32473Y51036D1*
X32669Y50744D1*
X32961Y50647D1*
X33154D1*
X33446Y50744D1*
X33639Y51036D1*
X33738Y51521D1*
Y51813D1*
X33639Y52298D1*
X33446Y52590D1*
X33154Y52687D1*
X32961D1*
X33639Y52298D2*
X32473Y51036D1*
X34462Y50843D2*
X34365Y50744D1*
X34462Y50647D1*
X34561Y50744D1*
X34462Y50843D1*
X36354Y52687D2*
X35384D1*
X35287Y51813D1*
X35384Y51909D1*
X35676Y52008D1*
X35965D1*
X36257Y51909D1*
X36453Y51716D1*
X36549Y51424D1*
Y51231D1*
X36453Y50939D1*
X36257Y50744D1*
X35965Y50647D1*
X35676D1*
X35384Y50744D1*
X35287Y50843D1*
X35188Y51036D1*
X27383Y57229D2*
Y57326D1*
X27480Y57521D1*
X27576Y57618D1*
X27772Y57714D1*
X28160D1*
X28353Y57618D1*
X28450Y57521D1*
X28549Y57326D1*
Y57133D1*
X28450Y56937D1*
X28257Y56647D1*
X27284Y55675D1*
X28645D1*
X29857Y57714D2*
X29565Y57618D1*
X29369Y57326D1*
X29273Y56841D1*
Y56549D1*
X29369Y56063D1*
X29565Y55771D1*
X29857Y55675D1*
X30050D1*
X30342Y55771D1*
X30535Y56063D1*
X30634Y56549D1*
Y56841D1*
X30535Y57326D1*
X30342Y57618D1*
X30050Y57714D1*
X29857D1*
X30535Y57326D2*
X29369Y56063D1*
X31261Y57326D2*
X31457Y57425D1*
X31749Y57714D1*
Y55675D1*
X33542Y57714D2*
X32572D1*
X32475Y56841D1*
X32572Y56937D1*
X32864Y57036D1*
X33153D1*
X33445Y56937D1*
X33641Y56744D1*
X33737Y56452D1*
Y56259D1*
X33641Y55967D1*
X33445Y55771D1*
X33153Y55675D1*
X32864D1*
X32572Y55771D1*
X32475Y55870D1*
X32376Y56063D1*
X51148Y43015D2*
X52024D1*
X52314Y43111D1*
X52413Y43210D1*
X52509Y43403D1*
Y43695D1*
X52413Y43888D1*
X52314Y43987D1*
X52024Y44084D1*
X51148D1*
Y42042D1*
X53137Y42819D2*
X54303D1*
Y43015D1*
X54206Y43210D1*
X54109Y43307D1*
X53914Y43403D1*
X53622D1*
X53429Y43307D1*
X53233Y43111D1*
X53137Y42819D1*
Y42626D1*
X53233Y42334D1*
X53429Y42141D1*
X53622Y42042D1*
X53914D1*
X54109Y42141D1*
X54303Y42334D1*
X56096Y43403D2*
Y42042D1*
Y43111D2*
X55903Y43307D1*
X55707Y43403D1*
X55417D1*
X55222Y43307D1*
X55029Y43111D1*
X54930Y42819D1*
Y42626D1*
X55029Y42334D1*
X55222Y42141D1*
X55417Y42042D1*
X55707D1*
X55903Y42141D1*
X56096Y42334D1*
X57891Y43111D2*
X57696Y43307D1*
X57500Y43403D1*
X57211D1*
X57015Y43307D1*
X56822Y43111D1*
X56723Y42819D1*
Y42626D1*
X56822Y42334D1*
X57015Y42141D1*
X57211Y42042D1*
X57500D1*
X57696Y42141D1*
X57891Y42334D1*
X58519Y42819D2*
X59684D1*
Y43015D1*
X59588Y43210D1*
X59491Y43307D1*
X59296Y43403D1*
X59004D1*
X58811Y43307D1*
X58615Y43111D1*
X58519Y42819D1*
Y42626D1*
X58615Y42334D1*
X58811Y42141D1*
X59004Y42042D1*
X59296D1*
X59491Y42141D1*
X59684Y42334D1*
M02*
