G04 DipTrace 2.4.0.2*
%INpeace.gts*%
%MOMM*%
%ADD10C,0.25*%
%ADD21C,0.165*%
%ADD30R,0.5X1.0*%
%ADD48C,0.95*%
%ADD49C,0.9*%
%ADD50C,2.54*%
%ADD53R,0.325X0.3*%
%ADD54R,0.3X0.325*%
%ADD55R,0.75X0.95*%
%ADD56R,0.95X0.75*%
%ADD59R,0.9X2.05*%
%ADD60R,1.05X1.15*%
%ADD61R,1.15X1.05*%
%ADD62O,1.05X1.55*%
%ADD66O,1.05X0.33*%
%ADD67O,0.33X1.05*%
%FSLAX53Y53*%
G04*
G71*
G90*
G75*
G01*
%LNTopMask*%
%LPD*%
X33030Y44584D2*
D21*
X33031Y44603D1*
X33033Y44621D1*
X33036Y44640D1*
X33041Y44658D1*
X33047Y44676D1*
X33054Y44693D1*
X33063Y44710D1*
X33072Y44726D1*
X33083Y44741D1*
X33095Y44756D1*
X33108Y44770D1*
X33122Y44782D1*
X33137Y44794D1*
X33153Y44805D1*
X33170Y44815D1*
X33187Y44824D1*
X33205Y44832D1*
X33223Y44838D1*
X33242Y44843D1*
X33261Y44847D1*
X33280Y44850D1*
X33300Y44851D1*
X33319D1*
X33339Y44850D1*
X33358Y44847D1*
X33377Y44843D1*
X33396Y44838D1*
X33414Y44832D1*
X33432Y44824D1*
X33449Y44815D1*
X33466Y44805D1*
X33482Y44794D1*
X33497Y44782D1*
X33511Y44770D1*
X33524Y44756D1*
X33536Y44741D1*
X33547Y44726D1*
X33556Y44710D1*
X33565Y44693D1*
X33572Y44676D1*
X33578Y44658D1*
X33583Y44640D1*
X33586Y44621D1*
X33588Y44603D1*
X33589Y44584D1*
X33588Y44566D1*
X33586Y44547D1*
X33583Y44529D1*
X33578Y44511D1*
X33572Y44493D1*
X33565Y44476D1*
X33556Y44459D1*
X33547Y44443D1*
X33536Y44428D1*
X33524Y44413D1*
X33511Y44399D1*
X33497Y44386D1*
X33482Y44374D1*
X33466Y44363D1*
X33449Y44353D1*
X33432Y44345D1*
X33414Y44337D1*
X33396Y44331D1*
X33377Y44326D1*
X33358Y44322D1*
X33339Y44319D1*
X33319Y44318D1*
X33300D1*
X33280Y44319D1*
X33261Y44322D1*
X33242Y44326D1*
X33223Y44331D1*
X33205Y44337D1*
X33187Y44345D1*
X33170Y44353D1*
X33153Y44363D1*
X33137Y44374D1*
X33122Y44386D1*
X33108Y44399D1*
X33095Y44413D1*
X33083Y44428D1*
X33072Y44443D1*
X33063Y44459D1*
X33054Y44476D1*
X33047Y44493D1*
X33041Y44511D1*
X33036Y44529D1*
X33033Y44547D1*
X33031Y44566D1*
X33030Y44584D1*
Y45488D2*
X33031Y45506D1*
X33033Y45525D1*
X33036Y45543D1*
X33041Y45561D1*
X33047Y45579D1*
X33054Y45596D1*
X33063Y45613D1*
X33072Y45629D1*
X33083Y45644D1*
X33095Y45659D1*
X33108Y45673D1*
X33122Y45686D1*
X33137Y45698D1*
X33153Y45709D1*
X33170Y45719D1*
X33187Y45727D1*
X33205Y45735D1*
X33223Y45741D1*
X33242Y45746D1*
X33261Y45750D1*
X33280Y45753D1*
X33300Y45754D1*
X33319D1*
X33339Y45753D1*
X33358Y45750D1*
X33377Y45746D1*
X33396Y45741D1*
X33414Y45735D1*
X33432Y45727D1*
X33449Y45719D1*
X33466Y45709D1*
X33482Y45698D1*
X33497Y45686D1*
X33511Y45673D1*
X33524Y45659D1*
X33536Y45644D1*
X33547Y45629D1*
X33556Y45613D1*
X33565Y45596D1*
X33572Y45579D1*
X33578Y45561D1*
X33583Y45543D1*
X33586Y45525D1*
X33588Y45506D1*
X33589Y45488D1*
X33588Y45469D1*
X33586Y45451D1*
X33583Y45432D1*
X33578Y45414D1*
X33572Y45396D1*
X33565Y45379D1*
X33556Y45362D1*
X33547Y45346D1*
X33536Y45331D1*
X33524Y45316D1*
X33511Y45302D1*
X33497Y45289D1*
X33482Y45278D1*
X33466Y45267D1*
X33449Y45257D1*
X33432Y45248D1*
X33414Y45240D1*
X33396Y45234D1*
X33377Y45229D1*
X33358Y45225D1*
X33339Y45222D1*
X33319Y45221D1*
X33300D1*
X33280Y45222D1*
X33261Y45225D1*
X33242Y45229D1*
X33223Y45234D1*
X33205Y45240D1*
X33187Y45248D1*
X33170Y45257D1*
X33153Y45267D1*
X33137Y45278D1*
X33122Y45289D1*
X33108Y45302D1*
X33095Y45316D1*
X33083Y45331D1*
X33072Y45346D1*
X33063Y45362D1*
X33054Y45379D1*
X33047Y45396D1*
X33041Y45414D1*
X33036Y45432D1*
X33033Y45451D1*
X33031Y45469D1*
X33030Y45488D1*
X33927Y43678D2*
Y43696D1*
X33929Y43715D1*
X33933Y43733D1*
X33937Y43751D1*
X33943Y43769D1*
X33951Y43786D1*
X33959Y43803D1*
X33969Y43819D1*
X33980Y43834D1*
X33992Y43849D1*
X34005Y43863D1*
X34019Y43876D1*
X34034Y43888D1*
X34050Y43899D1*
X34066Y43909D1*
X34084Y43917D1*
X34101Y43925D1*
X34120Y43931D1*
X34138Y43936D1*
X34158Y43940D1*
X34177Y43943D1*
X34196Y43944D1*
X34216D1*
X34235Y43943D1*
X34255Y43940D1*
X34274Y43936D1*
X34292Y43931D1*
X34311Y43925D1*
X34329Y43917D1*
X34346Y43909D1*
X34362Y43899D1*
X34378Y43888D1*
X34393Y43876D1*
X34407Y43863D1*
X34420Y43849D1*
X34432Y43834D1*
X34443Y43819D1*
X34453Y43803D1*
X34461Y43786D1*
X34469Y43769D1*
X34475Y43751D1*
X34479Y43733D1*
X34483Y43715D1*
X34485Y43696D1*
X34486Y43678D1*
X34485Y43659D1*
X34483Y43641D1*
X34479Y43622D1*
X34475Y43604D1*
X34469Y43586D1*
X34461Y43569D1*
X34453Y43553D1*
X34443Y43536D1*
X34432Y43521D1*
X34420Y43506D1*
X34407Y43492D1*
X34393Y43480D1*
X34378Y43468D1*
X34362Y43457D1*
X34346Y43447D1*
X34329Y43438D1*
X34311Y43430D1*
X34292Y43424D1*
X34274Y43419D1*
X34255Y43415D1*
X34235Y43413D1*
X34216Y43411D1*
X34196D1*
X34177Y43413D1*
X34158Y43415D1*
X34138Y43419D1*
X34120Y43424D1*
X34101Y43430D1*
X34084Y43438D1*
X34066Y43447D1*
X34050Y43457D1*
X34034Y43468D1*
X34019Y43480D1*
X34005Y43492D1*
X33992Y43506D1*
X33980Y43521D1*
X33969Y43536D1*
X33959Y43553D1*
X33951Y43569D1*
X33943Y43586D1*
X33937Y43604D1*
X33933Y43622D1*
X33929Y43641D1*
X33927Y43659D1*
Y43678D1*
X33930Y44578D2*
X33931Y44596D1*
X33933Y44615D1*
X33936Y44633D1*
X33941Y44651D1*
X33947Y44669D1*
X33954Y44686D1*
X33963Y44703D1*
X33973Y44719D1*
X33983Y44734D1*
X33995Y44749D1*
X34009Y44763D1*
X34023Y44776D1*
X34037Y44788D1*
X34053Y44799D1*
X34070Y44808D1*
X34087Y44817D1*
X34105Y44825D1*
X34123Y44831D1*
X34142Y44836D1*
X34161Y44840D1*
X34180Y44843D1*
X34200Y44844D1*
X34219D1*
X34239Y44843D1*
X34258Y44840D1*
X34277Y44836D1*
X34296Y44831D1*
X34314Y44825D1*
X34332Y44817D1*
X34349Y44808D1*
X34366Y44799D1*
X34381Y44788D1*
X34396Y44776D1*
X34410Y44763D1*
X34423Y44749D1*
X34435Y44734D1*
X34446Y44719D1*
X34456Y44703D1*
X34464Y44686D1*
X34472Y44669D1*
X34478Y44651D1*
X34483Y44633D1*
X34486Y44615D1*
X34488Y44596D1*
X34489Y44578D1*
X34488Y44559D1*
X34486Y44540D1*
X34483Y44522D1*
X34478Y44504D1*
X34472Y44486D1*
X34464Y44469D1*
X34456Y44452D1*
X34446Y44436D1*
X34435Y44421D1*
X34423Y44406D1*
X34410Y44392D1*
X34396Y44379D1*
X34381Y44367D1*
X34366Y44357D1*
X34349Y44347D1*
X34332Y44338D1*
X34314Y44330D1*
X34296Y44324D1*
X34277Y44319D1*
X34258Y44315D1*
X34239Y44312D1*
X34219Y44311D1*
X34200D1*
X34180Y44312D1*
X34161Y44315D1*
X34142Y44319D1*
X34123Y44324D1*
X34105Y44330D1*
X34087Y44338D1*
X34070Y44347D1*
X34053Y44357D1*
X34037Y44367D1*
X34023Y44379D1*
X34009Y44392D1*
X33995Y44406D1*
X33983Y44421D1*
X33973Y44436D1*
X33963Y44452D1*
X33954Y44469D1*
X33947Y44486D1*
X33941Y44504D1*
X33936Y44522D1*
X33933Y44540D1*
X33931Y44559D1*
X33930Y44578D1*
Y44588D2*
X33931Y44606D1*
X33933Y44625D1*
X33936Y44643D1*
X33941Y44661D1*
X33947Y44679D1*
X33954Y44696D1*
X33963Y44713D1*
X33973Y44729D1*
X33983Y44744D1*
X33995Y44759D1*
X34009Y44773D1*
X34023Y44786D1*
X34037Y44798D1*
X34053Y44809D1*
X34070Y44819D1*
X34087Y44827D1*
X34105Y44835D1*
X34123Y44841D1*
X34142Y44846D1*
X34161Y44850D1*
X34180Y44853D1*
X34200Y44854D1*
X34219D1*
X34239Y44853D1*
X34258Y44850D1*
X34277Y44846D1*
X34296Y44841D1*
X34314Y44835D1*
X34332Y44827D1*
X34349Y44819D1*
X34366Y44809D1*
X34381Y44798D1*
X34396Y44786D1*
X34410Y44773D1*
X34423Y44759D1*
X34435Y44744D1*
X34446Y44729D1*
X34456Y44713D1*
X34464Y44696D1*
X34472Y44679D1*
X34478Y44661D1*
X34483Y44643D1*
X34486Y44625D1*
X34488Y44606D1*
X34489Y44588D1*
X34488Y44569D1*
X34486Y44551D1*
X34483Y44532D1*
X34478Y44514D1*
X34472Y44497D1*
X34464Y44479D1*
X34456Y44463D1*
X34446Y44446D1*
X34435Y44431D1*
X34423Y44416D1*
X34410Y44403D1*
X34396Y44390D1*
X34381Y44378D1*
X34366Y44367D1*
X34349Y44357D1*
X34332Y44348D1*
X34314Y44341D1*
X34296Y44334D1*
X34277Y44329D1*
X34258Y44325D1*
X34239Y44323D1*
X34219Y44321D1*
X34200D1*
X34180Y44323D1*
X34161Y44325D1*
X34142Y44329D1*
X34123Y44334D1*
X34105Y44341D1*
X34087Y44348D1*
X34070Y44357D1*
X34053Y44367D1*
X34037Y44378D1*
X34023Y44390D1*
X34009Y44403D1*
X33995Y44416D1*
X33983Y44431D1*
X33973Y44446D1*
X33963Y44463D1*
X33954Y44479D1*
X33947Y44497D1*
X33941Y44514D1*
X33936Y44532D1*
X33933Y44551D1*
X33931Y44569D1*
X33930Y44588D1*
X33924Y45484D2*
Y45503D1*
X33926Y45521D1*
X33930Y45540D1*
X33934Y45558D1*
X33940Y45575D1*
X33948Y45593D1*
X33956Y45609D1*
X33966Y45625D1*
X33977Y45641D1*
X33989Y45656D1*
X34002Y45669D1*
X34016Y45682D1*
X34031Y45694D1*
X34047Y45705D1*
X34063Y45715D1*
X34080Y45724D1*
X34098Y45731D1*
X34116Y45738D1*
X34135Y45743D1*
X34154Y45747D1*
X34174Y45749D1*
X34193Y45751D1*
X34213D1*
X34232Y45749D1*
X34251Y45747D1*
X34270Y45743D1*
X34289Y45738D1*
X34307Y45731D1*
X34325Y45724D1*
X34342Y45715D1*
X34359Y45705D1*
X34375Y45694D1*
X34390Y45682D1*
X34404Y45669D1*
X34417Y45656D1*
X34429Y45641D1*
X34440Y45625D1*
X34449Y45609D1*
X34458Y45593D1*
X34465Y45575D1*
X34471Y45558D1*
X34476Y45540D1*
X34479Y45521D1*
X34481Y45503D1*
X34482Y45484D1*
X34481Y45466D1*
X34479Y45447D1*
X34476Y45429D1*
X34471Y45411D1*
X34465Y45393D1*
X34458Y45376D1*
X34449Y45359D1*
X34440Y45343D1*
X34429Y45327D1*
X34417Y45313D1*
X34404Y45299D1*
X34390Y45286D1*
X34375Y45274D1*
X34359Y45263D1*
X34342Y45253D1*
X34325Y45245D1*
X34307Y45237D1*
X34289Y45231D1*
X34270Y45226D1*
X34251Y45222D1*
X34232Y45219D1*
X34213Y45218D1*
X34193D1*
X34174Y45219D1*
X34154Y45222D1*
X34135Y45226D1*
X34116Y45231D1*
X34098Y45237D1*
X34080Y45245D1*
X34063Y45253D1*
X34047Y45263D1*
X34031Y45274D1*
X34016Y45286D1*
X34002Y45299D1*
X33989Y45313D1*
X33977Y45327D1*
X33966Y45343D1*
X33956Y45359D1*
X33948Y45376D1*
X33940Y45393D1*
X33934Y45411D1*
X33930Y45429D1*
X33926Y45447D1*
X33924Y45466D1*
Y45484D1*
X34830Y44581D2*
X34831Y44600D1*
X34833Y44618D1*
X34836Y44636D1*
X34841Y44654D1*
X34847Y44672D1*
X34854Y44689D1*
X34863Y44706D1*
X34873Y44722D1*
X34884Y44738D1*
X34896Y44752D1*
X34909Y44766D1*
X34923Y44779D1*
X34938Y44791D1*
X34953Y44802D1*
X34970Y44812D1*
X34987Y44821D1*
X35005Y44828D1*
X35023Y44835D1*
X35042Y44840D1*
X35061Y44844D1*
X35080Y44846D1*
X35100Y44847D1*
X35119D1*
X35139Y44846D1*
X35158Y44844D1*
X35177Y44840D1*
X35196Y44835D1*
X35214Y44828D1*
X35232Y44821D1*
X35249Y44812D1*
X35266Y44802D1*
X35281Y44791D1*
X35296Y44779D1*
X35310Y44766D1*
X35323Y44752D1*
X35335Y44738D1*
X35346Y44722D1*
X35356Y44706D1*
X35365Y44689D1*
X35372Y44672D1*
X35378Y44654D1*
X35383Y44636D1*
X35386Y44618D1*
X35388Y44600D1*
X35389Y44581D1*
X35388Y44562D1*
X35386Y44544D1*
X35383Y44526D1*
X35378Y44507D1*
X35372Y44490D1*
X35365Y44473D1*
X35356Y44456D1*
X35346Y44440D1*
X35335Y44424D1*
X35323Y44410D1*
X35310Y44396D1*
X35296Y44383D1*
X35281Y44371D1*
X35266Y44360D1*
X35249Y44350D1*
X35232Y44341D1*
X35214Y44334D1*
X35196Y44327D1*
X35177Y44322D1*
X35158Y44318D1*
X35139Y44316D1*
X35119Y44314D1*
X35100D1*
X35080Y44316D1*
X35061Y44318D1*
X35042Y44322D1*
X35023Y44327D1*
X35005Y44334D1*
X34987Y44341D1*
X34970Y44350D1*
X34953Y44360D1*
X34938Y44371D1*
X34923Y44383D1*
X34909Y44396D1*
X34896Y44410D1*
X34884Y44424D1*
X34873Y44440D1*
X34863Y44456D1*
X34854Y44473D1*
X34847Y44490D1*
X34841Y44507D1*
X34836Y44526D1*
X34833Y44544D1*
X34831Y44562D1*
X34830Y44581D1*
Y43684D2*
X34831Y43703D1*
X34833Y43722D1*
X34836Y43740D1*
X34841Y43758D1*
X34847Y43776D1*
X34854Y43793D1*
X34863Y43810D1*
X34873Y43826D1*
X34884Y43841D1*
X34896Y43856D1*
X34909Y43870D1*
X34923Y43883D1*
X34938Y43895D1*
X34953Y43906D1*
X34970Y43915D1*
X34987Y43924D1*
X35005Y43932D1*
X35023Y43938D1*
X35042Y43943D1*
X35061Y43947D1*
X35080Y43950D1*
X35100Y43951D1*
X35119D1*
X35139Y43950D1*
X35158Y43947D1*
X35177Y43943D1*
X35196Y43938D1*
X35214Y43932D1*
X35232Y43924D1*
X35249Y43915D1*
X35266Y43906D1*
X35281Y43895D1*
X35296Y43883D1*
X35310Y43870D1*
X35323Y43856D1*
X35335Y43841D1*
X35346Y43826D1*
X35356Y43810D1*
X35365Y43793D1*
X35372Y43776D1*
X35378Y43758D1*
X35383Y43740D1*
X35386Y43722D1*
X35388Y43703D1*
X35389Y43684D1*
X35388Y43666D1*
X35386Y43647D1*
X35383Y43629D1*
X35378Y43611D1*
X35372Y43593D1*
X35365Y43576D1*
X35356Y43559D1*
X35346Y43543D1*
X35335Y43528D1*
X35323Y43513D1*
X35310Y43499D1*
X35296Y43486D1*
X35281Y43474D1*
X35266Y43463D1*
X35249Y43454D1*
X35232Y43445D1*
X35214Y43437D1*
X35196Y43431D1*
X35177Y43426D1*
X35158Y43422D1*
X35139Y43419D1*
X35119Y43418D1*
X35100D1*
X35080Y43419D1*
X35061Y43422D1*
X35042Y43426D1*
X35023Y43431D1*
X35005Y43437D1*
X34987Y43445D1*
X34970Y43454D1*
X34953Y43463D1*
X34938Y43474D1*
X34923Y43486D1*
X34909Y43499D1*
X34896Y43513D1*
X34884Y43528D1*
X34873Y43543D1*
X34863Y43559D1*
X34854Y43576D1*
X34847Y43593D1*
X34841Y43611D1*
X34836Y43629D1*
X34833Y43647D1*
X34831Y43666D1*
X34830Y43684D1*
Y45488D2*
X34831Y45506D1*
X34833Y45525D1*
X34836Y45543D1*
X34841Y45561D1*
X34847Y45579D1*
X34854Y45596D1*
X34863Y45613D1*
X34873Y45629D1*
X34884Y45644D1*
X34896Y45659D1*
X34909Y45673D1*
X34923Y45686D1*
X34938Y45698D1*
X34953Y45709D1*
X34970Y45719D1*
X34987Y45727D1*
X35005Y45735D1*
X35023Y45741D1*
X35042Y45746D1*
X35061Y45750D1*
X35080Y45753D1*
X35100Y45754D1*
X35119D1*
X35139Y45753D1*
X35158Y45750D1*
X35177Y45746D1*
X35196Y45741D1*
X35214Y45735D1*
X35232Y45727D1*
X35249Y45719D1*
X35266Y45709D1*
X35281Y45698D1*
X35296Y45686D1*
X35310Y45673D1*
X35323Y45659D1*
X35335Y45644D1*
X35346Y45629D1*
X35356Y45613D1*
X35365Y45596D1*
X35372Y45579D1*
X35378Y45561D1*
X35383Y45543D1*
X35386Y45525D1*
X35388Y45506D1*
X35389Y45488D1*
X35388Y45469D1*
X35386Y45451D1*
X35383Y45432D1*
X35378Y45414D1*
X35372Y45396D1*
X35365Y45379D1*
X35356Y45362D1*
X35346Y45346D1*
X35335Y45331D1*
X35323Y45316D1*
X35310Y45302D1*
X35296Y45289D1*
X35281Y45278D1*
X35266Y45267D1*
X35249Y45257D1*
X35232Y45248D1*
X35214Y45240D1*
X35196Y45234D1*
X35177Y45229D1*
X35158Y45225D1*
X35139Y45222D1*
X35119Y45221D1*
X35100D1*
X35080Y45222D1*
X35061Y45225D1*
X35042Y45229D1*
X35023Y45234D1*
X35005Y45240D1*
X34987Y45248D1*
X34970Y45257D1*
X34953Y45267D1*
X34938Y45278D1*
X34923Y45289D1*
X34909Y45302D1*
X34896Y45316D1*
X34884Y45331D1*
X34873Y45346D1*
X34863Y45362D1*
X34854Y45379D1*
X34847Y45396D1*
X34841Y45414D1*
X34836Y45432D1*
X34833Y45451D1*
X34831Y45469D1*
X34830Y45488D1*
X32939Y43328D2*
D10*
X35466D1*
Y45818D1*
X32939D1*
Y43328D1*
G36*
X32999Y43922D2*
X35383D1*
Y44402D1*
X32999D1*
Y43922D1*
G37*
G36*
X34406Y43365D2*
X34873D1*
Y45841D1*
X34406D1*
Y43365D1*
G37*
G36*
X33546Y43382D2*
X34013D1*
Y45741D1*
X33546D1*
Y43382D1*
G37*
G36*
X32906Y44811D2*
X35376D1*
Y45284D1*
X32906D1*
Y44811D1*
G37*
X33043Y43711D2*
D21*
X33044Y43730D1*
X33046Y43748D1*
X33049Y43767D1*
X33054Y43785D1*
X33060Y43802D1*
X33067Y43820D1*
X33076Y43836D1*
X33086Y43852D1*
X33097Y43868D1*
X33109Y43882D1*
X33122Y43896D1*
X33136Y43909D1*
X33151Y43921D1*
X33166Y43932D1*
X33183Y43942D1*
X33200Y43951D1*
X33218Y43958D1*
X33236Y43965D1*
X33255Y43970D1*
X33274Y43974D1*
X33294Y43976D1*
X33313Y43978D1*
X33333D1*
X33352Y43976D1*
X33371Y43974D1*
X33390Y43970D1*
X33409Y43965D1*
X33427Y43958D1*
X33445Y43951D1*
X33462Y43942D1*
X33479Y43932D1*
X33495Y43921D1*
X33510Y43909D1*
X33524Y43896D1*
X33537Y43882D1*
X33549Y43868D1*
X33560Y43852D1*
X33570Y43836D1*
X33578Y43820D1*
X33585Y43802D1*
X33591Y43785D1*
X33596Y43767D1*
X33600Y43748D1*
X33602Y43730D1*
Y43711D1*
Y43693D1*
X33600Y43674D1*
X33596Y43656D1*
X33591Y43638D1*
X33585Y43620D1*
X33578Y43603D1*
X33570Y43586D1*
X33560Y43570D1*
X33549Y43554D1*
X33537Y43540D1*
X33524Y43526D1*
X33510Y43513D1*
X33495Y43501D1*
X33479Y43490D1*
X33462Y43480D1*
X33445Y43471D1*
X33427Y43464D1*
X33409Y43458D1*
X33390Y43452D1*
X33371Y43449D1*
X33352Y43446D1*
X33333Y43445D1*
X33313D1*
X33294Y43446D1*
X33274Y43449D1*
X33255Y43452D1*
X33236Y43458D1*
X33218Y43464D1*
X33200Y43471D1*
X33183Y43480D1*
X33166Y43490D1*
X33151Y43501D1*
X33136Y43513D1*
X33122Y43526D1*
X33109Y43540D1*
X33097Y43554D1*
X33086Y43570D1*
X33076Y43586D1*
X33067Y43603D1*
X33060Y43620D1*
X33054Y43638D1*
X33049Y43656D1*
X33046Y43674D1*
X33044Y43693D1*
X33043Y43711D1*
D67*
X32956Y42538D3*
X33456D3*
X33956D3*
X34456D3*
X34956D3*
X35456D3*
D66*
X36256Y43338D3*
Y43838D3*
Y44338D3*
Y44838D3*
Y45338D3*
Y45838D3*
D67*
X35456Y46638D3*
X34956D3*
X34456D3*
X33956D3*
X33456D3*
X32956D3*
D66*
X32156Y45838D3*
Y45338D3*
Y44838D3*
Y44338D3*
Y43838D3*
Y43338D3*
D30*
X49451Y25874D3*
X48151D3*
X46851D3*
Y23674D3*
X48151D3*
X49451D3*
G36*
X25981Y39986D2*
X25908Y39980D1*
X25838Y39961D1*
X25772Y39930D1*
X25712Y39888D1*
X25660Y39837D1*
X25618Y39777D1*
X25587Y39711D1*
X25568Y39640D1*
X25562Y39567D1*
D1*
X25568Y39495D1*
X25587Y39424D1*
X25618Y39358D1*
X25660Y39298D1*
X25712Y39247D1*
X25772Y39205D1*
X25838Y39174D1*
X25908Y39155D1*
X25981Y39149D1*
D1*
X26054Y39155D1*
X26124Y39174D1*
X26190Y39205D1*
X26250Y39247D1*
X26302Y39298D1*
X26344Y39358D1*
X26374Y39424D1*
X26393Y39495D1*
X26400Y39567D1*
D1*
X26393Y39640D1*
X26374Y39711D1*
X26344Y39777D1*
X26302Y39837D1*
X26250Y39888D1*
X26190Y39930D1*
X26124Y39961D1*
X26054Y39980D1*
X25981Y39986D1*
G37*
G36*
Y41256D2*
X25908Y41250D1*
X25838Y41231D1*
X25772Y41200D1*
X25712Y41158D1*
X25660Y41107D1*
X25618Y41047D1*
X25587Y40981D1*
X25568Y40910D1*
X25562Y40837D1*
D1*
X25568Y40765D1*
X25587Y40694D1*
X25618Y40628D1*
X25660Y40568D1*
X25712Y40517D1*
X25772Y40475D1*
X25838Y40444D1*
X25908Y40425D1*
X25981Y40419D1*
D1*
X26054Y40425D1*
X26124Y40444D1*
X26190Y40475D1*
X26250Y40517D1*
X26302Y40568D1*
X26344Y40628D1*
X26374Y40694D1*
X26393Y40765D1*
X26400Y40837D1*
D1*
X26393Y40910D1*
X26374Y40981D1*
X26344Y41047D1*
X26302Y41107D1*
X26250Y41158D1*
X26190Y41200D1*
X26124Y41231D1*
X26054Y41250D1*
X25981Y41256D1*
G37*
G36*
Y42526D2*
X25908Y42520D1*
X25838Y42501D1*
X25772Y42470D1*
X25712Y42428D1*
X25660Y42377D1*
X25618Y42317D1*
X25587Y42251D1*
X25568Y42180D1*
X25562Y42107D1*
D1*
X25568Y42035D1*
X25587Y41964D1*
X25618Y41898D1*
X25660Y41838D1*
X25712Y41787D1*
X25772Y41745D1*
X25838Y41714D1*
X25908Y41695D1*
X25981Y41689D1*
D1*
X26054Y41695D1*
X26124Y41714D1*
X26190Y41745D1*
X26250Y41787D1*
X26302Y41838D1*
X26344Y41898D1*
X26374Y41964D1*
X26393Y42035D1*
X26400Y42107D1*
D1*
X26393Y42180D1*
X26374Y42251D1*
X26344Y42317D1*
X26302Y42377D1*
X26250Y42428D1*
X26190Y42470D1*
X26124Y42501D1*
X26054Y42520D1*
X25981Y42526D1*
G37*
G36*
X27251D2*
X27178Y42520D1*
X27108Y42501D1*
X27042Y42470D1*
X26982Y42428D1*
X26930Y42377D1*
X26888Y42317D1*
X26857Y42251D1*
X26838Y42180D1*
X26832Y42107D1*
D1*
X26838Y42035D1*
X26857Y41964D1*
X26888Y41898D1*
X26930Y41838D1*
X26982Y41787D1*
X27042Y41745D1*
X27108Y41714D1*
X27178Y41695D1*
X27251Y41689D1*
D1*
X27324Y41695D1*
X27394Y41714D1*
X27460Y41745D1*
X27520Y41787D1*
X27572Y41838D1*
X27614Y41898D1*
X27644Y41964D1*
X27663Y42035D1*
X27670Y42107D1*
D1*
X27663Y42180D1*
X27644Y42251D1*
X27614Y42317D1*
X27572Y42377D1*
X27520Y42428D1*
X27460Y42470D1*
X27394Y42501D1*
X27324Y42520D1*
X27251Y42526D1*
G37*
G36*
Y41256D2*
X27178Y41250D1*
X27108Y41231D1*
X27042Y41200D1*
X26982Y41158D1*
X26930Y41107D1*
X26888Y41047D1*
X26857Y40981D1*
X26838Y40910D1*
X26832Y40837D1*
D1*
X26838Y40765D1*
X26857Y40694D1*
X26888Y40628D1*
X26930Y40568D1*
X26982Y40517D1*
X27042Y40475D1*
X27108Y40444D1*
X27178Y40425D1*
X27251Y40419D1*
D1*
X27324Y40425D1*
X27394Y40444D1*
X27460Y40475D1*
X27520Y40517D1*
X27572Y40568D1*
X27614Y40628D1*
X27644Y40694D1*
X27663Y40765D1*
X27670Y40837D1*
D1*
X27663Y40910D1*
X27644Y40981D1*
X27614Y41047D1*
X27572Y41107D1*
X27520Y41158D1*
X27460Y41200D1*
X27394Y41231D1*
X27324Y41250D1*
X27251Y41256D1*
G37*
G36*
Y39986D2*
X27178Y39980D1*
X27108Y39961D1*
X27042Y39930D1*
X26982Y39888D1*
X26930Y39837D1*
X26888Y39777D1*
X26857Y39711D1*
X26838Y39640D1*
X26832Y39567D1*
D1*
X26838Y39495D1*
X26857Y39424D1*
X26888Y39358D1*
X26930Y39298D1*
X26982Y39247D1*
X27042Y39205D1*
X27108Y39174D1*
X27178Y39155D1*
X27251Y39149D1*
D1*
X27324Y39155D1*
X27394Y39174D1*
X27460Y39205D1*
X27520Y39247D1*
X27572Y39298D1*
X27614Y39358D1*
X27644Y39424D1*
X27663Y39495D1*
X27670Y39567D1*
D1*
X27663Y39640D1*
X27644Y39711D1*
X27614Y39777D1*
X27572Y39837D1*
X27520Y39888D1*
X27460Y39930D1*
X27394Y39961D1*
X27324Y39980D1*
X27251Y39986D1*
G37*
D48*
X26616Y38297D3*
X25600Y43377D3*
X27632D3*
D62*
X39309Y20623D3*
X41159D3*
X43009D3*
Y25623D3*
X41159D3*
X39309D3*
D61*
X48981Y27309D3*
X47281D3*
D60*
X45669Y23936D3*
Y25636D3*
D59*
X49505Y21616D3*
X47805D3*
D62*
X39309Y29623D3*
X41159D3*
X43009D3*
Y34623D3*
X41159D3*
X39309D3*
Y38623D3*
X41159D3*
X43009D3*
Y43623D3*
X41159D3*
X39309D3*
G36*
X39834Y47876D2*
X39783Y48101D1*
X39637Y48284D1*
X39426Y48385D1*
X39192D1*
X38982Y48284D1*
X38836Y48101D1*
X38784Y47876D1*
Y47370D1*
X38836Y47145D1*
X38982Y46962D1*
X39192Y46861D1*
X39426D1*
X39637Y46962D1*
X39783Y47145D1*
X39834Y47370D1*
Y47876D1*
G37*
G36*
X41684D2*
X41633Y48101D1*
X41487Y48284D1*
X41276Y48385D1*
X41042D1*
X40832Y48284D1*
X40686Y48101D1*
X40634Y47876D1*
Y47370D1*
X40686Y47145D1*
X40832Y46962D1*
X41042Y46861D1*
X41276D1*
X41487Y46962D1*
X41633Y47145D1*
X41684Y47370D1*
Y47876D1*
G37*
G36*
X43534D2*
X43483Y48101D1*
X43337Y48284D1*
X43126Y48385D1*
X42892D1*
X42682Y48284D1*
X42536Y48101D1*
X42484Y47876D1*
Y47370D1*
X42536Y47145D1*
X42682Y46962D1*
X42892Y46861D1*
X43126D1*
X43337Y46962D1*
X43483Y47145D1*
X43534Y47370D1*
Y47876D1*
G37*
G36*
Y52876D2*
X43483Y53101D1*
X43337Y53284D1*
X43126Y53385D1*
X42892D1*
X42682Y53284D1*
X42536Y53101D1*
X42484Y52876D1*
Y52370D1*
X42536Y52145D1*
X42682Y51962D1*
X42892Y51861D1*
X43126D1*
X43337Y51962D1*
X43483Y52145D1*
X43534Y52370D1*
Y52876D1*
G37*
G36*
X41684D2*
X41633Y53101D1*
X41487Y53284D1*
X41276Y53385D1*
X41042D1*
X40832Y53284D1*
X40686Y53101D1*
X40634Y52876D1*
Y52370D1*
X40686Y52145D1*
X40832Y51962D1*
X41042Y51861D1*
X41276D1*
X41487Y51962D1*
X41633Y52145D1*
X41684Y52370D1*
Y52876D1*
G37*
G36*
X39834D2*
X39783Y53101D1*
X39637Y53284D1*
X39426Y53385D1*
X39192D1*
X38982Y53284D1*
X38836Y53101D1*
X38784Y52876D1*
Y52370D1*
X38836Y52145D1*
X38982Y51962D1*
X39192Y51861D1*
X39426D1*
X39637Y51962D1*
X39783Y52145D1*
X39834Y52370D1*
Y52876D1*
G37*
G36*
Y56876D2*
X39783Y57101D1*
X39637Y57284D1*
X39426Y57385D1*
X39192D1*
X38982Y57284D1*
X38836Y57101D1*
X38784Y56876D1*
Y56370D1*
X38836Y56145D1*
X38982Y55962D1*
X39192Y55861D1*
X39426D1*
X39637Y55962D1*
X39783Y56145D1*
X39834Y56370D1*
Y56876D1*
G37*
G36*
X41684D2*
X41633Y57101D1*
X41487Y57284D1*
X41276Y57385D1*
X41042D1*
X40832Y57284D1*
X40686Y57101D1*
X40634Y56876D1*
Y56370D1*
X40686Y56145D1*
X40832Y55962D1*
X41042Y55861D1*
X41276D1*
X41487Y55962D1*
X41633Y56145D1*
X41684Y56370D1*
Y56876D1*
G37*
G36*
X43534D2*
X43483Y57101D1*
X43337Y57284D1*
X43126Y57385D1*
X42892D1*
X42682Y57284D1*
X42536Y57101D1*
X42484Y56876D1*
Y56370D1*
X42536Y56145D1*
X42682Y55962D1*
X42892Y55861D1*
X43126D1*
X43337Y55962D1*
X43483Y56145D1*
X43534Y56370D1*
Y56876D1*
G37*
G36*
Y61876D2*
X43483Y62101D1*
X43337Y62284D1*
X43126Y62385D1*
X42892D1*
X42682Y62284D1*
X42536Y62101D1*
X42484Y61876D1*
Y61370D1*
X42536Y61145D1*
X42682Y60962D1*
X42892Y60861D1*
X43126D1*
X43337Y60962D1*
X43483Y61145D1*
X43534Y61370D1*
Y61876D1*
G37*
G36*
X41684D2*
X41633Y62101D1*
X41487Y62284D1*
X41276Y62385D1*
X41042D1*
X40832Y62284D1*
X40686Y62101D1*
X40634Y61876D1*
Y61370D1*
X40686Y61145D1*
X40832Y60962D1*
X41042Y60861D1*
X41276D1*
X41487Y60962D1*
X41633Y61145D1*
X41684Y61370D1*
Y61876D1*
G37*
G36*
X39834D2*
X39783Y62101D1*
X39637Y62284D1*
X39426Y62385D1*
X39192D1*
X38982Y62284D1*
X38836Y62101D1*
X38784Y61876D1*
Y61370D1*
X38836Y61145D1*
X38982Y60962D1*
X39192Y60861D1*
X39426D1*
X39637Y60962D1*
X39783Y61145D1*
X39834Y61370D1*
Y61876D1*
G37*
G36*
X35685Y33775D2*
X35562Y33579D1*
X35536Y33347D1*
X35613Y33126D1*
X35779Y32961D1*
X36000Y32883D1*
X36232Y32910D1*
X36428Y33033D1*
X36785Y33390D1*
X36908Y33586D1*
X36934Y33818D1*
X36857Y34039D1*
X36692Y34204D1*
X36471Y34282D1*
X36238Y34256D1*
X36043Y34133D1*
X35685Y33775D1*
G37*
G36*
X34377Y35083D2*
X34254Y34888D1*
X34228Y34655D1*
X34305Y34434D1*
X34471Y34269D1*
X34691Y34192D1*
X34924Y34218D1*
X35120Y34341D1*
X35477Y34698D1*
X35600Y34894D1*
X35626Y35126D1*
X35549Y35347D1*
X35384Y35513D1*
X35163Y35590D1*
X34930Y35564D1*
X34735Y35441D1*
X34377Y35083D1*
G37*
G36*
X33069Y36391D2*
X32946Y36196D1*
X32920Y35963D1*
X32997Y35742D1*
X33162Y35577D1*
X33383Y35500D1*
X33616Y35526D1*
X33811Y35649D1*
X34169Y36006D1*
X34292Y36202D1*
X34318Y36435D1*
X34241Y36655D1*
X34075Y36821D1*
X33855Y36898D1*
X33622Y36872D1*
X33426Y36749D1*
X33069Y36391D1*
G37*
G36*
X29533Y32856D2*
X29410Y32660D1*
X29384Y32428D1*
X29462Y32207D1*
X29627Y32041D1*
X29848Y31964D1*
X30080Y31990D1*
X30276Y32113D1*
X30633Y32471D1*
X30756Y32666D1*
X30782Y32899D1*
X30705Y33120D1*
X30540Y33285D1*
X30319Y33362D1*
X30087Y33336D1*
X29891Y33213D1*
X29533Y32856D1*
G37*
G36*
X30842Y31548D2*
X30719Y31352D1*
X30692Y31120D1*
X30770Y30899D1*
X30935Y30733D1*
X31156Y30656D1*
X31388Y30682D1*
X31584Y30805D1*
X31942Y31163D1*
X32064Y31358D1*
X32091Y31591D1*
X32013Y31812D1*
X31848Y31977D1*
X31627Y32054D1*
X31395Y32028D1*
X31199Y31905D1*
X30842Y31548D1*
G37*
G36*
X32150Y30240D2*
X32027Y30044D1*
X32001Y29811D1*
X32078Y29591D1*
X32243Y29425D1*
X32464Y29348D1*
X32697Y29374D1*
X32892Y29497D1*
X33250Y29855D1*
X33373Y30050D1*
X33399Y30283D1*
X33322Y30504D1*
X33156Y30669D1*
X32935Y30746D1*
X32703Y30720D1*
X32507Y30597D1*
X32150Y30240D1*
G37*
G36*
X29685Y27775D2*
X29562Y27579D1*
X29536Y27347D1*
X29613Y27126D1*
X29779Y26961D1*
X30000Y26883D1*
X30232Y26910D1*
X30428Y27033D1*
X30785Y27390D1*
X30908Y27586D1*
X30934Y27818D1*
X30857Y28039D1*
X30692Y28204D1*
X30471Y28282D1*
X30238Y28256D1*
X30043Y28133D1*
X29685Y27775D1*
G37*
G36*
X28377Y29083D2*
X28254Y28888D1*
X28228Y28655D1*
X28305Y28434D1*
X28471Y28269D1*
X28691Y28192D1*
X28924Y28218D1*
X29120Y28341D1*
X29477Y28698D1*
X29600Y28894D1*
X29626Y29126D1*
X29549Y29347D1*
X29384Y29513D1*
X29163Y29590D1*
X28930Y29564D1*
X28735Y29441D1*
X28377Y29083D1*
G37*
G36*
X27069Y30391D2*
X26946Y30196D1*
X26920Y29963D1*
X26997Y29742D1*
X27162Y29577D1*
X27383Y29500D1*
X27616Y29526D1*
X27811Y29649D1*
X28169Y30006D1*
X28292Y30202D1*
X28318Y30435D1*
X28241Y30655D1*
X28075Y30821D1*
X27855Y30898D1*
X27622Y30872D1*
X27426Y30749D1*
X27069Y30391D1*
G37*
G36*
X23533Y26856D2*
X23410Y26660D1*
X23384Y26428D1*
X23462Y26207D1*
X23627Y26041D1*
X23848Y25964D1*
X24080Y25990D1*
X24276Y26113D1*
X24633Y26471D1*
X24756Y26666D1*
X24782Y26899D1*
X24705Y27120D1*
X24540Y27285D1*
X24319Y27362D1*
X24087Y27336D1*
X23891Y27213D1*
X23533Y26856D1*
G37*
G36*
X24842Y25548D2*
X24719Y25352D1*
X24692Y25120D1*
X24770Y24899D1*
X24935Y24733D1*
X25156Y24656D1*
X25388Y24682D1*
X25584Y24805D1*
X25942Y25163D1*
X26064Y25358D1*
X26091Y25591D1*
X26013Y25812D1*
X25848Y25977D1*
X25627Y26054D1*
X25395Y26028D1*
X25199Y25905D1*
X24842Y25548D1*
G37*
G36*
X26150Y24240D2*
X26027Y24044D1*
X26001Y23811D1*
X26078Y23591D1*
X26243Y23425D1*
X26464Y23348D1*
X26697Y23374D1*
X26892Y23497D1*
X27250Y23855D1*
X27373Y24050D1*
X27399Y24283D1*
X27322Y24504D1*
X27156Y24669D1*
X26935Y24746D1*
X26703Y24720D1*
X26507Y24597D1*
X26150Y24240D1*
G37*
G36*
X55420Y23994D2*
X55616Y23871D1*
X55848Y23845D1*
X56069Y23922D1*
X56235Y24088D1*
X56312Y24309D1*
X56286Y24541D1*
X56163Y24737D1*
X55805Y25094D1*
X55610Y25217D1*
X55377Y25243D1*
X55156Y25166D1*
X54991Y25001D1*
X54914Y24780D1*
X54940Y24547D1*
X55063Y24352D1*
X55420Y23994D1*
G37*
G36*
X56728Y25302D2*
X56924Y25180D1*
X57156Y25153D1*
X57377Y25231D1*
X57543Y25396D1*
X57620Y25617D1*
X57594Y25849D1*
X57471Y26045D1*
X57113Y26402D1*
X56918Y26525D1*
X56685Y26552D1*
X56464Y26474D1*
X56299Y26309D1*
X56222Y26088D1*
X56248Y25856D1*
X56371Y25660D1*
X56728Y25302D1*
G37*
G36*
X58036Y26611D2*
X58232Y26488D1*
X58465Y26462D1*
X58685Y26539D1*
X58851Y26704D1*
X58928Y26925D1*
X58902Y27157D1*
X58779Y27353D1*
X58421Y27711D1*
X58226Y27834D1*
X57993Y27860D1*
X57772Y27782D1*
X57607Y27617D1*
X57530Y27396D1*
X57556Y27164D1*
X57679Y26968D1*
X58036Y26611D1*
G37*
G36*
X54501Y30146D2*
X54697Y30023D1*
X54929Y29997D1*
X55150Y30074D1*
X55315Y30240D1*
X55393Y30461D1*
X55366Y30693D1*
X55243Y30889D1*
X54886Y31246D1*
X54690Y31369D1*
X54458Y31395D1*
X54237Y31318D1*
X54072Y31153D1*
X53994Y30932D1*
X54020Y30699D1*
X54143Y30504D1*
X54501Y30146D1*
G37*
G36*
X53193Y28838D2*
X53388Y28715D1*
X53621Y28689D1*
X53842Y28766D1*
X54007Y28932D1*
X54084Y29152D1*
X54058Y29385D1*
X53935Y29580D1*
X53578Y29938D1*
X53382Y30061D1*
X53150Y30087D1*
X52929Y30010D1*
X52763Y29844D1*
X52686Y29624D1*
X52712Y29391D1*
X52835Y29196D1*
X53193Y28838D1*
G37*
G36*
X51885Y27530D2*
X52080Y27407D1*
X52313Y27381D1*
X52534Y27458D1*
X52699Y27623D1*
X52776Y27844D1*
X52750Y28077D1*
X52627Y28272D1*
X52270Y28630D1*
X52074Y28753D1*
X51842Y28779D1*
X51621Y28702D1*
X51455Y28536D1*
X51378Y28316D1*
X51404Y28083D1*
X51527Y27887D1*
X51885Y27530D1*
G37*
G36*
X45765Y39696D2*
X46615D1*
Y38646D1*
X45765D1*
Y39696D1*
G37*
G36*
X47965D2*
X48815D1*
Y38646D1*
X47965D1*
Y39696D1*
G37*
G36*
Y46996D2*
X48815D1*
Y45946D1*
X47965D1*
Y46996D1*
G37*
G36*
X45765D2*
X46615D1*
Y45946D1*
X45765D1*
Y46996D1*
G37*
G36*
X44765Y45446D2*
X46315D1*
Y44696D1*
X44765D1*
Y45446D1*
G37*
G36*
Y43946D2*
X46315D1*
Y43196D1*
X44765D1*
Y43946D1*
G37*
G36*
Y40946D2*
X46315D1*
Y40196D1*
X44765D1*
Y40946D1*
G37*
D49*
X47290Y44321D3*
Y41321D3*
D56*
X33812Y41399D3*
X35112D3*
X33606Y20172D3*
X32306D3*
D55*
X33290Y22084D3*
Y23384D3*
X36780Y22400D3*
Y23700D3*
X32454Y24622D3*
Y25922D3*
X34981Y24785D3*
Y26085D3*
D60*
X33724Y24777D3*
Y26477D3*
D54*
X34308Y22042D3*
X34808D3*
X35308D3*
X35808D3*
D53*
Y22542D3*
Y23042D3*
D54*
Y23542D3*
X35308D3*
X34808D3*
X34308D3*
D53*
Y23042D3*
Y22542D3*
G36*
X49420Y29994D2*
X49616Y29871D1*
X49848Y29845D1*
X50069Y29923D1*
X50235Y30088D1*
X50312Y30309D1*
X50286Y30541D1*
X50163Y30737D1*
X49805Y31094D1*
X49610Y31217D1*
X49377Y31243D1*
X49156Y31166D1*
X48991Y31001D1*
X48914Y30780D1*
X48940Y30548D1*
X49063Y30352D1*
X49420Y29994D1*
G37*
G36*
X50728Y31302D2*
X50924Y31180D1*
X51156Y31153D1*
X51377Y31231D1*
X51543Y31396D1*
X51620Y31617D1*
X51594Y31849D1*
X51471Y32045D1*
X51113Y32402D1*
X50918Y32525D1*
X50685Y32552D1*
X50464Y32474D1*
X50299Y32309D1*
X50222Y32088D1*
X50248Y31856D1*
X50371Y31660D1*
X50728Y31302D1*
G37*
G36*
X52036Y32611D2*
X52232Y32488D1*
X52465Y32462D1*
X52685Y32539D1*
X52851Y32704D1*
X52928Y32925D1*
X52902Y33157D1*
X52779Y33353D1*
X52421Y33711D1*
X52226Y33834D1*
X51993Y33860D1*
X51772Y33783D1*
X51607Y33617D1*
X51530Y33396D1*
X51556Y33164D1*
X51679Y32968D1*
X52036Y32611D1*
G37*
G36*
X48501Y36146D2*
X48697Y36023D1*
X48929Y35997D1*
X49150Y36074D1*
X49315Y36240D1*
X49393Y36461D1*
X49366Y36693D1*
X49243Y36889D1*
X48886Y37246D1*
X48690Y37369D1*
X48458Y37395D1*
X48237Y37318D1*
X48072Y37153D1*
X47994Y36932D1*
X48020Y36699D1*
X48143Y36504D1*
X48501Y36146D1*
G37*
G36*
X47193Y34838D2*
X47388Y34715D1*
X47621Y34689D1*
X47842Y34766D1*
X48007Y34932D1*
X48084Y35152D1*
X48058Y35385D1*
X47935Y35580D1*
X47578Y35938D1*
X47382Y36061D1*
X47150Y36087D1*
X46929Y36010D1*
X46763Y35844D1*
X46686Y35624D1*
X46712Y35391D1*
X46835Y35196D1*
X47193Y34838D1*
G37*
G36*
X45885Y33530D2*
X46080Y33407D1*
X46313Y33381D1*
X46534Y33458D1*
X46699Y33623D1*
X46776Y33844D1*
X46750Y34077D1*
X46627Y34272D1*
X46270Y34630D1*
X46074Y34753D1*
X45842Y34779D1*
X45621Y34702D1*
X45455Y34536D1*
X45378Y34316D1*
X45404Y34083D1*
X45527Y33887D1*
X45885Y33530D1*
G37*
D62*
X66309Y38623D3*
X68159D3*
X70009D3*
Y43623D3*
X68159D3*
X66309D3*
G36*
X65344Y46515D2*
X65466Y46319D1*
X65663Y46193D1*
X65895Y46166D1*
X66116Y46242D1*
X66283Y46406D1*
X66361Y46626D1*
X66337Y46856D1*
X66173Y47334D1*
X66051Y47531D1*
X65854Y47656D1*
X65621Y47684D1*
X65400Y47608D1*
X65234Y47443D1*
X65155Y47223D1*
X65180Y46993D1*
X65344Y46515D1*
G37*
G36*
X67094Y47116D2*
X67215Y46920D1*
X67413Y46794D1*
X67645Y46766D1*
X67866Y46842D1*
X68033Y47007D1*
X68111Y47227D1*
X68087Y47457D1*
X67922Y47935D1*
X67801Y48131D1*
X67603Y48257D1*
X67371Y48285D1*
X67150Y48209D1*
X66983Y48044D1*
X66905Y47824D1*
X66929Y47594D1*
X67094Y47116D1*
G37*
G36*
X68843Y47717D2*
X68965Y47520D1*
X69162Y47395D1*
X69395Y47367D1*
X69616Y47443D1*
X69782Y47607D1*
X69861Y47828D1*
X69836Y48057D1*
X69672Y48536D1*
X69551Y48732D1*
X69353Y48858D1*
X69121Y48885D1*
X68900Y48809D1*
X68733Y48645D1*
X68655Y48424D1*
X68679Y48195D1*
X68843Y47717D1*
G37*
G36*
X67220Y52446D2*
X67342Y52249D1*
X67539Y52124D1*
X67771Y52096D1*
X67993Y52172D1*
X68159Y52336D1*
X68237Y52557D1*
X68213Y52787D1*
X68049Y53265D1*
X67927Y53461D1*
X67730Y53587D1*
X67497Y53614D1*
X67276Y53538D1*
X67110Y53374D1*
X67031Y53154D1*
X67056Y52924D1*
X67220Y52446D1*
G37*
G36*
X65470Y51845D2*
X65592Y51649D1*
X65789Y51523D1*
X66022Y51495D1*
X66243Y51571D1*
X66409Y51736D1*
X66488Y51956D1*
X66463Y52186D1*
X66299Y52664D1*
X66177Y52860D1*
X65980Y52986D1*
X65748Y53014D1*
X65526Y52938D1*
X65360Y52773D1*
X65281Y52553D1*
X65306Y52323D1*
X65470Y51845D1*
G37*
G36*
X63720Y51244D2*
X63842Y51048D1*
X64039Y50922D1*
X64272Y50895D1*
X64493Y50971D1*
X64659Y51135D1*
X64738Y51355D1*
X64713Y51585D1*
X64549Y52063D1*
X64428Y52260D1*
X64230Y52385D1*
X63998Y52413D1*
X63777Y52337D1*
X63610Y52173D1*
X63532Y51952D1*
X63556Y51722D1*
X63720Y51244D1*
G37*
G36*
X62282Y54076D2*
X62461Y53930D1*
X62688Y53875D1*
X62917Y53924D1*
X63102Y54068D1*
X63206Y54278D1*
X63208Y54511D1*
X63111Y54721D1*
X62800Y55120D1*
X62621Y55266D1*
X62394Y55321D1*
X62165Y55271D1*
X61980Y55128D1*
X61876Y54918D1*
X61874Y54684D1*
X61971Y54475D1*
X62282Y54076D1*
G37*
G36*
X63742Y55212D2*
X63921Y55066D1*
X64148Y55011D1*
X64377Y55061D1*
X64561Y55204D1*
X64665Y55414D1*
X64668Y55648D1*
X64570Y55857D1*
X64260Y56256D1*
X64081Y56402D1*
X63853Y56457D1*
X63625Y56408D1*
X63440Y56264D1*
X63336Y56054D1*
X63333Y55821D1*
X63431Y55611D1*
X63742Y55212D1*
G37*
G36*
X65202Y56348D2*
X65381Y56202D1*
X65608Y56148D1*
X65837Y56197D1*
X66021Y56341D1*
X66125Y56550D1*
X66128Y56784D1*
X66030Y56993D1*
X65720Y57392D1*
X65541Y57539D1*
X65313Y57593D1*
X65085Y57544D1*
X64900Y57400D1*
X64796Y57191D1*
X64793Y56957D1*
X64891Y56747D1*
X65202Y56348D1*
G37*
G36*
X62131Y60294D2*
X62310Y60148D1*
X62537Y60093D1*
X62766Y60143D1*
X62950Y60286D1*
X63054Y60496D1*
X63057Y60730D1*
X62959Y60939D1*
X62649Y61338D1*
X62470Y61484D1*
X62242Y61539D1*
X62014Y61490D1*
X61829Y61346D1*
X61725Y61136D1*
X61722Y60903D1*
X61820Y60693D1*
X62131Y60294D1*
G37*
G36*
X60671Y59158D2*
X60850Y59012D1*
X61077Y58957D1*
X61306Y59006D1*
X61490Y59150D1*
X61594Y59360D1*
X61597Y59593D1*
X61499Y59803D1*
X61189Y60202D1*
X61010Y60348D1*
X60782Y60403D1*
X60554Y60353D1*
X60369Y60210D1*
X60265Y60000D1*
X60262Y59766D1*
X60360Y59557D1*
X60671Y59158D1*
G37*
G36*
X59211Y58022D2*
X59390Y57875D1*
X59617Y57821D1*
X59846Y57870D1*
X60030Y58014D1*
X60134Y58223D1*
X60137Y58457D1*
X60039Y58666D1*
X59729Y59066D1*
X59550Y59212D1*
X59323Y59266D1*
X59094Y59217D1*
X58909Y59073D1*
X58805Y58864D1*
X58803Y58630D1*
X58900Y58421D1*
X59211Y58022D1*
G37*
G36*
X56933Y60232D2*
X57150Y60152D1*
X57382Y60174D1*
X57583Y60295D1*
X57711Y60491D1*
X57741Y60723D1*
X57668Y60945D1*
X57507Y61111D1*
X57084Y61388D1*
X56867Y61468D1*
X56634Y61446D1*
X56434Y61325D1*
X56306Y61129D1*
X56276Y60897D1*
X56349Y60675D1*
X56510Y60509D1*
X56933Y60232D1*
G37*
G36*
X57945Y61781D2*
X58161Y61701D1*
X58394Y61723D1*
X58595Y61844D1*
X58722Y62040D1*
X58753Y62271D1*
X58679Y62494D1*
X58519Y62660D1*
X58096Y62936D1*
X57879Y63017D1*
X57646Y62994D1*
X57446Y62874D1*
X57318Y62678D1*
X57288Y62446D1*
X57361Y62224D1*
X57521Y62057D1*
X57945Y61781D1*
G37*
G36*
X58957Y63330D2*
X59173Y63249D1*
X59406Y63271D1*
X59606Y63392D1*
X59734Y63588D1*
X59765Y63820D1*
X59691Y64042D1*
X59531Y64209D1*
X59108Y64485D1*
X58891Y64565D1*
X58658Y64543D1*
X58458Y64422D1*
X58330Y64226D1*
X58299Y63995D1*
X58373Y63772D1*
X58533Y63606D1*
X58957Y63330D1*
G37*
G36*
X54771Y66064D2*
X54987Y65984D1*
X55220Y66006D1*
X55421Y66127D1*
X55549Y66323D1*
X55579Y66555D1*
X55505Y66777D1*
X55345Y66943D1*
X54922Y67220D1*
X54705Y67300D1*
X54472Y67278D1*
X54272Y67157D1*
X54144Y66961D1*
X54114Y66729D1*
X54187Y66507D1*
X54347Y66341D1*
X54771Y66064D1*
G37*
G36*
X53759Y64516D2*
X53976Y64435D1*
X54208Y64457D1*
X54409Y64578D1*
X54537Y64774D1*
X54567Y65006D1*
X54494Y65228D1*
X54333Y65395D1*
X53910Y65671D1*
X53693Y65751D1*
X53460Y65729D1*
X53260Y65608D1*
X53132Y65412D1*
X53102Y65180D1*
X53175Y64958D1*
X53336Y64792D1*
X53759Y64516D1*
G37*
G36*
X52747Y62967D2*
X52964Y62887D1*
X53197Y62909D1*
X53397Y63030D1*
X53525Y63226D1*
X53555Y63457D1*
X53482Y63680D1*
X53321Y63846D1*
X52898Y64122D1*
X52681Y64203D1*
X52448Y64180D1*
X52248Y64060D1*
X52120Y63864D1*
X52090Y63632D1*
X52163Y63410D1*
X52324Y63243D1*
X52747Y62967D1*
G37*
G36*
X49873Y64319D2*
X50104Y64313D1*
X50317Y64410D1*
X50467Y64589D1*
X50524Y64816D1*
X50478Y65045D1*
X50336Y65232D1*
X50131Y65337D1*
X49640Y65461D1*
X49409Y65466D1*
X49196Y65370D1*
X49046Y65190D1*
X48989Y64964D1*
X49035Y64734D1*
X49177Y64548D1*
X49383Y64443D1*
X49873Y64319D1*
G37*
G36*
X50327Y66112D2*
X50558Y66107D1*
X50771Y66203D1*
X50921Y66383D1*
X50979Y66609D1*
X50932Y66839D1*
X50790Y67025D1*
X50585Y67130D1*
X50095Y67254D1*
X49864Y67260D1*
X49651Y67163D1*
X49500Y66984D1*
X49443Y66757D1*
X49490Y66528D1*
X49631Y66342D1*
X49837Y66236D1*
X50327Y66112D1*
G37*
G36*
X50781Y67906D2*
X51012Y67900D1*
X51225Y67997D1*
X51375Y68176D1*
X51433Y68403D1*
X51386Y68632D1*
X51245Y68818D1*
X51039Y68923D1*
X50549Y69048D1*
X50318Y69053D1*
X50105Y68957D1*
X49955Y68777D1*
X49897Y68550D1*
X49944Y68321D1*
X50085Y68135D1*
X50291Y68030D1*
X50781Y67906D1*
G37*
G36*
X45934Y69133D2*
X46165Y69128D1*
X46378Y69224D1*
X46528Y69403D1*
X46586Y69630D1*
X46539Y69860D1*
X46398Y70046D1*
X46192Y70151D1*
X45702Y70275D1*
X45471Y70281D1*
X45258Y70184D1*
X45108Y70005D1*
X45050Y69778D1*
X45097Y69549D1*
X45238Y69362D1*
X45444Y69257D1*
X45934Y69133D1*
G37*
G36*
X45480Y67340D2*
X45711Y67334D1*
X45924Y67431D1*
X46074Y67610D1*
X46132Y67837D1*
X46085Y68066D1*
X45943Y68252D1*
X45738Y68358D1*
X45248Y68482D1*
X45017Y68487D1*
X44804Y68391D1*
X44653Y68211D1*
X44596Y67985D1*
X44643Y67755D1*
X44784Y67569D1*
X44990Y67464D1*
X45480Y67340D1*
G37*
G36*
X45026Y65546D2*
X45257Y65541D1*
X45470Y65637D1*
X45620Y65817D1*
X45677Y66043D1*
X45631Y66273D1*
X45489Y66459D1*
X45284Y66564D1*
X44793Y66688D1*
X44562Y66694D1*
X44349Y66597D1*
X44199Y66418D1*
X44142Y66191D1*
X44188Y65962D1*
X44330Y65776D1*
X44536Y65670D1*
X45026Y65546D1*
G37*
G36*
X41869Y65891D2*
X42089Y65961D1*
X42259Y66122D1*
X42343Y66340D1*
X42324Y66573D1*
X42205Y66775D1*
X42011Y66905D1*
X41782Y66938D1*
X41278Y66896D1*
X41058Y66826D1*
X40888Y66666D1*
X40804Y66447D1*
X40823Y66214D1*
X40942Y66013D1*
X41136Y65882D1*
X41365Y65850D1*
X41869Y65891D1*
G37*
G36*
X41716Y67735D2*
X41936Y67805D1*
X42107Y67965D1*
X42190Y68184D1*
X42171Y68417D1*
X42052Y68619D1*
X41858Y68749D1*
X41629Y68782D1*
X41125Y68740D1*
X40905Y68670D1*
X40735Y68509D1*
X40651Y68291D1*
X40671Y68058D1*
X40789Y67856D1*
X40983Y67726D1*
X41212Y67693D1*
X41716Y67735D1*
G37*
G36*
X41563Y69579D2*
X41784Y69649D1*
X41954Y69809D1*
X42038Y70028D1*
X42018Y70261D1*
X41900Y70462D1*
X41705Y70593D1*
X41477Y70625D1*
X40973Y70583D1*
X40752Y70514D1*
X40582Y70353D1*
X40498Y70135D1*
X40518Y69902D1*
X40636Y69700D1*
X40831Y69570D1*
X41059Y69537D1*
X41563Y69579D1*
G37*
G36*
X36580Y69166D2*
X36801Y69236D1*
X36971Y69396D1*
X37055Y69615D1*
X37035Y69848D1*
X36917Y70049D1*
X36722Y70180D1*
X36494Y70212D1*
X35990Y70171D1*
X35770Y70101D1*
X35599Y69940D1*
X35516Y69722D1*
X35535Y69489D1*
X35653Y69287D1*
X35848Y69157D1*
X36076Y69124D1*
X36580Y69166D1*
G37*
G36*
X36733Y67322D2*
X36953Y67392D1*
X37124Y67552D1*
X37207Y67771D1*
X37188Y68004D1*
X37069Y68206D1*
X36875Y68336D1*
X36646Y68369D1*
X36143Y68327D1*
X35922Y68257D1*
X35752Y68097D1*
X35668Y67878D1*
X35688Y67645D1*
X35806Y67443D1*
X36001Y67313D1*
X36229Y67280D1*
X36733Y67322D1*
G37*
G36*
X36886Y65479D2*
X37106Y65548D1*
X37276Y65709D1*
X37360Y65927D1*
X37341Y66160D1*
X37222Y66362D1*
X37028Y66492D1*
X36799Y66525D1*
X36295Y66483D1*
X36075Y66413D1*
X35905Y66253D1*
X35821Y66034D1*
X35840Y65801D1*
X35959Y65600D1*
X36153Y65469D1*
X36382Y65437D1*
X36886Y65479D1*
G37*
G36*
X33788Y64780D2*
X33974Y64917D1*
X34083Y65124D1*
X34091Y65358D1*
X33997Y65572D1*
X33820Y65725D1*
X33593Y65785D1*
X33367Y65741D1*
X32903Y65538D1*
X32718Y65401D1*
X32609Y65194D1*
X32601Y64960D1*
X32695Y64746D1*
X32872Y64593D1*
X33098Y64533D1*
X33325Y64577D1*
X33788Y64780D1*
G37*
G36*
X33045Y66474D2*
X33231Y66612D1*
X33340Y66819D1*
X33348Y67052D1*
X33254Y67267D1*
X33076Y67419D1*
X32850Y67479D1*
X32623Y67436D1*
X32160Y67232D1*
X31975Y67095D1*
X31866Y66888D1*
X31858Y66654D1*
X31951Y66440D1*
X32129Y66288D1*
X32355Y66227D1*
X32582Y66271D1*
X33045Y66474D1*
G37*
G36*
X32302Y68168D2*
X32488Y68306D1*
X32597Y68513D1*
X32605Y68747D1*
X32511Y68961D1*
X32333Y69113D1*
X32107Y69173D1*
X31880Y69130D1*
X31417Y68927D1*
X31232Y68789D1*
X31123Y68582D1*
X31114Y68348D1*
X31208Y68134D1*
X31386Y67982D1*
X31612Y67922D1*
X31839Y67965D1*
X32302Y68168D1*
G37*
G36*
X27723Y66160D2*
X27909Y66297D1*
X28018Y66504D1*
X28026Y66738D1*
X27932Y66952D1*
X27754Y67105D1*
X27528Y67165D1*
X27301Y67121D1*
X26838Y66918D1*
X26653Y66781D1*
X26544Y66574D1*
X26536Y66340D1*
X26629Y66126D1*
X26807Y65973D1*
X27033Y65913D1*
X27260Y65957D1*
X27723Y66160D1*
G37*
G36*
X28466Y64466D2*
X28652Y64603D1*
X28761Y64810D1*
X28769Y65044D1*
X28675Y65258D1*
X28498Y65410D1*
X28271Y65470D1*
X28045Y65427D1*
X27581Y65224D1*
X27396Y65086D1*
X27287Y64879D1*
X27279Y64646D1*
X27373Y64431D1*
X27550Y64279D1*
X27776Y64219D1*
X28003Y64262D1*
X28466Y64466D1*
G37*
G36*
X29209Y62771D2*
X29395Y62909D1*
X29504Y63116D1*
X29512Y63350D1*
X29418Y63564D1*
X29241Y63716D1*
X29015Y63776D1*
X28788Y63733D1*
X28325Y63530D1*
X28139Y63392D1*
X28030Y63185D1*
X28022Y62951D1*
X28116Y62737D1*
X28293Y62585D1*
X28519Y62525D1*
X28746Y62568D1*
X29209Y62771D1*
G37*
G36*
X26506Y61105D2*
X26637Y61295D1*
X26673Y61527D1*
X26605Y61750D1*
X26446Y61923D1*
X26229Y62009D1*
X25996Y61992D1*
X25795Y61878D1*
X25423Y61535D1*
X25292Y61345D1*
X25256Y61114D1*
X25324Y60890D1*
X25483Y60718D1*
X25700Y60631D1*
X25934Y60648D1*
X26134Y60763D1*
X26506Y61105D1*
G37*
G36*
X25253Y62466D2*
X25384Y62657D1*
X25420Y62888D1*
X25352Y63112D1*
X25193Y63284D1*
X24976Y63370D1*
X24743Y63353D1*
X24542Y63239D1*
X24170Y62896D1*
X24039Y62706D1*
X24003Y62475D1*
X24071Y62251D1*
X24230Y62079D1*
X24447Y61992D1*
X24681Y62009D1*
X24881Y62124D1*
X25253Y62466D1*
G37*
G36*
X24000Y63827D2*
X24131Y64018D1*
X24167Y64249D1*
X24099Y64473D1*
X23940Y64645D1*
X23723Y64731D1*
X23490Y64714D1*
X23289Y64600D1*
X22917Y64257D1*
X22786Y64067D1*
X22750Y63836D1*
X22818Y63612D1*
X22977Y63440D1*
X23194Y63353D1*
X23428Y63370D1*
X23628Y63485D1*
X24000Y63827D1*
G37*
G36*
X20322Y60441D2*
X20452Y60631D1*
X20488Y60862D1*
X20420Y61086D1*
X20262Y61258D1*
X20044Y61345D1*
X19811Y61328D1*
X19610Y61213D1*
X19238Y60871D1*
X19108Y60680D1*
X19072Y60449D1*
X19140Y60225D1*
X19298Y60053D1*
X19516Y59967D1*
X19749Y59984D1*
X19950Y60098D1*
X20322Y60441D1*
G37*
G36*
X21575Y59080D2*
X21705Y59270D1*
X21741Y59501D1*
X21673Y59725D1*
X21515Y59897D1*
X21297Y59983D1*
X21064Y59967D1*
X20863Y59852D1*
X20491Y59510D1*
X20361Y59319D1*
X20325Y59088D1*
X20393Y58864D1*
X20551Y58692D1*
X20769Y58606D1*
X21002Y58623D1*
X21203Y58737D1*
X21575Y59080D1*
G37*
G36*
X22828Y57719D2*
X22958Y57909D1*
X22994Y58140D1*
X22926Y58364D1*
X22768Y58536D1*
X22550Y58622D1*
X22317Y58606D1*
X22116Y58491D1*
X21744Y58149D1*
X21614Y57958D1*
X21578Y57727D1*
X21646Y57503D1*
X21804Y57331D1*
X22022Y57245D1*
X22255Y57261D1*
X22456Y57376D1*
X22828Y57719D1*
G37*
G36*
X19648Y55320D2*
X19586Y55097D1*
X19627Y54867D1*
X19764Y54677D1*
X19970Y54566D1*
X20204Y54555D1*
X20419Y54646D1*
X20572Y54820D1*
X20812Y55265D1*
X20874Y55487D1*
X20833Y55717D1*
X20696Y55907D1*
X20490Y56018D1*
X20257Y56029D1*
X20041Y55938D1*
X19889Y55764D1*
X19648Y55320D1*
G37*
G36*
X18021Y56200D2*
X17959Y55978D1*
X18000Y55747D1*
X18137Y55558D1*
X18343Y55446D1*
X18577Y55435D1*
X18792Y55527D1*
X18945Y55700D1*
X19185Y56145D1*
X19247Y56368D1*
X19206Y56598D1*
X19069Y56788D1*
X18863Y56899D1*
X18630Y56910D1*
X18414Y56819D1*
X18262Y56645D1*
X18021Y56200D1*
G37*
G36*
X16394Y57081D2*
X16332Y56858D1*
X16373Y56628D1*
X16510Y56438D1*
X16716Y56327D1*
X16950Y56316D1*
X17165Y56407D1*
X17318Y56581D1*
X17558Y57026D1*
X17620Y57248D1*
X17579Y57478D1*
X17442Y57668D1*
X17236Y57779D1*
X17003Y57790D1*
X16787Y57699D1*
X16635Y57525D1*
X16394Y57081D1*
G37*
G36*
X14014Y52683D2*
X13952Y52461D1*
X13994Y52230D1*
X14131Y52041D1*
X14336Y51930D1*
X14570Y51918D1*
X14785Y52010D1*
X14938Y52184D1*
X15178Y52628D1*
X15240Y52851D1*
X15199Y53081D1*
X15062Y53271D1*
X14856Y53382D1*
X14623Y53393D1*
X14407Y53302D1*
X14255Y53128D1*
X14014Y52683D1*
G37*
G36*
X15641Y51803D2*
X15579Y51580D1*
X15621Y51350D1*
X15758Y51160D1*
X15963Y51049D1*
X16197Y51038D1*
X16412Y51129D1*
X16565Y51303D1*
X16805Y51748D1*
X16867Y51970D1*
X16826Y52201D1*
X16689Y52390D1*
X16483Y52501D1*
X16250Y52513D1*
X16034Y52421D1*
X15882Y52247D1*
X15641Y51803D1*
G37*
G36*
X17268Y50922D2*
X17206Y50700D1*
X17248Y50469D1*
X17385Y50280D1*
X17590Y50169D1*
X17824Y50157D1*
X18039Y50249D1*
X18192Y50423D1*
X18433Y50867D1*
X18495Y51090D1*
X18453Y51320D1*
X18316Y51510D1*
X18110Y51621D1*
X17877Y51632D1*
X17661Y51541D1*
X17509Y51367D1*
X17268Y50922D1*
G37*
G36*
X16204Y47565D2*
X16218Y47335D1*
X16332Y47130D1*
X16523Y46996D1*
X16753Y46957D1*
X16978Y47022D1*
X17152Y47179D1*
X17240Y47393D1*
X17323Y47891D1*
X17309Y48122D1*
X17196Y48326D1*
X17004Y48461D1*
X16774Y48500D1*
X16549Y48434D1*
X16375Y48278D1*
X16287Y48064D1*
X16204Y47565D1*
G37*
G36*
X14379Y47870D2*
X14393Y47639D1*
X14507Y47435D1*
X14698Y47300D1*
X14929Y47262D1*
X15153Y47327D1*
X15327Y47483D1*
X15415Y47697D1*
X15498Y48196D1*
X15485Y48426D1*
X15371Y48631D1*
X15180Y48766D1*
X14949Y48804D1*
X14724Y48739D1*
X14550Y48582D1*
X14463Y48369D1*
X14379Y47870D1*
G37*
G36*
X12555Y48174D2*
X12568Y47944D1*
X12682Y47739D1*
X12873Y47605D1*
X13104Y47566D1*
X13329Y47631D1*
X13502Y47788D1*
X13590Y48002D1*
X13673Y48500D1*
X13660Y48731D1*
X13546Y48935D1*
X13355Y49070D1*
X13124Y49109D1*
X12900Y49043D1*
X12726Y48887D1*
X12638Y48673D1*
X12555Y48174D1*
G37*
G36*
X11732Y43243D2*
X11745Y43012D1*
X11859Y42808D1*
X12050Y42673D1*
X12281Y42634D1*
X12506Y42700D1*
X12679Y42856D1*
X12767Y43070D1*
X12850Y43569D1*
X12837Y43799D1*
X12723Y44004D1*
X12532Y44138D1*
X12301Y44177D1*
X12077Y44111D1*
X11903Y43955D1*
X11815Y43741D1*
X11732Y43243D1*
G37*
G36*
X13556Y42938D2*
X13570Y42707D1*
X13684Y42503D1*
X13875Y42368D1*
X14106Y42330D1*
X14330Y42395D1*
X14504Y42552D1*
X14592Y42765D1*
X14675Y43264D1*
X14662Y43495D1*
X14548Y43699D1*
X14357Y43834D1*
X14126Y43872D1*
X13901Y43807D1*
X13727Y43651D1*
X13640Y43437D1*
X13556Y42938D1*
G37*
G36*
X15381Y42634D2*
X15395Y42403D1*
X15509Y42199D1*
X15700Y42064D1*
X15930Y42025D1*
X16155Y42091D1*
X16329Y42247D1*
X16417Y42461D1*
X16500Y42960D1*
X16486Y43190D1*
X16373Y43395D1*
X16181Y43529D1*
X15951Y43568D1*
X15726Y43502D1*
X15552Y43346D1*
X15464Y43132D1*
X15381Y42634D1*
G37*
G36*
X15464Y39114D2*
X15552Y38900D1*
X15726Y38743D1*
X15951Y38678D1*
X16181Y38717D1*
X16373Y38851D1*
X16486Y39056D1*
X16500Y39286D1*
X16417Y39785D1*
X16329Y39999D1*
X16155Y40155D1*
X15930Y40221D1*
X15700Y40182D1*
X15509Y40047D1*
X15395Y39843D1*
X15381Y39612D1*
X15464Y39114D1*
G37*
G36*
X13640Y38809D2*
X13727Y38595D1*
X13901Y38439D1*
X14126Y38374D1*
X14357Y38412D1*
X14548Y38547D1*
X14662Y38751D1*
X14675Y38982D1*
X14592Y39481D1*
X14504Y39694D1*
X14330Y39851D1*
X14106Y39916D1*
X13875Y39878D1*
X13684Y39743D1*
X13570Y39538D1*
X13556Y39308D1*
X13640Y38809D1*
G37*
G36*
X11815Y38505D2*
X11903Y38291D1*
X12077Y38134D1*
X12301Y38069D1*
X12532Y38108D1*
X12723Y38242D1*
X12837Y38447D1*
X12850Y38677D1*
X12767Y39176D1*
X12679Y39390D1*
X12506Y39546D1*
X12281Y39612D1*
X12050Y39573D1*
X11859Y39438D1*
X11745Y39234D1*
X11732Y39003D1*
X11815Y38505D1*
G37*
G36*
X12638Y33573D2*
X12726Y33359D1*
X12900Y33203D1*
X13124Y33137D1*
X13355Y33176D1*
X13546Y33311D1*
X13660Y33515D1*
X13673Y33746D1*
X13590Y34244D1*
X13502Y34458D1*
X13329Y34614D1*
X13104Y34680D1*
X12873Y34641D1*
X12682Y34507D1*
X12568Y34302D1*
X12555Y34072D1*
X12638Y33573D1*
G37*
G36*
X14463Y33877D2*
X14550Y33664D1*
X14724Y33507D1*
X14949Y33442D1*
X15180Y33480D1*
X15371Y33615D1*
X15485Y33819D1*
X15498Y34050D1*
X15415Y34549D1*
X15327Y34763D1*
X15153Y34919D1*
X14929Y34984D1*
X14698Y34946D1*
X14507Y34811D1*
X14393Y34607D1*
X14379Y34376D1*
X14463Y33877D1*
G37*
G36*
X16287Y34182D2*
X16375Y33968D1*
X16549Y33812D1*
X16774Y33746D1*
X17004Y33785D1*
X17196Y33920D1*
X17309Y34124D1*
X17323Y34355D1*
X17240Y34853D1*
X17152Y35067D1*
X16978Y35223D1*
X16753Y35289D1*
X16523Y35250D1*
X16332Y35116D1*
X16218Y34911D1*
X16204Y34681D1*
X16287Y34182D1*
G37*
G36*
X17509Y30879D2*
X17661Y30705D1*
X17877Y30614D1*
X18110Y30625D1*
X18316Y30736D1*
X18453Y30926D1*
X18494Y31156D1*
X18432Y31379D1*
X18192Y31823D1*
X18039Y31997D1*
X17824Y32088D1*
X17590Y32077D1*
X17385Y31966D1*
X17248Y31776D1*
X17206Y31546D1*
X17268Y31324D1*
X17509Y30879D1*
G37*
G36*
X15882Y29998D2*
X16034Y29825D1*
X16250Y29733D1*
X16483Y29744D1*
X16689Y29856D1*
X16826Y30045D1*
X16867Y30276D1*
X16805Y30498D1*
X16565Y30943D1*
X16412Y31116D1*
X16197Y31208D1*
X15963Y31197D1*
X15758Y31086D1*
X15621Y30896D1*
X15579Y30666D1*
X15641Y30443D1*
X15882Y29998D1*
G37*
G36*
X14255Y29118D2*
X14407Y28944D1*
X14623Y28853D1*
X14856Y28864D1*
X15062Y28975D1*
X15199Y29165D1*
X15240Y29395D1*
X15178Y29618D1*
X14938Y30062D1*
X14785Y30236D1*
X14570Y30327D1*
X14336Y30316D1*
X14131Y30205D1*
X13994Y30015D1*
X13952Y29785D1*
X14014Y29563D1*
X14255Y29118D1*
G37*
G36*
X16635Y24721D2*
X16787Y24547D1*
X17002Y24455D1*
X17236Y24467D1*
X17442Y24578D1*
X17579Y24767D1*
X17620Y24998D1*
X17558Y25220D1*
X17318Y25665D1*
X17165Y25839D1*
X16950Y25930D1*
X16716Y25919D1*
X16510Y25808D1*
X16373Y25618D1*
X16332Y25388D1*
X16394Y25165D1*
X16635Y24721D1*
G37*
G36*
X18262Y25601D2*
X18414Y25427D1*
X18630Y25336D1*
X18863Y25347D1*
X19069Y25458D1*
X19206Y25648D1*
X19247Y25878D1*
X19185Y26101D1*
X18945Y26545D1*
X18792Y26719D1*
X18577Y26811D1*
X18343Y26799D1*
X18137Y26688D1*
X18000Y26499D1*
X17959Y26268D1*
X18021Y26046D1*
X18262Y25601D1*
G37*
G36*
X19889Y26482D2*
X20041Y26308D1*
X20257Y26216D1*
X20490Y26228D1*
X20696Y26339D1*
X20833Y26528D1*
X20874Y26759D1*
X20812Y26981D1*
X20572Y27426D1*
X20419Y27600D1*
X20204Y27691D1*
X19970Y27680D1*
X19764Y27569D1*
X19627Y27379D1*
X19586Y27149D1*
X19648Y26926D1*
X19889Y26482D1*
G37*
G36*
X22116Y23755D2*
X22317Y23640D1*
X22550Y23623D1*
X22768Y23710D1*
X22926Y23882D1*
X22994Y24106D1*
X22958Y24337D1*
X22828Y24527D1*
X22456Y24870D1*
X22255Y24984D1*
X22022Y25001D1*
X21804Y24915D1*
X21646Y24743D1*
X21578Y24519D1*
X21614Y24288D1*
X21744Y24097D1*
X22116Y23755D1*
G37*
G36*
X20863Y22394D2*
X21064Y22279D1*
X21297Y22262D1*
X21515Y22349D1*
X21673Y22521D1*
X21741Y22745D1*
X21705Y22976D1*
X21575Y23166D1*
X21203Y23509D1*
X21002Y23623D1*
X20769Y23640D1*
X20551Y23554D1*
X20393Y23382D1*
X20325Y23158D1*
X20361Y22927D1*
X20491Y22736D1*
X20863Y22394D1*
G37*
G36*
X19610Y21033D2*
X19811Y20918D1*
X20044Y20901D1*
X20262Y20988D1*
X20420Y21160D1*
X20488Y21384D1*
X20452Y21615D1*
X20322Y21805D1*
X19950Y22148D1*
X19749Y22262D1*
X19516Y22279D1*
X19298Y22193D1*
X19140Y22020D1*
X19072Y21797D1*
X19108Y21565D1*
X19238Y21375D1*
X19610Y21033D1*
G37*
G36*
X23289Y17646D2*
X23490Y17531D1*
X23723Y17515D1*
X23940Y17601D1*
X24099Y17773D1*
X24167Y17997D1*
X24131Y18228D1*
X24000Y18419D1*
X23628Y18761D1*
X23428Y18876D1*
X23194Y18892D1*
X22977Y18806D1*
X22818Y18634D1*
X22750Y18410D1*
X22786Y18179D1*
X22917Y17989D1*
X23289Y17646D1*
G37*
G36*
X24542Y19007D2*
X24743Y18893D1*
X24976Y18876D1*
X25193Y18962D1*
X25352Y19134D1*
X25420Y19358D1*
X25384Y19589D1*
X25253Y19780D1*
X24881Y20122D1*
X24681Y20237D1*
X24447Y20253D1*
X24230Y20167D1*
X24071Y19995D1*
X24003Y19771D1*
X24039Y19540D1*
X24170Y19350D1*
X24542Y19007D1*
G37*
G36*
X25795Y20368D2*
X25996Y20254D1*
X26229Y20237D1*
X26446Y20323D1*
X26605Y20495D1*
X26673Y20719D1*
X26637Y20950D1*
X26506Y21141D1*
X26134Y21483D1*
X25934Y21598D1*
X25700Y21615D1*
X25483Y21528D1*
X25324Y21356D1*
X25256Y21132D1*
X25292Y20901D1*
X25423Y20711D1*
X25795Y20368D1*
G37*
G36*
X28788Y18513D2*
X29015Y18470D1*
X29241Y18530D1*
X29419Y18682D1*
X29513Y18896D1*
X29505Y19130D1*
X29396Y19337D1*
X29210Y19475D1*
X28747Y19678D1*
X28520Y19722D1*
X28294Y19662D1*
X28117Y19509D1*
X28023Y19295D1*
X28031Y19061D1*
X28140Y18854D1*
X28325Y18717D1*
X28788Y18513D1*
G37*
G36*
X28045Y16820D2*
X28272Y16776D1*
X28498Y16836D1*
X28675Y16988D1*
X28769Y17203D1*
X28761Y17436D1*
X28652Y17643D1*
X28467Y17781D1*
X28004Y17984D1*
X27777Y18028D1*
X27551Y17968D1*
X27373Y17815D1*
X27279Y17601D1*
X27287Y17367D1*
X27396Y17160D1*
X27582Y17023D1*
X28045Y16820D1*
G37*
G36*
X27301Y15126D2*
X27528Y15082D1*
X27754Y15142D1*
X27932Y15294D1*
X28026Y15509D1*
X28017Y15742D1*
X27909Y15949D1*
X27723Y16087D1*
X27260Y16290D1*
X27033Y16334D1*
X26807Y16274D1*
X26629Y16121D1*
X26535Y15907D1*
X26544Y15673D1*
X26652Y15466D1*
X26838Y15329D1*
X27301Y15126D1*
G37*
G36*
X31879Y13116D2*
X32106Y13072D1*
X32332Y13132D1*
X32510Y13285D1*
X32604Y13499D1*
X32596Y13733D1*
X32487Y13940D1*
X32301Y14077D1*
X31838Y14280D1*
X31611Y14324D1*
X31385Y14264D1*
X31208Y14112D1*
X31114Y13897D1*
X31122Y13664D1*
X31231Y13457D1*
X31416Y13319D1*
X31879Y13116D1*
G37*
G36*
X32623Y14810D2*
X32850Y14766D1*
X33076Y14826D1*
X33254Y14979D1*
X33348Y15193D1*
X33339Y15427D1*
X33231Y15634D1*
X33045Y15771D1*
X32582Y15974D1*
X32355Y16018D1*
X32129Y15958D1*
X31951Y15806D1*
X31857Y15591D1*
X31866Y15358D1*
X31974Y15151D1*
X32160Y15013D1*
X32623Y14810D1*
G37*
G36*
X33367Y16504D2*
X33593Y16460D1*
X33820Y16520D1*
X33997Y16673D1*
X34091Y16887D1*
X34083Y17121D1*
X33974Y17328D1*
X33789Y17465D1*
X33326Y17668D1*
X33099Y17712D1*
X32873Y17652D1*
X32695Y17500D1*
X32601Y17285D1*
X32609Y17052D1*
X32718Y16845D1*
X32904Y16707D1*
X33367Y16504D1*
G37*
G36*
X36799Y15721D2*
X37028Y15754D1*
X37222Y15884D1*
X37341Y16086D1*
X37360Y16319D1*
X37277Y16537D1*
X37106Y16698D1*
X36886Y16768D1*
X36382Y16809D1*
X36153Y16777D1*
X35959Y16646D1*
X35841Y16445D1*
X35821Y16212D1*
X35905Y15993D1*
X36075Y15833D1*
X36295Y15763D1*
X36799Y15721D1*
G37*
G36*
X36646Y13877D2*
X36875Y13910D1*
X37069Y14040D1*
X37188Y14242D1*
X37207Y14475D1*
X37124Y14694D1*
X36953Y14854D1*
X36733Y14924D1*
X36229Y14966D1*
X36001Y14933D1*
X35806Y14803D1*
X35688Y14601D1*
X35668Y14368D1*
X35752Y14150D1*
X35922Y13989D1*
X36143Y13919D1*
X36646Y13877D1*
G37*
G36*
X36494Y12034D2*
X36722Y12066D1*
X36917Y12197D1*
X37035Y12398D1*
X37054Y12631D1*
X36971Y12850D1*
X36801Y13010D1*
X36580Y13080D1*
X36076Y13122D1*
X35848Y13089D1*
X35653Y12959D1*
X35535Y12757D1*
X35515Y12524D1*
X35599Y12306D1*
X35769Y12145D1*
X35990Y12076D1*
X36494Y12034D1*
G37*
G36*
X41476Y11621D2*
X41705Y11653D1*
X41899Y11783D1*
X42018Y11985D1*
X42037Y12218D1*
X41954Y12437D1*
X41783Y12597D1*
X41563Y12667D1*
X41059Y12709D1*
X40831Y12676D1*
X40636Y12546D1*
X40518Y12344D1*
X40498Y12111D1*
X40582Y11893D1*
X40752Y11732D1*
X40973Y11662D1*
X41476Y11621D1*
G37*
G36*
X41629Y13464D2*
X41858Y13497D1*
X42052Y13627D1*
X42171Y13829D1*
X42190Y14062D1*
X42107Y14280D1*
X41936Y14441D1*
X41716Y14511D1*
X41212Y14552D1*
X40983Y14520D1*
X40789Y14390D1*
X40671Y14188D1*
X40651Y13955D1*
X40735Y13736D1*
X40905Y13576D1*
X41125Y13506D1*
X41629Y13464D1*
G37*
G36*
X41782Y15308D2*
X42011Y15341D1*
X42205Y15471D1*
X42324Y15672D1*
X42343Y15906D1*
X42259Y16124D1*
X42089Y16284D1*
X41869Y16354D1*
X41365Y16396D1*
X41136Y16364D1*
X40942Y16233D1*
X40823Y16032D1*
X40804Y15798D1*
X40888Y15580D1*
X41058Y15420D1*
X41278Y15350D1*
X41782Y15308D1*
G37*
G36*
X45284Y15682D2*
X45489Y15787D1*
X45631Y15974D1*
X45678Y16203D1*
X45620Y16430D1*
X45470Y16609D1*
X45257Y16706D1*
X45026Y16700D1*
X44536Y16576D1*
X44330Y16471D1*
X44189Y16285D1*
X44142Y16056D1*
X44199Y15829D1*
X44349Y15649D1*
X44563Y15553D1*
X44794Y15558D1*
X45284Y15682D1*
G37*
G36*
X45738Y13889D2*
X45943Y13994D1*
X46085Y14180D1*
X46132Y14409D1*
X46074Y14636D1*
X45924Y14816D1*
X45711Y14912D1*
X45480Y14907D1*
X44990Y14783D1*
X44784Y14678D1*
X44643Y14491D1*
X44596Y14262D1*
X44653Y14035D1*
X44803Y13856D1*
X45016Y13759D1*
X45247Y13765D1*
X45738Y13889D1*
G37*
G36*
X46191Y12095D2*
X46397Y12200D1*
X46539Y12387D1*
X46585Y12616D1*
X46528Y12843D1*
X46378Y13022D1*
X46165Y13119D1*
X45934Y13113D1*
X45444Y12989D1*
X45238Y12884D1*
X45096Y12698D1*
X45050Y12469D1*
X45107Y12242D1*
X45257Y12062D1*
X45470Y11966D1*
X45701Y11971D1*
X46191Y12095D1*
G37*
G36*
X51039Y13322D2*
X51244Y13427D1*
X51386Y13613D1*
X51433Y13842D1*
X51375Y14069D1*
X51225Y14249D1*
X51012Y14345D1*
X50781Y14340D1*
X50291Y14216D1*
X50085Y14111D1*
X49944Y13924D1*
X49897Y13695D1*
X49954Y13468D1*
X50104Y13289D1*
X50317Y13192D1*
X50548Y13198D1*
X51039Y13322D1*
G37*
G36*
X50585Y15115D2*
X50791Y15220D1*
X50932Y15407D1*
X50979Y15636D1*
X50921Y15863D1*
X50771Y16042D1*
X50558Y16139D1*
X50327Y16133D1*
X49837Y16009D1*
X49631Y15904D1*
X49490Y15718D1*
X49443Y15489D1*
X49500Y15262D1*
X49651Y15082D1*
X49864Y14986D1*
X50095Y14991D1*
X50585Y15115D1*
G37*
G36*
X50131Y16909D2*
X50337Y17014D1*
X50478Y17200D1*
X50525Y17429D1*
X50468Y17656D1*
X50317Y17836D1*
X50104Y17932D1*
X49873Y17927D1*
X49383Y17803D1*
X49177Y17698D1*
X49036Y17511D1*
X48989Y17282D1*
X49047Y17055D1*
X49197Y16876D1*
X49410Y16779D1*
X49641Y16785D1*
X50131Y16909D1*
G37*
G36*
X53321Y18398D2*
X53482Y18565D1*
X53555Y18787D1*
X53524Y19019D1*
X53396Y19214D1*
X53196Y19335D1*
X52963Y19357D1*
X52746Y19277D1*
X52323Y19000D1*
X52163Y18834D1*
X52090Y18611D1*
X52120Y18379D1*
X52248Y18184D1*
X52449Y18063D1*
X52682Y18041D1*
X52898Y18121D1*
X53321Y18398D1*
G37*
G36*
X54334Y16850D2*
X54495Y17017D1*
X54568Y17239D1*
X54537Y17471D1*
X54409Y17666D1*
X54209Y17787D1*
X53976Y17809D1*
X53759Y17729D1*
X53336Y17452D1*
X53176Y17286D1*
X53103Y17063D1*
X53133Y16831D1*
X53261Y16636D1*
X53462Y16515D1*
X53695Y16493D1*
X53911Y16573D1*
X54334Y16850D1*
G37*
G36*
X55347Y15302D2*
X55508Y15469D1*
X55581Y15691D1*
X55550Y15923D1*
X55422Y16118D1*
X55222Y16239D1*
X54989Y16261D1*
X54772Y16181D1*
X54349Y15904D1*
X54189Y15738D1*
X54116Y15515D1*
X54146Y15283D1*
X54274Y15088D1*
X54475Y14967D1*
X54708Y14945D1*
X54924Y15025D1*
X55347Y15302D1*
G37*
G36*
X59531Y18040D2*
X59692Y18206D1*
X59765Y18429D1*
X59734Y18660D1*
X59606Y18856D1*
X59406Y18977D1*
X59173Y18999D1*
X58956Y18919D1*
X58533Y18642D1*
X58373Y18475D1*
X58300Y18253D1*
X58330Y18021D1*
X58458Y17826D1*
X58659Y17705D1*
X58891Y17683D1*
X59108Y17763D1*
X59531Y18040D1*
G37*
G36*
X58518Y19588D2*
X58679Y19754D1*
X58752Y19977D1*
X58721Y20208D1*
X58593Y20404D1*
X58393Y20525D1*
X58160Y20547D1*
X57943Y20467D1*
X57520Y20190D1*
X57360Y20023D1*
X57287Y19801D1*
X57317Y19569D1*
X57445Y19374D1*
X57646Y19253D1*
X57879Y19231D1*
X58095Y19311D1*
X58518Y19588D1*
G37*
G36*
X57505Y21136D2*
X57666Y21302D1*
X57739Y21525D1*
X57708Y21757D1*
X57580Y21952D1*
X57380Y22073D1*
X57147Y22095D1*
X56930Y22015D1*
X56507Y21738D1*
X56347Y21571D1*
X56274Y21349D1*
X56304Y21117D1*
X56432Y20922D1*
X56633Y20801D1*
X56866Y20779D1*
X57082Y20859D1*
X57505Y21136D1*
G37*
G36*
X58901Y23826D2*
X58803Y23616D1*
X58806Y23382D1*
X58910Y23173D1*
X59095Y23029D1*
X59323Y22980D1*
X59551Y23035D1*
X59730Y23181D1*
X60040Y23580D1*
X60138Y23789D1*
X60135Y24023D1*
X60031Y24232D1*
X59847Y24376D1*
X59618Y24426D1*
X59391Y24371D1*
X59212Y24225D1*
X58901Y23826D1*
G37*
G36*
X60361Y22689D2*
X60263Y22480D1*
X60266Y22246D1*
X60370Y22036D1*
X60554Y21893D1*
X60783Y21843D1*
X61011Y21898D1*
X61190Y22044D1*
X61500Y22443D1*
X61598Y22653D1*
X61595Y22886D1*
X61491Y23096D1*
X61307Y23240D1*
X61078Y23289D1*
X60851Y23234D1*
X60672Y23088D1*
X60361Y22689D1*
G37*
G36*
X61821Y21553D2*
X61723Y21344D1*
X61726Y21110D1*
X61830Y20900D1*
X62014Y20756D1*
X62243Y20707D1*
X62470Y20762D1*
X62649Y20908D1*
X62960Y21307D1*
X63058Y21516D1*
X63055Y21750D1*
X62951Y21960D1*
X62766Y22103D1*
X62538Y22153D1*
X62310Y22098D1*
X62131Y21952D1*
X61821Y21553D1*
G37*
G36*
X64892Y25498D2*
X64794Y25289D1*
X64797Y25055D1*
X64901Y24845D1*
X65086Y24702D1*
X65314Y24652D1*
X65542Y24707D1*
X65721Y24853D1*
X66031Y25252D1*
X66129Y25462D1*
X66126Y25695D1*
X66022Y25905D1*
X65838Y26049D1*
X65609Y26098D1*
X65382Y26043D1*
X65203Y25897D1*
X64892Y25498D1*
G37*
G36*
X63432Y26635D2*
X63335Y26425D1*
X63337Y26191D1*
X63441Y25982D1*
X63626Y25838D1*
X63855Y25789D1*
X64082Y25844D1*
X64261Y25990D1*
X64572Y26389D1*
X64669Y26598D1*
X64667Y26832D1*
X64563Y27041D1*
X64378Y27185D1*
X64149Y27235D1*
X63922Y27180D1*
X63743Y27034D1*
X63432Y26635D1*
G37*
G36*
X61973Y27771D2*
X61875Y27562D1*
X61878Y27328D1*
X61982Y27118D1*
X62166Y26975D1*
X62395Y26925D1*
X62622Y26980D1*
X62801Y27126D1*
X63112Y27525D1*
X63210Y27734D1*
X63207Y27968D1*
X63103Y28178D1*
X62918Y28322D1*
X62690Y28371D1*
X62462Y28316D1*
X62283Y28170D1*
X61973Y27771D1*
G37*
G36*
X63558Y30521D2*
X63533Y30291D1*
X63612Y30071D1*
X63779Y29907D1*
X64000Y29831D1*
X64232Y29859D1*
X64429Y29984D1*
X64551Y30181D1*
X64715Y30659D1*
X64739Y30889D1*
X64660Y31109D1*
X64494Y31273D1*
X64273Y31349D1*
X64040Y31321D1*
X63843Y31196D1*
X63721Y30999D1*
X63558Y30521D1*
G37*
G36*
X65308Y29922D2*
X65284Y29692D1*
X65362Y29472D1*
X65529Y29307D1*
X65750Y29232D1*
X65983Y29259D1*
X66180Y29385D1*
X66301Y29582D1*
X66465Y30060D1*
X66489Y30290D1*
X66411Y30510D1*
X66244Y30674D1*
X66023Y30750D1*
X65791Y30722D1*
X65593Y30596D1*
X65472Y30400D1*
X65308Y29922D1*
G37*
G36*
X67058Y29322D2*
X67034Y29093D1*
X67113Y28872D1*
X67279Y28708D1*
X67500Y28632D1*
X67733Y28660D1*
X67930Y28786D1*
X68052Y28982D1*
X68215Y29461D1*
X68240Y29690D1*
X68161Y29911D1*
X67994Y30075D1*
X67773Y30151D1*
X67541Y30123D1*
X67344Y29997D1*
X67222Y29801D1*
X67058Y29322D1*
G37*
G36*
X68678Y34053D2*
X68653Y33823D1*
X68732Y33603D1*
X68899Y33438D1*
X69120Y33363D1*
X69352Y33390D1*
X69550Y33516D1*
X69671Y33713D1*
X69835Y34191D1*
X69859Y34421D1*
X69781Y34641D1*
X69614Y34805D1*
X69393Y34881D1*
X69160Y34853D1*
X68963Y34728D1*
X68842Y34531D1*
X68678Y34053D1*
G37*
G36*
X66928Y34652D2*
X66903Y34422D1*
X66982Y34202D1*
X67148Y34038D1*
X67370Y33962D1*
X67602Y33990D1*
X67799Y34115D1*
X67921Y34312D1*
X68085Y34790D1*
X68109Y35020D1*
X68030Y35240D1*
X67864Y35405D1*
X67642Y35480D1*
X67410Y35453D1*
X67213Y35327D1*
X67091Y35130D1*
X66928Y34652D1*
G37*
G36*
X65177Y35251D2*
X65153Y35022D1*
X65232Y34801D1*
X65398Y34637D1*
X65620Y34561D1*
X65852Y34589D1*
X66049Y34715D1*
X66171Y34911D1*
X66334Y35390D1*
X66359Y35619D1*
X66280Y35840D1*
X66113Y36004D1*
X65892Y36080D1*
X65660Y36052D1*
X65463Y35926D1*
X65341Y35730D1*
X65177Y35251D1*
G37*
G36*
X49554Y54968D2*
X48604Y55113D1*
X47864Y55413D1*
X47394Y55793D1*
X47014Y56178D1*
X46699Y56738D1*
X46569Y57063D1*
X46469Y57543D1*
X46419Y57793D1*
X46394Y58208D1*
X46509Y58533D1*
X46699Y58723D1*
X46824Y58848D1*
X46889Y59168D1*
X46864Y59298D1*
X46789Y59548D1*
X46634Y59688D1*
X47044Y60183D1*
X47424Y59933D1*
X47514D1*
X47694Y60373D1*
X47969Y60348D1*
X48474Y60488D1*
X47944Y59223D1*
Y59063D1*
X47979Y58848D1*
X48094Y58798D1*
X48349Y58898D1*
X48664Y59478D1*
X49019Y60333D1*
X49274Y60208D1*
X49544Y59888D1*
X49174Y58938D1*
X49364Y58968D1*
X49554D1*
Y54968D1*
G37*
D50*
X41159Y73861D3*
M02*
