G04 DipTrace 2.4.0.2*
%INpeace.gbs*%
%MOMM*%
%ADD48C,0.95*%
%ADD49C,0.9*%
%ADD50C,2.54*%
%ADD52C,2.05*%
%ADD57R,5.13X8.05*%
%ADD58R,5.13X2.65*%
%FSLAX53Y53*%
G04*
G71*
G90*
G75*
G01*
%LNBotMask*%
%LPD*%
D48*
X26616Y38297D3*
X25600Y43377D3*
X27632D3*
D58*
X41159Y27483D3*
Y54763D3*
D57*
Y41123D3*
D49*
X47290Y44321D3*
Y41321D3*
G36*
X25799Y18388D2*
X27248Y16938D1*
X26329Y16019D1*
X24879Y17468D1*
X25799Y18388D1*
G37*
D52*
X25622Y16761D3*
G36*
X23697Y20227D2*
X25146Y18777D1*
X24227Y17858D1*
X22778Y19308D1*
X23697Y20227D1*
G37*
D52*
X23520Y18601D3*
G36*
X22387Y19565D2*
X20938Y21015D1*
X21857Y21934D1*
X23307Y20485D1*
X22387Y19565D1*
G37*
D52*
X21680Y20308D3*
G36*
X19952Y23803D2*
X21401Y22353D1*
X20482Y21434D1*
X19033Y22884D1*
X19952Y23803D1*
G37*
D52*
X19775Y22177D3*
G36*
X18744Y23598D2*
X17295Y25047D1*
X18214Y25967D1*
X19664Y24517D1*
X18744Y23598D1*
G37*
D52*
X18037Y24340D3*
G36*
X41159Y63896D2*
X42109Y64041D1*
X42849Y64341D1*
X43319Y64721D1*
X43699Y65106D1*
X44014Y65666D1*
X44144Y65991D1*
X44244Y66471D1*
X44294Y66721D1*
X44319Y67136D1*
X44204Y67461D1*
X44014Y67651D1*
X43889Y67776D1*
X43824Y68096D1*
X43849Y68226D1*
X43924Y68476D1*
X44079Y68616D1*
X43669Y69111D1*
X43289Y68861D1*
X43199D1*
X43019Y69301D1*
X42744Y69276D1*
X42239Y69416D1*
X42769Y68151D1*
Y67991D1*
X42734Y67776D1*
X42619Y67726D1*
X42364Y67826D1*
X42049Y68406D1*
X41694Y69261D1*
X41439Y69136D1*
X41169Y68816D1*
X41539Y67866D1*
X41349Y67896D1*
X41159D1*
Y63896D1*
G37*
D50*
Y73861D3*
M02*
