M48
METRIC,0000.00
T01C0.33
T02C0.9
T03C0.95
T04C2.54
%
T01
X+003331Y+004369
X+003331Y+004459
X+003331Y+004549
X+003421Y+004549
X+003421Y+004459
X+003421Y+004369
X+003511Y+004369
X+003511Y+004459
X+003511Y+004549
X+003342Y+004783
X+003231Y+004727
X+003107Y+004534
X+002998Y+004532
X+002776Y+004449
X+002823Y+004241
X+002839Y+004124
X+003001Y+004192
X+002534Y+004073
X+002575Y+003777
X+003411Y+003705
X+004283Y+003980
X+004518Y+004286
X+004525Y+004580
X+004852Y+004035
X+004740Y+003908
X+004761Y+003687
X+005333Y+003315
X+005456Y+002744
X+004950Y+002037
X+004916Y+001410
X+005766Y+001791
X+006341Y+002505
X+004114Y+002190
X+003939Y+002190
X+003578Y+002121
X+003386Y+002196
X+003438Y+002475
X+002765Y+002910
X+001552Y+002835
X+003060Y+001426
T02
X+004729Y+004432
X+004729Y+004132
T03
X+002662Y+003830
X+002560Y+004338
X+002763Y+004338
T04
X+004116Y+007386
T00
M30
