G04 DipTrace 2.4.0.2*
%INcircle.gts*%
%MOMM*%
%ADD10C,0.25*%
%ADD20C,0.165*%
%ADD29R,1.0X0.5*%
%ADD47C,0.95*%
%ADD48C,0.9*%
%ADD49C,2.54*%
%ADD53R,0.3X0.325*%
%ADD54R,0.325X0.3*%
%ADD55R,0.75X0.95*%
%ADD56R,0.95X0.75*%
%ADD59O,1.05X1.55*%
%ADD60R,2.05X0.9*%
%ADD61R,1.15X1.05*%
%ADD62R,1.05X1.15*%
%ADD63O,1.55X1.05*%
%ADD67O,1.05X0.33*%
%ADD68O,0.33X1.05*%
%FSLAX53Y53*%
G04*
G71*
G90*
G75*
G01*
%LNTopMask*%
%LPD*%
X25562Y32357D2*
D20*
Y32376D1*
X25564Y32394D1*
X25568Y32413D1*
X25572Y32431D1*
X25578Y32448D1*
X25586Y32466D1*
X25594Y32482D1*
X25604Y32498D1*
X25615Y32514D1*
X25627Y32529D1*
X25640Y32542D1*
X25654Y32555D1*
X25669Y32567D1*
X25685Y32578D1*
X25701Y32588D1*
X25718Y32597D1*
X25736Y32604D1*
X25755Y32611D1*
X25773Y32616D1*
X25792Y32620D1*
X25812Y32622D1*
X25831Y32624D1*
X25851D1*
X25870Y32622D1*
X25890Y32620D1*
X25909Y32616D1*
X25927Y32611D1*
X25946Y32604D1*
X25964Y32597D1*
X25981Y32588D1*
X25997Y32578D1*
X26013Y32567D1*
X26028Y32555D1*
X26042Y32542D1*
X26055Y32529D1*
X26067Y32514D1*
X26078Y32498D1*
X26088Y32482D1*
X26096Y32466D1*
X26104Y32448D1*
X26110Y32431D1*
X26114Y32413D1*
X26118Y32394D1*
X26120Y32376D1*
Y32357D1*
Y32339D1*
X26118Y32320D1*
X26114Y32302D1*
X26110Y32284D1*
X26104Y32266D1*
X26096Y32249D1*
X26088Y32232D1*
X26078Y32216D1*
X26067Y32200D1*
X26055Y32186D1*
X26042Y32172D1*
X26028Y32159D1*
X26013Y32147D1*
X25997Y32136D1*
X25981Y32126D1*
X25964Y32118D1*
X25946Y32110D1*
X25927Y32104D1*
X25909Y32098D1*
X25890Y32095D1*
X25870Y32092D1*
X25851Y32091D1*
X25831D1*
X25812Y32092D1*
X25792Y32095D1*
X25773Y32098D1*
X25755Y32104D1*
X25736Y32110D1*
X25718Y32118D1*
X25701Y32126D1*
X25685Y32136D1*
X25669Y32147D1*
X25654Y32159D1*
X25640Y32172D1*
X25627Y32186D1*
X25615Y32200D1*
X25604Y32216D1*
X25594Y32232D1*
X25586Y32249D1*
X25578Y32266D1*
X25572Y32284D1*
X25568Y32302D1*
X25564Y32320D1*
X25562Y32339D1*
Y32357D1*
Y33260D2*
Y33279D1*
X25564Y33298D1*
X25568Y33316D1*
X25572Y33334D1*
X25578Y33352D1*
X25586Y33369D1*
X25594Y33386D1*
X25604Y33402D1*
X25615Y33417D1*
X25627Y33432D1*
X25640Y33446D1*
X25654Y33459D1*
X25669Y33471D1*
X25685Y33481D1*
X25701Y33491D1*
X25718Y33500D1*
X25736Y33508D1*
X25755Y33514D1*
X25773Y33519D1*
X25792Y33523D1*
X25812Y33526D1*
X25831Y33527D1*
X25851D1*
X25870Y33526D1*
X25890Y33523D1*
X25909Y33519D1*
X25927Y33514D1*
X25946Y33508D1*
X25964Y33500D1*
X25981Y33491D1*
X25997Y33481D1*
X26013Y33471D1*
X26028Y33459D1*
X26042Y33446D1*
X26055Y33432D1*
X26067Y33417D1*
X26078Y33402D1*
X26088Y33386D1*
X26096Y33369D1*
X26104Y33352D1*
X26110Y33334D1*
X26114Y33316D1*
X26118Y33298D1*
X26120Y33279D1*
Y33260D1*
Y33242D1*
X26118Y33223D1*
X26114Y33205D1*
X26110Y33187D1*
X26104Y33169D1*
X26096Y33152D1*
X26088Y33135D1*
X26078Y33119D1*
X26067Y33104D1*
X26055Y33089D1*
X26042Y33075D1*
X26028Y33062D1*
X26013Y33050D1*
X25997Y33039D1*
X25981Y33030D1*
X25964Y33021D1*
X25946Y33013D1*
X25927Y33007D1*
X25909Y33002D1*
X25890Y32998D1*
X25870Y32995D1*
X25851Y32994D1*
X25831D1*
X25812Y32995D1*
X25792Y32998D1*
X25773Y33002D1*
X25755Y33007D1*
X25736Y33013D1*
X25718Y33021D1*
X25701Y33030D1*
X25685Y33039D1*
X25669Y33050D1*
X25654Y33062D1*
X25640Y33075D1*
X25627Y33089D1*
X25615Y33104D1*
X25604Y33119D1*
X25594Y33135D1*
X25586Y33152D1*
X25578Y33169D1*
X25572Y33187D1*
X25568Y33205D1*
X25564Y33223D1*
X25562Y33242D1*
Y33260D1*
X26458Y31451D2*
X26459Y31469D1*
X26461Y31488D1*
X26464Y31506D1*
X26469Y31524D1*
X26475Y31542D1*
X26482Y31559D1*
X26491Y31576D1*
X26501Y31592D1*
X26511Y31607D1*
X26523Y31622D1*
X26537Y31636D1*
X26551Y31649D1*
X26566Y31661D1*
X26581Y31672D1*
X26598Y31681D1*
X26615Y31690D1*
X26633Y31698D1*
X26651Y31704D1*
X26670Y31709D1*
X26689Y31713D1*
X26708Y31716D1*
X26728Y31717D1*
X26747D1*
X26767Y31716D1*
X26786Y31713D1*
X26805Y31709D1*
X26824Y31704D1*
X26842Y31698D1*
X26860Y31690D1*
X26877Y31681D1*
X26894Y31672D1*
X26910Y31661D1*
X26925Y31649D1*
X26939Y31636D1*
X26952Y31622D1*
X26964Y31607D1*
X26975Y31592D1*
X26984Y31576D1*
X26993Y31559D1*
X27000Y31542D1*
X27006Y31524D1*
X27011Y31506D1*
X27014Y31488D1*
X27016Y31469D1*
X27017Y31451D1*
X27016Y31432D1*
X27014Y31413D1*
X27011Y31395D1*
X27006Y31377D1*
X27000Y31359D1*
X26993Y31342D1*
X26984Y31325D1*
X26975Y31309D1*
X26964Y31294D1*
X26952Y31279D1*
X26939Y31265D1*
X26925Y31252D1*
X26910Y31240D1*
X26894Y31229D1*
X26877Y31220D1*
X26860Y31211D1*
X26842Y31203D1*
X26824Y31197D1*
X26805Y31192D1*
X26786Y31188D1*
X26767Y31185D1*
X26747Y31184D1*
X26728D1*
X26708Y31185D1*
X26689Y31188D1*
X26670Y31192D1*
X26651Y31197D1*
X26633Y31203D1*
X26615Y31211D1*
X26598Y31220D1*
X26581Y31229D1*
X26566Y31240D1*
X26551Y31252D1*
X26537Y31265D1*
X26523Y31279D1*
X26511Y31294D1*
X26501Y31309D1*
X26491Y31325D1*
X26482Y31342D1*
X26475Y31359D1*
X26469Y31377D1*
X26464Y31395D1*
X26461Y31413D1*
X26459Y31432D1*
X26458Y31451D1*
X26462Y32350D2*
Y32369D1*
X26464Y32387D1*
X26468Y32406D1*
X26472Y32424D1*
X26479Y32442D1*
X26486Y32459D1*
X26494Y32476D1*
X26504Y32492D1*
X26515Y32507D1*
X26527Y32522D1*
X26540Y32536D1*
X26554Y32549D1*
X26569Y32560D1*
X26585Y32571D1*
X26601Y32581D1*
X26618Y32590D1*
X26636Y32598D1*
X26655Y32604D1*
X26673Y32609D1*
X26692Y32613D1*
X26712Y32616D1*
X26731Y32617D1*
X26751D1*
X26770Y32616D1*
X26789Y32613D1*
X26808Y32609D1*
X26827Y32604D1*
X26845Y32598D1*
X26863Y32590D1*
X26881Y32581D1*
X26897Y32571D1*
X26913Y32560D1*
X26928Y32549D1*
X26942Y32536D1*
X26955Y32522D1*
X26967Y32507D1*
X26978Y32492D1*
X26987Y32476D1*
X26996Y32459D1*
X27003Y32442D1*
X27009Y32424D1*
X27014Y32406D1*
X27017Y32387D1*
X27019Y32369D1*
X27020Y32350D1*
X27019Y32332D1*
X27017Y32313D1*
X27014Y32295D1*
X27009Y32277D1*
X27003Y32259D1*
X26996Y32242D1*
X26987Y32225D1*
X26978Y32209D1*
X26967Y32194D1*
X26955Y32179D1*
X26942Y32165D1*
X26928Y32152D1*
X26913Y32140D1*
X26897Y32129D1*
X26881Y32119D1*
X26863Y32111D1*
X26845Y32103D1*
X26827Y32097D1*
X26808Y32092D1*
X26789Y32088D1*
X26770Y32085D1*
X26751Y32084D1*
X26731D1*
X26712Y32085D1*
X26692Y32088D1*
X26673Y32092D1*
X26655Y32097D1*
X26636Y32103D1*
X26618Y32111D1*
X26601Y32119D1*
X26585Y32129D1*
X26569Y32140D1*
X26554Y32152D1*
X26540Y32165D1*
X26527Y32179D1*
X26515Y32194D1*
X26504Y32209D1*
X26494Y32225D1*
X26486Y32242D1*
X26479Y32259D1*
X26472Y32277D1*
X26468Y32295D1*
X26464Y32313D1*
X26462Y32332D1*
Y32350D1*
Y32361D2*
Y32379D1*
X26464Y32398D1*
X26468Y32416D1*
X26472Y32434D1*
X26479Y32452D1*
X26486Y32469D1*
X26494Y32486D1*
X26504Y32502D1*
X26515Y32517D1*
X26527Y32532D1*
X26540Y32546D1*
X26554Y32559D1*
X26569Y32571D1*
X26585Y32582D1*
X26601Y32591D1*
X26618Y32600D1*
X26636Y32608D1*
X26655Y32614D1*
X26673Y32619D1*
X26692Y32623D1*
X26712Y32626D1*
X26731Y32627D1*
X26751D1*
X26770Y32626D1*
X26789Y32623D1*
X26808Y32619D1*
X26827Y32614D1*
X26845Y32608D1*
X26863Y32600D1*
X26881Y32591D1*
X26897Y32582D1*
X26913Y32571D1*
X26928Y32559D1*
X26942Y32546D1*
X26955Y32532D1*
X26967Y32517D1*
X26978Y32502D1*
X26987Y32486D1*
X26996Y32469D1*
X27003Y32452D1*
X27009Y32434D1*
X27014Y32416D1*
X27017Y32398D1*
X27019Y32379D1*
X27020Y32361D1*
X27019Y32342D1*
X27017Y32323D1*
X27014Y32305D1*
X27009Y32287D1*
X27003Y32269D1*
X26996Y32252D1*
X26987Y32235D1*
X26978Y32219D1*
X26967Y32204D1*
X26955Y32189D1*
X26942Y32175D1*
X26928Y32162D1*
X26913Y32150D1*
X26897Y32140D1*
X26881Y32130D1*
X26863Y32121D1*
X26845Y32113D1*
X26827Y32107D1*
X26808Y32102D1*
X26789Y32098D1*
X26770Y32095D1*
X26751Y32094D1*
X26731D1*
X26712Y32095D1*
X26692Y32098D1*
X26673Y32102D1*
X26655Y32107D1*
X26636Y32113D1*
X26618Y32121D1*
X26601Y32130D1*
X26585Y32140D1*
X26569Y32150D1*
X26554Y32162D1*
X26540Y32175D1*
X26527Y32189D1*
X26515Y32204D1*
X26504Y32219D1*
X26494Y32235D1*
X26486Y32252D1*
X26479Y32269D1*
X26472Y32287D1*
X26468Y32305D1*
X26464Y32323D1*
X26462Y32342D1*
Y32361D1*
X26455Y33257D2*
X26456Y33276D1*
X26458Y33294D1*
X26461Y33312D1*
X26466Y33331D1*
X26472Y33348D1*
X26479Y33365D1*
X26488Y33382D1*
X26497Y33398D1*
X26508Y33414D1*
X26520Y33428D1*
X26533Y33442D1*
X26547Y33455D1*
X26562Y33467D1*
X26578Y33478D1*
X26595Y33488D1*
X26612Y33497D1*
X26630Y33504D1*
X26648Y33511D1*
X26667Y33516D1*
X26686Y33520D1*
X26705Y33522D1*
X26725Y33524D1*
X26744D1*
X26763Y33522D1*
X26783Y33520D1*
X26802Y33516D1*
X26821Y33511D1*
X26839Y33504D1*
X26857Y33497D1*
X26874Y33488D1*
X26890Y33478D1*
X26906Y33467D1*
X26921Y33455D1*
X26935Y33442D1*
X26948Y33428D1*
X26960Y33414D1*
X26971Y33398D1*
X26981Y33382D1*
X26989Y33365D1*
X26997Y33348D1*
X27003Y33331D1*
X27007Y33312D1*
X27011Y33294D1*
X27013Y33276D1*
Y33257D1*
Y33238D1*
X27011Y33220D1*
X27007Y33202D1*
X27003Y33184D1*
X26997Y33166D1*
X26989Y33149D1*
X26981Y33132D1*
X26971Y33116D1*
X26960Y33100D1*
X26948Y33086D1*
X26935Y33072D1*
X26921Y33059D1*
X26906Y33047D1*
X26890Y33036D1*
X26874Y33026D1*
X26857Y33017D1*
X26839Y33010D1*
X26821Y33003D1*
X26802Y32998D1*
X26783Y32994D1*
X26763Y32992D1*
X26744Y32991D1*
X26725D1*
X26705Y32992D1*
X26686Y32994D1*
X26667Y32998D1*
X26648Y33003D1*
X26630Y33010D1*
X26612Y33017D1*
X26595Y33026D1*
X26578Y33036D1*
X26562Y33047D1*
X26547Y33059D1*
X26533Y33072D1*
X26520Y33086D1*
X26508Y33100D1*
X26497Y33116D1*
X26488Y33132D1*
X26479Y33149D1*
X26472Y33166D1*
X26466Y33184D1*
X26461Y33202D1*
X26458Y33220D1*
X26456Y33238D1*
X26455Y33257D1*
X27362Y32354D2*
X27363Y32372D1*
X27365Y32391D1*
X27368Y32409D1*
X27373Y32427D1*
X27379Y32445D1*
X27386Y32462D1*
X27395Y32479D1*
X27404Y32495D1*
X27415Y32511D1*
X27427Y32525D1*
X27440Y32539D1*
X27454Y32552D1*
X27469Y32564D1*
X27485Y32575D1*
X27501Y32585D1*
X27519Y32593D1*
X27536Y32601D1*
X27555Y32607D1*
X27573Y32612D1*
X27593Y32616D1*
X27612Y32619D1*
X27631Y32620D1*
X27651D1*
X27670Y32619D1*
X27690Y32616D1*
X27709Y32612D1*
X27727Y32607D1*
X27746Y32601D1*
X27763Y32593D1*
X27781Y32585D1*
X27797Y32575D1*
X27813Y32564D1*
X27828Y32552D1*
X27842Y32539D1*
X27855Y32525D1*
X27867Y32511D1*
X27878Y32495D1*
X27888Y32479D1*
X27896Y32462D1*
X27903Y32445D1*
X27909Y32427D1*
X27914Y32409D1*
X27918Y32391D1*
X27920Y32372D1*
Y32354D1*
Y32335D1*
X27918Y32317D1*
X27914Y32298D1*
X27909Y32280D1*
X27903Y32263D1*
X27896Y32245D1*
X27888Y32229D1*
X27878Y32213D1*
X27867Y32197D1*
X27855Y32182D1*
X27842Y32169D1*
X27828Y32156D1*
X27813Y32144D1*
X27797Y32133D1*
X27781Y32123D1*
X27763Y32114D1*
X27746Y32107D1*
X27727Y32100D1*
X27709Y32095D1*
X27690Y32091D1*
X27670Y32089D1*
X27651Y32087D1*
X27631D1*
X27612Y32089D1*
X27593Y32091D1*
X27573Y32095D1*
X27555Y32100D1*
X27536Y32107D1*
X27519Y32114D1*
X27501Y32123D1*
X27485Y32133D1*
X27469Y32144D1*
X27454Y32156D1*
X27440Y32169D1*
X27427Y32182D1*
X27415Y32197D1*
X27404Y32213D1*
X27395Y32229D1*
X27386Y32245D1*
X27379Y32263D1*
X27373Y32280D1*
X27368Y32298D1*
X27365Y32317D1*
X27363Y32335D1*
X27362Y32354D1*
Y31457D2*
X27363Y31476D1*
X27365Y31494D1*
X27368Y31513D1*
X27373Y31531D1*
X27379Y31549D1*
X27386Y31566D1*
X27395Y31582D1*
X27404Y31599D1*
X27415Y31614D1*
X27427Y31629D1*
X27440Y31643D1*
X27454Y31655D1*
X27469Y31667D1*
X27485Y31678D1*
X27501Y31688D1*
X27519Y31697D1*
X27536Y31705D1*
X27555Y31711D1*
X27573Y31716D1*
X27593Y31720D1*
X27612Y31722D1*
X27631Y31724D1*
X27651D1*
X27670Y31722D1*
X27690Y31720D1*
X27709Y31716D1*
X27727Y31711D1*
X27746Y31705D1*
X27763Y31697D1*
X27781Y31688D1*
X27797Y31678D1*
X27813Y31667D1*
X27828Y31655D1*
X27842Y31643D1*
X27855Y31629D1*
X27867Y31614D1*
X27878Y31599D1*
X27888Y31582D1*
X27896Y31566D1*
X27903Y31549D1*
X27909Y31531D1*
X27914Y31513D1*
X27918Y31494D1*
X27920Y31476D1*
Y31457D1*
Y31439D1*
X27918Y31420D1*
X27914Y31402D1*
X27909Y31384D1*
X27903Y31366D1*
X27896Y31349D1*
X27888Y31332D1*
X27878Y31316D1*
X27867Y31301D1*
X27855Y31286D1*
X27842Y31272D1*
X27828Y31259D1*
X27813Y31247D1*
X27797Y31236D1*
X27781Y31226D1*
X27763Y31218D1*
X27746Y31210D1*
X27727Y31204D1*
X27709Y31199D1*
X27690Y31195D1*
X27670Y31192D1*
X27651Y31191D1*
X27631D1*
X27612Y31192D1*
X27593Y31195D1*
X27573Y31199D1*
X27555Y31204D1*
X27536Y31210D1*
X27519Y31218D1*
X27501Y31226D1*
X27485Y31236D1*
X27469Y31247D1*
X27454Y31259D1*
X27440Y31272D1*
X27427Y31286D1*
X27415Y31301D1*
X27404Y31316D1*
X27395Y31332D1*
X27386Y31349D1*
X27379Y31366D1*
X27373Y31384D1*
X27368Y31402D1*
X27365Y31420D1*
X27363Y31439D1*
X27362Y31457D1*
Y33260D2*
X27363Y33279D1*
X27365Y33298D1*
X27368Y33316D1*
X27373Y33334D1*
X27379Y33352D1*
X27386Y33369D1*
X27395Y33386D1*
X27404Y33402D1*
X27415Y33417D1*
X27427Y33432D1*
X27440Y33446D1*
X27454Y33459D1*
X27469Y33471D1*
X27485Y33481D1*
X27501Y33491D1*
X27519Y33500D1*
X27536Y33508D1*
X27555Y33514D1*
X27573Y33519D1*
X27593Y33523D1*
X27612Y33526D1*
X27631Y33527D1*
X27651D1*
X27670Y33526D1*
X27690Y33523D1*
X27709Y33519D1*
X27727Y33514D1*
X27746Y33508D1*
X27763Y33500D1*
X27781Y33491D1*
X27797Y33481D1*
X27813Y33471D1*
X27828Y33459D1*
X27842Y33446D1*
X27855Y33432D1*
X27867Y33417D1*
X27878Y33402D1*
X27888Y33386D1*
X27896Y33369D1*
X27903Y33352D1*
X27909Y33334D1*
X27914Y33316D1*
X27918Y33298D1*
X27920Y33279D1*
Y33260D1*
Y33242D1*
X27918Y33223D1*
X27914Y33205D1*
X27909Y33187D1*
X27903Y33169D1*
X27896Y33152D1*
X27888Y33135D1*
X27878Y33119D1*
X27867Y33104D1*
X27855Y33089D1*
X27842Y33075D1*
X27828Y33062D1*
X27813Y33050D1*
X27797Y33039D1*
X27781Y33030D1*
X27763Y33021D1*
X27746Y33013D1*
X27727Y33007D1*
X27709Y33002D1*
X27690Y32998D1*
X27670Y32995D1*
X27651Y32994D1*
X27631D1*
X27612Y32995D1*
X27593Y32998D1*
X27573Y33002D1*
X27555Y33007D1*
X27536Y33013D1*
X27519Y33021D1*
X27501Y33030D1*
X27485Y33039D1*
X27469Y33050D1*
X27454Y33062D1*
X27440Y33075D1*
X27427Y33089D1*
X27415Y33104D1*
X27404Y33119D1*
X27395Y33135D1*
X27386Y33152D1*
X27379Y33169D1*
X27373Y33187D1*
X27368Y33205D1*
X27365Y33223D1*
X27363Y33242D1*
X27362Y33260D1*
X25471Y31101D2*
D10*
X27998D1*
Y33591D1*
X25471D1*
Y31101D1*
G36*
X25531Y31694D2*
X27914D1*
Y32174D1*
X25531D1*
Y31694D1*
G37*
G36*
X26938Y31137D2*
X27404D1*
Y33614D1*
X26938D1*
Y31137D1*
G37*
G36*
X26078Y31154D2*
X26544D1*
Y33514D1*
X26078D1*
Y31154D1*
G37*
G36*
X25438Y32584D2*
X27908D1*
Y33057D1*
X25438D1*
Y32584D1*
G37*
X25575Y31484D2*
D20*
Y31503D1*
X25578Y31521D1*
X25581Y31539D1*
X25586Y31557D1*
X25592Y31575D1*
X25599Y31592D1*
X25607Y31609D1*
X25617Y31625D1*
X25628Y31641D1*
X25640Y31655D1*
X25653Y31669D1*
X25667Y31682D1*
X25682Y31694D1*
X25698Y31705D1*
X25715Y31715D1*
X25732Y31724D1*
X25750Y31731D1*
X25768Y31738D1*
X25787Y31743D1*
X25806Y31747D1*
X25825Y31749D1*
X25845Y31750D1*
X25864D1*
X25883Y31749D1*
X25903Y31747D1*
X25922Y31743D1*
X25941Y31738D1*
X25959Y31731D1*
X25977Y31724D1*
X25994Y31715D1*
X26011Y31705D1*
X26026Y31694D1*
X26041Y31682D1*
X26055Y31669D1*
X26068Y31655D1*
X26080Y31641D1*
X26091Y31625D1*
X26101Y31609D1*
X26110Y31592D1*
X26117Y31575D1*
X26123Y31557D1*
X26128Y31539D1*
X26131Y31521D1*
X26133Y31503D1*
X26134Y31484D1*
X26133Y31465D1*
X26131Y31447D1*
X26128Y31429D1*
X26123Y31410D1*
X26117Y31393D1*
X26110Y31376D1*
X26101Y31359D1*
X26091Y31343D1*
X26080Y31327D1*
X26068Y31313D1*
X26055Y31299D1*
X26041Y31286D1*
X26026Y31274D1*
X26011Y31263D1*
X25994Y31253D1*
X25977Y31244D1*
X25959Y31237D1*
X25941Y31230D1*
X25922Y31225D1*
X25903Y31221D1*
X25883Y31219D1*
X25864Y31218D1*
X25845D1*
X25825Y31219D1*
X25806Y31221D1*
X25787Y31225D1*
X25768Y31230D1*
X25750Y31237D1*
X25732Y31244D1*
X25715Y31253D1*
X25698Y31263D1*
X25682Y31274D1*
X25667Y31286D1*
X25653Y31299D1*
X25640Y31313D1*
X25628Y31327D1*
X25617Y31343D1*
X25607Y31359D1*
X25599Y31376D1*
X25592Y31393D1*
X25586Y31410D1*
X25581Y31429D1*
X25578Y31447D1*
X25575Y31465D1*
Y31484D1*
D68*
X25488Y30311D3*
X25988D3*
X26488D3*
X26988D3*
X27488D3*
X27988D3*
D67*
X28788Y31111D3*
Y31611D3*
Y32111D3*
Y32611D3*
Y33111D3*
Y33611D3*
D68*
X27988Y34411D3*
X27488D3*
X26988D3*
X26488D3*
X25988D3*
X25488D3*
D67*
X24688Y33611D3*
Y33111D3*
Y32611D3*
Y32111D3*
Y31611D3*
Y31111D3*
D29*
X29390Y18777D3*
Y20077D3*
Y21377D3*
X27190D3*
Y20077D3*
Y18777D3*
G36*
X21349Y27759D2*
X21276Y27753D1*
X21205Y27734D1*
X21139Y27703D1*
X21079Y27661D1*
X21028Y27610D1*
X20986Y27550D1*
X20955Y27484D1*
X20936Y27413D1*
X20930Y27340D1*
D1*
X20936Y27268D1*
X20955Y27197D1*
X20986Y27131D1*
X21028Y27071D1*
X21079Y27019D1*
X21139Y26978D1*
X21205Y26947D1*
X21276Y26928D1*
X21349Y26922D1*
D1*
X21421Y26928D1*
X21492Y26947D1*
X21558Y26978D1*
X21618Y27019D1*
X21669Y27071D1*
X21711Y27131D1*
X21742Y27197D1*
X21761Y27268D1*
X21767Y27340D1*
D1*
X21761Y27413D1*
X21742Y27484D1*
X21711Y27550D1*
X21669Y27610D1*
X21618Y27661D1*
X21558Y27703D1*
X21492Y27734D1*
X21421Y27753D1*
X21349Y27759D1*
G37*
G36*
Y29029D2*
X21276Y29023D1*
X21205Y29004D1*
X21139Y28973D1*
X21079Y28931D1*
X21028Y28880D1*
X20986Y28820D1*
X20955Y28754D1*
X20936Y28683D1*
X20930Y28610D1*
D1*
X20936Y28538D1*
X20955Y28467D1*
X20986Y28401D1*
X21028Y28341D1*
X21079Y28289D1*
X21139Y28248D1*
X21205Y28217D1*
X21276Y28198D1*
X21349Y28192D1*
D1*
X21421Y28198D1*
X21492Y28217D1*
X21558Y28248D1*
X21618Y28289D1*
X21669Y28341D1*
X21711Y28401D1*
X21742Y28467D1*
X21761Y28538D1*
X21767Y28610D1*
D1*
X21761Y28683D1*
X21742Y28754D1*
X21711Y28820D1*
X21669Y28880D1*
X21618Y28931D1*
X21558Y28973D1*
X21492Y29004D1*
X21421Y29023D1*
X21349Y29029D1*
G37*
G36*
Y30299D2*
X21276Y30293D1*
X21205Y30274D1*
X21139Y30243D1*
X21079Y30201D1*
X21028Y30150D1*
X20986Y30090D1*
X20955Y30024D1*
X20936Y29953D1*
X20930Y29880D1*
D1*
X20936Y29808D1*
X20955Y29737D1*
X20986Y29671D1*
X21028Y29611D1*
X21079Y29559D1*
X21139Y29518D1*
X21205Y29487D1*
X21276Y29468D1*
X21349Y29462D1*
D1*
X21421Y29468D1*
X21492Y29487D1*
X21558Y29518D1*
X21618Y29559D1*
X21669Y29611D1*
X21711Y29671D1*
X21742Y29737D1*
X21761Y29808D1*
X21767Y29880D1*
D1*
X21761Y29953D1*
X21742Y30024D1*
X21711Y30090D1*
X21669Y30150D1*
X21618Y30201D1*
X21558Y30243D1*
X21492Y30274D1*
X21421Y30293D1*
X21349Y30299D1*
G37*
G36*
X22619D2*
X22546Y30293D1*
X22475Y30274D1*
X22409Y30243D1*
X22349Y30201D1*
X22298Y30150D1*
X22256Y30090D1*
X22225Y30024D1*
X22206Y29953D1*
X22200Y29880D1*
D1*
X22206Y29808D1*
X22225Y29737D1*
X22256Y29671D1*
X22298Y29611D1*
X22349Y29559D1*
X22409Y29518D1*
X22475Y29487D1*
X22546Y29468D1*
X22619Y29462D1*
D1*
X22691Y29468D1*
X22762Y29487D1*
X22828Y29518D1*
X22888Y29559D1*
X22939Y29611D1*
X22981Y29671D1*
X23012Y29737D1*
X23031Y29808D1*
X23037Y29880D1*
D1*
X23031Y29953D1*
X23012Y30024D1*
X22981Y30090D1*
X22939Y30150D1*
X22888Y30201D1*
X22828Y30243D1*
X22762Y30274D1*
X22691Y30293D1*
X22619Y30299D1*
G37*
G36*
Y29029D2*
X22546Y29023D1*
X22475Y29004D1*
X22409Y28973D1*
X22349Y28931D1*
X22298Y28880D1*
X22256Y28820D1*
X22225Y28754D1*
X22206Y28683D1*
X22200Y28610D1*
D1*
X22206Y28538D1*
X22225Y28467D1*
X22256Y28401D1*
X22298Y28341D1*
X22349Y28289D1*
X22409Y28248D1*
X22475Y28217D1*
X22546Y28198D1*
X22619Y28192D1*
D1*
X22691Y28198D1*
X22762Y28217D1*
X22828Y28248D1*
X22888Y28289D1*
X22939Y28341D1*
X22981Y28401D1*
X23012Y28467D1*
X23031Y28538D1*
X23037Y28610D1*
D1*
X23031Y28683D1*
X23012Y28754D1*
X22981Y28820D1*
X22939Y28880D1*
X22888Y28931D1*
X22828Y28973D1*
X22762Y29004D1*
X22691Y29023D1*
X22619Y29029D1*
G37*
G36*
Y27759D2*
X22546Y27753D1*
X22475Y27734D1*
X22409Y27703D1*
X22349Y27661D1*
X22298Y27610D1*
X22256Y27550D1*
X22225Y27484D1*
X22206Y27413D1*
X22200Y27340D1*
D1*
X22206Y27268D1*
X22225Y27197D1*
X22256Y27131D1*
X22298Y27071D1*
X22349Y27019D1*
X22409Y26978D1*
X22475Y26947D1*
X22546Y26928D1*
X22619Y26922D1*
D1*
X22691Y26928D1*
X22762Y26947D1*
X22828Y26978D1*
X22888Y27019D1*
X22939Y27071D1*
X22981Y27131D1*
X23012Y27197D1*
X23031Y27268D1*
X23037Y27340D1*
D1*
X23031Y27413D1*
X23012Y27484D1*
X22981Y27550D1*
X22939Y27610D1*
X22888Y27661D1*
X22828Y27703D1*
X22762Y27734D1*
X22691Y27753D1*
X22619Y27759D1*
G37*
D47*
X21984Y26070D3*
X20968Y31150D3*
X23000D3*
D63*
X24118Y39794D3*
Y37944D3*
Y36094D3*
X29118D3*
Y37944D3*
Y39794D3*
D62*
X30825Y19247D3*
Y20947D3*
D61*
X27452Y22559D3*
X29152D3*
D60*
X25131Y18722D3*
Y20422D3*
G36*
X34252Y37173D2*
X34448Y37050D1*
X34680Y37024D1*
X34901Y37101D1*
X35066Y37266D1*
X35144Y37487D1*
X35117Y37720D1*
X34994Y37915D1*
X34637Y38273D1*
X34441Y38396D1*
X34209Y38422D1*
X33988Y38345D1*
X33823Y38179D1*
X33745Y37959D1*
X33771Y37726D1*
X33894Y37530D1*
X34252Y37173D1*
G37*
G36*
X32944Y35865D2*
X33139Y35742D1*
X33372Y35716D1*
X33593Y35793D1*
X33758Y35958D1*
X33835Y36179D1*
X33809Y36412D1*
X33686Y36607D1*
X33329Y36965D1*
X33133Y37088D1*
X32901Y37114D1*
X32680Y37037D1*
X32514Y36871D1*
X32437Y36650D1*
X32463Y36418D1*
X32586Y36222D1*
X32944Y35865D1*
G37*
G36*
X31636Y34557D2*
X31831Y34434D1*
X32064Y34408D1*
X32285Y34485D1*
X32450Y34650D1*
X32527Y34871D1*
X32501Y35103D1*
X32378Y35299D1*
X32021Y35657D1*
X31825Y35780D1*
X31593Y35806D1*
X31372Y35728D1*
X31206Y35563D1*
X31129Y35342D1*
X31155Y35110D1*
X31278Y34914D1*
X31636Y34557D1*
G37*
G36*
X35171Y31021D2*
X35367Y30898D1*
X35599Y30872D1*
X35820Y30949D1*
X35986Y31115D1*
X36063Y31335D1*
X36037Y31568D1*
X35914Y31764D1*
X35556Y32121D1*
X35361Y32244D1*
X35128Y32270D1*
X34907Y32193D1*
X34742Y32028D1*
X34665Y31807D1*
X34691Y31574D1*
X34814Y31379D1*
X35171Y31021D1*
G37*
G36*
X36479Y32329D2*
X36675Y32206D1*
X36907Y32180D1*
X37128Y32257D1*
X37294Y32423D1*
X37371Y32644D1*
X37345Y32876D1*
X37222Y33072D1*
X36864Y33429D1*
X36669Y33552D1*
X36436Y33578D1*
X36215Y33501D1*
X36050Y33336D1*
X35973Y33115D1*
X35999Y32882D1*
X36122Y32687D1*
X36479Y32329D1*
G37*
G36*
X37788Y33637D2*
X37983Y33514D1*
X38216Y33488D1*
X38436Y33566D1*
X38602Y33731D1*
X38679Y33952D1*
X38653Y34184D1*
X38530Y34380D1*
X38172Y34737D1*
X37977Y34860D1*
X37744Y34887D1*
X37524Y34809D1*
X37358Y34644D1*
X37281Y34423D1*
X37307Y34191D1*
X37430Y33995D1*
X37788Y33637D1*
G37*
D59*
X39927Y28985D3*
X38077D3*
X36227D3*
Y23985D3*
X38077D3*
X39927D3*
G36*
X37430Y18268D2*
X37307Y18073D1*
X37281Y17840D1*
X37358Y17619D1*
X37524Y17454D1*
X37744Y17377D1*
X37977Y17403D1*
X38172Y17526D1*
X38530Y17883D1*
X38653Y18079D1*
X38679Y18311D1*
X38602Y18532D1*
X38436Y18698D1*
X38216Y18775D1*
X37983Y18749D1*
X37788Y18626D1*
X37430Y18268D1*
G37*
G36*
X36122Y19576D2*
X35999Y19381D1*
X35973Y19148D1*
X36050Y18927D1*
X36215Y18762D1*
X36436Y18685D1*
X36669Y18711D1*
X36864Y18834D1*
X37222Y19191D1*
X37345Y19387D1*
X37371Y19619D1*
X37294Y19840D1*
X37128Y20006D1*
X36907Y20083D1*
X36675Y20057D1*
X36479Y19934D1*
X36122Y19576D1*
G37*
G36*
X34814Y20884D2*
X34691Y20689D1*
X34665Y20456D1*
X34742Y20235D1*
X34907Y20070D1*
X35128Y19993D1*
X35360Y20019D1*
X35556Y20142D1*
X35914Y20499D1*
X36037Y20695D1*
X36063Y20928D1*
X35985Y21148D1*
X35820Y21314D1*
X35599Y21391D1*
X35367Y21365D1*
X35171Y21242D1*
X34814Y20884D1*
G37*
G36*
X31278Y17349D2*
X31155Y17153D1*
X31129Y16921D1*
X31206Y16700D1*
X31372Y16535D1*
X31592Y16457D1*
X31825Y16483D1*
X32021Y16606D1*
X32378Y16964D1*
X32501Y17160D1*
X32527Y17392D1*
X32450Y17613D1*
X32285Y17778D1*
X32064Y17856D1*
X31831Y17829D1*
X31636Y17706D1*
X31278Y17349D1*
G37*
G36*
X32586Y16041D2*
X32463Y15845D1*
X32437Y15613D1*
X32514Y15392D1*
X32680Y15226D1*
X32901Y15149D1*
X33133Y15175D1*
X33329Y15298D1*
X33686Y15656D1*
X33809Y15851D1*
X33835Y16084D1*
X33758Y16305D1*
X33593Y16470D1*
X33372Y16547D1*
X33139Y16521D1*
X32944Y16398D1*
X32586Y16041D1*
G37*
G36*
X33894Y14733D2*
X33771Y14537D1*
X33745Y14305D1*
X33823Y14084D1*
X33988Y13918D1*
X34209Y13841D1*
X34441Y13867D1*
X34637Y13990D1*
X34994Y14348D1*
X35117Y14543D1*
X35144Y14776D1*
X35066Y14997D1*
X34901Y15162D1*
X34680Y15239D1*
X34448Y15213D1*
X34252Y15090D1*
X33894Y14733D1*
G37*
D63*
X29118Y13176D3*
Y15026D3*
Y16876D3*
X24118D3*
Y15026D3*
Y13176D3*
G36*
X19350Y15090D2*
X19155Y15213D1*
X18922Y15239D1*
X18701Y15162D1*
X18536Y14997D1*
X18459Y14776D1*
X18485Y14543D1*
X18608Y14348D1*
X18965Y13990D1*
X19161Y13867D1*
X19393Y13841D1*
X19614Y13918D1*
X19780Y14084D1*
X19857Y14305D1*
X19831Y14537D1*
X19708Y14733D1*
X19350Y15090D1*
G37*
G36*
X20658Y16398D2*
X20463Y16521D1*
X20230Y16547D1*
X20009Y16470D1*
X19844Y16305D1*
X19767Y16084D1*
X19793Y15851D1*
X19916Y15656D1*
X20273Y15298D1*
X20469Y15175D1*
X20701Y15149D1*
X20922Y15226D1*
X21088Y15392D1*
X21165Y15613D1*
X21139Y15845D1*
X21016Y16041D1*
X20658Y16398D1*
G37*
G36*
X21966Y17706D2*
X21771Y17829D1*
X21538Y17856D1*
X21318Y17778D1*
X21152Y17613D1*
X21075Y17392D1*
X21101Y17160D1*
X21224Y16964D1*
X21582Y16606D1*
X21777Y16484D1*
X22010Y16457D1*
X22230Y16535D1*
X22396Y16700D1*
X22473Y16921D1*
X22447Y17153D1*
X22324Y17349D1*
X21966Y17706D1*
G37*
G36*
X18431Y21242D2*
X18235Y21365D1*
X18003Y21391D1*
X17782Y21314D1*
X17617Y21148D1*
X17539Y20928D1*
X17565Y20695D1*
X17688Y20500D1*
X18046Y20142D1*
X18242Y20019D1*
X18474Y19993D1*
X18695Y20070D1*
X18860Y20236D1*
X18938Y20456D1*
X18911Y20689D1*
X18788Y20884D1*
X18431Y21242D1*
G37*
G36*
X17123Y19934D2*
X16927Y20057D1*
X16695Y20083D1*
X16474Y20006D1*
X16308Y19840D1*
X16231Y19619D1*
X16257Y19387D1*
X16380Y19191D1*
X16738Y18834D1*
X16933Y18711D1*
X17166Y18685D1*
X17387Y18762D1*
X17552Y18927D1*
X17629Y19148D1*
X17603Y19381D1*
X17480Y19576D1*
X17123Y19934D1*
G37*
G36*
X15815Y18626D2*
X15619Y18749D1*
X15387Y18775D1*
X15166Y18698D1*
X15000Y18532D1*
X14923Y18311D1*
X14949Y18079D1*
X15072Y17883D1*
X15430Y17526D1*
X15625Y17403D1*
X15858Y17377D1*
X16079Y17454D1*
X16244Y17619D1*
X16321Y17840D1*
X16295Y18073D1*
X16172Y18268D1*
X15815Y18626D1*
G37*
D59*
X13309Y23985D3*
X15159D3*
X17009D3*
Y28985D3*
X15159D3*
X13309D3*
G36*
X16172Y33995D2*
X16295Y34191D1*
X16321Y34423D1*
X16244Y34644D1*
X16079Y34809D1*
X15858Y34887D1*
X15625Y34860D1*
X15430Y34737D1*
X15072Y34380D1*
X14949Y34184D1*
X14923Y33952D1*
X15000Y33731D1*
X15166Y33566D1*
X15387Y33488D1*
X15619Y33514D1*
X15815Y33637D1*
X16172Y33995D1*
G37*
G36*
X17480Y32687D2*
X17603Y32882D1*
X17629Y33115D1*
X17552Y33336D1*
X17387Y33501D1*
X17166Y33578D1*
X16933Y33552D1*
X16738Y33429D1*
X16380Y33072D1*
X16257Y32876D1*
X16231Y32644D1*
X16308Y32423D1*
X16474Y32257D1*
X16695Y32180D1*
X16927Y32206D1*
X17123Y32329D1*
X17480Y32687D1*
G37*
G36*
X18788Y31379D2*
X18911Y31574D1*
X18938Y31807D1*
X18860Y32028D1*
X18695Y32193D1*
X18474Y32270D1*
X18242Y32244D1*
X18046Y32121D1*
X17688Y31764D1*
X17566Y31568D1*
X17539Y31336D1*
X17617Y31115D1*
X17782Y30949D1*
X18003Y30872D1*
X18235Y30898D1*
X18431Y31021D1*
X18788Y31379D1*
G37*
G36*
X22324Y34914D2*
X22447Y35110D1*
X22473Y35342D1*
X22396Y35563D1*
X22230Y35729D1*
X22010Y35806D1*
X21777Y35780D1*
X21582Y35657D1*
X21224Y35299D1*
X21101Y35104D1*
X21075Y34871D1*
X21152Y34650D1*
X21318Y34485D1*
X21538Y34408D1*
X21771Y34434D1*
X21966Y34557D1*
X22324Y34914D1*
G37*
G36*
X21016Y36222D2*
X21139Y36418D1*
X21165Y36650D1*
X21088Y36871D1*
X20922Y37037D1*
X20701Y37114D1*
X20469Y37088D1*
X20273Y36965D1*
X19916Y36607D1*
X19793Y36412D1*
X19767Y36179D1*
X19844Y35958D1*
X20009Y35793D1*
X20230Y35716D1*
X20463Y35742D1*
X20658Y35865D1*
X21016Y36222D1*
G37*
G36*
X19708Y37530D2*
X19831Y37726D1*
X19857Y37959D1*
X19780Y38179D1*
X19614Y38345D1*
X19393Y38422D1*
X19161Y38396D1*
X18965Y38273D1*
X18608Y37915D1*
X18485Y37720D1*
X18459Y37487D1*
X18536Y37266D1*
X18701Y37101D1*
X18922Y37024D1*
X19155Y37050D1*
X19350Y37173D1*
X19708Y37530D1*
G37*
G36*
X32819Y30629D2*
X33669D1*
Y29579D1*
X32819D1*
Y30629D1*
G37*
G36*
X30619D2*
X31469D1*
Y29579D1*
X30619D1*
Y30629D1*
G37*
G36*
Y23329D2*
X31469D1*
Y22279D1*
X30619D1*
Y23329D1*
G37*
G36*
X32819D2*
X33669D1*
Y22279D1*
X32819D1*
Y23329D1*
G37*
G36*
X33119Y24579D2*
X34669D1*
Y23829D1*
X33119D1*
Y24579D1*
G37*
G36*
Y26079D2*
X34669D1*
Y25329D1*
X33119D1*
Y26079D1*
G37*
G36*
Y29079D2*
X34669D1*
Y28329D1*
X33119D1*
Y29079D1*
G37*
D48*
X32144Y24954D3*
Y27954D3*
D56*
X26344Y26658D3*
X27644D3*
D55*
X18732Y24398D3*
Y25698D3*
D56*
X20644Y24714D3*
X21944D3*
X20961Y21225D3*
X22261D3*
X23183Y25550D3*
X24483D3*
X23346Y23023D3*
X24646D3*
D61*
X23338Y24280D3*
X25038D3*
D54*
X20602Y23696D3*
Y23196D3*
Y22696D3*
Y22196D3*
D53*
X21102D3*
X21602D3*
D54*
X22102D3*
Y22696D3*
Y23196D3*
Y23696D3*
D53*
X21602D3*
X21102D3*
D49*
X26618Y44265D3*
M02*
