G04 DipTrace 2.4.0.2*
%INcircle.gto*%
%MOMM*%
%ADD10C,0.25*%
%ADD14C,0.4*%
%ADD18C,0.152*%
%ADD22O,0.437X0.4*%
%ADD27O,0.5X0.5*%
%ADD30O,0.975X0.925*%
%ADD35O,0.925X0.975*%
%ADD69C,0.118*%
%FSLAX53Y53*%
G04*
G71*
G90*
G75*
G01*
%LNTopSilk*%
%LPD*%
D22*
X25383Y29444D3*
X25238Y30361D2*
D10*
X24737Y30861D1*
Y33861D2*
Y34361D1*
X25238D1*
X28237D2*
X28738D1*
Y33861D1*
X28237Y30361D2*
X28738D1*
Y30861D1*
X27290Y18377D2*
X29290D1*
X27290Y21777D2*
X29290D1*
D27*
X29540Y18202D3*
X29218Y40444D2*
D10*
X27218D1*
X29218Y35444D2*
X27218D1*
X26018D2*
X24018D1*
X26018Y40444D2*
X24018D1*
D30*
X24155Y40807D3*
X23981Y18722D2*
D10*
Y20422D1*
X26281Y18722D2*
Y20422D1*
X38510Y34576D2*
X37096Y35990D1*
X34975Y31041D2*
X33560Y32455D1*
X32712Y33304D2*
X31298Y34718D1*
X36248Y36839D2*
X34834Y38254D1*
D35*
X35187Y38413D3*
X40577Y23885D2*
D10*
Y25885D1*
X35577Y23885D2*
Y25885D1*
Y27085D2*
Y29085D1*
X40577Y27085D2*
Y29085D1*
D35*
X40939Y28948D3*
X34833Y14010D2*
D10*
X36247Y15424D1*
X31298Y17546D2*
X32712Y18960D1*
X33561Y19808D2*
X34975Y21222D1*
X37096Y16272D2*
X38511Y17687D1*
D30*
X38670Y17333D3*
X24018Y12526D2*
D10*
X26018D1*
X24018Y17526D2*
X26018D1*
X27218D2*
X29218D1*
X27218Y12526D2*
X29218D1*
D30*
X29081Y12163D3*
X15092Y17687D2*
D10*
X16506Y16273D1*
X18628Y21222D2*
X20042Y19808D1*
X20890Y18959D2*
X22304Y17545D1*
X17354Y15424D2*
X18769Y14010D1*
D35*
X18415Y13850D3*
X12659Y29085D2*
D10*
Y27085D1*
X17659Y29085D2*
Y27085D1*
Y25885D2*
Y23885D1*
X12659Y25885D2*
Y23885D1*
D35*
X12296Y24022D3*
X18769Y38253D2*
D10*
X17355Y36839D1*
X22304Y34718D2*
X20890Y33303D1*
X20041Y32455D2*
X18627Y31041D1*
X16506Y35991D2*
X15092Y34577D1*
D30*
X14932Y34930D3*
X33644Y22954D2*
D10*
X30644D1*
Y29954D1*
X33644D1*
Y22954D1*
D14*
X20027Y23921D3*
X20252Y24046D2*
D18*
X22452D1*
Y21846D1*
X20252D1*
Y24046D1*
X26459Y36027D2*
D69*
Y35480D1*
X26481Y35371D1*
X26525Y35298D1*
X26590Y35261D1*
X26634D1*
X26700Y35298D1*
X26744Y35371D1*
X26765Y35480D1*
Y36027D1*
X26906Y35880D2*
X26950Y35917D1*
X27016Y36026D1*
Y35261D1*
X30138Y20409D2*
Y19862D1*
X30160Y19752D1*
X30204Y19680D1*
X30270Y19643D1*
X30313D1*
X30379Y19680D1*
X30423Y19752D1*
X30445Y19862D1*
Y20409D1*
X30608Y20226D2*
Y20262D1*
X30630Y20335D1*
X30651Y20372D1*
X30695Y20408D1*
X30783D1*
X30826Y20372D1*
X30848Y20335D1*
X30870Y20262D1*
Y20190D1*
X30848Y20116D1*
X30805Y20008D1*
X30586Y19643D1*
X30892D1*
X23803Y32582D2*
Y31999D1*
X23782Y31889D1*
X23759Y31853D1*
X23716Y31816D1*
X23672D1*
X23628Y31853D1*
X23607Y31889D1*
X23584Y31999D1*
Y32071D1*
X23944Y32435D2*
X23988Y32472D1*
X24054Y32581D1*
Y31816D1*
X26241Y42385D2*
Y41839D1*
X26263Y41729D1*
X26307Y41657D1*
X26372Y41620D1*
X26416D1*
X26481Y41657D1*
X26525Y41729D1*
X26547Y41839D1*
Y42385D1*
X26732Y42384D2*
X26972D1*
X26842Y42093D1*
X26907D1*
X26951Y42057D1*
X26972Y42020D1*
X26995Y41911D1*
Y41839D1*
X26972Y41729D1*
X26929Y41656D1*
X26863Y41620D1*
X26798D1*
X26732Y41656D1*
X26711Y41693D1*
X26688Y41765D1*
X30864Y22431D2*
X30842Y22503D1*
X30798Y22576D1*
X30754Y22613D1*
X30667D1*
X30623Y22576D1*
X30579Y22503D1*
X30557Y22431D1*
X30536Y22321D1*
Y22138D1*
X30557Y22030D1*
X30579Y21957D1*
X30623Y21884D1*
X30667Y21847D1*
X30754D1*
X30798Y21884D1*
X30842Y21957D1*
X30864Y22030D1*
X31005Y22466D2*
X31049Y22503D1*
X31114Y22612D1*
Y21847D1*
X28242Y23993D2*
X28221Y24065D1*
X28177Y24138D1*
X28133Y24175D1*
X28046D1*
X28002Y24138D1*
X27958Y24065D1*
X27936Y23993D1*
X27914Y23883D1*
Y23700D1*
X27936Y23592D1*
X27958Y23518D1*
X28002Y23446D1*
X28046Y23409D1*
X28133D1*
X28177Y23446D1*
X28221Y23518D1*
X28242Y23592D1*
X28406Y23992D2*
Y24028D1*
X28427Y24101D1*
X28449Y24138D1*
X28493Y24174D1*
X28581D1*
X28624Y24138D1*
X28646Y24101D1*
X28668Y24028D1*
Y23956D1*
X28646Y23882D1*
X28602Y23774D1*
X28383Y23409D1*
X28690D1*
X26790Y20255D2*
Y19489D1*
X27052D1*
X27193Y20109D2*
X27237Y20146D1*
X27303Y20254D1*
Y19489D1*
X34516Y40016D2*
Y39469D1*
X34538Y39360D1*
X34582Y39287D1*
X34648Y39250D1*
X34691D1*
X34757Y39287D1*
X34801Y39360D1*
X34823Y39469D1*
Y40016D1*
X35183Y39250D2*
Y40015D1*
X34964Y39506D1*
X35292D1*
X38112Y30851D2*
Y30305D1*
X38134Y30195D1*
X38178Y30123D1*
X38244Y30086D1*
X38287D1*
X38353Y30123D1*
X38397Y30195D1*
X38419Y30305D1*
Y30851D1*
X38822Y30850D2*
X38604D1*
X38582Y30523D1*
X38604Y30559D1*
X38670Y30596D1*
X38735D1*
X38800Y30559D1*
X38844Y30486D1*
X38866Y30377D1*
Y30305D1*
X38844Y30195D1*
X38800Y30122D1*
X38735Y30086D1*
X38670D1*
X38604Y30122D1*
X38582Y30159D1*
X38560Y30231D1*
X34790Y22481D2*
Y21935D1*
X34812Y21825D1*
X34856Y21753D1*
X34921Y21716D1*
X34965D1*
X35031Y21753D1*
X35075Y21825D1*
X35096Y21935D1*
Y22481D1*
X35500Y22372D2*
X35478Y22444D1*
X35412Y22481D1*
X35369D1*
X35303Y22444D1*
X35259Y22335D1*
X35238Y22153D1*
Y21971D1*
X35259Y21825D1*
X35303Y21752D1*
X35369Y21716D1*
X35391D1*
X35456Y21752D1*
X35500Y21825D1*
X35522Y21935D1*
Y21971D1*
X35500Y22081D1*
X35456Y22153D1*
X35391Y22189D1*
X35369D1*
X35303Y22153D1*
X35259Y22081D1*
X35238Y21971D1*
X26241Y18642D2*
Y18095D1*
X26263Y17986D1*
X26307Y17913D1*
X26372Y17876D1*
X26416D1*
X26481Y17913D1*
X26525Y17986D1*
X26547Y18095D1*
Y18642D1*
X26776Y17876D2*
X26995Y18641D1*
X26688D1*
X18321Y22482D2*
Y21935D1*
X18343Y21825D1*
X18387Y21753D1*
X18453Y21716D1*
X18496D1*
X18562Y21753D1*
X18606Y21825D1*
X18628Y21935D1*
Y22482D1*
X18878Y22481D2*
X18813Y22444D1*
X18791Y22372D1*
Y22299D1*
X18813Y22226D1*
X18856Y22189D1*
X18944Y22153D1*
X19009Y22117D1*
X19053Y22044D1*
X19075Y21971D1*
Y21862D1*
X19053Y21789D1*
X19031Y21752D1*
X18965Y21716D1*
X18878D1*
X18813Y21752D1*
X18791Y21789D1*
X18769Y21862D1*
Y21971D1*
X18791Y22044D1*
X18835Y22117D1*
X18900Y22153D1*
X18987Y22189D1*
X19031Y22226D1*
X19053Y22299D1*
Y22372D1*
X19031Y22444D1*
X18965Y22481D1*
X18878D1*
X14380Y30851D2*
Y30305D1*
X14402Y30195D1*
X14446Y30123D1*
X14512Y30086D1*
X14555D1*
X14621Y30123D1*
X14665Y30195D1*
X14687Y30305D1*
Y30851D1*
X15112Y30596D2*
X15090Y30486D1*
X15047Y30413D1*
X14981Y30377D1*
X14959D1*
X14893Y30413D1*
X14850Y30486D1*
X14828Y30596D1*
Y30632D1*
X14850Y30742D1*
X14893Y30814D1*
X14959Y30850D1*
X14981D1*
X15047Y30814D1*
X15090Y30742D1*
X15112Y30596D1*
Y30413D1*
X15090Y30231D1*
X15047Y30122D1*
X14981Y30086D1*
X14937D1*
X14872Y30122D1*
X14850Y30195D1*
X17944Y39512D2*
Y38966D1*
X17966Y38856D1*
X18010Y38784D1*
X18075Y38747D1*
X18119D1*
X18185Y38784D1*
X18229Y38856D1*
X18250Y38966D1*
Y39512D1*
X18391Y39366D2*
X18435Y39403D1*
X18501Y39512D1*
Y38747D1*
X18774Y39512D2*
X18708Y39475D1*
X18664Y39366D1*
X18642Y39184D1*
Y39074D1*
X18664Y38893D1*
X18708Y38783D1*
X18774Y38747D1*
X18817D1*
X18883Y38783D1*
X18926Y38893D1*
X18949Y39074D1*
Y39184D1*
X18926Y39366D1*
X18883Y39475D1*
X18817Y39512D1*
X18774D1*
X18926Y39366D2*
X18664Y38893D1*
X32142Y31720D2*
Y31173D1*
X32163Y31064D1*
X32207Y30991D1*
X32273Y30954D1*
X32316D1*
X32382Y30991D1*
X32426Y31064D1*
X32448Y31173D1*
Y31720D1*
X32589Y31573D2*
X32633Y31610D1*
X32699Y31719D1*
Y30954D1*
X33102Y31719D2*
X32884D1*
X32862Y31391D1*
X32884Y31427D1*
X32949Y31465D1*
X33015D1*
X33080Y31427D1*
X33124Y31355D1*
X33146Y31246D1*
Y31173D1*
X33124Y31064D1*
X33080Y30990D1*
X33015Y30954D1*
X32949D1*
X32884Y30990D1*
X32862Y31027D1*
X32840Y31100D1*
X26934Y27942D2*
X26912Y28015D1*
X26868Y28088D1*
X26825Y28124D1*
X26737D1*
X26693Y28088D1*
X26650Y28015D1*
X26628Y27942D1*
X26606Y27833D1*
Y27650D1*
X26628Y27541D1*
X26650Y27468D1*
X26693Y27396D1*
X26737Y27359D1*
X26825D1*
X26868Y27396D1*
X26912Y27468D1*
X26934Y27541D1*
X27119Y28123D2*
X27359D1*
X27228Y27832D1*
X27294D1*
X27337Y27796D1*
X27359Y27760D1*
X27381Y27650D1*
Y27578D1*
X27359Y27468D1*
X27316Y27395D1*
X27250Y27359D1*
X27184D1*
X27119Y27395D1*
X27097Y27432D1*
X27075Y27504D1*
X17527Y25689D2*
X17724D1*
X17789Y25726D1*
X17812Y25762D1*
X17833Y25835D1*
Y25908D1*
X17812Y25981D1*
X17789Y26018D1*
X17724Y26054D1*
X17527D1*
Y25288D1*
X17680Y25689D2*
X17833Y25288D1*
X17974Y25907D2*
X18018Y25944D1*
X18084Y26053D1*
Y25288D1*
X19966Y25711D2*
X20163D1*
X20229Y25748D1*
X20251Y25784D1*
X20273Y25857D1*
Y25930D1*
X20251Y26003D1*
X20229Y26040D1*
X20163Y26076D1*
X19966D1*
Y25310D1*
X20119Y25711D2*
X20273Y25310D1*
X20436Y25893D2*
Y25929D1*
X20458Y26003D1*
X20479Y26039D1*
X20523Y26075D1*
X20611D1*
X20654Y26039D1*
X20676Y26003D1*
X20698Y25929D1*
Y25857D1*
X20676Y25784D1*
X20633Y25675D1*
X20414Y25310D1*
X20720D1*
X21808Y20432D2*
X21786Y20504D1*
X21742Y20578D1*
X21698Y20614D1*
X21611D1*
X21567Y20578D1*
X21524Y20504D1*
X21501Y20432D1*
X21480Y20322D1*
Y20140D1*
X21501Y20031D1*
X21524Y19958D1*
X21567Y19885D1*
X21611Y19848D1*
X21698D1*
X21742Y19885D1*
X21786Y19958D1*
X21808Y20031D1*
X22168Y19848D2*
Y20613D1*
X21949Y20103D1*
X22277D1*
X23739Y26707D2*
X23718Y26780D1*
X23674Y26853D1*
X23630Y26889D1*
X23543D1*
X23499Y26853D1*
X23455Y26780D1*
X23433Y26707D1*
X23411Y26598D1*
Y26415D1*
X23433Y26306D1*
X23455Y26233D1*
X23499Y26160D1*
X23543Y26123D1*
X23630D1*
X23674Y26160D1*
X23718Y26233D1*
X23739Y26306D1*
X24143Y26888D2*
X23925D1*
X23903Y26561D1*
X23925Y26597D1*
X23990Y26634D1*
X24055D1*
X24121Y26597D1*
X24165Y26524D1*
X24187Y26415D1*
Y26342D1*
X24165Y26233D1*
X24121Y26160D1*
X24055Y26123D1*
X23990D1*
X23925Y26160D1*
X23903Y26197D1*
X23881Y26269D1*
X25279Y22875D2*
X25207Y22853D1*
X25134Y22809D1*
X25097Y22766D1*
Y22679D1*
X25134Y22635D1*
X25207Y22591D1*
X25279Y22569D1*
X25389Y22547D1*
X25572D1*
X25680Y22569D1*
X25753Y22591D1*
X25826Y22635D1*
X25863Y22679D1*
Y22766D1*
X25826Y22809D1*
X25753Y22853D1*
X25680Y22875D1*
X25207Y23279D2*
X25134Y23257D1*
X25098Y23191D1*
Y23148D1*
X25134Y23082D1*
X25244Y23038D1*
X25426Y23016D1*
X25608D1*
X25753Y23038D1*
X25827Y23082D1*
X25863Y23148D1*
Y23169D1*
X25827Y23235D1*
X25753Y23279D1*
X25644Y23300D1*
X25608D1*
X25498Y23279D1*
X25426Y23235D1*
X25390Y23169D1*
Y23148D1*
X25426Y23082D1*
X25498Y23038D1*
X25608Y23016D1*
X26169Y24458D2*
X26147Y24531D1*
X26103Y24604D1*
X26060Y24640D1*
X25973D1*
X25929Y24604D1*
X25885Y24531D1*
X25863Y24458D1*
X25841Y24349D1*
Y24166D1*
X25863Y24058D1*
X25885Y23984D1*
X25929Y23912D1*
X25973Y23875D1*
X26060D1*
X26103Y23912D1*
X26147Y23984D1*
X26169Y24058D1*
X26398Y23875D2*
X26617Y24640D1*
X26310D1*
X18938Y23526D2*
Y22980D1*
X18959Y22870D1*
X19003Y22798D1*
X19069Y22761D1*
X19112D1*
X19178Y22798D1*
X19222Y22870D1*
X19244Y22980D1*
Y23526D1*
X19385Y23380D2*
X19429Y23417D1*
X19495Y23526D1*
Y22761D1*
X19636Y23380D2*
X19680Y23417D1*
X19746Y23526D1*
Y22761D1*
M02*
