G04 DipTrace 2.4.0.2*
%INcircle.gbs*%
%MOMM*%
%ADD47C,0.95*%
%ADD48C,0.9*%
%ADD49C,2.54*%
%ADD52C,2.05*%
%ADD57R,5.13X8.05*%
%ADD58R,5.13X2.65*%
%FSLAX53Y53*%
G04*
G71*
G90*
G75*
G01*
%LNBotMask*%
%LPD*%
D47*
X21984Y26070D3*
X20968Y31150D3*
X23000D3*
D58*
X26618Y12845D3*
Y40125D3*
D57*
Y26485D3*
D48*
X32144Y24954D3*
Y27954D3*
G36*
X22561Y11447D2*
X21112Y12896D1*
X22031Y13815D1*
X23480Y12366D1*
X22561Y11447D1*
G37*
D52*
X21854Y12189D3*
G36*
X20163Y12544D2*
X18713Y13993D1*
X19632Y14912D1*
X21082Y13463D1*
X20163Y12544D1*
G37*
D52*
X19456Y13286D3*
G36*
X18026Y13880D2*
X16576Y15329D1*
X17496Y16249D1*
X18945Y14799D1*
X18026Y13880D1*
G37*
D52*
X17319Y14622D3*
G36*
X16269Y15674D2*
X14820Y17124D1*
X15739Y18043D1*
X17188Y16594D1*
X16269Y15674D1*
G37*
D52*
X15562Y16417D3*
G36*
X14881Y17719D2*
X13431Y19169D1*
X14351Y20088D1*
X15800Y18638D1*
X14881Y17719D1*
G37*
D52*
X14174Y18462D3*
G36*
X23629Y36365D2*
X23484Y37315D1*
X23184Y38055D1*
X22804Y38525D1*
X22419Y38905D1*
X21859Y39220D1*
X21534Y39350D1*
X21054Y39450D1*
X20804Y39500D1*
X20389Y39525D1*
X20064Y39410D1*
X19874Y39220D1*
X19749Y39095D1*
X19429Y39030D1*
X19299Y39055D1*
X19049Y39130D1*
X18909Y39285D1*
X18414Y38875D1*
X18664Y38495D1*
Y38405D1*
X18224Y38225D1*
X18249Y37950D1*
X18109Y37445D1*
X19374Y37975D1*
X19534D1*
X19749Y37940D1*
X19799Y37825D1*
X19699Y37570D1*
X19119Y37255D1*
X18264Y36900D1*
X18389Y36645D1*
X18709Y36375D1*
X19659Y36745D1*
X19629Y36555D1*
Y36365D1*
X23629D1*
G37*
D49*
X26618Y44265D3*
M02*
