G04 DipTrace 2.4.0.2*
%INcircle.gtp*%
%MOMM*%
%ADD19O,0.86X0.85*%
%ADD21O,0.973X0.96*%
%ADD23O,0.28X1.0*%
%ADD24O,1.0X0.28*%
%ADD28R,0.9X0.4*%
%ADD31O,1.5X1.0*%
%ADD32R,1.0X1.1*%
%ADD33R,1.1X1.0*%
%ADD34R,2.0X0.85*%
%ADD36O,1.0X1.5*%
%ADD39R,0.9X0.7*%
%ADD40R,0.7X0.9*%
%ADD41R,0.275X0.25*%
%ADD42R,0.25X0.275*%
%FSLAX53Y53*%
G04*
G71*
G90*
G75*
G01*
%LNTopPaste*%
%LPD*%
D19*
X26734Y32339D3*
D21*
X25961Y31601D3*
X27524Y31591D3*
X25971Y33134D3*
X27528Y33144D3*
D23*
X25488Y30311D3*
X25988D3*
X26488D3*
X26988D3*
X27488D3*
X27988D3*
D24*
X28788Y31111D3*
Y31611D3*
Y32111D3*
Y32611D3*
Y33111D3*
Y33611D3*
D23*
X27988Y34411D3*
X27488D3*
X26988D3*
X26488D3*
X25988D3*
X25488D3*
D24*
X24688Y33611D3*
Y33111D3*
Y32611D3*
Y32111D3*
Y31611D3*
Y31111D3*
D28*
X29390Y18777D3*
Y20077D3*
Y21377D3*
X27190D3*
Y20077D3*
Y18777D3*
D31*
X24118Y39794D3*
Y37944D3*
Y36094D3*
X29118D3*
Y37944D3*
Y39794D3*
D32*
X30825Y19247D3*
Y20947D3*
D33*
X27452Y22559D3*
X29152D3*
D34*
X25131Y18722D3*
Y20422D3*
G36*
X34268Y37193D2*
X34456Y37074D1*
X34677Y37049D1*
X34887Y37123D1*
X35045Y37280D1*
X35118Y37490D1*
X35093Y37711D1*
X34975Y37900D1*
X34621Y38253D1*
X34433Y38372D1*
X34212Y38397D1*
X34002Y38323D1*
X33844Y38166D1*
X33771Y37956D1*
X33796Y37735D1*
X33914Y37546D1*
X34268Y37193D1*
G37*
G36*
X32960Y35884D2*
X33148Y35766D1*
X33369Y35741D1*
X33579Y35815D1*
X33736Y35972D1*
X33810Y36182D1*
X33785Y36403D1*
X33667Y36592D1*
X33313Y36945D1*
X33125Y37064D1*
X32904Y37088D1*
X32693Y37015D1*
X32536Y36858D1*
X32463Y36648D1*
X32488Y36426D1*
X32606Y36238D1*
X32960Y35884D1*
G37*
G36*
X31651Y34576D2*
X31840Y34458D1*
X32061Y34433D1*
X32271Y34507D1*
X32428Y34664D1*
X32502Y34874D1*
X32477Y35095D1*
X32358Y35283D1*
X32005Y35637D1*
X31817Y35755D1*
X31595Y35780D1*
X31385Y35707D1*
X31228Y35549D1*
X31155Y35339D1*
X31179Y35118D1*
X31298Y34930D1*
X31651Y34576D1*
G37*
G36*
X35187Y31041D2*
X35375Y30922D1*
X35596Y30897D1*
X35806Y30971D1*
X35964Y31128D1*
X36037Y31338D1*
X36012Y31559D1*
X35894Y31748D1*
X35540Y32101D1*
X35352Y32220D1*
X35131Y32245D1*
X34921Y32171D1*
X34764Y32014D1*
X34690Y31804D1*
X34715Y31583D1*
X34833Y31394D1*
X35187Y31041D1*
G37*
G36*
X36495Y32349D2*
X36683Y32231D1*
X36905Y32206D1*
X37115Y32279D1*
X37272Y32436D1*
X37345Y32647D1*
X37321Y32868D1*
X37202Y33056D1*
X36849Y33410D1*
X36660Y33528D1*
X36439Y33553D1*
X36229Y33479D1*
X36072Y33322D1*
X35998Y33112D1*
X36023Y32891D1*
X36141Y32703D1*
X36495Y32349D1*
G37*
G36*
X37803Y33657D2*
X37992Y33539D1*
X38213Y33514D1*
X38423Y33587D1*
X38580Y33745D1*
X38654Y33955D1*
X38629Y34176D1*
X38510Y34364D1*
X38157Y34718D1*
X37968Y34836D1*
X37747Y34861D1*
X37537Y34788D1*
X37380Y34630D1*
X37306Y34420D1*
X37331Y34199D1*
X37450Y34011D1*
X37803Y33657D1*
G37*
D36*
X39927Y28985D3*
X38077D3*
X36227D3*
Y23985D3*
X38077D3*
X39927D3*
G36*
X37450Y18252D2*
X37331Y18064D1*
X37306Y17843D1*
X37380Y17633D1*
X37537Y17476D1*
X37747Y17402D1*
X37968Y17427D1*
X38157Y17545D1*
X38510Y17899D1*
X38629Y18087D1*
X38654Y18308D1*
X38580Y18518D1*
X38423Y18676D1*
X38213Y18749D1*
X37992Y18724D1*
X37803Y18606D1*
X37450Y18252D1*
G37*
G36*
X36141Y19561D2*
X36023Y19372D1*
X35998Y19151D1*
X36072Y18941D1*
X36229Y18784D1*
X36439Y18710D1*
X36660Y18735D1*
X36849Y18853D1*
X37202Y19207D1*
X37321Y19395D1*
X37345Y19617D1*
X37272Y19827D1*
X37115Y19984D1*
X36905Y20057D1*
X36683Y20033D1*
X36495Y19914D1*
X36141Y19561D1*
G37*
G36*
X34833Y20869D2*
X34715Y20680D1*
X34690Y20459D1*
X34764Y20249D1*
X34921Y20092D1*
X35131Y20018D1*
X35352Y20043D1*
X35540Y20162D1*
X35894Y20515D1*
X36012Y20704D1*
X36037Y20925D1*
X35964Y21135D1*
X35806Y21292D1*
X35596Y21366D1*
X35375Y21341D1*
X35187Y21222D1*
X34833Y20869D1*
G37*
G36*
X31298Y17333D2*
X31179Y17145D1*
X31154Y16924D1*
X31228Y16714D1*
X31385Y16556D1*
X31595Y16483D1*
X31816Y16508D1*
X32005Y16626D1*
X32358Y16980D1*
X32477Y17168D1*
X32502Y17389D1*
X32428Y17599D1*
X32271Y17757D1*
X32061Y17830D1*
X31840Y17805D1*
X31651Y17687D1*
X31298Y17333D1*
G37*
G36*
X32606Y16025D2*
X32488Y15837D1*
X32463Y15616D1*
X32536Y15405D1*
X32693Y15248D1*
X32904Y15175D1*
X33125Y15200D1*
X33313Y15318D1*
X33667Y15672D1*
X33785Y15860D1*
X33810Y16081D1*
X33736Y16291D1*
X33579Y16448D1*
X33369Y16522D1*
X33148Y16497D1*
X32960Y16379D1*
X32606Y16025D1*
G37*
G36*
X33914Y14717D2*
X33796Y14529D1*
X33771Y14307D1*
X33844Y14097D1*
X34002Y13940D1*
X34212Y13867D1*
X34433Y13891D1*
X34621Y14010D1*
X34975Y14363D1*
X35093Y14552D1*
X35118Y14773D1*
X35045Y14983D1*
X34887Y15140D1*
X34677Y15214D1*
X34456Y15189D1*
X34268Y15070D1*
X33914Y14717D1*
G37*
D31*
X29118Y13176D3*
Y15026D3*
Y16876D3*
X24118D3*
Y15026D3*
Y13176D3*
G36*
X19334Y15070D2*
X19146Y15189D1*
X18925Y15214D1*
X18715Y15140D1*
X18558Y14983D1*
X18484Y14773D1*
X18509Y14552D1*
X18627Y14363D1*
X18981Y14010D1*
X19169Y13891D1*
X19390Y13867D1*
X19600Y13940D1*
X19758Y14097D1*
X19831Y14307D1*
X19806Y14529D1*
X19688Y14717D1*
X19334Y15070D1*
G37*
G36*
X20643Y16379D2*
X20454Y16497D1*
X20233Y16522D1*
X20023Y16448D1*
X19866Y16291D1*
X19792Y16081D1*
X19817Y15860D1*
X19935Y15672D1*
X20289Y15318D1*
X20477Y15200D1*
X20699Y15175D1*
X20909Y15248D1*
X21066Y15405D1*
X21139Y15616D1*
X21115Y15837D1*
X20996Y16025D1*
X20643Y16379D1*
G37*
G36*
X21951Y17687D2*
X21762Y17805D1*
X21541Y17830D1*
X21331Y17757D1*
X21174Y17599D1*
X21100Y17389D1*
X21125Y17168D1*
X21244Y16980D1*
X21597Y16626D1*
X21786Y16508D1*
X22007Y16483D1*
X22217Y16556D1*
X22374Y16714D1*
X22448Y16924D1*
X22423Y17145D1*
X22304Y17333D1*
X21951Y17687D1*
G37*
G36*
X18415Y21222D2*
X18227Y21341D1*
X18006Y21366D1*
X17796Y21292D1*
X17638Y21135D1*
X17565Y20925D1*
X17590Y20704D1*
X17708Y20515D1*
X18062Y20162D1*
X18250Y20043D1*
X18471Y20018D1*
X18681Y20092D1*
X18839Y20249D1*
X18912Y20459D1*
X18887Y20680D1*
X18769Y20869D1*
X18415Y21222D1*
G37*
G36*
X17107Y19914D2*
X16919Y20033D1*
X16698Y20057D1*
X16487Y19984D1*
X16330Y19827D1*
X16257Y19617D1*
X16282Y19395D1*
X16400Y19207D1*
X16754Y18853D1*
X16942Y18735D1*
X17163Y18710D1*
X17373Y18784D1*
X17530Y18941D1*
X17604Y19151D1*
X17579Y19372D1*
X17461Y19561D1*
X17107Y19914D1*
G37*
G36*
X15799Y18606D2*
X15611Y18724D1*
X15389Y18749D1*
X15179Y18676D1*
X15022Y18518D1*
X14949Y18308D1*
X14973Y18087D1*
X15092Y17899D1*
X15445Y17545D1*
X15634Y17427D1*
X15855Y17402D1*
X16065Y17476D1*
X16222Y17633D1*
X16296Y17843D1*
X16271Y18064D1*
X16152Y18252D1*
X15799Y18606D1*
G37*
D36*
X13309Y23985D3*
X15159D3*
X17009D3*
Y28985D3*
X15159D3*
X13309D3*
G36*
X16152Y34011D2*
X16271Y34199D1*
X16296Y34420D1*
X16222Y34630D1*
X16065Y34788D1*
X15855Y34861D1*
X15634Y34836D1*
X15445Y34718D1*
X15092Y34364D1*
X14973Y34176D1*
X14949Y33955D1*
X15022Y33745D1*
X15179Y33587D1*
X15389Y33514D1*
X15611Y33539D1*
X15799Y33657D1*
X16152Y34011D1*
G37*
G36*
X17461Y32703D2*
X17579Y32891D1*
X17604Y33112D1*
X17530Y33322D1*
X17373Y33479D1*
X17163Y33553D1*
X16942Y33528D1*
X16754Y33410D1*
X16400Y33056D1*
X16282Y32868D1*
X16257Y32647D1*
X16330Y32436D1*
X16487Y32279D1*
X16698Y32206D1*
X16919Y32231D1*
X17107Y32349D1*
X17461Y32703D1*
G37*
G36*
X18769Y31394D2*
X18887Y31583D1*
X18912Y31804D1*
X18839Y32014D1*
X18681Y32171D1*
X18471Y32245D1*
X18250Y32220D1*
X18062Y32101D1*
X17708Y31748D1*
X17590Y31560D1*
X17565Y31338D1*
X17638Y31128D1*
X17796Y30971D1*
X18006Y30898D1*
X18227Y30922D1*
X18415Y31041D1*
X18769Y31394D1*
G37*
G36*
X22304Y34930D2*
X22423Y35118D1*
X22448Y35339D1*
X22374Y35549D1*
X22217Y35707D1*
X22007Y35780D1*
X21786Y35755D1*
X21597Y35637D1*
X21244Y35283D1*
X21125Y35095D1*
X21100Y34874D1*
X21174Y34664D1*
X21331Y34507D1*
X21541Y34433D1*
X21762Y34458D1*
X21951Y34576D1*
X22304Y34930D1*
G37*
G36*
X20996Y36238D2*
X21115Y36426D1*
X21139Y36648D1*
X21066Y36858D1*
X20909Y37015D1*
X20699Y37088D1*
X20477Y37064D1*
X20289Y36945D1*
X19935Y36592D1*
X19817Y36403D1*
X19792Y36182D1*
X19866Y35972D1*
X20023Y35815D1*
X20233Y35741D1*
X20454Y35766D1*
X20643Y35884D1*
X20996Y36238D1*
G37*
G36*
X19688Y37546D2*
X19806Y37735D1*
X19831Y37956D1*
X19758Y38166D1*
X19600Y38323D1*
X19390Y38397D1*
X19169Y38372D1*
X18981Y38253D1*
X18627Y37900D1*
X18509Y37711D1*
X18484Y37490D1*
X18558Y37280D1*
X18715Y37123D1*
X18925Y37049D1*
X19146Y37074D1*
X19334Y37193D1*
X19688Y37546D1*
G37*
G36*
X32844Y30604D2*
X33644D1*
Y29604D1*
X32844D1*
Y30604D1*
G37*
G36*
X30644D2*
X31444D1*
Y29604D1*
X30644D1*
Y30604D1*
G37*
G36*
Y23304D2*
X31444D1*
Y22304D1*
X30644D1*
Y23304D1*
G37*
G36*
X32844D2*
X33644D1*
Y22304D1*
X32844D1*
Y23304D1*
G37*
G36*
X33144Y24554D2*
X34644D1*
Y23854D1*
X33144D1*
Y24554D1*
G37*
G36*
Y26054D2*
X34644D1*
Y25354D1*
X33144D1*
Y26054D1*
G37*
G36*
Y29054D2*
X34644D1*
Y28354D1*
X33144D1*
Y29054D1*
G37*
D39*
X26344Y26658D3*
X27644D3*
D40*
X18732Y24398D3*
Y25698D3*
D39*
X20644Y24714D3*
X21944D3*
X20961Y21225D3*
X22261D3*
X23183Y25550D3*
X24483D3*
X23346Y23023D3*
X24646D3*
D33*
X23338Y24280D3*
X25038D3*
D41*
X20602Y23696D3*
Y23196D3*
Y22696D3*
Y22196D3*
D42*
X21102D3*
X21602D3*
D41*
X22102D3*
Y22696D3*
Y23196D3*
Y23696D3*
D42*
X21602D3*
X21102D3*
M02*
