G04 DipTrace 2.4.0.2*
%INcircle.gtl*%
%MOMM*%
%ADD10C,0.25*%
%ADD13C,0.508*%
%ADD14C,0.4*%
%ADD15C,0.254*%
%ADD16C,0.305*%
%ADD17C,0.28*%
%ADD18C,0.152*%
%ADD23O,0.28X1.0*%
%ADD24O,1.0X0.28*%
%ADD25C,0.711*%
%ADD26R,2.7X2.7*%
%ADD28R,0.9X0.4*%
%ADD31O,1.5X1.0*%
%ADD32R,1.0X1.1*%
%ADD33R,1.1X1.0*%
%ADD34R,2.0X0.85*%
%ADD36O,1.0X1.5*%
%ADD39R,0.9X0.7*%
%ADD40R,0.7X0.9*%
%ADD41R,0.275X0.25*%
%ADD42R,0.25X0.275*%
%ADD45C,0.711*%
%FSLAX53Y53*%
G04*
G71*
G90*
G75*
G01*
%LNTop*%
%LPD*%
X30825Y19247D2*
D13*
Y18830D1*
X29390D1*
D14*
Y18777D1*
X27480D1*
D13*
X26688D1*
D14*
X27190D1*
X25280D1*
D13*
Y18722D1*
X25131D1*
X31569Y19609D2*
X31188D1*
X30825Y19247D1*
X33894Y24204D2*
Y23897D1*
X34305Y23486D1*
X22102Y23196D2*
D15*
X23173D1*
X23346Y23023D1*
X23338Y24280D2*
Y23620D1*
Y23032D1*
X23346Y23023D1*
X22102Y23696D2*
X22753D1*
X23338Y24280D1*
X23183Y25550D2*
Y24435D1*
X23338Y24280D1*
X21944Y24714D2*
X22346D1*
X23183Y25550D1*
X23307Y23620D2*
X23338D1*
X25131Y18722D2*
D13*
X23715D1*
X23477Y18961D1*
X18732Y25698D2*
D15*
X19454D1*
X20960D1*
X21944Y24714D1*
X19454Y25698D2*
Y23792D1*
X20045Y23200D1*
X20598D1*
X20602Y23196D1*
X20045Y23200D2*
X19874D1*
X20349Y22726D1*
D10*
X20573D1*
X20602Y22696D1*
X29118Y36094D2*
D13*
X28271D1*
X27571Y36795D1*
Y40222D1*
X28050Y40701D1*
X33086D1*
X36790Y36997D1*
Y35999D1*
X34793Y34002D1*
Y32142D1*
X35364Y31571D1*
X36790Y36997D2*
X40927Y32861D1*
Y27789D1*
X39419Y26281D1*
X38523D1*
X36227Y23985D1*
X40927Y27789D2*
Y19651D1*
X37704Y16428D1*
X35549D1*
X34171Y17807D1*
X32478D1*
X31828Y17156D1*
X37704Y16428D2*
X33500Y12224D1*
X28340D1*
X27003Y13561D1*
Y13991D1*
X24810Y16184D1*
X24118Y16876D1*
X28340Y12224D2*
X28424Y12141D1*
X20119D1*
X17685Y14575D1*
Y16428D1*
X19174Y17917D1*
Y19757D1*
X18238Y20692D1*
X17685Y14575D2*
X12396Y19864D1*
Y25368D1*
X13453Y26425D1*
X14448D1*
X17009Y28985D1*
X12396Y25368D2*
Y32313D1*
X15825Y35743D1*
X17766D1*
X18831Y34678D1*
X21345D1*
X21774Y35107D1*
X29118Y36094D2*
Y35145D1*
X30309Y33954D1*
Y31309D1*
X27484Y28484D1*
X26488D1*
D16*
Y30311D1*
Y28484D2*
D13*
Y27052D1*
Y23523D1*
X27452Y22559D1*
Y21639D1*
D14*
X27190Y21377D1*
X22619Y27340D2*
D13*
X24684D1*
X25777Y28433D1*
X26539D1*
X26488Y28484D1*
X29390Y20077D2*
X28779D1*
X27334Y21521D1*
D14*
X27190Y21377D1*
X26344Y26658D2*
D13*
Y26908D1*
X26488Y27052D1*
X24762Y16136D2*
X24810Y16184D1*
X31828Y35107D2*
Y33384D1*
X36227Y28985D1*
X18238Y31571D2*
X19595D1*
X21177Y33153D1*
X24118Y36094D1*
X19595Y31571D2*
X17920Y29896D1*
Y24896D1*
X17009Y23985D1*
X17920Y24896D2*
Y22322D1*
X21081Y19161D1*
Y18312D1*
X21578Y17816D1*
X21861Y17532D1*
X22149D1*
X21774Y17156D1*
X21578Y17816D2*
X28178D1*
X29118Y16876D1*
X28178Y17816D2*
Y17603D1*
X30830D1*
X33049Y19822D1*
X33370D1*
X34494D1*
X35364Y20692D1*
X35169D1*
Y27928D1*
X36227Y28985D1*
X29390Y21377D2*
D14*
Y22740D1*
D13*
X29266Y22864D1*
Y22444D1*
X29152Y22559D1*
X29390Y21377D2*
D14*
Y21015D1*
D13*
X29458Y20947D1*
X30825D1*
X35109D1*
X35364Y20692D1*
X22619Y29880D2*
Y29984D1*
X21920Y30683D1*
Y32410D1*
X21177Y33153D1*
X26988Y30311D2*
D16*
Y29546D1*
X27183Y29351D1*
X33244Y30104D2*
D13*
X31044D1*
X33244Y22804D2*
X31044D1*
X33370Y19850D2*
Y19822D1*
X33244Y30104D2*
X30685D1*
Y26485D1*
X28768D1*
X27638Y31461D2*
X26738Y32361D1*
X26988Y30311D2*
D15*
Y32111D1*
X26738Y32361D1*
X28788Y23319D2*
D14*
X29266Y22864D1*
X29152Y22559D2*
D13*
Y22955D1*
X28788Y23319D1*
X26738Y32361D2*
X25838D1*
X26988Y30311D2*
D17*
Y31065D1*
D13*
Y32111D1*
X26738Y32361D1*
X30685Y26485D2*
Y23163D1*
X31044Y22804D1*
X21602Y22196D2*
D15*
Y21846D1*
X22064Y21384D1*
X22101D1*
X22261Y21225D1*
X24483Y25550D2*
X24699D1*
Y24619D1*
X25038Y24280D1*
X24646Y23023D2*
X24837D1*
X25036Y23222D1*
X25168Y23354D1*
Y24150D1*
X25038Y24280D1*
X22261Y21225D2*
X22647D1*
Y22069D1*
X22794Y22215D1*
X24078D1*
X24676Y22813D1*
Y22994D1*
X24646Y23023D1*
X22102Y22696D2*
X22313D1*
X22647Y22361D1*
Y22069D1*
X25116Y23515D2*
X25036Y23434D1*
Y23222D1*
X26738Y32361D2*
D13*
X25838Y31461D1*
X27644Y26658D2*
X28595D1*
X28768Y26485D1*
X17965Y22334D2*
X17920D1*
X25131Y20422D2*
X26845D1*
D14*
X27190Y20077D1*
X21349Y27340D2*
D16*
Y26662D1*
X21029Y26342D1*
X24688Y31111D2*
Y29343D1*
X23524Y28179D1*
X24688Y32111D2*
X23282D1*
X23125Y32268D1*
X21349Y28610D2*
X20816D1*
X20707Y28501D1*
X24688Y31611D2*
X24060D1*
X23837Y31388D1*
Y30860D1*
X23337Y30360D1*
Y29394D1*
X22553Y28610D1*
X22619D1*
X23130Y29051D2*
X23337D1*
Y29394D1*
X25488Y34411D2*
Y35165D1*
X25354D1*
Y36708D1*
X24118Y37944D1*
X25988Y34411D2*
Y35165D1*
X26099D1*
Y37814D1*
X24118Y39794D1*
X33894Y25704D2*
D13*
X33711D1*
X32888Y26528D1*
X29118Y39794D2*
X32373D1*
X34444Y37723D1*
X29118Y37944D2*
X31607D1*
X33136Y36415D1*
X37980Y34187D2*
Y34096D1*
X39513Y32563D1*
Y29399D1*
X39927Y28985D1*
X36672Y32879D2*
Y32499D1*
X37860Y31311D1*
Y29202D1*
X38077Y28985D1*
X39927Y23985D2*
Y20023D1*
X37980Y18076D1*
X38077Y23985D2*
Y20789D1*
X36672Y19384D1*
X29118Y15026D2*
X32314D1*
X33136Y15848D1*
X29118Y13176D2*
X33080D1*
X34444Y14540D1*
X24118Y13176D2*
X20522D1*
X19158Y14540D1*
X24118Y15026D2*
X21288D1*
X20466Y15848D1*
X15159Y23985D2*
Y21155D1*
X16930Y19384D1*
X13309Y23985D2*
Y20389D1*
X15622Y18076D1*
X13309Y28985D2*
Y31874D1*
X15622Y34187D1*
X15159Y28985D2*
Y31108D1*
X16930Y32879D1*
X20602Y23696D2*
D15*
Y23958D1*
X20644Y24000D1*
Y24714D1*
X20517Y24148D2*
X20644Y24000D1*
X24688Y33611D2*
X24591D1*
X24193Y34009D1*
X23179D1*
X22911Y33741D1*
X19772Y22227D2*
Y22196D1*
X20602D1*
X24688Y33111D2*
X23600D1*
X23597Y33115D1*
X19772Y22227D2*
Y22346D1*
X18808Y23310D1*
Y24322D1*
X18732Y24398D1*
X21102Y22196D2*
Y21366D1*
X20961Y21225D1*
D45*
X28768Y26485D3*
X21029Y26342D3*
X20707Y28501D3*
X23125Y32268D3*
X23524Y28179D3*
X27183Y29351D3*
X31569Y19609D3*
X33370Y19850D3*
X28788Y23319D3*
X34305Y23486D3*
X32888Y26528D3*
X20517Y24148D3*
X19772Y22227D3*
X23307Y23620D3*
X25116Y23515D3*
X23477Y18961D3*
X23597Y33115D3*
X22911Y33741D3*
X23130Y29051D3*
X17965Y22334D3*
X24762Y16136D3*
X24181Y42787D2*
D18*
X24439D1*
X28796D2*
X29054D1*
X24069Y42638D2*
X24551D1*
X28687D2*
X29166D1*
X23957Y42489D2*
X24677D1*
X28558D2*
X29278D1*
X23848Y42340D2*
X24827D1*
X28408D2*
X29387D1*
X23734Y42191D2*
X25003D1*
X28232D2*
X29501D1*
X23553Y42042D2*
X25218D1*
X28017D2*
X29682D1*
X23372Y41893D2*
X25491D1*
X27744D2*
X29863D1*
X23191Y41744D2*
X25894D1*
X27344D2*
X30044D1*
X23007Y41595D2*
X30225D1*
X22772Y41446D2*
X30463D1*
X22460Y41297D2*
X30775D1*
X22148Y41148D2*
X31087D1*
X21717Y40999D2*
X31518D1*
X20047Y40849D2*
X20169D1*
X20990D2*
X32242D1*
X33056D2*
X33188D1*
X19743Y40700D2*
X33492D1*
X19438Y40551D2*
X33797D1*
X19162Y40402D2*
X23489D1*
X24748D2*
X28487D1*
X29749D2*
X34081D1*
X18897Y40253D2*
X23313D1*
X24924D2*
X28313D1*
X32449D2*
X34340D1*
X18635Y40104D2*
X23215D1*
X25022D2*
X28216D1*
X32732D2*
X34602D1*
X18390Y39955D2*
X23163D1*
X25074D2*
X28163D1*
X32882D2*
X34859D1*
X18159Y39806D2*
X23144D1*
X25091D2*
X28144D1*
X33032D2*
X35083D1*
X17928Y39657D2*
X23158D1*
X25079D2*
X28156D1*
X33180D2*
X35309D1*
X17702Y39508D2*
X23203D1*
X25031D2*
X28204D1*
X33330D2*
X35536D1*
X17497Y39359D2*
X23294D1*
X25079D2*
X28294D1*
X33478D2*
X35750D1*
X17295Y39210D2*
X23451D1*
X25229D2*
X28451D1*
X29784D2*
X32288D1*
X33628D2*
X35947D1*
X17090Y39061D2*
X24325D1*
X25377D2*
X32438D1*
X33778D2*
X36145D1*
X16895Y38912D2*
X24475D1*
X25527D2*
X32585D1*
X33925D2*
X36340D1*
X16716Y38763D2*
X24622D1*
X25677D2*
X32735D1*
X34075D2*
X36533D1*
X16535Y38613D2*
X19207D1*
X19495D2*
X23617D1*
X24617D2*
X24772D1*
X25824D2*
X28618D1*
X29618D2*
X32883D1*
X34223D2*
X36705D1*
X16354Y38464D2*
X18862D1*
X19807D2*
X23370D1*
X25974D2*
X28370D1*
X29865D2*
X33033D1*
X34692D2*
X36879D1*
X16180Y38315D2*
X18695D1*
X19955D2*
X23248D1*
X24986D2*
X25070D1*
X26122D2*
X28249D1*
X31899D2*
X33183D1*
X34871D2*
X37050D1*
X16021Y38166D2*
X18548D1*
X20021D2*
X23179D1*
X25055D2*
X25220D1*
X26272D2*
X28180D1*
X32054D2*
X33330D1*
X35018D2*
X37224D1*
X15861Y38017D2*
X18410D1*
X20074D2*
X23148D1*
X25089D2*
X25368D1*
X26412D2*
X28147D1*
X32204D2*
X33481D1*
X35164D2*
X37381D1*
X15702Y37868D2*
X18314D1*
X20074D2*
X23148D1*
X25089D2*
X25518D1*
X26472D2*
X28147D1*
X32354D2*
X33554D1*
X35256D2*
X37531D1*
X15540Y37719D2*
X18260D1*
X20057D2*
X23179D1*
X25055D2*
X25668D1*
X26474D2*
X28180D1*
X32501D2*
X33571D1*
X35318D2*
X37683D1*
X15397Y37570D2*
X18243D1*
X19995D2*
X23251D1*
X25019D2*
X25722D1*
X26474D2*
X28251D1*
X32651D2*
X33638D1*
X35335D2*
X37836D1*
X15256Y37421D2*
X18245D1*
X19902D2*
X23374D1*
X25167D2*
X25722D1*
X26474D2*
X28375D1*
X29861D2*
X31461D1*
X32799D2*
X33731D1*
X35330D2*
X37986D1*
X15113Y37272D2*
X18298D1*
X19759D2*
X20355D1*
X20900D2*
X23627D1*
X25317D2*
X25722D1*
X26474D2*
X28628D1*
X29608D2*
X31609D1*
X33156D2*
X33878D1*
X35278D2*
X38122D1*
X14971Y37123D2*
X18369D1*
X19612D2*
X20122D1*
X21148D2*
X24413D1*
X25465D2*
X25722D1*
X26474D2*
X31759D1*
X33437D2*
X34026D1*
X35197D2*
X38255D1*
X14835Y36974D2*
X18517D1*
X19443D2*
X19972D1*
X21286D2*
X24563D1*
X25615D2*
X25721D1*
X26474D2*
X31907D1*
X33594D2*
X34207D1*
X35049D2*
X38388D1*
X14709Y36825D2*
X18843D1*
X19040D2*
X19822D1*
X21340D2*
X24710D1*
X26474D2*
X32057D1*
X33744D2*
X38522D1*
X14582Y36676D2*
X19695D1*
X21388D2*
X23446D1*
X26474D2*
X28447D1*
X29789D2*
X32207D1*
X33875D2*
X38655D1*
X14456Y36527D2*
X19603D1*
X21376D2*
X23291D1*
X26474D2*
X28292D1*
X29944D2*
X32252D1*
X33971D2*
X38774D1*
X14330Y36377D2*
X19562D1*
X21359D2*
X23203D1*
X26474D2*
X28204D1*
X30032D2*
X32268D1*
X34013D2*
X38891D1*
X14211Y36228D2*
X19545D1*
X21283D2*
X23155D1*
X26474D2*
X28156D1*
X30080D2*
X32349D1*
X34030D2*
X39007D1*
X14099Y36079D2*
X19564D1*
X21183D2*
X23144D1*
X26474D2*
X28144D1*
X30092D2*
X32454D1*
X34011D2*
X39124D1*
X13987Y35930D2*
X19617D1*
X21036D2*
X21655D1*
X22226D2*
X23163D1*
X26474D2*
X28163D1*
X30072D2*
X31375D1*
X31947D2*
X32602D1*
X33959D2*
X39241D1*
X13875Y35781D2*
X19710D1*
X20886D2*
X21431D1*
X22452D2*
X23134D1*
X26474D2*
X28216D1*
X30020D2*
X31149D1*
X32170D2*
X32752D1*
X33856D2*
X39350D1*
X13763Y35632D2*
X19860D1*
X20697D2*
X21281D1*
X22581D2*
X22986D1*
X26474D2*
X28316D1*
X29920D2*
X31021D1*
X32320D2*
X32952D1*
X33697D2*
X39453D1*
X13656Y35483D2*
X21134D1*
X22633D2*
X22836D1*
X26474D2*
X28494D1*
X29741D2*
X30968D1*
X32470D2*
X39555D1*
X13556Y35334D2*
X21012D1*
X26474D2*
X30930D1*
X32589D2*
X39657D1*
X13458Y35185D2*
X20922D1*
X26474D2*
X30947D1*
X32680D2*
X39760D1*
X13358Y35036D2*
X15557D1*
X16004D2*
X20893D1*
X28267D2*
X30973D1*
X32709D2*
X37600D1*
X38045D2*
X39862D1*
X13261Y34887D2*
X15307D1*
X16276D2*
X20877D1*
X28358D2*
X31064D1*
X32725D2*
X37326D1*
X38295D2*
X39953D1*
X13163Y34738D2*
X15154D1*
X16416D2*
X20912D1*
X28377D2*
X31180D1*
X32692D2*
X37186D1*
X38447D2*
X40041D1*
X13077Y34589D2*
X15004D1*
X16473D2*
X20965D1*
X28377D2*
X31328D1*
X32639D2*
X37129D1*
X38597D2*
X40129D1*
X12989Y34440D2*
X14878D1*
X16518D2*
X21088D1*
X28377D2*
X31349D1*
X32516D2*
X37083D1*
X38726D2*
X40217D1*
X12904Y34291D2*
X14783D1*
X16506D2*
X21300D1*
X28377D2*
X31349D1*
X32306D2*
X37095D1*
X38819D2*
X40308D1*
X12818Y34141D2*
X14745D1*
X16487D2*
X21496D1*
X28377D2*
X31349D1*
X32306D2*
X37114D1*
X38857D2*
X40396D1*
X12730Y33992D2*
X14728D1*
X16404D2*
X21346D1*
X28372D2*
X31349D1*
X32306D2*
X37200D1*
X38876D2*
X40472D1*
X12651Y33843D2*
X14609D1*
X16297D2*
X21198D1*
X29456D2*
X31349D1*
X32306D2*
X37307D1*
X38902D2*
X40548D1*
X12575Y33694D2*
X14459D1*
X16147D2*
X16797D1*
X17407D2*
X21048D1*
X29527D2*
X31349D1*
X32306D2*
X36195D1*
X36804D2*
X37455D1*
X39052D2*
X40624D1*
X12499Y33545D2*
X14309D1*
X15997D2*
X16578D1*
X17619D2*
X20898D1*
X29532D2*
X31349D1*
X32337D2*
X35983D1*
X37023D2*
X37605D1*
X39200D2*
X40700D1*
X12425Y33396D2*
X14161D1*
X15792D2*
X16428D1*
X17740D2*
X20750D1*
X29470D2*
X31349D1*
X32485D2*
X35862D1*
X37173D2*
X37810D1*
X39350D2*
X40777D1*
X12349Y33247D2*
X14011D1*
X15352D2*
X16281D1*
X17792D2*
X20600D1*
X29510D2*
X31371D1*
X32635D2*
X35809D1*
X37321D2*
X38160D1*
X39500D2*
X40853D1*
X12275Y33098D2*
X13864D1*
X15202D2*
X16164D1*
X17828D2*
X20453D1*
X29537D2*
X31449D1*
X32785D2*
X35774D1*
X37438D2*
X38307D1*
X39647D2*
X40917D1*
X12208Y32949D2*
X13714D1*
X15054D2*
X16074D1*
X17811D2*
X20303D1*
X29501D2*
X31592D1*
X32932D2*
X35790D1*
X37528D2*
X38457D1*
X39797D2*
X40984D1*
X12144Y32800D2*
X13564D1*
X14904D2*
X16047D1*
X17783D2*
X20153D1*
X29487D2*
X31742D1*
X33082D2*
X35819D1*
X37554D2*
X38607D1*
X39926D2*
X41048D1*
X12080Y32651D2*
X13416D1*
X14756D2*
X16031D1*
X17690D2*
X20005D1*
X29534D2*
X31892D1*
X33230D2*
X35912D1*
X37569D2*
X38755D1*
X39983D2*
X41112D1*
X12015Y32502D2*
X13266D1*
X14606D2*
X15883D1*
X17571D2*
X19855D1*
X29520D2*
X32040D1*
X33380D2*
X36031D1*
X37531D2*
X38905D1*
X39990D2*
X41177D1*
X11951Y32353D2*
X13118D1*
X14456D2*
X15733D1*
X17421D2*
X18052D1*
X18800D2*
X19707D1*
X21045D2*
X21308D1*
X29449D2*
X32190D1*
X33530D2*
X34802D1*
X35549D2*
X36181D1*
X37488D2*
X39034D1*
X39990D2*
X41241D1*
X11887Y32204D2*
X12968D1*
X14309D2*
X15585D1*
X17273D2*
X17852D1*
X18959D2*
X19557D1*
X20898D2*
X21441D1*
X29525D2*
X32338D1*
X33678D2*
X34643D1*
X35749D2*
X36300D1*
X37638D2*
X39034D1*
X39990D2*
X41298D1*
X11832Y32055D2*
X12868D1*
X14159D2*
X15435D1*
X17047D2*
X17705D1*
X19062D2*
X19407D1*
X20747D2*
X21441D1*
X29532D2*
X32488D1*
X33828D2*
X34540D1*
X35897D2*
X36445D1*
X37785D2*
X39034D1*
X39990D2*
X41351D1*
X11777Y31905D2*
X12833D1*
X14011D2*
X15285D1*
X16626D2*
X17555D1*
X20600D2*
X21441D1*
X29475D2*
X32638D1*
X33975D2*
X34490D1*
X36047D2*
X36595D1*
X37935D2*
X39034D1*
X39990D2*
X41405D1*
X11723Y31756D2*
X12830D1*
X13861D2*
X15138D1*
X16478D2*
X17452D1*
X20450D2*
X20584D1*
X21352D2*
X21441D1*
X29508D2*
X32785D1*
X34125D2*
X34469D1*
X36152D2*
X36743D1*
X38083D2*
X39034D1*
X39990D2*
X41458D1*
X11670Y31607D2*
X12830D1*
X13787D2*
X14988D1*
X16328D2*
X17371D1*
X20300D2*
X20410D1*
X29537D2*
X32935D1*
X34275D2*
X34488D1*
X36230D2*
X36893D1*
X38231D2*
X39034D1*
X39990D2*
X41510D1*
X11615Y31458D2*
X12830D1*
X13787D2*
X14840D1*
X16180D2*
X17352D1*
X20152D2*
X20315D1*
X29506D2*
X33083D1*
X34423D2*
X34531D1*
X36249D2*
X37043D1*
X38314D2*
X39034D1*
X39990D2*
X41565D1*
X11561Y31309D2*
X12830D1*
X13787D2*
X14726D1*
X16030D2*
X17343D1*
X20002D2*
X20262D1*
X29480D2*
X33233D1*
X36259D2*
X37191D1*
X38338D2*
X39034D1*
X39990D2*
X41615D1*
X11518Y31160D2*
X12830D1*
X13787D2*
X14683D1*
X15880D2*
X17390D1*
X19855D2*
X20243D1*
X29534D2*
X33383D1*
X36211D2*
X37341D1*
X38338D2*
X39034D1*
X39990D2*
X41658D1*
X11473Y31011D2*
X12830D1*
X13787D2*
X14681D1*
X15733D2*
X17450D1*
X19705D2*
X20257D1*
X29525D2*
X33531D1*
X36152D2*
X37381D1*
X38338D2*
X39034D1*
X39990D2*
X41701D1*
X11427Y30862D2*
X12830D1*
X13787D2*
X14681D1*
X15637D2*
X17593D1*
X19554D2*
X20305D1*
X29441D2*
X33681D1*
X36009D2*
X37381D1*
X38338D2*
X39034D1*
X39990D2*
X41743D1*
X11382Y30713D2*
X12830D1*
X13787D2*
X14681D1*
X15637D2*
X17886D1*
X19407D2*
X20393D1*
X28375D2*
X30449D1*
X31637D2*
X32649D1*
X35168D2*
X35352D1*
X35716D2*
X37381D1*
X38338D2*
X39034D1*
X39990D2*
X41786D1*
X11339Y30564D2*
X12830D1*
X13787D2*
X14681D1*
X15637D2*
X17917D1*
X19257D2*
X20553D1*
X28377D2*
X30421D1*
X33868D2*
X33978D1*
X35318D2*
X37381D1*
X38338D2*
X39034D1*
X39990D2*
X41829D1*
X11294Y30415D2*
X12830D1*
X13787D2*
X14681D1*
X15637D2*
X17769D1*
X19109D2*
X21005D1*
X28377D2*
X30325D1*
X33868D2*
X34128D1*
X35468D2*
X37381D1*
X38338D2*
X39034D1*
X39990D2*
X41872D1*
X11258Y30266D2*
X12830D1*
X13787D2*
X14681D1*
X15637D2*
X17619D1*
X18959D2*
X20838D1*
X28377D2*
X30235D1*
X33868D2*
X34276D1*
X35616D2*
X37381D1*
X38338D2*
X39034D1*
X39990D2*
X41908D1*
X11222Y30117D2*
X12830D1*
X13787D2*
X14681D1*
X15637D2*
X17498D1*
X18809D2*
X20753D1*
X28377D2*
X30206D1*
X33868D2*
X34426D1*
X35766D2*
X37381D1*
X38338D2*
X39034D1*
X39990D2*
X41941D1*
X11189Y29968D2*
X12830D1*
X13787D2*
X14681D1*
X15637D2*
X17448D1*
X18662D2*
X20712D1*
X28377D2*
X30206D1*
X33868D2*
X34574D1*
X35914D2*
X37381D1*
X38338D2*
X39034D1*
X39990D2*
X41974D1*
X11153Y29819D2*
X12830D1*
X13787D2*
X14681D1*
X15637D2*
X16590D1*
X18511D2*
X20710D1*
X28353D2*
X30206D1*
X33868D2*
X34724D1*
X36645D2*
X37381D1*
X38495D2*
X39034D1*
X40345D2*
X42005D1*
X11118Y29669D2*
X12733D1*
X13885D2*
X14583D1*
X15735D2*
X16433D1*
X18397D2*
X20741D1*
X21955D2*
X22040D1*
X25065D2*
X25225D1*
X28251D2*
X30206D1*
X33868D2*
X34874D1*
X36802D2*
X37381D1*
X38652D2*
X39034D1*
X40502D2*
X42039D1*
X11082Y29520D2*
X12645D1*
X13973D2*
X14495D1*
X15823D2*
X16345D1*
X18397D2*
X20819D1*
X21876D2*
X22122D1*
X25065D2*
X26613D1*
X27736D2*
X30206D1*
X31651D2*
X32638D1*
X33852D2*
X35021D1*
X36890D2*
X37381D1*
X38740D2*
X39034D1*
X40590D2*
X42072D1*
X11053Y29371D2*
X12597D1*
X14020D2*
X14447D1*
X15871D2*
X16297D1*
X18397D2*
X20967D1*
X21729D2*
X22281D1*
X25065D2*
X26603D1*
X27763D2*
X30206D1*
X31163D2*
X35171D1*
X36938D2*
X37367D1*
X38788D2*
X39036D1*
X40638D2*
X42103D1*
X11030Y29222D2*
X12585D1*
X14032D2*
X14435D1*
X15883D2*
X16286D1*
X18397D2*
X22577D1*
X25043D2*
X26618D1*
X27748D2*
X30206D1*
X31163D2*
X32966D1*
X34823D2*
X35319D1*
X36952D2*
X37352D1*
X38802D2*
X39069D1*
X40650D2*
X42127D1*
X11003Y29073D2*
X12585D1*
X14032D2*
X14435D1*
X15883D2*
X16286D1*
X18397D2*
X20948D1*
X21750D2*
X22217D1*
X24943D2*
X26677D1*
X27689D2*
X30206D1*
X31163D2*
X32895D1*
X34892D2*
X35469D1*
X36952D2*
X37352D1*
X38802D2*
X39169D1*
X40650D2*
X42151D1*
X10977Y28924D2*
X12585D1*
X14032D2*
X14435D1*
X15883D2*
X16286D1*
X18397D2*
X20317D1*
X21879D2*
X22089D1*
X24796D2*
X26799D1*
X27567D2*
X30206D1*
X31163D2*
X32895D1*
X34894D2*
X35495D1*
X36952D2*
X37352D1*
X38802D2*
X39203D1*
X40650D2*
X42172D1*
X10951Y28775D2*
X12585D1*
X14032D2*
X14435D1*
X15883D2*
X16286D1*
X18397D2*
X20198D1*
X21943D2*
X22024D1*
X24646D2*
X30206D1*
X31163D2*
X32895D1*
X34894D2*
X35347D1*
X36952D2*
X37352D1*
X38802D2*
X39203D1*
X40650D2*
X42196D1*
X10925Y28626D2*
X12592D1*
X14025D2*
X14442D1*
X15875D2*
X16293D1*
X18397D2*
X20141D1*
X24498D2*
X30206D1*
X31163D2*
X31999D1*
X32287D2*
X32895D1*
X34894D2*
X35197D1*
X36942D2*
X37362D1*
X38793D2*
X39212D1*
X40643D2*
X42217D1*
X10903Y28477D2*
X12633D1*
X13985D2*
X14483D1*
X15835D2*
X16333D1*
X18397D2*
X20129D1*
X24348D2*
X30206D1*
X31163D2*
X31687D1*
X32601D2*
X32895D1*
X34894D2*
X35047D1*
X36902D2*
X37402D1*
X38752D2*
X39250D1*
X40602D2*
X42241D1*
X10887Y28328D2*
X12714D1*
X13904D2*
X14564D1*
X15754D2*
X16414D1*
X18397D2*
X20155D1*
X21895D2*
X22072D1*
X24198D2*
X30206D1*
X31163D2*
X31556D1*
X32732D2*
X32895D1*
X36823D2*
X37481D1*
X38671D2*
X39331D1*
X40521D2*
X42260D1*
X10868Y28179D2*
X12854D1*
X13763D2*
X14704D1*
X15614D2*
X16555D1*
X18397D2*
X20229D1*
X21783D2*
X22184D1*
X24103D2*
X30206D1*
X31163D2*
X31483D1*
X32806D2*
X32973D1*
X36680D2*
X37622D1*
X38531D2*
X39472D1*
X40381D2*
X42274D1*
X10851Y28030D2*
X13223D1*
X13394D2*
X15073D1*
X15246D2*
X16924D1*
X17095D2*
X17443D1*
X18397D2*
X20381D1*
X21033D2*
X21177D1*
X21519D2*
X22448D1*
X22791D2*
X22965D1*
X24084D2*
X30206D1*
X31163D2*
X31449D1*
X32839D2*
X34702D1*
X35942D2*
X36143D1*
X36311D2*
X37991D1*
X38162D2*
X39841D1*
X40011D2*
X42286D1*
X10834Y27881D2*
X17443D1*
X18397D2*
X21069D1*
X21629D2*
X22339D1*
X22898D2*
X23029D1*
X24019D2*
X30206D1*
X31163D2*
X31447D1*
X32839D2*
X34690D1*
X35792D2*
X42301D1*
X10818Y27732D2*
X17443D1*
X18397D2*
X20874D1*
X21821D2*
X22146D1*
X23884D2*
X30206D1*
X31163D2*
X31480D1*
X32806D2*
X34690D1*
X35647D2*
X42313D1*
X10801Y27583D2*
X17443D1*
X18397D2*
X20784D1*
X21914D2*
X22053D1*
X23184D2*
X30206D1*
X31163D2*
X31554D1*
X32735D2*
X34690D1*
X35647D2*
X42324D1*
X10794Y27433D2*
X17443D1*
X18397D2*
X20738D1*
X23229D2*
X30206D1*
X31163D2*
X31685D1*
X32604D2*
X34690D1*
X35647D2*
X42339D1*
X10787Y27284D2*
X17443D1*
X18397D2*
X20734D1*
X23234D2*
X30206D1*
X31163D2*
X31985D1*
X32301D2*
X34690D1*
X35647D2*
X42348D1*
X10777Y27135D2*
X17443D1*
X18397D2*
X20767D1*
X21931D2*
X22036D1*
X23200D2*
X25670D1*
X28317D2*
X30206D1*
X31163D2*
X34690D1*
X35647D2*
X42351D1*
X10770Y26986D2*
X17443D1*
X18397D2*
X20848D1*
X21850D2*
X22117D1*
X23119D2*
X25670D1*
X29044D2*
X30206D1*
X31163D2*
X32542D1*
X33232D2*
X34690D1*
X35647D2*
X42353D1*
X10761Y26837D2*
X17443D1*
X18397D2*
X20741D1*
X21726D2*
X22274D1*
X22964D2*
X25670D1*
X31163D2*
X32399D1*
X33375D2*
X34690D1*
X35647D2*
X42358D1*
X10753Y26688D2*
X17443D1*
X18397D2*
X20567D1*
X22348D2*
X25670D1*
X31163D2*
X32330D1*
X33444D2*
X34690D1*
X35647D2*
X42360D1*
X10756Y26539D2*
X17443D1*
X18397D2*
X20484D1*
X22531D2*
X25670D1*
X31163D2*
X32309D1*
X33547D2*
X34690D1*
X35647D2*
X42365D1*
X10763Y26390D2*
X17443D1*
X18397D2*
X20450D1*
X22631D2*
X25670D1*
X31163D2*
X32326D1*
X33694D2*
X34690D1*
X35647D2*
X42367D1*
X10768Y26241D2*
X17443D1*
X19307D2*
X20457D1*
X22688D2*
X25670D1*
X31163D2*
X32385D1*
X35647D2*
X42365D1*
X10772Y26092D2*
X17443D1*
X19307D2*
X20507D1*
X25158D2*
X28349D1*
X31163D2*
X32514D1*
X35647D2*
X42358D1*
X10777Y25943D2*
X17443D1*
X25158D2*
X28597D1*
X28941D2*
X30206D1*
X31163D2*
X32802D1*
X35647D2*
X42353D1*
X10784Y25794D2*
X17443D1*
X25158D2*
X30206D1*
X31163D2*
X32919D1*
X35647D2*
X42346D1*
X10789Y25645D2*
X17443D1*
X25158D2*
X30206D1*
X31163D2*
X32919D1*
X35647D2*
X42339D1*
X10794Y25496D2*
X17443D1*
X25158D2*
X30206D1*
X31163D2*
X31711D1*
X32578D2*
X32919D1*
X35647D2*
X42334D1*
X10806Y25347D2*
X17443D1*
X25158D2*
X30206D1*
X31163D2*
X31568D1*
X32720D2*
X32919D1*
X35647D2*
X42327D1*
X10822Y25197D2*
X17443D1*
X25158D2*
X30206D1*
X31163D2*
X31490D1*
X32799D2*
X32990D1*
X35647D2*
X42315D1*
X10839Y25048D2*
X17402D1*
X25158D2*
X30206D1*
X31163D2*
X31452D1*
X32837D2*
X34690D1*
X35647D2*
X42298D1*
X10856Y24899D2*
X13045D1*
X13573D2*
X14895D1*
X15423D2*
X16745D1*
X25812D2*
X30206D1*
X31163D2*
X31447D1*
X32842D2*
X34690D1*
X35647D2*
X35964D1*
X36490D2*
X37814D1*
X38340D2*
X39662D1*
X40190D2*
X42282D1*
X10875Y24750D2*
X12807D1*
X13811D2*
X14657D1*
X15661D2*
X16507D1*
X25812D2*
X30206D1*
X31163D2*
X31476D1*
X32813D2*
X33057D1*
X35647D2*
X35724D1*
X36728D2*
X37574D1*
X38578D2*
X39424D1*
X40429D2*
X42265D1*
X10891Y24601D2*
X12687D1*
X13932D2*
X14535D1*
X15780D2*
X16386D1*
X25812D2*
X30206D1*
X31163D2*
X31542D1*
X32747D2*
X32926D1*
X36850D2*
X37455D1*
X38700D2*
X39305D1*
X40550D2*
X42251D1*
X10908Y24452D2*
X12618D1*
X13999D2*
X14469D1*
X15849D2*
X16319D1*
X25812D2*
X30206D1*
X31163D2*
X31664D1*
X32625D2*
X32919D1*
X36916D2*
X37386D1*
X38766D2*
X39236D1*
X40617D2*
X42234D1*
X10925Y24303D2*
X12587D1*
X14030D2*
X14438D1*
X15880D2*
X16288D1*
X25812D2*
X30206D1*
X31163D2*
X31916D1*
X32370D2*
X32919D1*
X36947D2*
X37355D1*
X38797D2*
X39205D1*
X40648D2*
X42217D1*
X10946Y24154D2*
X12585D1*
X14032D2*
X14435D1*
X15883D2*
X16286D1*
X25812D2*
X30206D1*
X31163D2*
X32919D1*
X36952D2*
X37352D1*
X38802D2*
X39203D1*
X40650D2*
X42194D1*
X10975Y24005D2*
X12585D1*
X14032D2*
X14435D1*
X15883D2*
X16286D1*
X25812D2*
X30206D1*
X31163D2*
X32919D1*
X36952D2*
X37352D1*
X38802D2*
X39203D1*
X40650D2*
X42167D1*
X11003Y23856D2*
X12585D1*
X14032D2*
X14435D1*
X15883D2*
X16286D1*
X25812D2*
X28599D1*
X28977D2*
X30206D1*
X31163D2*
X32919D1*
X36952D2*
X37352D1*
X38802D2*
X39203D1*
X40650D2*
X42141D1*
X11032Y23707D2*
X12585D1*
X14032D2*
X14435D1*
X15883D2*
X16286D1*
X25812D2*
X28363D1*
X29213D2*
X30206D1*
X31163D2*
X32980D1*
X36950D2*
X37352D1*
X38800D2*
X39203D1*
X40650D2*
X42115D1*
X11061Y23558D2*
X12606D1*
X14011D2*
X14457D1*
X15861D2*
X16307D1*
X25693D2*
X28261D1*
X29315D2*
X30206D1*
X31163D2*
X33564D1*
X36928D2*
X37376D1*
X38778D2*
X39224D1*
X40629D2*
X42091D1*
X11092Y23409D2*
X12664D1*
X13954D2*
X14514D1*
X15804D2*
X16364D1*
X25686D2*
X28216D1*
X29368D2*
X30206D1*
X31639D2*
X32647D1*
X36871D2*
X37433D1*
X38721D2*
X39281D1*
X40571D2*
X42065D1*
X11120Y23260D2*
X12768D1*
X13849D2*
X14619D1*
X15699D2*
X16469D1*
X25636D2*
X26677D1*
X29927D2*
X30206D1*
X36769D2*
X37536D1*
X38619D2*
X39386D1*
X40467D2*
X42036D1*
X11149Y23111D2*
X12830D1*
X13787D2*
X14681D1*
X15637D2*
X16659D1*
X17359D2*
X17443D1*
X18397D2*
X18522D1*
X25527D2*
X26677D1*
X29927D2*
X30209D1*
X35647D2*
X35876D1*
X36578D2*
X37598D1*
X38554D2*
X39448D1*
X40405D2*
X42001D1*
X11180Y22961D2*
X12830D1*
X13787D2*
X14681D1*
X15637D2*
X17443D1*
X18397D2*
X18667D1*
X25319D2*
X26677D1*
X28227D2*
X28335D1*
X29927D2*
X30252D1*
X33868D2*
X34081D1*
X34530D2*
X34690D1*
X35647D2*
X37598D1*
X38554D2*
X39448D1*
X40405D2*
X41965D1*
X11220Y22812D2*
X12830D1*
X13787D2*
X14681D1*
X15637D2*
X17443D1*
X18397D2*
X18814D1*
X25319D2*
X26677D1*
X28227D2*
X28377D1*
X29927D2*
X30366D1*
X33868D2*
X34690D1*
X35647D2*
X37598D1*
X38554D2*
X39448D1*
X40405D2*
X41929D1*
X11261Y22663D2*
X12830D1*
X13787D2*
X14681D1*
X15637D2*
X17443D1*
X18438D2*
X18964D1*
X25319D2*
X26677D1*
X28227D2*
X28377D1*
X29927D2*
X30421D1*
X33868D2*
X34690D1*
X35647D2*
X37598D1*
X38554D2*
X39448D1*
X40405D2*
X41893D1*
X11303Y22514D2*
X12830D1*
X13787D2*
X14681D1*
X15637D2*
X17414D1*
X18516D2*
X19114D1*
X25319D2*
X26677D1*
X28227D2*
X28377D1*
X29927D2*
X30421D1*
X33868D2*
X34690D1*
X35647D2*
X37598D1*
X38554D2*
X39448D1*
X40405D2*
X41858D1*
X11344Y22365D2*
X12830D1*
X13787D2*
X14681D1*
X15637D2*
X17386D1*
X18547D2*
X19210D1*
X24719D2*
X26677D1*
X28227D2*
X28377D1*
X29927D2*
X30421D1*
X33868D2*
X34690D1*
X35647D2*
X37598D1*
X38554D2*
X39448D1*
X40405D2*
X41822D1*
X11387Y22216D2*
X12830D1*
X13787D2*
X14681D1*
X15637D2*
X17398D1*
X18695D2*
X19193D1*
X24569D2*
X26677D1*
X28227D2*
X28377D1*
X29927D2*
X30440D1*
X31649D2*
X32640D1*
X33849D2*
X34690D1*
X35647D2*
X37598D1*
X38554D2*
X39448D1*
X40405D2*
X41782D1*
X11427Y22067D2*
X12830D1*
X13787D2*
X14681D1*
X15637D2*
X17452D1*
X18845D2*
X19217D1*
X24419D2*
X26677D1*
X28227D2*
X28377D1*
X29927D2*
X34690D1*
X35647D2*
X37598D1*
X38554D2*
X39448D1*
X40405D2*
X41734D1*
X11468Y21918D2*
X12830D1*
X13787D2*
X14681D1*
X15637D2*
X17569D1*
X18995D2*
X19286D1*
X24250D2*
X26677D1*
X28227D2*
X28377D1*
X29927D2*
X34690D1*
X35647D2*
X37598D1*
X38554D2*
X39448D1*
X40405D2*
X41689D1*
X11511Y21769D2*
X12830D1*
X13787D2*
X14681D1*
X15637D2*
X17802D1*
X19143D2*
X19429D1*
X20116D2*
X20286D1*
X22998D2*
X26515D1*
X27865D2*
X28716D1*
X30063D2*
X34690D1*
X35647D2*
X37598D1*
X38554D2*
X39448D1*
X40405D2*
X41643D1*
X11565Y21620D2*
X12830D1*
X13787D2*
X14681D1*
X15637D2*
X17952D1*
X19293D2*
X20286D1*
X22998D2*
X26515D1*
X27865D2*
X28716D1*
X31549D2*
X34690D1*
X35647D2*
X37598D1*
X38554D2*
X39448D1*
X40405D2*
X41596D1*
X11618Y21471D2*
X12830D1*
X13787D2*
X14681D1*
X15637D2*
X17671D1*
X19440D2*
X20286D1*
X22998D2*
X26515D1*
X27865D2*
X28716D1*
X31549D2*
X34690D1*
X35930D2*
X37598D1*
X38554D2*
X39448D1*
X40405D2*
X41551D1*
X11673Y21322D2*
X12830D1*
X13787D2*
X14681D1*
X15661D2*
X17514D1*
X19590D2*
X20286D1*
X22998D2*
X26515D1*
X27865D2*
X28716D1*
X36088D2*
X37598D1*
X38554D2*
X39448D1*
X40405D2*
X41503D1*
X11727Y21173D2*
X12830D1*
X13787D2*
X14681D1*
X15811D2*
X17414D1*
X19740D2*
X20286D1*
X22995D2*
X26515D1*
X27865D2*
X28716D1*
X36188D2*
X37598D1*
X38554D2*
X39448D1*
X40405D2*
X41448D1*
X11782Y21024D2*
X12830D1*
X13787D2*
X14700D1*
X15961D2*
X17362D1*
X19888D2*
X20286D1*
X22936D2*
X23908D1*
X26355D2*
X26515D1*
X27865D2*
X28716D1*
X36240D2*
X37598D1*
X38554D2*
X39448D1*
X40405D2*
X41391D1*
X11837Y20875D2*
X12830D1*
X13787D2*
X14776D1*
X16109D2*
X17345D1*
X20038D2*
X20286D1*
X22936D2*
X23908D1*
X26958D2*
X28932D1*
X36257D2*
X37493D1*
X38554D2*
X39448D1*
X40405D2*
X41334D1*
X11889Y20725D2*
X12830D1*
X13787D2*
X14919D1*
X16259D2*
X17362D1*
X20186D2*
X20286D1*
X22936D2*
X23908D1*
X27210D2*
X29013D1*
X36240D2*
X37343D1*
X38550D2*
X39448D1*
X40405D2*
X41277D1*
X11946Y20576D2*
X12830D1*
X13792D2*
X15069D1*
X16406D2*
X17407D1*
X20336D2*
X23908D1*
X27296D2*
X29166D1*
X36195D2*
X37195D1*
X38504D2*
X39448D1*
X40405D2*
X41220D1*
X12015Y20427D2*
X12830D1*
X13939D2*
X15216D1*
X16556D2*
X17502D1*
X20486D2*
X23908D1*
X27865D2*
X28716D1*
X31549D2*
X34428D1*
X36102D2*
X37045D1*
X38385D2*
X39448D1*
X40405D2*
X41162D1*
X12082Y20278D2*
X12845D1*
X14090D2*
X15366D1*
X16707D2*
X17633D1*
X19085D2*
X19293D1*
X20633D2*
X23908D1*
X27865D2*
X28716D1*
X31549D2*
X32954D1*
X35968D2*
X36895D1*
X38235D2*
X39448D1*
X40405D2*
X41098D1*
X12151Y20129D2*
X12911D1*
X14240D2*
X15514D1*
X17173D2*
X17783D1*
X19026D2*
X19443D1*
X20783D2*
X23908D1*
X27865D2*
X28716D1*
X30063D2*
X31333D1*
X31804D2*
X32685D1*
X35818D2*
X36429D1*
X38088D2*
X39365D1*
X40405D2*
X41031D1*
X12218Y19980D2*
X13047D1*
X14387D2*
X15664D1*
X17352D2*
X17943D1*
X18881D2*
X19591D1*
X20931D2*
X23908D1*
X27865D2*
X28716D1*
X32008D2*
X32538D1*
X35659D2*
X36250D1*
X37938D2*
X39215D1*
X40402D2*
X40962D1*
X12287Y19831D2*
X13197D1*
X14537D2*
X15814D1*
X17502D2*
X18252D1*
X18583D2*
X19741D1*
X21081D2*
X23908D1*
X26355D2*
X26515D1*
X27865D2*
X28716D1*
X32104D2*
X32388D1*
X35352D2*
X36102D1*
X37790D2*
X39065D1*
X40364D2*
X40896D1*
X12354Y19682D2*
X13345D1*
X14685D2*
X15962D1*
X17645D2*
X19891D1*
X21231D2*
X26515D1*
X27865D2*
X28716D1*
X32144D2*
X32240D1*
X35023D2*
X35957D1*
X37640D2*
X38917D1*
X40257D2*
X40827D1*
X12423Y19533D2*
X13495D1*
X14835D2*
X16040D1*
X17740D2*
X20038D1*
X21379D2*
X30102D1*
X34875D2*
X35862D1*
X37561D2*
X38767D1*
X40107D2*
X40758D1*
X12499Y19384D2*
X13645D1*
X14985D2*
X16057D1*
X17804D2*
X20188D1*
X21502D2*
X23089D1*
X23865D2*
X30102D1*
X34659D2*
X35800D1*
X37545D2*
X38619D1*
X39957D2*
X40686D1*
X12582Y19235D2*
X13792D1*
X15133D2*
X16121D1*
X17821D2*
X20336D1*
X21552D2*
X22967D1*
X26355D2*
X26606D1*
X27563D2*
X29151D1*
X33132D2*
X35783D1*
X37481D2*
X38469D1*
X39809D2*
X40605D1*
X12663Y19086D2*
X13942D1*
X15283D2*
X16214D1*
X17819D2*
X20486D1*
X21559D2*
X22910D1*
X32982D2*
X35786D1*
X37388D2*
X38319D1*
X39659D2*
X40527D1*
X12746Y18937D2*
X14090D1*
X15609D2*
X16359D1*
X17766D2*
X20603D1*
X21559D2*
X22898D1*
X32835D2*
X35836D1*
X37242D2*
X37995D1*
X39512D2*
X40446D1*
X12830Y18788D2*
X14240D1*
X15918D2*
X16509D1*
X17688D2*
X20603D1*
X21559D2*
X22924D1*
X32685D2*
X35914D1*
X37092D2*
X37683D1*
X39362D2*
X40365D1*
X12911Y18639D2*
X14390D1*
X16078D2*
X16688D1*
X17538D2*
X20603D1*
X21559D2*
X22998D1*
X32535D2*
X36064D1*
X36914D2*
X37524D1*
X39212D2*
X40286D1*
X12994Y18489D2*
X14538D1*
X16225D2*
X20603D1*
X21574D2*
X23151D1*
X32387D2*
X37376D1*
X39064D2*
X40200D1*
X13082Y18340D2*
X14688D1*
X16359D2*
X20603D1*
X21724D2*
X23439D1*
X32237D2*
X37243D1*
X38914D2*
X40108D1*
X13180Y18191D2*
X14735D1*
X16452D2*
X20619D1*
X32089D2*
X37150D1*
X38866D2*
X40015D1*
X13278Y18042D2*
X14754D1*
X16499D2*
X20688D1*
X31939D2*
X37102D1*
X38847D2*
X39922D1*
X13378Y17893D2*
X14833D1*
X16516D2*
X20829D1*
X32444D2*
X37086D1*
X38769D2*
X39829D1*
X13475Y17744D2*
X14935D1*
X16497D2*
X20979D1*
X32594D2*
X37105D1*
X38666D2*
X39736D1*
X13575Y17595D2*
X15085D1*
X16445D2*
X20936D1*
X32666D2*
X37157D1*
X38516D2*
X39636D1*
X13673Y17446D2*
X15233D1*
X16347D2*
X20884D1*
X32718D2*
X37255D1*
X38369D2*
X39529D1*
X13778Y17297D2*
X15433D1*
X16190D2*
X20886D1*
X22588D2*
X23282D1*
X24953D2*
X27816D1*
X32718D2*
X37414D1*
X38169D2*
X39422D1*
X13894Y17148D2*
X20903D1*
X22648D2*
X23198D1*
X25039D2*
X28075D1*
X32699D2*
X39315D1*
X14011Y16999D2*
X20969D1*
X22664D2*
X23155D1*
X25081D2*
X28154D1*
X30082D2*
X30937D1*
X32632D2*
X39207D1*
X14125Y16850D2*
X21065D1*
X22657D2*
X23144D1*
X25091D2*
X28144D1*
X30092D2*
X30944D1*
X32537D2*
X39100D1*
X14242Y16701D2*
X20096D1*
X20517D2*
X21212D1*
X22607D2*
X23165D1*
X25069D2*
X28166D1*
X30070D2*
X30997D1*
X32389D2*
X33085D1*
X33506D2*
X38979D1*
X14359Y16552D2*
X19815D1*
X20776D2*
X21360D1*
X22524D2*
X23222D1*
X25012D2*
X28223D1*
X30013D2*
X31080D1*
X32242D2*
X32828D1*
X33787D2*
X38857D1*
X14475Y16403D2*
X19674D1*
X20928D2*
X21546D1*
X22374D2*
X23324D1*
X24910D2*
X28325D1*
X29911D2*
X31228D1*
X32056D2*
X32673D1*
X33928D2*
X38734D1*
X14606Y16253D2*
X19617D1*
X21078D2*
X23513D1*
X24722D2*
X28513D1*
X29722D2*
X32523D1*
X33987D2*
X38612D1*
X14742Y16104D2*
X19569D1*
X21209D2*
X32395D1*
X34032D2*
X38491D1*
X14880Y15955D2*
X19581D1*
X21302D2*
X32299D1*
X34021D2*
X38355D1*
X15016Y15806D2*
X19600D1*
X21343D2*
X32259D1*
X34002D2*
X38217D1*
X15152Y15657D2*
X19684D1*
X21359D2*
X23529D1*
X24705D2*
X28530D1*
X29706D2*
X32242D1*
X33921D2*
X38079D1*
X15290Y15508D2*
X19788D1*
X21476D2*
X23332D1*
X24903D2*
X28332D1*
X29903D2*
X32126D1*
X33813D2*
X37938D1*
X15437Y15359D2*
X18693D1*
X19283D2*
X19936D1*
X25010D2*
X28227D1*
X33666D2*
X34319D1*
X34909D2*
X37800D1*
X15597Y15210D2*
X18474D1*
X19504D2*
X20086D1*
X25067D2*
X28168D1*
X33516D2*
X34097D1*
X35128D2*
X37643D1*
X15756Y15061D2*
X18348D1*
X19654D2*
X20291D1*
X25091D2*
X28144D1*
X33311D2*
X33947D1*
X35254D2*
X37479D1*
X15918Y14912D2*
X18295D1*
X19805D2*
X20731D1*
X25084D2*
X28154D1*
X32870D2*
X33797D1*
X35306D2*
X37317D1*
X16078Y14763D2*
X18260D1*
X19921D2*
X20881D1*
X25041D2*
X28194D1*
X32720D2*
X33681D1*
X35342D2*
X37152D1*
X16237Y14614D2*
X18276D1*
X20012D2*
X21062D1*
X24960D2*
X28275D1*
X32539D2*
X33590D1*
X35326D2*
X36990D1*
X16418Y14465D2*
X18305D1*
X20040D2*
X23420D1*
X24817D2*
X28420D1*
X29815D2*
X33564D1*
X35299D2*
X36824D1*
X16606Y14316D2*
X18395D1*
X20055D2*
X33547D1*
X35206D2*
X36633D1*
X16795Y14167D2*
X18514D1*
X20202D2*
X33402D1*
X35090D2*
X36440D1*
X16983Y14017D2*
X18662D1*
X20350D2*
X33252D1*
X34940D2*
X36250D1*
X17168Y13868D2*
X18812D1*
X20500D2*
X23701D1*
X24536D2*
X28701D1*
X29534D2*
X33102D1*
X34790D2*
X36059D1*
X17378Y13719D2*
X19036D1*
X20647D2*
X23398D1*
X24838D2*
X28397D1*
X29839D2*
X32954D1*
X34566D2*
X35867D1*
X17597Y13570D2*
X19457D1*
X24972D2*
X28263D1*
X34144D2*
X35643D1*
X17819Y13421D2*
X19607D1*
X25048D2*
X28187D1*
X33994D2*
X35416D1*
X18040Y13272D2*
X19755D1*
X25086D2*
X28151D1*
X33847D2*
X35190D1*
X18261Y13123D2*
X19905D1*
X25091D2*
X28147D1*
X33697D2*
X34964D1*
X18521Y12974D2*
X20053D1*
X25062D2*
X28173D1*
X33549D2*
X34721D1*
X18785Y12825D2*
X20205D1*
X24998D2*
X28237D1*
X33397D2*
X34452D1*
X19047Y12676D2*
X23351D1*
X24886D2*
X28349D1*
X29887D2*
X34183D1*
X19312Y12527D2*
X23567D1*
X24667D2*
X28568D1*
X29668D2*
X33914D1*
X19621Y12378D2*
X33623D1*
X19940Y12229D2*
X33295D1*
X20259Y12080D2*
X32966D1*
X20602Y11931D2*
X32640D1*
X21000Y11781D2*
X32238D1*
X21400Y11632D2*
X31828D1*
X21840Y11483D2*
X31411D1*
X22360Y11334D2*
X30873D1*
X22891Y11185D2*
X30333D1*
X23622Y11036D2*
X29609D1*
X24536Y10887D2*
X28718D1*
X28354Y30746D2*
X28362Y30671D1*
X28360Y29951D1*
X28355Y29875D1*
X28332Y29803D1*
X28295Y29736D1*
X28245Y29679D1*
X28185Y29632D1*
X28116Y29599D1*
X28043Y29580D1*
X27967Y29577D1*
X27891Y29589D1*
X27820Y29616D1*
X27756Y29656D1*
X27736Y29671D1*
X27674Y29627D1*
X27714Y29543D1*
X27735Y29470D1*
X27748Y29351D1*
X27743Y29275D1*
X27728Y29200D1*
X27702Y29128D1*
X27668Y29061D1*
X27624Y28998D1*
X27573Y28942D1*
X27514Y28893D1*
X27450Y28853D1*
X27380Y28821D1*
X27307Y28800D1*
X27232Y28788D1*
X27156Y28786D1*
X27080Y28795D1*
X27007Y28814D1*
X26936Y28843D1*
X26870Y28881D1*
X26810Y28927D1*
X26756Y28981D1*
X26710Y29042D1*
X26673Y29108D1*
X26645Y29179D1*
X26627Y29253D1*
X26619Y29329D1*
X26621Y29405D1*
X26633Y29477D1*
X26626Y29630D1*
X26563Y29610D1*
X26488Y29602D1*
X26412Y29610D1*
X26340Y29634D1*
X26275Y29674D1*
X26256Y29691D1*
X26185Y29632D1*
X26116Y29599D1*
X26043Y29580D1*
X25967Y29577D1*
X25891Y29589D1*
X25820Y29616D1*
X25756Y29656D1*
X25736Y29671D1*
X25685Y29632D1*
X25616Y29599D1*
X25543Y29580D1*
X25467Y29577D1*
X25391Y29589D1*
X25320Y29616D1*
X25256Y29656D1*
X25201Y29709D1*
X25158Y29772D1*
X25129Y29842D1*
X25114Y29917D1*
X25113Y30103D1*
X25115Y30713D1*
X25128Y30771D1*
X25051Y30763D1*
X25049Y30120D1*
Y29343D1*
X25041Y29267D1*
X25018Y29195D1*
X24987Y29141D1*
X24889Y29033D1*
X24086Y28230D1*
X24089Y28179D1*
X24084Y28103D1*
X24068Y28028D1*
X24043Y27957D1*
X24008Y27889D1*
X23965Y27826D1*
X23914Y27770D1*
X23855Y27721D1*
X23791Y27681D1*
X23721Y27650D1*
X23648Y27628D1*
X23573Y27616D1*
X23497Y27615D1*
X23421Y27624D1*
X23347Y27642D1*
X23277Y27671D1*
X23211Y27709D1*
X23150Y27755D1*
X23097Y27809D1*
X23051Y27870D1*
X23014Y27937D1*
X22986Y28007D1*
X22964Y28117D1*
X22894Y28076D1*
X22799Y28036D1*
X22696Y28013D1*
X22591Y28009D1*
X22487Y28023D1*
X22387Y28055D1*
X22294Y28103D1*
X22211Y28167D1*
X22140Y28245D1*
X22084Y28333D1*
X22044Y28430D1*
X22022Y28533D1*
X22017Y28638D1*
X22022Y28697D1*
X22041Y28777D1*
X22059Y28833D1*
X22113Y28936D1*
X22176Y29018D1*
X22253Y29088D1*
X22342Y29145D1*
X22439Y29185D1*
X22541Y29207D1*
X22588Y29211D1*
X22613Y29276D1*
X22487Y29293D1*
X22387Y29325D1*
X22294Y29373D1*
X22211Y29437D1*
X22140Y29515D1*
X22084Y29603D1*
X22044Y29700D1*
X22022Y29803D1*
X22017Y29908D1*
X22019Y29928D1*
X21974Y29923D1*
X21976Y29860D1*
X21961Y29745D1*
X21928Y29641D1*
X21878Y29544D1*
X21812Y29457D1*
X21731Y29383D1*
X21639Y29324D1*
X21538Y29282D1*
X21431Y29258D1*
X21322Y29254D1*
X21214Y29268D1*
X21109Y29300D1*
X21012Y29351D1*
X20925Y29417D1*
X20851Y29498D1*
X20793Y29590D1*
X20751Y29691D1*
X20727Y29798D1*
X20722Y29905D1*
X20736Y30015D1*
X20769Y30120D1*
X20819Y30217D1*
X20886Y30304D1*
X20966Y30378D1*
X21058Y30436D1*
X21090Y30452D1*
X21016Y30442D1*
X20939Y30441D1*
X20864Y30448D1*
X20789Y30463D1*
X20716Y30487D1*
X20647Y30517D1*
X20581Y30555D1*
X20519Y30600D1*
X20463Y30652D1*
X20412Y30708D1*
X20368Y30771D1*
X20331Y30837D1*
X20301Y30907D1*
X20279Y30980D1*
X20264Y31055D1*
X20258Y31131D1*
X20260Y31207D1*
X20270Y31282D1*
X20288Y31356D1*
X20314Y31428D1*
X20348Y31496D1*
X20389Y31561D1*
X20436Y31620D1*
X20489Y31675D1*
X20548Y31723D1*
X20612Y31764D1*
X20680Y31799D1*
X20751Y31826D1*
X20825Y31845D1*
X20900Y31857D1*
X20976Y31860D1*
X21052Y31855D1*
X21127Y31842D1*
X21200Y31821D1*
X21271Y31792D1*
X21338Y31756D1*
X21401Y31713D1*
X21457Y31664D1*
Y32219D1*
X21176Y32499D1*
X18382Y29703D1*
X18383Y29058D1*
Y26356D1*
X18935Y26357D1*
X19291D1*
Y26036D1*
X19987Y26034D1*
X20556D1*
X20519Y26100D1*
X20491Y26171D1*
X20472Y26245D1*
X20464Y26320D1*
X20466Y26397D1*
X20479Y26472D1*
X20501Y26544D1*
X20533Y26614D1*
X20574Y26678D1*
X20623Y26736D1*
X20680Y26787D1*
X20743Y26830D1*
X20811Y26864D1*
X20883Y26888D1*
X20941Y26900D1*
X20899Y26939D1*
X20849Y27005D1*
X20818Y27055D1*
X20774Y27162D1*
X20752Y27263D1*
X20747Y27368D1*
X20752Y27427D1*
X20771Y27507D1*
X20789Y27563D1*
X20843Y27666D1*
X20906Y27748D1*
X20983Y27818D1*
X21072Y27875D1*
X21169Y27915D1*
X21271Y27937D1*
X21376Y27941D1*
X21480Y27928D1*
X21580Y27896D1*
X21673Y27847D1*
X21756Y27783D1*
X21827Y27706D1*
X21883Y27617D1*
X21923Y27520D1*
X21945Y27418D1*
X21950Y27313D1*
X21936Y27209D1*
X21904Y27109D1*
X21856Y27016D1*
X21792Y26933D1*
X21714Y26862D1*
X21709Y26858D1*
X21710Y26724D1*
X21841Y26765D1*
X21916Y26777D1*
X21992Y26780D1*
X22068Y26775D1*
X22143Y26762D1*
X22216Y26741D1*
X22287Y26712D1*
X22354Y26676D1*
X22417Y26633D1*
X22474Y26583D1*
X22527Y26527D1*
X22572Y26467D1*
X22611Y26401D1*
X22643Y26332D1*
X22668Y26260D1*
X22684Y26185D1*
X22692Y26109D1*
X23842Y26110D1*
X25142D1*
Y24991D1*
X25040Y24990D1*
X25797D1*
Y23571D1*
X25680D1*
X25676Y23439D1*
X25661Y23364D1*
X25636Y23292D1*
X25601Y23225D1*
X25557Y23162D1*
X25506Y23106D1*
X25447Y23057D1*
X25383Y23017D1*
X25307Y22984D1*
X25305Y22464D1*
X24803D1*
X24316Y21977D1*
X24256Y21930D1*
X24188Y21897D1*
X24111Y21881D1*
X24078Y21879D1*
X22985D1*
X22984Y21225D1*
X22975Y21149D1*
X22946Y21071D1*
X22920Y21022D1*
Y20665D1*
X21602Y20668D1*
X21544Y20665D1*
X20302D1*
Y21784D1*
X20766D1*
Y21864D1*
X20526Y21860D1*
X20200D1*
X20162Y21819D1*
X20104Y21770D1*
X20039Y21729D1*
X19970Y21698D1*
X19897Y21676D1*
X19822Y21665D1*
X19745Y21663D1*
X19670Y21672D1*
X19596Y21691D1*
X19525Y21719D1*
X19459Y21757D1*
X19399Y21804D1*
X19345Y21858D1*
X19300Y21919D1*
X19262Y21985D1*
X19234Y22056D1*
X19216Y22130D1*
X19208Y22205D1*
X19210Y22281D1*
X19223Y22357D1*
X19237Y22404D1*
X18571Y23072D1*
X18523Y23132D1*
X18490Y23200D1*
X18474Y23277D1*
X18472Y23310D1*
Y23741D1*
X18384Y23739D1*
X18383Y22713D1*
X18425Y22661D1*
X18465Y22596D1*
X18496Y22527D1*
X18517Y22454D1*
X18528Y22369D1*
X21408Y19489D1*
X21458Y19431D1*
X21497Y19365D1*
X21524Y19295D1*
X21540Y19220D1*
X21544Y19161D1*
Y18502D1*
X21770Y18278D1*
X23580Y18279D1*
X23496Y18314D1*
X23452Y18341D1*
X23376Y18406D1*
X23300Y18424D1*
X23230Y18453D1*
X23164Y18491D1*
X23103Y18537D1*
X23050Y18591D1*
X23004Y18652D1*
X22967Y18718D1*
X22939Y18789D1*
X22920Y18863D1*
X22912Y18939D1*
X22914Y19015D1*
X22927Y19090D1*
X22949Y19163D1*
X22981Y19232D1*
X23022Y19296D1*
X23071Y19354D1*
X23128Y19405D1*
X23191Y19448D1*
X23259Y19482D1*
X23331Y19506D1*
X23406Y19521D1*
X23482Y19526D1*
X23558Y19520D1*
X23632Y19504D1*
X23704Y19478D1*
X23771Y19443D1*
X23833Y19399D1*
X23889Y19347D1*
X23924Y19304D1*
X23922Y19356D1*
X26341D1*
Y19187D1*
X26473Y19186D1*
X26531Y19213D1*
X26604Y19232D1*
X26688Y19240D1*
X27480D1*
X27555Y19234D1*
X27629Y19215D1*
X27697Y19186D1*
X29096D1*
X29164Y19234D1*
X29233Y19266D1*
X29306Y19285D1*
X29390Y19293D1*
X30116D1*
Y20006D1*
X30947D1*
X31031Y20045D1*
X31104Y20065D1*
X31247Y20073D1*
X31207Y20072D1*
X31283Y20097D1*
X31351Y20131D1*
X31423Y20155D1*
X31498Y20170D1*
X31574Y20174D1*
X31650Y20168D1*
X31724Y20152D1*
X31796Y20127D1*
X31863Y20091D1*
X31925Y20047D1*
X31981Y19996D1*
X32029Y19937D1*
X32069Y19872D1*
X32100Y19802D1*
X32121Y19729D1*
X32134Y19609D1*
X32130Y19560D1*
X32722Y20150D1*
X32780Y20199D1*
X32845Y20238D1*
X32916Y20266D1*
X32968Y20278D1*
X33021Y20294D1*
X33084Y20337D1*
X33152Y20371D1*
X33225Y20395D1*
X33299Y20410D1*
X33375Y20414D1*
X33451Y20409D1*
X33526Y20393D1*
X33597Y20367D1*
X33665Y20332D1*
X33729Y20286D1*
X34301D1*
X34481Y20467D1*
X34482Y20485D1*
X33356Y20483D1*
X31535D1*
X31534Y20187D1*
X30116D1*
Y20485D1*
X30051Y20483D1*
X30049Y20349D1*
Y19667D1*
X28731D1*
Y20486D1*
X29399Y20487D1*
X29337Y20499D1*
X29276Y20520D1*
X29219Y20549D1*
X29130Y20619D1*
X29020Y20735D1*
X28985Y20789D1*
X28958Y20846D1*
X28939Y20907D1*
X28929Y20968D1*
X28731Y20967D1*
Y21786D1*
X28981D1*
Y21851D1*
X28393Y21849D1*
Y22914D1*
X28315Y23010D1*
X28278Y23077D1*
X28250Y23147D1*
X28231Y23221D1*
X28223Y23297D1*
X28225Y23373D1*
X28238Y23448D1*
X28260Y23521D1*
X28292Y23590D1*
X28333Y23654D1*
X28382Y23712D1*
X28439Y23763D1*
X28502Y23806D1*
X28570Y23840D1*
X28642Y23865D1*
X28717Y23879D1*
X28793Y23884D1*
X28869Y23878D1*
X28943Y23862D1*
X29015Y23836D1*
X29082Y23801D1*
X29144Y23757D1*
X29200Y23705D1*
X29248Y23646D1*
X29288Y23581D1*
X29319Y23512D1*
X29343Y23417D1*
X29481Y23281D1*
X29536Y23268D1*
X29911D1*
Y21849D1*
X29799D1*
Y21785D1*
X30049Y21786D1*
Y21407D1*
X30117Y21410D1*
X30116Y21706D1*
X31534D1*
Y21408D1*
X32425Y21410D1*
X34704D1*
X34706Y21987D1*
Y23090D1*
X34636Y23028D1*
X34572Y22988D1*
X34502Y22957D1*
X34429Y22935D1*
X34354Y22923D1*
X34278Y22922D1*
X34202Y22930D1*
X34128Y22949D1*
X34058Y22978D1*
X33992Y23016D1*
X33931Y23062D1*
X33854Y23148D1*
X33853Y22304D1*
X33839Y22229D1*
X33800Y22165D1*
X33740Y22118D1*
X33665Y22096D1*
X32958Y22095D1*
X32844D1*
X32769Y22108D1*
X32704Y22148D1*
X32658Y22207D1*
X32636Y22282D1*
X32634Y22341D1*
X31651D1*
X31653Y22304D1*
X31639Y22229D1*
X31600Y22165D1*
X31540Y22118D1*
X31465Y22096D1*
X30758Y22095D1*
X30644D1*
X30569Y22108D1*
X30504Y22148D1*
X30458Y22207D1*
X30436Y22282D1*
X30434Y22759D1*
X30357Y22835D1*
X30308Y22893D1*
X30269Y22959D1*
X30241Y23030D1*
X30225Y23104D1*
X30221Y23163D1*
Y26023D1*
X29092Y26022D1*
X29035Y25987D1*
X28966Y25956D1*
X28893Y25934D1*
X28817Y25922D1*
X28741Y25921D1*
X28666Y25930D1*
X28592Y25949D1*
X28521Y25977D1*
X28455Y26015D1*
X28395Y26061D1*
X28341Y26115D1*
X28303Y26167D1*
Y26099D1*
X26984Y26101D1*
X26973Y26099D1*
X25684D1*
Y27218D1*
X28303D1*
Y27120D1*
X28595Y27122D1*
X28671Y27115D1*
X28745Y27097D1*
X28795Y27076D1*
X28852Y27044D1*
X28924Y27028D1*
X28995Y27002D1*
X29090Y26948D1*
X30221Y26949D1*
Y30104D1*
X30228Y30180D1*
X30246Y30253D1*
X30277Y30323D1*
X30318Y30387D1*
X30369Y30443D1*
X30431Y30491D1*
X30397Y30467D1*
X30434Y30492D1*
Y30604D1*
X30448Y30678D1*
X30488Y30743D1*
X30547Y30790D1*
X30622Y30812D1*
X31330Y30813D1*
X31444D1*
X31518Y30799D1*
X31583Y30760D1*
X31630Y30700D1*
X31652Y30625D1*
X31653Y30567D1*
X32637D1*
X32634Y30604D1*
X32648Y30678D1*
X32688Y30743D1*
X32747Y30790D1*
X32822Y30812D1*
X33530Y30813D1*
X33644D1*
X33718Y30799D1*
X33783Y30760D1*
X33830Y30700D1*
X33852Y30625D1*
X33853Y29918D1*
Y29604D1*
X33839Y29529D1*
X33800Y29465D1*
X33740Y29418D1*
X33665Y29396D1*
X32958Y29395D1*
X32844D1*
X32769Y29408D1*
X32704Y29448D1*
X32658Y29507D1*
X32636Y29582D1*
X32634Y29641D1*
X31651D1*
X31653Y29604D1*
X31639Y29529D1*
X31600Y29465D1*
X31540Y29418D1*
X31465Y29396D1*
X31146Y29395D1*
X31148Y28732D1*
Y23511D1*
X31444Y23513D1*
X31518Y23499D1*
X31583Y23460D1*
X31630Y23400D1*
X31652Y23325D1*
X31653Y23267D1*
X32637D1*
X32634Y23304D1*
X32648Y23378D1*
X32688Y23443D1*
X32747Y23490D1*
X32822Y23512D1*
X33530Y23513D1*
X33624D1*
X33566Y23569D1*
X33501Y23645D1*
X33144D1*
X33069Y23658D1*
X33004Y23698D1*
X32958Y23757D1*
X32936Y23832D1*
X32934Y24554D1*
X32948Y24628D1*
X32988Y24693D1*
X33047Y24740D1*
X33122Y24762D1*
X33830Y24763D1*
X34646D1*
X34698Y24756D1*
X34706Y24807D1*
Y25152D1*
X34644Y25145D1*
X33144D1*
X33069Y25158D1*
X33004Y25198D1*
X32958Y25257D1*
X32936Y25332D1*
X32934Y25828D1*
X32785Y25972D1*
X32711Y25991D1*
X32641Y26020D1*
X32575Y26057D1*
X32514Y26104D1*
X32461Y26158D1*
X32415Y26219D1*
X32377Y26285D1*
X32349Y26356D1*
X32331Y26430D1*
X32323Y26506D1*
X32325Y26582D1*
X32338Y26657D1*
X32360Y26730D1*
X32392Y26799D1*
X32433Y26863D1*
X32482Y26921D1*
X32539Y26972D1*
X32602Y27015D1*
X32670Y27049D1*
X32742Y27073D1*
X32817Y27088D1*
X32893Y27093D1*
X32969Y27087D1*
X33043Y27071D1*
X33115Y27045D1*
X33182Y27010D1*
X33244Y26966D1*
X33300Y26914D1*
X33348Y26855D1*
X33388Y26790D1*
X33419Y26720D1*
X33443Y26626D1*
X33806Y26264D1*
X34646Y26263D1*
X34706Y26255D1*
Y27928D1*
X34712Y28004D1*
X34731Y28077D1*
X34751Y28127D1*
X34631Y28119D1*
X33144D1*
X33069Y28131D1*
X33002Y28167D1*
X32950Y28222D1*
X32918Y28291D1*
X32909Y28354D1*
Y29054D1*
X32921Y29129D1*
X32957Y29196D1*
X33012Y29248D1*
X33081Y29280D1*
X33144Y29289D1*
X34644D1*
X34719Y29276D1*
X34786Y29241D1*
X34838Y29186D1*
X34870Y29117D1*
X34878Y29054D1*
Y28339D1*
X34895Y28309D1*
X35517Y28933D1*
Y29038D1*
X33636Y30921D1*
X31501Y33056D1*
X31451Y33114D1*
X31412Y33180D1*
X31384Y33251D1*
X31369Y33325D1*
X31365Y33384D1*
X31364Y34568D1*
X31151Y34781D1*
X31080Y34883D1*
X31002Y35007D1*
X30971Y35095D1*
X30947Y35316D1*
X30957Y35409D1*
X31030Y35619D1*
X31080Y35697D1*
X31237Y35855D1*
X31316Y35904D1*
X31526Y35978D1*
X31619Y35988D1*
X31840Y35963D1*
X31928Y35933D1*
X32115Y35815D1*
X32207Y35731D1*
X32506Y35432D1*
X32576Y35330D1*
X32654Y35206D1*
X32685Y35118D1*
X32710Y34897D1*
X32699Y34805D1*
X32626Y34595D1*
X32576Y34516D1*
X32419Y34359D1*
X32340Y34309D1*
X32293Y34292D1*
X32291Y33576D1*
X35970Y29898D1*
X36086Y29930D1*
X36161Y29942D1*
X36237Y29944D1*
X36313Y29939D1*
X36388Y29926D1*
X36461Y29905D1*
X36532Y29876D1*
X36599Y29839D1*
X36661Y29796D1*
X36719Y29746D1*
X36771Y29690D1*
X36816Y29630D1*
X36855Y29564D1*
X36887Y29495D1*
X36911Y29422D1*
X36927Y29348D1*
X36936Y29228D1*
X36934Y28735D1*
X36932Y28659D1*
X36920Y28584D1*
X36900Y28511D1*
X36872Y28440D1*
X36836Y28372D1*
X36794Y28309D1*
X36745Y28251D1*
X36690Y28198D1*
X36630Y28151D1*
X36565Y28112D1*
X36496Y28079D1*
X36424Y28054D1*
X36350Y28037D1*
X36274Y28028D1*
X36198Y28027D1*
X36122Y28034D1*
X36048Y28049D1*
X35968Y28075D1*
X35854Y27957D1*
X35633Y27737D1*
Y24620D1*
X35677Y24683D1*
X35750Y24760D1*
X35834Y24826D1*
X35927Y24878D1*
X36027Y24916D1*
X36131Y24938D1*
X36237Y24944D1*
X36343Y24935D1*
X36447Y24910D1*
X36545Y24869D1*
X36637Y24814D1*
X36719Y24746D1*
X36790Y24667D1*
X36848Y24577D1*
X36892Y24481D1*
X36922Y24378D1*
X36935Y24272D1*
X36936Y23735D1*
X36928Y23629D1*
X36904Y23525D1*
X36865Y23426D1*
X36812Y23334D1*
X36745Y23251D1*
X36666Y23179D1*
X36578Y23119D1*
X36482Y23073D1*
X36380Y23043D1*
X36274Y23028D1*
X36168D1*
X36062Y23045D1*
X35961Y23078D1*
X35865Y23125D1*
X35778Y23186D1*
X35701Y23260D1*
X35635Y23344D1*
X35633Y23280D1*
Y21572D1*
X35876Y21490D1*
X35954Y21440D1*
X36112Y21283D1*
X36161Y21204D1*
X36235Y20994D1*
X36245Y20901D1*
X36220Y20680D1*
X36190Y20592D1*
X36072Y20405D1*
X35988Y20313D1*
X35689Y20014D1*
X35587Y19944D1*
X35463Y19866D1*
X35375Y19835D1*
X35152Y19810D1*
X35099Y19772D1*
X34822Y19495D1*
X34764Y19446D1*
X34698Y19406D1*
X34627Y19379D1*
X34553Y19363D1*
X34494Y19359D1*
X33649D1*
X33568Y19320D1*
X33495Y19298D1*
X33419Y19287D1*
X33343Y19285D1*
X33268Y19294D1*
X33196Y19312D1*
X31904Y18021D1*
X32037Y18038D1*
X32098Y18036D1*
X32202Y18002D1*
X32368Y17942D1*
X32417Y17906D1*
X32596Y17724D1*
X32625Y17671D1*
X32707Y17429D1*
X32710Y17368D1*
X32679Y17115D1*
X32655Y17059D1*
X32518Y16844D1*
X32142Y16468D1*
X32039Y16400D1*
X31901Y16316D1*
X31842Y16300D1*
X31588Y16274D1*
X31529Y16284D1*
X31288Y16371D1*
X31239Y16407D1*
X31060Y16589D1*
X31031Y16642D1*
X30949Y16884D1*
X30946Y16945D1*
X30971Y17162D1*
X30888Y17143D1*
X30830Y17139D1*
X30027D1*
X30052Y17063D1*
X30068Y16989D1*
X30077Y16876D1*
X30073Y16800D1*
X30061Y16725D1*
X30041Y16651D1*
X30013Y16580D1*
X29977Y16513D1*
X29935Y16450D1*
X29886Y16391D1*
X29831Y16339D1*
X29771Y16292D1*
X29706Y16252D1*
X29637Y16220D1*
X29565Y16195D1*
X29491Y16177D1*
X29365Y16168D1*
X28868Y16167D1*
X28839D1*
X28763Y16174D1*
X28689Y16190D1*
X28616Y16213D1*
X28546Y16244D1*
X28480Y16282D1*
X28419Y16327D1*
X28363Y16378D1*
X28312Y16435D1*
X28268Y16497D1*
X28231Y16564D1*
X28201Y16634D1*
X28179Y16707D1*
X28165Y16782D1*
X28159Y16857D1*
X28161Y16934D1*
X28171Y17009D1*
X28207Y17130D1*
X28178Y17139D1*
X28102Y17146D1*
X28029Y17164D1*
X27959Y17195D1*
X27895Y17236D1*
X27839Y17287D1*
X27791Y17349D1*
X27815Y17315D1*
X27721Y17352D1*
X24894D1*
X24966Y17257D1*
X25016Y17164D1*
X25052Y17063D1*
X25072Y16959D1*
X25077Y16861D1*
X25067Y16755D1*
X25041Y16651D1*
X24999Y16553D1*
X24944Y16462D1*
X24875Y16380D1*
X24795Y16310D1*
X24706Y16252D1*
X24608Y16209D1*
X24506Y16180D1*
X24400Y16167D1*
X23869D1*
X23763Y16174D1*
X23659Y16198D1*
X23560Y16237D1*
X23468Y16290D1*
X23384Y16357D1*
X23312Y16435D1*
X23252Y16523D1*
X23206Y16620D1*
X23176Y16722D1*
X23160Y16827D1*
X23161Y16934D1*
X23177Y17039D1*
X23210Y17140D1*
X23257Y17236D1*
X23318Y17324D1*
X23343Y17353D1*
X22575Y17350D1*
X22563Y17316D1*
X22600Y17256D1*
X22631Y17168D1*
X22656Y16947D1*
X22645Y16855D1*
X22572Y16645D1*
X22522Y16566D1*
X22365Y16408D1*
X22286Y16359D1*
X22076Y16285D1*
X21983Y16275D1*
X21762Y16300D1*
X21674Y16330D1*
X21487Y16448D1*
X21395Y16532D1*
X21096Y16831D1*
X21026Y16933D1*
X20948Y17057D1*
X20917Y17145D1*
X20892Y17366D1*
X20903Y17458D1*
X20977Y17670D1*
X20999Y17713D1*
X20981Y17757D1*
X20753Y17985D1*
X20704Y18043D1*
X20665Y18108D1*
X20637Y18179D1*
X20621Y18253D1*
X20617Y18312D1*
Y18972D1*
X20268Y19319D1*
X19122Y20465D1*
X19115Y20407D1*
X19031Y20166D1*
X18999Y20114D1*
X18818Y19933D1*
X18767Y19901D1*
X18526Y19816D1*
X18465Y19809D1*
X18212Y19838D1*
X18154Y19857D1*
X17938Y19993D1*
X17849Y20078D1*
X17540Y20390D1*
X17405Y20605D1*
X17384Y20663D1*
X17356Y20917D1*
X17362Y20977D1*
X17446Y21218D1*
X17478Y21270D1*
X17659Y21450D1*
X17710Y21483D1*
X17951Y21568D1*
X18012Y21575D1*
X17788Y21797D1*
X17718Y21826D1*
X17652Y21864D1*
X17591Y21910D1*
X17538Y21964D1*
X17492Y22025D1*
X17455Y22092D1*
X17427Y22162D1*
X17409Y22236D1*
X17400Y22312D1*
X17403Y22388D1*
X17415Y22463D1*
X17437Y22536D1*
X17456Y22577D1*
X17457Y23186D1*
X17347Y23112D1*
X17278Y23079D1*
X17206Y23054D1*
X17132Y23037D1*
X17056Y23028D1*
X16980Y23027D1*
X16904Y23034D1*
X16830Y23049D1*
X16757Y23072D1*
X16687Y23103D1*
X16621Y23141D1*
X16560Y23186D1*
X16504Y23237D1*
X16453Y23294D1*
X16409Y23357D1*
X16372Y23423D1*
X16342Y23493D1*
X16320Y23566D1*
X16306Y23641D1*
X16299Y23735D1*
X16302Y24235D1*
Y24293D1*
X16312Y24368D1*
X16330Y24442D1*
X16356Y24514D1*
X16390Y24582D1*
X16431Y24647D1*
X16478Y24706D1*
X16532Y24760D1*
X16591Y24808D1*
X16655Y24850D1*
X16723Y24884D1*
X16794Y24911D1*
X16868Y24930D1*
X16943Y24942D1*
X17019Y24944D1*
X17095Y24939D1*
X17170Y24926D1*
X17263Y24897D1*
X17457Y25089D1*
Y28185D1*
X17373Y28127D1*
X17278Y28079D1*
X17176Y28046D1*
X17071Y28029D1*
X16965Y28027D1*
X16859Y28042D1*
X16757Y28072D1*
X16660Y28117D1*
X16572Y28177D1*
X16493Y28248D1*
X16426Y28331D1*
X16372Y28423D1*
X16332Y28522D1*
X16308Y28626D1*
X16299Y28732D1*
X16302Y29293D1*
X16318Y29398D1*
X16351Y29500D1*
X16398Y29595D1*
X16459Y29683D1*
X16532Y29760D1*
X16616Y29826D1*
X16709Y29878D1*
X16809Y29916D1*
X16913Y29938D1*
X17019Y29944D1*
X17125Y29935D1*
X17229Y29910D1*
X17327Y29869D1*
X17419Y29814D1*
X17457Y29785D1*
Y29896D1*
X17463Y29972D1*
X17481Y30046D1*
X17512Y30116D1*
X17553Y30180D1*
X17592Y30224D1*
X18062Y30694D1*
X18029Y30690D1*
X17937Y30700D1*
X17727Y30773D1*
X17648Y30823D1*
X17490Y30980D1*
X17441Y31059D1*
X17367Y31269D1*
X17357Y31362D1*
X17382Y31583D1*
X17413Y31671D1*
X17530Y31858D1*
X17614Y31950D1*
X17913Y32249D1*
X18015Y32319D1*
X18139Y32397D1*
X18227Y32428D1*
X18448Y32453D1*
X18540Y32442D1*
X18750Y32369D1*
X18829Y32319D1*
X18987Y32162D1*
X19036Y32083D1*
X19053Y32036D1*
X19403Y32034D1*
X21599Y34230D1*
X21534Y34224D1*
X21474Y34235D1*
X21234Y34321D1*
X21185Y34357D1*
X21006Y34539D1*
X20977Y34592D1*
X20895Y34834D1*
X20892Y34895D1*
X20923Y35148D1*
X20947Y35204D1*
X21084Y35419D1*
X21460Y35795D1*
X21563Y35863D1*
X21701Y35947D1*
X21760Y35963D1*
X22014Y35989D1*
X22074Y35979D1*
X22314Y35892D1*
X22363Y35857D1*
X22542Y35674D1*
X22571Y35621D1*
X22653Y35379D1*
X22656Y35318D1*
X22652Y35283D1*
X23208Y35837D1*
X23179Y35925D1*
X23165Y36000D1*
X23159Y36076D1*
X23161Y36152D1*
X23171Y36227D1*
X23189Y36301D1*
X23215Y36373D1*
X23249Y36441D1*
X23290Y36506D1*
X23337Y36565D1*
X23391Y36619D1*
X23450Y36667D1*
X23514Y36709D1*
X23582Y36743D1*
X23653Y36770D1*
X23727Y36789D1*
X23802Y36801D1*
X24020Y36804D1*
X24368Y36801D1*
X24454Y36798D1*
X24529Y36785D1*
X24602Y36764D1*
X24673Y36735D1*
X24740Y36698D1*
X24802Y36655D1*
X24860Y36605D1*
X24912Y36549D1*
X24957Y36489D1*
X24993Y36429D1*
X24990Y36560D1*
X24318Y37235D1*
X23870Y37236D1*
X23763Y37243D1*
X23689Y37258D1*
X23616Y37281D1*
X23546Y37312D1*
X23480Y37350D1*
X23419Y37395D1*
X23363Y37446D1*
X23312Y37503D1*
X23268Y37566D1*
X23231Y37632D1*
X23201Y37702D1*
X23179Y37775D1*
X23165Y37850D1*
X23159Y37926D1*
X23161Y38002D1*
X23171Y38077D1*
X23189Y38151D1*
X23215Y38223D1*
X23249Y38291D1*
X23290Y38356D1*
X23337Y38415D1*
X23391Y38469D1*
X23450Y38517D1*
X23514Y38559D1*
X23582Y38593D1*
X23653Y38620D1*
X23727Y38639D1*
X23802Y38651D1*
X24020Y38654D1*
X24368Y38651D1*
X24454Y38648D1*
X24529Y38635D1*
X24602Y38614D1*
X24673Y38585D1*
X24740Y38548D1*
X24802Y38505D1*
X24860Y38455D1*
X24912Y38399D1*
X24957Y38339D1*
X24996Y38273D1*
X25028Y38204D1*
X25052Y38131D1*
X25068Y38057D1*
X25077Y37944D1*
X25073Y37868D1*
X25061Y37793D1*
X25041Y37720D1*
X24983Y37592D1*
X25610Y36964D1*
X25657Y36905D1*
X25692Y36837D1*
X25709Y36777D1*
X25716Y36632D1*
Y35444D1*
X25735Y35429D1*
X25737Y35851D1*
X25735Y37666D1*
X24318Y39085D1*
X23870Y39086D1*
X23763Y39093D1*
X23689Y39108D1*
X23616Y39131D1*
X23546Y39162D1*
X23480Y39200D1*
X23419Y39245D1*
X23363Y39296D1*
X23312Y39353D1*
X23268Y39416D1*
X23231Y39482D1*
X23201Y39552D1*
X23179Y39625D1*
X23165Y39700D1*
X23159Y39776D1*
X23161Y39852D1*
X23171Y39927D1*
X23189Y40001D1*
X23215Y40073D1*
X23249Y40141D1*
X23290Y40206D1*
X23337Y40265D1*
X23391Y40319D1*
X23450Y40367D1*
X23514Y40409D1*
X23582Y40443D1*
X23653Y40470D1*
X23727Y40489D1*
X23802Y40501D1*
X24020Y40504D1*
X24368Y40501D1*
X24454Y40498D1*
X24529Y40485D1*
X24602Y40464D1*
X24673Y40435D1*
X24740Y40398D1*
X24802Y40355D1*
X24860Y40305D1*
X24912Y40249D1*
X24957Y40189D1*
X24996Y40123D1*
X25028Y40054D1*
X25052Y39981D1*
X25068Y39907D1*
X25077Y39794D1*
X25073Y39718D1*
X25061Y39643D1*
X25041Y39570D1*
X24983Y39442D1*
X26354Y38069D1*
X26402Y38010D1*
X26437Y37942D1*
X26454Y37883D1*
X26460Y37737D1*
X26458Y35143D1*
X26550Y35140D1*
X26624Y35120D1*
X26691Y35085D1*
X26740Y35049D1*
X26762Y35070D1*
X26827Y35110D1*
X26899Y35135D1*
X26974Y35145D1*
X27050Y35140D1*
X27124Y35120D1*
X27191Y35085D1*
X27240Y35049D1*
X27262Y35070D1*
X27327Y35110D1*
X27399Y35135D1*
X27474Y35145D1*
X27550Y35140D1*
X27624Y35120D1*
X27691Y35085D1*
X27740Y35049D1*
X27762Y35070D1*
X27827Y35110D1*
X27899Y35135D1*
X27974Y35145D1*
X28050Y35140D1*
X28124Y35120D1*
X28191Y35085D1*
X28251Y35038D1*
X28299Y34979D1*
X28335Y34912D1*
X28356Y34839D1*
X28362Y34771D1*
X28360Y34051D1*
X28356Y33977D1*
X28428Y33986D1*
X29148Y33983D1*
X29210Y33980D1*
X29284Y33960D1*
X29351Y33925D1*
X29411Y33878D1*
X29459Y33819D1*
X29495Y33752D1*
X29516Y33679D1*
X29522Y33611D1*
X29515Y33535D1*
X29492Y33463D1*
X29455Y33396D1*
X29424Y33361D1*
X29459Y33319D1*
X29495Y33252D1*
X29516Y33179D1*
X29522Y33111D1*
X29515Y33035D1*
X29492Y32963D1*
X29455Y32896D1*
X29424Y32861D1*
X29459Y32819D1*
X29495Y32752D1*
X29516Y32679D1*
X29522Y32611D1*
X29515Y32535D1*
X29492Y32463D1*
X29455Y32396D1*
X29424Y32361D1*
X29459Y32319D1*
X29495Y32252D1*
X29516Y32179D1*
X29522Y32111D1*
X29515Y32035D1*
X29492Y31963D1*
X29455Y31896D1*
X29424Y31861D1*
X29459Y31819D1*
X29495Y31752D1*
X29516Y31679D1*
X29522Y31611D1*
X29515Y31535D1*
X29492Y31463D1*
X29455Y31396D1*
X29424Y31361D1*
X29459Y31319D1*
X29495Y31252D1*
X29516Y31179D1*
X29522Y31111D1*
X29515Y31035D1*
X29492Y30963D1*
X29455Y30896D1*
X29405Y30839D1*
X29345Y30792D1*
X29276Y30759D1*
X29203Y30740D1*
X29148Y30736D1*
X28407Y30737D1*
X28353Y30745D1*
X28428Y30739D1*
X26546Y21786D2*
X27849D1*
Y20967D1*
X26531D1*
Y21786D1*
X26546D1*
X27357Y20486D2*
X27849D1*
Y19667D1*
X26531D1*
Y19960D1*
X26342Y19959D1*
X26341Y19788D1*
X23922D1*
Y21056D1*
X26341D1*
Y20887D1*
X26655Y20885D1*
X26845D1*
X26920Y20879D1*
X26994Y20860D1*
X27064Y20830D1*
X27128Y20789D1*
X27184Y20737D1*
X27231Y20677D1*
X27268Y20611D1*
X27286Y20559D1*
X27361Y20484D1*
X21308Y29211D2*
X21367Y29213D1*
X21481Y29197D1*
X21580Y29166D1*
X21673Y29117D1*
X21756Y29053D1*
X21827Y28976D1*
X21883Y28887D1*
X21923Y28790D1*
X21945Y28688D1*
X21950Y28583D1*
X21936Y28479D1*
X21904Y28379D1*
X21856Y28286D1*
X21792Y28203D1*
X21714Y28132D1*
X21626Y28076D1*
X21529Y28036D1*
X21426Y28013D1*
X21321Y28009D1*
X21217Y28023D1*
X21117Y28055D1*
X21076Y28074D1*
X20974Y28003D1*
X20905Y27972D1*
X20832Y27950D1*
X20756Y27938D1*
X20680Y27937D1*
X20605Y27946D1*
X20531Y27965D1*
X20460Y27993D1*
X20394Y28031D1*
X20334Y28077D1*
X20280Y28132D1*
X20234Y28192D1*
X20197Y28259D1*
X20169Y28330D1*
X20151Y28403D1*
X20143Y28479D1*
X20145Y28555D1*
X20157Y28630D1*
X20180Y28703D1*
X20212Y28772D1*
X20253Y28836D1*
X20302Y28895D1*
X20358Y28946D1*
X20421Y28988D1*
X20489Y29022D1*
X20561Y29047D1*
X20636Y29062D1*
X20712Y29066D1*
X20788Y29060D1*
X20863Y29044D1*
X20914Y29026D1*
X20984Y29089D1*
X21072Y29145D1*
X21169Y29185D1*
X21271Y29207D1*
X21308Y29211D1*
X22547Y27938D2*
X22646Y27941D1*
X22735Y27932D1*
X22836Y27902D1*
X22931Y27856D1*
X23015Y27794D1*
X23088Y27718D1*
X23147Y27631D1*
X23189Y27535D1*
X23214Y27433D1*
X23221Y27328D1*
X23210Y27224D1*
X23181Y27123D1*
X23134Y27028D1*
X23072Y26944D1*
X22997Y26871D1*
X22909Y26812D1*
X22813Y26770D1*
X22711Y26745D1*
X22606Y26738D1*
X22502Y26749D1*
X22401Y26778D1*
X22307Y26824D1*
X22222Y26887D1*
X22149Y26962D1*
X22091Y27050D1*
X22048Y27146D1*
X22023Y27248D1*
X22016Y27353D1*
X22027Y27457D1*
X22057Y27558D1*
X22103Y27652D1*
X22165Y27737D1*
X22241Y27810D1*
X22328Y27868D1*
X22424Y27911D1*
X22526Y27936D1*
X22547Y27938D1*
X28889Y35385D2*
X28793Y35389D1*
X28689Y35408D1*
X28588Y35443D1*
X28493Y35492D1*
X28407Y35555D1*
X28332Y35630D1*
X28268Y35716D1*
X28218Y35810D1*
X28183Y35910D1*
X28163Y36015D1*
X28159Y36121D1*
X28171Y36227D1*
X28199Y36330D1*
X28242Y36428D1*
X28299Y36518D1*
X28369Y36598D1*
X28450Y36667D1*
X28540Y36724D1*
X28638Y36765D1*
X28742Y36792D1*
X28848Y36803D1*
X29409Y36802D1*
X29514Y36788D1*
X29617Y36759D1*
X29713Y36714D1*
X29802Y36655D1*
X29881Y36584D1*
X29949Y36501D1*
X30003Y36409D1*
X30043Y36311D1*
X30068Y36207D1*
X30077Y36101D1*
X30071Y36003D1*
X30050Y35899D1*
X30013Y35799D1*
X29961Y35705D1*
X29896Y35621D1*
X29819Y35547D1*
X29732Y35486D1*
X29637Y35438D1*
X29535Y35405D1*
X29430Y35388D1*
X29307Y35385D1*
X28868D1*
X26708Y23268D2*
X28211D1*
Y21849D1*
X26693D1*
Y23268D1*
X26708D1*
X35251Y30753D2*
X35051Y30882D1*
X34675Y31258D1*
X34607Y31360D1*
X34523Y31498D1*
X34507Y31557D1*
X34481Y31811D1*
X34492Y31871D1*
X34578Y32111D1*
X34614Y32160D1*
X34796Y32339D1*
X34849Y32368D1*
X35091Y32450D1*
X35152Y32453D1*
X35405Y32422D1*
X35461Y32398D1*
X35676Y32261D1*
X36052Y31885D1*
X36087Y31833D1*
X36204Y31644D1*
X36220Y31585D1*
X36246Y31331D1*
X36236Y31272D1*
X36149Y31031D1*
X36114Y30982D1*
X35931Y30803D1*
X35878Y30774D1*
X35636Y30692D1*
X35575Y30689D1*
X35322Y30720D1*
X35266Y30744D1*
X35251Y30753D1*
X37518Y32505D2*
X37468Y32365D1*
X37484Y32341D1*
X38187Y31638D1*
X38237Y31580D1*
X38276Y31515D1*
X38303Y31444D1*
X38319Y31370D1*
X38323Y31311D1*
Y29899D1*
X38382Y29876D1*
X38449Y29839D1*
X38511Y29796D1*
X38569Y29746D1*
X38621Y29690D1*
X38666Y29630D1*
X38705Y29564D1*
X38737Y29495D1*
X38761Y29422D1*
X38777Y29348D1*
X38786Y29228D1*
X38784Y28735D1*
X38782Y28659D1*
X38770Y28584D1*
X38750Y28511D1*
X38722Y28440D1*
X38686Y28372D1*
X38644Y28309D1*
X38595Y28251D1*
X38540Y28198D1*
X38480Y28151D1*
X38415Y28112D1*
X38346Y28079D1*
X38274Y28054D1*
X38200Y28037D1*
X38124Y28028D1*
X38048Y28027D1*
X37972Y28034D1*
X37898Y28049D1*
X37825Y28072D1*
X37755Y28103D1*
X37689Y28141D1*
X37628Y28186D1*
X37572Y28237D1*
X37521Y28294D1*
X37477Y28357D1*
X37440Y28423D1*
X37410Y28493D1*
X37388Y28566D1*
X37374Y28641D1*
X37367Y28735D1*
X37370Y29235D1*
Y29293D1*
X37380Y29368D1*
X37397Y29435D1*
X37396Y31119D1*
X36344Y32171D1*
X36310Y32209D1*
X36239Y32309D1*
X35994Y32554D1*
X35924Y32656D1*
X35846Y32780D1*
X35815Y32867D1*
X35790Y33089D1*
X35801Y33181D1*
X35874Y33391D1*
X35924Y33470D1*
X36081Y33627D1*
X36160Y33677D1*
X36370Y33750D1*
X36462Y33761D1*
X36684Y33736D1*
X36772Y33705D1*
X36959Y33587D1*
X37050Y33504D1*
X37349Y33205D1*
X37420Y33103D1*
X37498Y32979D1*
X37529Y32891D1*
X37553Y32670D1*
X37543Y32577D1*
X37518Y32505D1*
X37816Y33402D2*
X37693Y33479D1*
X37601Y33563D1*
X37302Y33862D1*
X37232Y33964D1*
X37154Y34088D1*
X37123Y34176D1*
X37098Y34397D1*
X37109Y34489D1*
X37182Y34699D1*
X37232Y34778D1*
X37389Y34936D1*
X37468Y34985D1*
X37678Y35059D1*
X37771Y35069D1*
X37992Y35044D1*
X38080Y35013D1*
X38267Y34895D1*
X38359Y34812D1*
X38658Y34513D1*
X38728Y34411D1*
X38806Y34287D1*
X38837Y34199D1*
X38862Y33978D1*
X38850Y33883D1*
X39547Y33184D1*
X39841Y32891D1*
X39890Y32833D1*
X39929Y32767D1*
X39957Y32696D1*
X39972Y32622D1*
X39976Y32563D1*
Y29941D1*
X40088Y29926D1*
X40161Y29905D1*
X40232Y29876D1*
X40299Y29839D1*
X40361Y29796D1*
X40419Y29746D1*
X40471Y29690D1*
X40516Y29630D1*
X40555Y29564D1*
X40587Y29495D1*
X40611Y29422D1*
X40627Y29348D1*
X40636Y29228D1*
X40634Y28735D1*
X40632Y28659D1*
X40620Y28584D1*
X40600Y28511D1*
X40572Y28440D1*
X40536Y28372D1*
X40494Y28309D1*
X40445Y28251D1*
X40390Y28198D1*
X40330Y28151D1*
X40265Y28112D1*
X40196Y28079D1*
X40124Y28054D1*
X40050Y28037D1*
X39974Y28028D1*
X39898Y28027D1*
X39822Y28034D1*
X39748Y28049D1*
X39675Y28072D1*
X39605Y28103D1*
X39539Y28141D1*
X39478Y28186D1*
X39422Y28237D1*
X39371Y28294D1*
X39327Y28357D1*
X39290Y28423D1*
X39260Y28493D1*
X39238Y28566D1*
X39224Y28641D1*
X39217Y28735D1*
Y29038D1*
X39136Y29130D1*
X39097Y29195D1*
X39069Y29266D1*
X39053Y29340D1*
X39050Y29399D1*
Y32373D1*
X38431Y32990D1*
X38106Y33315D1*
X37968Y33331D1*
X37880Y33361D1*
X37816Y33402D1*
X37368Y24214D2*
X37370Y24293D1*
X37380Y24368D1*
X37398Y24442D1*
X37424Y24514D1*
X37458Y24582D1*
X37499Y24647D1*
X37546Y24706D1*
X37600Y24760D1*
X37659Y24808D1*
X37723Y24850D1*
X37791Y24884D1*
X37862Y24911D1*
X37936Y24930D1*
X38011Y24942D1*
X38087Y24944D1*
X38163Y24939D1*
X38238Y24926D1*
X38311Y24905D1*
X38382Y24876D1*
X38449Y24839D1*
X38511Y24796D1*
X38569Y24746D1*
X38621Y24690D1*
X38666Y24630D1*
X38705Y24564D1*
X38737Y24495D1*
X38761Y24422D1*
X38777Y24348D1*
X38786Y24228D1*
X38784Y23735D1*
X38782Y23659D1*
X38770Y23584D1*
X38750Y23511D1*
X38722Y23440D1*
X38686Y23372D1*
X38644Y23309D1*
X38595Y23251D1*
X38538Y23197D1*
X38540Y22690D1*
Y20789D1*
X38534Y20713D1*
X38515Y20639D1*
X38485Y20569D1*
X38443Y20505D1*
X38404Y20461D1*
X37554Y19609D1*
X37529Y19372D1*
X37498Y19284D1*
X37380Y19096D1*
X37296Y19005D1*
X36997Y18706D1*
X36895Y18636D1*
X36772Y18558D1*
X36684Y18527D1*
X36462Y18502D1*
X36370Y18513D1*
X36160Y18586D1*
X36081Y18636D1*
X35924Y18793D1*
X35874Y18872D1*
X35801Y19082D1*
X35790Y19174D1*
X35815Y19396D1*
X35846Y19484D1*
X35964Y19671D1*
X36047Y19762D1*
X36346Y20061D1*
X36448Y20132D1*
X36572Y20210D1*
X36660Y20241D1*
X36884Y20265D1*
X36937Y20304D1*
X37615Y20983D1*
X37613Y21398D1*
Y23201D1*
X37572Y23237D1*
X37521Y23294D1*
X37477Y23357D1*
X37440Y23423D1*
X37410Y23493D1*
X37388Y23566D1*
X37374Y23641D1*
X37367Y23735D1*
X37370Y24235D1*
X39218Y24214D2*
X39220Y24293D1*
X39230Y24368D1*
X39248Y24442D1*
X39274Y24514D1*
X39308Y24582D1*
X39349Y24647D1*
X39396Y24706D1*
X39450Y24760D1*
X39509Y24808D1*
X39573Y24850D1*
X39641Y24884D1*
X39712Y24911D1*
X39786Y24930D1*
X39861Y24942D1*
X39937Y24944D1*
X40013Y24939D1*
X40088Y24926D1*
X40161Y24905D1*
X40232Y24876D1*
X40299Y24839D1*
X40361Y24796D1*
X40419Y24746D1*
X40471Y24690D1*
X40516Y24630D1*
X40555Y24564D1*
X40587Y24495D1*
X40611Y24422D1*
X40627Y24348D1*
X40636Y24228D1*
X40634Y23735D1*
X40632Y23659D1*
X40620Y23584D1*
X40600Y23511D1*
X40572Y23440D1*
X40536Y23372D1*
X40494Y23309D1*
X40445Y23251D1*
X40388Y23197D1*
X40390Y22690D1*
Y20023D1*
X40384Y19947D1*
X40365Y19873D1*
X40335Y19803D1*
X40293Y19739D1*
X40254Y19695D1*
X38862Y18300D1*
X38837Y18064D1*
X38806Y17976D1*
X38688Y17788D1*
X38604Y17697D1*
X38305Y17398D1*
X38204Y17328D1*
X38080Y17250D1*
X37992Y17219D1*
X37771Y17194D1*
X37678Y17204D1*
X37468Y17278D1*
X37389Y17328D1*
X37232Y17485D1*
X37182Y17564D1*
X37109Y17774D1*
X37098Y17866D1*
X37123Y18087D1*
X37154Y18175D1*
X37272Y18363D1*
X37356Y18454D1*
X37655Y18753D1*
X37756Y18824D1*
X37880Y18902D1*
X37968Y18932D1*
X38192Y18957D1*
X38245Y18996D1*
X39462Y20213D1*
X39463Y23071D1*
Y23197D1*
X39371Y23294D1*
X39327Y23357D1*
X39290Y23423D1*
X39260Y23493D1*
X39238Y23566D1*
X39224Y23641D1*
X39217Y23735D1*
X39220Y24235D1*
X32351Y16013D2*
X32428Y16136D1*
X32512Y16227D1*
X32811Y16526D1*
X32913Y16596D1*
X33037Y16674D1*
X33124Y16705D1*
X33346Y16730D1*
X33438Y16719D1*
X33648Y16646D1*
X33727Y16596D1*
X33884Y16439D1*
X33934Y16360D1*
X34007Y16150D1*
X34018Y16058D1*
X33993Y15836D1*
X33962Y15749D1*
X33844Y15561D1*
X33761Y15470D1*
X33462Y15171D1*
X33360Y15100D1*
X33236Y15022D1*
X33148Y14992D1*
X32925Y14967D1*
X32871Y14928D1*
X32642Y14698D1*
X32584Y14649D1*
X32518Y14610D1*
X32447Y14582D1*
X32373Y14566D1*
X32314Y14563D1*
X29907D1*
X29831Y14489D1*
X29771Y14442D1*
X29706Y14402D1*
X29637Y14370D1*
X29565Y14345D1*
X29491Y14327D1*
X29365Y14318D1*
X28868Y14317D1*
X28839D1*
X28763Y14324D1*
X28689Y14340D1*
X28616Y14363D1*
X28546Y14394D1*
X28480Y14432D1*
X28419Y14477D1*
X28363Y14528D1*
X28312Y14585D1*
X28268Y14647D1*
X28231Y14714D1*
X28201Y14784D1*
X28179Y14857D1*
X28165Y14932D1*
X28159Y15007D1*
X28161Y15084D1*
X28171Y15159D1*
X28189Y15233D1*
X28215Y15305D1*
X28249Y15373D1*
X28290Y15437D1*
X28337Y15497D1*
X28391Y15551D1*
X28450Y15599D1*
X28514Y15641D1*
X28582Y15675D1*
X28653Y15702D1*
X28727Y15721D1*
X28802Y15732D1*
X29020Y15735D1*
X29368Y15733D1*
X29454Y15730D1*
X29529Y15717D1*
X29602Y15695D1*
X29673Y15666D1*
X29740Y15630D1*
X29802Y15587D1*
X29904Y15490D1*
X32121Y15489D1*
X32254Y15624D1*
X32280Y15860D1*
X32310Y15948D1*
X32351Y16013D1*
X33659Y14704D2*
X33736Y14827D1*
X33820Y14919D1*
X34119Y15218D1*
X34221Y15288D1*
X34345Y15366D1*
X34433Y15397D1*
X34654Y15422D1*
X34746Y15411D1*
X34956Y15338D1*
X35035Y15288D1*
X35193Y15131D1*
X35242Y15052D1*
X35316Y14842D1*
X35326Y14749D1*
X35301Y14528D1*
X35270Y14440D1*
X35152Y14253D1*
X35069Y14161D1*
X34770Y13863D1*
X34668Y13792D1*
X34544Y13714D1*
X34456Y13683D1*
X34233Y13659D1*
X34179Y13620D1*
X33408Y12848D1*
X33350Y12799D1*
X33284Y12760D1*
X33214Y12732D1*
X33139Y12716D1*
X33080Y12713D1*
X29906D1*
X29831Y12639D1*
X29771Y12592D1*
X29706Y12552D1*
X29637Y12520D1*
X29565Y12495D1*
X29491Y12477D1*
X29365Y12468D1*
X28868Y12467D1*
X28839D1*
X28763Y12474D1*
X28689Y12490D1*
X28616Y12513D1*
X28546Y12544D1*
X28480Y12582D1*
X28419Y12627D1*
X28363Y12678D1*
X28312Y12735D1*
X28268Y12797D1*
X28231Y12864D1*
X28201Y12934D1*
X28179Y13007D1*
X28165Y13082D1*
X28159Y13157D1*
X28161Y13234D1*
X28171Y13309D1*
X28189Y13383D1*
X28215Y13455D1*
X28249Y13523D1*
X28290Y13587D1*
X28337Y13647D1*
X28391Y13701D1*
X28450Y13749D1*
X28514Y13791D1*
X28582Y13825D1*
X28653Y13852D1*
X28727Y13871D1*
X28802Y13882D1*
X29020Y13885D1*
X29368Y13883D1*
X29454Y13880D1*
X29529Y13867D1*
X29602Y13845D1*
X29673Y13816D1*
X29740Y13780D1*
X29802Y13737D1*
X29904Y13640D1*
X32887Y13639D1*
X33562Y14315D1*
X33588Y14552D1*
X33618Y14640D1*
X33659Y14704D1*
X23870Y14318D2*
X23763Y14324D1*
X23689Y14340D1*
X23616Y14363D1*
X23546Y14394D1*
X23480Y14432D1*
X23419Y14477D1*
X23333Y14562D1*
X21288Y14563D1*
X21212Y14569D1*
X21138Y14588D1*
X21069Y14618D1*
X21005Y14659D1*
X20961Y14698D1*
X20691Y14966D1*
X20454Y14992D1*
X20366Y15022D1*
X20179Y15140D1*
X20087Y15224D1*
X19788Y15523D1*
X19718Y15625D1*
X19640Y15749D1*
X19609Y15836D1*
X19584Y16058D1*
X19595Y16150D1*
X19668Y16360D1*
X19718Y16439D1*
X19875Y16596D1*
X19954Y16646D1*
X20164Y16719D1*
X20256Y16730D1*
X20478Y16705D1*
X20566Y16674D1*
X20753Y16556D1*
X20844Y16473D1*
X21143Y16174D1*
X21214Y16072D1*
X21292Y15948D1*
X21323Y15860D1*
X21347Y15637D1*
X21386Y15583D1*
X21479Y15491D1*
X22888Y15489D1*
X23329D1*
X23391Y15551D1*
X23450Y15599D1*
X23514Y15641D1*
X23582Y15675D1*
X23653Y15702D1*
X23727Y15721D1*
X23802Y15732D1*
X24020Y15735D1*
X24368Y15733D1*
X24454Y15730D1*
X24529Y15717D1*
X24602Y15695D1*
X24673Y15666D1*
X24740Y15630D1*
X24802Y15587D1*
X24860Y15537D1*
X24912Y15481D1*
X24957Y15420D1*
X24996Y15355D1*
X25028Y15285D1*
X25052Y15213D1*
X25068Y15139D1*
X25077Y15026D1*
X25073Y14950D1*
X25061Y14875D1*
X25041Y14801D1*
X25013Y14730D1*
X24977Y14663D1*
X24935Y14600D1*
X24886Y14541D1*
X24831Y14489D1*
X24771Y14442D1*
X24706Y14402D1*
X24637Y14370D1*
X24565Y14345D1*
X24491Y14327D1*
X24365Y14318D1*
X23868Y14317D1*
Y14319D1*
X23870Y12468D2*
X23763Y12474D1*
X23689Y12490D1*
X23616Y12513D1*
X23546Y12544D1*
X23480Y12582D1*
X23419Y12627D1*
X23333Y12712D1*
X20522Y12713D1*
X20446Y12719D1*
X20372Y12738D1*
X20302Y12768D1*
X20239Y12809D1*
X20194Y12848D1*
X19382Y13658D1*
X19146Y13683D1*
X19058Y13714D1*
X18870Y13832D1*
X18779Y13916D1*
X18480Y14215D1*
X18410Y14317D1*
X18332Y14440D1*
X18301Y14528D1*
X18276Y14749D1*
X18287Y14842D1*
X18360Y15052D1*
X18410Y15131D1*
X18567Y15288D1*
X18646Y15338D1*
X18856Y15411D1*
X18948Y15422D1*
X19169Y15397D1*
X19257Y15366D1*
X19445Y15248D1*
X19536Y15165D1*
X19835Y14866D1*
X19906Y14764D1*
X19984Y14640D1*
X20014Y14552D1*
X20039Y14328D1*
X20078Y14275D1*
X20713Y13640D1*
X23329Y13639D1*
X23391Y13701D1*
X23450Y13749D1*
X23514Y13791D1*
X23582Y13825D1*
X23653Y13852D1*
X23727Y13871D1*
X23802Y13882D1*
X24020Y13885D1*
X24368Y13883D1*
X24454Y13880D1*
X24529Y13867D1*
X24602Y13845D1*
X24673Y13816D1*
X24740Y13780D1*
X24802Y13737D1*
X24860Y13687D1*
X24912Y13631D1*
X24957Y13570D1*
X24996Y13505D1*
X25028Y13435D1*
X25052Y13363D1*
X25068Y13289D1*
X25077Y13176D1*
X25073Y13100D1*
X25061Y13025D1*
X25041Y12951D1*
X25013Y12880D1*
X24977Y12813D1*
X24935Y12750D1*
X24886Y12691D1*
X24831Y12639D1*
X24771Y12592D1*
X24706Y12552D1*
X24637Y12520D1*
X24565Y12495D1*
X24491Y12477D1*
X24365Y12468D1*
X23868Y12467D1*
Y12469D1*
X14450Y29214D2*
X14452Y29293D1*
X14462Y29368D1*
X14480Y29442D1*
X14506Y29514D1*
X14540Y29582D1*
X14581Y29647D1*
X14628Y29706D1*
X14695Y29771D1*
Y31108D1*
X14702Y31184D1*
X14720Y31257D1*
X14751Y31327D1*
X14792Y31391D1*
X14831Y31435D1*
X16048Y32655D1*
X16074Y32891D1*
X16104Y32979D1*
X16222Y33167D1*
X16306Y33258D1*
X16605Y33557D1*
X16707Y33627D1*
X16831Y33705D1*
X16918Y33736D1*
X17140Y33761D1*
X17232Y33750D1*
X17442Y33677D1*
X17521Y33627D1*
X17678Y33470D1*
X17728Y33391D1*
X17801Y33181D1*
X17812Y33089D1*
X17787Y32867D1*
X17756Y32780D1*
X17638Y32592D1*
X17555Y32501D1*
X17256Y32202D1*
X17154Y32131D1*
X17030Y32053D1*
X16942Y32023D1*
X16719Y31998D1*
X16665Y31959D1*
X15623Y30917D1*
X15622Y29772D1*
X15703Y29690D1*
X15748Y29630D1*
X15787Y29564D1*
X15819Y29495D1*
X15843Y29422D1*
X15859Y29348D1*
X15868Y29228D1*
X15866Y28735D1*
X15864Y28659D1*
X15852Y28584D1*
X15832Y28511D1*
X15804Y28440D1*
X15768Y28372D1*
X15726Y28309D1*
X15677Y28251D1*
X15622Y28198D1*
X15562Y28151D1*
X15497Y28112D1*
X15428Y28079D1*
X15356Y28054D1*
X15282Y28037D1*
X15206Y28028D1*
X15130Y28027D1*
X15054Y28034D1*
X14980Y28049D1*
X14907Y28072D1*
X14837Y28103D1*
X14771Y28141D1*
X14710Y28186D1*
X14654Y28237D1*
X14603Y28294D1*
X14559Y28357D1*
X14522Y28423D1*
X14492Y28493D1*
X14470Y28566D1*
X14456Y28641D1*
X14449Y28735D1*
X14452Y29235D1*
X12600Y29214D2*
X12602Y29293D1*
X12612Y29368D1*
X12630Y29442D1*
X12656Y29514D1*
X12690Y29582D1*
X12731Y29647D1*
X12778Y29706D1*
X12845Y29771D1*
Y31874D1*
X12852Y31950D1*
X12870Y32024D1*
X12901Y32093D1*
X12942Y32157D1*
X12981Y32202D1*
X14740Y33963D1*
X14765Y34199D1*
X14796Y34287D1*
X14914Y34475D1*
X14998Y34566D1*
X15297Y34865D1*
X15399Y34935D1*
X15522Y35013D1*
X15610Y35044D1*
X15831Y35069D1*
X15924Y35059D1*
X16134Y34985D1*
X16213Y34936D1*
X16370Y34778D1*
X16420Y34699D1*
X16493Y34489D1*
X16504Y34397D1*
X16479Y34176D1*
X16448Y34088D1*
X16330Y33900D1*
X16247Y33809D1*
X15948Y33510D1*
X15846Y33439D1*
X15722Y33361D1*
X15634Y33331D1*
X15410Y33306D1*
X15357Y33267D1*
X13773Y31683D1*
X13772Y29771D1*
X13853Y29690D1*
X13898Y29630D1*
X13937Y29564D1*
X13969Y29495D1*
X13993Y29422D1*
X14009Y29348D1*
X14018Y29228D1*
X14016Y28735D1*
X14014Y28659D1*
X14002Y28584D1*
X13982Y28511D1*
X13954Y28440D1*
X13918Y28372D1*
X13876Y28309D1*
X13827Y28251D1*
X13772Y28198D1*
X13712Y28151D1*
X13647Y28112D1*
X13578Y28079D1*
X13506Y28054D1*
X13432Y28037D1*
X13356Y28028D1*
X13280Y28027D1*
X13204Y28034D1*
X13130Y28049D1*
X13057Y28072D1*
X12987Y28103D1*
X12921Y28141D1*
X12860Y28186D1*
X12804Y28237D1*
X12753Y28294D1*
X12709Y28357D1*
X12672Y28423D1*
X12642Y28493D1*
X12620Y28566D1*
X12606Y28641D1*
X12599Y28735D1*
X12602Y29235D1*
X21273Y36237D2*
X21194Y36112D1*
X21108Y36018D1*
X20808Y35718D1*
X20703Y35645D1*
X20579Y35567D1*
X20507Y35538D1*
X20405Y35524D1*
X20259Y35508D1*
X20181Y35513D1*
X20084Y35545D1*
X19945Y35593D1*
X19877Y35631D1*
X19803Y35703D1*
X19700Y35806D1*
X19655Y35870D1*
X19619Y35966D1*
X19571Y36105D1*
X19558Y36182D1*
X19567Y36284D1*
X19584Y36429D1*
X19606Y36504D1*
X19659Y36593D1*
X19737Y36717D1*
X19823Y36811D1*
X20124Y37112D1*
X20229Y37184D1*
X20353Y37262D1*
X20425Y37292D1*
X20527Y37305D1*
X20672Y37322D1*
X20750Y37317D1*
X20848Y37285D1*
X20986Y37236D1*
X21054Y37198D1*
X21128Y37127D1*
X21232Y37024D1*
X21277Y36960D1*
X21313Y36863D1*
X21361Y36725D1*
X21374Y36648D1*
X21364Y36546D1*
X21348Y36400D1*
X21326Y36325D1*
X21273Y36237D1*
X19965Y37545D2*
X19886Y37420D1*
X19800Y37326D1*
X19500Y37026D1*
X19395Y36953D1*
X19271Y36875D1*
X19199Y36846D1*
X19097Y36832D1*
X18951Y36816D1*
X18873Y36821D1*
X18775Y36853D1*
X18637Y36901D1*
X18569Y36939D1*
X18495Y37011D1*
X18392Y37114D1*
X18347Y37178D1*
X18311Y37275D1*
X18263Y37413D1*
X18250Y37490D1*
X18259Y37592D1*
X18276Y37738D1*
X18298Y37813D1*
X18351Y37901D1*
X18429Y38026D1*
X18515Y38120D1*
X18816Y38420D1*
X18921Y38493D1*
X19044Y38570D1*
X19117Y38600D1*
X19219Y38613D1*
X19364Y38630D1*
X19442Y38625D1*
X19540Y38593D1*
X19678Y38545D1*
X19746Y38507D1*
X19820Y38435D1*
X19924Y38332D1*
X19969Y38268D1*
X20005Y38171D1*
X20053Y38033D1*
X20066Y37956D1*
X20056Y37854D1*
X20040Y37708D1*
X20018Y37633D1*
X19965Y37545D1*
X32824Y24878D2*
X32812Y24803D1*
X32791Y24729D1*
X32762Y24659D1*
X32725Y24592D1*
X32681Y24530D1*
X32631Y24473D1*
X32575Y24422D1*
X32513Y24377D1*
X32446Y24340D1*
X32376Y24310D1*
X32303Y24288D1*
X32228Y24274D1*
X32153Y24269D1*
X32076Y24272D1*
X32001Y24284D1*
X31928Y24304D1*
X31857Y24332D1*
X31790Y24368D1*
X31727Y24411D1*
X31669Y24460D1*
X31617Y24516D1*
X31572Y24577D1*
X31534Y24643D1*
X31503Y24713D1*
X31480Y24786D1*
X31465Y24860D1*
X31459Y24936D1*
X31462Y25012D1*
X31472Y25088D1*
X31491Y25162D1*
X31519Y25233D1*
X31553Y25301D1*
X31596Y25364D1*
X31644Y25422D1*
X31700Y25475D1*
X31760Y25521D1*
X31826Y25560D1*
X31895Y25592D1*
X31967Y25615D1*
X32042Y25631D1*
X32118Y25638D1*
X32194Y25637D1*
X32269Y25627D1*
X32343Y25609D1*
X32415Y25583D1*
X32483Y25549D1*
X32547Y25507D1*
X32606Y25459D1*
X32659Y25405D1*
X32706Y25345D1*
X32746Y25280D1*
X32778Y25211D1*
X32803Y25139D1*
X32819Y25064D1*
X32828Y24954D1*
X32824Y24878D1*
Y27878D2*
X32812Y27803D1*
X32791Y27729D1*
X32762Y27659D1*
X32725Y27592D1*
X32681Y27530D1*
X32631Y27473D1*
X32575Y27422D1*
X32513Y27377D1*
X32446Y27340D1*
X32376Y27310D1*
X32303Y27288D1*
X32228Y27274D1*
X32153Y27269D1*
X32076Y27272D1*
X32001Y27284D1*
X31928Y27304D1*
X31857Y27332D1*
X31790Y27368D1*
X31727Y27411D1*
X31669Y27460D1*
X31617Y27516D1*
X31572Y27577D1*
X31534Y27643D1*
X31503Y27713D1*
X31480Y27786D1*
X31465Y27860D1*
X31459Y27936D1*
X31462Y28012D1*
X31472Y28088D1*
X31491Y28162D1*
X31519Y28233D1*
X31553Y28301D1*
X31596Y28364D1*
X31644Y28422D1*
X31700Y28475D1*
X31760Y28521D1*
X31826Y28560D1*
X31895Y28592D1*
X31967Y28615D1*
X32042Y28631D1*
X32118Y28638D1*
X32194Y28637D1*
X32269Y28627D1*
X32343Y28609D1*
X32415Y28583D1*
X32483Y28549D1*
X32547Y28507D1*
X32606Y28459D1*
X32659Y28405D1*
X32706Y28345D1*
X32746Y28280D1*
X32778Y28211D1*
X32803Y28139D1*
X32819Y28064D1*
X32828Y27954D1*
X32824Y27878D1*
X28911Y42999D2*
X28806Y42826D1*
X28672Y42640D1*
X28523Y42467D1*
X28359Y42308D1*
X28182Y42164D1*
X27993Y42036D1*
X27793Y41924D1*
X27585Y41831D1*
X27369Y41756D1*
X27147Y41700D1*
X26922Y41663D1*
X26694Y41647D1*
X26465Y41650D1*
X26238Y41673D1*
X26013Y41716D1*
X25794Y41779D1*
X25580Y41860D1*
X25374Y41959D1*
X25178Y42077D1*
X24993Y42210D1*
X24820Y42360D1*
X24661Y42524D1*
X24516Y42701D1*
X24388Y42890D1*
X24325Y42999D1*
X23730Y42203D1*
X23659Y42141D1*
X22880Y41504D1*
X21902Y41040D1*
X20841Y40824D1*
X20043Y40855D1*
X19340Y40511D1*
X18513Y40044D1*
X17715Y39529D1*
X16949Y38968D1*
X16218Y38363D1*
X15523Y37716D1*
X14867Y37029D1*
X14253Y36305D1*
X13683Y35546D1*
X13158Y34754D1*
X12681Y33934D1*
X12253Y33086D1*
X11876Y32215D1*
X11551Y31323D1*
X11278Y30413D1*
X11060Y29489D1*
X10897Y28553D1*
X10789Y27610D1*
X10737Y26675D1*
X10781Y25434D1*
X10922Y24196D1*
X11161Y22973D1*
X11494Y21772D1*
X11920Y20602D1*
X12437Y19468D1*
X13041Y18378D1*
X13729Y17339D1*
X14496Y16358D1*
X15338Y15439D1*
X16249Y14589D1*
X17223Y13813D1*
X18256Y13116D1*
X19340Y12502D1*
X20469Y11975D1*
X21636Y11538D1*
X22834Y11194D1*
X24054Y10945D1*
X25291Y10792D1*
X26536Y10737D1*
X27781Y10779D1*
X29019Y10919D1*
X30242Y11156D1*
X31443Y11487D1*
X32614Y11912D1*
X33749Y12428D1*
X34839Y13030D1*
X35879Y13717D1*
X36862Y14482D1*
X37781Y15322D1*
X38472Y16064D1*
X39118Y16852D1*
X39711Y17680D1*
X40250Y18545D1*
X40733Y19442D1*
X41156Y20369D1*
X41519Y21321D1*
X41820Y22294D1*
X42058Y23285D1*
X42232Y24289D1*
X42341Y25302D1*
X42384Y26320D1*
X42362Y27339D1*
X42274Y28354D1*
X42122Y29361D1*
X41904Y30356D1*
X41624Y31336D1*
X41281Y32295D1*
X40876Y33230D1*
X40413Y34138D1*
X39892Y35013D1*
X39316Y35854D1*
X38687Y36655D1*
X38008Y37415D1*
X37282Y38129D1*
X36511Y38795D1*
X35698Y39410D1*
X34848Y39972D1*
X33964Y40478D1*
X33192Y40855D1*
X32387Y40824D1*
X31332Y41041D1*
X31247Y41078D1*
X30340Y41514D1*
X29505Y42203D1*
X28912Y42999D1*
X32180Y39331D2*
X29903Y39330D1*
X29831Y39257D1*
X29771Y39210D1*
X29706Y39171D1*
X29637Y39138D1*
X29565Y39113D1*
X29491Y39096D1*
X29365Y39086D1*
X28868Y39085D1*
X28839Y39086D1*
X28763Y39093D1*
X28689Y39108D1*
X28616Y39131D1*
X28546Y39162D1*
X28480Y39200D1*
X28419Y39245D1*
X28363Y39296D1*
X28312Y39353D1*
X28268Y39416D1*
X28231Y39482D1*
X28201Y39552D1*
X28179Y39625D1*
X28165Y39700D1*
X28159Y39776D1*
X28161Y39852D1*
X28171Y39927D1*
X28189Y40001D1*
X28215Y40073D1*
X28249Y40141D1*
X28290Y40206D1*
X28337Y40265D1*
X28391Y40319D1*
X28450Y40367D1*
X28514Y40409D1*
X28582Y40443D1*
X28653Y40470D1*
X28727Y40489D1*
X28802Y40501D1*
X29020Y40504D1*
X29368Y40501D1*
X29454Y40498D1*
X29529Y40485D1*
X29602Y40464D1*
X29673Y40435D1*
X29740Y40398D1*
X29802Y40355D1*
X29904Y40258D1*
X32373D1*
X32449Y40251D1*
X32523Y40233D1*
X32593Y40202D1*
X32656Y40161D1*
X32701Y40122D1*
X34220Y38605D1*
X34456Y38580D1*
X34544Y38549D1*
X34732Y38431D1*
X34823Y38347D1*
X35122Y38048D1*
X35193Y37947D1*
X35270Y37823D1*
X35301Y37735D1*
X35326Y37514D1*
X35316Y37421D1*
X35242Y37211D1*
X35193Y37132D1*
X35035Y36975D1*
X34956Y36925D1*
X34746Y36852D1*
X34654Y36841D1*
X34433Y36866D1*
X34345Y36897D1*
X34157Y37015D1*
X34066Y37098D1*
X33767Y37397D1*
X33696Y37499D1*
X33618Y37623D1*
X33588Y37711D1*
X33563Y37949D1*
X32182Y39330D1*
X31414Y37481D2*
X29903Y37480D1*
X29831Y37407D1*
X29771Y37360D1*
X29706Y37321D1*
X29637Y37288D1*
X29565Y37263D1*
X29491Y37246D1*
X29365Y37236D1*
X28868Y37235D1*
X28839Y37236D1*
X28763Y37243D1*
X28689Y37258D1*
X28616Y37281D1*
X28546Y37312D1*
X28480Y37350D1*
X28419Y37395D1*
X28363Y37446D1*
X28312Y37503D1*
X28268Y37566D1*
X28231Y37632D1*
X28201Y37702D1*
X28179Y37775D1*
X28165Y37850D1*
X28159Y37926D1*
X28161Y38002D1*
X28171Y38077D1*
X28189Y38151D1*
X28215Y38223D1*
X28249Y38291D1*
X28290Y38356D1*
X28337Y38415D1*
X28391Y38469D1*
X28450Y38517D1*
X28514Y38559D1*
X28582Y38593D1*
X28653Y38620D1*
X28727Y38639D1*
X28802Y38651D1*
X29020Y38654D1*
X29368Y38651D1*
X29454Y38648D1*
X29529Y38635D1*
X29602Y38614D1*
X29673Y38585D1*
X29740Y38548D1*
X29802Y38505D1*
X29904Y38408D1*
X31607D1*
X31683Y38401D1*
X31756Y38383D1*
X31826Y38352D1*
X31890Y38311D1*
X31934Y38272D1*
X32912Y37297D1*
X33148Y37272D1*
X33236Y37241D1*
X33424Y37123D1*
X33515Y37039D1*
X33814Y36740D1*
X33884Y36638D1*
X33962Y36515D1*
X33993Y36427D1*
X34018Y36205D1*
X34007Y36113D1*
X33934Y35903D1*
X33884Y35824D1*
X33727Y35667D1*
X33648Y35617D1*
X33438Y35544D1*
X33346Y35533D1*
X33124Y35558D1*
X33037Y35589D1*
X32849Y35707D1*
X32758Y35790D1*
X32459Y36089D1*
X32388Y36191D1*
X32310Y36315D1*
X32280Y36403D1*
X32255Y36641D1*
X31416Y37480D1*
X14695Y21232D2*
X14694Y23201D1*
X14603Y23294D1*
X14559Y23357D1*
X14522Y23423D1*
X14492Y23493D1*
X14470Y23566D1*
X14456Y23641D1*
X14449Y23735D1*
X14452Y24235D1*
Y24293D1*
X14462Y24368D1*
X14480Y24442D1*
X14506Y24514D1*
X14540Y24582D1*
X14581Y24647D1*
X14628Y24706D1*
X14682Y24760D1*
X14741Y24808D1*
X14805Y24850D1*
X14873Y24884D1*
X14944Y24911D1*
X15018Y24930D1*
X15093Y24942D1*
X15169Y24944D1*
X15245Y24939D1*
X15320Y24926D1*
X15393Y24905D1*
X15464Y24876D1*
X15531Y24839D1*
X15593Y24796D1*
X15651Y24746D1*
X15703Y24690D1*
X15748Y24630D1*
X15787Y24564D1*
X15819Y24495D1*
X15843Y24422D1*
X15859Y24348D1*
X15868Y24228D1*
X15866Y23735D1*
X15864Y23659D1*
X15852Y23584D1*
X15832Y23511D1*
X15804Y23440D1*
X15768Y23372D1*
X15726Y23309D1*
X15677Y23251D1*
X15620Y23197D1*
X15622Y22690D1*
Y21344D1*
X15971Y20998D1*
X16706Y20266D1*
X16942Y20241D1*
X17030Y20210D1*
X17218Y20092D1*
X17309Y20008D1*
X17608Y19709D1*
X17678Y19607D1*
X17756Y19484D1*
X17787Y19396D1*
X17812Y19174D1*
X17801Y19082D1*
X17728Y18872D1*
X17678Y18793D1*
X17521Y18636D1*
X17442Y18586D1*
X17232Y18513D1*
X17140Y18502D1*
X16918Y18527D1*
X16831Y18558D1*
X16643Y18676D1*
X16552Y18759D1*
X16253Y19058D1*
X16182Y19160D1*
X16104Y19284D1*
X16074Y19372D1*
X16049Y19610D1*
X14831Y20828D1*
X14782Y20886D1*
X14743Y20951D1*
X14715Y21022D1*
X14699Y21096D1*
X14695Y21155D1*
Y21232D1*
X12845Y20465D2*
X12844Y23201D1*
X12753Y23294D1*
X12709Y23357D1*
X12672Y23423D1*
X12642Y23493D1*
X12620Y23566D1*
X12606Y23641D1*
X12599Y23735D1*
X12602Y24235D1*
Y24293D1*
X12612Y24368D1*
X12630Y24442D1*
X12656Y24514D1*
X12690Y24582D1*
X12731Y24647D1*
X12778Y24706D1*
X12832Y24760D1*
X12891Y24808D1*
X12955Y24850D1*
X13023Y24884D1*
X13094Y24911D1*
X13168Y24930D1*
X13243Y24942D1*
X13319Y24944D1*
X13395Y24939D1*
X13470Y24926D1*
X13543Y24905D1*
X13614Y24876D1*
X13681Y24839D1*
X13743Y24796D1*
X13801Y24746D1*
X13853Y24690D1*
X13898Y24630D1*
X13937Y24564D1*
X13969Y24495D1*
X13993Y24422D1*
X14009Y24348D1*
X14018Y24228D1*
X14016Y23735D1*
X14014Y23659D1*
X14002Y23584D1*
X13982Y23511D1*
X13954Y23440D1*
X13918Y23372D1*
X13876Y23309D1*
X13827Y23251D1*
X13770Y23197D1*
X13772Y22690D1*
Y20582D1*
X15396Y18957D1*
X15413D1*
X15634Y18932D1*
X15722Y18902D1*
X15909Y18784D1*
X16001Y18700D1*
X16300Y18401D1*
X16370Y18299D1*
X16448Y18175D1*
X16479Y18087D1*
X16504Y17866D1*
X16493Y17774D1*
X16420Y17564D1*
X16370Y17485D1*
X16213Y17328D1*
X16134Y17278D1*
X15924Y17204D1*
X15831Y17194D1*
X15610Y17219D1*
X15522Y17250D1*
X15335Y17368D1*
X15244Y17451D1*
X14945Y17750D1*
X14874Y17852D1*
X14796Y17976D1*
X14765Y18064D1*
X14741Y18302D1*
X12981Y20061D1*
X12932Y20119D1*
X12893Y20185D1*
X12865Y20256D1*
X12849Y20330D1*
X12845Y20389D1*
Y20465D1*
X28731Y20486D2*
X30048Y19668D1*
Y20486D2*
X28731Y19668D1*
X26531Y21786D2*
X27848Y20968D1*
Y21786D2*
X26531Y20968D1*
X22193Y27766D2*
X23044Y26915D1*
Y27766D2*
X22193Y26915D1*
X28485Y36691D2*
X29750Y35497D1*
Y36691D2*
X28485Y35497D1*
X26693Y23268D2*
X28211Y21850D1*
Y23268D2*
X26693Y21850D1*
X34694Y32240D2*
X36033Y30902D1*
X35865Y32073D2*
X34862Y31070D1*
X35630Y24618D2*
X36824Y23353D1*
Y24618D2*
X35630Y23353D1*
X31828Y17156D2*
X32330Y16655D1*
X32497Y17826D2*
X31159Y16487D1*
X24118Y16876D2*
X24750Y16279D1*
X24118Y16876D2*
X23485Y16279D1*
X17569Y21361D2*
X18908Y20023D1*
X18238Y20692D2*
X17737Y20191D1*
X16412Y29618D2*
X17009Y28985D1*
X16412Y28353D1*
X21273Y35608D2*
X21774Y35107D1*
X22443Y35776D2*
X21105Y34437D1*
X25685Y27217D2*
X27003Y26099D1*
Y27217D2*
X25685Y26099D1*
D23*
X25488Y30311D3*
X25988D3*
X26488D3*
X26988D3*
X27488D3*
X27988D3*
D24*
X28788Y31111D3*
Y31611D3*
Y32111D3*
Y32611D3*
Y33111D3*
Y33611D3*
D23*
X27988Y34411D3*
X27488D3*
X26988D3*
X26488D3*
X25988D3*
X25488D3*
D24*
X24688Y33611D3*
Y33111D3*
Y32611D3*
Y32111D3*
Y31611D3*
Y31111D3*
D25*
X25838Y31461D3*
Y32361D3*
Y33261D3*
X26738Y31461D3*
Y32361D3*
Y33261D3*
X27638Y31461D3*
Y32361D3*
Y33261D3*
D26*
X26738Y32361D3*
D28*
X29390Y18777D3*
Y20077D3*
Y21377D3*
X27190D3*
Y20077D3*
Y18777D3*
G36*
X21349Y27734D2*
X21280Y27728D1*
X21214Y27710D1*
X21152Y27681D1*
X21096Y27642D1*
X21047Y27593D1*
X21008Y27537D1*
X20979Y27475D1*
X20961Y27409D1*
X20955Y27340D1*
D1*
X20961Y27272D1*
X20979Y27206D1*
X21008Y27143D1*
X21047Y27087D1*
X21096Y27039D1*
X21152Y26999D1*
X21214Y26970D1*
X21280Y26953D1*
X21349Y26947D1*
D1*
X21417Y26953D1*
X21483Y26970D1*
X21546Y26999D1*
X21602Y27039D1*
X21650Y27087D1*
X21690Y27143D1*
X21719Y27206D1*
X21736Y27272D1*
X21742Y27340D1*
D1*
X21736Y27409D1*
X21719Y27475D1*
X21690Y27537D1*
X21650Y27593D1*
X21602Y27642D1*
X21546Y27681D1*
X21483Y27710D1*
X21417Y27728D1*
X21349Y27734D1*
G37*
G36*
Y29004D2*
X21280Y28998D1*
X21214Y28980D1*
X21152Y28951D1*
X21096Y28912D1*
X21047Y28863D1*
X21008Y28807D1*
X20979Y28745D1*
X20961Y28679D1*
X20955Y28610D1*
D1*
X20961Y28542D1*
X20979Y28476D1*
X21008Y28413D1*
X21047Y28357D1*
X21096Y28309D1*
X21152Y28269D1*
X21214Y28240D1*
X21280Y28223D1*
X21349Y28217D1*
D1*
X21417Y28223D1*
X21483Y28240D1*
X21546Y28269D1*
X21602Y28309D1*
X21650Y28357D1*
X21690Y28413D1*
X21719Y28476D1*
X21736Y28542D1*
X21742Y28610D1*
D1*
X21736Y28679D1*
X21719Y28745D1*
X21690Y28807D1*
X21650Y28863D1*
X21602Y28912D1*
X21546Y28951D1*
X21483Y28980D1*
X21417Y28998D1*
X21349Y29004D1*
G37*
G36*
Y30274D2*
X21280Y30268D1*
X21214Y30250D1*
X21152Y30221D1*
X21096Y30182D1*
X21047Y30133D1*
X21008Y30077D1*
X20979Y30015D1*
X20961Y29949D1*
X20955Y29880D1*
D1*
X20961Y29812D1*
X20979Y29746D1*
X21008Y29683D1*
X21047Y29627D1*
X21096Y29579D1*
X21152Y29539D1*
X21214Y29510D1*
X21280Y29493D1*
X21349Y29487D1*
D1*
X21417Y29493D1*
X21483Y29510D1*
X21546Y29539D1*
X21602Y29579D1*
X21650Y29627D1*
X21690Y29683D1*
X21719Y29746D1*
X21736Y29812D1*
X21742Y29880D1*
D1*
X21736Y29949D1*
X21719Y30015D1*
X21690Y30077D1*
X21650Y30133D1*
X21602Y30182D1*
X21546Y30221D1*
X21483Y30250D1*
X21417Y30268D1*
X21349Y30274D1*
G37*
G36*
X22619D2*
X22550Y30268D1*
X22484Y30250D1*
X22422Y30221D1*
X22366Y30182D1*
X22317Y30133D1*
X22278Y30077D1*
X22249Y30015D1*
X22231Y29949D1*
X22225Y29880D1*
D1*
X22231Y29812D1*
X22249Y29746D1*
X22278Y29683D1*
X22317Y29627D1*
X22366Y29579D1*
X22422Y29539D1*
X22484Y29510D1*
X22550Y29493D1*
X22619Y29487D1*
D1*
X22687Y29493D1*
X22753Y29510D1*
X22816Y29539D1*
X22872Y29579D1*
X22920Y29627D1*
X22960Y29683D1*
X22989Y29746D1*
X23006Y29812D1*
X23012Y29880D1*
D1*
X23006Y29949D1*
X22989Y30015D1*
X22960Y30077D1*
X22920Y30133D1*
X22872Y30182D1*
X22816Y30221D1*
X22753Y30250D1*
X22687Y30268D1*
X22619Y30274D1*
G37*
G36*
Y29004D2*
X22550Y28998D1*
X22484Y28980D1*
X22422Y28951D1*
X22366Y28912D1*
X22317Y28863D1*
X22278Y28807D1*
X22249Y28745D1*
X22231Y28679D1*
X22225Y28610D1*
D1*
X22231Y28542D1*
X22249Y28476D1*
X22278Y28413D1*
X22317Y28357D1*
X22366Y28309D1*
X22422Y28269D1*
X22484Y28240D1*
X22550Y28223D1*
X22619Y28217D1*
D1*
X22687Y28223D1*
X22753Y28240D1*
X22816Y28269D1*
X22872Y28309D1*
X22920Y28357D1*
X22960Y28413D1*
X22989Y28476D1*
X23006Y28542D1*
X23012Y28610D1*
D1*
X23006Y28679D1*
X22989Y28745D1*
X22960Y28807D1*
X22920Y28863D1*
X22872Y28912D1*
X22816Y28951D1*
X22753Y28980D1*
X22687Y28998D1*
X22619Y29004D1*
G37*
G36*
Y27734D2*
X22550Y27728D1*
X22484Y27710D1*
X22422Y27681D1*
X22366Y27642D1*
X22317Y27593D1*
X22278Y27537D1*
X22249Y27475D1*
X22231Y27409D1*
X22225Y27340D1*
D1*
X22231Y27272D1*
X22249Y27206D1*
X22278Y27143D1*
X22317Y27087D1*
X22366Y27039D1*
X22422Y26999D1*
X22484Y26970D1*
X22550Y26953D1*
X22619Y26947D1*
D1*
X22687Y26953D1*
X22753Y26970D1*
X22816Y26999D1*
X22872Y27039D1*
X22920Y27087D1*
X22960Y27143D1*
X22989Y27206D1*
X23006Y27272D1*
X23012Y27340D1*
D1*
X23006Y27409D1*
X22989Y27475D1*
X22960Y27537D1*
X22920Y27593D1*
X22872Y27642D1*
X22816Y27681D1*
X22753Y27710D1*
X22687Y27728D1*
X22619Y27734D1*
G37*
D31*
X24118Y39794D3*
Y37944D3*
Y36094D3*
X29118D3*
Y37944D3*
Y39794D3*
D32*
X30825Y19247D3*
Y20947D3*
D33*
X27452Y22559D3*
X29152D3*
D34*
X25131Y18722D3*
Y20422D3*
G36*
X34268Y37193D2*
X34456Y37074D1*
X34677Y37049D1*
X34887Y37123D1*
X35045Y37280D1*
X35118Y37490D1*
X35093Y37711D1*
X34975Y37900D1*
X34621Y38253D1*
X34433Y38372D1*
X34212Y38397D1*
X34002Y38323D1*
X33844Y38166D1*
X33771Y37956D1*
X33796Y37735D1*
X33914Y37546D1*
X34268Y37193D1*
G37*
G36*
X32960Y35884D2*
X33148Y35766D1*
X33369Y35741D1*
X33579Y35815D1*
X33736Y35972D1*
X33810Y36182D1*
X33785Y36403D1*
X33667Y36592D1*
X33313Y36945D1*
X33125Y37064D1*
X32904Y37088D1*
X32693Y37015D1*
X32536Y36858D1*
X32463Y36648D1*
X32488Y36426D1*
X32606Y36238D1*
X32960Y35884D1*
G37*
G36*
X31651Y34576D2*
X31840Y34458D1*
X32061Y34433D1*
X32271Y34507D1*
X32428Y34664D1*
X32502Y34874D1*
X32477Y35095D1*
X32358Y35283D1*
X32005Y35637D1*
X31817Y35755D1*
X31595Y35780D1*
X31385Y35707D1*
X31228Y35549D1*
X31155Y35339D1*
X31179Y35118D1*
X31298Y34930D1*
X31651Y34576D1*
G37*
G36*
X35187Y31041D2*
X35375Y30922D1*
X35596Y30897D1*
X35806Y30971D1*
X35964Y31128D1*
X36037Y31338D1*
X36012Y31559D1*
X35894Y31748D1*
X35540Y32101D1*
X35352Y32220D1*
X35131Y32245D1*
X34921Y32171D1*
X34764Y32014D1*
X34690Y31804D1*
X34715Y31583D1*
X34833Y31394D1*
X35187Y31041D1*
G37*
G36*
X36495Y32349D2*
X36683Y32231D1*
X36905Y32206D1*
X37115Y32279D1*
X37272Y32436D1*
X37345Y32647D1*
X37321Y32868D1*
X37202Y33056D1*
X36849Y33410D1*
X36660Y33528D1*
X36439Y33553D1*
X36229Y33479D1*
X36072Y33322D1*
X35998Y33112D1*
X36023Y32891D1*
X36141Y32703D1*
X36495Y32349D1*
G37*
G36*
X37803Y33657D2*
X37992Y33539D1*
X38213Y33514D1*
X38423Y33587D1*
X38580Y33745D1*
X38654Y33955D1*
X38629Y34176D1*
X38510Y34364D1*
X38157Y34718D1*
X37968Y34836D1*
X37747Y34861D1*
X37537Y34788D1*
X37380Y34630D1*
X37306Y34420D1*
X37331Y34199D1*
X37450Y34011D1*
X37803Y33657D1*
G37*
D36*
X39927Y28985D3*
X38077D3*
X36227D3*
Y23985D3*
X38077D3*
X39927D3*
G36*
X37450Y18252D2*
X37331Y18064D1*
X37306Y17843D1*
X37380Y17633D1*
X37537Y17476D1*
X37747Y17402D1*
X37968Y17427D1*
X38157Y17545D1*
X38510Y17899D1*
X38629Y18087D1*
X38654Y18308D1*
X38580Y18518D1*
X38423Y18676D1*
X38213Y18749D1*
X37992Y18724D1*
X37803Y18606D1*
X37450Y18252D1*
G37*
G36*
X36141Y19561D2*
X36023Y19372D1*
X35998Y19151D1*
X36072Y18941D1*
X36229Y18784D1*
X36439Y18710D1*
X36660Y18735D1*
X36849Y18853D1*
X37202Y19207D1*
X37321Y19395D1*
X37345Y19617D1*
X37272Y19827D1*
X37115Y19984D1*
X36905Y20057D1*
X36683Y20033D1*
X36495Y19914D1*
X36141Y19561D1*
G37*
G36*
X34833Y20869D2*
X34715Y20680D1*
X34690Y20459D1*
X34764Y20249D1*
X34921Y20092D1*
X35131Y20018D1*
X35352Y20043D1*
X35540Y20162D1*
X35894Y20515D1*
X36012Y20704D1*
X36037Y20925D1*
X35964Y21135D1*
X35806Y21292D1*
X35596Y21366D1*
X35375Y21341D1*
X35187Y21222D1*
X34833Y20869D1*
G37*
G36*
X31298Y17333D2*
X31179Y17145D1*
X31154Y16924D1*
X31228Y16714D1*
X31385Y16556D1*
X31595Y16483D1*
X31816Y16508D1*
X32005Y16626D1*
X32358Y16980D1*
X32477Y17168D1*
X32502Y17389D1*
X32428Y17599D1*
X32271Y17757D1*
X32061Y17830D1*
X31840Y17805D1*
X31651Y17687D1*
X31298Y17333D1*
G37*
G36*
X32606Y16025D2*
X32488Y15837D1*
X32463Y15616D1*
X32536Y15405D1*
X32693Y15248D1*
X32904Y15175D1*
X33125Y15200D1*
X33313Y15318D1*
X33667Y15672D1*
X33785Y15860D1*
X33810Y16081D1*
X33736Y16291D1*
X33579Y16448D1*
X33369Y16522D1*
X33148Y16497D1*
X32960Y16379D1*
X32606Y16025D1*
G37*
G36*
X33914Y14717D2*
X33796Y14529D1*
X33771Y14307D1*
X33844Y14097D1*
X34002Y13940D1*
X34212Y13867D1*
X34433Y13891D1*
X34621Y14010D1*
X34975Y14363D1*
X35093Y14552D1*
X35118Y14773D1*
X35045Y14983D1*
X34887Y15140D1*
X34677Y15214D1*
X34456Y15189D1*
X34268Y15070D1*
X33914Y14717D1*
G37*
D31*
X29118Y13176D3*
Y15026D3*
Y16876D3*
X24118D3*
Y15026D3*
Y13176D3*
G36*
X19334Y15070D2*
X19146Y15189D1*
X18925Y15214D1*
X18715Y15140D1*
X18558Y14983D1*
X18484Y14773D1*
X18509Y14552D1*
X18627Y14363D1*
X18981Y14010D1*
X19169Y13891D1*
X19390Y13867D1*
X19600Y13940D1*
X19758Y14097D1*
X19831Y14307D1*
X19806Y14529D1*
X19688Y14717D1*
X19334Y15070D1*
G37*
G36*
X20643Y16379D2*
X20454Y16497D1*
X20233Y16522D1*
X20023Y16448D1*
X19866Y16291D1*
X19792Y16081D1*
X19817Y15860D1*
X19935Y15672D1*
X20289Y15318D1*
X20477Y15200D1*
X20699Y15175D1*
X20909Y15248D1*
X21066Y15405D1*
X21139Y15616D1*
X21115Y15837D1*
X20996Y16025D1*
X20643Y16379D1*
G37*
G36*
X21951Y17687D2*
X21762Y17805D1*
X21541Y17830D1*
X21331Y17757D1*
X21174Y17599D1*
X21100Y17389D1*
X21125Y17168D1*
X21244Y16980D1*
X21597Y16626D1*
X21786Y16508D1*
X22007Y16483D1*
X22217Y16556D1*
X22374Y16714D1*
X22448Y16924D1*
X22423Y17145D1*
X22304Y17333D1*
X21951Y17687D1*
G37*
G36*
X18415Y21222D2*
X18227Y21341D1*
X18006Y21366D1*
X17796Y21292D1*
X17638Y21135D1*
X17565Y20925D1*
X17590Y20704D1*
X17708Y20515D1*
X18062Y20162D1*
X18250Y20043D1*
X18471Y20018D1*
X18681Y20092D1*
X18839Y20249D1*
X18912Y20459D1*
X18887Y20680D1*
X18769Y20869D1*
X18415Y21222D1*
G37*
G36*
X17107Y19914D2*
X16919Y20033D1*
X16698Y20057D1*
X16487Y19984D1*
X16330Y19827D1*
X16257Y19617D1*
X16282Y19395D1*
X16400Y19207D1*
X16754Y18853D1*
X16942Y18735D1*
X17163Y18710D1*
X17373Y18784D1*
X17530Y18941D1*
X17604Y19151D1*
X17579Y19372D1*
X17461Y19561D1*
X17107Y19914D1*
G37*
G36*
X15799Y18606D2*
X15611Y18724D1*
X15389Y18749D1*
X15179Y18676D1*
X15022Y18518D1*
X14949Y18308D1*
X14973Y18087D1*
X15092Y17899D1*
X15445Y17545D1*
X15634Y17427D1*
X15855Y17402D1*
X16065Y17476D1*
X16222Y17633D1*
X16296Y17843D1*
X16271Y18064D1*
X16152Y18252D1*
X15799Y18606D1*
G37*
D36*
X13309Y23985D3*
X15159D3*
X17009D3*
Y28985D3*
X15159D3*
X13309D3*
G36*
X16152Y34011D2*
X16271Y34199D1*
X16296Y34420D1*
X16222Y34630D1*
X16065Y34788D1*
X15855Y34861D1*
X15634Y34836D1*
X15445Y34718D1*
X15092Y34364D1*
X14973Y34176D1*
X14949Y33955D1*
X15022Y33745D1*
X15179Y33587D1*
X15389Y33514D1*
X15611Y33539D1*
X15799Y33657D1*
X16152Y34011D1*
G37*
G36*
X17461Y32703D2*
X17579Y32891D1*
X17604Y33112D1*
X17530Y33322D1*
X17373Y33479D1*
X17163Y33553D1*
X16942Y33528D1*
X16754Y33410D1*
X16400Y33056D1*
X16282Y32868D1*
X16257Y32647D1*
X16330Y32436D1*
X16487Y32279D1*
X16698Y32206D1*
X16919Y32231D1*
X17107Y32349D1*
X17461Y32703D1*
G37*
G36*
X18769Y31394D2*
X18887Y31583D1*
X18912Y31804D1*
X18839Y32014D1*
X18681Y32171D1*
X18471Y32245D1*
X18250Y32220D1*
X18062Y32101D1*
X17708Y31748D1*
X17590Y31560D1*
X17565Y31338D1*
X17638Y31128D1*
X17796Y30971D1*
X18006Y30898D1*
X18227Y30922D1*
X18415Y31041D1*
X18769Y31394D1*
G37*
G36*
X22304Y34930D2*
X22423Y35118D1*
X22448Y35339D1*
X22374Y35549D1*
X22217Y35707D1*
X22007Y35780D1*
X21786Y35755D1*
X21597Y35637D1*
X21244Y35283D1*
X21125Y35095D1*
X21100Y34874D1*
X21174Y34664D1*
X21331Y34507D1*
X21541Y34433D1*
X21762Y34458D1*
X21951Y34576D1*
X22304Y34930D1*
G37*
G36*
X20996Y36238D2*
X21115Y36426D1*
X21139Y36648D1*
X21066Y36858D1*
X20909Y37015D1*
X20699Y37088D1*
X20477Y37064D1*
X20289Y36945D1*
X19935Y36592D1*
X19817Y36403D1*
X19792Y36182D1*
X19866Y35972D1*
X20023Y35815D1*
X20233Y35741D1*
X20454Y35766D1*
X20643Y35884D1*
X20996Y36238D1*
G37*
G36*
X19688Y37546D2*
X19806Y37735D1*
X19831Y37956D1*
X19758Y38166D1*
X19600Y38323D1*
X19390Y38397D1*
X19169Y38372D1*
X18981Y38253D1*
X18627Y37900D1*
X18509Y37711D1*
X18484Y37490D1*
X18558Y37280D1*
X18715Y37123D1*
X18925Y37049D1*
X19146Y37074D1*
X19334Y37193D1*
X19688Y37546D1*
G37*
G36*
X32844Y30604D2*
X33644D1*
Y29604D1*
X32844D1*
Y30604D1*
G37*
G36*
X30644D2*
X31444D1*
Y29604D1*
X30644D1*
Y30604D1*
G37*
G36*
Y23304D2*
X31444D1*
Y22304D1*
X30644D1*
Y23304D1*
G37*
G36*
X32844D2*
X33644D1*
Y22304D1*
X32844D1*
Y23304D1*
G37*
G36*
X33144Y24554D2*
X34644D1*
Y23854D1*
X33144D1*
Y24554D1*
G37*
G36*
Y26054D2*
X34644D1*
Y25354D1*
X33144D1*
Y26054D1*
G37*
G36*
Y29054D2*
X34644D1*
Y28354D1*
X33144D1*
Y29054D1*
G37*
D39*
X26344Y26658D3*
X27644D3*
D40*
X18732Y24398D3*
Y25698D3*
D39*
X20644Y24714D3*
X21944D3*
X20961Y21225D3*
X22261D3*
X23183Y25550D3*
X24483D3*
X23346Y23023D3*
X24646D3*
D33*
X23338Y24280D3*
X25038D3*
D41*
X20602Y23696D3*
Y23196D3*
Y22696D3*
Y22196D3*
D42*
X21102D3*
X21602D3*
D41*
X22102D3*
Y22696D3*
Y23196D3*
Y23696D3*
D42*
X21602D3*
X21102D3*
M02*
