M48
METRIC,0000.00
T01C0.33
T02C0.9
T03C0.95
T04C2.54
%
T01
X+002584Y+003146
X+002584Y+003236
X+002584Y+003326
X+002674Y+003326
X+002674Y+003236
X+002674Y+003146
X+002764Y+003146
X+002764Y+003236
X+002764Y+003326
X+002718Y+002935
X+002877Y+002649
X+002879Y+002332
X+002512Y+002351
X+002331Y+002362
X+002052Y+002415
X+001977Y+002223
X+001796Y+002233
X+002103Y+002634
X+002071Y+002850
X+002313Y+002905
X+002352Y+002818
X+002312Y+003227
X+002360Y+003311
X+002291Y+003374
X+003289Y+002653
X+003430Y+002349
X+003337Y+001985
X+003157Y+001961
X+002476Y+001614
X+002348Y+001896
T02
X+003214Y+002495
X+003214Y+002795
T03
X+002198Y+002607
X+002097Y+003115
X+002300Y+003115
T04
X+002662Y+004427
T00
M30
