M48
METRIC,0000.00
T01C0.33
T02C0.9
T03C0.95
T04C2.54
%
T01
X+002740Y+004719
X+002740Y+004629
X+002740Y+004539
X+002650Y+004539
X+002650Y+004629
X+002650Y+004719
X+002560Y+004719
X+002560Y+004629
X+002560Y+004539
X+002605Y+004930
X+002982Y+004943
X+002980Y+005043
X+003253Y+005015
X+003223Y+005231
X+003253Y+005508
X+003328Y+005700
X+003542Y+005593
X+002974Y+005560
X+002793Y+005571
X+002444Y+005506
X+002446Y+005283
X+002035Y+005212
X+001893Y+005516
X+001987Y+005880
X+002193Y+005866
X+002807Y+006271
X+003011Y+005985
X+003011Y+004638
X+002957Y+004560
X+002995Y+004453
X+002229Y+004284
X+002469Y+003547
X+002360Y+002354
X+002183Y+002137
X+001759Y+002113
X+001573Y+002117
X+001570Y+002427
X+001759Y+002427
X+002705Y+002265
X+003267Y+002025
X+003558Y+002412
X+003748Y+002419
X+002847Y+001230
X+002657Y+001233
T02
X+002109Y+005370
X+002109Y+005070
T03
X+003125Y+005258
X+003227Y+004750
X+003024Y+004750
T04
X+002662Y+006994
T00
M30
