G04 DipTrace 2.4.0.2*
%INfemale.gts*%
%MOMM*%
%ADD10C,0.25*%
%ADD20C,0.165*%
%ADD29R,1.0X0.5*%
%ADD47C,0.95*%
%ADD48C,0.9*%
%ADD49C,2.54*%
%ADD53R,0.3X0.325*%
%ADD54R,0.325X0.3*%
%ADD55R,0.75X0.95*%
%ADD56R,0.95X0.75*%
%ADD59O,1.05X1.55*%
%ADD60R,2.05X0.9*%
%ADD61R,1.15X1.05*%
%ADD62R,1.05X1.15*%
%ADD63O,1.55X1.05*%
%ADD67O,1.05X0.33*%
%ADD68O,0.33X1.05*%
%FSLAX53Y53*%
G04*
G71*
G90*
G75*
G01*
%LNTopMask*%
%LPD*%
X27116Y46292D2*
D20*
Y46311D1*
X27118Y46329D1*
X27122Y46347D1*
X27126Y46365D1*
X27132Y46383D1*
X27140Y46400D1*
X27148Y46417D1*
X27158Y46433D1*
X27169Y46449D1*
X27181Y46463D1*
X27194Y46477D1*
X27208Y46490D1*
X27223Y46502D1*
X27239Y46513D1*
X27255Y46523D1*
X27273Y46532D1*
X27290Y46539D1*
X27309Y46546D1*
X27327Y46551D1*
X27346Y46555D1*
X27366Y46557D1*
X27385Y46558D1*
X27405D1*
X27424Y46557D1*
X27444Y46555D1*
X27463Y46551D1*
X27481Y46546D1*
X27500Y46539D1*
X27518Y46532D1*
X27535Y46523D1*
X27551Y46513D1*
X27567Y46502D1*
X27582Y46490D1*
X27596Y46477D1*
X27609Y46463D1*
X27621Y46449D1*
X27632Y46433D1*
X27642Y46417D1*
X27650Y46400D1*
X27658Y46383D1*
X27664Y46365D1*
X27668Y46347D1*
X27672Y46329D1*
X27674Y46311D1*
Y46292D1*
Y46273D1*
X27672Y46255D1*
X27668Y46237D1*
X27664Y46218D1*
X27658Y46201D1*
X27650Y46184D1*
X27642Y46167D1*
X27632Y46151D1*
X27621Y46135D1*
X27609Y46121D1*
X27596Y46107D1*
X27582Y46094D1*
X27567Y46082D1*
X27551Y46071D1*
X27535Y46061D1*
X27518Y46052D1*
X27500Y46045D1*
X27481Y46038D1*
X27463Y46033D1*
X27444Y46029D1*
X27424Y46027D1*
X27405Y46026D1*
X27385D1*
X27366Y46027D1*
X27346Y46029D1*
X27327Y46033D1*
X27309Y46038D1*
X27290Y46045D1*
X27273Y46052D1*
X27255Y46061D1*
X27239Y46071D1*
X27223Y46082D1*
X27208Y46094D1*
X27194Y46107D1*
X27181Y46121D1*
X27169Y46135D1*
X27158Y46151D1*
X27148Y46167D1*
X27140Y46184D1*
X27132Y46201D1*
X27126Y46218D1*
X27122Y46237D1*
X27118Y46255D1*
X27116Y46273D1*
Y46292D1*
Y45389D2*
Y45407D1*
X27118Y45426D1*
X27122Y45444D1*
X27126Y45462D1*
X27132Y45480D1*
X27140Y45497D1*
X27148Y45514D1*
X27158Y45530D1*
X27169Y45545D1*
X27181Y45560D1*
X27194Y45574D1*
X27208Y45587D1*
X27223Y45599D1*
X27239Y45610D1*
X27255Y45620D1*
X27273Y45628D1*
X27290Y45636D1*
X27309Y45642D1*
X27327Y45647D1*
X27346Y45651D1*
X27366Y45654D1*
X27385Y45655D1*
X27405D1*
X27424Y45654D1*
X27444Y45651D1*
X27463Y45647D1*
X27481Y45642D1*
X27500Y45636D1*
X27518Y45628D1*
X27535Y45620D1*
X27551Y45610D1*
X27567Y45599D1*
X27582Y45587D1*
X27596Y45574D1*
X27609Y45560D1*
X27621Y45545D1*
X27632Y45530D1*
X27642Y45514D1*
X27650Y45497D1*
X27658Y45480D1*
X27664Y45462D1*
X27668Y45444D1*
X27672Y45426D1*
X27674Y45407D1*
Y45389D1*
Y45370D1*
X27672Y45352D1*
X27668Y45333D1*
X27664Y45315D1*
X27658Y45298D1*
X27650Y45280D1*
X27642Y45264D1*
X27632Y45247D1*
X27621Y45232D1*
X27609Y45217D1*
X27596Y45203D1*
X27582Y45191D1*
X27567Y45179D1*
X27551Y45168D1*
X27535Y45158D1*
X27518Y45149D1*
X27500Y45141D1*
X27481Y45135D1*
X27463Y45130D1*
X27444Y45126D1*
X27424Y45124D1*
X27405Y45122D1*
X27385D1*
X27366Y45124D1*
X27346Y45126D1*
X27327Y45130D1*
X27309Y45135D1*
X27290Y45141D1*
X27273Y45149D1*
X27255Y45158D1*
X27239Y45168D1*
X27223Y45179D1*
X27208Y45191D1*
X27194Y45203D1*
X27181Y45217D1*
X27169Y45232D1*
X27158Y45247D1*
X27148Y45264D1*
X27140Y45280D1*
X27132Y45298D1*
X27126Y45315D1*
X27122Y45333D1*
X27118Y45352D1*
X27116Y45370D1*
Y45389D1*
X26219Y47199D2*
X26220Y47217D1*
X26222Y47236D1*
X26225Y47254D1*
X26230Y47272D1*
X26236Y47290D1*
X26243Y47307D1*
X26252Y47324D1*
X26261Y47340D1*
X26272Y47355D1*
X26284Y47370D1*
X26297Y47384D1*
X26311Y47397D1*
X26326Y47409D1*
X26342Y47420D1*
X26359Y47430D1*
X26376Y47438D1*
X26394Y47446D1*
X26412Y47452D1*
X26431Y47457D1*
X26450Y47461D1*
X26469Y47464D1*
X26489Y47465D1*
X26508D1*
X26528Y47464D1*
X26547Y47461D1*
X26566Y47457D1*
X26585Y47452D1*
X26603Y47446D1*
X26621Y47438D1*
X26638Y47430D1*
X26655Y47420D1*
X26671Y47409D1*
X26685Y47397D1*
X26699Y47384D1*
X26713Y47370D1*
X26725Y47355D1*
X26735Y47340D1*
X26745Y47324D1*
X26754Y47307D1*
X26761Y47290D1*
X26767Y47272D1*
X26772Y47254D1*
X26775Y47236D1*
X26777Y47217D1*
X26778Y47199D1*
X26777Y47180D1*
X26775Y47162D1*
X26772Y47143D1*
X26767Y47125D1*
X26761Y47107D1*
X26754Y47090D1*
X26745Y47073D1*
X26735Y47057D1*
X26725Y47042D1*
X26713Y47027D1*
X26699Y47013D1*
X26685Y47000D1*
X26671Y46989D1*
X26655Y46978D1*
X26638Y46968D1*
X26621Y46959D1*
X26603Y46951D1*
X26585Y46945D1*
X26566Y46940D1*
X26547Y46936D1*
X26528Y46933D1*
X26508Y46932D1*
X26489D1*
X26469Y46933D1*
X26450Y46936D1*
X26431Y46940D1*
X26412Y46945D1*
X26394Y46951D1*
X26376Y46959D1*
X26359Y46968D1*
X26342Y46978D1*
X26326Y46989D1*
X26311Y47000D1*
X26297Y47013D1*
X26284Y47027D1*
X26272Y47042D1*
X26261Y47057D1*
X26252Y47073D1*
X26243Y47090D1*
X26236Y47107D1*
X26230Y47125D1*
X26225Y47143D1*
X26222Y47162D1*
X26220Y47180D1*
X26219Y47199D1*
X26216Y46299D2*
X26217Y46317D1*
X26219Y46336D1*
X26222Y46354D1*
X26227Y46372D1*
X26233Y46390D1*
X26240Y46407D1*
X26249Y46424D1*
X26258Y46440D1*
X26269Y46455D1*
X26281Y46470D1*
X26294Y46484D1*
X26308Y46497D1*
X26323Y46509D1*
X26339Y46520D1*
X26356Y46530D1*
X26373Y46538D1*
X26391Y46546D1*
X26409Y46552D1*
X26428Y46557D1*
X26447Y46561D1*
X26466Y46564D1*
X26485Y46565D1*
X26505D1*
X26524Y46564D1*
X26544Y46561D1*
X26563Y46557D1*
X26581Y46552D1*
X26600Y46546D1*
X26618Y46538D1*
X26635Y46530D1*
X26651Y46520D1*
X26667Y46509D1*
X26682Y46497D1*
X26696Y46484D1*
X26709Y46470D1*
X26721Y46455D1*
X26732Y46440D1*
X26742Y46424D1*
X26750Y46407D1*
X26758Y46390D1*
X26764Y46372D1*
X26768Y46354D1*
X26772Y46336D1*
X26774Y46317D1*
Y46299D1*
Y46280D1*
X26772Y46262D1*
X26768Y46243D1*
X26764Y46225D1*
X26758Y46208D1*
X26750Y46190D1*
X26742Y46174D1*
X26732Y46157D1*
X26721Y46142D1*
X26709Y46127D1*
X26696Y46114D1*
X26682Y46101D1*
X26667Y46089D1*
X26651Y46078D1*
X26635Y46068D1*
X26618Y46059D1*
X26600Y46052D1*
X26581Y46045D1*
X26563Y46040D1*
X26544Y46036D1*
X26524Y46034D1*
X26505Y46032D1*
X26485D1*
X26466Y46034D1*
X26447Y46036D1*
X26428Y46040D1*
X26409Y46045D1*
X26391Y46052D1*
X26373Y46059D1*
X26356Y46068D1*
X26339Y46078D1*
X26323Y46089D1*
X26308Y46101D1*
X26294Y46114D1*
X26281Y46127D1*
X26269Y46142D1*
X26258Y46157D1*
X26249Y46174D1*
X26240Y46190D1*
X26233Y46208D1*
X26227Y46225D1*
X26222Y46243D1*
X26219Y46262D1*
X26217Y46280D1*
X26216Y46299D1*
Y46289D2*
X26217Y46307D1*
X26219Y46326D1*
X26222Y46344D1*
X26227Y46362D1*
X26233Y46380D1*
X26240Y46397D1*
X26249Y46414D1*
X26258Y46430D1*
X26269Y46445D1*
X26281Y46460D1*
X26294Y46474D1*
X26308Y46487D1*
X26323Y46499D1*
X26339Y46510D1*
X26356Y46519D1*
X26373Y46528D1*
X26391Y46536D1*
X26409Y46542D1*
X26428Y46547D1*
X26447Y46551D1*
X26466Y46554D1*
X26485Y46555D1*
X26505D1*
X26524Y46554D1*
X26544Y46551D1*
X26563Y46547D1*
X26581Y46542D1*
X26600Y46536D1*
X26618Y46528D1*
X26635Y46519D1*
X26651Y46510D1*
X26667Y46499D1*
X26682Y46487D1*
X26696Y46474D1*
X26709Y46460D1*
X26721Y46445D1*
X26732Y46430D1*
X26742Y46414D1*
X26750Y46397D1*
X26758Y46380D1*
X26764Y46362D1*
X26768Y46344D1*
X26772Y46326D1*
X26774Y46307D1*
Y46289D1*
Y46270D1*
X26772Y46251D1*
X26768Y46233D1*
X26764Y46215D1*
X26758Y46197D1*
X26750Y46180D1*
X26742Y46163D1*
X26732Y46147D1*
X26721Y46132D1*
X26709Y46117D1*
X26696Y46103D1*
X26682Y46090D1*
X26667Y46078D1*
X26651Y46068D1*
X26635Y46058D1*
X26618Y46049D1*
X26600Y46041D1*
X26581Y46035D1*
X26563Y46030D1*
X26544Y46026D1*
X26524Y46023D1*
X26505Y46022D1*
X26485D1*
X26466Y46023D1*
X26447Y46026D1*
X26428Y46030D1*
X26409Y46035D1*
X26391Y46041D1*
X26373Y46049D1*
X26356Y46058D1*
X26339Y46068D1*
X26323Y46078D1*
X26308Y46090D1*
X26294Y46103D1*
X26281Y46117D1*
X26269Y46132D1*
X26258Y46147D1*
X26249Y46163D1*
X26240Y46180D1*
X26233Y46197D1*
X26227Y46215D1*
X26222Y46233D1*
X26219Y46251D1*
X26217Y46270D1*
X26216Y46289D1*
X26223Y45392D2*
Y45411D1*
X26225Y45429D1*
X26229Y45448D1*
X26233Y45466D1*
X26239Y45483D1*
X26247Y45501D1*
X26255Y45517D1*
X26265Y45533D1*
X26276Y45549D1*
X26288Y45563D1*
X26301Y45577D1*
X26315Y45590D1*
X26330Y45602D1*
X26346Y45613D1*
X26362Y45623D1*
X26379Y45632D1*
X26397Y45639D1*
X26415Y45646D1*
X26434Y45651D1*
X26453Y45655D1*
X26473Y45657D1*
X26492Y45659D1*
X26511D1*
X26531Y45657D1*
X26550Y45655D1*
X26569Y45651D1*
X26588Y45646D1*
X26606Y45639D1*
X26624Y45632D1*
X26641Y45623D1*
X26658Y45613D1*
X26674Y45602D1*
X26689Y45590D1*
X26703Y45577D1*
X26716Y45563D1*
X26728Y45549D1*
X26739Y45533D1*
X26748Y45517D1*
X26757Y45501D1*
X26764Y45483D1*
X26770Y45466D1*
X26775Y45448D1*
X26778Y45429D1*
X26780Y45411D1*
X26781Y45392D1*
X26780Y45373D1*
X26778Y45355D1*
X26775Y45337D1*
X26770Y45319D1*
X26764Y45301D1*
X26757Y45284D1*
X26748Y45267D1*
X26739Y45251D1*
X26728Y45235D1*
X26716Y45221D1*
X26703Y45207D1*
X26689Y45194D1*
X26674Y45182D1*
X26658Y45171D1*
X26641Y45161D1*
X26624Y45152D1*
X26606Y45145D1*
X26588Y45139D1*
X26569Y45133D1*
X26550Y45130D1*
X26531Y45127D1*
X26511Y45126D1*
X26492D1*
X26473Y45127D1*
X26453Y45130D1*
X26434Y45133D1*
X26415Y45139D1*
X26397Y45145D1*
X26379Y45152D1*
X26362Y45161D1*
X26346Y45171D1*
X26330Y45182D1*
X26315Y45194D1*
X26301Y45207D1*
X26288Y45221D1*
X26276Y45235D1*
X26265Y45251D1*
X26255Y45267D1*
X26247Y45284D1*
X26239Y45301D1*
X26233Y45319D1*
X26229Y45337D1*
X26225Y45355D1*
X26223Y45373D1*
Y45392D1*
X25316Y46295D2*
Y46314D1*
X25318Y46332D1*
X25322Y46351D1*
X25327Y46369D1*
X25333Y46387D1*
X25340Y46404D1*
X25348Y46421D1*
X25358Y46437D1*
X25369Y46452D1*
X25381Y46467D1*
X25394Y46481D1*
X25408Y46493D1*
X25423Y46505D1*
X25439Y46516D1*
X25455Y46526D1*
X25473Y46535D1*
X25490Y46543D1*
X25509Y46549D1*
X25527Y46554D1*
X25546Y46558D1*
X25566Y46561D1*
X25585Y46562D1*
X25605D1*
X25624Y46561D1*
X25643Y46558D1*
X25663Y46554D1*
X25681Y46549D1*
X25700Y46543D1*
X25717Y46535D1*
X25735Y46526D1*
X25751Y46516D1*
X25767Y46505D1*
X25782Y46493D1*
X25796Y46481D1*
X25809Y46467D1*
X25821Y46452D1*
X25832Y46437D1*
X25842Y46421D1*
X25850Y46404D1*
X25857Y46387D1*
X25863Y46369D1*
X25868Y46351D1*
X25871Y46332D1*
X25874Y46314D1*
Y46295D1*
Y46277D1*
X25871Y46258D1*
X25868Y46240D1*
X25863Y46222D1*
X25857Y46204D1*
X25850Y46187D1*
X25842Y46170D1*
X25832Y46154D1*
X25821Y46139D1*
X25809Y46124D1*
X25796Y46110D1*
X25782Y46097D1*
X25767Y46085D1*
X25751Y46074D1*
X25735Y46064D1*
X25717Y46056D1*
X25700Y46048D1*
X25681Y46042D1*
X25663Y46037D1*
X25643Y46033D1*
X25624Y46030D1*
X25605Y46029D1*
X25585D1*
X25566Y46030D1*
X25546Y46033D1*
X25527Y46037D1*
X25509Y46042D1*
X25490Y46048D1*
X25473Y46056D1*
X25455Y46064D1*
X25439Y46074D1*
X25423Y46085D1*
X25408Y46097D1*
X25394Y46110D1*
X25381Y46124D1*
X25369Y46139D1*
X25358Y46154D1*
X25348Y46170D1*
X25340Y46187D1*
X25333Y46204D1*
X25327Y46222D1*
X25322Y46240D1*
X25318Y46258D1*
X25316Y46277D1*
Y46295D1*
Y47192D2*
Y47210D1*
X25318Y47229D1*
X25322Y47247D1*
X25327Y47265D1*
X25333Y47283D1*
X25340Y47300D1*
X25348Y47317D1*
X25358Y47333D1*
X25369Y47349D1*
X25381Y47363D1*
X25394Y47377D1*
X25408Y47390D1*
X25423Y47402D1*
X25439Y47413D1*
X25455Y47423D1*
X25473Y47431D1*
X25490Y47439D1*
X25509Y47445D1*
X25527Y47451D1*
X25546Y47454D1*
X25566Y47457D1*
X25585Y47458D1*
X25605D1*
X25624Y47457D1*
X25643Y47454D1*
X25663Y47451D1*
X25681Y47445D1*
X25700Y47439D1*
X25717Y47431D1*
X25735Y47423D1*
X25751Y47413D1*
X25767Y47402D1*
X25782Y47390D1*
X25796Y47377D1*
X25809Y47363D1*
X25821Y47349D1*
X25832Y47333D1*
X25842Y47317D1*
X25850Y47300D1*
X25857Y47283D1*
X25863Y47265D1*
X25868Y47247D1*
X25871Y47229D1*
X25874Y47210D1*
Y47192D1*
Y47173D1*
X25871Y47155D1*
X25868Y47136D1*
X25863Y47118D1*
X25857Y47101D1*
X25850Y47083D1*
X25842Y47067D1*
X25832Y47051D1*
X25821Y47035D1*
X25809Y47020D1*
X25796Y47007D1*
X25782Y46994D1*
X25767Y46982D1*
X25751Y46971D1*
X25735Y46961D1*
X25717Y46952D1*
X25700Y46945D1*
X25681Y46938D1*
X25663Y46933D1*
X25643Y46929D1*
X25624Y46927D1*
X25605Y46925D1*
X25585D1*
X25566Y46927D1*
X25546Y46929D1*
X25527Y46933D1*
X25509Y46938D1*
X25490Y46945D1*
X25473Y46952D1*
X25455Y46961D1*
X25439Y46971D1*
X25423Y46982D1*
X25408Y46994D1*
X25394Y47007D1*
X25381Y47020D1*
X25369Y47035D1*
X25358Y47051D1*
X25348Y47067D1*
X25340Y47083D1*
X25333Y47101D1*
X25327Y47118D1*
X25322Y47136D1*
X25318Y47155D1*
X25316Y47173D1*
Y47192D1*
Y45389D2*
Y45407D1*
X25318Y45426D1*
X25322Y45444D1*
X25327Y45462D1*
X25333Y45480D1*
X25340Y45497D1*
X25348Y45514D1*
X25358Y45530D1*
X25369Y45545D1*
X25381Y45560D1*
X25394Y45574D1*
X25408Y45587D1*
X25423Y45599D1*
X25439Y45610D1*
X25455Y45620D1*
X25473Y45628D1*
X25490Y45636D1*
X25509Y45642D1*
X25527Y45647D1*
X25546Y45651D1*
X25566Y45654D1*
X25585Y45655D1*
X25605D1*
X25624Y45654D1*
X25643Y45651D1*
X25663Y45647D1*
X25681Y45642D1*
X25700Y45636D1*
X25717Y45628D1*
X25735Y45620D1*
X25751Y45610D1*
X25767Y45599D1*
X25782Y45587D1*
X25796Y45574D1*
X25809Y45560D1*
X25821Y45545D1*
X25832Y45530D1*
X25842Y45514D1*
X25850Y45497D1*
X25857Y45480D1*
X25863Y45462D1*
X25868Y45444D1*
X25871Y45426D1*
X25874Y45407D1*
Y45389D1*
Y45370D1*
X25871Y45352D1*
X25868Y45333D1*
X25863Y45315D1*
X25857Y45298D1*
X25850Y45280D1*
X25842Y45264D1*
X25832Y45247D1*
X25821Y45232D1*
X25809Y45217D1*
X25796Y45203D1*
X25782Y45191D1*
X25767Y45179D1*
X25751Y45168D1*
X25735Y45158D1*
X25717Y45149D1*
X25700Y45141D1*
X25681Y45135D1*
X25663Y45130D1*
X25643Y45126D1*
X25624Y45124D1*
X25605Y45122D1*
X25585D1*
X25566Y45124D1*
X25546Y45126D1*
X25527Y45130D1*
X25509Y45135D1*
X25490Y45141D1*
X25473Y45149D1*
X25455Y45158D1*
X25439Y45168D1*
X25423Y45179D1*
X25408Y45191D1*
X25394Y45203D1*
X25381Y45217D1*
X25369Y45232D1*
X25358Y45247D1*
X25348Y45264D1*
X25340Y45280D1*
X25333Y45298D1*
X25327Y45315D1*
X25322Y45333D1*
X25318Y45352D1*
X25316Y45370D1*
Y45389D1*
X27765Y47549D2*
D10*
X25238D1*
Y45058D1*
X27765D1*
Y47549D1*
G36*
X27705Y46955D2*
X25322D1*
Y46475D1*
X27705D1*
Y46955D1*
G37*
G36*
X26299Y47512D2*
X25832D1*
Y45035D1*
X26299D1*
Y47512D1*
G37*
G36*
X27158Y47495D2*
X26692D1*
Y45135D1*
X27158D1*
Y47495D1*
G37*
G36*
X27798Y46065D2*
X25328D1*
Y45592D1*
X27798D1*
Y46065D1*
G37*
X27102Y47165D2*
D20*
X27103Y47184D1*
X27105Y47202D1*
X27108Y47221D1*
X27113Y47239D1*
X27119Y47256D1*
X27126Y47274D1*
X27135Y47290D1*
X27145Y47306D1*
X27156Y47322D1*
X27168Y47337D1*
X27181Y47350D1*
X27195Y47363D1*
X27210Y47375D1*
X27225Y47386D1*
X27242Y47396D1*
X27259Y47405D1*
X27277Y47412D1*
X27295Y47419D1*
X27314Y47424D1*
X27333Y47428D1*
X27353Y47430D1*
X27372Y47432D1*
X27392D1*
X27411Y47430D1*
X27430Y47428D1*
X27449Y47424D1*
X27468Y47419D1*
X27486Y47412D1*
X27504Y47405D1*
X27521Y47396D1*
X27538Y47386D1*
X27554Y47375D1*
X27569Y47363D1*
X27583Y47350D1*
X27596Y47337D1*
X27608Y47322D1*
X27619Y47306D1*
X27629Y47290D1*
X27637Y47274D1*
X27644Y47256D1*
X27650Y47239D1*
X27655Y47221D1*
X27659Y47202D1*
X27661Y47184D1*
Y47165D1*
Y47147D1*
X27659Y47128D1*
X27655Y47110D1*
X27650Y47092D1*
X27644Y47074D1*
X27637Y47057D1*
X27629Y47040D1*
X27619Y47024D1*
X27608Y47008D1*
X27596Y46994D1*
X27583Y46980D1*
X27569Y46967D1*
X27554Y46955D1*
X27538Y46944D1*
X27521Y46934D1*
X27504Y46926D1*
X27486Y46918D1*
X27468Y46912D1*
X27449Y46906D1*
X27430Y46903D1*
X27411Y46900D1*
X27392Y46899D1*
X27372D1*
X27353Y46900D1*
X27333Y46903D1*
X27314Y46906D1*
X27295Y46912D1*
X27277Y46918D1*
X27259Y46926D1*
X27242Y46934D1*
X27225Y46944D1*
X27210Y46955D1*
X27195Y46967D1*
X27181Y46980D1*
X27168Y46994D1*
X27156Y47008D1*
X27145Y47024D1*
X27135Y47040D1*
X27126Y47057D1*
X27119Y47074D1*
X27113Y47092D1*
X27108Y47110D1*
X27105Y47128D1*
X27103Y47147D1*
X27102Y47165D1*
D68*
X27748Y48338D3*
X27248D3*
X26748D3*
X26248D3*
X25748D3*
X25248D3*
D67*
X24448Y47538D3*
Y47038D3*
Y46538D3*
Y46038D3*
Y45538D3*
Y45038D3*
D68*
X25248Y44238D3*
X25748D3*
X26248D3*
X26748D3*
X27248D3*
X27748D3*
D67*
X28548Y45038D3*
Y45538D3*
Y46038D3*
Y46538D3*
Y47038D3*
Y47538D3*
D29*
X24193Y59731D3*
Y58431D3*
Y57131D3*
X26393D3*
Y58431D3*
Y59731D3*
G36*
X31887Y50890D2*
X31960Y50896D1*
X32031Y50915D1*
X32097Y50946D1*
X32157Y50988D1*
X32208Y51040D1*
X32250Y51099D1*
X32281Y51166D1*
X32300Y51236D1*
X32306Y51309D1*
D1*
X32300Y51382D1*
X32281Y51452D1*
X32250Y51518D1*
X32208Y51578D1*
X32157Y51630D1*
X32097Y51672D1*
X32031Y51702D1*
X31960Y51721D1*
X31887Y51728D1*
D1*
X31815Y51721D1*
X31744Y51702D1*
X31678Y51672D1*
X31618Y51630D1*
X31567Y51578D1*
X31525Y51518D1*
X31494Y51452D1*
X31475Y51382D1*
X31469Y51309D1*
D1*
X31475Y51236D1*
X31494Y51166D1*
X31525Y51099D1*
X31567Y51040D1*
X31618Y50988D1*
X31678Y50946D1*
X31744Y50915D1*
X31815Y50896D1*
X31887Y50890D1*
G37*
G36*
Y49620D2*
X31960Y49626D1*
X32031Y49645D1*
X32097Y49676D1*
X32157Y49718D1*
X32208Y49770D1*
X32250Y49829D1*
X32281Y49896D1*
X32300Y49966D1*
X32306Y50039D1*
D1*
X32300Y50112D1*
X32281Y50182D1*
X32250Y50248D1*
X32208Y50308D1*
X32157Y50360D1*
X32097Y50402D1*
X32031Y50432D1*
X31960Y50451D1*
X31887Y50458D1*
D1*
X31815Y50451D1*
X31744Y50432D1*
X31678Y50402D1*
X31618Y50360D1*
X31567Y50308D1*
X31525Y50248D1*
X31494Y50182D1*
X31475Y50112D1*
X31469Y50039D1*
D1*
X31475Y49966D1*
X31494Y49896D1*
X31525Y49829D1*
X31567Y49770D1*
X31618Y49718D1*
X31678Y49676D1*
X31744Y49645D1*
X31815Y49626D1*
X31887Y49620D1*
G37*
G36*
Y48350D2*
X31960Y48356D1*
X32031Y48375D1*
X32097Y48406D1*
X32157Y48448D1*
X32208Y48500D1*
X32250Y48559D1*
X32281Y48626D1*
X32300Y48696D1*
X32306Y48769D1*
D1*
X32300Y48842D1*
X32281Y48912D1*
X32250Y48978D1*
X32208Y49038D1*
X32157Y49090D1*
X32097Y49132D1*
X32031Y49162D1*
X31960Y49181D1*
X31887Y49188D1*
D1*
X31815Y49181D1*
X31744Y49162D1*
X31678Y49132D1*
X31618Y49090D1*
X31567Y49038D1*
X31525Y48978D1*
X31494Y48912D1*
X31475Y48842D1*
X31469Y48769D1*
D1*
X31475Y48696D1*
X31494Y48626D1*
X31525Y48559D1*
X31567Y48500D1*
X31618Y48448D1*
X31678Y48406D1*
X31744Y48375D1*
X31815Y48356D1*
X31887Y48350D1*
G37*
G36*
X30617D2*
X30690Y48356D1*
X30761Y48375D1*
X30827Y48406D1*
X30887Y48448D1*
X30938Y48500D1*
X30980Y48559D1*
X31011Y48626D1*
X31030Y48696D1*
X31036Y48769D1*
D1*
X31030Y48842D1*
X31011Y48912D1*
X30980Y48978D1*
X30938Y49038D1*
X30887Y49090D1*
X30827Y49132D1*
X30761Y49162D1*
X30690Y49181D1*
X30617Y49188D1*
D1*
X30545Y49181D1*
X30474Y49162D1*
X30408Y49132D1*
X30348Y49090D1*
X30297Y49038D1*
X30255Y48978D1*
X30224Y48912D1*
X30205Y48842D1*
X30199Y48769D1*
D1*
X30205Y48696D1*
X30224Y48626D1*
X30255Y48559D1*
X30297Y48500D1*
X30348Y48448D1*
X30408Y48406D1*
X30474Y48375D1*
X30545Y48356D1*
X30617Y48350D1*
G37*
G36*
Y49620D2*
X30690Y49626D1*
X30761Y49645D1*
X30827Y49676D1*
X30887Y49718D1*
X30938Y49770D1*
X30980Y49829D1*
X31011Y49896D1*
X31030Y49966D1*
X31036Y50039D1*
D1*
X31030Y50112D1*
X31011Y50182D1*
X30980Y50248D1*
X30938Y50308D1*
X30887Y50360D1*
X30827Y50402D1*
X30761Y50432D1*
X30690Y50451D1*
X30617Y50458D1*
D1*
X30545Y50451D1*
X30474Y50432D1*
X30408Y50402D1*
X30348Y50360D1*
X30297Y50308D1*
X30255Y50248D1*
X30224Y50182D1*
X30205Y50112D1*
X30199Y50039D1*
D1*
X30205Y49966D1*
X30224Y49896D1*
X30255Y49829D1*
X30297Y49770D1*
X30348Y49718D1*
X30408Y49676D1*
X30474Y49645D1*
X30545Y49626D1*
X30617Y49620D1*
G37*
G36*
Y50890D2*
X30690Y50896D1*
X30761Y50915D1*
X30827Y50946D1*
X30887Y50988D1*
X30938Y51040D1*
X30980Y51099D1*
X31011Y51166D1*
X31030Y51236D1*
X31036Y51309D1*
D1*
X31030Y51382D1*
X31011Y51452D1*
X30980Y51518D1*
X30938Y51578D1*
X30887Y51630D1*
X30827Y51672D1*
X30761Y51702D1*
X30690Y51721D1*
X30617Y51728D1*
D1*
X30545Y51721D1*
X30474Y51702D1*
X30408Y51672D1*
X30348Y51630D1*
X30297Y51578D1*
X30255Y51518D1*
X30224Y51452D1*
X30205Y51382D1*
X30199Y51309D1*
D1*
X30205Y51236D1*
X30224Y51166D1*
X30255Y51099D1*
X30297Y51040D1*
X30348Y50988D1*
X30408Y50946D1*
X30474Y50915D1*
X30545Y50896D1*
X30617Y50890D1*
G37*
D47*
X31252Y52579D3*
X32268Y47499D3*
X30236D3*
D63*
X29118Y38855D3*
Y40705D3*
Y42555D3*
X24118D3*
Y40705D3*
Y38855D3*
D62*
X22758Y59261D3*
Y57561D3*
D61*
X26131Y55949D3*
X24431D3*
D60*
X28452Y59786D3*
Y58086D3*
G36*
X18599Y40376D2*
X18795Y40253D1*
X19027Y40227D1*
X19248Y40304D1*
X19413Y40470D1*
X19491Y40691D1*
X19465Y40923D1*
X19342Y41119D1*
X18984Y41476D1*
X18788Y41599D1*
X18556Y41625D1*
X18335Y41548D1*
X18170Y41383D1*
X18092Y41162D1*
X18119Y40929D1*
X18242Y40734D1*
X18599Y40376D1*
G37*
G36*
X19907Y41684D2*
X20103Y41561D1*
X20335Y41535D1*
X20556Y41612D1*
X20722Y41778D1*
X20799Y41999D1*
X20773Y42231D1*
X20650Y42427D1*
X20292Y42784D1*
X20097Y42907D1*
X19864Y42933D1*
X19643Y42856D1*
X19478Y42691D1*
X19401Y42470D1*
X19427Y42237D1*
X19550Y42042D1*
X19907Y41684D1*
G37*
G36*
X21215Y42992D2*
X21411Y42870D1*
X21644Y42843D1*
X21864Y42921D1*
X22030Y43086D1*
X22107Y43307D1*
X22081Y43539D1*
X21958Y43735D1*
X21600Y44092D1*
X21405Y44215D1*
X21172Y44242D1*
X20951Y44164D1*
X20786Y43999D1*
X20709Y43778D1*
X20735Y43546D1*
X20858Y43350D1*
X21215Y42992D1*
G37*
G36*
X17680Y46528D2*
X17876Y46405D1*
X18108Y46379D1*
X18329Y46456D1*
X18494Y46622D1*
X18571Y46842D1*
X18545Y47075D1*
X18422Y47270D1*
X18065Y47628D1*
X17869Y47751D1*
X17637Y47777D1*
X17416Y47700D1*
X17250Y47534D1*
X17173Y47314D1*
X17199Y47081D1*
X17322Y46886D1*
X17680Y46528D1*
G37*
G36*
X16372Y45220D2*
X16567Y45097D1*
X16800Y45071D1*
X17021Y45148D1*
X17186Y45313D1*
X17263Y45534D1*
X17237Y45767D1*
X17114Y45962D1*
X16757Y46320D1*
X16561Y46443D1*
X16329Y46469D1*
X16108Y46392D1*
X15942Y46226D1*
X15865Y46005D1*
X15891Y45773D1*
X16014Y45577D1*
X16372Y45220D1*
G37*
G36*
X15064Y43912D2*
X15259Y43789D1*
X15492Y43763D1*
X15713Y43840D1*
X15878Y44005D1*
X15955Y44226D1*
X15929Y44459D1*
X15806Y44654D1*
X15449Y45012D1*
X15253Y45135D1*
X15020Y45161D1*
X14800Y45084D1*
X14634Y44918D1*
X14557Y44697D1*
X14583Y44465D1*
X14706Y44269D1*
X15064Y43912D1*
G37*
D59*
X13309Y49664D3*
X15159D3*
X17009D3*
Y54664D3*
X15159D3*
X13309D3*
G36*
X14706Y60766D2*
X14583Y60570D1*
X14557Y60338D1*
X14634Y60117D1*
X14800Y59952D1*
X15020Y59874D1*
X15253Y59901D1*
X15449Y60023D1*
X15806Y60381D1*
X15929Y60577D1*
X15955Y60809D1*
X15878Y61030D1*
X15713Y61195D1*
X15492Y61273D1*
X15259Y61246D1*
X15064Y61123D1*
X14706Y60766D1*
G37*
G36*
X16014Y59458D2*
X15891Y59262D1*
X15865Y59030D1*
X15942Y58809D1*
X16108Y58643D1*
X16329Y58566D1*
X16561Y58592D1*
X16757Y58715D1*
X17114Y59073D1*
X17237Y59268D1*
X17263Y59501D1*
X17186Y59722D1*
X17021Y59887D1*
X16800Y59964D1*
X16567Y59938D1*
X16372Y59815D1*
X16014Y59458D1*
G37*
G36*
X17322Y58150D2*
X17199Y57954D1*
X17173Y57722D1*
X17251Y57501D1*
X17416Y57335D1*
X17637Y57258D1*
X17869Y57284D1*
X18065Y57407D1*
X18422Y57765D1*
X18545Y57960D1*
X18571Y58193D1*
X18494Y58414D1*
X18329Y58579D1*
X18108Y58656D1*
X17876Y58630D1*
X17680Y58507D1*
X17322Y58150D1*
G37*
G36*
X20858Y61685D2*
X20735Y61490D1*
X20709Y61257D1*
X20786Y61036D1*
X20951Y60871D1*
X21172Y60794D1*
X21405Y60820D1*
X21600Y60943D1*
X21958Y61300D1*
X22081Y61496D1*
X22107Y61728D1*
X22030Y61949D1*
X21864Y62115D1*
X21644Y62192D1*
X21411Y62166D1*
X21215Y62043D1*
X20858Y61685D1*
G37*
G36*
X19550Y62993D2*
X19427Y62798D1*
X19401Y62565D1*
X19478Y62344D1*
X19643Y62179D1*
X19864Y62102D1*
X20097Y62128D1*
X20292Y62251D1*
X20650Y62608D1*
X20773Y62804D1*
X20799Y63036D1*
X20722Y63257D1*
X20556Y63423D1*
X20335Y63500D1*
X20103Y63474D1*
X19907Y63351D1*
X19550Y62993D1*
G37*
G36*
X18242Y64301D2*
X18119Y64106D1*
X18092Y63873D1*
X18170Y63653D1*
X18335Y63487D1*
X18556Y63410D1*
X18788Y63436D1*
X18984Y63559D1*
X19342Y63917D1*
X19465Y64112D1*
X19491Y64345D1*
X19413Y64565D1*
X19248Y64731D1*
X19027Y64808D1*
X18795Y64782D1*
X18599Y64659D1*
X18242Y64301D1*
G37*
D63*
X24118Y65473D3*
Y63623D3*
Y61773D3*
X29118D3*
Y63623D3*
Y65473D3*
G36*
X34271Y64659D2*
X34075Y64782D1*
X33843Y64808D1*
X33622Y64731D1*
X33456Y64565D1*
X33379Y64345D1*
X33405Y64112D1*
X33528Y63917D1*
X33886Y63559D1*
X34082Y63436D1*
X34314Y63410D1*
X34535Y63487D1*
X34700Y63653D1*
X34777Y63873D1*
X34751Y64106D1*
X34628Y64301D1*
X34271Y64659D1*
G37*
G36*
X32963Y63351D2*
X32767Y63474D1*
X32535Y63500D1*
X32314Y63423D1*
X32148Y63257D1*
X32071Y63037D1*
X32097Y62804D1*
X32220Y62608D1*
X32578Y62251D1*
X32773Y62128D1*
X33006Y62102D1*
X33227Y62179D1*
X33392Y62344D1*
X33469Y62565D1*
X33443Y62798D1*
X33320Y62993D1*
X32963Y63351D1*
G37*
G36*
X31655Y62043D2*
X31459Y62166D1*
X31226Y62192D1*
X31006Y62115D1*
X30840Y61949D1*
X30763Y61728D1*
X30789Y61496D1*
X30912Y61300D1*
X31270Y60943D1*
X31465Y60820D1*
X31698Y60794D1*
X31919Y60871D1*
X32084Y61036D1*
X32161Y61257D1*
X32135Y61490D1*
X32012Y61685D1*
X31655Y62043D1*
G37*
G36*
X35190Y58507D2*
X34994Y58630D1*
X34762Y58656D1*
X34541Y58579D1*
X34376Y58414D1*
X34298Y58193D1*
X34325Y57960D1*
X34448Y57765D1*
X34805Y57407D1*
X35001Y57284D1*
X35233Y57258D1*
X35454Y57335D1*
X35619Y57501D1*
X35697Y57722D1*
X35671Y57954D1*
X35548Y58150D1*
X35190Y58507D1*
G37*
G36*
X36498Y59815D2*
X36303Y59938D1*
X36070Y59964D1*
X35849Y59887D1*
X35684Y59722D1*
X35607Y59501D1*
X35633Y59269D1*
X35756Y59073D1*
X36113Y58715D1*
X36309Y58592D1*
X36541Y58566D1*
X36762Y58643D1*
X36928Y58809D1*
X37005Y59030D1*
X36979Y59262D1*
X36856Y59458D1*
X36498Y59815D1*
G37*
G36*
X37806Y61123D2*
X37611Y61246D1*
X37378Y61273D1*
X37157Y61195D1*
X36992Y61030D1*
X36915Y60809D1*
X36941Y60577D1*
X37064Y60381D1*
X37421Y60023D1*
X37617Y59901D1*
X37850Y59874D1*
X38070Y59952D1*
X38236Y60117D1*
X38313Y60338D1*
X38287Y60570D1*
X38164Y60766D1*
X37806Y61123D1*
G37*
D59*
X39927Y54664D3*
X38077D3*
X36227D3*
Y49664D3*
X38077D3*
X39927D3*
G36*
X38164Y44269D2*
X38287Y44465D1*
X38313Y44697D1*
X38236Y44918D1*
X38070Y45084D1*
X37850Y45161D1*
X37617Y45135D1*
X37421Y45012D1*
X37064Y44654D1*
X36941Y44459D1*
X36915Y44226D1*
X36992Y44005D1*
X37157Y43840D1*
X37378Y43763D1*
X37611Y43789D1*
X37806Y43912D1*
X38164Y44269D1*
G37*
G36*
X36856Y45577D2*
X36979Y45773D1*
X37005Y46006D1*
X36928Y46226D1*
X36762Y46392D1*
X36541Y46469D1*
X36309Y46443D1*
X36113Y46320D1*
X35756Y45962D1*
X35633Y45767D1*
X35607Y45534D1*
X35684Y45313D1*
X35849Y45148D1*
X36070Y45071D1*
X36303Y45097D1*
X36498Y45220D1*
X36856Y45577D1*
G37*
G36*
X35548Y46886D2*
X35671Y47081D1*
X35697Y47314D1*
X35619Y47534D1*
X35454Y47700D1*
X35233Y47777D1*
X35001Y47751D1*
X34805Y47628D1*
X34448Y47270D1*
X34325Y47075D1*
X34298Y46842D1*
X34376Y46622D1*
X34541Y46456D1*
X34762Y46379D1*
X34994Y46405D1*
X35190Y46528D1*
X35548Y46886D1*
G37*
G36*
X32012Y43350D2*
X32135Y43546D1*
X32161Y43778D1*
X32084Y43999D1*
X31919Y44164D1*
X31698Y44242D1*
X31465Y44215D1*
X31270Y44092D1*
X30912Y43735D1*
X30789Y43539D1*
X30763Y43307D1*
X30840Y43086D1*
X31006Y42921D1*
X31226Y42843D1*
X31459Y42870D1*
X31655Y42992D1*
X32012Y43350D1*
G37*
G36*
X33320Y42042D2*
X33443Y42238D1*
X33469Y42470D1*
X33392Y42691D1*
X33227Y42856D1*
X33006Y42933D1*
X32773Y42907D1*
X32578Y42784D1*
X32220Y42427D1*
X32097Y42231D1*
X32071Y41999D1*
X32148Y41778D1*
X32314Y41612D1*
X32535Y41535D1*
X32767Y41561D1*
X32963Y41684D1*
X33320Y42042D1*
G37*
G36*
X34628Y40734D2*
X34751Y40929D1*
X34777Y41162D1*
X34700Y41383D1*
X34535Y41548D1*
X34314Y41625D1*
X34082Y41599D1*
X33886Y41476D1*
X33528Y41119D1*
X33405Y40923D1*
X33379Y40691D1*
X33457Y40470D1*
X33622Y40304D1*
X33843Y40227D1*
X34075Y40253D1*
X34271Y40376D1*
X34628Y40734D1*
G37*
G36*
X19567Y49070D2*
X20417D1*
Y48020D1*
X19567D1*
Y49070D1*
G37*
G36*
X21767D2*
X22617D1*
Y48020D1*
X21767D1*
Y49070D1*
G37*
G36*
Y56370D2*
X22617D1*
Y55320D1*
X21767D1*
Y56370D1*
G37*
G36*
X19567D2*
X20417D1*
Y55320D1*
X19567D1*
Y56370D1*
G37*
G36*
X18567Y54820D2*
X20117D1*
Y54070D1*
X18567D1*
Y54820D1*
G37*
G36*
Y53320D2*
X20117D1*
Y52570D1*
X18567D1*
Y53320D1*
G37*
G36*
Y50320D2*
X20117D1*
Y49570D1*
X18567D1*
Y50320D1*
G37*
D48*
X21092Y53695D3*
Y50695D3*
D59*
X28468Y34205D3*
X26618D3*
X24768D3*
Y29205D3*
X26618D3*
X28468D3*
Y25205D3*
X26618D3*
X24768D3*
Y20205D3*
X26618D3*
X28468D3*
Y16205D3*
X26618D3*
X24768D3*
Y11205D3*
X26618D3*
X28468D3*
X15768Y20205D3*
X17618D3*
X19468D3*
Y25205D3*
X17618D3*
X15768D3*
D56*
X26773Y52857D3*
X25473D3*
D55*
X34318Y54826D3*
Y53526D3*
D56*
X32406Y54510D3*
X31106D3*
X32089Y58000D3*
X30789D3*
X29867Y53674D3*
X28567D3*
X29704Y56201D3*
X28404D3*
D61*
X29712Y54944D3*
X28012D3*
D54*
X32448Y55528D3*
Y56028D3*
Y56528D3*
Y57028D3*
D53*
X31948D3*
X31448D3*
D54*
X30948D3*
Y56528D3*
Y56028D3*
Y55528D3*
D53*
X31448D3*
X31948D3*
D59*
X37468Y25205D3*
X35618D3*
X33768D3*
Y20205D3*
X35618D3*
X37468D3*
D49*
X26618Y69944D3*
M02*
