G04 DipTrace 2.4.0.2*
%INfemale.gbo*%
%MOMM*%
%ADD10C,0.25*%
%ADD44O,4.663X3.825*%
%ADD69C,0.118*%
%ADD70C,0.314*%
%FSLAX53Y53*%
G04*
G71*
G90*
G75*
G01*
%LNBotSilk*%
%LPD*%
X36597Y51167D2*
D10*
G02X39947Y54191I3237J-218D01*
G01*
D44*
X39653Y52404D3*
G36*
X36672Y51117D2*
X38722Y50966D1*
X39297Y53916D1*
X37372Y53017D1*
X36847Y52067D1*
D1*
X36672Y51117D1*
G37*
X26897Y68220D2*
D69*
Y67454D1*
X26700D1*
X26634Y67491D1*
X26612Y67528D1*
X26591Y67600D1*
Y67709D1*
X26612Y67783D1*
X26634Y67819D1*
X26700Y67855D1*
X26634Y67892D1*
X26612Y67928D1*
X26591Y68001D1*
Y68074D1*
X26612Y68147D1*
X26634Y68184D1*
X26700Y68220D1*
X26897D1*
Y67855D2*
X26700D1*
X26450Y68073D2*
X26406Y68110D1*
X26340Y68219D1*
Y67454D1*
X32118Y64561D2*
X31943Y63795D1*
X31768Y64561D1*
X31299Y64379D2*
X31321Y64451D1*
X31364Y64525D1*
X31408Y64561D1*
X31495D1*
X31539Y64525D1*
X31583Y64451D1*
X31605Y64379D1*
X31627Y64269D1*
Y64087D1*
X31605Y63978D1*
X31583Y63905D1*
X31539Y63832D1*
X31495Y63795D1*
X31408D1*
X31364Y63832D1*
X31321Y63905D1*
X31299Y63978D1*
X30830Y64379D2*
X30851Y64451D1*
X30895Y64525D1*
X30939Y64561D1*
X31026D1*
X31070Y64525D1*
X31114Y64451D1*
X31136Y64379D1*
X31158Y64269D1*
Y64087D1*
X31136Y63978D1*
X31114Y63905D1*
X31070Y63832D1*
X31026Y63795D1*
X30939D1*
X30895Y63832D1*
X30851Y63905D1*
X30830Y63978D1*
X33963Y63348D2*
X34006Y63422D1*
X34072Y63458D1*
X34159D1*
X34225Y63422D1*
X34269Y63348D1*
Y63276D1*
X34247Y63203D1*
X34225Y63166D1*
X34181Y63130D1*
X34050Y63057D1*
X34006Y63021D1*
X33984Y62984D1*
X33963Y62911D1*
Y62802D1*
X34006Y62729D1*
X34072Y62692D1*
X34159D1*
X34225Y62729D1*
X34269Y62802D1*
X33821Y63458D2*
X33712Y62692D1*
X33603Y63458D1*
X33493Y62692D1*
X33384Y63458D1*
X33243D2*
Y62692D1*
X33089D1*
X33024Y62729D1*
X32980Y62802D1*
X32958Y62875D1*
X32936Y62984D1*
Y63166D1*
X32958Y63276D1*
X32980Y63348D1*
X33024Y63422D1*
X33089Y63458D1*
X33243D1*
X32795D2*
Y62692D1*
X32523Y63458D2*
X32567Y63422D1*
X32610Y63348D1*
X32632Y63276D1*
X32654Y63166D1*
Y62984D1*
X32632Y62875D1*
X32610Y62802D1*
X32567Y62729D1*
X32523Y62692D1*
X32435D1*
X32392Y62729D1*
X32348Y62802D1*
X32326Y62875D1*
X32304Y62984D1*
Y63166D1*
X32326Y63276D1*
X32348Y63348D1*
X32392Y63422D1*
X32435Y63458D1*
X32523D1*
X36059Y61792D2*
X35863D1*
X35797Y61830D1*
X35775Y61866D1*
X35753Y61938D1*
Y62011D1*
X35775Y62084D1*
X35797Y62121D1*
X35863Y62157D1*
X36059D1*
Y61392D1*
X35906Y61792D2*
X35753Y61392D1*
X35612Y61683D2*
X35350D1*
Y61756D1*
X35371Y61830D1*
X35393Y61866D1*
X35437Y61902D1*
X35503D1*
X35546Y61866D1*
X35590Y61792D1*
X35612Y61683D1*
Y61611D1*
X35590Y61501D1*
X35546Y61429D1*
X35503Y61392D1*
X35437D1*
X35393Y61429D1*
X35350Y61501D1*
X34968Y61792D2*
X34990Y61866D1*
X35055Y61902D1*
X35121D1*
X35187Y61866D1*
X35208Y61792D1*
X35187Y61720D1*
X35143Y61683D1*
X35034Y61647D1*
X34990Y61611D1*
X34968Y61537D1*
Y61501D1*
X34990Y61429D1*
X35055Y61392D1*
X35121D1*
X35187Y61429D1*
X35208Y61501D1*
X34827Y61683D2*
X34564D1*
Y61756D1*
X34586Y61830D1*
X34608Y61866D1*
X34652Y61902D1*
X34717D1*
X34761Y61866D1*
X34805Y61792D1*
X34827Y61683D1*
Y61611D1*
X34805Y61501D1*
X34761Y61429D1*
X34717Y61392D1*
X34652D1*
X34608Y61429D1*
X34564Y61501D1*
X34357Y62157D2*
Y61537D1*
X34336Y61429D1*
X34292Y61392D1*
X34248D1*
X34423Y61902D2*
X34270D1*
X38602Y58288D2*
X38646Y58361D1*
X38711Y58398D1*
X38799D1*
X38864Y58361D1*
X38908Y58288D1*
Y58216D1*
X38886Y58142D1*
X38864Y58106D1*
X38821Y58070D1*
X38690Y57997D1*
X38646Y57960D1*
X38624Y57923D1*
X38602Y57851D1*
Y57741D1*
X38646Y57669D1*
X38711Y57632D1*
X38799D1*
X38864Y57669D1*
X38908Y57741D1*
X38461Y58398D2*
X38351Y57632D1*
X38242Y58398D1*
X38133Y57632D1*
X38023Y58398D1*
X37554Y58216D2*
X37576Y58288D1*
X37620Y58361D1*
X37663Y58398D1*
X37751D1*
X37795Y58361D1*
X37838Y58288D1*
X37860Y58216D1*
X37882Y58106D1*
Y57923D1*
X37860Y57815D1*
X37838Y57741D1*
X37795Y57669D1*
X37751Y57632D1*
X37663D1*
X37620Y57669D1*
X37576Y57741D1*
X37554Y57815D1*
X37413Y58398D2*
Y57632D1*
X37151D1*
X37010Y58398D2*
Y57632D1*
X36703Y58398D2*
X37010Y57887D1*
X36900Y58070D2*
X36703Y57632D1*
X39592Y55839D2*
X39614Y55912D1*
X39658Y55985D1*
X39701Y56021D1*
X39788D1*
X39832Y55985D1*
X39876Y55912D1*
X39898Y55839D1*
X39920Y55730D1*
Y55547D1*
X39898Y55438D1*
X39876Y55365D1*
X39832Y55293D1*
X39788Y55256D1*
X39701D1*
X39658Y55293D1*
X39614Y55365D1*
X39592Y55438D1*
Y55547D1*
X39701D1*
X39144Y56021D2*
Y55256D1*
X39451Y56021D1*
Y55256D1*
X39003Y56021D2*
Y55256D1*
X38850D1*
X38784Y55293D1*
X38740Y55365D1*
X38719Y55438D1*
X38697Y55547D1*
Y55730D1*
X38719Y55839D1*
X38740Y55912D1*
X38784Y55985D1*
X38850Y56021D1*
X39003D1*
X35865Y44902D2*
D70*
Y43637D1*
X33823D1*
X34892D2*
Y44414D1*
X35184Y45628D2*
X33823Y46210D1*
X33435Y46017D1*
X33239Y45821D1*
X33143Y45628D1*
Y45529D1*
X35184Y46794D2*
X33823Y46210D1*
X35865Y47421D2*
X33823D1*
X34892D2*
X35088Y47617D1*
X35184Y47810D1*
Y48102D1*
X35088Y48295D1*
X34892Y48490D1*
X34600Y48587D1*
X34407D1*
X34115Y48490D1*
X33922Y48295D1*
X33823Y48102D1*
Y47810D1*
X33922Y47617D1*
X34115Y47421D1*
X34600Y49214D2*
Y50380D1*
X34796D1*
X34991Y50284D1*
X35088Y50187D1*
X35184Y49992D1*
Y49700D1*
X35088Y49506D1*
X34892Y49311D1*
X34600Y49214D1*
X34407D1*
X34115Y49311D1*
X33922Y49506D1*
X33823Y49700D1*
Y49992D1*
X33922Y50187D1*
X34115Y50380D1*
X35184Y51008D2*
X33823D1*
X34600D2*
X34892Y51106D1*
X35088Y51300D1*
X35184Y51495D1*
Y51787D1*
X35865Y54390D2*
X33823D1*
Y55555D1*
X35184Y57349D2*
X33823D1*
X34892D2*
X35088Y57155D1*
X35184Y56960D1*
Y56670D1*
X35088Y56475D1*
X34892Y56282D1*
X34600Y56183D1*
X34407D1*
X34115Y56282D1*
X33922Y56475D1*
X33823Y56670D1*
Y56960D1*
X33922Y57155D1*
X34115Y57349D1*
X35865Y57976D2*
X33823D1*
X34892D2*
X35088Y58171D1*
X35184Y58365D1*
Y58657D1*
X35088Y58850D1*
X34892Y59045D1*
X34600Y59142D1*
X34407D1*
X34115Y59045D1*
X33922Y58850D1*
X33823Y58657D1*
Y58365D1*
X33922Y58171D1*
X34115Y57976D1*
X34892Y60838D2*
X35088Y60742D1*
X35184Y60450D1*
Y60158D1*
X35088Y59866D1*
X34892Y59769D1*
X34699Y59866D1*
X34600Y60061D1*
X34504Y60546D1*
X34407Y60742D1*
X34212Y60838D1*
X34115D1*
X33922Y60742D1*
X33823Y60450D1*
Y60158D1*
X33922Y59866D1*
X34115Y59769D1*
X19410Y47043D2*
X17368D1*
X19410Y46363D2*
Y47724D1*
Y48351D2*
X19314Y48448D1*
X19410Y48547D1*
X19509Y48448D1*
X19410Y48351D1*
X18730Y48448D2*
X17368D1*
X18730Y49174D2*
X17368D1*
X18341D2*
X18633Y49466D1*
X18730Y49661D1*
Y49951D1*
X18633Y50147D1*
X18341Y50243D1*
X17368D1*
X18730Y50969D2*
X17368Y51551D1*
X16980Y51358D1*
X16784Y51163D1*
X16688Y50969D1*
Y50871D1*
X18730Y52135D2*
X17368Y51551D1*
X19410Y52763D2*
X17368D1*
Y53928D1*
X19410Y55818D2*
Y54556D1*
X17368D1*
Y55818D1*
X18438Y54556D2*
Y55333D1*
X19410Y56446D2*
X17368D1*
Y57126D1*
X17467Y57418D1*
X17660Y57614D1*
X17856Y57710D1*
X18146Y57807D1*
X18633D1*
X18925Y57710D1*
X19118Y57614D1*
X19314Y57418D1*
X19410Y57126D1*
Y56446D1*
X26796Y13199D2*
Y14073D1*
X26895Y14365D1*
X26992Y14463D1*
X27185Y14560D1*
X27380D1*
X27574Y14463D1*
X27672Y14365D1*
X27769Y14073D1*
Y13199D1*
X25727D1*
X26796Y13879D2*
X25727Y14560D1*
X26504Y15187D2*
Y16353D1*
X26700D1*
X26895Y16257D1*
X26992Y16160D1*
X27088Y15965D1*
Y15673D1*
X26992Y15479D1*
X26796Y15284D1*
X26504Y15187D1*
X26311D1*
X26019Y15284D1*
X25826Y15479D1*
X25727Y15673D1*
Y15965D1*
X25826Y16160D1*
X26019Y16353D1*
X27088Y16981D2*
X25727Y17565D1*
X27088Y18146D1*
X25923Y18870D2*
X25824Y18774D1*
X25727Y18870D1*
X25824Y18969D1*
X25923Y18870D1*
X27767Y22156D2*
X27670Y21864D1*
X27378Y21668D1*
X26893Y21572D1*
X26601D1*
X26116Y21668D1*
X25824Y21864D1*
X25727Y22156D1*
Y22349D1*
X25824Y22641D1*
X26116Y22834D1*
X26601Y22933D1*
X26893D1*
X27378Y22834D1*
X27670Y22641D1*
X27767Y22349D1*
Y22156D1*
X27378Y22834D2*
X26116Y21668D1*
X25923Y23657D2*
X25824Y23560D1*
X25727Y23657D1*
X25824Y23756D1*
X25923Y23657D1*
X27767Y25549D2*
Y24579D1*
X26893Y24482D1*
X26990Y24579D1*
X27088Y24871D1*
Y25160D1*
X26990Y25452D1*
X26796Y25648D1*
X26504Y25744D1*
X26311D1*
X26019Y25648D1*
X25824Y25452D1*
X25727Y25160D1*
Y24871D1*
X25824Y24579D1*
X25923Y24482D1*
X26116Y24383D1*
X27256Y27920D2*
X27353D1*
X27548Y28017D1*
X27645Y28113D1*
X27742Y28309D1*
Y28697D1*
X27645Y28890D1*
X27548Y28987D1*
X27353Y29086D1*
X27160D1*
X26964Y28987D1*
X26675Y28794D1*
X25702Y27821D1*
Y29182D1*
X27742Y30394D2*
X27645Y30102D1*
X27353Y29906D1*
X26868Y29810D1*
X26576D1*
X26091Y29906D1*
X25799Y30102D1*
X25702Y30394D1*
Y30587D1*
X25799Y30879D1*
X26091Y31072D1*
X26576Y31171D1*
X26868D1*
X27353Y31072D1*
X27645Y30879D1*
X27742Y30587D1*
Y30394D1*
X27353Y31072D2*
X26091Y29906D1*
X27353Y31798D2*
X27452Y31994D1*
X27742Y32286D1*
X25702D1*
X27742Y34079D2*
Y33109D1*
X26868Y33012D1*
X26964Y33109D1*
X27063Y33401D1*
Y33691D1*
X26964Y33983D1*
X26771Y34178D1*
X26479Y34275D1*
X26286D1*
X25994Y34178D1*
X25799Y33983D1*
X25702Y33691D1*
Y33401D1*
X25799Y33109D1*
X25897Y33012D1*
X26091Y32913D1*
X15761Y48431D2*
Y47167D1*
X13720D1*
X14789D2*
Y47944D1*
X14497Y49059D2*
Y50224D1*
X14692D1*
X14888Y50128D1*
X14984Y50031D1*
X15081Y49836D1*
Y49544D1*
X14984Y49351D1*
X14789Y49155D1*
X14497Y49059D1*
X14304D1*
X14012Y49155D1*
X13818Y49351D1*
X13720Y49544D1*
Y49836D1*
X13818Y50031D1*
X14012Y50224D1*
X15081Y50852D2*
X13720D1*
X14692D2*
X14984Y51144D1*
X15081Y51339D1*
Y51629D1*
X14984Y51824D1*
X14692Y51921D1*
X13720D1*
X14692D2*
X14984Y52213D1*
X15081Y52408D1*
Y52698D1*
X14984Y52894D1*
X14692Y52992D1*
X13720D1*
X15081Y54786D2*
X13720D1*
X14789D2*
X14984Y54592D1*
X15081Y54397D1*
Y54107D1*
X14984Y53912D1*
X14789Y53719D1*
X14497Y53620D1*
X14304D1*
X14012Y53719D1*
X13818Y53912D1*
X13720Y54107D1*
Y54397D1*
X13818Y54592D1*
X14012Y54786D1*
X15761Y55413D2*
X13720D1*
X14497Y56041D2*
Y57206D1*
X14692D1*
X14888Y57110D1*
X14984Y57013D1*
X15081Y56818D1*
Y56526D1*
X14984Y56333D1*
X14789Y56137D1*
X14497Y56041D1*
X14304D1*
X14012Y56137D1*
X13818Y56333D1*
X13720Y56526D1*
Y56818D1*
X13818Y57013D1*
X14012Y57206D1*
M02*
