G04 DipTrace 2.4.0.2*
%INfemale.gtl*%
%MOMM*%
%ADD10C,0.25*%
%ADD13C,0.508*%
%ADD14C,0.4*%
%ADD15C,0.254*%
%ADD16C,0.305*%
%ADD17C,0.28*%
%ADD18C,0.152*%
%ADD23O,0.28X1.0*%
%ADD24O,1.0X0.28*%
%ADD25C,0.711*%
%ADD26R,2.7X2.7*%
%ADD28R,0.9X0.4*%
%ADD31O,1.5X1.0*%
%ADD32R,1.0X1.1*%
%ADD33R,1.1X1.0*%
%ADD34R,2.0X0.85*%
%ADD36O,1.0X1.5*%
%ADD39R,0.9X0.7*%
%ADD40R,0.7X0.9*%
%ADD41R,0.275X0.25*%
%ADD42R,0.25X0.275*%
%ADD45C,0.711*%
%FSLAX53Y53*%
G04*
G71*
G90*
G75*
G01*
%LNTop*%
%LPD*%
X22758Y59261D2*
D13*
X23062D1*
Y59876D1*
X24048D1*
D14*
X24193Y59731D1*
X25757D1*
D13*
D3*
D14*
X26393D1*
X27957D1*
D13*
Y59791D1*
X28447D1*
X28452Y59786D1*
X21927Y58655D2*
X22152D1*
X22758Y59261D1*
X19342Y54445D2*
Y54752D1*
X18931Y55163D1*
X30948Y56028D2*
D15*
X29877D1*
X29704Y56201D1*
X29712Y54944D2*
Y55604D1*
Y56193D1*
X29704Y56201D1*
X30948Y55528D2*
X30297D1*
X29712Y54944D1*
X29867Y53674D2*
Y54789D1*
X29712Y54944D1*
X31106Y54510D2*
X30704D1*
X29867Y53674D1*
X29743Y55604D2*
X29712D1*
X34318Y53526D2*
X33596D1*
X32090D1*
X31106Y54510D1*
X33596Y53526D2*
Y55433D1*
X33005Y56024D1*
X32452D1*
X32448Y56028D1*
X33005Y56024D2*
X33176D1*
X32701Y56499D1*
D10*
X32477D1*
X32448Y56528D1*
X28452Y59786D2*
D13*
X30049D1*
X30114Y59851D1*
X24118Y42555D2*
X24964D1*
X25665Y41855D1*
Y38427D1*
X25186Y37948D1*
X22767D1*
X20150D1*
X16446Y41652D1*
Y42650D1*
X18443Y44647D1*
Y46507D1*
X17872Y47078D1*
X16446Y41652D2*
X12310Y45789D1*
Y50860D1*
X13817Y52368D1*
X14713D1*
X17009Y54664D1*
X12310Y50860D2*
Y58999D1*
X15532Y62221D1*
X17687D1*
X19065Y60843D1*
X20758D1*
X21408Y61493D1*
X15532Y62221D2*
X19736Y66425D1*
X24896D1*
X26233Y65088D1*
Y64658D1*
X28125Y62767D1*
X29118Y61773D1*
X24896Y66425D2*
X24813Y66509D1*
X33117D1*
X35551Y64074D1*
Y62221D1*
X34062Y60732D1*
Y58892D1*
X34998Y57957D1*
X35551Y64074D2*
X40840Y58785D1*
Y53282D1*
X39783Y52224D1*
X38788D1*
X36227Y49664D1*
X40840Y53282D2*
Y46336D1*
X37411Y42906D1*
X35470D1*
X34405Y43971D1*
X31891D1*
X31462Y43542D1*
X24118Y42555D2*
Y43504D1*
X22927Y44695D1*
Y47340D1*
X25752Y50165D1*
X26748D1*
D16*
Y48338D1*
Y50165D2*
D13*
Y52241D1*
Y55331D1*
X26131Y55949D1*
Y56869D1*
D14*
X26393Y57131D1*
X30617Y51309D2*
D13*
X28552D1*
X27459Y50216D1*
X26697D1*
X26748Y50165D1*
X24193Y58431D2*
D14*
Y58566D1*
D13*
X24891D1*
X26179Y57278D1*
D14*
X26246D1*
X26393Y57131D1*
X24768Y29205D2*
D13*
Y27246D1*
X23534Y26012D1*
Y23537D1*
Y21439D1*
X23737Y21237D1*
X24768Y20205D1*
X22767Y37948D2*
X23570Y37145D1*
Y30403D1*
X24768Y29205D1*
X23737Y21237D2*
Y12237D1*
X24768Y11205D1*
X19468Y25205D2*
X22727D1*
X23534Y26012D1*
X33768Y20205D2*
X32709D1*
X32669Y20245D1*
X23597Y23537D2*
X23534D1*
X26773Y52857D2*
X26748Y52241D1*
X28073Y62715D2*
X28125Y62767D1*
X21408Y43542D2*
Y45265D1*
X17009Y49664D1*
X34998Y47078D2*
X33641D1*
X32059Y45496D1*
X29118Y42555D1*
X33641Y47078D2*
X33553D1*
Y47379D1*
X35151Y48976D1*
Y53587D1*
X36227Y54664D1*
X35151Y53587D2*
X35363D1*
Y55928D1*
Y56243D1*
X30838Y60769D1*
Y60868D1*
X31462Y61493D1*
X30838Y60769D2*
X25123D1*
X24118Y61773D1*
X25123Y60769D2*
X22450D1*
X20508Y58827D1*
X19866D1*
X18742D1*
X17872Y57957D1*
X18067D1*
Y50721D1*
X17009Y49664D1*
X24193Y57131D2*
D14*
Y55399D1*
D13*
X24511D1*
X24647D1*
Y55733D1*
X24431Y55949D1*
X24193Y57131D2*
X23188D1*
X22758Y57561D1*
X18269D1*
X17872Y57957D1*
X30617Y48769D2*
Y48665D1*
X31316Y47966D1*
Y46239D1*
X32059Y45496D1*
X26248Y48338D2*
D16*
Y49103D1*
X26053Y49298D1*
X19992Y48545D2*
D13*
X22192D1*
X19992Y55845D2*
X22192D1*
X19866Y58800D2*
Y58827D1*
X19992Y48545D2*
X22551D1*
Y52832D1*
X24455D1*
X25598Y47188D2*
X26498Y46288D1*
X26248Y48338D2*
D15*
Y46538D1*
X26498Y46288D1*
X24443Y55059D2*
D14*
X24170D1*
X24511Y55399D1*
X24431Y55949D2*
D13*
Y55071D1*
X24443Y55059D1*
X26498Y46288D2*
X27398D1*
X26248Y48338D2*
D17*
Y47584D1*
D13*
Y46538D1*
X26498Y46288D1*
X22551Y52832D2*
Y55486D1*
X22192Y55845D1*
X24768Y34205D2*
Y35391D1*
X24692Y35467D1*
X21408Y43542D2*
X21585D1*
X22287Y42840D1*
X24768Y16205D2*
Y15046D1*
X25848Y13966D1*
X28228D1*
X29636Y15375D1*
Y22564D1*
Y23972D1*
X30899Y25235D1*
X33738D1*
X33768Y25205D1*
X24768D2*
Y25052D1*
X27107Y22712D1*
X27888Y21932D1*
X29004D1*
X29636Y22564D1*
X24768Y34205D2*
Y31544D1*
X25085Y31226D1*
X28859D1*
X29381Y30705D1*
Y26053D1*
X30198Y25235D1*
X30899D1*
X19468Y20205D2*
X20666D1*
X21830Y21369D1*
X27049Y22654D2*
X27107Y22712D1*
X31448Y57028D2*
D15*
Y57378D1*
X30986Y57840D1*
X30949D1*
X30789Y58000D1*
X28567Y53674D2*
X28351D1*
Y54605D1*
X28012Y54944D1*
X28404Y56201D2*
X28213D1*
X28014Y56002D1*
X27882Y55870D1*
Y55074D1*
X28012Y54944D1*
X30789Y58000D2*
X30403D1*
Y57155D1*
X30256Y57009D1*
X28972D1*
X28374Y56412D1*
Y56231D1*
X28404Y56201D1*
X30948Y56528D2*
X30737D1*
X30403Y56863D1*
Y57155D1*
X27934Y55709D2*
X28014Y55790D1*
Y56002D1*
X24455Y52832D2*
D13*
X25448D1*
X25473Y52857D1*
X35417Y55928D2*
X35363D1*
X28452Y58086D2*
X26739D1*
D14*
X26393Y58431D1*
X31887Y51309D2*
D15*
Y51970D1*
X32226Y52309D1*
X28548Y47538D2*
Y49177D1*
X29805Y50433D1*
X28548Y46538D2*
D16*
X29954D1*
X30111Y46382D1*
X31887Y50039D2*
X32420D1*
X32529Y50148D1*
X28548Y47038D2*
D15*
X29399D1*
Y47789D1*
X29899Y48290D1*
Y49255D1*
X30683Y50039D1*
X30617D1*
X29822Y49426D2*
Y49255D1*
X29899D1*
X27748Y44238D2*
D16*
Y43484D1*
X27882D1*
Y41941D1*
X29118Y40705D1*
X27248Y44238D2*
Y43484D1*
X27137D1*
Y40836D1*
X29118Y38855D1*
X19342Y52945D2*
D13*
X19525D1*
X20348Y52121D1*
X24118Y38855D2*
X20863D1*
X18792Y40926D1*
X24118Y40705D2*
X21629D1*
X20100Y42234D1*
X15256Y44462D2*
Y44553D1*
X13723Y46086D1*
Y49250D1*
X13309Y49664D1*
X16564Y45770D2*
Y46151D1*
X15376Y47338D1*
Y49447D1*
X15159Y49664D1*
X13309Y54664D2*
Y58627D1*
X15256Y60573D1*
X15159Y54664D2*
Y57860D1*
X16564Y59265D1*
X24118Y63623D2*
X20922D1*
X20100Y62801D1*
X24118Y65473D2*
X20156D1*
X18792Y64109D1*
X29118Y65473D2*
X32714D1*
X34078Y64109D1*
X29118Y63623D2*
X31948D1*
X32770Y62801D1*
X38077Y54664D2*
Y57494D1*
X36306Y59265D1*
X39927Y54664D2*
Y58260D1*
X37614Y60573D1*
X39927Y49664D2*
Y46775D1*
X37614Y44462D1*
X38077Y49664D2*
Y47541D1*
X36306Y45770D1*
X17618Y25205D2*
Y24292D1*
X17593Y24267D1*
X35584Y24121D2*
Y25171D1*
X35618Y25205D1*
X32770Y42234D2*
Y40773D1*
X29471Y37474D1*
X27826D1*
X26591Y36240D1*
Y34232D1*
X26618Y34205D1*
X28468D2*
Y35316D1*
X34078Y40926D1*
X28468Y29205D2*
Y25205D1*
X26618Y29205D2*
Y25205D1*
Y16205D2*
Y20205D1*
X28468Y16205D2*
Y20205D1*
X15768D2*
Y21130D1*
X15732Y21166D1*
X28468Y12298D2*
Y11205D1*
X17618Y20205D2*
Y21104D1*
X17593Y21129D1*
X26571Y12334D2*
Y11252D1*
X26618Y11205D1*
X15768Y25205D2*
Y24340D1*
X15696Y24267D1*
X37482Y24194D2*
Y25191D1*
X37468Y25205D1*
X32448Y55528D2*
D15*
Y55266D1*
X32406Y55225D1*
Y54510D1*
X32533Y55076D2*
X32406Y55225D1*
X28548Y45038D2*
X28784D1*
X29187Y44636D1*
X29842D1*
X29946Y44532D1*
X33278Y56997D2*
Y57028D1*
X32448D1*
X33278Y56997D2*
Y56878D1*
X34242Y55914D1*
Y54903D1*
X34318Y54826D1*
X28548Y45538D2*
X29503D1*
X29566Y45602D1*
X31948Y57028D2*
Y57858D1*
X32089Y58000D1*
D45*
X24455Y52832D3*
X32226Y52309D3*
X32529Y50148D3*
X30111Y46382D3*
X29805Y50433D3*
X26053Y49298D3*
X21927Y58655D3*
X19866Y58800D3*
X24443Y55059D3*
X18931Y55163D3*
X20348Y52121D3*
X24692Y35467D3*
X22287Y42840D3*
X26571Y12334D3*
X28468Y12298D3*
X17593Y21129D3*
X15732Y21166D3*
X15696Y24267D3*
X17593D3*
X35584Y24121D3*
X37482Y24194D3*
X21830Y21369D3*
X32669Y20245D3*
X23597Y23537D3*
X27049Y22654D3*
X32533Y55076D3*
X33278Y56997D3*
X29743Y55604D3*
X27934Y55709D3*
X30114Y59851D3*
X29946Y44532D3*
X29566Y45602D3*
X29822Y49426D3*
X35417Y55928D3*
X28073Y62715D3*
X24181Y68466D2*
D18*
X24442D1*
X28796D2*
X29054D1*
X24070Y68317D2*
X24551D1*
X28687D2*
X29166D1*
X23958Y68168D2*
X24677D1*
X28558D2*
X29278D1*
X23848Y68019D2*
X24827D1*
X28411D2*
X29387D1*
X23734Y67870D2*
X25003D1*
X28232D2*
X29502D1*
X23553Y67721D2*
X25218D1*
X28018D2*
X29683D1*
X23372Y67572D2*
X25492D1*
X27744D2*
X29864D1*
X23191Y67423D2*
X25894D1*
X27344D2*
X30045D1*
X23010Y67274D2*
X30228D1*
X22772Y67125D2*
X30464D1*
X22460Y66976D2*
X30776D1*
X22148Y66827D2*
X31088D1*
X21717Y66677D2*
X31519D1*
X20048Y66528D2*
X20170D1*
X20993D2*
X32242D1*
X33056D2*
X33190D1*
X19743Y66379D2*
X33495D1*
X19438Y66230D2*
X33800D1*
X19162Y66081D2*
X23489D1*
X24748D2*
X28487D1*
X29749D2*
X34081D1*
X18900Y65932D2*
X20079D1*
X24924D2*
X28313D1*
X32790D2*
X34343D1*
X18636Y65783D2*
X19796D1*
X25022D2*
X28216D1*
X33075D2*
X34605D1*
X18390Y65634D2*
X19646D1*
X25074D2*
X28163D1*
X33223D2*
X34857D1*
X18159Y65485D2*
X19498D1*
X25094D2*
X28144D1*
X33373D2*
X35086D1*
X17928Y65336D2*
X19348D1*
X25079D2*
X28159D1*
X33521D2*
X35312D1*
X17702Y65187D2*
X19200D1*
X25032D2*
X28204D1*
X33671D2*
X35538D1*
X17497Y65038D2*
X19050D1*
X24943D2*
X28294D1*
X33821D2*
X35750D1*
X17295Y64889D2*
X18603D1*
X20241D2*
X23451D1*
X24784D2*
X28452D1*
X29785D2*
X32628D1*
X34266D2*
X35948D1*
X17090Y64740D2*
X18405D1*
X20093D2*
X32778D1*
X34466D2*
X36148D1*
X16895Y64591D2*
X18255D1*
X19943D2*
X32926D1*
X34614D2*
X36345D1*
X16716Y64441D2*
X18107D1*
X19793D2*
X33076D1*
X34764D2*
X36531D1*
X16535Y64292D2*
X18003D1*
X19686D2*
X23620D1*
X24617D2*
X28618D1*
X29618D2*
X33185D1*
X34866D2*
X36705D1*
X16354Y64143D2*
X17924D1*
X19669D2*
X23372D1*
X24865D2*
X28371D1*
X29866D2*
X33202D1*
X34947D2*
X36879D1*
X16180Y63994D2*
X17905D1*
X19624D2*
X20629D1*
X24989D2*
X28249D1*
X32240D2*
X33247D1*
X34964D2*
X37055D1*
X16021Y63845D2*
X17895D1*
X19529D2*
X20474D1*
X25058D2*
X28180D1*
X32397D2*
X33340D1*
X34973D2*
X37224D1*
X15861Y63696D2*
X17945D1*
X19398D2*
X20324D1*
X25089D2*
X28147D1*
X32544D2*
X33474D1*
X34926D2*
X37379D1*
X15702Y63547D2*
X18005D1*
X19248D2*
X19858D1*
X25089D2*
X28149D1*
X33011D2*
X33624D1*
X34866D2*
X37531D1*
X15542Y63398D2*
X18148D1*
X19088D2*
X19679D1*
X25055D2*
X28180D1*
X33192D2*
X33781D1*
X34721D2*
X37686D1*
X15399Y63249D2*
X18443D1*
X18786D2*
X19529D1*
X24986D2*
X28252D1*
X33340D2*
X34086D1*
X34426D2*
X37838D1*
X15257Y63100D2*
X19384D1*
X21069D2*
X23375D1*
X24863D2*
X28375D1*
X29861D2*
X31802D1*
X33485D2*
X37984D1*
X15114Y62951D2*
X19291D1*
X20991D2*
X23627D1*
X24608D2*
X28628D1*
X29608D2*
X31881D1*
X33580D2*
X38119D1*
X14971Y62802D2*
X19227D1*
X20974D2*
X31897D1*
X33642D2*
X38253D1*
X14835Y62653D2*
X19210D1*
X20910D2*
X31959D1*
X33659D2*
X38389D1*
X14709Y62504D2*
X19212D1*
X20817D2*
X32054D1*
X33659D2*
X38524D1*
X14583Y62355D2*
X19265D1*
X20672D2*
X21429D1*
X21750D2*
X23446D1*
X24789D2*
X28447D1*
X29789D2*
X31119D1*
X31442D2*
X32200D1*
X33606D2*
X38650D1*
X14456Y62205D2*
X19341D1*
X20522D2*
X21113D1*
X22048D2*
X23291D1*
X24946D2*
X28292D1*
X29946D2*
X30821D1*
X31756D2*
X32347D1*
X33528D2*
X38770D1*
X14330Y62056D2*
X19491D1*
X20343D2*
X20953D1*
X22193D2*
X23203D1*
X25034D2*
X28204D1*
X30035D2*
X30676D1*
X31916D2*
X32526D1*
X33380D2*
X38889D1*
X14211Y61907D2*
X20805D1*
X22255D2*
X23158D1*
X25079D2*
X28156D1*
X30080D2*
X30616D1*
X32066D2*
X39008D1*
X14099Y61758D2*
X20672D1*
X22303D2*
X23144D1*
X25091D2*
X28144D1*
X30092D2*
X30566D1*
X32199D2*
X39127D1*
X13987Y61609D2*
X20577D1*
X22293D2*
X23163D1*
X25072D2*
X28163D1*
X30073D2*
X30576D1*
X32292D2*
X39241D1*
X13875Y61460D2*
X20532D1*
X22276D2*
X23218D1*
X25101D2*
X28216D1*
X30020D2*
X30595D1*
X32340D2*
X39346D1*
X13764Y61311D2*
X15002D1*
X15873D2*
X20515D1*
X22198D2*
X23315D1*
X25251D2*
X28316D1*
X29920D2*
X30611D1*
X32356D2*
X36998D1*
X37869D2*
X39451D1*
X13656Y61162D2*
X14826D1*
X16021D2*
X20532D1*
X22096D2*
X22191D1*
X32337D2*
X36848D1*
X38043D2*
X39555D1*
X13559Y61013D2*
X14678D1*
X16095D2*
X20584D1*
X21945D2*
X22025D1*
X32285D2*
X36776D1*
X38193D2*
X39660D1*
X13459Y60864D2*
X14536D1*
X16145D2*
X20684D1*
X21798D2*
X21875D1*
X32187D2*
X36724D1*
X38336D2*
X39762D1*
X13361Y60715D2*
X14440D1*
X16145D2*
X20841D1*
X21598D2*
X21727D1*
X32030D2*
X36724D1*
X38429D2*
X39858D1*
X13261Y60566D2*
X14383D1*
X16128D2*
X21577D1*
X31711D2*
X36741D1*
X38488D2*
X39948D1*
X13163Y60417D2*
X14366D1*
X16061D2*
X21427D1*
X31861D2*
X36810D1*
X38505D2*
X40039D1*
X13078Y60268D2*
X14281D1*
X15966D2*
X21279D1*
X30511D2*
X30668D1*
X32009D2*
X36905D1*
X38590D2*
X40129D1*
X12990Y60119D2*
X14131D1*
X15819D2*
X16517D1*
X16931D2*
X21129D1*
X30628D2*
X30819D1*
X32159D2*
X35938D1*
X36352D2*
X37050D1*
X38738D2*
X40220D1*
X12904Y59969D2*
X13983D1*
X15671D2*
X16257D1*
X17214D2*
X20982D1*
X30682D2*
X30966D1*
X32306D2*
X35657D1*
X36614D2*
X37200D1*
X38888D2*
X40310D1*
X12818Y59820D2*
X13833D1*
X15488D2*
X16102D1*
X17357D2*
X20832D1*
X30694D2*
X31116D1*
X32456D2*
X35514D1*
X36769D2*
X37384D1*
X39038D2*
X40389D1*
X12730Y59671D2*
X13683D1*
X15023D2*
X15952D1*
X17414D2*
X20682D1*
X30666D2*
X31266D1*
X32606D2*
X35457D1*
X36919D2*
X37846D1*
X39186D2*
X40467D1*
X12651Y59522D2*
X13535D1*
X14876D2*
X15821D1*
X17462D2*
X20534D1*
X30589D2*
X31414D1*
X32754D2*
X35410D1*
X37047D2*
X37996D1*
X39336D2*
X40546D1*
X12575Y59373D2*
X13385D1*
X14726D2*
X15729D1*
X17450D2*
X20384D1*
X30430D2*
X31564D1*
X32904D2*
X35421D1*
X37143D2*
X38143D1*
X39483D2*
X40624D1*
X12501Y59224D2*
X13238D1*
X14576D2*
X15686D1*
X17431D2*
X18488D1*
X23539D2*
X27228D1*
X29675D2*
X31711D1*
X33052D2*
X35441D1*
X37183D2*
X38293D1*
X39633D2*
X40703D1*
X12425Y59075D2*
X13088D1*
X14428D2*
X15669D1*
X17347D2*
X18319D1*
X23500D2*
X31861D1*
X33202D2*
X35521D1*
X37200D2*
X38443D1*
X39783D2*
X40779D1*
X12349Y58926D2*
X12940D1*
X14278D2*
X15555D1*
X17243D2*
X18172D1*
X23481D2*
X32012D1*
X33352D2*
X35626D1*
X37314D2*
X38591D1*
X39931D2*
X40846D1*
X12275Y58777D2*
X12857D1*
X14130D2*
X15405D1*
X17093D2*
X17748D1*
X24867D2*
X25720D1*
X27068D2*
X32159D1*
X33499D2*
X34533D1*
X35121D2*
X35776D1*
X37464D2*
X38741D1*
X40081D2*
X40913D1*
X12209Y58628D2*
X12831D1*
X13980D2*
X15257D1*
X16945D2*
X17526D1*
X24867D2*
X25720D1*
X27068D2*
X27228D1*
X29675D2*
X32309D1*
X33649D2*
X34314D1*
X35345D2*
X35926D1*
X37614D2*
X38889D1*
X40229D2*
X40979D1*
X12144Y58479D2*
X12831D1*
X13830D2*
X15107D1*
X16740D2*
X17376D1*
X22646D2*
X23520D1*
X24867D2*
X25720D1*
X29675D2*
X30116D1*
X33797D2*
X34188D1*
X35495D2*
X36129D1*
X37762D2*
X39039D1*
X40350D2*
X41046D1*
X12080Y58330D2*
X12831D1*
X13787D2*
X14959D1*
X16300D2*
X17226D1*
X22498D2*
X23520D1*
X24867D2*
X25720D1*
X29675D2*
X30116D1*
X33947D2*
X34136D1*
X35642D2*
X36572D1*
X37912D2*
X39189D1*
X40400D2*
X41113D1*
X12016Y58181D2*
X12831D1*
X13787D2*
X14809D1*
X16150D2*
X17110D1*
X24867D2*
X25720D1*
X29675D2*
X30104D1*
X35762D2*
X36722D1*
X38059D2*
X39336D1*
X40405D2*
X41179D1*
X11951Y58032D2*
X12831D1*
X13787D2*
X14714D1*
X16000D2*
X17019D1*
X24867D2*
X25720D1*
X29675D2*
X30052D1*
X35852D2*
X36869D1*
X38209D2*
X39448D1*
X40405D2*
X41234D1*
X11887Y57883D2*
X12831D1*
X13787D2*
X14681D1*
X15852D2*
X16991D1*
X23481D2*
X26306D1*
X29675D2*
X30052D1*
X35878D2*
X37019D1*
X38359D2*
X39448D1*
X40405D2*
X41291D1*
X11832Y57733D2*
X12831D1*
X13787D2*
X14681D1*
X15702D2*
X16974D1*
X23481D2*
X26423D1*
X29675D2*
X30052D1*
X35895D2*
X37167D1*
X38488D2*
X39448D1*
X40405D2*
X41346D1*
X11778Y57584D2*
X12831D1*
X13787D2*
X14681D1*
X15638D2*
X17012D1*
X24301D2*
X27228D1*
X29675D2*
X30052D1*
X35859D2*
X37317D1*
X38548D2*
X39448D1*
X40405D2*
X41401D1*
X11725Y57435D2*
X12831D1*
X13787D2*
X14681D1*
X15638D2*
X17064D1*
X24867D2*
X25720D1*
X27068D2*
X30052D1*
X35807D2*
X37467D1*
X38555D2*
X39448D1*
X40405D2*
X41458D1*
X11670Y57286D2*
X12831D1*
X13787D2*
X14681D1*
X15638D2*
X17191D1*
X24867D2*
X25720D1*
X27068D2*
X28766D1*
X35681D2*
X37598D1*
X38555D2*
X39448D1*
X40405D2*
X41513D1*
X11616Y57137D2*
X12831D1*
X13787D2*
X14681D1*
X15638D2*
X17410D1*
X24867D2*
X25720D1*
X27068D2*
X28609D1*
X35459D2*
X37598D1*
X38555D2*
X39448D1*
X40405D2*
X41560D1*
X11561Y56988D2*
X12831D1*
X13787D2*
X14681D1*
X15638D2*
X17588D1*
X18545D2*
X22034D1*
X24867D2*
X25720D1*
X27068D2*
X28461D1*
X35288D2*
X37598D1*
X38555D2*
X39448D1*
X40405D2*
X41606D1*
X11518Y56839D2*
X12831D1*
X13787D2*
X14681D1*
X15638D2*
X17588D1*
X18545D2*
X22034D1*
X24867D2*
X25720D1*
X27068D2*
X28311D1*
X35438D2*
X37598D1*
X38555D2*
X39448D1*
X40405D2*
X41651D1*
X11473Y56690D2*
X12831D1*
X13787D2*
X14681D1*
X15638D2*
X17588D1*
X18545D2*
X23032D1*
X24617D2*
X27730D1*
X35588D2*
X37598D1*
X38555D2*
X39448D1*
X40405D2*
X41696D1*
X11428Y56541D2*
X12831D1*
X13787D2*
X14681D1*
X15638D2*
X17588D1*
X18545D2*
X19503D1*
X20481D2*
X21703D1*
X22681D2*
X23658D1*
X25205D2*
X25356D1*
X26906D2*
X27730D1*
X35733D2*
X37598D1*
X38555D2*
X39448D1*
X40405D2*
X41741D1*
X11385Y56392D2*
X12831D1*
X13787D2*
X14681D1*
X15638D2*
X17588D1*
X18545D2*
X19374D1*
X20612D2*
X21572D1*
X22812D2*
X23658D1*
X25205D2*
X25356D1*
X26906D2*
X27730D1*
X35816D2*
X37598D1*
X38555D2*
X39448D1*
X40405D2*
X41787D1*
X11339Y56243D2*
X12831D1*
X13787D2*
X14681D1*
X15638D2*
X17588D1*
X18545D2*
X19367D1*
X22817D2*
X23658D1*
X25205D2*
X25356D1*
X26906D2*
X27730D1*
X35902D2*
X37598D1*
X38555D2*
X39448D1*
X40405D2*
X41829D1*
X11294Y56094D2*
X12831D1*
X13787D2*
X14681D1*
X15638D2*
X17588D1*
X18545D2*
X19367D1*
X22817D2*
X23658D1*
X25205D2*
X25356D1*
X26906D2*
X27506D1*
X35971D2*
X37598D1*
X38555D2*
X39448D1*
X40405D2*
X41863D1*
X11258Y55945D2*
X12831D1*
X13787D2*
X14681D1*
X15638D2*
X17588D1*
X18545D2*
X19367D1*
X22817D2*
X23658D1*
X25205D2*
X25356D1*
X26906D2*
X27406D1*
X35997D2*
X37598D1*
X38555D2*
X39448D1*
X40405D2*
X41898D1*
X11223Y55796D2*
X12831D1*
X13787D2*
X14681D1*
X15638D2*
X17588D1*
X18545D2*
X19367D1*
X22910D2*
X23658D1*
X25205D2*
X25356D1*
X26906D2*
X27361D1*
X35981D2*
X37598D1*
X38555D2*
X39448D1*
X40405D2*
X41934D1*
X11189Y55647D2*
X12831D1*
X13787D2*
X14681D1*
X15638D2*
X17588D1*
X18545D2*
X18624D1*
X19238D2*
X19367D1*
X23000D2*
X23658D1*
X25205D2*
X25356D1*
X26906D2*
X27237D1*
X35921D2*
X37598D1*
X38555D2*
X39448D1*
X40405D2*
X41970D1*
X11154Y55497D2*
X12831D1*
X13787D2*
X14681D1*
X15638D2*
X16591D1*
X17428D2*
X17588D1*
X23029D2*
X23658D1*
X25205D2*
X25356D1*
X26906D2*
X27237D1*
X36645D2*
X37598D1*
X38555D2*
X39448D1*
X40405D2*
X42003D1*
X11118Y55348D2*
X12733D1*
X13885D2*
X14583D1*
X15735D2*
X16433D1*
X20617D2*
X21567D1*
X23029D2*
X23658D1*
X25205D2*
X25356D1*
X26906D2*
X27237D1*
X36802D2*
X37503D1*
X38652D2*
X39353D1*
X40503D2*
X42039D1*
X11082Y55199D2*
X12645D1*
X13973D2*
X14495D1*
X15823D2*
X16345D1*
X20557D2*
X21627D1*
X23029D2*
X23760D1*
X25079D2*
X27237D1*
X36893D2*
X37412D1*
X38740D2*
X39262D1*
X40591D2*
X42068D1*
X11056Y55050D2*
X12597D1*
X14021D2*
X14447D1*
X15871D2*
X16298D1*
X19712D2*
X22072D1*
X23029D2*
X23746D1*
X25022D2*
X27237D1*
X36938D2*
X37367D1*
X38788D2*
X39217D1*
X40638D2*
X42091D1*
X11030Y54901D2*
X12585D1*
X14033D2*
X14436D1*
X15883D2*
X16286D1*
X20288D2*
X22072D1*
X23029D2*
X23777D1*
X25001D2*
X27237D1*
X36952D2*
X37353D1*
X38802D2*
X39203D1*
X40653D2*
X42118D1*
X11004Y54752D2*
X12585D1*
X14033D2*
X14436D1*
X15883D2*
X16286D1*
X20317D2*
X22072D1*
X23029D2*
X23884D1*
X24932D2*
X27237D1*
X36952D2*
X37353D1*
X38802D2*
X39203D1*
X40653D2*
X42141D1*
X10977Y54603D2*
X12585D1*
X14033D2*
X14436D1*
X15883D2*
X16286D1*
X20317D2*
X22072D1*
X23029D2*
X24094D1*
X24791D2*
X27237D1*
X36952D2*
X37353D1*
X38802D2*
X39203D1*
X40653D2*
X42168D1*
X10951Y54454D2*
X12585D1*
X14033D2*
X14436D1*
X15883D2*
X16286D1*
X20317D2*
X22072D1*
X23029D2*
X27237D1*
X36952D2*
X37353D1*
X38802D2*
X39203D1*
X40653D2*
X42194D1*
X10925Y54305D2*
X12592D1*
X14025D2*
X14443D1*
X15876D2*
X16293D1*
X20317D2*
X20765D1*
X21419D2*
X22072D1*
X23029D2*
X27237D1*
X36943D2*
X37362D1*
X38793D2*
X39212D1*
X40643D2*
X42218D1*
X10904Y54156D2*
X12633D1*
X13985D2*
X14483D1*
X15835D2*
X16333D1*
X20317D2*
X20570D1*
X21615D2*
X22072D1*
X23029D2*
X27892D1*
X36902D2*
X37403D1*
X38752D2*
X39251D1*
X40603D2*
X42232D1*
X10887Y54007D2*
X12714D1*
X13904D2*
X14564D1*
X15754D2*
X16414D1*
X20298D2*
X20467D1*
X21717D2*
X22072D1*
X23029D2*
X27892D1*
X36824D2*
X37481D1*
X38674D2*
X39331D1*
X40524D2*
X42249D1*
X10870Y53858D2*
X12854D1*
X13764D2*
X14705D1*
X15614D2*
X16555D1*
X17464D2*
X17588D1*
X18545D2*
X20412D1*
X21772D2*
X22072D1*
X23029D2*
X27892D1*
X30542D2*
X31269D1*
X36683D2*
X37622D1*
X38533D2*
X39472D1*
X40381D2*
X42263D1*
X10851Y53709D2*
X13221D1*
X13397D2*
X15071D1*
X15246D2*
X16922D1*
X17097D2*
X17588D1*
X18545D2*
X20393D1*
X21791D2*
X22072D1*
X23029D2*
X27892D1*
X30542D2*
X31416D1*
X35942D2*
X36141D1*
X36314D2*
X37988D1*
X38164D2*
X39839D1*
X40014D2*
X42279D1*
X10835Y53560D2*
X17588D1*
X18545D2*
X20405D1*
X21779D2*
X22072D1*
X23029D2*
X27892D1*
X30542D2*
X31566D1*
X35840D2*
X42294D1*
X10818Y53411D2*
X17588D1*
X20281D2*
X20455D1*
X21729D2*
X22072D1*
X23029D2*
X24799D1*
X27449D2*
X27892D1*
X30542D2*
X31716D1*
X35807D2*
X42310D1*
X10804Y53261D2*
X17588D1*
X20317D2*
X20548D1*
X21636D2*
X22072D1*
X27449D2*
X27892D1*
X30542D2*
X31045D1*
X31461D2*
X31869D1*
X35707D2*
X42322D1*
X10794Y53112D2*
X17588D1*
X20317D2*
X20720D1*
X21467D2*
X22072D1*
X27449D2*
X30769D1*
X31735D2*
X33743D1*
X35628D2*
X42327D1*
X10787Y52963D2*
X17588D1*
X20317D2*
X22072D1*
X27449D2*
X30640D1*
X31863D2*
X33743D1*
X35628D2*
X42334D1*
X10777Y52814D2*
X17588D1*
X20326D2*
X22072D1*
X27449D2*
X30568D1*
X32492D2*
X34671D1*
X35628D2*
X42339D1*
X10770Y52665D2*
X17588D1*
X20517D2*
X22072D1*
X27449D2*
X30533D1*
X32678D2*
X34671D1*
X35628D2*
X42346D1*
X10761Y52516D2*
X17588D1*
X20767D2*
X22072D1*
X27449D2*
X30530D1*
X32766D2*
X34671D1*
X35628D2*
X42353D1*
X10754Y52367D2*
X17588D1*
X18545D2*
X19434D1*
X20872D2*
X22072D1*
X23029D2*
X24120D1*
X27449D2*
X30561D1*
X32802D2*
X34671D1*
X35628D2*
X42358D1*
X10756Y52218D2*
X17588D1*
X18545D2*
X19581D1*
X20919D2*
X22072D1*
X23029D2*
X30626D1*
X32799D2*
X34671D1*
X35628D2*
X42358D1*
X10758Y52069D2*
X17588D1*
X18545D2*
X19731D1*
X20926D2*
X22072D1*
X23029D2*
X30745D1*
X32752D2*
X34671D1*
X35628D2*
X42353D1*
X10761Y51920D2*
X17588D1*
X18545D2*
X19805D1*
X20891D2*
X22072D1*
X23029D2*
X30976D1*
X32649D2*
X34671D1*
X35628D2*
X42351D1*
X10766Y51771D2*
X17588D1*
X18545D2*
X19891D1*
X20807D2*
X22072D1*
X23029D2*
X30216D1*
X31020D2*
X31485D1*
X32411D2*
X34671D1*
X35628D2*
X42346D1*
X10768Y51622D2*
X17588D1*
X18545D2*
X20070D1*
X20626D2*
X22072D1*
X23029D2*
X30087D1*
X31147D2*
X31357D1*
X32418D2*
X34671D1*
X35628D2*
X42344D1*
X10773Y51473D2*
X17588D1*
X18545D2*
X22072D1*
X23029D2*
X30023D1*
X31211D2*
X31294D1*
X32480D2*
X34671D1*
X35628D2*
X42341D1*
X10780Y51324D2*
X17588D1*
X18545D2*
X20805D1*
X21379D2*
X22072D1*
X23029D2*
X29999D1*
X32504D2*
X34671D1*
X35628D2*
X42337D1*
X10792Y51175D2*
X17588D1*
X18545D2*
X20589D1*
X21595D2*
X22072D1*
X23029D2*
X30016D1*
X32490D2*
X34671D1*
X35628D2*
X42325D1*
X10804Y51025D2*
X17588D1*
X18545D2*
X20477D1*
X21707D2*
X22072D1*
X23029D2*
X30071D1*
X31163D2*
X31340D1*
X32435D2*
X34671D1*
X35628D2*
X42310D1*
X10816Y50876D2*
X17553D1*
X18545D2*
X20417D1*
X21767D2*
X22072D1*
X23029D2*
X29440D1*
X31051D2*
X31454D1*
X32321D2*
X34671D1*
X35628D2*
X42299D1*
X10830Y50727D2*
X17403D1*
X18545D2*
X20393D1*
X21791D2*
X22072D1*
X23029D2*
X29309D1*
X30301D2*
X30449D1*
X30785D2*
X31719D1*
X32054D2*
X34671D1*
X35628D2*
X42287D1*
X10842Y50578D2*
X13047D1*
X13573D2*
X14897D1*
X15421D2*
X16748D1*
X18521D2*
X20403D1*
X21781D2*
X22072D1*
X23029D2*
X29245D1*
X30899D2*
X31607D1*
X32909D2*
X34671D1*
X35628D2*
X35964D1*
X36490D2*
X37815D1*
X38340D2*
X39665D1*
X40191D2*
X42272D1*
X10854Y50429D2*
X12807D1*
X13811D2*
X14657D1*
X15661D2*
X16507D1*
X20300D2*
X20446D1*
X21738D2*
X22072D1*
X23029D2*
X29225D1*
X31092D2*
X31414D1*
X33033D2*
X34671D1*
X35628D2*
X35726D1*
X36728D2*
X37574D1*
X38579D2*
X39424D1*
X40429D2*
X42260D1*
X10875Y50280D2*
X12688D1*
X13933D2*
X14538D1*
X15780D2*
X16388D1*
X20343D2*
X20534D1*
X21653D2*
X22072D1*
X23029D2*
X29161D1*
X31182D2*
X31321D1*
X33092D2*
X34671D1*
X36850D2*
X37455D1*
X38700D2*
X39305D1*
X40550D2*
X42244D1*
X10896Y50131D2*
X12619D1*
X13999D2*
X14469D1*
X15849D2*
X16319D1*
X18147D2*
X18343D1*
X20343D2*
X20689D1*
X21495D2*
X22072D1*
X23029D2*
X29014D1*
X33109D2*
X34671D1*
X36916D2*
X37386D1*
X38767D2*
X39236D1*
X40617D2*
X42222D1*
X10920Y49982D2*
X12588D1*
X14030D2*
X14438D1*
X15880D2*
X16288D1*
X17997D2*
X18343D1*
X20343D2*
X22072D1*
X23029D2*
X28864D1*
X33083D2*
X34671D1*
X36947D2*
X37357D1*
X38798D2*
X39205D1*
X40648D2*
X42199D1*
X10942Y49833D2*
X12585D1*
X14033D2*
X14436D1*
X15883D2*
X16286D1*
X17847D2*
X18343D1*
X20343D2*
X22072D1*
X23029D2*
X25856D1*
X26251D2*
X28713D1*
X31199D2*
X31307D1*
X33014D2*
X34671D1*
X36952D2*
X37353D1*
X38802D2*
X39203D1*
X40653D2*
X42177D1*
X10963Y49684D2*
X12585D1*
X14033D2*
X14436D1*
X15883D2*
X16286D1*
X17733D2*
X18343D1*
X20343D2*
X22072D1*
X23029D2*
X25625D1*
X26482D2*
X28566D1*
X31118D2*
X31388D1*
X32866D2*
X34671D1*
X36952D2*
X37353D1*
X38802D2*
X39203D1*
X40653D2*
X42153D1*
X10985Y49535D2*
X12585D1*
X14104D2*
X14436D1*
X15883D2*
X16286D1*
X17809D2*
X18350D1*
X20333D2*
X22072D1*
X23029D2*
X25525D1*
X26582D2*
X28416D1*
X30961D2*
X31545D1*
X32230D2*
X34671D1*
X36952D2*
X37353D1*
X38802D2*
X39203D1*
X40653D2*
X42132D1*
X11011Y49386D2*
X12585D1*
X14180D2*
X14436D1*
X15883D2*
X16286D1*
X17957D2*
X18472D1*
X20212D2*
X22072D1*
X23029D2*
X25480D1*
X26627D2*
X28271D1*
X30520D2*
X31754D1*
X32021D2*
X34671D1*
X36950D2*
X37353D1*
X38800D2*
X39203D1*
X40650D2*
X42110D1*
X11044Y49237D2*
X12607D1*
X14202D2*
X14457D1*
X15861D2*
X16307D1*
X18107D2*
X19493D1*
X20491D2*
X21694D1*
X23029D2*
X25477D1*
X26629D2*
X28202D1*
X31013D2*
X31454D1*
X32321D2*
X34671D1*
X36928D2*
X37376D1*
X38779D2*
X39227D1*
X40629D2*
X42079D1*
X11075Y49088D2*
X12664D1*
X14202D2*
X14514D1*
X15854D2*
X16364D1*
X18255D2*
X19372D1*
X20612D2*
X21572D1*
X23029D2*
X25513D1*
X26625D2*
X28197D1*
X31144D2*
X31330D1*
X32444D2*
X34593D1*
X36871D2*
X37434D1*
X38721D2*
X39281D1*
X40572D2*
X42048D1*
X11106Y48939D2*
X12769D1*
X14202D2*
X14619D1*
X15854D2*
X16469D1*
X18405D2*
X19367D1*
X23029D2*
X24946D1*
X28051D2*
X28197D1*
X32506D2*
X34443D1*
X36769D2*
X37536D1*
X38619D2*
X39386D1*
X40469D2*
X42015D1*
X11137Y48789D2*
X12959D1*
X14202D2*
X14809D1*
X15854D2*
X16657D1*
X18555D2*
X19367D1*
X23029D2*
X24870D1*
X32530D2*
X34293D1*
X35590D2*
X35876D1*
X36578D2*
X37598D1*
X38555D2*
X39448D1*
X40405D2*
X41984D1*
X11170Y48640D2*
X13245D1*
X14202D2*
X14897D1*
X15854D2*
X17362D1*
X18702D2*
X19367D1*
X23029D2*
X24858D1*
X32516D2*
X34145D1*
X35485D2*
X37598D1*
X38555D2*
X39448D1*
X40405D2*
X41951D1*
X11201Y48491D2*
X13245D1*
X14202D2*
X14897D1*
X15854D2*
X17512D1*
X18852D2*
X19367D1*
X23027D2*
X24858D1*
X32463D2*
X33995D1*
X35335D2*
X37598D1*
X38555D2*
X39448D1*
X40405D2*
X41920D1*
X11242Y48342D2*
X13245D1*
X14202D2*
X14897D1*
X15854D2*
X17662D1*
X19000D2*
X19367D1*
X22984D2*
X24858D1*
X32361D2*
X33847D1*
X35188D2*
X37598D1*
X38555D2*
X39448D1*
X40405D2*
X41887D1*
X11285Y48193D2*
X13245D1*
X14202D2*
X14897D1*
X15854D2*
X17810D1*
X19150D2*
X19367D1*
X22867D2*
X24858D1*
X32428D2*
X33697D1*
X35038D2*
X37598D1*
X38555D2*
X39448D1*
X40405D2*
X41844D1*
X11325Y48044D2*
X13245D1*
X14202D2*
X14897D1*
X15854D2*
X17960D1*
X20617D2*
X21567D1*
X22817D2*
X24858D1*
X32737D2*
X33547D1*
X34888D2*
X37598D1*
X38555D2*
X39448D1*
X40405D2*
X41801D1*
X11366Y47895D2*
X13245D1*
X14202D2*
X14897D1*
X15854D2*
X17403D1*
X18000D2*
X18107D1*
X20552D2*
X21632D1*
X22753D2*
X23961D1*
X32873D2*
X33400D1*
X34740D2*
X34869D1*
X35469D2*
X37598D1*
X38555D2*
X39448D1*
X40405D2*
X41760D1*
X11408Y47746D2*
X13245D1*
X14202D2*
X14897D1*
X15854D2*
X17186D1*
X19598D2*
X23763D1*
X32949D2*
X33250D1*
X35683D2*
X37598D1*
X38555D2*
X39448D1*
X40405D2*
X41717D1*
X11449Y47597D2*
X13245D1*
X14202D2*
X14897D1*
X15854D2*
X17062D1*
X19745D2*
X23703D1*
X32985D2*
X33131D1*
X35807D2*
X37462D1*
X38555D2*
X39448D1*
X40405D2*
X41675D1*
X11499Y47448D2*
X13245D1*
X14202D2*
X14897D1*
X15938D2*
X17010D1*
X19895D2*
X23710D1*
X32992D2*
X33081D1*
X35859D2*
X37315D1*
X38545D2*
X39448D1*
X40405D2*
X41634D1*
X11549Y47299D2*
X13245D1*
X14202D2*
X14900D1*
X16085D2*
X16974D1*
X20045D2*
X23787D1*
X32964D2*
X33076D1*
X35895D2*
X37165D1*
X38486D2*
X39448D1*
X40405D2*
X41584D1*
X11601Y47150D2*
X13245D1*
X14202D2*
X14938D1*
X16235D2*
X16991D1*
X18728D2*
X18853D1*
X20193D2*
X23715D1*
X32902D2*
X33043D1*
X35878D2*
X37015D1*
X38355D2*
X39448D1*
X40405D2*
X41532D1*
X11651Y47001D2*
X13245D1*
X14202D2*
X15045D1*
X16385D2*
X17019D1*
X18755D2*
X19003D1*
X20343D2*
X23701D1*
X32790D2*
X32894D1*
X35850D2*
X36867D1*
X38207D2*
X39448D1*
X40405D2*
X41479D1*
X11704Y46852D2*
X13245D1*
X14202D2*
X15193D1*
X16533D2*
X17112D1*
X18769D2*
X19153D1*
X20491D2*
X23749D1*
X31794D2*
X31964D1*
X32573D2*
X32745D1*
X35759D2*
X36717D1*
X38057D2*
X39334D1*
X40405D2*
X41427D1*
X11756Y46703D2*
X13245D1*
X14202D2*
X15343D1*
X16683D2*
X17231D1*
X18733D2*
X19300D1*
X20641D2*
X23737D1*
X31794D2*
X32595D1*
X35640D2*
X36569D1*
X37909D2*
X39184D1*
X40400D2*
X41375D1*
X11813Y46553D2*
X13245D1*
X14202D2*
X15490D1*
X16831D2*
X17379D1*
X18681D2*
X19450D1*
X20791D2*
X23699D1*
X31794D2*
X32447D1*
X33787D2*
X34190D1*
X35490D2*
X36124D1*
X37759D2*
X39036D1*
X40348D2*
X41322D1*
X11875Y46404D2*
X13245D1*
X14202D2*
X15640D1*
X16966D2*
X17529D1*
X18552D2*
X19598D1*
X20938D2*
X23725D1*
X31821D2*
X32297D1*
X33637D2*
X34317D1*
X35342D2*
X35922D1*
X37609D2*
X38886D1*
X40226D2*
X41265D1*
X11937Y46255D2*
X13245D1*
X14223D2*
X15743D1*
X17097D2*
X17753D1*
X18326D2*
X19748D1*
X21088D2*
X23768D1*
X31971D2*
X32150D1*
X33490D2*
X34543D1*
X35116D2*
X35774D1*
X37462D2*
X38739D1*
X40076D2*
X41201D1*
X11999Y46106D2*
X13245D1*
X14373D2*
X15690D1*
X17245D2*
X19898D1*
X21236D2*
X23706D1*
X33340D2*
X35624D1*
X37312D2*
X38589D1*
X39929D2*
X41139D1*
X12061Y45957D2*
X13264D1*
X14523D2*
X15669D1*
X17350D2*
X20046D1*
X21386D2*
X23708D1*
X33190D2*
X35519D1*
X37200D2*
X38439D1*
X39779D2*
X41075D1*
X12123Y45808D2*
X13338D1*
X14671D2*
X15688D1*
X17431D2*
X20196D1*
X21536D2*
X23777D1*
X33042D2*
X35438D1*
X37183D2*
X38291D1*
X39631D2*
X41010D1*
X12192Y45659D2*
X13481D1*
X14821D2*
X15731D1*
X17450D2*
X20343D1*
X21684D2*
X23720D1*
X32892D2*
X35421D1*
X37140D2*
X38141D1*
X39481D2*
X40948D1*
X12263Y45510D2*
X13628D1*
X14968D2*
X15824D1*
X17459D2*
X20493D1*
X21817D2*
X23701D1*
X32744D2*
X35410D1*
X37045D2*
X37993D1*
X39331D2*
X40882D1*
X12337Y45361D2*
X13778D1*
X15118D2*
X15955D1*
X17414D2*
X20643D1*
X21876D2*
X23744D1*
X32594D2*
X35457D1*
X36914D2*
X37843D1*
X39183D2*
X40808D1*
X12411Y45212D2*
X13928D1*
X15490D2*
X16105D1*
X17354D2*
X20791D1*
X21886D2*
X23741D1*
X32471D2*
X35517D1*
X36766D2*
X37379D1*
X39033D2*
X40732D1*
X12485Y45063D2*
X14076D1*
X15673D2*
X16260D1*
X17212D2*
X20929D1*
X21886D2*
X23699D1*
X32299D2*
X35660D1*
X36609D2*
X37198D1*
X38886D2*
X40658D1*
X12559Y44914D2*
X14226D1*
X15821D2*
X16536D1*
X16923D2*
X20929D1*
X21886D2*
X23720D1*
X32147D2*
X35948D1*
X36335D2*
X37048D1*
X38736D2*
X40584D1*
X12640Y44765D2*
X14371D1*
X15969D2*
X20929D1*
X21886D2*
X23818D1*
X31997D2*
X36903D1*
X38586D2*
X40508D1*
X12723Y44616D2*
X14366D1*
X16064D2*
X20929D1*
X21886D2*
X24858D1*
X31849D2*
X36807D1*
X38505D2*
X40429D1*
X12809Y44467D2*
X14383D1*
X16128D2*
X20929D1*
X21886D2*
X24858D1*
X31699D2*
X36741D1*
X38488D2*
X40344D1*
X12894Y44317D2*
X14443D1*
X16145D2*
X20836D1*
X21886D2*
X24858D1*
X32035D2*
X36724D1*
X38426D2*
X40255D1*
X12980Y44168D2*
X14538D1*
X16145D2*
X20679D1*
X21886D2*
X24858D1*
X32190D2*
X36724D1*
X38333D2*
X40170D1*
X13063Y44019D2*
X14681D1*
X16092D2*
X20584D1*
X21948D2*
X24858D1*
X32287D2*
X36776D1*
X38190D2*
X40082D1*
X13161Y43870D2*
X14831D1*
X16019D2*
X20532D1*
X22098D2*
X24858D1*
X32340D2*
X36853D1*
X38040D2*
X39996D1*
X13259Y43721D2*
X15007D1*
X15869D2*
X20515D1*
X22198D2*
X24894D1*
X32356D2*
X37000D1*
X37864D2*
X39903D1*
X13356Y43572D2*
X20532D1*
X22276D2*
X25018D1*
X32337D2*
X39803D1*
X13456Y43423D2*
X20579D1*
X22374D2*
X26761D1*
X32290D2*
X39703D1*
X13554Y43274D2*
X20672D1*
X22665D2*
X26761D1*
X32197D2*
X39603D1*
X13659Y43125D2*
X20808D1*
X22791D2*
X23432D1*
X24805D2*
X26761D1*
X30358D2*
X30616D1*
X32063D2*
X39503D1*
X13771Y42976D2*
X19489D1*
X20348D2*
X20958D1*
X22850D2*
X23282D1*
X24953D2*
X26761D1*
X30208D2*
X30678D1*
X31913D2*
X32521D1*
X33383D2*
X39403D1*
X13883Y42827D2*
X19339D1*
X20526D2*
X21117D1*
X22867D2*
X23199D1*
X25039D2*
X26761D1*
X30061D2*
X30823D1*
X31751D2*
X32345D1*
X33533D2*
X39289D1*
X13992Y42678D2*
X19262D1*
X20674D2*
X21455D1*
X22843D2*
X23156D1*
X25082D2*
X26761D1*
X30082D2*
X31128D1*
X31416D2*
X32195D1*
X33606D2*
X39174D1*
X14106Y42529D2*
X19212D1*
X20819D2*
X21801D1*
X22774D2*
X23144D1*
X25091D2*
X26761D1*
X30092D2*
X32052D1*
X33659D2*
X39060D1*
X14221Y42380D2*
X19210D1*
X20912D2*
X21946D1*
X22629D2*
X23165D1*
X25070D2*
X26761D1*
X30070D2*
X31959D1*
X33659D2*
X38946D1*
X14347Y42231D2*
X19227D1*
X20974D2*
X23222D1*
X25015D2*
X26761D1*
X30013D2*
X31897D1*
X33642D2*
X38831D1*
X14476Y42081D2*
X19293D1*
X20991D2*
X23325D1*
X24910D2*
X26761D1*
X29911D2*
X31881D1*
X33578D2*
X38708D1*
X14602Y41932D2*
X19386D1*
X21072D2*
X23513D1*
X24722D2*
X26761D1*
X28418D2*
X28513D1*
X29723D2*
X31885D1*
X33483D2*
X38579D1*
X14728Y41783D2*
X18436D1*
X18812D2*
X19534D1*
X21222D2*
X26761D1*
X28565D2*
X31935D1*
X33337D2*
X34057D1*
X34435D2*
X38448D1*
X14861Y41634D2*
X18145D1*
X19093D2*
X19681D1*
X21369D2*
X26761D1*
X27515D2*
X27663D1*
X28715D2*
X32016D1*
X33249D2*
X33776D1*
X34723D2*
X38319D1*
X15004Y41485D2*
X18003D1*
X19250D2*
X19862D1*
X21519D2*
X26761D1*
X27515D2*
X27811D1*
X28865D2*
X32166D1*
X33249D2*
X33619D1*
X34869D2*
X38188D1*
X15147Y41336D2*
X17943D1*
X19400D2*
X20329D1*
X21667D2*
X23530D1*
X24705D2*
X26761D1*
X27515D2*
X27961D1*
X29706D2*
X32293D1*
X33249D2*
X33471D1*
X34926D2*
X38058D1*
X15292Y41187D2*
X17895D1*
X19531D2*
X20477D1*
X21817D2*
X23334D1*
X24903D2*
X26761D1*
X27515D2*
X28111D1*
X29904D2*
X32293D1*
X33249D2*
X33339D1*
X34973D2*
X37922D1*
X15435Y41038D2*
X17905D1*
X19624D2*
X20627D1*
X25010D2*
X26761D1*
X27515D2*
X28228D1*
X30008D2*
X32293D1*
X34964D2*
X37788D1*
X15590Y40889D2*
X17924D1*
X19669D2*
X20774D1*
X25067D2*
X26761D1*
X27610D2*
X28168D1*
X30068D2*
X32216D1*
X34945D2*
X37653D1*
X15754Y40740D2*
X18005D1*
X19686D2*
X20924D1*
X25091D2*
X26773D1*
X27761D2*
X28144D1*
X30092D2*
X32066D1*
X34864D2*
X37519D1*
X15916Y40591D2*
X18110D1*
X19798D2*
X21074D1*
X25084D2*
X26856D1*
X27908D2*
X28154D1*
X30082D2*
X31919D1*
X34761D2*
X37369D1*
X16078Y40442D2*
X18257D1*
X19945D2*
X21222D1*
X25041D2*
X27006D1*
X28058D2*
X28194D1*
X30042D2*
X31769D1*
X34611D2*
X37215D1*
X16245Y40293D2*
X18407D1*
X20095D2*
X21403D1*
X24960D2*
X27154D1*
X29961D2*
X31621D1*
X34464D2*
X37060D1*
X16431Y40144D2*
X18607D1*
X20245D2*
X23420D1*
X24817D2*
X27304D1*
X29816D2*
X31471D1*
X34261D2*
X36903D1*
X16614Y39995D2*
X19053D1*
X20393D2*
X27451D1*
X28506D2*
X31321D1*
X33816D2*
X36738D1*
X16800Y39845D2*
X19203D1*
X20543D2*
X27601D1*
X28653D2*
X31173D1*
X33668D2*
X36560D1*
X16985Y39696D2*
X19350D1*
X20691D2*
X27751D1*
X28803D2*
X31023D1*
X33518D2*
X36381D1*
X17195Y39547D2*
X19500D1*
X20841D2*
X23701D1*
X24536D2*
X27899D1*
X29537D2*
X30876D1*
X33368D2*
X36203D1*
X17404Y39398D2*
X19650D1*
X20991D2*
X23399D1*
X24839D2*
X28049D1*
X29839D2*
X30726D1*
X33221D2*
X36012D1*
X17614Y39249D2*
X19798D1*
X24972D2*
X28197D1*
X29973D2*
X30576D1*
X33071D2*
X35805D1*
X17835Y39100D2*
X19948D1*
X25048D2*
X28187D1*
X30049D2*
X30428D1*
X32923D2*
X35598D1*
X18074Y38951D2*
X20096D1*
X25086D2*
X28152D1*
X30087D2*
X30278D1*
X32773D2*
X35388D1*
X18314Y38802D2*
X20246D1*
X25091D2*
X28147D1*
X32623D2*
X35155D1*
X18555Y38653D2*
X20396D1*
X25063D2*
X28173D1*
X32475D2*
X34914D1*
X18826Y38504D2*
X20546D1*
X24998D2*
X28237D1*
X32325D2*
X34671D1*
X19105Y38355D2*
X23351D1*
X24886D2*
X28352D1*
X32178D2*
X34409D1*
X19381Y38206D2*
X23568D1*
X24667D2*
X28568D1*
X32028D2*
X34121D1*
X19693Y38057D2*
X29385D1*
X31878D2*
X33836D1*
X20017Y37908D2*
X27649D1*
X31730D2*
X33516D1*
X20343Y37759D2*
X27440D1*
X31580D2*
X33171D1*
X20729Y37609D2*
X27292D1*
X31432D2*
X32821D1*
X21112Y37460D2*
X27142D1*
X31282D2*
X32395D1*
X21555Y37311D2*
X26994D1*
X31132D2*
X31969D1*
X22024Y37162D2*
X26844D1*
X30985D2*
X31421D1*
X22581Y37013D2*
X26694D1*
X23177Y36864D2*
X26547D1*
X27887D2*
X29347D1*
X23677Y36715D2*
X26397D1*
X27737D2*
X29197D1*
X23686Y36566D2*
X26249D1*
X27587D2*
X29049D1*
X23686Y36417D2*
X26149D1*
X27439D2*
X28899D1*
X23686Y36268D2*
X26113D1*
X27289D2*
X28749D1*
X23686Y36119D2*
X26113D1*
X27141D2*
X28602D1*
X23686Y35970D2*
X24420D1*
X24965D2*
X26113D1*
X27070D2*
X28452D1*
X23686Y35821D2*
X24237D1*
X25146D2*
X26113D1*
X27070D2*
X28304D1*
X23686Y35672D2*
X24151D1*
X25234D2*
X26113D1*
X27070D2*
X28154D1*
X23686Y35523D2*
X24115D1*
X25270D2*
X26113D1*
X27070D2*
X28040D1*
X29344D2*
X29549D1*
X23686Y35373D2*
X24120D1*
X25265D2*
X26113D1*
X27070D2*
X27994D1*
X29196D2*
X29549D1*
X23686Y35224D2*
X24168D1*
X25246D2*
X26113D1*
X27070D2*
X27990D1*
X29046D2*
X29549D1*
X23686Y35075D2*
X24270D1*
X25246D2*
X26113D1*
X27070D2*
X27990D1*
X28946D2*
X29549D1*
X23686Y34926D2*
X24222D1*
X25313D2*
X26073D1*
X27163D2*
X27923D1*
X29013D2*
X29549D1*
X23686Y34777D2*
X24122D1*
X25415D2*
X25970D1*
X27265D2*
X27821D1*
X29115D2*
X29549D1*
X23686Y34628D2*
X24065D1*
X25470D2*
X25916D1*
X27320D2*
X27766D1*
X29170D2*
X29549D1*
X23686Y34479D2*
X24044D1*
X25491D2*
X25894D1*
X27341D2*
X27744D1*
X29192D2*
X29549D1*
X23686Y34330D2*
X24044D1*
X25491D2*
X25894D1*
X27341D2*
X27744D1*
X29192D2*
X29549D1*
X23686Y34181D2*
X24044D1*
X25491D2*
X25894D1*
X27341D2*
X27744D1*
X29192D2*
X29549D1*
X23686Y34032D2*
X24044D1*
X25491D2*
X25894D1*
X27341D2*
X27744D1*
X29192D2*
X29549D1*
X23686Y33883D2*
X24049D1*
X25489D2*
X25896D1*
X27339D2*
X27747D1*
X29189D2*
X29549D1*
X23686Y33734D2*
X24080D1*
X25458D2*
X25930D1*
X27306D2*
X27780D1*
X29156D2*
X29549D1*
X23686Y33585D2*
X24149D1*
X25389D2*
X25999D1*
X27239D2*
X27849D1*
X29087D2*
X29549D1*
X23686Y33436D2*
X24270D1*
X25265D2*
X26120D1*
X27115D2*
X27971D1*
X28965D2*
X29549D1*
X23686Y33287D2*
X24289D1*
X25246D2*
X26368D1*
X26870D2*
X28216D1*
X28720D2*
X29549D1*
X23686Y33137D2*
X24289D1*
X25246D2*
X29549D1*
X23686Y32988D2*
X24289D1*
X25246D2*
X29549D1*
X23686Y32839D2*
X24289D1*
X25246D2*
X29549D1*
X23686Y32690D2*
X24289D1*
X25246D2*
X29549D1*
X23686Y32541D2*
X24289D1*
X25246D2*
X29549D1*
X23686Y32392D2*
X24289D1*
X25246D2*
X29549D1*
X23686Y32243D2*
X24289D1*
X25246D2*
X29549D1*
X23686Y32094D2*
X24289D1*
X25246D2*
X29549D1*
X23686Y31945D2*
X24289D1*
X25246D2*
X29549D1*
X23686Y31796D2*
X24289D1*
X25246D2*
X29549D1*
X23686Y31647D2*
X24289D1*
X29068D2*
X29549D1*
X23686Y31498D2*
X24292D1*
X29258D2*
X29549D1*
X23686Y31349D2*
X24332D1*
X29406D2*
X29549D1*
X23686Y31200D2*
X24442D1*
X23686Y31051D2*
X24592D1*
X23686Y30901D2*
X24742D1*
X23686Y30752D2*
X28663D1*
X23686Y30603D2*
X28811D1*
X23686Y30454D2*
X28902D1*
X23686Y30305D2*
X28902D1*
X23686Y30156D2*
X24646D1*
X24889D2*
X26497D1*
X26739D2*
X28347D1*
X28589D2*
X28902D1*
X23686Y30007D2*
X24308D1*
X25229D2*
X26158D1*
X27077D2*
X28009D1*
X23686Y29858D2*
X24170D1*
X25367D2*
X26020D1*
X27218D2*
X27871D1*
X23686Y29709D2*
X24091D1*
X25446D2*
X25942D1*
X27296D2*
X27792D1*
X23686Y29560D2*
X24051D1*
X25484D2*
X25901D1*
X27334D2*
X27751D1*
X23686Y29411D2*
X24044D1*
X25491D2*
X25894D1*
X27341D2*
X27744D1*
X23686Y29262D2*
X24044D1*
X25491D2*
X25894D1*
X27341D2*
X27744D1*
X23686Y29113D2*
X24044D1*
X25491D2*
X25894D1*
X27341D2*
X27744D1*
X23686Y28964D2*
X24044D1*
X25491D2*
X25894D1*
X27341D2*
X27744D1*
X23686Y28815D2*
X24058D1*
X25479D2*
X25908D1*
X27327D2*
X27759D1*
X23686Y28665D2*
X24106D1*
X25429D2*
X25956D1*
X27279D2*
X27806D1*
X23686Y28516D2*
X24196D1*
X25341D2*
X26046D1*
X27191D2*
X27897D1*
X23686Y28367D2*
X24356D1*
X25179D2*
X26139D1*
X27096D2*
X27990D1*
X23686Y28218D2*
X26139D1*
X27096D2*
X27990D1*
X23686Y28069D2*
X26139D1*
X27096D2*
X27990D1*
X23686Y27920D2*
X26139D1*
X27096D2*
X27990D1*
X23686Y27771D2*
X26139D1*
X27096D2*
X27990D1*
X23686Y27622D2*
X26139D1*
X27096D2*
X27990D1*
X23686Y27473D2*
X26139D1*
X27096D2*
X27990D1*
X23686Y27324D2*
X26139D1*
X27096D2*
X27990D1*
X23686Y27175D2*
X26139D1*
X27096D2*
X27990D1*
X23686Y27026D2*
X26139D1*
X27096D2*
X27990D1*
X23686Y26877D2*
X26139D1*
X27096D2*
X27990D1*
X23686Y26728D2*
X26139D1*
X27096D2*
X27990D1*
X23686Y26579D2*
X26139D1*
X27096D2*
X27990D1*
X23686Y26429D2*
X26139D1*
X27096D2*
X27990D1*
X23686Y26280D2*
X26139D1*
X27096D2*
X27990D1*
X23686Y26131D2*
X24539D1*
X24996D2*
X26139D1*
X27096D2*
X27990D1*
X23686Y25982D2*
X24280D1*
X25258D2*
X26130D1*
X27108D2*
X27978D1*
X23686Y25833D2*
X24153D1*
X25384D2*
X26004D1*
X27232D2*
X27854D1*
X23674Y25684D2*
X24082D1*
X25453D2*
X25932D1*
X27303D2*
X27782D1*
X14797Y25535D2*
X15047D1*
X16488D2*
X16898D1*
X18338D2*
X18748D1*
X20188D2*
X24049D1*
X25489D2*
X25899D1*
X27337D2*
X27749D1*
X34488D2*
X34898D1*
X36338D2*
X36748D1*
X38188D2*
X38439D1*
X14797Y25386D2*
X15043D1*
X16492D2*
X16893D1*
X18343D2*
X18743D1*
X20193D2*
X24044D1*
X25491D2*
X25894D1*
X27341D2*
X27744D1*
X29192D2*
X29378D1*
X34492D2*
X34893D1*
X36343D2*
X36743D1*
X38193D2*
X38439D1*
X14797Y25237D2*
X15043D1*
X16492D2*
X16893D1*
X18343D2*
X18743D1*
X20193D2*
X24044D1*
X25491D2*
X25894D1*
X27341D2*
X27744D1*
X29192D2*
X29525D1*
X34492D2*
X34893D1*
X36343D2*
X36743D1*
X38193D2*
X38439D1*
X14797Y25088D2*
X15043D1*
X16492D2*
X16893D1*
X18343D2*
X18743D1*
X20193D2*
X24044D1*
X25491D2*
X25894D1*
X27341D2*
X27744D1*
X29192D2*
X29676D1*
X34492D2*
X34893D1*
X36343D2*
X36743D1*
X38193D2*
X38439D1*
X14797Y24939D2*
X15045D1*
X16492D2*
X16893D1*
X18343D2*
X18743D1*
X20193D2*
X24044D1*
X25551D2*
X25894D1*
X27341D2*
X27744D1*
X29192D2*
X29826D1*
X34492D2*
X34895D1*
X36343D2*
X36743D1*
X38193D2*
X38439D1*
X14797Y24790D2*
X15064D1*
X16473D2*
X16914D1*
X18324D2*
X18762D1*
X20174D2*
X24063D1*
X25701D2*
X25913D1*
X27322D2*
X27763D1*
X29173D2*
X29785D1*
X34473D2*
X34914D1*
X36323D2*
X36764D1*
X38174D2*
X38439D1*
X14797Y24641D2*
X15117D1*
X16419D2*
X16967D1*
X18269D2*
X18817D1*
X20119D2*
X24118D1*
X25848D2*
X25968D1*
X27268D2*
X27818D1*
X29118D2*
X29635D1*
X30975D2*
X33116D1*
X34418D2*
X34967D1*
X36269D2*
X36817D1*
X38119D2*
X38439D1*
X14797Y24492D2*
X15162D1*
X16321D2*
X17060D1*
X18169D2*
X18917D1*
X20019D2*
X24215D1*
X27170D2*
X27916D1*
X29020D2*
X29485D1*
X30825D2*
X33216D1*
X34321D2*
X35067D1*
X36169D2*
X36917D1*
X38019D2*
X38439D1*
X14797Y24343D2*
X15121D1*
X16271D2*
X17019D1*
X18169D2*
X19096D1*
X19840D2*
X24396D1*
X26148D2*
X26246D1*
X26991D2*
X28097D1*
X28839D2*
X29337D1*
X30678D2*
X33395D1*
X34140D2*
X35050D1*
X36119D2*
X36922D1*
X38043D2*
X38439D1*
X14797Y24193D2*
X15121D1*
X16271D2*
X17019D1*
X18169D2*
X24956D1*
X26296D2*
X29214D1*
X30528D2*
X35010D1*
X36159D2*
X36903D1*
X38062D2*
X38439D1*
X14797Y24044D2*
X15162D1*
X16230D2*
X17060D1*
X18128D2*
X25106D1*
X26446D2*
X29164D1*
X30378D2*
X35010D1*
X36159D2*
X36922D1*
X38040D2*
X38439D1*
X14797Y23895D2*
X15257D1*
X16135D2*
X17153D1*
X18033D2*
X25254D1*
X26594D2*
X29159D1*
X30230D2*
X35052D1*
X36116D2*
X36988D1*
X37976D2*
X38439D1*
X14797Y23746D2*
X15464D1*
X15928D2*
X17362D1*
X17826D2*
X25404D1*
X26744D2*
X29159D1*
X30116D2*
X35148D1*
X36021D2*
X37124D1*
X37840D2*
X38439D1*
X14797Y23597D2*
X25554D1*
X26894D2*
X29159D1*
X30116D2*
X35360D1*
X35809D2*
X38439D1*
X14797Y23448D2*
X25701D1*
X27041D2*
X29159D1*
X30116D2*
X38439D1*
X14797Y23299D2*
X25851D1*
X27191D2*
X29159D1*
X30116D2*
X38439D1*
X14797Y23150D2*
X25999D1*
X27339D2*
X29159D1*
X30116D2*
X38439D1*
X14797Y23001D2*
X26149D1*
X27508D2*
X29159D1*
X30116D2*
X38439D1*
X14797Y22852D2*
X26299D1*
X27639D2*
X29159D1*
X30116D2*
X38439D1*
X14797Y22703D2*
X26447D1*
X27787D2*
X29104D1*
X30116D2*
X38439D1*
X14797Y22554D2*
X26477D1*
X27937D2*
X28956D1*
X30116D2*
X38439D1*
X14797Y22405D2*
X26527D1*
X28084D2*
X28806D1*
X30116D2*
X38439D1*
X14797Y22256D2*
X26632D1*
X30116D2*
X38439D1*
X14797Y22107D2*
X26894D1*
X30116D2*
X38439D1*
X14797Y21957D2*
X27192D1*
X30116D2*
X38439D1*
X14797Y21808D2*
X21460D1*
X22200D2*
X27342D1*
X30116D2*
X38439D1*
X14797Y21659D2*
X15443D1*
X16021D2*
X17383D1*
X17802D2*
X21332D1*
X22329D2*
X27490D1*
X30116D2*
X38439D1*
X14797Y21510D2*
X15269D1*
X16195D2*
X17162D1*
X18026D2*
X21267D1*
X22393D2*
X27682D1*
X30116D2*
X38439D1*
X14797Y21361D2*
X15188D1*
X16278D2*
X17064D1*
X18124D2*
X21153D1*
X22410D2*
X29159D1*
X30116D2*
X38439D1*
X14797Y21212D2*
X15155D1*
X16309D2*
X17019D1*
X18166D2*
X21003D1*
X22388D2*
X29159D1*
X30116D2*
X38439D1*
X14797Y21063D2*
X15162D1*
X16302D2*
X17017D1*
X18169D2*
X19088D1*
X19848D2*
X20853D1*
X22319D2*
X24389D1*
X25148D2*
X26239D1*
X26999D2*
X28087D1*
X28849D2*
X29159D1*
X30116D2*
X33388D1*
X34147D2*
X35190D1*
X36045D2*
X37041D1*
X37895D2*
X38439D1*
X14797Y20914D2*
X15212D1*
X16323D2*
X17057D1*
X18174D2*
X18912D1*
X20024D2*
X20705D1*
X22179D2*
X24213D1*
X25324D2*
X26063D1*
X27175D2*
X27913D1*
X29023D2*
X29159D1*
X30116D2*
X33212D1*
X34323D2*
X35029D1*
X36207D2*
X36879D1*
X38057D2*
X38439D1*
X14797Y20765D2*
X15114D1*
X16421D2*
X16964D1*
X18271D2*
X18815D1*
X20121D2*
X20555D1*
X21895D2*
X24115D1*
X25422D2*
X25966D1*
X27270D2*
X27816D1*
X30116D2*
X33114D1*
X34421D2*
X34938D1*
X36300D2*
X36786D1*
X38150D2*
X38439D1*
X14797Y20616D2*
X15062D1*
X16473D2*
X16912D1*
X18324D2*
X18762D1*
X21748D2*
X24063D1*
X25475D2*
X25913D1*
X27325D2*
X27763D1*
X30116D2*
X33062D1*
X34473D2*
X34886D1*
X36350D2*
X36736D1*
X38200D2*
X38439D1*
X14797Y20467D2*
X15045D1*
X16492D2*
X16893D1*
X18343D2*
X18743D1*
X21598D2*
X24044D1*
X25491D2*
X25894D1*
X27341D2*
X27744D1*
X30116D2*
X33045D1*
X34492D2*
X34869D1*
X36369D2*
X36719D1*
X38217D2*
X38439D1*
X14797Y20318D2*
X15043D1*
X16492D2*
X16893D1*
X18343D2*
X18743D1*
X21448D2*
X24044D1*
X25491D2*
X25894D1*
X27341D2*
X27744D1*
X30116D2*
X33045D1*
X34492D2*
X34869D1*
X36369D2*
X36719D1*
X38217D2*
X38439D1*
X14797Y20169D2*
X15043D1*
X16492D2*
X16893D1*
X18343D2*
X18743D1*
X21300D2*
X24044D1*
X25491D2*
X25894D1*
X27341D2*
X27744D1*
X30116D2*
X33045D1*
X34492D2*
X34869D1*
X36369D2*
X36719D1*
X38217D2*
X38439D1*
X14797Y20020D2*
X15043D1*
X16492D2*
X16893D1*
X18343D2*
X18743D1*
X21150D2*
X24044D1*
X25491D2*
X25894D1*
X27341D2*
X27744D1*
X30116D2*
X33045D1*
X34492D2*
X34869D1*
X36369D2*
X36719D1*
X38217D2*
X38439D1*
X14797Y19871D2*
X15050D1*
X16488D2*
X16900D1*
X18338D2*
X18748D1*
X21000D2*
X24049D1*
X25486D2*
X25899D1*
X27337D2*
X27749D1*
X30116D2*
X33050D1*
X34488D2*
X34874D1*
X36364D2*
X36724D1*
X38212D2*
X38439D1*
X14797Y19721D2*
X15083D1*
X16452D2*
X16933D1*
X18302D2*
X18784D1*
X20152D2*
X24084D1*
X25453D2*
X25935D1*
X27303D2*
X27782D1*
X30116D2*
X33083D1*
X34452D2*
X34907D1*
X36331D2*
X36757D1*
X38178D2*
X38439D1*
X23684Y19572D2*
X24156D1*
X25379D2*
X26006D1*
X27229D2*
X27856D1*
X23686Y19423D2*
X24284D1*
X25253D2*
X26135D1*
X27103D2*
X27985D1*
X23686Y19274D2*
X24556D1*
X24982D2*
X26139D1*
X27096D2*
X27990D1*
X23686Y19125D2*
X26139D1*
X27096D2*
X27990D1*
X23686Y18976D2*
X26139D1*
X27096D2*
X27990D1*
X23686Y18827D2*
X26139D1*
X27096D2*
X27990D1*
X23686Y18678D2*
X26139D1*
X27096D2*
X27990D1*
X23686Y18529D2*
X26139D1*
X27096D2*
X27990D1*
X23686Y18380D2*
X26139D1*
X27096D2*
X27990D1*
X23686Y18231D2*
X26139D1*
X27096D2*
X27990D1*
X23686Y18082D2*
X26139D1*
X27096D2*
X27990D1*
X23686Y17933D2*
X26139D1*
X27096D2*
X27990D1*
X23686Y17784D2*
X26139D1*
X27096D2*
X27990D1*
X23686Y17635D2*
X26139D1*
X27096D2*
X27990D1*
X23686Y17485D2*
X26139D1*
X27096D2*
X27990D1*
X23686Y17336D2*
X26139D1*
X27096D2*
X27990D1*
X23686Y17187D2*
X26139D1*
X27096D2*
X27990D1*
X23686Y17038D2*
X24349D1*
X25186D2*
X26139D1*
X27096D2*
X27990D1*
X23686Y16889D2*
X24191D1*
X25344D2*
X26042D1*
X27194D2*
X27892D1*
X23686Y16740D2*
X24103D1*
X25432D2*
X25954D1*
X27282D2*
X27804D1*
X23686Y16591D2*
X24058D1*
X25479D2*
X25906D1*
X27330D2*
X27756D1*
X23686Y16442D2*
X24044D1*
X25491D2*
X25894D1*
X27341D2*
X27744D1*
X23686Y16293D2*
X24044D1*
X25491D2*
X25894D1*
X27341D2*
X27744D1*
X23686Y16144D2*
X24044D1*
X25491D2*
X25894D1*
X27341D2*
X27744D1*
X23686Y15995D2*
X24044D1*
X25491D2*
X25894D1*
X27341D2*
X27744D1*
X23686Y15846D2*
X24053D1*
X25484D2*
X25901D1*
X27334D2*
X27751D1*
X23686Y15697D2*
X24091D1*
X25444D2*
X25942D1*
X27294D2*
X27792D1*
X23686Y15548D2*
X24172D1*
X25363D2*
X26023D1*
X27213D2*
X27873D1*
X29063D2*
X29140D1*
X23686Y15399D2*
X24289D1*
X25246D2*
X26163D1*
X27072D2*
X28013D1*
X23686Y15249D2*
X24289D1*
X25246D2*
X26535D1*
X26703D2*
X28382D1*
X28553D2*
X28842D1*
X23686Y15100D2*
X24289D1*
X25384D2*
X28692D1*
X23686Y14951D2*
X24299D1*
X25532D2*
X28542D1*
X23686Y14802D2*
X24358D1*
X25682D2*
X28394D1*
X23686Y14653D2*
X24492D1*
X25832D2*
X28244D1*
X23686Y14504D2*
X24639D1*
X25979D2*
X28097D1*
X29435D2*
X29549D1*
X23686Y14355D2*
X24789D1*
X29287D2*
X29549D1*
X23686Y14206D2*
X24939D1*
X29137D2*
X29549D1*
X23686Y14057D2*
X25087D1*
X28989D2*
X29549D1*
X23686Y13908D2*
X25237D1*
X28839D2*
X29549D1*
X23686Y13759D2*
X25384D1*
X28689D2*
X29549D1*
X23686Y13610D2*
X25537D1*
X28539D2*
X29549D1*
X23686Y13461D2*
X29549D1*
X23686Y13312D2*
X29549D1*
X23686Y13163D2*
X29549D1*
X23686Y13013D2*
X29549D1*
X23686Y12864D2*
X26361D1*
X26779D2*
X29549D1*
X23686Y12715D2*
X26139D1*
X27003D2*
X28073D1*
X28863D2*
X29549D1*
X23686Y12566D2*
X26042D1*
X27101D2*
X27956D1*
X28980D2*
X29549D1*
X23686Y12417D2*
X25996D1*
X27144D2*
X27901D1*
X29034D2*
X29549D1*
X23686Y12268D2*
X25994D1*
X27146D2*
X27890D1*
X29046D2*
X29549D1*
X23686Y12119D2*
X24503D1*
X25032D2*
X26035D1*
X27108D2*
X27918D1*
X29020D2*
X29549D1*
X23686Y11970D2*
X24265D1*
X25270D2*
X26092D1*
X27120D2*
X27966D1*
X28970D2*
X29549D1*
X23686Y11821D2*
X24146D1*
X25391D2*
X25996D1*
X27241D2*
X27847D1*
X29092D2*
X29549D1*
X23686Y11672D2*
X24077D1*
X25458D2*
X25927D1*
X27308D2*
X27778D1*
X29158D2*
X29549D1*
X23686Y11523D2*
X24046D1*
X25489D2*
X25896D1*
X27339D2*
X27747D1*
X29189D2*
X29549D1*
X23686Y11374D2*
X24044D1*
X25491D2*
X25894D1*
X27341D2*
X27744D1*
X29192D2*
X29549D1*
X23686Y11225D2*
X24044D1*
X25491D2*
X25894D1*
X27341D2*
X27744D1*
X29192D2*
X29549D1*
X23686Y11076D2*
X24044D1*
X25491D2*
X25894D1*
X27341D2*
X27744D1*
X29192D2*
X29549D1*
X23686Y10927D2*
X24044D1*
X25491D2*
X25894D1*
X27341D2*
X27744D1*
X29192D2*
X29549D1*
X23686Y10777D2*
X24068D1*
X25470D2*
X25916D1*
X27320D2*
X27766D1*
X29170D2*
X29549D1*
X27500Y48977D2*
X27523Y48998D1*
X27588Y49037D1*
X27660Y49062D1*
X27735Y49073D1*
X27811Y49068D1*
X27885Y49047D1*
X27952Y49013D1*
X28012Y48965D1*
X28060Y48906D1*
X28096Y48839D1*
X28117Y48766D1*
X28123Y48698D1*
X28121Y47978D1*
X28115Y47903D1*
X28108Y47878D1*
X28188Y47886D1*
X28215Y47888D1*
X28212Y48148D1*
Y49177D1*
X28221Y49252D1*
X28246Y49324D1*
X28289Y49390D1*
X28311Y49414D1*
X29245Y50349D1*
X29243Y50487D1*
X29255Y50562D1*
X29277Y50635D1*
X29309Y50704D1*
X29350Y50768D1*
X29399Y50826D1*
X29456Y50877D1*
X29519Y50920D1*
X29587Y50954D1*
X29659Y50979D1*
X29734Y50993D1*
X29810Y50998D1*
X29886Y50992D1*
X29960Y50976D1*
X30032Y50950D1*
X30099Y50915D1*
X30161Y50871D1*
X30217Y50819D1*
X30265Y50760D1*
X30305Y50695D1*
X30336Y50626D1*
X30350Y50578D1*
X30439Y50613D1*
X30540Y50636D1*
X30645Y50640D1*
X30749Y50626D1*
X30849Y50594D1*
X30942Y50546D1*
X31025Y50482D1*
X31096Y50404D1*
X31152Y50316D1*
X31192Y50219D1*
X31214Y50116D1*
X31219Y50011D1*
X31205Y49908D1*
X31173Y49807D1*
X31124Y49715D1*
X31060Y49631D1*
X30983Y49561D1*
X30894Y49505D1*
X30797Y49465D1*
X30695Y49442D1*
X30590Y49438D1*
X30558Y49440D1*
X30473Y49353D1*
X30531Y49365D1*
X30646Y49370D1*
X30749Y49356D1*
X30849Y49324D1*
X30942Y49276D1*
X31025Y49212D1*
X31096Y49134D1*
X31152Y49046D1*
X31192Y48949D1*
X31214Y48846D1*
X31219Y48741D1*
X31217Y48721D1*
X31262Y48726D1*
X31261Y48796D1*
X31274Y48903D1*
X31308Y49008D1*
X31358Y49105D1*
X31424Y49192D1*
X31505Y49266D1*
X31597Y49325D1*
X31698Y49367D1*
X31805Y49391D1*
X31914Y49396D1*
X32022Y49381D1*
X32127Y49349D1*
X32224Y49298D1*
X32311Y49232D1*
X32385Y49151D1*
X32443Y49059D1*
X32485Y48958D1*
X32509Y48851D1*
X32514Y48742D1*
X32500Y48634D1*
X32467Y48529D1*
X32417Y48432D1*
X32350Y48346D1*
X32270Y48272D1*
X32178Y48213D1*
X32146Y48198D1*
X32277Y48208D1*
X32353Y48203D1*
X32428Y48190D1*
X32501Y48169D1*
X32572Y48140D1*
X32639Y48104D1*
X32701Y48061D1*
X32759Y48011D1*
X32811Y47956D1*
X32857Y47895D1*
X32896Y47830D1*
X32928Y47761D1*
X32952Y47688D1*
X32969Y47614D1*
X32978Y47499D1*
X32974Y47423D1*
X32962Y47348D1*
X32942Y47274D1*
X32914Y47203D1*
X32878Y47136D1*
X32836Y47073D1*
X32787Y47014D1*
X32732Y46961D1*
X32672Y46915D1*
X32607Y46875D1*
X32538Y46842D1*
X32466Y46817D1*
X32392Y46800D1*
X32316Y46791D1*
X32240Y46790D1*
X32164Y46797D1*
X32090Y46812D1*
X32017Y46835D1*
X31947Y46866D1*
X31881Y46904D1*
X31779Y46986D1*
X31780Y46430D1*
X32060Y46150D1*
X33090Y47182D1*
Y47379D1*
X33096Y47455D1*
X33115Y47528D1*
X33145Y47598D1*
X33187Y47662D1*
X33226Y47706D1*
X34689Y49170D1*
X34687Y50043D1*
Y52869D1*
X34344Y52867D1*
X33759D1*
Y53189D1*
X33063Y53190D1*
X32090D1*
X32014Y53199D1*
X31942Y53224D1*
X31877Y53267D1*
X31852Y53289D1*
X31190Y53950D1*
X30618Y53949D1*
X30527Y53852D1*
Y53114D1*
X29208Y53117D1*
X29150Y53114D1*
X27908D1*
Y54233D1*
X28010Y54234D1*
X27253D1*
Y55653D1*
X27370D1*
X27371Y55763D1*
X27384Y55839D1*
X27406Y55911D1*
X27438Y55980D1*
X27479Y56045D1*
X27528Y56103D1*
X27585Y56154D1*
X27648Y56197D1*
X27745Y56241D1*
Y56760D1*
X28247D1*
X28734Y57247D1*
X28794Y57294D1*
X28862Y57327D1*
X28939Y57343D1*
X28972Y57345D1*
X30065D1*
X30066Y58000D1*
X30075Y58075D1*
X30104Y58154D1*
X30130Y58202D1*
Y58559D1*
X31448Y58557D1*
X31506Y58559D1*
X32394D1*
X31049Y59903D1*
X30646Y60305D1*
X30450Y60306D1*
X30526Y60237D1*
X30575Y60178D1*
X30614Y60113D1*
X30645Y60044D1*
X30666Y59970D1*
X30679Y59851D1*
X30674Y59775D1*
X30659Y59700D1*
X30633Y59629D1*
X30599Y59561D1*
X30555Y59498D1*
X30504Y59442D1*
X30445Y59393D1*
X30381Y59353D1*
X30311Y59322D1*
X30238Y59300D1*
X30163Y59288D1*
X30087Y59287D1*
X30011Y59295D1*
X29918Y59322D1*
X29661D1*
Y59151D1*
X27242D1*
Y59320D1*
X26021Y59321D1*
X25982Y59297D1*
X25912Y59267D1*
X25838Y59249D1*
X25762Y59242D1*
X25686Y59247D1*
X25612Y59264D1*
X25541Y59292D1*
X25490Y59322D1*
X23534Y59321D1*
Y59414D1*
X23525Y59343D1*
X23519Y59185D1*
X23500Y59111D1*
X23467Y59029D1*
Y58501D1*
X22655D1*
X22478Y58326D1*
X22506Y58320D1*
X23467D1*
Y57594D1*
X24193D1*
X24269Y57588D1*
X24343Y57569D1*
X24411Y57540D1*
X24853D1*
Y56721D1*
X24603D1*
Y56657D1*
X25190Y56658D1*
Y55240D1*
X25083D1*
X25036Y55148D1*
X25012Y55114D1*
X25007Y55103D1*
X25003Y54983D1*
X24988Y54908D1*
X24963Y54836D1*
X24928Y54768D1*
X24885Y54706D1*
X24833Y54650D1*
X24775Y54601D1*
X24710Y54561D1*
X24641Y54529D1*
X24568Y54508D1*
X24492Y54496D1*
X24416Y54494D1*
X24341Y54503D1*
X24267Y54522D1*
X24196Y54551D1*
X24130Y54588D1*
X24070Y54635D1*
X24021Y54677D1*
X23953Y54711D1*
X23893Y54758D1*
X23842Y54814D1*
X23802Y54879D1*
X23776Y54950D1*
X23762Y55025D1*
X23763Y55101D1*
X23775Y55162D1*
X23770Y55210D1*
X23760Y55239D1*
X23672Y55240D1*
Y56658D1*
X23784D1*
X23736Y56667D1*
X23188D1*
X23112Y56674D1*
X23039Y56692D1*
X22969Y56723D1*
X22925Y56750D1*
X22858Y56801D1*
X22049D1*
Y57099D1*
X21158Y57097D1*
X18531D1*
X18530Y55559D1*
X18582Y55608D1*
X18645Y55650D1*
X18713Y55684D1*
X18785Y55709D1*
X18860Y55724D1*
X18936Y55728D1*
X19012Y55722D1*
X19086Y55706D1*
X19158Y55681D1*
X19226Y55645D1*
X19288Y55601D1*
X19343Y55549D1*
X19384Y55500D1*
X19383Y56345D1*
X19397Y56420D1*
X19436Y56485D1*
X19496Y56531D1*
X19571Y56553D1*
X20278Y56555D1*
X20392D1*
X20467Y56541D1*
X20532Y56502D1*
X20578Y56442D1*
X20600Y56367D1*
X20602Y56309D1*
X21585D1*
X21583Y56345D1*
X21597Y56420D1*
X21636Y56485D1*
X21696Y56531D1*
X21771Y56553D1*
X22478Y56555D1*
X22592D1*
X22667Y56541D1*
X22732Y56502D1*
X22778Y56442D1*
X22800Y56367D1*
X22802Y55891D1*
X22879Y55814D1*
X22928Y55756D1*
X22967Y55690D1*
X22995Y55620D1*
X23011Y55545D1*
X23015Y55486D1*
Y53293D1*
X23771Y53295D1*
X24130D1*
X24237Y53353D1*
X24309Y53377D1*
X24384Y53392D1*
X24460Y53397D1*
X24536Y53391D1*
X24610Y53375D1*
X24682Y53349D1*
X24775Y53296D1*
X24814Y53365D1*
Y53416D1*
X26133Y53414D1*
X26145Y53416D1*
X27433D1*
Y52298D1*
X24814D1*
Y52367D1*
X24652Y52302D1*
X24579Y52281D1*
X24504Y52269D1*
X24428Y52267D1*
X24352Y52276D1*
X24279Y52295D1*
X24208Y52324D1*
X24133Y52369D1*
X23014Y52368D1*
X23015Y48545D1*
X23008Y48469D1*
X22990Y48396D1*
X22959Y48326D1*
X22918Y48262D1*
X22867Y48206D1*
X22805Y48158D1*
X22802Y48045D1*
X22788Y47971D1*
X22748Y47906D1*
X22689Y47860D1*
X22614Y47838D1*
X21906Y47836D1*
X21792D1*
X21718Y47850D1*
X21653Y47889D1*
X21606Y47949D1*
X21584Y48024D1*
X21583Y48082D1*
X20599D1*
X20602Y48045D1*
X20588Y47971D1*
X20548Y47906D1*
X20489Y47860D1*
X20414Y47838D1*
X19706Y47836D1*
X19592D1*
X19518Y47850D1*
X19453Y47889D1*
X19406Y47949D1*
X19384Y48024D1*
X19383Y48731D1*
Y49045D1*
X19397Y49120D1*
X19436Y49185D1*
X19496Y49231D1*
X19571Y49253D1*
X20278Y49255D1*
X20392D1*
X20467Y49241D1*
X20532Y49202D1*
X20578Y49142D1*
X20600Y49067D1*
X20602Y49009D1*
X21585D1*
X21583Y49045D1*
X21597Y49120D1*
X21636Y49185D1*
X21696Y49231D1*
X21771Y49253D1*
X22090Y49255D1*
X22088Y49917D1*
Y55134D1*
X21792Y55136D1*
X21718Y55150D1*
X21653Y55189D1*
X21606Y55249D1*
X21584Y55324D1*
X21583Y55382D1*
X20599D1*
X20602Y55345D1*
X20588Y55271D1*
X20548Y55206D1*
X20489Y55160D1*
X20414Y55138D1*
X19706Y55136D1*
X19612D1*
X19670Y55080D1*
X19735Y55005D1*
X20092D1*
X20167Y54991D1*
X20232Y54952D1*
X20278Y54892D1*
X20300Y54817D1*
X20302Y54095D1*
X20288Y54021D1*
X20248Y53956D1*
X20189Y53910D1*
X20114Y53888D1*
X19406Y53886D1*
X18590D1*
X18538Y53894D1*
X18530Y53842D1*
Y53497D1*
X18592Y53505D1*
X20092D1*
X20167Y53491D1*
X20232Y53452D1*
X20278Y53392D1*
X20300Y53317D1*
X20302Y52821D1*
X20447Y52679D1*
X20575Y52639D1*
X20643Y52604D1*
X20705Y52560D1*
X20761Y52508D1*
X20809Y52449D1*
X20849Y52384D1*
X20879Y52314D1*
X20901Y52241D1*
X20913Y52121D1*
X20908Y52046D1*
X20893Y51971D1*
X20868Y51899D1*
X20833Y51831D1*
X20790Y51769D1*
X20738Y51713D1*
X20680Y51664D1*
X20615Y51623D1*
X20546Y51592D1*
X20473Y51570D1*
X20397Y51559D1*
X20321Y51557D1*
X20246Y51566D1*
X20172Y51585D1*
X20101Y51613D1*
X20035Y51651D1*
X19975Y51698D1*
X19921Y51752D1*
X19875Y51813D1*
X19838Y51879D1*
X19810Y51950D1*
X19793Y52021D1*
X19430Y52385D1*
X18590Y52386D1*
X18530Y52395D1*
Y50721D1*
X18524Y50646D1*
X18505Y50572D1*
X18485Y50522D1*
X18605Y50530D1*
X20092D1*
X20167Y50518D1*
X20234Y50482D1*
X20286Y50427D1*
X20318Y50358D1*
X20327Y50295D1*
Y49595D1*
X20315Y49520D1*
X20279Y49453D1*
X20224Y49401D1*
X20155Y49369D1*
X20092Y49361D1*
X18592D1*
X18517Y49373D1*
X18450Y49408D1*
X18398Y49463D1*
X18366Y49532D1*
X18358Y49595D1*
Y50310D1*
X18341Y50340D1*
X17719Y49719D1*
Y49611D1*
X19600Y47728D1*
X21735Y45593D1*
X21785Y45535D1*
X21824Y45469D1*
X21852Y45399D1*
X21867Y45324D1*
X21871Y45265D1*
Y44082D1*
X22086Y43868D1*
X22156Y43766D1*
X22234Y43642D1*
X22265Y43554D1*
X22269Y43514D1*
X22386Y43397D1*
X22514Y43357D1*
X22582Y43322D1*
X22644Y43278D1*
X22700Y43226D1*
X22748Y43167D1*
X22788Y43102D1*
X22819Y43033D1*
X22840Y42960D1*
X22852Y42840D1*
X22847Y42764D1*
X22832Y42690D1*
X22807Y42618D1*
X22772Y42550D1*
X22729Y42487D1*
X22677Y42431D1*
X22619Y42383D1*
X22554Y42342D1*
X22485Y42311D1*
X22412Y42289D1*
X22337Y42277D1*
X22260Y42276D1*
X22185Y42285D1*
X22111Y42304D1*
X22040Y42332D1*
X21974Y42370D1*
X21914Y42416D1*
X21860Y42470D1*
X21815Y42531D1*
X21777Y42598D1*
X21745Y42685D1*
X21710Y42671D1*
X21617Y42661D1*
X21396Y42686D1*
X21308Y42717D1*
X21121Y42834D1*
X21029Y42918D1*
X20730Y43217D1*
X20660Y43319D1*
X20582Y43443D1*
X20551Y43531D1*
X20526Y43752D1*
X20537Y43844D1*
X20610Y44054D1*
X20660Y44133D1*
X20817Y44291D1*
X20896Y44340D1*
X20943Y44357D1*
X20945Y45074D1*
X17266Y48751D1*
X17132Y48715D1*
X17057Y48706D1*
X16980Y48705D1*
X16905Y48712D1*
X16830Y48728D1*
X16757Y48751D1*
X16688Y48782D1*
X16622Y48820D1*
X16560Y48865D1*
X16504Y48916D1*
X16454Y48973D1*
X16410Y49035D1*
X16372Y49102D1*
X16343Y49172D1*
X16320Y49245D1*
X16306Y49319D1*
X16300Y49414D1*
X16302Y49914D1*
Y49972D1*
X16313Y50047D1*
X16331Y50121D1*
X16357Y50192D1*
X16391Y50261D1*
X16431Y50325D1*
X16479Y50385D1*
X16532Y50439D1*
X16591Y50487D1*
X16655Y50529D1*
X16723Y50563D1*
X16794Y50590D1*
X16868Y50609D1*
X16943Y50620D1*
X17020Y50623D1*
X17096Y50618D1*
X17171Y50605D1*
X17263Y50575D1*
X17603Y50913D1*
X17604Y54029D1*
X17567Y53976D1*
X17495Y53897D1*
X17412Y53830D1*
X17320Y53776D1*
X17221Y53737D1*
X17117Y53713D1*
X17011Y53705D1*
X16905Y53712D1*
X16801Y53736D1*
X16701Y53775D1*
X16609Y53828D1*
X16526Y53895D1*
X16454Y53973D1*
X16394Y54061D1*
X16348Y54157D1*
X16317Y54259D1*
X16302Y54365D1*
X16300Y54582D1*
X16302Y54972D1*
X16319Y55077D1*
X16351Y55178D1*
X16398Y55274D1*
X16459Y55361D1*
X16532Y55439D1*
X16616Y55504D1*
X16709Y55557D1*
X16809Y55594D1*
X16913Y55617D1*
X17020Y55623D1*
X17126Y55614D1*
X17229Y55588D1*
X17328Y55548D1*
X17419Y55493D1*
X17501Y55425D1*
X17572Y55345D1*
X17604Y55301D1*
Y57077D1*
X17427Y57136D1*
X17360Y57160D1*
X17282Y57209D1*
X17124Y57366D1*
X17075Y57445D1*
X17001Y57655D1*
X16991Y57748D1*
X17016Y57969D1*
X17046Y58057D1*
X17164Y58244D1*
X17248Y58336D1*
X17547Y58635D1*
X17649Y58705D1*
X17773Y58783D1*
X17861Y58814D1*
X18084Y58839D1*
X18137Y58877D1*
X18414Y59154D1*
X18472Y59204D1*
X18538Y59243D1*
X18609Y59270D1*
X18683Y59286D1*
X18742Y59290D1*
X19587D1*
X19648Y59321D1*
X19720Y59345D1*
X19795Y59360D1*
X19871Y59364D1*
X19947Y59359D1*
X20021Y59343D1*
X20093Y59317D1*
X20145Y59289D1*
X20316Y59290D1*
X22122Y61096D1*
X22180Y61146D1*
X22246Y61185D1*
X22317Y61213D1*
X22391Y61228D1*
X22450Y61232D1*
X23410D1*
X23313Y61332D1*
X23269Y61394D1*
X23231Y61461D1*
X23202Y61531D1*
X23179Y61604D1*
X23165Y61679D1*
X23159Y61755D1*
X23161Y61831D1*
X23172Y61906D1*
X23190Y61980D1*
X23216Y62052D1*
X23250Y62120D1*
X23290Y62184D1*
X23338Y62244D1*
X23391Y62298D1*
X23450Y62346D1*
X23514Y62388D1*
X23582Y62422D1*
X23653Y62449D1*
X23727Y62468D1*
X23802Y62479D1*
X24021Y62482D1*
X24368Y62480D1*
X24455Y62477D1*
X24530Y62464D1*
X24603Y62443D1*
X24673Y62414D1*
X24740Y62377D1*
X24803Y62334D1*
X24860Y62284D1*
X24912Y62228D1*
X24958Y62167D1*
X24997Y62102D1*
X25028Y62033D1*
X25052Y61960D1*
X25069Y61886D1*
X25078Y61773D1*
X25073Y61697D1*
X25061Y61622D1*
X25028Y61515D1*
X25146Y61400D1*
X25316Y61230D1*
X25808Y61232D1*
X28408Y61234D1*
X28332Y61309D1*
X28269Y61394D1*
X28219Y61489D1*
X28183Y61589D1*
X28163Y61694D1*
X28159Y61800D1*
X28172Y61906D1*
X28199Y62009D1*
X28242Y62107D1*
X28299Y62197D1*
X28369Y62277D1*
X28450Y62346D1*
X28541Y62402D1*
X28639Y62444D1*
X28742Y62471D1*
X28848Y62482D1*
X29409Y62481D1*
X29515Y62467D1*
X29617Y62437D1*
X29714Y62393D1*
X29803Y62334D1*
X29882Y62262D1*
X29949Y62180D1*
X30004Y62088D1*
X30044Y61990D1*
X30069Y61886D1*
X30078Y61780D1*
X30072Y61682D1*
X30050Y61578D1*
X30013Y61478D1*
X29962Y61384D1*
X29897Y61300D1*
X29827Y61232D1*
X30545D1*
X30663Y61349D1*
X30636Y61393D1*
X30605Y61481D1*
X30580Y61702D1*
X30591Y61795D1*
X30664Y62005D1*
X30714Y62084D1*
X30871Y62241D1*
X30950Y62290D1*
X31160Y62364D1*
X31253Y62374D1*
X31474Y62349D1*
X31562Y62319D1*
X31749Y62201D1*
X31841Y62117D1*
X32140Y61818D1*
X32210Y61716D1*
X32288Y61592D1*
X32319Y61505D1*
X32344Y61283D1*
X32333Y61191D1*
X32260Y60981D1*
X32210Y60902D1*
X32053Y60745D1*
X31974Y60695D1*
X31764Y60622D1*
X31671Y60611D1*
X31650D1*
X34120Y58141D1*
X34115Y58197D1*
X34126Y58257D1*
X34212Y58497D1*
X34248Y58546D1*
X34430Y58725D1*
X34483Y58754D1*
X34725Y58836D1*
X34786Y58839D1*
X35039Y58808D1*
X35095Y58784D1*
X35310Y58647D1*
X35686Y58271D1*
X35721Y58220D1*
X35838Y58030D1*
X35854Y57971D1*
X35880Y57717D1*
X35870Y57658D1*
X35783Y57417D1*
X35747Y57368D1*
X35565Y57189D1*
X35512Y57160D1*
X35270Y57078D1*
X35209Y57075D1*
X35183Y57078D1*
X35691Y56571D1*
X35740Y56513D1*
X35779Y56447D1*
X35799Y56400D1*
X35819Y56324D1*
X35877Y56256D1*
X35917Y56191D1*
X35948Y56121D1*
X35969Y56048D1*
X35982Y55928D1*
X35977Y55852D1*
X35961Y55778D1*
X35936Y55706D1*
X35902Y55638D1*
X35858Y55576D1*
X35828Y55542D1*
X35873Y55529D1*
X35941Y55563D1*
X36012Y55590D1*
X36086Y55609D1*
X36161Y55620D1*
X36238Y55623D1*
X36314Y55618D1*
X36389Y55605D1*
X36462Y55583D1*
X36532Y55554D1*
X36599Y55518D1*
X36662Y55475D1*
X36719Y55425D1*
X36771Y55369D1*
X36817Y55308D1*
X36856Y55243D1*
X36887Y55173D1*
X36911Y55101D1*
X36928Y55027D1*
X36936Y54907D1*
X36934Y54414D1*
X36932Y54338D1*
X36920Y54263D1*
X36900Y54189D1*
X36872Y54118D1*
X36837Y54051D1*
X36794Y53988D1*
X36745Y53929D1*
X36690Y53877D1*
X36630Y53830D1*
X36565Y53790D1*
X36496Y53758D1*
X36424Y53733D1*
X36350Y53715D1*
X36275Y53706D1*
X36198Y53705D1*
X36123Y53712D1*
X36048Y53728D1*
X35969Y53754D1*
X35826Y53607D1*
X35820Y53511D1*
X35802Y53438D1*
X35771Y53368D1*
X35730Y53304D1*
X35679Y53248D1*
X35617Y53200D1*
X35651Y53224D1*
X35614Y53130D1*
X35616Y50274D1*
X35677Y50361D1*
X35750Y50439D1*
X35834Y50504D1*
X35927Y50557D1*
X36027Y50594D1*
X36131Y50617D1*
X36238Y50623D1*
X36344Y50614D1*
X36447Y50588D1*
X36546Y50548D1*
X36637Y50493D1*
X36719Y50425D1*
X36790Y50345D1*
X36849Y50256D1*
X36893Y50159D1*
X36922Y50057D1*
X36936Y49951D1*
X36937Y49414D1*
X36929Y49308D1*
X36905Y49204D1*
X36866Y49105D1*
X36812Y49012D1*
X36745Y48929D1*
X36667Y48857D1*
X36578Y48798D1*
X36482Y48752D1*
X36380Y48721D1*
X36275Y48706D1*
X36168Y48707D1*
X36063Y48724D1*
X35961Y48756D1*
X35866Y48804D1*
X35778Y48865D1*
X35701Y48938D1*
X35636Y49022D1*
X35613Y49058D1*
X35608Y48900D1*
X35589Y48826D1*
X35559Y48757D1*
X35517Y48693D1*
X35478Y48649D1*
X34372Y47542D1*
X34458Y47541D1*
X34672Y47756D1*
X34774Y47826D1*
X34898Y47904D1*
X34986Y47935D1*
X35207Y47960D1*
X35300Y47949D1*
X35510Y47876D1*
X35588Y47826D1*
X35746Y47669D1*
X35795Y47590D1*
X35869Y47380D1*
X35879Y47287D1*
X35854Y47066D1*
X35824Y46978D1*
X35706Y46791D1*
X35622Y46699D1*
X35323Y46400D1*
X35221Y46330D1*
X35097Y46252D1*
X35009Y46221D1*
X34788Y46196D1*
X34696Y46207D1*
X34486Y46280D1*
X34407Y46330D1*
X34249Y46487D1*
X34200Y46566D1*
X34183Y46613D1*
X33833Y46615D1*
X32495Y45275D1*
X32456Y45210D1*
X32407Y45152D1*
X32349Y45102D1*
X32278Y45059D1*
X31637Y44419D1*
X31702Y44425D1*
X31762Y44414D1*
X32002Y44328D1*
X32051Y44292D1*
X32230Y44110D1*
X32259Y44057D1*
X32341Y43815D1*
X32344Y43754D1*
X32313Y43501D1*
X32289Y43445D1*
X32152Y43230D1*
X31776Y42854D1*
X31673Y42786D1*
X31535Y42702D1*
X31476Y42686D1*
X31222Y42660D1*
X31163Y42670D1*
X30922Y42757D1*
X30873Y42793D1*
X30694Y42975D1*
X30665Y43028D1*
X30583Y43270D1*
X30580Y43331D1*
X30584Y43366D1*
X30031Y42813D1*
X30069Y42668D1*
X30078Y42555D1*
X30073Y42479D1*
X30061Y42404D1*
X30041Y42330D1*
X30013Y42260D1*
X29978Y42192D1*
X29935Y42129D1*
X29886Y42070D1*
X29831Y42018D1*
X29771Y41971D1*
X29706Y41931D1*
X29637Y41899D1*
X29565Y41874D1*
X29491Y41856D1*
X29366Y41847D1*
X28868Y41846D1*
X28839D1*
X28764Y41853D1*
X28689Y41869D1*
X28616Y41892D1*
X28547Y41923D1*
X28481Y41961D1*
X28419Y42006D1*
X28363Y42057D1*
X28313Y42114D1*
X28244Y42220D1*
X28246Y42089D1*
X28921Y41414D1*
X29368Y41412D1*
X29455Y41409D1*
X29530Y41396D1*
X29603Y41374D1*
X29673Y41345D1*
X29740Y41309D1*
X29803Y41266D1*
X29860Y41216D1*
X29912Y41160D1*
X29958Y41099D1*
X29997Y41034D1*
X30028Y40964D1*
X30052Y40892D1*
X30069Y40818D1*
X30078Y40705D1*
X30073Y40629D1*
X30061Y40554D1*
X30041Y40480D1*
X30013Y40410D1*
X29978Y40342D1*
X29935Y40279D1*
X29886Y40220D1*
X29831Y40168D1*
X29771Y40121D1*
X29706Y40081D1*
X29637Y40049D1*
X29565Y40024D1*
X29491Y40006D1*
X29366Y39997D1*
X28868Y39996D1*
X28839D1*
X28764Y40003D1*
X28689Y40019D1*
X28616Y40042D1*
X28547Y40073D1*
X28481Y40111D1*
X28419Y40156D1*
X28363Y40207D1*
X28313Y40264D1*
X28269Y40326D1*
X28231Y40393D1*
X28202Y40463D1*
X28179Y40536D1*
X28165Y40611D1*
X28159Y40686D1*
X28161Y40763D1*
X28172Y40838D1*
X28190Y40912D1*
X28216Y40984D1*
X28253Y41058D1*
X27626Y41685D1*
X27579Y41744D1*
X27544Y41812D1*
X27527Y41872D1*
X27520Y42017D1*
Y43206D1*
X27501Y43221D1*
X27499Y42798D1*
X27501Y40984D1*
X28920Y39564D1*
X29368Y39562D1*
X29455Y39559D1*
X29530Y39546D1*
X29603Y39524D1*
X29673Y39495D1*
X29740Y39459D1*
X29803Y39416D1*
X29860Y39366D1*
X29912Y39310D1*
X29958Y39249D1*
X29997Y39184D1*
X30028Y39114D1*
X30052Y39042D1*
X30069Y38968D1*
X30078Y38855D1*
X30064Y38720D1*
X32307Y40965D1*
Y41418D1*
X32258Y41437D1*
X32179Y41486D1*
X32022Y41644D1*
X31973Y41722D1*
X31899Y41932D1*
X31889Y42025D1*
X31914Y42246D1*
X31944Y42334D1*
X32062Y42522D1*
X32146Y42613D1*
X32445Y42912D1*
X32547Y42982D1*
X32671Y43060D1*
X32758Y43091D1*
X32980Y43116D1*
X33072Y43106D1*
X33282Y43032D1*
X33361Y42982D1*
X33518Y42825D1*
X33568Y42746D1*
X33641Y42536D1*
X33652Y42444D1*
X33627Y42223D1*
X33596Y42135D1*
X33478Y41947D1*
X33395Y41856D1*
X33235Y41696D1*
X33234Y40989D1*
X33293Y41090D1*
X33370Y41214D1*
X33454Y41305D1*
X33753Y41604D1*
X33855Y41674D1*
X33979Y41752D1*
X34067Y41783D1*
X34288Y41808D1*
X34380Y41797D1*
X34590Y41724D1*
X34669Y41674D1*
X34827Y41517D1*
X34876Y41438D1*
X34950Y41228D1*
X34960Y41136D1*
X34935Y40914D1*
X34904Y40826D1*
X34786Y40639D1*
X34703Y40548D1*
X34404Y40249D1*
X34302Y40178D1*
X34178Y40100D1*
X34090Y40070D1*
X33867Y40045D1*
X33813Y40006D1*
X30822Y37015D1*
X31095Y37069D1*
X31994Y37314D1*
X32873Y37622D1*
X33728Y37992D1*
X34554Y38422D1*
X35348Y38910D1*
X36104Y39453D1*
X36820Y40049D1*
X37492Y40694D1*
X38181Y41460D1*
X38799Y42167D1*
X39407Y42960D1*
X39965Y43791D1*
X40468Y44654D1*
X40916Y45548D1*
X41307Y46469D1*
X41639Y47412D1*
X41910Y48374D1*
X42120Y49352D1*
X42268Y50341D1*
X42353Y51337D1*
X42375Y52337D1*
X42334Y53336D1*
X42229Y54330D1*
X42062Y55316D1*
X41833Y56290D1*
X41543Y57246D1*
X41193Y58183D1*
X40785Y59096D1*
X40319Y59981D1*
X39799Y60835D1*
X39226Y61654D1*
X38602Y62435D1*
X37930Y63176D1*
X37212Y63872D1*
X36452Y64522D1*
X35653Y65122D1*
X34817Y65671D1*
X33948Y66165D1*
X33193Y66534D1*
X32377Y66504D1*
X31317Y66724D1*
X30341Y67193D1*
X29506Y67882D1*
X28912Y68678D1*
X28807Y68505D1*
X28673Y68319D1*
X28523Y68146D1*
X28360Y67987D1*
X28182Y67843D1*
X27993Y67714D1*
X27794Y67603D1*
X27585Y67510D1*
X27369Y67435D1*
X27148Y67379D1*
X26922Y67342D1*
X26694Y67326D1*
X26466Y67329D1*
X26238Y67352D1*
X26014Y67395D1*
X25794Y67457D1*
X25580Y67539D1*
X25375Y67638D1*
X25179Y67755D1*
X24993Y67889D1*
X24820Y68039D1*
X24661Y68203D1*
X24517Y68380D1*
X24389Y68569D1*
X24325Y68678D1*
X23731Y67882D1*
X23659Y67820D1*
X22880Y67183D1*
X21902Y66718D1*
X20841Y66502D1*
X20044Y66534D1*
X19341Y66190D1*
X18514Y65723D1*
X17716Y65208D1*
X16950Y64647D1*
X16218Y64042D1*
X15523Y63395D1*
X14868Y62708D1*
X14253Y61984D1*
X13683Y61225D1*
X13159Y60433D1*
X12682Y59612D1*
X12254Y58765D1*
X11876Y57893D1*
X11551Y57001D1*
X11279Y56092D1*
X11061Y55168D1*
X10897Y54232D1*
X10789Y53289D1*
X10737Y52348D1*
X10759Y51380D1*
X10841Y50410D1*
X10983Y49447D1*
X11185Y48495D1*
X11445Y47557D1*
X11763Y46636D1*
X12138Y45738D1*
X12567Y44864D1*
X13050Y44019D1*
X13584Y43205D1*
X14167Y42425D1*
X14798Y41684D1*
X15473Y40983D1*
X16191Y40325D1*
X16948Y39713D1*
X17742Y39149D1*
X18569Y38635D1*
X19426Y38173D1*
X20310Y37766D1*
X21218Y37414D1*
X22145Y37119D1*
X23614Y36751D1*
X23667Y36699D1*
X23671Y36677D1*
Y25723D1*
X23634Y25659D1*
X23595Y25647D1*
X20149D1*
X20166Y25583D1*
X20177Y25477D1*
Y24925D1*
X20164Y24819D1*
X20136Y24716D1*
X20093Y24619D1*
X20035Y24529D1*
X19965Y24449D1*
X19883Y24380D1*
X19792Y24324D1*
X19694Y24283D1*
X19591Y24256D1*
X19485Y24246D1*
X19379Y24251D1*
X19274Y24273D1*
X19174Y24310D1*
X19081Y24361D1*
X18996Y24426D1*
X18922Y24502D1*
X18860Y24589D1*
X18812Y24684D1*
X18779Y24786D1*
X18762Y24891D1*
X18759Y25001D1*
X18761Y25513D1*
X18778Y25618D1*
X18785Y25647D1*
X18302D1*
X18318Y25568D1*
X18327Y25448D1*
X18325Y24955D1*
X18323Y24879D1*
X18311Y24804D1*
X18291Y24730D1*
X18263Y24660D1*
X18227Y24592D1*
X18185Y24529D1*
X18124Y24459D1*
X18146Y24387D1*
X18158Y24267D1*
X18153Y24191D1*
X18138Y24117D1*
X18113Y24045D1*
X18078Y23977D1*
X18035Y23915D1*
X17983Y23859D1*
X17925Y23810D1*
X17860Y23769D1*
X17791Y23738D1*
X17718Y23716D1*
X17643Y23705D1*
X17566Y23703D1*
X17491Y23712D1*
X17417Y23731D1*
X17346Y23759D1*
X17280Y23797D1*
X17220Y23844D1*
X17166Y23898D1*
X17121Y23958D1*
X17083Y24025D1*
X17055Y24096D1*
X17037Y24170D1*
X17029Y24245D1*
X17031Y24321D1*
X17044Y24397D1*
X17079Y24497D1*
X17018Y24576D1*
X16981Y24643D1*
X16951Y24713D1*
X16929Y24786D1*
X16915Y24861D1*
X16909Y24955D1*
X16911Y25455D1*
Y25513D1*
X16936Y25646D1*
X16449Y25647D1*
X16468Y25568D1*
X16477Y25448D1*
X16475Y24955D1*
X16473Y24879D1*
X16461Y24804D1*
X16441Y24730D1*
X16413Y24660D1*
X16377Y24592D1*
X16335Y24529D1*
X16240Y24426D1*
X16259Y24312D1*
X16256Y24191D1*
X16240Y24117D1*
X16215Y24045D1*
X16180Y23977D1*
X16137Y23915D1*
X16086Y23859D1*
X16027Y23810D1*
X15963Y23769D1*
X15893Y23738D1*
X15820Y23716D1*
X15745Y23705D1*
X15669Y23703D1*
X15593Y23712D1*
X15519Y23731D1*
X15449Y23759D1*
X15383Y23797D1*
X15322Y23844D1*
X15269Y23898D1*
X15223Y23958D1*
X15186Y24025D1*
X15158Y24096D1*
X15139Y24170D1*
X15131Y24245D1*
X15134Y24321D1*
X15146Y24397D1*
X15168Y24469D1*
X15197Y24532D1*
X15131Y24643D1*
X15101Y24713D1*
X15079Y24786D1*
X15065Y24861D1*
X15059Y24955D1*
X15061Y25455D1*
Y25513D1*
X15086Y25646D1*
X14781Y25647D1*
Y19626D1*
X15141D1*
X15101Y19713D1*
X15079Y19786D1*
X15065Y19861D1*
X15059Y19955D1*
X15061Y20455D1*
Y20513D1*
X15071Y20588D1*
X15090Y20662D1*
X15116Y20734D1*
X15149Y20802D1*
X15227Y20913D1*
X15194Y20994D1*
X15176Y21068D1*
X15168Y21143D1*
X15170Y21220D1*
X15182Y21295D1*
X15205Y21367D1*
X15237Y21437D1*
X15278Y21501D1*
X15327Y21559D1*
X15383Y21610D1*
X15446Y21653D1*
X15515Y21687D1*
X15587Y21711D1*
X15661Y21726D1*
X15737Y21730D1*
X15813Y21725D1*
X15888Y21709D1*
X15959Y21683D1*
X16027Y21648D1*
X16089Y21604D1*
X16145Y21552D1*
X16193Y21493D1*
X16233Y21428D1*
X16263Y21358D1*
X16284Y21285D1*
X16297Y21166D1*
X16292Y21090D1*
X16277Y21015D1*
X16260Y20968D1*
X16358Y20849D1*
X16397Y20784D1*
X16428Y20714D1*
X16452Y20642D1*
X16468Y20568D1*
X16477Y20448D1*
X16475Y19955D1*
X16473Y19879D1*
X16461Y19804D1*
X16441Y19730D1*
X16396Y19628D1*
X16989Y19626D1*
X16951Y19713D1*
X16929Y19786D1*
X16915Y19861D1*
X16909Y19955D1*
X16911Y20455D1*
Y20513D1*
X16921Y20588D1*
X16940Y20662D1*
X16966Y20734D1*
X16999Y20802D1*
X17074Y20909D1*
X17055Y20957D1*
X17037Y21031D1*
X17029Y21107D1*
X17031Y21183D1*
X17044Y21258D1*
X17066Y21331D1*
X17098Y21400D1*
X17139Y21464D1*
X17188Y21522D1*
X17245Y21573D1*
X17308Y21616D1*
X17376Y21650D1*
X17448Y21675D1*
X17522Y21689D1*
X17598Y21694D1*
X17674Y21688D1*
X17749Y21672D1*
X17820Y21646D1*
X17888Y21611D1*
X17950Y21567D1*
X18006Y21515D1*
X18054Y21456D1*
X18094Y21391D1*
X18125Y21322D1*
X18146Y21248D1*
X18158Y21129D1*
X18153Y21053D1*
X18128Y20949D1*
X18208Y20849D1*
X18247Y20784D1*
X18278Y20714D1*
X18302Y20642D1*
X18318Y20568D1*
X18327Y20448D1*
X18325Y19955D1*
X18323Y19879D1*
X18311Y19804D1*
X18291Y19730D1*
X18246Y19628D1*
X18841Y19626D1*
X18801Y19713D1*
X18779Y19786D1*
X18765Y19861D1*
X18759Y19955D1*
X18761Y20455D1*
Y20513D1*
X18771Y20588D1*
X18790Y20662D1*
X18816Y20734D1*
X18849Y20802D1*
X18890Y20866D1*
X18938Y20926D1*
X18991Y20980D1*
X19050Y21028D1*
X19114Y21070D1*
X19182Y21104D1*
X19253Y21131D1*
X19327Y21150D1*
X19402Y21161D1*
X19478Y21164D1*
X19554Y21159D1*
X19629Y21146D1*
X19703Y21124D1*
X19773Y21095D1*
X19840Y21059D1*
X19902Y21016D1*
X19960Y20966D1*
X20012Y20910D1*
X20058Y20849D1*
X20097Y20784D1*
X20144Y20667D1*
X20475Y20668D1*
X21273Y21467D1*
X21303Y21571D1*
X21335Y21640D1*
X21376Y21705D1*
X21425Y21763D1*
X21481Y21814D1*
X21544Y21857D1*
X21612Y21891D1*
X21685Y21915D1*
X21759Y21930D1*
X21835Y21934D1*
X21911Y21928D1*
X21986Y21912D1*
X22057Y21887D1*
X22125Y21851D1*
X22187Y21807D1*
X22243Y21755D1*
X22291Y21696D1*
X22331Y21632D1*
X22361Y21562D1*
X22382Y21489D1*
X22395Y21369D1*
X22390Y21293D1*
X22375Y21219D1*
X22350Y21147D1*
X22315Y21079D1*
X22271Y21017D1*
X22220Y20960D1*
X22162Y20912D1*
X22097Y20871D1*
X22028Y20840D1*
X21929Y20814D1*
X20994Y19877D1*
X20936Y19828D1*
X20870Y19789D1*
X20799Y19761D1*
X20725Y19745D1*
X20666Y19742D1*
X20144D1*
X20096Y19628D1*
X20572Y19626D1*
X23595D1*
X23659Y19589D1*
X23671Y19550D1*
Y10736D1*
X24093D1*
X24067Y10845D1*
X24059Y10952D1*
X24061Y11513D1*
X24078Y11618D1*
X24110Y11720D1*
X24157Y11815D1*
X24218Y11903D1*
X24291Y11980D1*
X24375Y12046D1*
X24468Y12098D1*
X24568Y12135D1*
X24672Y12158D1*
X24778Y12164D1*
X24885Y12155D1*
X24988Y12129D1*
X25087Y12089D1*
X25178Y12034D1*
X25260Y11966D1*
X25331Y11886D1*
X25389Y11797D1*
X25434Y11700D1*
X25463Y11598D1*
X25476Y11492D1*
X25477Y10955D1*
X25469Y10849D1*
X25446Y10745D1*
X25443Y10736D1*
X25945D1*
X25929Y10786D1*
X25915Y10861D1*
X25909Y10955D1*
X25911Y11455D1*
Y11513D1*
X25921Y11588D1*
X25940Y11662D1*
X25966Y11734D1*
X25999Y11802D1*
X26040Y11866D1*
X26109Y11948D1*
X26098Y12025D1*
X26060Y12092D1*
X26033Y12163D1*
X26014Y12237D1*
X26006Y12312D1*
X26008Y12388D1*
X26021Y12463D1*
X26043Y12536D1*
X26075Y12605D1*
X26116Y12670D1*
X26165Y12728D1*
X26222Y12779D1*
X26285Y12821D1*
X26353Y12855D1*
X26425Y12880D1*
X26500Y12895D1*
X26576Y12899D1*
X26652Y12893D1*
X26726Y12877D1*
X26798Y12852D1*
X26865Y12816D1*
X26927Y12772D1*
X26983Y12720D1*
X27031Y12661D1*
X27071Y12597D1*
X27102Y12527D1*
X27123Y12454D1*
X27136Y12334D1*
X27130Y12258D1*
X27115Y12184D1*
X27090Y12112D1*
X27040Y12023D1*
X27110Y11966D1*
X27162Y11910D1*
X27208Y11849D1*
X27247Y11784D1*
X27278Y11714D1*
X27302Y11642D1*
X27318Y11568D1*
X27327Y11448D1*
X27325Y10955D1*
X27323Y10879D1*
X27311Y10804D1*
X27293Y10737D1*
X27793Y10736D1*
X27765Y10861D1*
X27759Y10955D1*
X27761Y11455D1*
Y11513D1*
X27771Y11588D1*
X27790Y11662D1*
X27816Y11734D1*
X27849Y11802D1*
X27890Y11866D1*
X27938Y11926D1*
X27997Y11985D1*
X27958Y12055D1*
X27930Y12126D1*
X27912Y12200D1*
X27904Y12276D1*
X27906Y12352D1*
X27918Y12427D1*
X27941Y12500D1*
X27973Y12569D1*
X28014Y12633D1*
X28063Y12691D1*
X28119Y12742D1*
X28182Y12785D1*
X28251Y12819D1*
X28323Y12844D1*
X28397Y12858D1*
X28473Y12863D1*
X28549Y12857D1*
X28624Y12841D1*
X28695Y12815D1*
X28763Y12780D1*
X28825Y12736D1*
X28881Y12684D1*
X28929Y12625D1*
X28969Y12560D1*
X28999Y12490D1*
X29020Y12417D1*
X29033Y12298D1*
X29028Y12222D1*
X29013Y12147D1*
X28988Y12075D1*
X28938Y11986D1*
X29012Y11910D1*
X29058Y11849D1*
X29097Y11784D1*
X29128Y11714D1*
X29152Y11642D1*
X29168Y11568D1*
X29177Y11448D1*
X29175Y10955D1*
X29173Y10879D1*
X29161Y10804D1*
X29143Y10737D1*
X29565Y10736D1*
Y14649D1*
X28555Y13639D1*
X28497Y13589D1*
X28432Y13550D1*
X28361Y13523D1*
X28287Y13507D1*
X28228Y13503D1*
X25848D1*
X25772Y13509D1*
X25698Y13528D1*
X25628Y13558D1*
X25564Y13600D1*
X25520Y13639D1*
X24440Y14718D1*
X24391Y14776D1*
X24352Y14842D1*
X24324Y14913D1*
X24309Y14987D1*
X24305Y15046D1*
Y15420D1*
X24212Y15514D1*
X24168Y15576D1*
X24131Y15643D1*
X24101Y15713D1*
X24079Y15786D1*
X24065Y15861D1*
X24059Y15955D1*
X24061Y16455D1*
Y16513D1*
X24071Y16588D1*
X24090Y16662D1*
X24116Y16734D1*
X24149Y16802D1*
X24190Y16866D1*
X24238Y16926D1*
X24291Y16980D1*
X24350Y17028D1*
X24414Y17070D1*
X24482Y17104D1*
X24553Y17131D1*
X24627Y17150D1*
X24702Y17161D1*
X24778Y17164D1*
X24854Y17159D1*
X24929Y17146D1*
X25003Y17124D1*
X25073Y17095D1*
X25140Y17059D1*
X25202Y17016D1*
X25260Y16966D1*
X25312Y16910D1*
X25358Y16849D1*
X25397Y16784D1*
X25428Y16714D1*
X25452Y16642D1*
X25468Y16568D1*
X25477Y16448D1*
X25475Y15955D1*
X25473Y15879D1*
X25461Y15804D1*
X25441Y15730D1*
X25413Y15660D1*
X25377Y15592D1*
X25335Y15529D1*
X25286Y15470D1*
X25229Y15416D1*
X25231Y15236D1*
X26040Y14429D1*
X28036Y14430D1*
X29175Y15568D1*
X29173Y15879D1*
X29161Y15804D1*
X29141Y15730D1*
X29113Y15660D1*
X29077Y15592D1*
X29035Y15529D1*
X28986Y15470D1*
X28931Y15418D1*
X28871Y15371D1*
X28806Y15331D1*
X28737Y15299D1*
X28665Y15274D1*
X28591Y15256D1*
X28515Y15247D1*
X28439Y15246D1*
X28363Y15253D1*
X28289Y15269D1*
X28216Y15292D1*
X28147Y15323D1*
X28081Y15361D1*
X28019Y15406D1*
X27963Y15457D1*
X27912Y15514D1*
X27868Y15576D1*
X27831Y15643D1*
X27801Y15713D1*
X27779Y15786D1*
X27765Y15861D1*
X27759Y15955D1*
X27761Y16455D1*
Y16513D1*
X27771Y16588D1*
X27790Y16662D1*
X27816Y16734D1*
X27849Y16802D1*
X27890Y16866D1*
X27938Y16926D1*
X28004Y16991D1*
X28005Y19417D1*
X27912Y19514D1*
X27868Y19576D1*
X27831Y19643D1*
X27801Y19713D1*
X27779Y19786D1*
X27765Y19861D1*
X27759Y19955D1*
X27761Y20455D1*
Y20513D1*
X27771Y20588D1*
X27790Y20662D1*
X27816Y20734D1*
X27849Y20802D1*
X27890Y20866D1*
X27938Y20926D1*
X27991Y20980D1*
X28050Y21028D1*
X28114Y21070D1*
X28182Y21104D1*
X28253Y21131D1*
X28327Y21150D1*
X28402Y21161D1*
X28478Y21164D1*
X28554Y21159D1*
X28629Y21146D1*
X28703Y21124D1*
X28773Y21095D1*
X28840Y21059D1*
X28902Y21016D1*
X28960Y20966D1*
X29012Y20910D1*
X29058Y20849D1*
X29097Y20784D1*
X29128Y20714D1*
X29152Y20642D1*
X29173Y20523D1*
Y21502D1*
X29088Y21476D1*
X29004Y21469D1*
X27888D1*
X27812Y21475D1*
X27738Y21494D1*
X27668Y21524D1*
X27604Y21565D1*
X27560Y21604D1*
X27074Y22091D1*
X27022Y22090D1*
X26946Y22098D1*
X26872Y22117D1*
X26802Y22146D1*
X26736Y22184D1*
X26675Y22230D1*
X26622Y22284D1*
X26576Y22345D1*
X26539Y22411D1*
X26511Y22482D1*
X26492Y22556D1*
X26484Y22632D1*
X26486Y22682D1*
X26133Y23031D1*
X24906Y24259D1*
X24815Y24247D1*
X24739Y24246D1*
X24663Y24253D1*
X24589Y24269D1*
X24516Y24292D1*
X24447Y24323D1*
X24381Y24361D1*
X24319Y24406D1*
X24263Y24457D1*
X24212Y24514D1*
X24168Y24576D1*
X24131Y24643D1*
X24101Y24713D1*
X24079Y24786D1*
X24065Y24861D1*
X24059Y24955D1*
X24061Y25455D1*
Y25513D1*
X24071Y25588D1*
X24090Y25662D1*
X24116Y25734D1*
X24149Y25802D1*
X24190Y25866D1*
X24238Y25926D1*
X24291Y25980D1*
X24350Y26028D1*
X24414Y26070D1*
X24482Y26104D1*
X24553Y26131D1*
X24627Y26150D1*
X24702Y26161D1*
X24778Y26164D1*
X24854Y26159D1*
X24929Y26146D1*
X25003Y26124D1*
X25073Y26095D1*
X25140Y26059D1*
X25202Y26016D1*
X25260Y25966D1*
X25312Y25910D1*
X25358Y25849D1*
X25397Y25784D1*
X25428Y25714D1*
X25452Y25642D1*
X25468Y25568D1*
X25477Y25448D1*
Y24996D1*
X27333Y23142D1*
X27405Y23092D1*
X27461Y23040D1*
X27509Y22981D1*
X27543Y22932D1*
X28080Y22395D1*
X28814D1*
X29173Y22756D1*
Y23972D1*
X29179Y24048D1*
X29198Y24122D1*
X29228Y24192D1*
X29270Y24255D1*
X29309Y24300D1*
X29893Y24884D1*
X29158Y25620D1*
X29176Y25492D1*
X29177Y24955D1*
X29173Y24879D1*
X29161Y24804D1*
X29141Y24730D1*
X29113Y24660D1*
X29077Y24592D1*
X29035Y24529D1*
X28986Y24470D1*
X28931Y24418D1*
X28871Y24371D1*
X28806Y24331D1*
X28737Y24299D1*
X28665Y24274D1*
X28591Y24256D1*
X28515Y24247D1*
X28439Y24246D1*
X28363Y24253D1*
X28289Y24269D1*
X28216Y24292D1*
X28147Y24323D1*
X28081Y24361D1*
X28019Y24406D1*
X27963Y24457D1*
X27912Y24514D1*
X27868Y24576D1*
X27831Y24643D1*
X27801Y24713D1*
X27779Y24786D1*
X27765Y24861D1*
X27759Y24955D1*
X27761Y25455D1*
Y25513D1*
X27771Y25588D1*
X27790Y25662D1*
X27816Y25734D1*
X27849Y25802D1*
X27890Y25866D1*
X27938Y25926D1*
X28004Y25991D1*
X28005Y28417D1*
X27912Y28514D1*
X27868Y28576D1*
X27831Y28643D1*
X27801Y28713D1*
X27779Y28786D1*
X27765Y28861D1*
X27759Y28955D1*
X27761Y29455D1*
Y29513D1*
X27771Y29588D1*
X27790Y29662D1*
X27816Y29734D1*
X27849Y29802D1*
X27890Y29866D1*
X27938Y29926D1*
X27991Y29980D1*
X28050Y30028D1*
X28114Y30070D1*
X28182Y30104D1*
X28253Y30131D1*
X28327Y30150D1*
X28402Y30161D1*
X28478Y30164D1*
X28554Y30159D1*
X28629Y30146D1*
X28703Y30124D1*
X28773Y30095D1*
X28840Y30059D1*
X28919Y30002D1*
X28917Y30513D1*
X28667Y30763D1*
X25085D1*
X25009Y30769D1*
X24936Y30788D1*
X24866Y30818D1*
X24802Y30860D1*
X24758Y30899D1*
X24440Y31216D1*
X24391Y31274D1*
X24352Y31340D1*
X24324Y31410D1*
X24309Y31485D1*
X24305Y31544D1*
Y33418D1*
X24212Y33514D1*
X24168Y33576D1*
X24131Y33643D1*
X24101Y33713D1*
X24079Y33786D1*
X24065Y33861D1*
X24059Y33955D1*
X24061Y34455D1*
Y34513D1*
X24071Y34588D1*
X24090Y34662D1*
X24116Y34734D1*
X24149Y34802D1*
X24190Y34866D1*
X24238Y34926D1*
X24304Y34991D1*
X24305Y35055D1*
X24219Y35158D1*
X24182Y35224D1*
X24154Y35295D1*
X24135Y35369D1*
X24127Y35445D1*
X24129Y35521D1*
X24142Y35596D1*
X24164Y35669D1*
X24196Y35738D1*
X24237Y35802D1*
X24286Y35860D1*
X24343Y35911D1*
X24406Y35954D1*
X24474Y35988D1*
X24546Y36013D1*
X24621Y36027D1*
X24697Y36032D1*
X24773Y36026D1*
X24847Y36010D1*
X24919Y35984D1*
X24986Y35949D1*
X25048Y35905D1*
X25104Y35853D1*
X25152Y35794D1*
X25192Y35729D1*
X25223Y35660D1*
X25244Y35586D1*
X25257Y35467D1*
X25252Y35391D1*
X25231Y35301D1*
Y34993D1*
X25312Y34910D1*
X25358Y34849D1*
X25397Y34784D1*
X25428Y34714D1*
X25452Y34642D1*
X25468Y34568D1*
X25477Y34448D1*
X25475Y33955D1*
X25473Y33879D1*
X25461Y33804D1*
X25441Y33730D1*
X25413Y33660D1*
X25377Y33592D1*
X25335Y33529D1*
X25286Y33470D1*
X25229Y33416D1*
X25231Y32910D1*
Y31736D1*
X25279Y31688D1*
X25695Y31690D1*
X28859D1*
X28935Y31684D1*
X29008Y31665D1*
X29078Y31635D1*
X29142Y31593D1*
X29186Y31554D1*
X29565Y31175D1*
Y35760D1*
X29287Y35480D1*
X28932Y35125D1*
X28931Y34990D1*
X29012Y34910D1*
X29058Y34849D1*
X29097Y34784D1*
X29128Y34714D1*
X29152Y34642D1*
X29168Y34568D1*
X29177Y34448D1*
X29175Y33955D1*
X29173Y33879D1*
X29161Y33804D1*
X29141Y33730D1*
X29113Y33660D1*
X29077Y33592D1*
X29035Y33529D1*
X28986Y33470D1*
X28931Y33418D1*
X28871Y33371D1*
X28806Y33331D1*
X28737Y33299D1*
X28665Y33274D1*
X28591Y33256D1*
X28515Y33247D1*
X28439Y33246D1*
X28363Y33253D1*
X28289Y33269D1*
X28216Y33292D1*
X28147Y33323D1*
X28081Y33361D1*
X28019Y33406D1*
X27963Y33457D1*
X27912Y33514D1*
X27868Y33576D1*
X27831Y33643D1*
X27801Y33713D1*
X27779Y33786D1*
X27765Y33861D1*
X27759Y33955D1*
X27761Y34455D1*
Y34513D1*
X27771Y34588D1*
X27790Y34662D1*
X27816Y34734D1*
X27849Y34802D1*
X27890Y34866D1*
X27938Y34926D1*
X28004Y34991D1*
X28005Y35316D1*
X28011Y35392D1*
X28030Y35466D1*
X28060Y35535D1*
X28101Y35599D1*
X28140Y35643D1*
X29509Y37012D1*
X29090Y37010D1*
X28016D1*
X27054Y36047D1*
X27055Y35013D1*
X27110Y34966D1*
X27162Y34910D1*
X27208Y34849D1*
X27247Y34784D1*
X27278Y34714D1*
X27302Y34642D1*
X27318Y34568D1*
X27327Y34448D1*
X27325Y33955D1*
X27323Y33879D1*
X27311Y33804D1*
X27291Y33730D1*
X27263Y33660D1*
X27227Y33592D1*
X27185Y33529D1*
X27136Y33470D1*
X27081Y33418D1*
X27021Y33371D1*
X26956Y33331D1*
X26887Y33299D1*
X26815Y33274D1*
X26741Y33256D1*
X26665Y33247D1*
X26589Y33246D1*
X26513Y33253D1*
X26439Y33269D1*
X26366Y33292D1*
X26297Y33323D1*
X26231Y33361D1*
X26169Y33406D1*
X26113Y33457D1*
X26062Y33514D1*
X26018Y33576D1*
X25981Y33643D1*
X25951Y33713D1*
X25929Y33786D1*
X25915Y33861D1*
X25909Y33955D1*
X25911Y34455D1*
Y34513D1*
X25921Y34588D1*
X25940Y34662D1*
X25966Y34734D1*
X25999Y34802D1*
X26040Y34866D1*
X26129Y34968D1*
X26128Y35908D1*
Y36240D1*
X26134Y36315D1*
X26153Y36389D1*
X26183Y36459D1*
X26225Y36523D1*
X26264Y36567D1*
X27498Y37801D1*
X27556Y37851D1*
X27621Y37890D1*
X27692Y37917D1*
X27767Y37933D1*
X27826Y37937D1*
X29280D1*
X29502Y38160D1*
X29416Y38147D1*
X28987Y38146D1*
X28868Y38148D1*
X28764Y38153D1*
X28689Y38169D1*
X28616Y38192D1*
X28547Y38223D1*
X28481Y38261D1*
X28419Y38306D1*
X28363Y38357D1*
X28313Y38414D1*
X28269Y38476D1*
X28231Y38543D1*
X28202Y38613D1*
X28179Y38686D1*
X28165Y38761D1*
X28159Y38836D1*
X28161Y38913D1*
X28172Y38988D1*
X28190Y39062D1*
X28216Y39134D1*
X28253Y39208D1*
X26882Y40580D1*
X26834Y40639D1*
X26799Y40707D1*
X26782Y40767D1*
X26776Y40912D1*
Y43487D1*
X26727Y43504D1*
X26652Y43516D1*
X26581Y43543D1*
X26517Y43584D1*
X26498Y43602D1*
X26446Y43560D1*
X26377Y43526D1*
X26303Y43508D1*
X26227Y43504D1*
X26152Y43516D1*
X26081Y43543D1*
X26017Y43584D1*
X25998Y43602D1*
X25946Y43560D1*
X25877Y43526D1*
X25803Y43508D1*
X25727Y43504D1*
X25652Y43516D1*
X25581Y43543D1*
X25517Y43584D1*
X25498Y43602D1*
X25446Y43560D1*
X25377Y43526D1*
X25303Y43508D1*
X25227Y43504D1*
X25152Y43516D1*
X25081Y43543D1*
X25017Y43584D1*
X24962Y43637D1*
X24919Y43699D1*
X24890Y43770D1*
X24875Y43844D1*
X24874Y44031D1*
X24876Y44640D1*
X24883Y44670D1*
X24808Y44664D1*
X24088Y44666D1*
X24067Y44664D1*
X23992Y44676D1*
X23921Y44703D1*
X23857Y44744D1*
X23802Y44797D1*
X23759Y44859D1*
X23730Y44930D1*
X23715Y45004D1*
X23716Y45080D1*
X23732Y45155D1*
X23763Y45224D1*
X23809Y45288D1*
X23759Y45359D1*
X23730Y45430D1*
X23715Y45504D1*
X23716Y45580D1*
X23732Y45655D1*
X23763Y45724D1*
X23809Y45788D1*
X23759Y45859D1*
X23730Y45930D1*
X23715Y46004D1*
X23716Y46080D1*
X23732Y46155D1*
X23763Y46224D1*
X23809Y46288D1*
X23759Y46359D1*
X23730Y46430D1*
X23715Y46504D1*
X23716Y46580D1*
X23732Y46655D1*
X23763Y46724D1*
X23809Y46788D1*
X23759Y46859D1*
X23730Y46930D1*
X23715Y47004D1*
X23716Y47080D1*
X23732Y47155D1*
X23763Y47224D1*
X23809Y47288D1*
X23759Y47359D1*
X23730Y47430D1*
X23715Y47504D1*
X23716Y47580D1*
X23732Y47655D1*
X23763Y47724D1*
X23807Y47786D1*
X23863Y47838D1*
X23928Y47877D1*
X24000Y47902D1*
X24088Y47913D1*
X24808Y47911D1*
X24883Y47905D1*
X24876Y47980D1*
X24874Y48207D1*
X24876Y48740D1*
X24892Y48815D1*
X24923Y48884D1*
X24967Y48946D1*
X25023Y48998D1*
X25088Y49037D1*
X25160Y49062D1*
X25235Y49073D1*
X25311Y49068D1*
X25385Y49047D1*
X25452Y49013D1*
X25499Y48975D1*
X25562Y49021D1*
X25515Y49127D1*
X25497Y49201D1*
X25488Y49276D1*
X25491Y49352D1*
X25503Y49428D1*
X25525Y49500D1*
X25557Y49569D1*
X25598Y49634D1*
X25648Y49692D1*
X25704Y49743D1*
X25767Y49786D1*
X25835Y49820D1*
X25907Y49844D1*
X25982Y49859D1*
X26058Y49863D1*
X26134Y49857D1*
X26208Y49842D1*
X26280Y49816D1*
X26347Y49780D1*
X26410Y49736D1*
X26465Y49685D1*
X26513Y49626D1*
X26553Y49561D1*
X26584Y49491D1*
X26605Y49418D1*
X26618Y49298D1*
X26613Y49222D1*
X26603Y49172D1*
X26610Y49020D1*
X26688Y49042D1*
X26764Y49047D1*
X26839Y49036D1*
X26910Y49008D1*
X26973Y48966D1*
X26980Y48959D1*
X27023Y48998D1*
X27088Y49037D1*
X27160Y49062D1*
X27235Y49073D1*
X27311Y49068D1*
X27385Y49047D1*
X27452Y49013D1*
X27499Y48975D1*
X23549Y58840D2*
X24853D1*
Y58021D1*
X23534D1*
Y58840D1*
X23549D1*
X25749Y57540D2*
X27053D1*
Y56721D1*
X25734D1*
Y57540D1*
X25749D1*
X25810Y58840D2*
X27053D1*
Y58547D1*
X27241Y58549D1*
X27242Y58720D1*
X29661D1*
Y57451D1*
X27242D1*
Y57620D1*
X26928Y57622D1*
X26739D1*
X26663Y57629D1*
X26589Y57647D1*
X26519Y57678D1*
X26455Y57719D1*
X26399Y57770D1*
X26352Y57830D1*
X26315Y57897D1*
X26297Y57948D1*
X26222Y58023D1*
X25986Y58021D1*
X25734D1*
Y58840D1*
X25810D1*
X31928Y50709D2*
X31869Y50707D1*
X31755Y50722D1*
X31656Y50753D1*
X31563Y50802D1*
X31480Y50866D1*
X31409Y50943D1*
X31353Y51032D1*
X31313Y51129D1*
X31291Y51231D1*
X31286Y51336D1*
X31291Y51395D1*
X31309Y51476D1*
X31328Y51532D1*
X31381Y51634D1*
X31444Y51716D1*
X31522Y51787D1*
X31551Y51807D1*
Y51936D1*
X31450Y51897D1*
X31376Y51880D1*
X31300Y51871D1*
X31224Y51870D1*
X31148Y51877D1*
X31074Y51892D1*
X31001Y51915D1*
X30931Y51946D1*
X30865Y51984D1*
X30804Y52029D1*
X30748Y52080D1*
X30697Y52137D1*
X30653Y52199D1*
X30616Y52266D1*
X30586Y52336D1*
X30563Y52408D1*
X30549Y52483D1*
X30543Y52559D1*
X30545Y52635D1*
X30555Y52711D1*
X30573Y52785D1*
X30599Y52856D1*
X30633Y52925D1*
X30673Y52989D1*
X30721Y53049D1*
X30774Y53103D1*
X30833Y53151D1*
X30897Y53193D1*
X30965Y53228D1*
X31036Y53255D1*
X31109Y53274D1*
X31185Y53285D1*
X31261Y53288D1*
X31337Y53283D1*
X31412Y53270D1*
X31485Y53249D1*
X31556Y53220D1*
X31623Y53184D1*
X31685Y53141D1*
X31743Y53091D1*
X31795Y53036D1*
X31841Y52975D1*
X31880Y52910D1*
X31929Y52789D1*
X32008Y52830D1*
X32080Y52855D1*
X32155Y52869D1*
X32231Y52874D1*
X32307Y52868D1*
X32381Y52852D1*
X32453Y52826D1*
X32520Y52791D1*
X32582Y52747D1*
X32638Y52695D1*
X32686Y52636D1*
X32726Y52571D1*
X32757Y52501D1*
X32778Y52428D1*
X32791Y52309D1*
X32785Y52233D1*
X32770Y52158D1*
X32745Y52086D1*
X32710Y52019D1*
X32667Y51956D1*
X32615Y51900D1*
X32557Y51851D1*
X32492Y51811D1*
X32423Y51779D1*
X32350Y51758D1*
X32296Y51749D1*
X32366Y51674D1*
X32422Y51586D1*
X32462Y51489D1*
X32484Y51386D1*
X32489Y51281D1*
X32475Y51178D1*
X32443Y51077D1*
X32394Y50985D1*
X32330Y50901D1*
X32253Y50831D1*
X32164Y50775D1*
X32067Y50735D1*
X31965Y50712D1*
X31928Y50709D1*
Y49439D2*
X31869Y49437D1*
X31755Y49452D1*
X31656Y49483D1*
X31563Y49532D1*
X31480Y49596D1*
X31409Y49673D1*
X31353Y49762D1*
X31313Y49859D1*
X31291Y49961D1*
X31286Y50066D1*
X31291Y50125D1*
X31309Y50206D1*
X31328Y50262D1*
X31381Y50364D1*
X31444Y50446D1*
X31522Y50517D1*
X31610Y50573D1*
X31708Y50613D1*
X31810Y50636D1*
X31915Y50640D1*
X32019Y50626D1*
X32119Y50594D1*
X32160Y50575D1*
X32243Y50635D1*
X32311Y50669D1*
X32383Y50694D1*
X32458Y50708D1*
X32534Y50713D1*
X32610Y50707D1*
X32684Y50691D1*
X32756Y50665D1*
X32823Y50630D1*
X32885Y50586D1*
X32941Y50534D1*
X32989Y50475D1*
X33029Y50410D1*
X33060Y50340D1*
X33081Y50267D1*
X33094Y50148D1*
X33089Y50072D1*
X33073Y49997D1*
X33048Y49925D1*
X33013Y49858D1*
X32970Y49795D1*
X32919Y49739D1*
X32860Y49690D1*
X32795Y49650D1*
X32726Y49619D1*
X32653Y49597D1*
X32578Y49585D1*
X32502Y49584D1*
X32426Y49592D1*
X32324Y49623D1*
X32252Y49560D1*
X32164Y49505D1*
X32067Y49465D1*
X31965Y49442D1*
X31928Y49439D1*
X30689Y50711D2*
X30590Y50708D1*
X30501Y50717D1*
X30400Y50747D1*
X30305Y50793D1*
X30221Y50855D1*
X30148Y50931D1*
X30089Y51018D1*
X30047Y51114D1*
X30022Y51216D1*
X30015Y51321D1*
X30026Y51425D1*
X30055Y51526D1*
X30102Y51621D1*
X30164Y51706D1*
X30239Y51778D1*
X30327Y51837D1*
X30423Y51879D1*
X30525Y51904D1*
X30630Y51911D1*
X30734Y51900D1*
X30835Y51871D1*
X30929Y51825D1*
X31014Y51763D1*
X31087Y51687D1*
X31145Y51600D1*
X31188Y51503D1*
X31213Y51401D1*
X31220Y51297D1*
X31209Y51192D1*
X31180Y51091D1*
X31133Y50997D1*
X31071Y50912D1*
X30995Y50839D1*
X30908Y50781D1*
X30812Y50738D1*
X30710Y50713D1*
X30689Y50711D1*
X23889Y41846D2*
X23794Y41850D1*
X23689Y41869D1*
X23588Y41903D1*
X23494Y41953D1*
X23408Y42016D1*
X23332Y42091D1*
X23269Y42176D1*
X23219Y42270D1*
X23183Y42371D1*
X23163Y42476D1*
X23159Y42582D1*
X23172Y42688D1*
X23199Y42791D1*
X23242Y42889D1*
X23299Y42979D1*
X23369Y43059D1*
X23450Y43128D1*
X23541Y43184D1*
X23639Y43226D1*
X23742Y43253D1*
X23848Y43264D1*
X24409Y43263D1*
X24515Y43249D1*
X24617Y43219D1*
X24714Y43174D1*
X24803Y43116D1*
X24882Y43044D1*
X24949Y42962D1*
X25004Y42870D1*
X25044Y42771D1*
X25069Y42668D1*
X25078Y42562D1*
X25072Y42464D1*
X25050Y42359D1*
X25013Y42260D1*
X24962Y42166D1*
X24897Y42082D1*
X24820Y42008D1*
X24733Y41946D1*
X24637Y41899D1*
X24536Y41866D1*
X24431Y41848D1*
X24307Y41846D1*
X23868D1*
X23870Y39997D2*
X23764Y40003D1*
X23689Y40019D1*
X23616Y40042D1*
X23547Y40073D1*
X23481Y40111D1*
X23419Y40156D1*
X23333Y40241D1*
X21629Y40242D1*
X21553Y40248D1*
X21479Y40267D1*
X21410Y40297D1*
X21346Y40338D1*
X21301Y40377D1*
X20324Y41352D1*
X20088Y41378D1*
X20000Y41408D1*
X19812Y41526D1*
X19721Y41610D1*
X19422Y41909D1*
X19352Y42011D1*
X19274Y42135D1*
X19243Y42223D1*
X19218Y42444D1*
X19229Y42536D1*
X19302Y42746D1*
X19352Y42825D1*
X19509Y42982D1*
X19588Y43032D1*
X19798Y43105D1*
X19890Y43116D1*
X20112Y43091D1*
X20199Y43060D1*
X20387Y42942D1*
X20478Y42859D1*
X20777Y42560D1*
X20848Y42458D1*
X20926Y42334D1*
X20956Y42246D1*
X20981Y42023D1*
X21020Y41969D1*
X21820Y41169D1*
X23332Y41168D1*
X23391Y41230D1*
X23450Y41278D1*
X23514Y41320D1*
X23582Y41354D1*
X23653Y41381D1*
X23727Y41400D1*
X23802Y41411D1*
X24021Y41414D1*
X24368Y41412D1*
X24455Y41409D1*
X24530Y41396D1*
X24603Y41374D1*
X24673Y41345D1*
X24740Y41309D1*
X24803Y41266D1*
X24860Y41216D1*
X24912Y41160D1*
X24958Y41099D1*
X24997Y41034D1*
X25028Y40964D1*
X25052Y40892D1*
X25069Y40818D1*
X25078Y40705D1*
X25073Y40629D1*
X25061Y40554D1*
X25041Y40480D1*
X25013Y40410D1*
X24978Y40342D1*
X24935Y40279D1*
X24886Y40220D1*
X24831Y40168D1*
X24771Y40121D1*
X24706Y40081D1*
X24637Y40049D1*
X24565Y40024D1*
X24491Y40006D1*
X24366Y39997D1*
X23868Y39996D1*
Y39998D1*
X23870Y38147D2*
X23764Y38153D1*
X23689Y38169D1*
X23616Y38192D1*
X23547Y38223D1*
X23481Y38261D1*
X23419Y38306D1*
X23333Y38391D1*
X20863Y38392D1*
X20787Y38398D1*
X20713Y38417D1*
X20643Y38447D1*
X20579Y38488D1*
X20535Y38527D1*
X19016Y40044D1*
X18780Y40069D1*
X18692Y40100D1*
X18504Y40218D1*
X18413Y40302D1*
X18114Y40601D1*
X18044Y40703D1*
X17966Y40826D1*
X17935Y40914D1*
X17910Y41136D1*
X17920Y41228D1*
X17994Y41438D1*
X18043Y41517D1*
X18201Y41674D1*
X18280Y41724D1*
X18490Y41797D1*
X18582Y41808D1*
X18803Y41783D1*
X18891Y41752D1*
X19079Y41634D1*
X19170Y41551D1*
X19469Y41252D1*
X19540Y41150D1*
X19618Y41026D1*
X19648Y40938D1*
X19673Y40714D1*
X19712Y40661D1*
X21054Y39319D1*
X23332Y39318D1*
X23391Y39380D1*
X23450Y39428D1*
X23514Y39470D1*
X23582Y39504D1*
X23653Y39531D1*
X23727Y39550D1*
X23802Y39561D1*
X24021Y39564D1*
X24368Y39562D1*
X24455Y39559D1*
X24530Y39546D1*
X24603Y39524D1*
X24673Y39495D1*
X24740Y39459D1*
X24803Y39416D1*
X24860Y39366D1*
X24912Y39310D1*
X24958Y39249D1*
X24997Y39184D1*
X25028Y39114D1*
X25052Y39042D1*
X25069Y38968D1*
X25078Y38855D1*
X25073Y38779D1*
X25061Y38704D1*
X25041Y38630D1*
X25013Y38560D1*
X24978Y38492D1*
X24935Y38429D1*
X24886Y38370D1*
X24831Y38318D1*
X24771Y38271D1*
X24706Y38231D1*
X24637Y38199D1*
X24565Y38174D1*
X24491Y38156D1*
X24366Y38147D1*
X23868Y38146D1*
Y38148D1*
X25387Y56658D2*
X26890D1*
Y55240D1*
X25372D1*
Y56658D1*
X25387D1*
X17760Y46260D2*
X17560Y46389D1*
X17184Y46764D1*
X17116Y46867D1*
X17032Y47005D1*
X17016Y47064D1*
X16990Y47318D1*
X17000Y47378D1*
X17087Y47618D1*
X17122Y47667D1*
X17305Y47846D1*
X17358Y47875D1*
X17600Y47957D1*
X17661Y47960D1*
X17914Y47929D1*
X17970Y47905D1*
X18185Y47768D1*
X18561Y47392D1*
X18596Y47340D1*
X18713Y47151D1*
X18729Y47092D1*
X18755Y46838D1*
X18744Y46778D1*
X18658Y46538D1*
X18622Y46489D1*
X18440Y46310D1*
X18387Y46281D1*
X18145Y46199D1*
X18084Y46196D1*
X17831Y46227D1*
X17775Y46251D1*
X17760Y46260D1*
X16400Y44984D2*
X16277Y45062D1*
X16186Y45145D1*
X15887Y45444D1*
X15816Y45546D1*
X15738Y45670D1*
X15708Y45758D1*
X15683Y45979D1*
X15693Y46072D1*
X15768Y46284D1*
X15752Y46308D1*
X15049Y47011D1*
X14999Y47069D1*
X14960Y47134D1*
X14933Y47205D1*
X14917Y47280D1*
X14913Y47338D1*
Y48751D1*
X14838Y48782D1*
X14772Y48820D1*
X14710Y48865D1*
X14654Y48916D1*
X14604Y48973D1*
X14560Y49035D1*
X14522Y49102D1*
X14493Y49172D1*
X14470Y49245D1*
X14456Y49319D1*
X14450Y49414D1*
X14452Y49914D1*
Y49972D1*
X14463Y50047D1*
X14481Y50121D1*
X14507Y50192D1*
X14541Y50261D1*
X14581Y50325D1*
X14629Y50385D1*
X14682Y50439D1*
X14741Y50487D1*
X14805Y50529D1*
X14873Y50563D1*
X14944Y50590D1*
X15018Y50609D1*
X15093Y50620D1*
X15170Y50623D1*
X15246Y50618D1*
X15321Y50605D1*
X15394Y50583D1*
X15464Y50554D1*
X15531Y50518D1*
X15594Y50475D1*
X15651Y50425D1*
X15703Y50369D1*
X15749Y50308D1*
X15788Y50243D1*
X15819Y50173D1*
X15843Y50101D1*
X15860Y50027D1*
X15868Y49907D1*
X15866Y49414D1*
X15864Y49338D1*
X15839Y49214D1*
X15840Y47530D1*
X16892Y46478D1*
X16926Y46440D1*
X16997Y46340D1*
X17242Y46095D1*
X17312Y45993D1*
X17390Y45870D1*
X17421Y45782D1*
X17446Y45561D1*
X17435Y45468D1*
X17362Y45258D1*
X17312Y45179D1*
X17155Y45022D1*
X17076Y44972D1*
X16866Y44899D1*
X16774Y44888D1*
X16552Y44913D1*
X16464Y44944D1*
X16400Y44984D1*
X15092Y43676D2*
X14969Y43754D1*
X14877Y43837D1*
X14578Y44136D1*
X14508Y44238D1*
X14430Y44362D1*
X14399Y44450D1*
X14374Y44671D1*
X14386Y44766D1*
X13689Y45465D1*
X13396Y45758D1*
X13346Y45817D1*
X13307Y45882D1*
X13279Y45953D1*
X13264Y46027D1*
X13260Y46086D1*
Y48708D1*
X13205Y48712D1*
X13130Y48728D1*
X13057Y48751D1*
X12988Y48782D1*
X12922Y48820D1*
X12860Y48865D1*
X12804Y48916D1*
X12754Y48973D1*
X12710Y49035D1*
X12672Y49102D1*
X12643Y49172D1*
X12620Y49245D1*
X12606Y49319D1*
X12600Y49414D1*
X12602Y49914D1*
Y49972D1*
X12613Y50047D1*
X12631Y50121D1*
X12657Y50192D1*
X12691Y50261D1*
X12731Y50325D1*
X12779Y50385D1*
X12832Y50439D1*
X12891Y50487D1*
X12955Y50529D1*
X13023Y50563D1*
X13094Y50590D1*
X13168Y50609D1*
X13243Y50620D1*
X13320Y50623D1*
X13396Y50618D1*
X13471Y50605D1*
X13544Y50583D1*
X13614Y50554D1*
X13681Y50518D1*
X13744Y50475D1*
X13801Y50425D1*
X13853Y50369D1*
X13899Y50308D1*
X13938Y50243D1*
X13969Y50173D1*
X13993Y50101D1*
X14010Y50027D1*
X14018Y49907D1*
X14019Y49611D1*
X14100Y49520D1*
X14139Y49454D1*
X14167Y49383D1*
X14183Y49309D1*
X14186Y49250D1*
Y46276D1*
X14805Y45659D1*
X15130Y45334D1*
X15268Y45318D1*
X15356Y45288D1*
X15543Y45170D1*
X15635Y45086D1*
X15934Y44787D1*
X16004Y44685D1*
X16082Y44561D1*
X16113Y44474D1*
X16138Y44252D1*
X16127Y44160D1*
X16054Y43950D1*
X16004Y43871D1*
X15847Y43714D1*
X15768Y43664D1*
X15558Y43591D1*
X15465Y43580D1*
X15244Y43605D1*
X15156Y43636D1*
X15092Y43676D1*
X14450Y54893D2*
X14452Y54972D1*
X14463Y55047D1*
X14481Y55121D1*
X14507Y55192D1*
X14541Y55261D1*
X14581Y55325D1*
X14629Y55385D1*
X14695Y55449D1*
X14696Y57860D1*
X14702Y57936D1*
X14721Y58010D1*
X14751Y58080D1*
X14793Y58144D1*
X14832Y58188D1*
X15682Y59041D1*
X15708Y59277D1*
X15738Y59365D1*
X15856Y59553D1*
X15940Y59644D1*
X16239Y59943D1*
X16341Y60013D1*
X16464Y60091D1*
X16552Y60122D1*
X16774Y60147D1*
X16866Y60136D1*
X17076Y60063D1*
X17155Y60013D1*
X17312Y59856D1*
X17362Y59777D1*
X17435Y59567D1*
X17446Y59475D1*
X17421Y59254D1*
X17390Y59166D1*
X17272Y58978D1*
X17189Y58887D1*
X16890Y58588D1*
X16788Y58517D1*
X16664Y58439D1*
X16576Y58409D1*
X16353Y58384D1*
X16299Y58345D1*
X15621Y57666D1*
X15623Y57251D1*
Y55453D1*
X15703Y55369D1*
X15749Y55308D1*
X15788Y55243D1*
X15819Y55173D1*
X15843Y55101D1*
X15860Y55027D1*
X15868Y54907D1*
X15866Y54414D1*
X15864Y54338D1*
X15852Y54263D1*
X15832Y54189D1*
X15804Y54118D1*
X15769Y54051D1*
X15726Y53988D1*
X15677Y53929D1*
X15622Y53877D1*
X15562Y53830D1*
X15497Y53790D1*
X15428Y53758D1*
X15356Y53733D1*
X15282Y53715D1*
X15207Y53706D1*
X15130Y53705D1*
X15055Y53712D1*
X14980Y53728D1*
X14907Y53751D1*
X14838Y53782D1*
X14772Y53820D1*
X14710Y53865D1*
X14654Y53916D1*
X14604Y53973D1*
X14560Y54035D1*
X14522Y54102D1*
X14493Y54172D1*
X14470Y54245D1*
X14456Y54319D1*
X14450Y54414D1*
X14452Y54914D1*
X12600Y54893D2*
X12602Y54972D1*
X12613Y55047D1*
X12631Y55121D1*
X12657Y55192D1*
X12691Y55261D1*
X12731Y55325D1*
X12779Y55385D1*
X12845Y55449D1*
X12846Y58627D1*
X12852Y58703D1*
X12871Y58776D1*
X12901Y58846D1*
X12943Y58910D1*
X12982Y58954D1*
X14374Y60349D1*
X14399Y60585D1*
X14430Y60673D1*
X14548Y60861D1*
X14632Y60952D1*
X14931Y61251D1*
X15032Y61322D1*
X15156Y61399D1*
X15244Y61430D1*
X15465Y61455D1*
X15558Y61445D1*
X15768Y61371D1*
X15847Y61322D1*
X16004Y61164D1*
X16054Y61085D1*
X16127Y60875D1*
X16138Y60783D1*
X16113Y60562D1*
X16082Y60474D1*
X15964Y60286D1*
X15881Y60195D1*
X15582Y59896D1*
X15480Y59825D1*
X15356Y59748D1*
X15268Y59717D1*
X15044Y59692D1*
X14991Y59653D1*
X13774Y58436D1*
X13773Y55452D1*
X13853Y55369D1*
X13899Y55308D1*
X13938Y55243D1*
X13969Y55173D1*
X13993Y55101D1*
X14010Y55027D1*
X14018Y54907D1*
X14016Y54414D1*
X14014Y54338D1*
X14002Y54263D1*
X13982Y54189D1*
X13954Y54118D1*
X13919Y54051D1*
X13876Y53988D1*
X13827Y53929D1*
X13772Y53877D1*
X13712Y53830D1*
X13647Y53790D1*
X13578Y53758D1*
X13506Y53733D1*
X13432Y53715D1*
X13357Y53706D1*
X13280Y53705D1*
X13205Y53712D1*
X13130Y53728D1*
X13057Y53751D1*
X12988Y53782D1*
X12922Y53820D1*
X12860Y53865D1*
X12804Y53916D1*
X12754Y53973D1*
X12710Y54035D1*
X12672Y54102D1*
X12643Y54172D1*
X12620Y54245D1*
X12606Y54319D1*
X12600Y54414D1*
X12602Y54914D1*
X20590Y61605D2*
X20718Y61805D1*
X21094Y62181D1*
X21197Y62249D1*
X21335Y62333D1*
X21394Y62349D1*
X21648Y62376D1*
X21707Y62365D1*
X21948Y62278D1*
X21997Y62243D1*
X22176Y62060D1*
X22205Y62007D1*
X22287Y61765D1*
X22290Y61705D1*
X22259Y61451D1*
X22235Y61395D1*
X22097Y61180D1*
X21722Y60804D1*
X21619Y60737D1*
X21481Y60652D1*
X21422Y60636D1*
X21168Y60610D1*
X21108Y60621D1*
X20868Y60707D1*
X20819Y60743D1*
X20640Y60925D1*
X20611Y60978D1*
X20529Y61220D1*
X20526Y61281D1*
X20557Y61534D1*
X20581Y61590D1*
X20590Y61605D1*
X19314Y62965D2*
X19392Y63088D1*
X19475Y63179D1*
X19774Y63478D1*
X19876Y63549D1*
X20000Y63627D1*
X20088Y63658D1*
X20311Y63682D1*
X20365Y63721D1*
X20594Y63951D1*
X20653Y64000D1*
X20718Y64039D1*
X20789Y64067D1*
X20863Y64083D1*
X20922Y64086D1*
X23329D1*
X23391Y64148D1*
X23450Y64196D1*
X23514Y64238D1*
X23582Y64272D1*
X23653Y64299D1*
X23727Y64318D1*
X23802Y64329D1*
X24021Y64332D1*
X24368Y64330D1*
X24455Y64327D1*
X24530Y64314D1*
X24603Y64293D1*
X24673Y64264D1*
X24740Y64227D1*
X24803Y64184D1*
X24860Y64134D1*
X24912Y64078D1*
X24958Y64017D1*
X24997Y63952D1*
X25028Y63883D1*
X25052Y63810D1*
X25069Y63736D1*
X25078Y63623D1*
X25073Y63547D1*
X25061Y63472D1*
X25041Y63398D1*
X25013Y63328D1*
X24978Y63260D1*
X24935Y63197D1*
X24886Y63139D1*
X24831Y63086D1*
X24771Y63039D1*
X24706Y62999D1*
X24637Y62967D1*
X24565Y62942D1*
X24491Y62925D1*
X24366Y62915D1*
X23868Y62914D1*
X23839D1*
X23764Y62922D1*
X23689Y62937D1*
X23616Y62960D1*
X23547Y62991D1*
X23481Y63029D1*
X23419Y63074D1*
X23333Y63159D1*
X21115Y63160D1*
X20982Y63026D1*
X20956Y62789D1*
X20926Y62701D1*
X20808Y62514D1*
X20724Y62422D1*
X20425Y62123D1*
X20323Y62053D1*
X20199Y61975D1*
X20112Y61944D1*
X19890Y61919D1*
X19798Y61930D1*
X19588Y62003D1*
X19509Y62053D1*
X19352Y62210D1*
X19302Y62289D1*
X19229Y62499D1*
X19218Y62592D1*
X19243Y62813D1*
X19274Y62901D1*
X19314Y62965D1*
X18006Y64273D2*
X18084Y64396D1*
X18167Y64488D1*
X18466Y64787D1*
X18568Y64857D1*
X18692Y64935D1*
X18780Y64966D1*
X19003Y64990D1*
X19057Y65029D1*
X19828Y65801D1*
X19886Y65850D1*
X19952Y65889D1*
X20022Y65917D1*
X20097Y65933D1*
X20156Y65936D1*
X23330D1*
X23391Y65998D1*
X23450Y66046D1*
X23514Y66088D1*
X23582Y66122D1*
X23653Y66149D1*
X23727Y66168D1*
X23802Y66179D1*
X24021Y66182D1*
X24368Y66180D1*
X24455Y66177D1*
X24530Y66164D1*
X24603Y66143D1*
X24673Y66114D1*
X24740Y66077D1*
X24803Y66034D1*
X24860Y65984D1*
X24912Y65928D1*
X24958Y65867D1*
X24997Y65802D1*
X25028Y65733D1*
X25052Y65660D1*
X25069Y65586D1*
X25078Y65473D1*
X25073Y65397D1*
X25061Y65322D1*
X25041Y65248D1*
X25013Y65178D1*
X24978Y65110D1*
X24935Y65047D1*
X24886Y64989D1*
X24831Y64936D1*
X24771Y64889D1*
X24706Y64849D1*
X24637Y64817D1*
X24565Y64792D1*
X24491Y64775D1*
X24366Y64765D1*
X23868Y64764D1*
X23839D1*
X23764Y64772D1*
X23689Y64787D1*
X23616Y64810D1*
X23547Y64841D1*
X23481Y64879D1*
X23419Y64924D1*
X23333Y65009D1*
X20349Y65010D1*
X19674Y64334D1*
X19648Y64097D1*
X19618Y64009D1*
X19500Y63822D1*
X19416Y63730D1*
X19117Y63431D1*
X19015Y63361D1*
X18891Y63283D1*
X18803Y63252D1*
X18582Y63227D1*
X18490Y63238D1*
X18280Y63311D1*
X18201Y63361D1*
X18043Y63518D1*
X17994Y63597D1*
X17920Y63807D1*
X17910Y63900D1*
X17935Y64121D1*
X17966Y64209D1*
X18006Y64273D1*
X36470Y60051D2*
X36593Y59973D1*
X36684Y59890D1*
X36983Y59591D1*
X37054Y59489D1*
X37132Y59365D1*
X37162Y59277D1*
X37187Y59054D1*
X37226Y59000D1*
X38405Y57821D1*
X38454Y57763D1*
X38493Y57698D1*
X38521Y57627D1*
X38537Y57553D1*
X38541Y57494D1*
Y55448D1*
X38621Y55369D1*
X38667Y55308D1*
X38706Y55243D1*
X38737Y55173D1*
X38761Y55101D1*
X38778Y55027D1*
X38786Y54907D1*
X38784Y54414D1*
X38782Y54338D1*
X38770Y54263D1*
X38750Y54189D1*
X38722Y54118D1*
X38687Y54051D1*
X38644Y53988D1*
X38595Y53929D1*
X38540Y53877D1*
X38480Y53830D1*
X38415Y53790D1*
X38346Y53758D1*
X38274Y53733D1*
X38200Y53715D1*
X38125Y53706D1*
X38048Y53705D1*
X37973Y53712D1*
X37898Y53728D1*
X37825Y53751D1*
X37756Y53782D1*
X37690Y53820D1*
X37628Y53865D1*
X37572Y53916D1*
X37522Y53973D1*
X37478Y54035D1*
X37440Y54102D1*
X37411Y54172D1*
X37388Y54245D1*
X37374Y54319D1*
X37368Y54414D1*
X37370Y54914D1*
Y54972D1*
X37381Y55047D1*
X37399Y55121D1*
X37425Y55192D1*
X37459Y55261D1*
X37499Y55325D1*
X37547Y55385D1*
X37613Y55449D1*
X37614Y57305D1*
X37265Y57651D1*
X36530Y58383D1*
X36294Y58409D1*
X36206Y58439D1*
X36018Y58557D1*
X35927Y58641D1*
X35628Y58940D1*
X35558Y59042D1*
X35480Y59166D1*
X35449Y59254D1*
X35424Y59475D1*
X35435Y59567D1*
X35508Y59777D1*
X35558Y59856D1*
X35715Y60013D1*
X35794Y60063D1*
X36004Y60137D1*
X36096Y60147D1*
X36318Y60122D1*
X36405Y60091D1*
X36470Y60051D1*
X37778Y61359D2*
X37901Y61282D1*
X37993Y61198D1*
X38292Y60899D1*
X38362Y60797D1*
X38440Y60673D1*
X38471Y60585D1*
X38495Y60362D1*
X38534Y60308D1*
X40255Y58588D1*
X40304Y58530D1*
X40343Y58464D1*
X40371Y58394D1*
X40387Y58319D1*
X40391Y58260D1*
Y55453D1*
X40471Y55369D1*
X40517Y55308D1*
X40556Y55243D1*
X40587Y55173D1*
X40611Y55101D1*
X40628Y55027D1*
X40636Y54907D1*
X40634Y54414D1*
X40632Y54338D1*
X40620Y54263D1*
X40600Y54189D1*
X40572Y54118D1*
X40537Y54051D1*
X40494Y53988D1*
X40445Y53929D1*
X40390Y53877D1*
X40330Y53830D1*
X40265Y53790D1*
X40196Y53758D1*
X40124Y53733D1*
X40050Y53715D1*
X39975Y53706D1*
X39898Y53705D1*
X39823Y53712D1*
X39748Y53728D1*
X39675Y53751D1*
X39606Y53782D1*
X39540Y53820D1*
X39478Y53865D1*
X39422Y53916D1*
X39372Y53973D1*
X39328Y54035D1*
X39290Y54102D1*
X39261Y54172D1*
X39238Y54245D1*
X39224Y54319D1*
X39218Y54414D1*
X39220Y54914D1*
Y54972D1*
X39231Y55047D1*
X39249Y55121D1*
X39275Y55192D1*
X39309Y55261D1*
X39349Y55325D1*
X39397Y55385D1*
X39463Y55449D1*
X39464Y58067D1*
X37840Y59692D1*
X37823D1*
X37602Y59717D1*
X37514Y59748D1*
X37327Y59865D1*
X37235Y59949D1*
X36936Y60248D1*
X36866Y60350D1*
X36788Y60474D1*
X36757Y60562D1*
X36732Y60783D1*
X36743Y60875D1*
X36816Y61085D1*
X36866Y61164D1*
X37023Y61322D1*
X37102Y61371D1*
X37312Y61445D1*
X37405Y61455D1*
X37626Y61430D1*
X37714Y61399D1*
X37778Y61359D1*
X37368Y49893D2*
X37370Y49972D1*
X37381Y50047D1*
X37399Y50121D1*
X37425Y50192D1*
X37459Y50261D1*
X37499Y50325D1*
X37547Y50385D1*
X37600Y50439D1*
X37659Y50487D1*
X37723Y50529D1*
X37791Y50563D1*
X37862Y50590D1*
X37936Y50609D1*
X38011Y50620D1*
X38088Y50623D1*
X38164Y50618D1*
X38239Y50605D1*
X38312Y50583D1*
X38382Y50554D1*
X38449Y50518D1*
X38512Y50475D1*
X38569Y50425D1*
X38621Y50369D1*
X38667Y50308D1*
X38706Y50243D1*
X38737Y50173D1*
X38761Y50101D1*
X38778Y50027D1*
X38786Y49907D1*
X38784Y49414D1*
X38782Y49338D1*
X38770Y49263D1*
X38750Y49189D1*
X38722Y49118D1*
X38687Y49051D1*
X38644Y48988D1*
X38595Y48929D1*
X38538Y48875D1*
X38541Y48368D1*
Y47541D1*
X38534Y47465D1*
X38516Y47392D1*
X38485Y47322D1*
X38444Y47258D1*
X38405Y47214D1*
X37188Y45995D1*
X37162Y45758D1*
X37132Y45670D1*
X37014Y45483D1*
X36930Y45391D1*
X36631Y45092D1*
X36529Y45022D1*
X36406Y44944D1*
X36318Y44913D1*
X36096Y44888D1*
X36004Y44899D1*
X35794Y44972D1*
X35715Y45022D1*
X35558Y45179D1*
X35508Y45258D1*
X35435Y45468D1*
X35424Y45561D1*
X35449Y45782D1*
X35480Y45870D1*
X35598Y46057D1*
X35681Y46149D1*
X35980Y46448D1*
X36082Y46518D1*
X36206Y46596D1*
X36294Y46627D1*
X36517Y46651D1*
X36571Y46690D1*
X37613Y47732D1*
X37614Y48877D1*
X37522Y48973D1*
X37478Y49035D1*
X37440Y49102D1*
X37411Y49172D1*
X37388Y49245D1*
X37374Y49319D1*
X37368Y49414D1*
X37370Y49914D1*
X39218Y49893D2*
X39220Y49972D1*
X39231Y50047D1*
X39249Y50121D1*
X39275Y50192D1*
X39309Y50261D1*
X39349Y50325D1*
X39397Y50385D1*
X39450Y50439D1*
X39509Y50487D1*
X39573Y50529D1*
X39641Y50563D1*
X39712Y50590D1*
X39786Y50609D1*
X39861Y50620D1*
X39938Y50623D1*
X40014Y50618D1*
X40089Y50605D1*
X40162Y50583D1*
X40232Y50554D1*
X40299Y50518D1*
X40362Y50475D1*
X40419Y50425D1*
X40471Y50369D1*
X40517Y50308D1*
X40556Y50243D1*
X40587Y50173D1*
X40611Y50101D1*
X40628Y50027D1*
X40636Y49907D1*
X40634Y49414D1*
X40632Y49338D1*
X40620Y49263D1*
X40600Y49189D1*
X40572Y49118D1*
X40537Y49051D1*
X40494Y48988D1*
X40445Y48929D1*
X40388Y48875D1*
X40391Y48368D1*
Y46775D1*
X40384Y46699D1*
X40366Y46625D1*
X40335Y46556D1*
X40294Y46492D1*
X40255Y46447D1*
X38496Y44686D1*
X38471Y44450D1*
X38440Y44362D1*
X38322Y44174D1*
X38238Y44083D1*
X37939Y43784D1*
X37838Y43714D1*
X37714Y43636D1*
X37626Y43605D1*
X37405Y43580D1*
X37312Y43591D1*
X37102Y43664D1*
X37023Y43714D1*
X36866Y43871D1*
X36816Y43950D1*
X36743Y44160D1*
X36732Y44252D1*
X36757Y44474D1*
X36788Y44561D1*
X36906Y44749D1*
X36989Y44840D1*
X37288Y45139D1*
X37390Y45210D1*
X37514Y45288D1*
X37602Y45318D1*
X37826Y45343D1*
X37879Y45382D1*
X39463Y46966D1*
X39464Y48878D1*
X39372Y48973D1*
X39328Y49035D1*
X39290Y49102D1*
X39261Y49172D1*
X39238Y49245D1*
X39224Y49319D1*
X39218Y49414D1*
X39220Y49914D1*
X21773Y53619D2*
X21760Y53544D1*
X21739Y53471D1*
X21710Y53401D1*
X21674Y53334D1*
X21630Y53271D1*
X21579Y53214D1*
X21523Y53163D1*
X21461Y53119D1*
X21395Y53081D1*
X21325Y53051D1*
X21252Y53030D1*
X21177Y53016D1*
X21101Y53011D1*
X21025Y53014D1*
X20950Y53026D1*
X20876Y53046D1*
X20805Y53074D1*
X20738Y53109D1*
X20675Y53152D1*
X20617Y53202D1*
X20566Y53258D1*
X20520Y53319D1*
X20482Y53385D1*
X20451Y53455D1*
X20429Y53527D1*
X20414Y53602D1*
X20408Y53678D1*
X20410Y53754D1*
X20421Y53829D1*
X20440Y53903D1*
X20467Y53974D1*
X20502Y54042D1*
X20544Y54105D1*
X20593Y54164D1*
X20648Y54216D1*
X20709Y54263D1*
X20774Y54302D1*
X20843Y54333D1*
X20916Y54357D1*
X20990Y54372D1*
X21066Y54380D1*
X21142Y54378D1*
X21218Y54368D1*
X21292Y54350D1*
X21363Y54324D1*
X21431Y54290D1*
X21495Y54249D1*
X21554Y54201D1*
X21608Y54146D1*
X21654Y54086D1*
X21694Y54021D1*
X21727Y53952D1*
X21751Y53880D1*
X21768Y53806D1*
X21777Y53695D1*
X21773Y53619D1*
Y50619D2*
X21760Y50544D1*
X21739Y50471D1*
X21710Y50401D1*
X21674Y50334D1*
X21630Y50271D1*
X21579Y50214D1*
X21523Y50163D1*
X21461Y50119D1*
X21395Y50081D1*
X21325Y50051D1*
X21252Y50030D1*
X21177Y50016D1*
X21101Y50011D1*
X21025Y50014D1*
X20950Y50026D1*
X20876Y50046D1*
X20805Y50074D1*
X20738Y50109D1*
X20675Y50152D1*
X20617Y50202D1*
X20566Y50258D1*
X20520Y50319D1*
X20482Y50385D1*
X20451Y50455D1*
X20429Y50527D1*
X20414Y50602D1*
X20408Y50678D1*
X20410Y50754D1*
X20421Y50829D1*
X20440Y50903D1*
X20467Y50974D1*
X20502Y51042D1*
X20544Y51105D1*
X20593Y51164D1*
X20648Y51216D1*
X20709Y51263D1*
X20774Y51302D1*
X20843Y51333D1*
X20916Y51357D1*
X20990Y51372D1*
X21066Y51380D1*
X21142Y51378D1*
X21218Y51368D1*
X21292Y51350D1*
X21363Y51324D1*
X21431Y51290D1*
X21495Y51249D1*
X21554Y51201D1*
X21608Y51146D1*
X21654Y51086D1*
X21694Y51021D1*
X21727Y50952D1*
X21751Y50880D1*
X21768Y50806D1*
X21777Y50695D1*
X21773Y50619D1*
X25477Y29440D2*
Y29435D1*
Y28925D1*
X25464Y28819D1*
X25436Y28716D1*
X25393Y28619D1*
X25335Y28529D1*
X25265Y28449D1*
X25183Y28380D1*
X25092Y28324D1*
X24994Y28283D1*
X24891Y28256D1*
X24785Y28246D1*
X24679Y28251D1*
X24574Y28273D1*
X24474Y28310D1*
X24381Y28361D1*
X24296Y28426D1*
X24222Y28502D1*
X24160Y28589D1*
X24112Y28684D1*
X24079Y28786D1*
X24062Y28891D1*
X24059Y29001D1*
X24061Y29513D1*
X24078Y29618D1*
X24110Y29720D1*
X24157Y29815D1*
X24218Y29903D1*
X24291Y29980D1*
X24375Y30046D1*
X24468Y30098D1*
X24568Y30135D1*
X24672Y30158D1*
X24778Y30164D1*
X24885Y30155D1*
X24988Y30129D1*
X25087Y30089D1*
X25178Y30034D1*
X25260Y29966D1*
X25331Y29886D1*
X25389Y29797D1*
X25434Y29700D1*
X25463Y29598D1*
X25476Y29492D1*
X25477Y29440D1*
X25909Y29434D2*
X25911Y29513D1*
X25921Y29588D1*
X25940Y29662D1*
X25966Y29734D1*
X25999Y29802D1*
X26040Y29866D1*
X26088Y29926D1*
X26141Y29980D1*
X26200Y30028D1*
X26264Y30070D1*
X26332Y30104D1*
X26403Y30131D1*
X26477Y30150D1*
X26552Y30161D1*
X26628Y30164D1*
X26704Y30159D1*
X26779Y30146D1*
X26853Y30124D1*
X26923Y30095D1*
X26990Y30059D1*
X27052Y30016D1*
X27110Y29966D1*
X27162Y29910D1*
X27208Y29849D1*
X27247Y29784D1*
X27278Y29714D1*
X27302Y29642D1*
X27318Y29568D1*
X27327Y29448D1*
X27325Y28955D1*
X27323Y28879D1*
X27311Y28804D1*
X27291Y28730D1*
X27263Y28660D1*
X27227Y28592D1*
X27185Y28529D1*
X27136Y28470D1*
X27079Y28416D1*
X27081Y27910D1*
Y25993D1*
X27162Y25910D1*
X27208Y25849D1*
X27247Y25784D1*
X27278Y25714D1*
X27302Y25642D1*
X27318Y25568D1*
X27327Y25448D1*
X27325Y24955D1*
X27323Y24879D1*
X27311Y24804D1*
X27291Y24730D1*
X27263Y24660D1*
X27227Y24592D1*
X27185Y24529D1*
X27136Y24470D1*
X27081Y24418D1*
X27021Y24371D1*
X26956Y24331D1*
X26887Y24299D1*
X26815Y24274D1*
X26741Y24256D1*
X26665Y24247D1*
X26589Y24246D1*
X26513Y24253D1*
X26439Y24269D1*
X26366Y24292D1*
X26297Y24323D1*
X26231Y24361D1*
X26169Y24406D1*
X26113Y24457D1*
X26062Y24514D1*
X26018Y24576D1*
X25981Y24643D1*
X25951Y24713D1*
X25929Y24786D1*
X25915Y24861D1*
X25909Y24955D1*
X25911Y25455D1*
Y25513D1*
X25921Y25588D1*
X25940Y25662D1*
X25966Y25734D1*
X25999Y25802D1*
X26040Y25866D1*
X26088Y25926D1*
X26154Y25991D1*
X26155Y28417D1*
X26062Y28514D1*
X26018Y28576D1*
X25981Y28643D1*
X25951Y28713D1*
X25929Y28786D1*
X25915Y28861D1*
X25909Y28955D1*
X25911Y29455D1*
X25477Y20440D2*
Y20435D1*
Y19925D1*
X25464Y19819D1*
X25436Y19716D1*
X25393Y19619D1*
X25335Y19529D1*
X25265Y19449D1*
X25183Y19380D1*
X25092Y19324D1*
X24994Y19283D1*
X24891Y19256D1*
X24785Y19246D1*
X24679Y19251D1*
X24574Y19273D1*
X24474Y19310D1*
X24381Y19361D1*
X24296Y19426D1*
X24222Y19502D1*
X24160Y19589D1*
X24112Y19684D1*
X24079Y19786D1*
X24062Y19891D1*
X24059Y20001D1*
X24061Y20513D1*
X24078Y20618D1*
X24110Y20720D1*
X24157Y20815D1*
X24218Y20903D1*
X24291Y20980D1*
X24375Y21046D1*
X24468Y21098D1*
X24568Y21135D1*
X24672Y21158D1*
X24778Y21164D1*
X24885Y21155D1*
X24988Y21129D1*
X25087Y21089D1*
X25178Y21034D1*
X25260Y20966D1*
X25331Y20886D1*
X25389Y20797D1*
X25434Y20700D1*
X25463Y20598D1*
X25476Y20492D1*
X25477Y20440D1*
X25909Y20434D2*
X25911Y20513D1*
X25921Y20588D1*
X25940Y20662D1*
X25966Y20734D1*
X25999Y20802D1*
X26040Y20866D1*
X26088Y20926D1*
X26141Y20980D1*
X26200Y21028D1*
X26264Y21070D1*
X26332Y21104D1*
X26403Y21131D1*
X26477Y21150D1*
X26552Y21161D1*
X26628Y21164D1*
X26704Y21159D1*
X26779Y21146D1*
X26853Y21124D1*
X26923Y21095D1*
X26990Y21059D1*
X27052Y21016D1*
X27110Y20966D1*
X27162Y20910D1*
X27208Y20849D1*
X27247Y20784D1*
X27278Y20714D1*
X27302Y20642D1*
X27318Y20568D1*
X27327Y20448D1*
X27325Y19955D1*
X27323Y19879D1*
X27311Y19804D1*
X27291Y19730D1*
X27263Y19660D1*
X27227Y19592D1*
X27185Y19529D1*
X27136Y19470D1*
X27079Y19416D1*
X27081Y18910D1*
Y16993D1*
X27162Y16910D1*
X27208Y16849D1*
X27247Y16784D1*
X27278Y16714D1*
X27302Y16642D1*
X27318Y16568D1*
X27327Y16448D1*
X27325Y15955D1*
X27323Y15879D1*
X27311Y15804D1*
X27291Y15730D1*
X27263Y15660D1*
X27227Y15592D1*
X27185Y15529D1*
X27136Y15470D1*
X27081Y15418D1*
X27021Y15371D1*
X26956Y15331D1*
X26887Y15299D1*
X26815Y15274D1*
X26741Y15256D1*
X26665Y15247D1*
X26589Y15246D1*
X26513Y15253D1*
X26439Y15269D1*
X26366Y15292D1*
X26297Y15323D1*
X26231Y15361D1*
X26169Y15406D1*
X26113Y15457D1*
X26062Y15514D1*
X26018Y15576D1*
X25981Y15643D1*
X25951Y15713D1*
X25929Y15786D1*
X25915Y15861D1*
X25909Y15955D1*
X25911Y16455D1*
Y16513D1*
X25921Y16588D1*
X25940Y16662D1*
X25966Y16734D1*
X25999Y16802D1*
X26040Y16866D1*
X26088Y16926D1*
X26154Y16991D1*
X26155Y19417D1*
X26062Y19514D1*
X26018Y19576D1*
X25981Y19643D1*
X25951Y19713D1*
X25929Y19786D1*
X25915Y19861D1*
X25909Y19955D1*
X25911Y20455D1*
X36759Y25434D2*
X36761Y25513D1*
X36786Y25646D1*
X36300Y25647D1*
X36318Y25568D1*
X36327Y25448D1*
X36325Y24955D1*
X36323Y24879D1*
X36311Y24804D1*
X36291Y24730D1*
X36263Y24660D1*
X36227Y24592D1*
X36185Y24529D1*
X36136Y24470D1*
X36072Y24410D1*
X36115Y24314D1*
X36137Y24241D1*
X36149Y24121D1*
X36144Y24045D1*
X36129Y23971D1*
X36104Y23899D1*
X36069Y23831D1*
X36026Y23769D1*
X35974Y23713D1*
X35916Y23664D1*
X35851Y23623D1*
X35782Y23592D1*
X35709Y23570D1*
X35633Y23559D1*
X35557Y23557D1*
X35482Y23566D1*
X35408Y23585D1*
X35337Y23613D1*
X35271Y23651D1*
X35211Y23698D1*
X35157Y23752D1*
X35111Y23813D1*
X35074Y23879D1*
X35046Y23950D1*
X35028Y24024D1*
X35020Y24099D1*
X35022Y24175D1*
X35034Y24251D1*
X35057Y24323D1*
X35089Y24393D1*
X35121Y24443D1*
X35062Y24514D1*
X35018Y24576D1*
X34981Y24643D1*
X34951Y24713D1*
X34929Y24786D1*
X34915Y24861D1*
X34909Y24955D1*
X34911Y25455D1*
Y25513D1*
X34936Y25646D1*
X34452Y25647D1*
X34468Y25568D1*
X34477Y25448D1*
X34475Y24955D1*
X34473Y24879D1*
X34461Y24804D1*
X34441Y24730D1*
X34413Y24660D1*
X34377Y24592D1*
X34335Y24529D1*
X34286Y24470D1*
X34231Y24418D1*
X34171Y24371D1*
X34106Y24331D1*
X34037Y24299D1*
X33965Y24274D1*
X33891Y24256D1*
X33815Y24247D1*
X33739Y24246D1*
X33663Y24253D1*
X33589Y24269D1*
X33516Y24292D1*
X33447Y24323D1*
X33381Y24361D1*
X33319Y24406D1*
X33263Y24457D1*
X33212Y24514D1*
X33168Y24576D1*
X33131Y24643D1*
X33084Y24770D1*
X32595Y24772D1*
X31093D1*
X30100Y23781D1*
Y19628D1*
X30936Y19626D1*
X33138Y19629D1*
X33096Y19727D1*
X33070Y19830D1*
X33059Y19936D1*
X33060Y20497D1*
X33074Y20603D1*
X33104Y20705D1*
X33149Y20802D1*
X33208Y20891D1*
X33280Y20970D1*
X33363Y21037D1*
X33454Y21091D1*
X33553Y21131D1*
X33657Y21156D1*
X33763Y21164D1*
X33869Y21157D1*
X33974Y21134D1*
X34073Y21095D1*
X34165Y21043D1*
X34249Y20976D1*
X34322Y20898D1*
X34382Y20810D1*
X34428Y20714D1*
X34460Y20613D1*
X34475Y20507D1*
X34477Y20333D1*
X34475Y19894D1*
X34458Y19789D1*
X34425Y19687D1*
X34396Y19626D1*
X34963D1*
X34926Y19709D1*
X34904Y19782D1*
X34890Y19857D1*
X34883Y19955D1*
X34886Y20455D1*
X34885Y20509D1*
X34895Y20585D1*
X34912Y20659D1*
X34937Y20731D1*
X34969Y20800D1*
X35008Y20865D1*
X35054Y20926D1*
X35106Y20982D1*
X35163Y21032D1*
X35226Y21076D1*
X35292Y21113D1*
X35362Y21144D1*
X35434Y21166D1*
X35509Y21182D1*
X35585Y21189D1*
X35661Y21188D1*
X35737Y21180D1*
X35811Y21164D1*
X35884Y21140D1*
X35953Y21109D1*
X36019Y21071D1*
X36081Y21026D1*
X36137Y20975D1*
X36188Y20918D1*
X36233Y20857D1*
X36271Y20791D1*
X36303Y20722D1*
X36327Y20649D1*
X36343Y20575D1*
X36352Y20448D1*
X36350Y19955D1*
X36349Y19879D1*
X36337Y19804D1*
X36318Y19730D1*
X36274Y19627D1*
X36811Y19626D1*
X36776Y19709D1*
X36754Y19782D1*
X36740Y19857D1*
X36733Y19955D1*
X36736Y20455D1*
X36735Y20509D1*
X36745Y20585D1*
X36762Y20659D1*
X36787Y20731D1*
X36819Y20800D1*
X36858Y20865D1*
X36904Y20926D1*
X36956Y20982D1*
X37013Y21032D1*
X37076Y21076D1*
X37142Y21113D1*
X37212Y21144D1*
X37284Y21166D1*
X37359Y21182D1*
X37435Y21189D1*
X37511Y21188D1*
X37587Y21180D1*
X37661Y21164D1*
X37734Y21140D1*
X37803Y21109D1*
X37869Y21071D1*
X37931Y21026D1*
X37987Y20975D1*
X38038Y20918D1*
X38083Y20857D1*
X38121Y20791D1*
X38153Y20722D1*
X38177Y20649D1*
X38193Y20575D1*
X38202Y20448D1*
X38200Y19955D1*
X38199Y19879D1*
X38187Y19804D1*
X38168Y19730D1*
X38124Y19627D1*
X38455Y19626D1*
Y25647D1*
X38152D1*
X38168Y25568D1*
X38177Y25448D1*
X38175Y24955D1*
X38173Y24879D1*
X38161Y24804D1*
X38141Y24730D1*
X38113Y24660D1*
X38077Y24592D1*
X38035Y24529D1*
X37978Y24462D1*
X38013Y24387D1*
X38034Y24314D1*
X38047Y24194D1*
X38042Y24118D1*
X38027Y24044D1*
X38001Y23972D1*
X37967Y23904D1*
X37923Y23842D1*
X37872Y23786D1*
X37813Y23737D1*
X37749Y23696D1*
X37679Y23665D1*
X37606Y23643D1*
X37531Y23632D1*
X37455Y23630D1*
X37379Y23639D1*
X37306Y23658D1*
X37235Y23686D1*
X37169Y23724D1*
X37109Y23771D1*
X37055Y23825D1*
X37009Y23885D1*
X36972Y23952D1*
X36944Y24023D1*
X36926Y24097D1*
X36918Y24172D1*
X36920Y24248D1*
X36932Y24324D1*
X36954Y24396D1*
X36977Y24446D1*
X36912Y24514D1*
X36868Y24576D1*
X36831Y24643D1*
X36801Y24713D1*
X36779Y24786D1*
X36765Y24861D1*
X36759Y24955D1*
X36761Y25455D1*
X32521Y65010D2*
X29903Y65009D1*
X29831Y64936D1*
X29771Y64889D1*
X29706Y64849D1*
X29637Y64817D1*
X29565Y64792D1*
X29491Y64775D1*
X29366Y64765D1*
X28868Y64764D1*
X28839D1*
X28764Y64772D1*
X28689Y64787D1*
X28616Y64810D1*
X28547Y64841D1*
X28481Y64879D1*
X28419Y64924D1*
X28363Y64975D1*
X28313Y65032D1*
X28269Y65094D1*
X28231Y65161D1*
X28202Y65231D1*
X28179Y65304D1*
X28165Y65379D1*
X28159Y65455D1*
X28161Y65531D1*
X28172Y65606D1*
X28190Y65680D1*
X28216Y65752D1*
X28250Y65820D1*
X28290Y65884D1*
X28338Y65944D1*
X28391Y65998D1*
X28450Y66046D1*
X28514Y66088D1*
X28582Y66122D1*
X28653Y66149D1*
X28727Y66168D1*
X28802Y66179D1*
X29021Y66182D1*
X29368Y66180D1*
X29455Y66177D1*
X29530Y66164D1*
X29603Y66143D1*
X29673Y66114D1*
X29740Y66077D1*
X29803Y66034D1*
X29904Y65937D1*
X32714Y65936D1*
X32790Y65930D1*
X32864Y65912D1*
X32934Y65881D1*
X32998Y65840D1*
X33042Y65801D1*
X33854Y64991D1*
X34090Y64966D1*
X34178Y64935D1*
X34366Y64817D1*
X34457Y64733D1*
X34756Y64434D1*
X34826Y64333D1*
X34904Y64209D1*
X34935Y64121D1*
X34960Y63900D1*
X34950Y63807D1*
X34876Y63597D1*
X34826Y63518D1*
X34669Y63361D1*
X34590Y63311D1*
X34380Y63238D1*
X34288Y63227D1*
X34067Y63252D1*
X33979Y63283D1*
X33791Y63401D1*
X33700Y63485D1*
X33401Y63784D1*
X33330Y63885D1*
X33252Y64009D1*
X33222Y64097D1*
X33197Y64335D1*
X32523Y65009D1*
X31755Y63160D2*
X29903Y63159D1*
X29831Y63086D1*
X29771Y63039D1*
X29706Y62999D1*
X29637Y62967D1*
X29565Y62942D1*
X29491Y62925D1*
X29366Y62915D1*
X28868Y62914D1*
X28839D1*
X28764Y62922D1*
X28689Y62937D1*
X28616Y62960D1*
X28547Y62991D1*
X28481Y63029D1*
X28419Y63074D1*
X28363Y63125D1*
X28313Y63182D1*
X28269Y63244D1*
X28231Y63311D1*
X28202Y63381D1*
X28179Y63454D1*
X28165Y63529D1*
X28159Y63605D1*
X28161Y63681D1*
X28172Y63756D1*
X28190Y63830D1*
X28216Y63902D1*
X28250Y63970D1*
X28290Y64034D1*
X28338Y64094D1*
X28391Y64148D1*
X28450Y64196D1*
X28514Y64238D1*
X28582Y64272D1*
X28653Y64299D1*
X28727Y64318D1*
X28802Y64329D1*
X29021Y64332D1*
X29368Y64330D1*
X29455Y64327D1*
X29530Y64314D1*
X29603Y64293D1*
X29673Y64264D1*
X29740Y64227D1*
X29803Y64184D1*
X29904Y64087D1*
X31948Y64086D1*
X32024Y64080D1*
X32098Y64062D1*
X32167Y64031D1*
X32231Y63990D1*
X32276Y63951D1*
X32546Y63683D1*
X32782Y63658D1*
X32870Y63627D1*
X33058Y63509D1*
X33149Y63425D1*
X33448Y63126D1*
X33518Y63024D1*
X33596Y62901D1*
X33627Y62813D1*
X33652Y62592D1*
X33641Y62499D1*
X33568Y62289D1*
X33518Y62210D1*
X33361Y62053D1*
X33282Y62003D1*
X33072Y61930D1*
X32980Y61919D1*
X32758Y61944D1*
X32670Y61975D1*
X32483Y62093D1*
X32392Y62176D1*
X32093Y62475D1*
X32022Y62577D1*
X31944Y62701D1*
X31914Y62789D1*
X31889Y63027D1*
X31757Y63159D1*
X23535Y58840D2*
X24852Y58022D1*
Y58840D2*
X23535Y58022D1*
X25735Y57540D2*
X27052Y56722D1*
Y57540D2*
X25735Y56722D1*
X30192Y51734D2*
X31043Y50884D1*
Y51734D2*
X30192Y50884D1*
X23486Y43152D2*
X24751Y41958D1*
Y43152D2*
X23486Y41958D1*
X25372Y56658D2*
X26890Y55240D1*
Y56658D2*
X25372Y55240D1*
X17203Y47747D2*
X18542Y46409D1*
X18374Y47579D2*
X17371Y46577D1*
X16412Y55297D2*
X17606Y54031D1*
Y55297D2*
X16412Y54031D1*
X20906Y61994D2*
X21909Y60991D1*
X22077Y62162D2*
X20739Y60823D1*
X28486Y62370D2*
X29118Y61773D1*
X29751Y62370D2*
X29118Y61773D1*
X34328Y58627D2*
X35667Y57288D1*
X35499Y58459D2*
X34998Y57957D1*
X35630Y50297D2*
X36824Y49031D1*
Y50297D2*
X35630Y49031D1*
X31462Y43542D2*
X31964Y43041D1*
X32131Y44212D2*
X30793Y42873D1*
X24171Y29838D2*
X25365Y28572D1*
Y29838D2*
X24171Y28572D1*
Y20838D2*
X25365Y19572D1*
Y20838D2*
X24171Y19572D1*
Y11838D2*
X24768Y11205D1*
X25365Y11838D2*
X24768Y11205D1*
X19468Y25205D2*
X20065Y24572D1*
X19468Y25205D2*
X18871Y24572D1*
X26114Y53416D2*
X27433Y52298D1*
Y53416D2*
X26114Y52298D1*
X33171Y20838D2*
X34365Y19572D1*
Y20838D2*
X33171Y19572D1*
D23*
X27748Y48338D3*
X27248D3*
X26748D3*
X26248D3*
X25748D3*
X25248D3*
D24*
X24448Y47538D3*
Y47038D3*
Y46538D3*
Y46038D3*
Y45538D3*
Y45038D3*
D23*
X25248Y44238D3*
X25748D3*
X26248D3*
X26748D3*
X27248D3*
X27748D3*
D24*
X28548Y45038D3*
Y45538D3*
Y46038D3*
Y46538D3*
Y47038D3*
Y47538D3*
D25*
X27398Y47188D3*
Y46288D3*
Y45388D3*
X26498Y47188D3*
Y46288D3*
Y45388D3*
X25598Y47188D3*
Y46288D3*
Y45388D3*
D26*
X26498Y46288D3*
D28*
X24193Y59731D3*
Y58431D3*
Y57131D3*
X26393D3*
Y58431D3*
Y59731D3*
G36*
X31887Y50915D2*
X31956Y50921D1*
X32022Y50939D1*
X32084Y50968D1*
X32140Y51007D1*
X32189Y51056D1*
X32228Y51112D1*
X32257Y51174D1*
X32275Y51240D1*
X32281Y51309D1*
D1*
X32275Y51377D1*
X32257Y51444D1*
X32228Y51506D1*
X32189Y51562D1*
X32140Y51610D1*
X32084Y51650D1*
X32022Y51679D1*
X31956Y51697D1*
X31887Y51703D1*
D1*
X31819Y51697D1*
X31753Y51679D1*
X31691Y51650D1*
X31634Y51610D1*
X31586Y51562D1*
X31546Y51506D1*
X31517Y51444D1*
X31500Y51377D1*
X31494Y51309D1*
D1*
X31500Y51240D1*
X31517Y51174D1*
X31546Y51112D1*
X31586Y51056D1*
X31634Y51007D1*
X31691Y50968D1*
X31753Y50939D1*
X31819Y50921D1*
X31887Y50915D1*
G37*
G36*
Y49645D2*
X31956Y49651D1*
X32022Y49669D1*
X32084Y49698D1*
X32140Y49737D1*
X32189Y49786D1*
X32228Y49842D1*
X32257Y49904D1*
X32275Y49970D1*
X32281Y50039D1*
D1*
X32275Y50107D1*
X32257Y50174D1*
X32228Y50236D1*
X32189Y50292D1*
X32140Y50340D1*
X32084Y50380D1*
X32022Y50409D1*
X31956Y50427D1*
X31887Y50433D1*
D1*
X31819Y50427D1*
X31753Y50409D1*
X31691Y50380D1*
X31634Y50340D1*
X31586Y50292D1*
X31546Y50236D1*
X31517Y50174D1*
X31500Y50107D1*
X31494Y50039D1*
D1*
X31500Y49970D1*
X31517Y49904D1*
X31546Y49842D1*
X31586Y49786D1*
X31634Y49737D1*
X31691Y49698D1*
X31753Y49669D1*
X31819Y49651D1*
X31887Y49645D1*
G37*
G36*
Y48375D2*
X31956Y48381D1*
X32022Y48399D1*
X32084Y48428D1*
X32140Y48467D1*
X32189Y48516D1*
X32228Y48572D1*
X32257Y48634D1*
X32275Y48700D1*
X32281Y48769D1*
D1*
X32275Y48837D1*
X32257Y48904D1*
X32228Y48966D1*
X32189Y49022D1*
X32140Y49070D1*
X32084Y49110D1*
X32022Y49139D1*
X31956Y49157D1*
X31887Y49163D1*
D1*
X31819Y49157D1*
X31753Y49139D1*
X31691Y49110D1*
X31634Y49070D1*
X31586Y49022D1*
X31546Y48966D1*
X31517Y48904D1*
X31500Y48837D1*
X31494Y48769D1*
D1*
X31500Y48700D1*
X31517Y48634D1*
X31546Y48572D1*
X31586Y48516D1*
X31634Y48467D1*
X31691Y48428D1*
X31753Y48399D1*
X31819Y48381D1*
X31887Y48375D1*
G37*
G36*
X30617D2*
X30686Y48381D1*
X30752Y48399D1*
X30814Y48428D1*
X30870Y48467D1*
X30919Y48516D1*
X30958Y48572D1*
X30987Y48634D1*
X31005Y48700D1*
X31011Y48769D1*
D1*
X31005Y48837D1*
X30987Y48904D1*
X30958Y48966D1*
X30919Y49022D1*
X30870Y49070D1*
X30814Y49110D1*
X30752Y49139D1*
X30686Y49157D1*
X30617Y49163D1*
D1*
X30549Y49157D1*
X30483Y49139D1*
X30421Y49110D1*
X30364Y49070D1*
X30316Y49022D1*
X30276Y48966D1*
X30247Y48904D1*
X30230Y48837D1*
X30224Y48769D1*
D1*
X30230Y48700D1*
X30247Y48634D1*
X30276Y48572D1*
X30316Y48516D1*
X30364Y48467D1*
X30421Y48428D1*
X30483Y48399D1*
X30549Y48381D1*
X30617Y48375D1*
G37*
G36*
Y49645D2*
X30686Y49651D1*
X30752Y49669D1*
X30814Y49698D1*
X30870Y49737D1*
X30919Y49786D1*
X30958Y49842D1*
X30987Y49904D1*
X31005Y49970D1*
X31011Y50039D1*
D1*
X31005Y50107D1*
X30987Y50174D1*
X30958Y50236D1*
X30919Y50292D1*
X30870Y50340D1*
X30814Y50380D1*
X30752Y50409D1*
X30686Y50427D1*
X30617Y50433D1*
D1*
X30549Y50427D1*
X30483Y50409D1*
X30421Y50380D1*
X30364Y50340D1*
X30316Y50292D1*
X30276Y50236D1*
X30247Y50174D1*
X30230Y50107D1*
X30224Y50039D1*
D1*
X30230Y49970D1*
X30247Y49904D1*
X30276Y49842D1*
X30316Y49786D1*
X30364Y49737D1*
X30421Y49698D1*
X30483Y49669D1*
X30549Y49651D1*
X30617Y49645D1*
G37*
G36*
Y50915D2*
X30686Y50921D1*
X30752Y50939D1*
X30814Y50968D1*
X30870Y51007D1*
X30919Y51056D1*
X30958Y51112D1*
X30987Y51174D1*
X31005Y51240D1*
X31011Y51309D1*
D1*
X31005Y51377D1*
X30987Y51444D1*
X30958Y51506D1*
X30919Y51562D1*
X30870Y51610D1*
X30814Y51650D1*
X30752Y51679D1*
X30686Y51697D1*
X30617Y51703D1*
D1*
X30549Y51697D1*
X30483Y51679D1*
X30421Y51650D1*
X30364Y51610D1*
X30316Y51562D1*
X30276Y51506D1*
X30247Y51444D1*
X30230Y51377D1*
X30224Y51309D1*
D1*
X30230Y51240D1*
X30247Y51174D1*
X30276Y51112D1*
X30316Y51056D1*
X30364Y51007D1*
X30421Y50968D1*
X30483Y50939D1*
X30549Y50921D1*
X30617Y50915D1*
G37*
D31*
X29118Y38855D3*
Y40705D3*
Y42555D3*
X24118D3*
Y40705D3*
Y38855D3*
D32*
X22758Y59261D3*
Y57561D3*
D33*
X26131Y55949D3*
X24431D3*
D34*
X28452Y59786D3*
Y58086D3*
G36*
X18615Y40396D2*
X18803Y40277D1*
X19024Y40253D1*
X19234Y40326D1*
X19392Y40483D1*
X19465Y40693D1*
X19440Y40915D1*
X19322Y41103D1*
X18968Y41457D1*
X18780Y41575D1*
X18559Y41600D1*
X18349Y41526D1*
X18191Y41369D1*
X18118Y41159D1*
X18143Y40938D1*
X18261Y40749D1*
X18615Y40396D1*
G37*
G36*
X19923Y41704D2*
X20111Y41586D1*
X20333Y41561D1*
X20543Y41634D1*
X20700Y41792D1*
X20773Y42002D1*
X20748Y42223D1*
X20630Y42411D1*
X20277Y42765D1*
X20088Y42883D1*
X19867Y42908D1*
X19657Y42834D1*
X19500Y42677D1*
X19426Y42467D1*
X19451Y42246D1*
X19569Y42058D1*
X19923Y41704D1*
G37*
G36*
X21231Y43012D2*
X21420Y42894D1*
X21641Y42869D1*
X21851Y42942D1*
X22008Y43100D1*
X22082Y43310D1*
X22057Y43531D1*
X21938Y43719D1*
X21585Y44073D1*
X21396Y44191D1*
X21175Y44216D1*
X20965Y44143D1*
X20808Y43985D1*
X20734Y43775D1*
X20759Y43554D1*
X20878Y43366D1*
X21231Y43012D1*
G37*
G36*
X17696Y46548D2*
X17884Y46429D1*
X18105Y46404D1*
X18315Y46478D1*
X18472Y46635D1*
X18546Y46845D1*
X18521Y47066D1*
X18403Y47255D1*
X18049Y47608D1*
X17861Y47727D1*
X17640Y47752D1*
X17430Y47678D1*
X17272Y47521D1*
X17199Y47311D1*
X17224Y47090D1*
X17342Y46901D1*
X17696Y46548D1*
G37*
G36*
X16387Y45240D2*
X16576Y45121D1*
X16797Y45096D1*
X17007Y45170D1*
X17164Y45327D1*
X17238Y45537D1*
X17213Y45758D1*
X17095Y45947D1*
X16741Y46300D1*
X16553Y46419D1*
X16331Y46443D1*
X16121Y46370D1*
X15964Y46213D1*
X15891Y46003D1*
X15915Y45781D1*
X16034Y45593D1*
X16387Y45240D1*
G37*
G36*
X15079Y43931D2*
X15268Y43813D1*
X15489Y43788D1*
X15699Y43862D1*
X15856Y44019D1*
X15930Y44229D1*
X15905Y44450D1*
X15786Y44638D1*
X15433Y44992D1*
X15244Y45110D1*
X15023Y45135D1*
X14813Y45062D1*
X14656Y44905D1*
X14582Y44694D1*
X14607Y44473D1*
X14726Y44285D1*
X15079Y43931D1*
G37*
D36*
X13309Y49664D3*
X15159D3*
X17009D3*
Y54664D3*
X15159D3*
X13309D3*
G36*
X14726Y60750D2*
X14607Y60562D1*
X14582Y60341D1*
X14656Y60131D1*
X14813Y59973D1*
X15023Y59900D1*
X15244Y59925D1*
X15433Y60043D1*
X15786Y60397D1*
X15905Y60585D1*
X15930Y60806D1*
X15856Y61016D1*
X15699Y61174D1*
X15489Y61247D1*
X15268Y61222D1*
X15079Y61104D1*
X14726Y60750D1*
G37*
G36*
X16034Y59442D2*
X15915Y59254D1*
X15891Y59033D1*
X15964Y58823D1*
X16121Y58665D1*
X16331Y58592D1*
X16553Y58617D1*
X16741Y58735D1*
X17095Y59089D1*
X17213Y59277D1*
X17238Y59498D1*
X17164Y59708D1*
X17007Y59865D1*
X16797Y59939D1*
X16576Y59914D1*
X16387Y59796D1*
X16034Y59442D1*
G37*
G36*
X17342Y58134D2*
X17224Y57946D1*
X17199Y57724D1*
X17272Y57514D1*
X17430Y57357D1*
X17640Y57284D1*
X17861Y57308D1*
X18049Y57427D1*
X18403Y57780D1*
X18521Y57969D1*
X18546Y58190D1*
X18473Y58400D1*
X18315Y58557D1*
X18105Y58631D1*
X17884Y58606D1*
X17696Y58488D1*
X17342Y58134D1*
G37*
G36*
X20878Y61669D2*
X20759Y61481D1*
X20734Y61260D1*
X20808Y61050D1*
X20965Y60893D1*
X21175Y60819D1*
X21396Y60844D1*
X21585Y60962D1*
X21938Y61316D1*
X22057Y61504D1*
X22082Y61725D1*
X22008Y61936D1*
X21851Y62093D1*
X21641Y62166D1*
X21420Y62141D1*
X21231Y62023D1*
X20878Y61669D1*
G37*
G36*
X19569Y62978D2*
X19451Y62789D1*
X19426Y62568D1*
X19500Y62358D1*
X19657Y62201D1*
X19867Y62127D1*
X20088Y62152D1*
X20277Y62271D1*
X20630Y62624D1*
X20748Y62812D1*
X20773Y63034D1*
X20700Y63244D1*
X20543Y63401D1*
X20333Y63474D1*
X20111Y63450D1*
X19923Y63331D1*
X19569Y62978D1*
G37*
G36*
X18261Y64286D2*
X18143Y64097D1*
X18118Y63876D1*
X18191Y63666D1*
X18349Y63509D1*
X18559Y63435D1*
X18780Y63460D1*
X18968Y63579D1*
X19322Y63932D1*
X19440Y64121D1*
X19465Y64342D1*
X19392Y64552D1*
X19234Y64709D1*
X19024Y64783D1*
X18803Y64758D1*
X18615Y64639D1*
X18261Y64286D1*
G37*
D31*
X24118Y65473D3*
Y63623D3*
Y61773D3*
X29118D3*
Y63623D3*
Y65473D3*
G36*
X34255Y64639D2*
X34067Y64758D1*
X33846Y64783D1*
X33636Y64709D1*
X33478Y64552D1*
X33405Y64342D1*
X33430Y64121D1*
X33548Y63932D1*
X33902Y63579D1*
X34090Y63460D1*
X34311Y63435D1*
X34521Y63509D1*
X34678Y63666D1*
X34752Y63876D1*
X34727Y64097D1*
X34609Y64286D1*
X34255Y64639D1*
G37*
G36*
X32947Y63331D2*
X32759Y63450D1*
X32537Y63475D1*
X32327Y63401D1*
X32170Y63244D1*
X32097Y63034D1*
X32121Y62813D1*
X32240Y62624D1*
X32593Y62271D1*
X32782Y62152D1*
X33003Y62127D1*
X33213Y62201D1*
X33370Y62358D1*
X33444Y62568D1*
X33419Y62789D1*
X33301Y62978D1*
X32947Y63331D1*
G37*
G36*
X31639Y62023D2*
X31450Y62141D1*
X31229Y62166D1*
X31019Y62093D1*
X30862Y61936D1*
X30788Y61725D1*
X30813Y61504D1*
X30932Y61316D1*
X31285Y60962D1*
X31474Y60844D1*
X31695Y60819D1*
X31905Y60893D1*
X32062Y61050D1*
X32136Y61260D1*
X32111Y61481D1*
X31992Y61669D1*
X31639Y62023D1*
G37*
G36*
X35174Y58488D2*
X34986Y58606D1*
X34765Y58631D1*
X34555Y58557D1*
X34397Y58400D1*
X34324Y58190D1*
X34349Y57969D1*
X34467Y57780D1*
X34821Y57427D1*
X35009Y57308D1*
X35230Y57284D1*
X35440Y57357D1*
X35598Y57514D1*
X35671Y57724D1*
X35646Y57946D1*
X35528Y58134D1*
X35174Y58488D1*
G37*
G36*
X36483Y59796D2*
X36294Y59914D1*
X36073Y59939D1*
X35863Y59865D1*
X35706Y59708D1*
X35632Y59498D1*
X35657Y59277D1*
X35775Y59089D1*
X36129Y58735D1*
X36317Y58617D1*
X36539Y58592D1*
X36749Y58665D1*
X36906Y58823D1*
X36979Y59033D1*
X36954Y59254D1*
X36836Y59442D1*
X36483Y59796D1*
G37*
G36*
X37791Y61104D2*
X37602Y61222D1*
X37381Y61247D1*
X37171Y61174D1*
X37014Y61016D1*
X36940Y60806D1*
X36965Y60585D1*
X37084Y60397D1*
X37437Y60043D1*
X37626Y59925D1*
X37847Y59900D1*
X38057Y59973D1*
X38214Y60131D1*
X38288Y60341D1*
X38263Y60562D1*
X38144Y60750D1*
X37791Y61104D1*
G37*
D36*
X39927Y54664D3*
X38077D3*
X36227D3*
Y49664D3*
X38077D3*
X39927D3*
G36*
X38144Y44285D2*
X38263Y44473D1*
X38288Y44695D1*
X38214Y44905D1*
X38057Y45062D1*
X37847Y45135D1*
X37626Y45110D1*
X37437Y44992D1*
X37084Y44639D1*
X36965Y44450D1*
X36940Y44229D1*
X37014Y44019D1*
X37171Y43862D1*
X37381Y43788D1*
X37602Y43813D1*
X37791Y43931D1*
X38144Y44285D1*
G37*
G36*
X36836Y45593D2*
X36955Y45782D1*
X36979Y46003D1*
X36906Y46213D1*
X36749Y46370D1*
X36539Y46444D1*
X36317Y46419D1*
X36129Y46300D1*
X35775Y45947D1*
X35657Y45758D1*
X35632Y45537D1*
X35706Y45327D1*
X35863Y45170D1*
X36073Y45096D1*
X36294Y45121D1*
X36483Y45240D1*
X36836Y45593D1*
G37*
G36*
X35528Y46901D2*
X35646Y47090D1*
X35671Y47311D1*
X35598Y47521D1*
X35440Y47678D1*
X35230Y47752D1*
X35009Y47727D1*
X34821Y47608D1*
X34467Y47255D1*
X34349Y47066D1*
X34324Y46845D1*
X34397Y46635D1*
X34555Y46478D1*
X34765Y46404D1*
X34986Y46429D1*
X35174Y46548D1*
X35528Y46901D1*
G37*
G36*
X31992Y43366D2*
X32111Y43554D1*
X32136Y43775D1*
X32062Y43985D1*
X31905Y44143D1*
X31695Y44216D1*
X31474Y44191D1*
X31285Y44073D1*
X30932Y43719D1*
X30813Y43531D1*
X30788Y43310D1*
X30862Y43100D1*
X31019Y42942D1*
X31229Y42869D1*
X31450Y42894D1*
X31639Y43012D1*
X31992Y43366D1*
G37*
G36*
X33301Y42058D2*
X33419Y42246D1*
X33444Y42467D1*
X33370Y42677D1*
X33213Y42834D1*
X33003Y42908D1*
X32782Y42883D1*
X32593Y42765D1*
X32240Y42411D1*
X32122Y42223D1*
X32097Y42002D1*
X32170Y41792D1*
X32327Y41634D1*
X32537Y41561D1*
X32759Y41586D1*
X32947Y41704D1*
X33301Y42058D1*
G37*
G36*
X34609Y40749D2*
X34727Y40938D1*
X34752Y41159D1*
X34679Y41369D1*
X34521Y41526D1*
X34311Y41600D1*
X34090Y41575D1*
X33902Y41457D1*
X33548Y41103D1*
X33430Y40915D1*
X33405Y40693D1*
X33478Y40483D1*
X33636Y40326D1*
X33846Y40253D1*
X34067Y40277D1*
X34255Y40396D1*
X34609Y40749D1*
G37*
G36*
X19592Y49045D2*
X20392D1*
Y48045D1*
X19592D1*
Y49045D1*
G37*
G36*
X21792D2*
X22592D1*
Y48045D1*
X21792D1*
Y49045D1*
G37*
G36*
Y56345D2*
X22592D1*
Y55345D1*
X21792D1*
Y56345D1*
G37*
G36*
X19592D2*
X20392D1*
Y55345D1*
X19592D1*
Y56345D1*
G37*
G36*
X18592Y54795D2*
X20092D1*
Y54095D1*
X18592D1*
Y54795D1*
G37*
G36*
Y53295D2*
X20092D1*
Y52595D1*
X18592D1*
Y53295D1*
G37*
G36*
Y50295D2*
X20092D1*
Y49595D1*
X18592D1*
Y50295D1*
G37*
D36*
X28468Y34205D3*
X26618D3*
X24768D3*
Y29205D3*
X26618D3*
X28468D3*
Y25205D3*
X26618D3*
X24768D3*
Y20205D3*
X26618D3*
X28468D3*
Y16205D3*
X26618D3*
X24768D3*
Y11205D3*
X26618D3*
X28468D3*
X15768Y20205D3*
X17618D3*
X19468D3*
Y25205D3*
X17618D3*
X15768D3*
D39*
X26773Y52857D3*
X25473D3*
D40*
X34318Y54826D3*
Y53526D3*
D39*
X32406Y54510D3*
X31106D3*
X32089Y58000D3*
X30789D3*
X29867Y53674D3*
X28567D3*
X29704Y56201D3*
X28404D3*
D33*
X29712Y54944D3*
X28012D3*
D41*
X32448Y55528D3*
Y56028D3*
Y56528D3*
Y57028D3*
D42*
X31948D3*
X31448D3*
D41*
X30948D3*
Y56528D3*
Y56028D3*
Y55528D3*
D42*
X31448D3*
X31948D3*
D36*
X37468Y25205D3*
X35618D3*
X33768D3*
Y20205D3*
X35618D3*
X37468D3*
M02*
